*
%FSLAX26Y26*%
%MOIN*%
%ADD10R,0.019680X0.019680*%
%ADD11R,0.022010X0.022010*%
%ADD12R,0.033470X0.033470*%
%ADD13R,0.031500X0.031500*%
%ADD14C,0.039370*%
%ADD15C,0.120079*%
%ADD16C,0.010000*%
%IPPOS*%
%LNset.gbp*%
%LPD*%
G75*
G54D10*
X7889089Y4053958D02*
Y4057118D01*
Y4107498D02*
Y4110658D01*
X7910829Y4380218D02*
Y4383378D01*
Y4326668D02*
Y4329828D01*
G54D11*
X7770159Y4306523D02*
Y4308133D01*
Y4271093D02*
Y4272703D01*
X7840079Y4107683D02*
Y4109293D01*
Y4072253D02*
Y4073863D01*
X7805539Y4072373D02*
Y4073983D01*
Y4107803D02*
Y4109413D01*
X7770439Y4072953D02*
Y4074563D01*
Y4108383D02*
Y4109993D01*
X7769829Y3994863D02*
Y3996473D01*
Y4030293D02*
Y4031903D01*
X7770999Y4151433D02*
Y4153043D01*
Y4186863D02*
Y4188473D01*
X7809289Y4350533D02*
Y4352143D01*
Y4385963D02*
Y4387573D01*
X7770489Y4350593D02*
Y4352203D01*
Y4386023D02*
Y4387633D01*
G54D12*
X7852819Y4387138D02*
X7854779D01*
X7852819Y4329658D02*
X7854779D01*
G54D11*
X7769674Y4428918D02*
X7771284D01*
X7805104D02*
X7806714D01*
G54D13*
X7548289Y4388233D02*
Y4409883D01*
X7498289Y4388233D02*
Y4409883D01*
X7448289Y4388233D02*
Y4409883D01*
X7398289Y4388233D02*
Y4409883D01*
Y4001213D02*
Y4022863D01*
X7448289Y4001213D02*
Y4022863D01*
X7498289Y4001213D02*
Y4022863D01*
X7548289Y4001213D02*
Y4022863D01*
G54D10*
X7889089Y4790178D02*
Y4793338D01*
Y4843718D02*
Y4846878D01*
X7910829Y5116438D02*
Y5119598D01*
Y5062888D02*
Y5066048D01*
G54D11*
X7770159Y5042743D02*
Y5044353D01*
Y5007313D02*
Y5008923D01*
X7840079Y4843903D02*
Y4845513D01*
Y4808473D02*
Y4810083D01*
X7805539Y4808593D02*
Y4810203D01*
Y4844023D02*
Y4845633D01*
X7770439Y4809173D02*
Y4810783D01*
Y4844603D02*
Y4846213D01*
X7769829Y4731083D02*
Y4732693D01*
Y4766513D02*
Y4768123D01*
X7770999Y4887653D02*
Y4889263D01*
Y4923083D02*
Y4924693D01*
X7809289Y5086753D02*
Y5088363D01*
Y5122183D02*
Y5123793D01*
X7770489Y5086813D02*
Y5088423D01*
Y5122243D02*
Y5123853D01*
G54D12*
X7852819Y5123358D02*
X7854779D01*
X7852819Y5065878D02*
X7854779D01*
G54D11*
X7769674Y5165138D02*
X7771284D01*
X7805104D02*
X7806714D01*
G54D13*
X7548289Y5124453D02*
Y5146103D01*
X7498289Y5124453D02*
Y5146103D01*
X7448289Y5124453D02*
Y5146103D01*
X7398289Y5124453D02*
Y5146103D01*
Y4737433D02*
Y4759083D01*
X7448289Y4737433D02*
Y4759083D01*
X7498289Y4737433D02*
Y4759083D01*
X7548289Y4737433D02*
Y4759083D01*
G54D10*
X7889089Y5526399D02*
Y5529559D01*
Y5579939D02*
Y5583099D01*
X7910829Y5852659D02*
Y5855819D01*
Y5799109D02*
Y5802269D01*
G54D11*
X7770159Y5778964D02*
Y5780574D01*
Y5743534D02*
Y5745144D01*
X7840079Y5580124D02*
Y5581734D01*
Y5544694D02*
Y5546304D01*
X7805539Y5544814D02*
Y5546424D01*
Y5580244D02*
Y5581854D01*
X7770439Y5545394D02*
Y5547004D01*
Y5580824D02*
Y5582434D01*
X7769829Y5467304D02*
Y5468914D01*
Y5502734D02*
Y5504344D01*
X7770999Y5623874D02*
Y5625484D01*
Y5659304D02*
Y5660914D01*
X7809289Y5822974D02*
Y5824584D01*
Y5858404D02*
Y5860014D01*
X7770489Y5823034D02*
Y5824644D01*
Y5858464D02*
Y5860074D01*
G54D12*
X7852819Y5859579D02*
X7854779D01*
X7852819Y5802099D02*
X7854779D01*
G54D11*
X7769674Y5901359D02*
X7771284D01*
X7805104D02*
X7806714D01*
G54D13*
X7548289Y5860674D02*
Y5882324D01*
X7498289Y5860674D02*
Y5882324D01*
X7448289Y5860674D02*
Y5882324D01*
X7398289Y5860674D02*
Y5882324D01*
Y5473654D02*
Y5495304D01*
X7448289Y5473654D02*
Y5495304D01*
X7498289Y5473654D02*
Y5495304D01*
X7548289Y5473654D02*
Y5495304D01*
G54D10*
X7889089Y6262619D02*
Y6265779D01*
Y6316159D02*
Y6319319D01*
X7910829Y6588879D02*
Y6592039D01*
Y6535329D02*
Y6538489D01*
G54D11*
X7770159Y6515184D02*
Y6516794D01*
Y6479754D02*
Y6481364D01*
X7840079Y6316344D02*
Y6317954D01*
Y6280914D02*
Y6282524D01*
X7805539Y6281034D02*
Y6282644D01*
Y6316464D02*
Y6318074D01*
X7770439Y6281614D02*
Y6283224D01*
Y6317044D02*
Y6318654D01*
X7769829Y6203524D02*
Y6205134D01*
Y6238954D02*
Y6240564D01*
X7770999Y6360094D02*
Y6361704D01*
Y6395524D02*
Y6397134D01*
X7809289Y6559194D02*
Y6560804D01*
Y6594624D02*
Y6596234D01*
X7770489Y6559254D02*
Y6560864D01*
Y6594684D02*
Y6596294D01*
G54D12*
X7852819Y6595799D02*
X7854779D01*
X7852819Y6538319D02*
X7854779D01*
G54D11*
X7769674Y6637579D02*
X7771284D01*
X7805104D02*
X7806714D01*
G54D13*
X7548289Y6596894D02*
Y6618544D01*
X7498289Y6596894D02*
Y6618544D01*
X7448289Y6596894D02*
Y6618544D01*
X7398289Y6596894D02*
Y6618544D01*
Y6209874D02*
Y6231524D01*
X7448289Y6209874D02*
Y6231524D01*
X7498289Y6209874D02*
Y6231524D01*
X7548289Y6209874D02*
Y6231524D01*
G54D10*
X7889089Y6998840D02*
Y7002000D01*
Y7052380D02*
Y7055540D01*
X7910829Y7325100D02*
Y7328260D01*
Y7271550D02*
Y7274710D01*
G54D11*
X7770159Y7251405D02*
Y7253015D01*
Y7215975D02*
Y7217585D01*
X7840079Y7052565D02*
Y7054175D01*
Y7017135D02*
Y7018745D01*
X7805539Y7017255D02*
Y7018865D01*
Y7052685D02*
Y7054295D01*
X7770439Y7017835D02*
Y7019445D01*
Y7053265D02*
Y7054875D01*
X7769829Y6939745D02*
Y6941355D01*
Y6975175D02*
Y6976785D01*
X7770999Y7096315D02*
Y7097925D01*
Y7131745D02*
Y7133355D01*
X7809289Y7295415D02*
Y7297025D01*
Y7330845D02*
Y7332455D01*
X7770489Y7295475D02*
Y7297085D01*
Y7330905D02*
Y7332515D01*
G54D12*
X7852819Y7332020D02*
X7854779D01*
X7852819Y7274540D02*
X7854779D01*
G54D11*
X7769674Y7373800D02*
X7771284D01*
X7805104D02*
X7806714D01*
G54D13*
X7548289Y7333115D02*
Y7354764D01*
X7498289Y7333115D02*
Y7354764D01*
X7448289Y7333115D02*
Y7354764D01*
X7398289Y7333115D02*
Y7354764D01*
Y6946095D02*
Y6967744D01*
X7448289Y6946095D02*
Y6967744D01*
X7498289Y6946095D02*
Y6967744D01*
X7548289Y6946095D02*
Y6967744D01*
G54D10*
X7889089Y7735060D02*
Y7738220D01*
Y7788600D02*
Y7791760D01*
X7910829Y8061320D02*
Y8064480D01*
Y8007770D02*
Y8010930D01*
G54D11*
X7770159Y7987625D02*
Y7989235D01*
Y7952195D02*
Y7953805D01*
X7840079Y7788785D02*
Y7790395D01*
Y7753355D02*
Y7754965D01*
X7805539Y7753475D02*
Y7755085D01*
Y7788905D02*
Y7790515D01*
X7770439Y7754055D02*
Y7755665D01*
Y7789485D02*
Y7791095D01*
X7769829Y7675965D02*
Y7677575D01*
Y7711395D02*
Y7713005D01*
X7770999Y7832535D02*
Y7834145D01*
Y7867965D02*
Y7869575D01*
X7809289Y8031635D02*
Y8033245D01*
Y8067065D02*
Y8068675D01*
X7770489Y8031695D02*
Y8033305D01*
Y8067125D02*
Y8068735D01*
G54D12*
X7852819Y8068240D02*
X7854779D01*
X7852819Y8010760D02*
X7854779D01*
G54D11*
X7769674Y8110020D02*
X7771284D01*
X7805104D02*
X7806714D01*
G54D13*
X7548289Y8069335D02*
Y8090985D01*
X7498289Y8069335D02*
Y8090985D01*
X7448289Y8069335D02*
Y8090985D01*
X7398289Y8069335D02*
Y8090985D01*
Y7682315D02*
Y7703965D01*
X7448289Y7682315D02*
Y7703965D01*
X7498289Y7682315D02*
Y7703965D01*
X7548289Y7682315D02*
Y7703965D01*
G54D10*
X7889089Y8471281D02*
Y8474441D01*
Y8524821D02*
Y8527981D01*
X7910829Y8797541D02*
Y8800700D01*
Y8743991D02*
Y8747150D01*
G54D11*
X7770159Y8723846D02*
Y8725456D01*
Y8688416D02*
Y8690025D01*
X7840079Y8525006D02*
Y8526616D01*
Y8489576D02*
Y8491186D01*
X7805539Y8489696D02*
Y8491306D01*
Y8525126D02*
Y8526736D01*
X7770439Y8490276D02*
Y8491886D01*
Y8525706D02*
Y8527316D01*
X7769829Y8412186D02*
Y8413796D01*
Y8447616D02*
Y8449225D01*
X7770999Y8568756D02*
Y8570366D01*
Y8604186D02*
Y8605796D01*
X7809289Y8767856D02*
Y8769466D01*
Y8803286D02*
Y8804896D01*
X7770489Y8767916D02*
Y8769525D01*
Y8803346D02*
Y8804956D01*
G54D12*
X7852819Y8804461D02*
X7854779D01*
X7852819Y8746981D02*
X7854779D01*
G54D11*
X7769674Y8846241D02*
X7771284D01*
X7805104D02*
X7806714D01*
G54D13*
X7548289Y8805556D02*
Y8827205D01*
X7498289Y8805556D02*
Y8827205D01*
X7448289Y8805556D02*
Y8827205D01*
X7398289Y8805556D02*
Y8827205D01*
Y8418536D02*
Y8440185D01*
X7448289Y8418536D02*
Y8440185D01*
X7498289Y8418536D02*
Y8440185D01*
X7548289Y8418536D02*
Y8440185D01*
G54D10*
X8798538Y4053958D02*
Y4057118D01*
Y4107498D02*
Y4110658D01*
X8820278Y4380218D02*
Y4383378D01*
Y4326668D02*
Y4329828D01*
G54D11*
X8679608Y4306523D02*
Y4308133D01*
Y4271093D02*
Y4272703D01*
X8749528Y4107683D02*
Y4109293D01*
Y4072253D02*
Y4073863D01*
X8714988Y4072373D02*
Y4073983D01*
Y4107803D02*
Y4109413D01*
X8679888Y4072953D02*
Y4074563D01*
Y4108383D02*
Y4109993D01*
X8679278Y3994863D02*
Y3996473D01*
Y4030293D02*
Y4031903D01*
X8680448Y4151433D02*
Y4153043D01*
Y4186863D02*
Y4188473D01*
X8718738Y4350533D02*
Y4352143D01*
Y4385963D02*
Y4387573D01*
X8679938Y4350593D02*
Y4352203D01*
Y4386023D02*
Y4387633D01*
G54D12*
X8762268Y4387138D02*
X8764228D01*
X8762268Y4329658D02*
X8764228D01*
G54D11*
X8679123Y4428918D02*
X8680733D01*
X8714553D02*
X8716163D01*
G54D13*
X8457738Y4388233D02*
Y4409883D01*
X8407738Y4388233D02*
Y4409883D01*
X8357738Y4388233D02*
Y4409883D01*
X8307738Y4388233D02*
Y4409883D01*
Y4001213D02*
Y4022863D01*
X8357738Y4001213D02*
Y4022863D01*
X8407738Y4001213D02*
Y4022863D01*
X8457738Y4001213D02*
Y4022863D01*
G54D10*
X8798538Y4790178D02*
Y4793338D01*
Y4843718D02*
Y4846878D01*
X8820278Y5116438D02*
Y5119598D01*
Y5062888D02*
Y5066048D01*
G54D11*
X8679608Y5042743D02*
Y5044353D01*
Y5007313D02*
Y5008923D01*
X8749528Y4843903D02*
Y4845513D01*
Y4808473D02*
Y4810083D01*
X8714988Y4808593D02*
Y4810203D01*
Y4844023D02*
Y4845633D01*
X8679888Y4809173D02*
Y4810783D01*
Y4844603D02*
Y4846213D01*
X8679278Y4731083D02*
Y4732693D01*
Y4766513D02*
Y4768123D01*
X8680448Y4887653D02*
Y4889263D01*
Y4923083D02*
Y4924693D01*
X8718738Y5086753D02*
Y5088363D01*
Y5122183D02*
Y5123793D01*
X8679938Y5086813D02*
Y5088423D01*
Y5122243D02*
Y5123853D01*
G54D12*
X8762268Y5123358D02*
X8764228D01*
X8762268Y5065878D02*
X8764228D01*
G54D11*
X8679123Y5165138D02*
X8680733D01*
X8714553D02*
X8716163D01*
G54D13*
X8457738Y5124453D02*
Y5146103D01*
X8407738Y5124453D02*
Y5146103D01*
X8357738Y5124453D02*
Y5146103D01*
X8307738Y5124453D02*
Y5146103D01*
Y4737433D02*
Y4759083D01*
X8357738Y4737433D02*
Y4759083D01*
X8407738Y4737433D02*
Y4759083D01*
X8457738Y4737433D02*
Y4759083D01*
G54D10*
X8798538Y5526399D02*
Y5529559D01*
Y5579939D02*
Y5583099D01*
X8820278Y5852659D02*
Y5855819D01*
Y5799109D02*
Y5802269D01*
G54D11*
X8679608Y5778964D02*
Y5780574D01*
Y5743534D02*
Y5745144D01*
X8749528Y5580124D02*
Y5581734D01*
Y5544694D02*
Y5546304D01*
X8714988Y5544814D02*
Y5546424D01*
Y5580244D02*
Y5581854D01*
X8679888Y5545394D02*
Y5547004D01*
Y5580824D02*
Y5582434D01*
X8679278Y5467304D02*
Y5468914D01*
Y5502734D02*
Y5504344D01*
X8680448Y5623874D02*
Y5625484D01*
Y5659304D02*
Y5660914D01*
X8718738Y5822974D02*
Y5824584D01*
Y5858404D02*
Y5860014D01*
X8679938Y5823034D02*
Y5824644D01*
Y5858464D02*
Y5860074D01*
G54D12*
X8762268Y5859579D02*
X8764228D01*
X8762268Y5802099D02*
X8764228D01*
G54D11*
X8679123Y5901359D02*
X8680733D01*
X8714553D02*
X8716163D01*
G54D13*
X8457738Y5860674D02*
Y5882324D01*
X8407738Y5860674D02*
Y5882324D01*
X8357738Y5860674D02*
Y5882324D01*
X8307738Y5860674D02*
Y5882324D01*
Y5473654D02*
Y5495304D01*
X8357738Y5473654D02*
Y5495304D01*
X8407738Y5473654D02*
Y5495304D01*
X8457738Y5473654D02*
Y5495304D01*
G54D10*
X8798538Y6262619D02*
Y6265779D01*
Y6316159D02*
Y6319319D01*
X8820278Y6588879D02*
Y6592039D01*
Y6535329D02*
Y6538489D01*
G54D11*
X8679608Y6515184D02*
Y6516794D01*
Y6479754D02*
Y6481364D01*
X8749528Y6316344D02*
Y6317954D01*
Y6280914D02*
Y6282524D01*
X8714988Y6281034D02*
Y6282644D01*
Y6316464D02*
Y6318074D01*
X8679888Y6281614D02*
Y6283224D01*
Y6317044D02*
Y6318654D01*
X8679278Y6203524D02*
Y6205134D01*
Y6238954D02*
Y6240564D01*
X8680448Y6360094D02*
Y6361704D01*
Y6395524D02*
Y6397134D01*
X8718738Y6559194D02*
Y6560804D01*
Y6594624D02*
Y6596234D01*
X8679938Y6559254D02*
Y6560864D01*
Y6594684D02*
Y6596294D01*
G54D12*
X8762268Y6595799D02*
X8764228D01*
X8762268Y6538319D02*
X8764228D01*
G54D11*
X8679123Y6637579D02*
X8680733D01*
X8714553D02*
X8716163D01*
G54D13*
X8457738Y6596894D02*
Y6618544D01*
X8407738Y6596894D02*
Y6618544D01*
X8357738Y6596894D02*
Y6618544D01*
X8307738Y6596894D02*
Y6618544D01*
Y6209874D02*
Y6231524D01*
X8357738Y6209874D02*
Y6231524D01*
X8407738Y6209874D02*
Y6231524D01*
X8457738Y6209874D02*
Y6231524D01*
G54D10*
X8798538Y6998840D02*
Y7002000D01*
Y7052380D02*
Y7055540D01*
X8820278Y7325100D02*
Y7328260D01*
Y7271550D02*
Y7274710D01*
G54D11*
X8679608Y7251405D02*
Y7253015D01*
Y7215975D02*
Y7217585D01*
X8749528Y7052565D02*
Y7054175D01*
Y7017135D02*
Y7018745D01*
X8714988Y7017255D02*
Y7018865D01*
Y7052685D02*
Y7054295D01*
X8679888Y7017835D02*
Y7019445D01*
Y7053265D02*
Y7054875D01*
X8679278Y6939745D02*
Y6941355D01*
Y6975175D02*
Y6976785D01*
X8680448Y7096315D02*
Y7097925D01*
Y7131745D02*
Y7133355D01*
X8718738Y7295415D02*
Y7297025D01*
Y7330845D02*
Y7332455D01*
X8679938Y7295475D02*
Y7297085D01*
Y7330905D02*
Y7332515D01*
G54D12*
X8762268Y7332020D02*
X8764228D01*
X8762268Y7274540D02*
X8764228D01*
G54D11*
X8679123Y7373800D02*
X8680733D01*
X8714553D02*
X8716163D01*
G54D13*
X8457738Y7333115D02*
Y7354764D01*
X8407738Y7333115D02*
Y7354764D01*
X8357738Y7333115D02*
Y7354764D01*
X8307738Y7333115D02*
Y7354764D01*
Y6946095D02*
Y6967744D01*
X8357738Y6946095D02*
Y6967744D01*
X8407738Y6946095D02*
Y6967744D01*
X8457738Y6946095D02*
Y6967744D01*
G54D10*
X8798538Y7735060D02*
Y7738220D01*
Y7788600D02*
Y7791760D01*
X8820278Y8061320D02*
Y8064480D01*
Y8007770D02*
Y8010930D01*
G54D11*
X8679608Y7987625D02*
Y7989235D01*
Y7952195D02*
Y7953805D01*
X8749528Y7788785D02*
Y7790395D01*
Y7753355D02*
Y7754965D01*
X8714988Y7753475D02*
Y7755085D01*
Y7788905D02*
Y7790515D01*
X8679888Y7754055D02*
Y7755665D01*
Y7789485D02*
Y7791095D01*
X8679278Y7675965D02*
Y7677575D01*
Y7711395D02*
Y7713005D01*
X8680448Y7832535D02*
Y7834145D01*
Y7867965D02*
Y7869575D01*
X8718738Y8031635D02*
Y8033245D01*
Y8067065D02*
Y8068675D01*
X8679938Y8031695D02*
Y8033305D01*
Y8067125D02*
Y8068735D01*
G54D12*
X8762268Y8068240D02*
X8764228D01*
X8762268Y8010760D02*
X8764228D01*
G54D11*
X8679123Y8110020D02*
X8680733D01*
X8714553D02*
X8716163D01*
G54D13*
X8457738Y8069335D02*
Y8090985D01*
X8407738Y8069335D02*
Y8090985D01*
X8357738Y8069335D02*
Y8090985D01*
X8307738Y8069335D02*
Y8090985D01*
Y7682315D02*
Y7703965D01*
X8357738Y7682315D02*
Y7703965D01*
X8407738Y7682315D02*
Y7703965D01*
X8457738Y7682315D02*
Y7703965D01*
G54D10*
X8798538Y8471281D02*
Y8474441D01*
Y8524821D02*
Y8527981D01*
X8820278Y8797541D02*
Y8800700D01*
Y8743991D02*
Y8747150D01*
G54D11*
X8679608Y8723846D02*
Y8725456D01*
Y8688416D02*
Y8690025D01*
X8749528Y8525006D02*
Y8526616D01*
Y8489576D02*
Y8491186D01*
X8714988Y8489696D02*
Y8491306D01*
Y8525126D02*
Y8526736D01*
X8679888Y8490276D02*
Y8491886D01*
Y8525706D02*
Y8527316D01*
X8679278Y8412186D02*
Y8413796D01*
Y8447616D02*
Y8449225D01*
X8680448Y8568756D02*
Y8570366D01*
Y8604186D02*
Y8605796D01*
X8718738Y8767856D02*
Y8769466D01*
Y8803286D02*
Y8804896D01*
X8679938Y8767916D02*
Y8769525D01*
Y8803346D02*
Y8804956D01*
G54D12*
X8762268Y8804461D02*
X8764228D01*
X8762268Y8746981D02*
X8764228D01*
G54D11*
X8679123Y8846241D02*
X8680733D01*
X8714553D02*
X8716163D01*
G54D13*
X8457738Y8805556D02*
Y8827205D01*
X8407738Y8805556D02*
Y8827205D01*
X8357738Y8805556D02*
Y8827205D01*
X8307738Y8805556D02*
Y8827205D01*
Y8418536D02*
Y8440185D01*
X8357738Y8418536D02*
Y8440185D01*
X8407738Y8418536D02*
Y8440185D01*
X8457738Y8418536D02*
Y8440185D01*
G54D10*
X9707987Y4053958D02*
Y4057118D01*
Y4107498D02*
Y4110658D01*
X9729727Y4380218D02*
Y4383378D01*
Y4326668D02*
Y4329828D01*
G54D11*
X9589057Y4306523D02*
Y4308133D01*
Y4271093D02*
Y4272703D01*
X9658977Y4107683D02*
Y4109293D01*
Y4072253D02*
Y4073863D01*
X9624437Y4072373D02*
Y4073983D01*
Y4107803D02*
Y4109413D01*
X9589337Y4072953D02*
Y4074563D01*
Y4108383D02*
Y4109993D01*
X9588727Y3994863D02*
Y3996473D01*
Y4030293D02*
Y4031903D01*
X9589897Y4151433D02*
Y4153043D01*
Y4186863D02*
Y4188473D01*
X9628187Y4350533D02*
Y4352143D01*
Y4385963D02*
Y4387573D01*
X9589387Y4350593D02*
Y4352203D01*
Y4386023D02*
Y4387633D01*
G54D12*
X9671717Y4387138D02*
X9673677D01*
X9671717Y4329658D02*
X9673677D01*
G54D11*
X9588572Y4428918D02*
X9590182D01*
X9624002D02*
X9625612D01*
G54D13*
X9367187Y4388233D02*
Y4409883D01*
X9317187Y4388233D02*
Y4409883D01*
X9267187Y4388233D02*
Y4409883D01*
X9217187Y4388233D02*
Y4409883D01*
Y4001213D02*
Y4022863D01*
X9267187Y4001213D02*
Y4022863D01*
X9317187Y4001213D02*
Y4022863D01*
X9367187Y4001213D02*
Y4022863D01*
G54D10*
X9707987Y4790178D02*
Y4793338D01*
Y4843718D02*
Y4846878D01*
X9729727Y5116438D02*
Y5119598D01*
Y5062888D02*
Y5066048D01*
G54D11*
X9589057Y5042743D02*
Y5044353D01*
Y5007313D02*
Y5008923D01*
X9658977Y4843903D02*
Y4845513D01*
Y4808473D02*
Y4810083D01*
X9624437Y4808593D02*
Y4810203D01*
Y4844023D02*
Y4845633D01*
X9589337Y4809173D02*
Y4810783D01*
Y4844603D02*
Y4846213D01*
X9588727Y4731083D02*
Y4732693D01*
Y4766513D02*
Y4768123D01*
X9589897Y4887653D02*
Y4889263D01*
Y4923083D02*
Y4924693D01*
X9628187Y5086753D02*
Y5088363D01*
Y5122183D02*
Y5123793D01*
X9589387Y5086813D02*
Y5088423D01*
Y5122243D02*
Y5123853D01*
G54D12*
X9671717Y5123358D02*
X9673677D01*
X9671717Y5065878D02*
X9673677D01*
G54D11*
X9588572Y5165138D02*
X9590182D01*
X9624002D02*
X9625612D01*
G54D13*
X9367187Y5124453D02*
Y5146103D01*
X9317187Y5124453D02*
Y5146103D01*
X9267187Y5124453D02*
Y5146103D01*
X9217187Y5124453D02*
Y5146103D01*
Y4737433D02*
Y4759083D01*
X9267187Y4737433D02*
Y4759083D01*
X9317187Y4737433D02*
Y4759083D01*
X9367187Y4737433D02*
Y4759083D01*
G54D10*
X9707987Y5526399D02*
Y5529559D01*
Y5579939D02*
Y5583099D01*
X9729727Y5852659D02*
Y5855819D01*
Y5799109D02*
Y5802269D01*
G54D11*
X9589057Y5778964D02*
Y5780574D01*
Y5743534D02*
Y5745144D01*
X9658977Y5580124D02*
Y5581734D01*
Y5544694D02*
Y5546304D01*
X9624437Y5544814D02*
Y5546424D01*
Y5580244D02*
Y5581854D01*
X9589337Y5545394D02*
Y5547004D01*
Y5580824D02*
Y5582434D01*
X9588727Y5467304D02*
Y5468914D01*
Y5502734D02*
Y5504344D01*
X9589897Y5623874D02*
Y5625484D01*
Y5659304D02*
Y5660914D01*
X9628187Y5822974D02*
Y5824584D01*
Y5858404D02*
Y5860014D01*
X9589387Y5823034D02*
Y5824644D01*
Y5858464D02*
Y5860074D01*
G54D12*
X9671717Y5859579D02*
X9673677D01*
X9671717Y5802099D02*
X9673677D01*
G54D11*
X9588572Y5901359D02*
X9590182D01*
X9624002D02*
X9625612D01*
G54D13*
X9367187Y5860674D02*
Y5882324D01*
X9317187Y5860674D02*
Y5882324D01*
X9267187Y5860674D02*
Y5882324D01*
X9217187Y5860674D02*
Y5882324D01*
Y5473654D02*
Y5495304D01*
X9267187Y5473654D02*
Y5495304D01*
X9317187Y5473654D02*
Y5495304D01*
X9367187Y5473654D02*
Y5495304D01*
G54D10*
X9707987Y6262619D02*
Y6265779D01*
Y6316159D02*
Y6319319D01*
X9729727Y6588879D02*
Y6592039D01*
Y6535329D02*
Y6538489D01*
G54D11*
X9589057Y6515184D02*
Y6516794D01*
Y6479754D02*
Y6481364D01*
X9658977Y6316344D02*
Y6317954D01*
Y6280914D02*
Y6282524D01*
X9624437Y6281034D02*
Y6282644D01*
Y6316464D02*
Y6318074D01*
X9589337Y6281614D02*
Y6283224D01*
Y6317044D02*
Y6318654D01*
X9588727Y6203524D02*
Y6205134D01*
Y6238954D02*
Y6240564D01*
X9589897Y6360094D02*
Y6361704D01*
Y6395524D02*
Y6397134D01*
X9628187Y6559194D02*
Y6560804D01*
Y6594624D02*
Y6596234D01*
X9589387Y6559254D02*
Y6560864D01*
Y6594684D02*
Y6596294D01*
G54D12*
X9671717Y6595799D02*
X9673677D01*
X9671717Y6538319D02*
X9673677D01*
G54D11*
X9588572Y6637579D02*
X9590182D01*
X9624002D02*
X9625612D01*
G54D13*
X9367187Y6596894D02*
Y6618544D01*
X9317187Y6596894D02*
Y6618544D01*
X9267187Y6596894D02*
Y6618544D01*
X9217187Y6596894D02*
Y6618544D01*
Y6209874D02*
Y6231524D01*
X9267187Y6209874D02*
Y6231524D01*
X9317187Y6209874D02*
Y6231524D01*
X9367187Y6209874D02*
Y6231524D01*
G54D10*
X9707987Y6998840D02*
Y7002000D01*
Y7052380D02*
Y7055540D01*
X9729727Y7325100D02*
Y7328260D01*
Y7271550D02*
Y7274710D01*
G54D11*
X9589057Y7251405D02*
Y7253015D01*
Y7215975D02*
Y7217585D01*
X9658977Y7052565D02*
Y7054175D01*
Y7017135D02*
Y7018745D01*
X9624437Y7017255D02*
Y7018865D01*
Y7052685D02*
Y7054295D01*
X9589337Y7017835D02*
Y7019445D01*
Y7053265D02*
Y7054875D01*
X9588727Y6939745D02*
Y6941355D01*
Y6975175D02*
Y6976785D01*
X9589897Y7096315D02*
Y7097925D01*
Y7131745D02*
Y7133355D01*
X9628187Y7295415D02*
Y7297025D01*
Y7330845D02*
Y7332455D01*
X9589387Y7295475D02*
Y7297085D01*
Y7330905D02*
Y7332515D01*
G54D12*
X9671717Y7332020D02*
X9673677D01*
X9671717Y7274540D02*
X9673677D01*
G54D11*
X9588572Y7373800D02*
X9590182D01*
X9624002D02*
X9625612D01*
G54D13*
X9367187Y7333115D02*
Y7354764D01*
X9317187Y7333115D02*
Y7354764D01*
X9267187Y7333115D02*
Y7354764D01*
X9217187Y7333115D02*
Y7354764D01*
Y6946095D02*
Y6967744D01*
X9267187Y6946095D02*
Y6967744D01*
X9317187Y6946095D02*
Y6967744D01*
X9367187Y6946095D02*
Y6967744D01*
G54D10*
X9707987Y7735060D02*
Y7738220D01*
Y7788600D02*
Y7791760D01*
X9729727Y8061320D02*
Y8064480D01*
Y8007770D02*
Y8010930D01*
G54D11*
X9589057Y7987625D02*
Y7989235D01*
Y7952195D02*
Y7953805D01*
X9658977Y7788785D02*
Y7790395D01*
Y7753355D02*
Y7754965D01*
X9624437Y7753475D02*
Y7755085D01*
Y7788905D02*
Y7790515D01*
X9589337Y7754055D02*
Y7755665D01*
Y7789485D02*
Y7791095D01*
X9588727Y7675965D02*
Y7677575D01*
Y7711395D02*
Y7713005D01*
X9589897Y7832535D02*
Y7834145D01*
Y7867965D02*
Y7869575D01*
X9628187Y8031635D02*
Y8033245D01*
Y8067065D02*
Y8068675D01*
X9589387Y8031695D02*
Y8033305D01*
Y8067125D02*
Y8068735D01*
G54D12*
X9671717Y8068240D02*
X9673677D01*
X9671717Y8010760D02*
X9673677D01*
G54D11*
X9588572Y8110020D02*
X9590182D01*
X9624002D02*
X9625612D01*
G54D13*
X9367187Y8069335D02*
Y8090985D01*
X9317187Y8069335D02*
Y8090985D01*
X9267187Y8069335D02*
Y8090985D01*
X9217187Y8069335D02*
Y8090985D01*
Y7682315D02*
Y7703965D01*
X9267187Y7682315D02*
Y7703965D01*
X9317187Y7682315D02*
Y7703965D01*
X9367187Y7682315D02*
Y7703965D01*
G54D10*
X9707987Y8471281D02*
Y8474441D01*
Y8524821D02*
Y8527981D01*
X9729727Y8797541D02*
Y8800700D01*
Y8743991D02*
Y8747150D01*
G54D11*
X9589057Y8723846D02*
Y8725456D01*
Y8688416D02*
Y8690025D01*
X9658977Y8525006D02*
Y8526616D01*
Y8489576D02*
Y8491186D01*
X9624437Y8489696D02*
Y8491306D01*
Y8525126D02*
Y8526736D01*
X9589337Y8490276D02*
Y8491886D01*
Y8525706D02*
Y8527316D01*
X9588727Y8412186D02*
Y8413796D01*
Y8447616D02*
Y8449225D01*
X9589897Y8568756D02*
Y8570366D01*
Y8604186D02*
Y8605796D01*
X9628187Y8767856D02*
Y8769466D01*
Y8803286D02*
Y8804896D01*
X9589387Y8767916D02*
Y8769525D01*
Y8803346D02*
Y8804956D01*
G54D12*
X9671717Y8804461D02*
X9673677D01*
X9671717Y8746981D02*
X9673677D01*
G54D11*
X9588572Y8846241D02*
X9590182D01*
X9624002D02*
X9625612D01*
G54D13*
X9367187Y8805556D02*
Y8827205D01*
X9317187Y8805556D02*
Y8827205D01*
X9267187Y8805556D02*
Y8827205D01*
X9217187Y8805556D02*
Y8827205D01*
Y8418536D02*
Y8440185D01*
X9267187Y8418536D02*
Y8440185D01*
X9317187Y8418536D02*
Y8440185D01*
X9367187Y8418536D02*
Y8440185D01*
G54D10*
X10617436Y4053958D02*
Y4057118D01*
Y4107498D02*
Y4110658D01*
X10639176Y4380218D02*
Y4383378D01*
Y4326668D02*
Y4329828D01*
G54D11*
X10498506Y4306523D02*
Y4308133D01*
Y4271093D02*
Y4272703D01*
X10568426Y4107683D02*
Y4109293D01*
Y4072253D02*
Y4073863D01*
X10533886Y4072373D02*
Y4073983D01*
Y4107803D02*
Y4109413D01*
X10498786Y4072953D02*
Y4074563D01*
Y4108383D02*
Y4109993D01*
X10498176Y3994863D02*
Y3996473D01*
Y4030293D02*
Y4031903D01*
X10499346Y4151433D02*
Y4153043D01*
Y4186863D02*
Y4188473D01*
X10537636Y4350533D02*
Y4352143D01*
Y4385963D02*
Y4387573D01*
X10498836Y4350593D02*
Y4352203D01*
Y4386023D02*
Y4387633D01*
G54D12*
X10581166Y4387138D02*
X10583126D01*
X10581166Y4329658D02*
X10583126D01*
G54D11*
X10498021Y4428918D02*
X10499631D01*
X10533451D02*
X10535061D01*
G54D13*
X10276636Y4388233D02*
Y4409883D01*
X10226636Y4388233D02*
Y4409883D01*
X10176636Y4388233D02*
Y4409883D01*
X10126636Y4388233D02*
Y4409883D01*
Y4001213D02*
Y4022863D01*
X10176636Y4001213D02*
Y4022863D01*
X10226636Y4001213D02*
Y4022863D01*
X10276636Y4001213D02*
Y4022863D01*
G54D10*
X10617436Y4790178D02*
Y4793338D01*
Y4843718D02*
Y4846878D01*
X10639176Y5116438D02*
Y5119598D01*
Y5062888D02*
Y5066048D01*
G54D11*
X10498506Y5042743D02*
Y5044353D01*
Y5007313D02*
Y5008923D01*
X10568426Y4843903D02*
Y4845513D01*
Y4808473D02*
Y4810083D01*
X10533886Y4808593D02*
Y4810203D01*
Y4844023D02*
Y4845633D01*
X10498786Y4809173D02*
Y4810783D01*
Y4844603D02*
Y4846213D01*
X10498176Y4731083D02*
Y4732693D01*
Y4766513D02*
Y4768123D01*
X10499346Y4887653D02*
Y4889263D01*
Y4923083D02*
Y4924693D01*
X10537636Y5086753D02*
Y5088363D01*
Y5122183D02*
Y5123793D01*
X10498836Y5086813D02*
Y5088423D01*
Y5122243D02*
Y5123853D01*
G54D12*
X10581166Y5123358D02*
X10583126D01*
X10581166Y5065878D02*
X10583126D01*
G54D11*
X10498021Y5165138D02*
X10499631D01*
X10533451D02*
X10535061D01*
G54D13*
X10276636Y5124453D02*
Y5146103D01*
X10226636Y5124453D02*
Y5146103D01*
X10176636Y5124453D02*
Y5146103D01*
X10126636Y5124453D02*
Y5146103D01*
Y4737433D02*
Y4759083D01*
X10176636Y4737433D02*
Y4759083D01*
X10226636Y4737433D02*
Y4759083D01*
X10276636Y4737433D02*
Y4759083D01*
G54D10*
X10617436Y5526399D02*
Y5529559D01*
Y5579939D02*
Y5583099D01*
X10639176Y5852659D02*
Y5855819D01*
Y5799109D02*
Y5802269D01*
G54D11*
X10498506Y5778964D02*
Y5780574D01*
Y5743534D02*
Y5745144D01*
X10568426Y5580124D02*
Y5581734D01*
Y5544694D02*
Y5546304D01*
X10533886Y5544814D02*
Y5546424D01*
Y5580244D02*
Y5581854D01*
X10498786Y5545394D02*
Y5547004D01*
Y5580824D02*
Y5582434D01*
X10498176Y5467304D02*
Y5468914D01*
Y5502734D02*
Y5504344D01*
X10499346Y5623874D02*
Y5625484D01*
Y5659304D02*
Y5660914D01*
X10537636Y5822974D02*
Y5824584D01*
Y5858404D02*
Y5860014D01*
X10498836Y5823034D02*
Y5824644D01*
Y5858464D02*
Y5860074D01*
G54D12*
X10581166Y5859579D02*
X10583126D01*
X10581166Y5802099D02*
X10583126D01*
G54D11*
X10498021Y5901359D02*
X10499631D01*
X10533451D02*
X10535061D01*
G54D13*
X10276636Y5860674D02*
Y5882324D01*
X10226636Y5860674D02*
Y5882324D01*
X10176636Y5860674D02*
Y5882324D01*
X10126636Y5860674D02*
Y5882324D01*
Y5473654D02*
Y5495304D01*
X10176636Y5473654D02*
Y5495304D01*
X10226636Y5473654D02*
Y5495304D01*
X10276636Y5473654D02*
Y5495304D01*
G54D10*
X10617436Y6262619D02*
Y6265779D01*
Y6316159D02*
Y6319319D01*
X10639176Y6588879D02*
Y6592039D01*
Y6535329D02*
Y6538489D01*
G54D11*
X10498506Y6515184D02*
Y6516794D01*
Y6479754D02*
Y6481364D01*
X10568426Y6316344D02*
Y6317954D01*
Y6280914D02*
Y6282524D01*
X10533886Y6281034D02*
Y6282644D01*
Y6316464D02*
Y6318074D01*
X10498786Y6281614D02*
Y6283224D01*
Y6317044D02*
Y6318654D01*
X10498176Y6203524D02*
Y6205134D01*
Y6238954D02*
Y6240564D01*
X10499346Y6360094D02*
Y6361704D01*
Y6395524D02*
Y6397134D01*
X10537636Y6559194D02*
Y6560804D01*
Y6594624D02*
Y6596234D01*
X10498836Y6559254D02*
Y6560864D01*
Y6594684D02*
Y6596294D01*
G54D12*
X10581166Y6595799D02*
X10583126D01*
X10581166Y6538319D02*
X10583126D01*
G54D11*
X10498021Y6637579D02*
X10499631D01*
X10533451D02*
X10535061D01*
G54D13*
X10276636Y6596894D02*
Y6618544D01*
X10226636Y6596894D02*
Y6618544D01*
X10176636Y6596894D02*
Y6618544D01*
X10126636Y6596894D02*
Y6618544D01*
Y6209874D02*
Y6231524D01*
X10176636Y6209874D02*
Y6231524D01*
X10226636Y6209874D02*
Y6231524D01*
X10276636Y6209874D02*
Y6231524D01*
G54D10*
X10617436Y6998840D02*
Y7002000D01*
Y7052380D02*
Y7055540D01*
X10639176Y7325100D02*
Y7328260D01*
Y7271550D02*
Y7274710D01*
G54D11*
X10498506Y7251405D02*
Y7253015D01*
Y7215975D02*
Y7217585D01*
X10568426Y7052565D02*
Y7054175D01*
Y7017135D02*
Y7018745D01*
X10533886Y7017255D02*
Y7018865D01*
Y7052685D02*
Y7054295D01*
X10498786Y7017835D02*
Y7019445D01*
Y7053265D02*
Y7054875D01*
X10498176Y6939745D02*
Y6941355D01*
Y6975175D02*
Y6976785D01*
X10499346Y7096315D02*
Y7097925D01*
Y7131745D02*
Y7133355D01*
X10537636Y7295415D02*
Y7297025D01*
Y7330845D02*
Y7332455D01*
X10498836Y7295475D02*
Y7297085D01*
Y7330905D02*
Y7332515D01*
G54D12*
X10581166Y7332020D02*
X10583126D01*
X10581166Y7274540D02*
X10583126D01*
G54D11*
X10498021Y7373800D02*
X10499631D01*
X10533451D02*
X10535061D01*
G54D13*
X10276636Y7333115D02*
Y7354764D01*
X10226636Y7333115D02*
Y7354764D01*
X10176636Y7333115D02*
Y7354764D01*
X10126636Y7333115D02*
Y7354764D01*
Y6946095D02*
Y6967744D01*
X10176636Y6946095D02*
Y6967744D01*
X10226636Y6946095D02*
Y6967744D01*
X10276636Y6946095D02*
Y6967744D01*
G54D10*
X10617436Y7735060D02*
Y7738220D01*
Y7788600D02*
Y7791760D01*
X10639176Y8061320D02*
Y8064480D01*
Y8007770D02*
Y8010930D01*
G54D11*
X10498506Y7987625D02*
Y7989235D01*
Y7952195D02*
Y7953805D01*
X10568426Y7788785D02*
Y7790395D01*
Y7753355D02*
Y7754965D01*
X10533886Y7753475D02*
Y7755085D01*
Y7788905D02*
Y7790515D01*
X10498786Y7754055D02*
Y7755665D01*
Y7789485D02*
Y7791095D01*
X10498176Y7675965D02*
Y7677575D01*
Y7711395D02*
Y7713005D01*
X10499346Y7832535D02*
Y7834145D01*
Y7867965D02*
Y7869575D01*
X10537636Y8031635D02*
Y8033245D01*
Y8067065D02*
Y8068675D01*
X10498836Y8031695D02*
Y8033305D01*
Y8067125D02*
Y8068735D01*
G54D12*
X10581166Y8068240D02*
X10583126D01*
X10581166Y8010760D02*
X10583126D01*
G54D11*
X10498021Y8110020D02*
X10499631D01*
X10533451D02*
X10535061D01*
G54D13*
X10276636Y8069335D02*
Y8090985D01*
X10226636Y8069335D02*
Y8090985D01*
X10176636Y8069335D02*
Y8090985D01*
X10126636Y8069335D02*
Y8090985D01*
Y7682315D02*
Y7703965D01*
X10176636Y7682315D02*
Y7703965D01*
X10226636Y7682315D02*
Y7703965D01*
X10276636Y7682315D02*
Y7703965D01*
G54D10*
X10617436Y8471281D02*
Y8474441D01*
Y8524821D02*
Y8527981D01*
X10639176Y8797541D02*
Y8800700D01*
Y8743991D02*
Y8747150D01*
G54D11*
X10498506Y8723846D02*
Y8725456D01*
Y8688416D02*
Y8690025D01*
X10568426Y8525006D02*
Y8526616D01*
Y8489576D02*
Y8491186D01*
X10533886Y8489696D02*
Y8491306D01*
Y8525126D02*
Y8526736D01*
X10498786Y8490276D02*
Y8491886D01*
Y8525706D02*
Y8527316D01*
X10498176Y8412186D02*
Y8413796D01*
Y8447616D02*
Y8449225D01*
X10499346Y8568756D02*
Y8570366D01*
Y8604186D02*
Y8605796D01*
X10537636Y8767856D02*
Y8769466D01*
Y8803286D02*
Y8804896D01*
X10498836Y8767916D02*
Y8769525D01*
Y8803346D02*
Y8804956D01*
G54D12*
X10581166Y8804461D02*
X10583126D01*
X10581166Y8746981D02*
X10583126D01*
G54D11*
X10498021Y8846241D02*
X10499631D01*
X10533451D02*
X10535061D01*
G54D13*
X10276636Y8805556D02*
Y8827205D01*
X10226636Y8805556D02*
Y8827205D01*
X10176636Y8805556D02*
Y8827205D01*
X10126636Y8805556D02*
Y8827205D01*
Y8418536D02*
Y8440185D01*
X10176636Y8418536D02*
Y8440185D01*
X10226636Y8418536D02*
Y8440185D01*
X10276636Y8418536D02*
Y8440185D01*
G54D10*
X11822160Y4053958D02*
Y4057118D01*
Y4107498D02*
Y4110658D01*
X11843900Y4380218D02*
Y4383378D01*
Y4326668D02*
Y4329828D01*
G54D11*
X11703230Y4306523D02*
Y4308133D01*
Y4271093D02*
Y4272703D01*
X11773150Y4107683D02*
Y4109293D01*
Y4072253D02*
Y4073863D01*
X11738610Y4072373D02*
Y4073983D01*
Y4107803D02*
Y4109413D01*
X11703510Y4072953D02*
Y4074563D01*
Y4108383D02*
Y4109993D01*
X11702900Y3994863D02*
Y3996473D01*
Y4030293D02*
Y4031903D01*
X11704070Y4151433D02*
Y4153043D01*
Y4186863D02*
Y4188473D01*
X11742360Y4350533D02*
Y4352143D01*
Y4385963D02*
Y4387573D01*
X11703560Y4350593D02*
Y4352203D01*
Y4386023D02*
Y4387633D01*
G54D12*
X11785890Y4387138D02*
X11787850D01*
X11785890Y4329658D02*
X11787850D01*
G54D11*
X11702745Y4428918D02*
X11704355D01*
X11738175D02*
X11739785D01*
G54D13*
X11481360Y4388233D02*
Y4409883D01*
X11431360Y4388233D02*
Y4409883D01*
X11381360Y4388233D02*
Y4409883D01*
X11331360Y4388233D02*
Y4409883D01*
Y4001213D02*
Y4022863D01*
X11381360Y4001213D02*
Y4022863D01*
X11431360Y4001213D02*
Y4022863D01*
X11481360Y4001213D02*
Y4022863D01*
G54D10*
X11822160Y4790178D02*
Y4793338D01*
Y4843718D02*
Y4846878D01*
X11843900Y5116438D02*
Y5119598D01*
Y5062888D02*
Y5066048D01*
G54D11*
X11703230Y5042743D02*
Y5044353D01*
Y5007313D02*
Y5008923D01*
X11773150Y4843903D02*
Y4845513D01*
Y4808473D02*
Y4810083D01*
X11738610Y4808593D02*
Y4810203D01*
Y4844023D02*
Y4845633D01*
X11703510Y4809173D02*
Y4810783D01*
Y4844603D02*
Y4846213D01*
X11702900Y4731083D02*
Y4732693D01*
Y4766513D02*
Y4768123D01*
X11704070Y4887653D02*
Y4889263D01*
Y4923083D02*
Y4924693D01*
X11742360Y5086753D02*
Y5088363D01*
Y5122183D02*
Y5123793D01*
X11703560Y5086813D02*
Y5088423D01*
Y5122243D02*
Y5123853D01*
G54D12*
X11785890Y5123358D02*
X11787850D01*
X11785890Y5065878D02*
X11787850D01*
G54D11*
X11702745Y5165138D02*
X11704355D01*
X11738175D02*
X11739785D01*
G54D13*
X11481360Y5124453D02*
Y5146103D01*
X11431360Y5124453D02*
Y5146103D01*
X11381360Y5124453D02*
Y5146103D01*
X11331360Y5124453D02*
Y5146103D01*
Y4737433D02*
Y4759083D01*
X11381360Y4737433D02*
Y4759083D01*
X11431360Y4737433D02*
Y4759083D01*
X11481360Y4737433D02*
Y4759083D01*
G54D10*
X11822160Y5526399D02*
Y5529559D01*
Y5579939D02*
Y5583099D01*
X11843900Y5852659D02*
Y5855819D01*
Y5799109D02*
Y5802269D01*
G54D11*
X11703230Y5778964D02*
Y5780574D01*
Y5743534D02*
Y5745144D01*
X11773150Y5580124D02*
Y5581734D01*
Y5544694D02*
Y5546304D01*
X11738610Y5544814D02*
Y5546424D01*
Y5580244D02*
Y5581854D01*
X11703510Y5545394D02*
Y5547004D01*
Y5580824D02*
Y5582434D01*
X11702900Y5467304D02*
Y5468914D01*
Y5502734D02*
Y5504344D01*
X11704070Y5623874D02*
Y5625484D01*
Y5659304D02*
Y5660914D01*
X11742360Y5822974D02*
Y5824584D01*
Y5858404D02*
Y5860014D01*
X11703560Y5823034D02*
Y5824644D01*
Y5858464D02*
Y5860074D01*
G54D12*
X11785890Y5859579D02*
X11787850D01*
X11785890Y5802099D02*
X11787850D01*
G54D11*
X11702745Y5901359D02*
X11704355D01*
X11738175D02*
X11739785D01*
G54D13*
X11481360Y5860674D02*
Y5882324D01*
X11431360Y5860674D02*
Y5882324D01*
X11381360Y5860674D02*
Y5882324D01*
X11331360Y5860674D02*
Y5882324D01*
Y5473654D02*
Y5495304D01*
X11381360Y5473654D02*
Y5495304D01*
X11431360Y5473654D02*
Y5495304D01*
X11481360Y5473654D02*
Y5495304D01*
G54D10*
X11822160Y6262619D02*
Y6265779D01*
Y6316159D02*
Y6319319D01*
X11843900Y6588879D02*
Y6592039D01*
Y6535329D02*
Y6538489D01*
G54D11*
X11703230Y6515184D02*
Y6516794D01*
Y6479754D02*
Y6481364D01*
X11773150Y6316344D02*
Y6317954D01*
Y6280914D02*
Y6282524D01*
X11738610Y6281034D02*
Y6282644D01*
Y6316464D02*
Y6318074D01*
X11703510Y6281614D02*
Y6283224D01*
Y6317044D02*
Y6318654D01*
X11702900Y6203524D02*
Y6205134D01*
Y6238954D02*
Y6240564D01*
X11704070Y6360094D02*
Y6361704D01*
Y6395524D02*
Y6397134D01*
X11742360Y6559194D02*
Y6560804D01*
Y6594624D02*
Y6596234D01*
X11703560Y6559254D02*
Y6560864D01*
Y6594684D02*
Y6596294D01*
G54D12*
X11785890Y6595799D02*
X11787850D01*
X11785890Y6538319D02*
X11787850D01*
G54D11*
X11702745Y6637579D02*
X11704355D01*
X11738175D02*
X11739785D01*
G54D13*
X11481360Y6596894D02*
Y6618544D01*
X11431360Y6596894D02*
Y6618544D01*
X11381360Y6596894D02*
Y6618544D01*
X11331360Y6596894D02*
Y6618544D01*
Y6209874D02*
Y6231524D01*
X11381360Y6209874D02*
Y6231524D01*
X11431360Y6209874D02*
Y6231524D01*
X11481360Y6209874D02*
Y6231524D01*
G54D10*
X11822160Y6998840D02*
Y7002000D01*
Y7052380D02*
Y7055540D01*
X11843900Y7325100D02*
Y7328260D01*
Y7271550D02*
Y7274710D01*
G54D11*
X11703230Y7251405D02*
Y7253015D01*
Y7215975D02*
Y7217585D01*
X11773150Y7052565D02*
Y7054175D01*
Y7017135D02*
Y7018745D01*
X11738610Y7017255D02*
Y7018865D01*
Y7052685D02*
Y7054295D01*
X11703510Y7017835D02*
Y7019445D01*
Y7053265D02*
Y7054875D01*
X11702900Y6939745D02*
Y6941355D01*
Y6975175D02*
Y6976785D01*
X11704070Y7096315D02*
Y7097925D01*
Y7131745D02*
Y7133355D01*
X11742360Y7295415D02*
Y7297025D01*
Y7330845D02*
Y7332455D01*
X11703560Y7295475D02*
Y7297085D01*
Y7330905D02*
Y7332515D01*
G54D12*
X11785890Y7332020D02*
X11787850D01*
X11785890Y7274540D02*
X11787850D01*
G54D11*
X11702745Y7373800D02*
X11704355D01*
X11738175D02*
X11739785D01*
G54D13*
X11481360Y7333115D02*
Y7354764D01*
X11431360Y7333115D02*
Y7354764D01*
X11381360Y7333115D02*
Y7354764D01*
X11331360Y7333115D02*
Y7354764D01*
Y6946095D02*
Y6967744D01*
X11381360Y6946095D02*
Y6967744D01*
X11431360Y6946095D02*
Y6967744D01*
X11481360Y6946095D02*
Y6967744D01*
G54D10*
X11822160Y7735060D02*
Y7738220D01*
Y7788600D02*
Y7791760D01*
X11843900Y8061320D02*
Y8064480D01*
Y8007770D02*
Y8010930D01*
G54D11*
X11703230Y7987625D02*
Y7989235D01*
Y7952195D02*
Y7953805D01*
X11773150Y7788785D02*
Y7790395D01*
Y7753355D02*
Y7754965D01*
X11738610Y7753475D02*
Y7755085D01*
Y7788905D02*
Y7790515D01*
X11703510Y7754055D02*
Y7755665D01*
Y7789485D02*
Y7791095D01*
X11702900Y7675965D02*
Y7677575D01*
Y7711395D02*
Y7713005D01*
X11704070Y7832535D02*
Y7834145D01*
Y7867965D02*
Y7869575D01*
X11742360Y8031635D02*
Y8033245D01*
Y8067065D02*
Y8068675D01*
X11703560Y8031695D02*
Y8033305D01*
Y8067125D02*
Y8068735D01*
G54D12*
X11785890Y8068240D02*
X11787850D01*
X11785890Y8010760D02*
X11787850D01*
G54D11*
X11702745Y8110020D02*
X11704355D01*
X11738175D02*
X11739785D01*
G54D13*
X11481360Y8069335D02*
Y8090985D01*
X11431360Y8069335D02*
Y8090985D01*
X11381360Y8069335D02*
Y8090985D01*
X11331360Y8069335D02*
Y8090985D01*
Y7682315D02*
Y7703965D01*
X11381360Y7682315D02*
Y7703965D01*
X11431360Y7682315D02*
Y7703965D01*
X11481360Y7682315D02*
Y7703965D01*
G54D10*
X11822160Y8471281D02*
Y8474441D01*
Y8524821D02*
Y8527981D01*
X11843900Y8797541D02*
Y8800700D01*
Y8743991D02*
Y8747150D01*
G54D11*
X11703230Y8723846D02*
Y8725456D01*
Y8688416D02*
Y8690025D01*
X11773150Y8525006D02*
Y8526616D01*
Y8489576D02*
Y8491186D01*
X11738610Y8489696D02*
Y8491306D01*
Y8525126D02*
Y8526736D01*
X11703510Y8490276D02*
Y8491886D01*
Y8525706D02*
Y8527316D01*
X11702900Y8412186D02*
Y8413796D01*
Y8447616D02*
Y8449225D01*
X11704070Y8568756D02*
Y8570366D01*
Y8604186D02*
Y8605796D01*
X11742360Y8767856D02*
Y8769466D01*
Y8803286D02*
Y8804896D01*
X11703560Y8767916D02*
Y8769525D01*
Y8803346D02*
Y8804956D01*
G54D12*
X11785890Y8804461D02*
X11787850D01*
X11785890Y8746981D02*
X11787850D01*
G54D11*
X11702745Y8846241D02*
X11704355D01*
X11738175D02*
X11739785D01*
G54D13*
X11481360Y8805556D02*
Y8827205D01*
X11431360Y8805556D02*
Y8827205D01*
X11381360Y8805556D02*
Y8827205D01*
X11331360Y8805556D02*
Y8827205D01*
Y8418536D02*
Y8440185D01*
X11381360Y8418536D02*
Y8440185D01*
X11431360Y8418536D02*
Y8440185D01*
X11481360Y8418536D02*
Y8440185D01*
G54D10*
X12731609Y4053958D02*
Y4057118D01*
Y4107498D02*
Y4110658D01*
X12753349Y4380218D02*
Y4383378D01*
Y4326668D02*
Y4329828D01*
G54D11*
X12612679Y4306523D02*
Y4308133D01*
Y4271093D02*
Y4272703D01*
X12682599Y4107683D02*
Y4109293D01*
Y4072253D02*
Y4073863D01*
X12648059Y4072373D02*
Y4073983D01*
Y4107803D02*
Y4109413D01*
X12612959Y4072953D02*
Y4074563D01*
Y4108383D02*
Y4109993D01*
X12612349Y3994863D02*
Y3996473D01*
Y4030293D02*
Y4031903D01*
X12613519Y4151433D02*
Y4153043D01*
Y4186863D02*
Y4188473D01*
X12651809Y4350533D02*
Y4352143D01*
Y4385963D02*
Y4387573D01*
X12613009Y4350593D02*
Y4352203D01*
Y4386023D02*
Y4387633D01*
G54D12*
X12695339Y4387138D02*
X12697299D01*
X12695339Y4329658D02*
X12697299D01*
G54D11*
X12612194Y4428918D02*
X12613804D01*
X12647624D02*
X12649234D01*
G54D13*
X12390809Y4388233D02*
Y4409883D01*
X12340809Y4388233D02*
Y4409883D01*
X12290809Y4388233D02*
Y4409883D01*
X12240809Y4388233D02*
Y4409883D01*
Y4001213D02*
Y4022863D01*
X12290809Y4001213D02*
Y4022863D01*
X12340809Y4001213D02*
Y4022863D01*
X12390809Y4001213D02*
Y4022863D01*
G54D10*
X12731609Y4790178D02*
Y4793338D01*
Y4843718D02*
Y4846878D01*
X12753349Y5116438D02*
Y5119598D01*
Y5062888D02*
Y5066048D01*
G54D11*
X12612679Y5042743D02*
Y5044353D01*
Y5007313D02*
Y5008923D01*
X12682599Y4843903D02*
Y4845513D01*
Y4808473D02*
Y4810083D01*
X12648059Y4808593D02*
Y4810203D01*
Y4844023D02*
Y4845633D01*
X12612959Y4809173D02*
Y4810783D01*
Y4844603D02*
Y4846213D01*
X12612349Y4731083D02*
Y4732693D01*
Y4766513D02*
Y4768123D01*
X12613519Y4887653D02*
Y4889263D01*
Y4923083D02*
Y4924693D01*
X12651809Y5086753D02*
Y5088363D01*
Y5122183D02*
Y5123793D01*
X12613009Y5086813D02*
Y5088423D01*
Y5122243D02*
Y5123853D01*
G54D12*
X12695339Y5123358D02*
X12697299D01*
X12695339Y5065878D02*
X12697299D01*
G54D11*
X12612194Y5165138D02*
X12613804D01*
X12647624D02*
X12649234D01*
G54D13*
X12390809Y5124453D02*
Y5146103D01*
X12340809Y5124453D02*
Y5146103D01*
X12290809Y5124453D02*
Y5146103D01*
X12240809Y5124453D02*
Y5146103D01*
Y4737433D02*
Y4759083D01*
X12290809Y4737433D02*
Y4759083D01*
X12340809Y4737433D02*
Y4759083D01*
X12390809Y4737433D02*
Y4759083D01*
G54D10*
X12731609Y5526399D02*
Y5529559D01*
Y5579939D02*
Y5583099D01*
X12753349Y5852659D02*
Y5855819D01*
Y5799109D02*
Y5802269D01*
G54D11*
X12612679Y5778964D02*
Y5780574D01*
Y5743534D02*
Y5745144D01*
X12682599Y5580124D02*
Y5581734D01*
Y5544694D02*
Y5546304D01*
X12648059Y5544814D02*
Y5546424D01*
Y5580244D02*
Y5581854D01*
X12612959Y5545394D02*
Y5547004D01*
Y5580824D02*
Y5582434D01*
X12612349Y5467304D02*
Y5468914D01*
Y5502734D02*
Y5504344D01*
X12613519Y5623874D02*
Y5625484D01*
Y5659304D02*
Y5660914D01*
X12651809Y5822974D02*
Y5824584D01*
Y5858404D02*
Y5860014D01*
X12613009Y5823034D02*
Y5824644D01*
Y5858464D02*
Y5860074D01*
G54D12*
X12695339Y5859579D02*
X12697299D01*
X12695339Y5802099D02*
X12697299D01*
G54D11*
X12612194Y5901359D02*
X12613804D01*
X12647624D02*
X12649234D01*
G54D13*
X12390809Y5860674D02*
Y5882324D01*
X12340809Y5860674D02*
Y5882324D01*
X12290809Y5860674D02*
Y5882324D01*
X12240809Y5860674D02*
Y5882324D01*
Y5473654D02*
Y5495304D01*
X12290809Y5473654D02*
Y5495304D01*
X12340809Y5473654D02*
Y5495304D01*
X12390809Y5473654D02*
Y5495304D01*
G54D10*
X12731609Y6262619D02*
Y6265779D01*
Y6316159D02*
Y6319319D01*
X12753349Y6588879D02*
Y6592039D01*
Y6535329D02*
Y6538489D01*
G54D11*
X12612679Y6515184D02*
Y6516794D01*
Y6479754D02*
Y6481364D01*
X12682599Y6316344D02*
Y6317954D01*
Y6280914D02*
Y6282524D01*
X12648059Y6281034D02*
Y6282644D01*
Y6316464D02*
Y6318074D01*
X12612959Y6281614D02*
Y6283224D01*
Y6317044D02*
Y6318654D01*
X12612349Y6203524D02*
Y6205134D01*
Y6238954D02*
Y6240564D01*
X12613519Y6360094D02*
Y6361704D01*
Y6395524D02*
Y6397134D01*
X12651809Y6559194D02*
Y6560804D01*
Y6594624D02*
Y6596234D01*
X12613009Y6559254D02*
Y6560864D01*
Y6594684D02*
Y6596294D01*
G54D12*
X12695339Y6595799D02*
X12697299D01*
X12695339Y6538319D02*
X12697299D01*
G54D11*
X12612194Y6637579D02*
X12613804D01*
X12647624D02*
X12649234D01*
G54D13*
X12390809Y6596894D02*
Y6618544D01*
X12340809Y6596894D02*
Y6618544D01*
X12290809Y6596894D02*
Y6618544D01*
X12240809Y6596894D02*
Y6618544D01*
Y6209874D02*
Y6231524D01*
X12290809Y6209874D02*
Y6231524D01*
X12340809Y6209874D02*
Y6231524D01*
X12390809Y6209874D02*
Y6231524D01*
G54D10*
X12731609Y6998840D02*
Y7002000D01*
Y7052380D02*
Y7055540D01*
X12753349Y7325100D02*
Y7328260D01*
Y7271550D02*
Y7274710D01*
G54D11*
X12612679Y7251405D02*
Y7253015D01*
Y7215975D02*
Y7217585D01*
X12682599Y7052565D02*
Y7054175D01*
Y7017135D02*
Y7018745D01*
X12648059Y7017255D02*
Y7018865D01*
Y7052685D02*
Y7054295D01*
X12612959Y7017835D02*
Y7019445D01*
Y7053265D02*
Y7054875D01*
X12612349Y6939745D02*
Y6941355D01*
Y6975175D02*
Y6976785D01*
X12613519Y7096315D02*
Y7097925D01*
Y7131745D02*
Y7133355D01*
X12651809Y7295415D02*
Y7297025D01*
Y7330845D02*
Y7332455D01*
X12613009Y7295475D02*
Y7297085D01*
Y7330905D02*
Y7332515D01*
G54D12*
X12695339Y7332020D02*
X12697299D01*
X12695339Y7274540D02*
X12697299D01*
G54D11*
X12612194Y7373800D02*
X12613804D01*
X12647624D02*
X12649234D01*
G54D13*
X12390809Y7333115D02*
Y7354764D01*
X12340809Y7333115D02*
Y7354764D01*
X12290809Y7333115D02*
Y7354764D01*
X12240809Y7333115D02*
Y7354764D01*
Y6946095D02*
Y6967744D01*
X12290809Y6946095D02*
Y6967744D01*
X12340809Y6946095D02*
Y6967744D01*
X12390809Y6946095D02*
Y6967744D01*
G54D10*
X12731609Y7735060D02*
Y7738220D01*
Y7788600D02*
Y7791760D01*
X12753349Y8061320D02*
Y8064480D01*
Y8007770D02*
Y8010930D01*
G54D11*
X12612679Y7987625D02*
Y7989235D01*
Y7952195D02*
Y7953805D01*
X12682599Y7788785D02*
Y7790395D01*
Y7753355D02*
Y7754965D01*
X12648059Y7753475D02*
Y7755085D01*
Y7788905D02*
Y7790515D01*
X12612959Y7754055D02*
Y7755665D01*
Y7789485D02*
Y7791095D01*
X12612349Y7675965D02*
Y7677575D01*
Y7711395D02*
Y7713005D01*
X12613519Y7832535D02*
Y7834145D01*
Y7867965D02*
Y7869575D01*
X12651809Y8031635D02*
Y8033245D01*
Y8067065D02*
Y8068675D01*
X12613009Y8031695D02*
Y8033305D01*
Y8067125D02*
Y8068735D01*
G54D12*
X12695339Y8068240D02*
X12697299D01*
X12695339Y8010760D02*
X12697299D01*
G54D11*
X12612194Y8110020D02*
X12613804D01*
X12647624D02*
X12649234D01*
G54D13*
X12390809Y8069335D02*
Y8090985D01*
X12340809Y8069335D02*
Y8090985D01*
X12290809Y8069335D02*
Y8090985D01*
X12240809Y8069335D02*
Y8090985D01*
Y7682315D02*
Y7703965D01*
X12290809Y7682315D02*
Y7703965D01*
X12340809Y7682315D02*
Y7703965D01*
X12390809Y7682315D02*
Y7703965D01*
G54D10*
X12731609Y8471281D02*
Y8474441D01*
Y8524821D02*
Y8527981D01*
X12753349Y8797541D02*
Y8800700D01*
Y8743991D02*
Y8747150D01*
G54D11*
X12612679Y8723846D02*
Y8725456D01*
Y8688416D02*
Y8690025D01*
X12682599Y8525006D02*
Y8526616D01*
Y8489576D02*
Y8491186D01*
X12648059Y8489696D02*
Y8491306D01*
Y8525126D02*
Y8526736D01*
X12612959Y8490276D02*
Y8491886D01*
Y8525706D02*
Y8527316D01*
X12612349Y8412186D02*
Y8413796D01*
Y8447616D02*
Y8449225D01*
X12613519Y8568756D02*
Y8570366D01*
Y8604186D02*
Y8605796D01*
X12651809Y8767856D02*
Y8769466D01*
Y8803286D02*
Y8804896D01*
X12613009Y8767916D02*
Y8769525D01*
Y8803346D02*
Y8804956D01*
G54D12*
X12695339Y8804461D02*
X12697299D01*
X12695339Y8746981D02*
X12697299D01*
G54D11*
X12612194Y8846241D02*
X12613804D01*
X12647624D02*
X12649234D01*
G54D13*
X12390809Y8805556D02*
Y8827205D01*
X12340809Y8805556D02*
Y8827205D01*
X12290809Y8805556D02*
Y8827205D01*
X12240809Y8805556D02*
Y8827205D01*
Y8418536D02*
Y8440185D01*
X12290809Y8418536D02*
Y8440185D01*
X12340809Y8418536D02*
Y8440185D01*
X12390809Y8418536D02*
Y8440185D01*
G54D10*
X13641058Y4053958D02*
Y4057118D01*
Y4107498D02*
Y4110658D01*
X13662798Y4380218D02*
Y4383378D01*
Y4326668D02*
Y4329828D01*
G54D11*
X13522128Y4306523D02*
Y4308133D01*
Y4271093D02*
Y4272703D01*
X13592048Y4107683D02*
Y4109293D01*
Y4072253D02*
Y4073863D01*
X13557508Y4072373D02*
Y4073983D01*
Y4107803D02*
Y4109413D01*
X13522408Y4072953D02*
Y4074563D01*
Y4108383D02*
Y4109993D01*
X13521798Y3994863D02*
Y3996473D01*
Y4030293D02*
Y4031903D01*
X13522968Y4151433D02*
Y4153043D01*
Y4186863D02*
Y4188473D01*
X13561258Y4350533D02*
Y4352143D01*
Y4385963D02*
Y4387573D01*
X13522458Y4350593D02*
Y4352203D01*
Y4386023D02*
Y4387633D01*
G54D12*
X13604788Y4387138D02*
X13606748D01*
X13604788Y4329658D02*
X13606748D01*
G54D11*
X13521643Y4428918D02*
X13523253D01*
X13557073D02*
X13558683D01*
G54D13*
X13300258Y4388233D02*
Y4409883D01*
X13250258Y4388233D02*
Y4409883D01*
X13200258Y4388233D02*
Y4409883D01*
X13150258Y4388233D02*
Y4409883D01*
Y4001213D02*
Y4022863D01*
X13200258Y4001213D02*
Y4022863D01*
X13250258Y4001213D02*
Y4022863D01*
X13300258Y4001213D02*
Y4022863D01*
G54D10*
X13641058Y4790178D02*
Y4793338D01*
Y4843718D02*
Y4846878D01*
X13662798Y5116438D02*
Y5119598D01*
Y5062888D02*
Y5066048D01*
G54D11*
X13522128Y5042743D02*
Y5044353D01*
Y5007313D02*
Y5008923D01*
X13592048Y4843903D02*
Y4845513D01*
Y4808473D02*
Y4810083D01*
X13557508Y4808593D02*
Y4810203D01*
Y4844023D02*
Y4845633D01*
X13522408Y4809173D02*
Y4810783D01*
Y4844603D02*
Y4846213D01*
X13521798Y4731083D02*
Y4732693D01*
Y4766513D02*
Y4768123D01*
X13522968Y4887653D02*
Y4889263D01*
Y4923083D02*
Y4924693D01*
X13561258Y5086753D02*
Y5088363D01*
Y5122183D02*
Y5123793D01*
X13522458Y5086813D02*
Y5088423D01*
Y5122243D02*
Y5123853D01*
G54D12*
X13604788Y5123358D02*
X13606748D01*
X13604788Y5065878D02*
X13606748D01*
G54D11*
X13521643Y5165138D02*
X13523253D01*
X13557073D02*
X13558683D01*
G54D13*
X13300258Y5124453D02*
Y5146103D01*
X13250258Y5124453D02*
Y5146103D01*
X13200258Y5124453D02*
Y5146103D01*
X13150258Y5124453D02*
Y5146103D01*
Y4737433D02*
Y4759083D01*
X13200258Y4737433D02*
Y4759083D01*
X13250258Y4737433D02*
Y4759083D01*
X13300258Y4737433D02*
Y4759083D01*
G54D10*
X13641058Y5526399D02*
Y5529559D01*
Y5579939D02*
Y5583099D01*
X13662798Y5852659D02*
Y5855819D01*
Y5799109D02*
Y5802269D01*
G54D11*
X13522128Y5778964D02*
Y5780574D01*
Y5743534D02*
Y5745144D01*
X13592048Y5580124D02*
Y5581734D01*
Y5544694D02*
Y5546304D01*
X13557508Y5544814D02*
Y5546424D01*
Y5580244D02*
Y5581854D01*
X13522408Y5545394D02*
Y5547004D01*
Y5580824D02*
Y5582434D01*
X13521798Y5467304D02*
Y5468914D01*
Y5502734D02*
Y5504344D01*
X13522968Y5623874D02*
Y5625484D01*
Y5659304D02*
Y5660914D01*
X13561258Y5822974D02*
Y5824584D01*
Y5858404D02*
Y5860014D01*
X13522458Y5823034D02*
Y5824644D01*
Y5858464D02*
Y5860074D01*
G54D12*
X13604788Y5859579D02*
X13606748D01*
X13604788Y5802099D02*
X13606748D01*
G54D11*
X13521643Y5901359D02*
X13523253D01*
X13557073D02*
X13558683D01*
G54D13*
X13300258Y5860674D02*
Y5882324D01*
X13250258Y5860674D02*
Y5882324D01*
X13200258Y5860674D02*
Y5882324D01*
X13150258Y5860674D02*
Y5882324D01*
Y5473654D02*
Y5495304D01*
X13200258Y5473654D02*
Y5495304D01*
X13250258Y5473654D02*
Y5495304D01*
X13300258Y5473654D02*
Y5495304D01*
G54D10*
X13641058Y6262619D02*
Y6265779D01*
Y6316159D02*
Y6319319D01*
X13662798Y6588879D02*
Y6592039D01*
Y6535329D02*
Y6538489D01*
G54D11*
X13522128Y6515184D02*
Y6516794D01*
Y6479754D02*
Y6481364D01*
X13592048Y6316344D02*
Y6317954D01*
Y6280914D02*
Y6282524D01*
X13557508Y6281034D02*
Y6282644D01*
Y6316464D02*
Y6318074D01*
X13522408Y6281614D02*
Y6283224D01*
Y6317044D02*
Y6318654D01*
X13521798Y6203524D02*
Y6205134D01*
Y6238954D02*
Y6240564D01*
X13522968Y6360094D02*
Y6361704D01*
Y6395524D02*
Y6397134D01*
X13561258Y6559194D02*
Y6560804D01*
Y6594624D02*
Y6596234D01*
X13522458Y6559254D02*
Y6560864D01*
Y6594684D02*
Y6596294D01*
G54D12*
X13604788Y6595799D02*
X13606748D01*
X13604788Y6538319D02*
X13606748D01*
G54D11*
X13521643Y6637579D02*
X13523253D01*
X13557073D02*
X13558683D01*
G54D13*
X13300258Y6596894D02*
Y6618544D01*
X13250258Y6596894D02*
Y6618544D01*
X13200258Y6596894D02*
Y6618544D01*
X13150258Y6596894D02*
Y6618544D01*
Y6209874D02*
Y6231524D01*
X13200258Y6209874D02*
Y6231524D01*
X13250258Y6209874D02*
Y6231524D01*
X13300258Y6209874D02*
Y6231524D01*
G54D10*
X13641058Y6998840D02*
Y7002000D01*
Y7052380D02*
Y7055540D01*
X13662798Y7325100D02*
Y7328260D01*
Y7271550D02*
Y7274710D01*
G54D11*
X13522128Y7251405D02*
Y7253015D01*
Y7215975D02*
Y7217585D01*
X13592048Y7052565D02*
Y7054175D01*
Y7017135D02*
Y7018745D01*
X13557508Y7017255D02*
Y7018865D01*
Y7052685D02*
Y7054295D01*
X13522408Y7017835D02*
Y7019445D01*
Y7053265D02*
Y7054875D01*
X13521798Y6939745D02*
Y6941355D01*
Y6975175D02*
Y6976785D01*
X13522968Y7096315D02*
Y7097925D01*
Y7131745D02*
Y7133355D01*
X13561258Y7295415D02*
Y7297025D01*
Y7330845D02*
Y7332455D01*
X13522458Y7295475D02*
Y7297085D01*
Y7330905D02*
Y7332515D01*
G54D12*
X13604788Y7332020D02*
X13606748D01*
X13604788Y7274540D02*
X13606748D01*
G54D11*
X13521643Y7373800D02*
X13523253D01*
X13557073D02*
X13558683D01*
G54D13*
X13300258Y7333115D02*
Y7354764D01*
X13250258Y7333115D02*
Y7354764D01*
X13200258Y7333115D02*
Y7354764D01*
X13150258Y7333115D02*
Y7354764D01*
Y6946095D02*
Y6967744D01*
X13200258Y6946095D02*
Y6967744D01*
X13250258Y6946095D02*
Y6967744D01*
X13300258Y6946095D02*
Y6967744D01*
G54D10*
X13641058Y7735060D02*
Y7738220D01*
Y7788600D02*
Y7791760D01*
X13662798Y8061320D02*
Y8064480D01*
Y8007770D02*
Y8010930D01*
G54D11*
X13522128Y7987625D02*
Y7989235D01*
Y7952195D02*
Y7953805D01*
X13592048Y7788785D02*
Y7790395D01*
Y7753355D02*
Y7754965D01*
X13557508Y7753475D02*
Y7755085D01*
Y7788905D02*
Y7790515D01*
X13522408Y7754055D02*
Y7755665D01*
Y7789485D02*
Y7791095D01*
X13521798Y7675965D02*
Y7677575D01*
Y7711395D02*
Y7713005D01*
X13522968Y7832535D02*
Y7834145D01*
Y7867965D02*
Y7869575D01*
X13561258Y8031635D02*
Y8033245D01*
Y8067065D02*
Y8068675D01*
X13522458Y8031695D02*
Y8033305D01*
Y8067125D02*
Y8068735D01*
G54D12*
X13604788Y8068240D02*
X13606748D01*
X13604788Y8010760D02*
X13606748D01*
G54D11*
X13521643Y8110020D02*
X13523253D01*
X13557073D02*
X13558683D01*
G54D13*
X13300258Y8069335D02*
Y8090985D01*
X13250258Y8069335D02*
Y8090985D01*
X13200258Y8069335D02*
Y8090985D01*
X13150258Y8069335D02*
Y8090985D01*
Y7682315D02*
Y7703965D01*
X13200258Y7682315D02*
Y7703965D01*
X13250258Y7682315D02*
Y7703965D01*
X13300258Y7682315D02*
Y7703965D01*
G54D10*
X13641058Y8471281D02*
Y8474441D01*
Y8524821D02*
Y8527981D01*
X13662798Y8797541D02*
Y8800700D01*
Y8743991D02*
Y8747150D01*
G54D11*
X13522128Y8723846D02*
Y8725456D01*
Y8688416D02*
Y8690025D01*
X13592048Y8525006D02*
Y8526616D01*
Y8489576D02*
Y8491186D01*
X13557508Y8489696D02*
Y8491306D01*
Y8525126D02*
Y8526736D01*
X13522408Y8490276D02*
Y8491886D01*
Y8525706D02*
Y8527316D01*
X13521798Y8412186D02*
Y8413796D01*
Y8447616D02*
Y8449225D01*
X13522968Y8568756D02*
Y8570366D01*
Y8604186D02*
Y8605796D01*
X13561258Y8767856D02*
Y8769466D01*
Y8803286D02*
Y8804896D01*
X13522458Y8767916D02*
Y8769525D01*
Y8803346D02*
Y8804956D01*
G54D12*
X13604788Y8804461D02*
X13606748D01*
X13604788Y8746981D02*
X13606748D01*
G54D11*
X13521643Y8846241D02*
X13523253D01*
X13557073D02*
X13558683D01*
G54D13*
X13300258Y8805556D02*
Y8827205D01*
X13250258Y8805556D02*
Y8827205D01*
X13200258Y8805556D02*
Y8827205D01*
X13150258Y8805556D02*
Y8827205D01*
Y8418536D02*
Y8440185D01*
X13200258Y8418536D02*
Y8440185D01*
X13250258Y8418536D02*
Y8440185D01*
X13300258Y8418536D02*
Y8440185D01*
G54D10*
X14550507Y4053958D02*
Y4057118D01*
Y4107498D02*
Y4110658D01*
X14572247Y4380218D02*
Y4383378D01*
Y4326668D02*
Y4329828D01*
G54D11*
X14431577Y4306523D02*
Y4308133D01*
Y4271093D02*
Y4272703D01*
X14501497Y4107683D02*
Y4109293D01*
Y4072253D02*
Y4073863D01*
X14466957Y4072373D02*
Y4073983D01*
Y4107803D02*
Y4109413D01*
X14431857Y4072953D02*
Y4074563D01*
Y4108383D02*
Y4109993D01*
X14431247Y3994863D02*
Y3996473D01*
Y4030293D02*
Y4031903D01*
X14432417Y4151433D02*
Y4153043D01*
Y4186863D02*
Y4188473D01*
X14470707Y4350533D02*
Y4352143D01*
Y4385963D02*
Y4387573D01*
X14431907Y4350593D02*
Y4352203D01*
Y4386023D02*
Y4387633D01*
G54D12*
X14514237Y4387138D02*
X14516197D01*
X14514237Y4329658D02*
X14516197D01*
G54D11*
X14431092Y4428918D02*
X14432702D01*
X14466522D02*
X14468132D01*
G54D13*
X14209707Y4388233D02*
Y4409883D01*
X14159707Y4388233D02*
Y4409883D01*
X14109707Y4388233D02*
Y4409883D01*
X14059707Y4388233D02*
Y4409883D01*
Y4001213D02*
Y4022863D01*
X14109707Y4001213D02*
Y4022863D01*
X14159707Y4001213D02*
Y4022863D01*
X14209707Y4001213D02*
Y4022863D01*
G54D10*
X14550507Y4790178D02*
Y4793338D01*
Y4843718D02*
Y4846878D01*
X14572247Y5116438D02*
Y5119598D01*
Y5062888D02*
Y5066048D01*
G54D11*
X14431577Y5042743D02*
Y5044353D01*
Y5007313D02*
Y5008923D01*
X14501497Y4843903D02*
Y4845513D01*
Y4808473D02*
Y4810083D01*
X14466957Y4808593D02*
Y4810203D01*
Y4844023D02*
Y4845633D01*
X14431857Y4809173D02*
Y4810783D01*
Y4844603D02*
Y4846213D01*
X14431247Y4731083D02*
Y4732693D01*
Y4766513D02*
Y4768123D01*
X14432417Y4887653D02*
Y4889263D01*
Y4923083D02*
Y4924693D01*
X14470707Y5086753D02*
Y5088363D01*
Y5122183D02*
Y5123793D01*
X14431907Y5086813D02*
Y5088423D01*
Y5122243D02*
Y5123853D01*
G54D12*
X14514237Y5123358D02*
X14516197D01*
X14514237Y5065878D02*
X14516197D01*
G54D11*
X14431092Y5165138D02*
X14432702D01*
X14466522D02*
X14468132D01*
G54D13*
X14209707Y5124453D02*
Y5146103D01*
X14159707Y5124453D02*
Y5146103D01*
X14109707Y5124453D02*
Y5146103D01*
X14059707Y5124453D02*
Y5146103D01*
Y4737433D02*
Y4759083D01*
X14109707Y4737433D02*
Y4759083D01*
X14159707Y4737433D02*
Y4759083D01*
X14209707Y4737433D02*
Y4759083D01*
G54D10*
X14550507Y5526399D02*
Y5529559D01*
Y5579939D02*
Y5583099D01*
X14572247Y5852659D02*
Y5855819D01*
Y5799109D02*
Y5802269D01*
G54D11*
X14431577Y5778964D02*
Y5780574D01*
Y5743534D02*
Y5745144D01*
X14501497Y5580124D02*
Y5581734D01*
Y5544694D02*
Y5546304D01*
X14466957Y5544814D02*
Y5546424D01*
Y5580244D02*
Y5581854D01*
X14431857Y5545394D02*
Y5547004D01*
Y5580824D02*
Y5582434D01*
X14431247Y5467304D02*
Y5468914D01*
Y5502734D02*
Y5504344D01*
X14432417Y5623874D02*
Y5625484D01*
Y5659304D02*
Y5660914D01*
X14470707Y5822974D02*
Y5824584D01*
Y5858404D02*
Y5860014D01*
X14431907Y5823034D02*
Y5824644D01*
Y5858464D02*
Y5860074D01*
G54D12*
X14514237Y5859579D02*
X14516197D01*
X14514237Y5802099D02*
X14516197D01*
G54D11*
X14431092Y5901359D02*
X14432702D01*
X14466522D02*
X14468132D01*
G54D13*
X14209707Y5860674D02*
Y5882324D01*
X14159707Y5860674D02*
Y5882324D01*
X14109707Y5860674D02*
Y5882324D01*
X14059707Y5860674D02*
Y5882324D01*
Y5473654D02*
Y5495304D01*
X14109707Y5473654D02*
Y5495304D01*
X14159707Y5473654D02*
Y5495304D01*
X14209707Y5473654D02*
Y5495304D01*
G54D10*
X14550507Y6262619D02*
Y6265779D01*
Y6316159D02*
Y6319319D01*
X14572247Y6588879D02*
Y6592039D01*
Y6535329D02*
Y6538489D01*
G54D11*
X14431577Y6515184D02*
Y6516794D01*
Y6479754D02*
Y6481364D01*
X14501497Y6316344D02*
Y6317954D01*
Y6280914D02*
Y6282524D01*
X14466957Y6281034D02*
Y6282644D01*
Y6316464D02*
Y6318074D01*
X14431857Y6281614D02*
Y6283224D01*
Y6317044D02*
Y6318654D01*
X14431247Y6203524D02*
Y6205134D01*
Y6238954D02*
Y6240564D01*
X14432417Y6360094D02*
Y6361704D01*
Y6395524D02*
Y6397134D01*
X14470707Y6559194D02*
Y6560804D01*
Y6594624D02*
Y6596234D01*
X14431907Y6559254D02*
Y6560864D01*
Y6594684D02*
Y6596294D01*
G54D12*
X14514237Y6595799D02*
X14516197D01*
X14514237Y6538319D02*
X14516197D01*
G54D11*
X14431092Y6637579D02*
X14432702D01*
X14466522D02*
X14468132D01*
G54D13*
X14209707Y6596894D02*
Y6618544D01*
X14159707Y6596894D02*
Y6618544D01*
X14109707Y6596894D02*
Y6618544D01*
X14059707Y6596894D02*
Y6618544D01*
Y6209874D02*
Y6231524D01*
X14109707Y6209874D02*
Y6231524D01*
X14159707Y6209874D02*
Y6231524D01*
X14209707Y6209874D02*
Y6231524D01*
G54D10*
X14550507Y6998840D02*
Y7002000D01*
Y7052380D02*
Y7055540D01*
X14572247Y7325100D02*
Y7328260D01*
Y7271550D02*
Y7274710D01*
G54D11*
X14431577Y7251405D02*
Y7253015D01*
Y7215975D02*
Y7217585D01*
X14501497Y7052565D02*
Y7054175D01*
Y7017135D02*
Y7018745D01*
X14466957Y7017255D02*
Y7018865D01*
Y7052685D02*
Y7054295D01*
X14431857Y7017835D02*
Y7019445D01*
Y7053265D02*
Y7054875D01*
X14431247Y6939745D02*
Y6941355D01*
Y6975175D02*
Y6976785D01*
X14432417Y7096315D02*
Y7097925D01*
Y7131745D02*
Y7133355D01*
X14470707Y7295415D02*
Y7297025D01*
Y7330845D02*
Y7332455D01*
X14431907Y7295475D02*
Y7297085D01*
Y7330905D02*
Y7332515D01*
G54D12*
X14514237Y7332020D02*
X14516197D01*
X14514237Y7274540D02*
X14516197D01*
G54D11*
X14431092Y7373800D02*
X14432702D01*
X14466522D02*
X14468132D01*
G54D13*
X14209707Y7333115D02*
Y7354764D01*
X14159707Y7333115D02*
Y7354764D01*
X14109707Y7333115D02*
Y7354764D01*
X14059707Y7333115D02*
Y7354764D01*
Y6946095D02*
Y6967744D01*
X14109707Y6946095D02*
Y6967744D01*
X14159707Y6946095D02*
Y6967744D01*
X14209707Y6946095D02*
Y6967744D01*
G54D10*
X14550507Y7735060D02*
Y7738220D01*
Y7788600D02*
Y7791760D01*
X14572247Y8061320D02*
Y8064480D01*
Y8007770D02*
Y8010930D01*
G54D11*
X14431577Y7987625D02*
Y7989235D01*
Y7952195D02*
Y7953805D01*
X14501497Y7788785D02*
Y7790395D01*
Y7753355D02*
Y7754965D01*
X14466957Y7753475D02*
Y7755085D01*
Y7788905D02*
Y7790515D01*
X14431857Y7754055D02*
Y7755665D01*
Y7789485D02*
Y7791095D01*
X14431247Y7675965D02*
Y7677575D01*
Y7711395D02*
Y7713005D01*
X14432417Y7832535D02*
Y7834145D01*
Y7867965D02*
Y7869575D01*
X14470707Y8031635D02*
Y8033245D01*
Y8067065D02*
Y8068675D01*
X14431907Y8031695D02*
Y8033305D01*
Y8067125D02*
Y8068735D01*
G54D12*
X14514237Y8068240D02*
X14516197D01*
X14514237Y8010760D02*
X14516197D01*
G54D11*
X14431092Y8110020D02*
X14432702D01*
X14466522D02*
X14468132D01*
G54D13*
X14209707Y8069335D02*
Y8090985D01*
X14159707Y8069335D02*
Y8090985D01*
X14109707Y8069335D02*
Y8090985D01*
X14059707Y8069335D02*
Y8090985D01*
Y7682315D02*
Y7703965D01*
X14109707Y7682315D02*
Y7703965D01*
X14159707Y7682315D02*
Y7703965D01*
X14209707Y7682315D02*
Y7703965D01*
G54D10*
X14550507Y8471281D02*
Y8474441D01*
Y8524821D02*
Y8527981D01*
X14572247Y8797541D02*
Y8800700D01*
Y8743991D02*
Y8747150D01*
G54D11*
X14431577Y8723846D02*
Y8725456D01*
Y8688416D02*
Y8690025D01*
X14501497Y8525006D02*
Y8526616D01*
Y8489576D02*
Y8491186D01*
X14466957Y8489696D02*
Y8491306D01*
Y8525126D02*
Y8526736D01*
X14431857Y8490276D02*
Y8491886D01*
Y8525706D02*
Y8527316D01*
X14431247Y8412186D02*
Y8413796D01*
Y8447616D02*
Y8449225D01*
X14432417Y8568756D02*
Y8570366D01*
Y8604186D02*
Y8605796D01*
X14470707Y8767856D02*
Y8769466D01*
Y8803286D02*
Y8804896D01*
X14431907Y8767916D02*
Y8769525D01*
Y8803346D02*
Y8804956D01*
G54D12*
X14514237Y8804461D02*
X14516197D01*
X14514237Y8746981D02*
X14516197D01*
G54D11*
X14431092Y8846241D02*
X14432702D01*
X14466522D02*
X14468132D01*
G54D13*
X14209707Y8805556D02*
Y8827205D01*
X14159707Y8805556D02*
Y8827205D01*
X14109707Y8805556D02*
Y8827205D01*
X14059707Y8805556D02*
Y8827205D01*
Y8418536D02*
Y8440185D01*
X14109707Y8418536D02*
Y8440185D01*
X14159707Y8418536D02*
Y8440185D01*
X14209707Y8418536D02*
Y8440185D01*
G54D14*
X7075644Y4280425D03*
X14902416Y4280442D03*
Y8351388D03*
X7075644Y4280425D03*
X14902416Y4280442D03*
Y8351388D03*
G54D15*
X7075644Y3886725D03*
X14902416Y8941939D03*
Y3886741D03*
G54D16*
X15000841Y8649445D02*
Y8055407D01*
X8066861Y8555569D02*
G03X8066861Y8493327I4845J-31121D01*
X8083518Y8473876D02*
G03X8066861Y8493327I-19685J0D01*
X8083518Y8473876D02*
G01Y8343346D01*
X8024463Y8284291D02*
G03X8083518Y8343346I0J59055D01*
X7907534Y8284291D02*
G01X8024463D01*
X7899660Y8292165D02*
G03X7907534Y8284291I7874J0D01*
X7899660Y8292165D02*
G01Y8357125D01*
G03X7891786Y8364999I-7874J0D01*
G01X7765801D01*
G03X7757927Y8357125I0J-7874D01*
G01Y8292165D01*
X7750053Y8284291D02*
G03X7757927Y8292165I0J7874D01*
X7292179Y8284291D02*
G01X7750053D01*
X7233124Y8343346D02*
G03X7292179Y8284291I59055J0D01*
X7233124Y8902401D02*
G01Y8343346D01*
X7292179Y8961456D02*
G03X7233124Y8902401I0J-59055D01*
X7757927Y8953582D02*
G03X7750053Y8961456I-7874J0D01*
X7757927Y8888621D02*
G01Y8953582D01*
Y8888621D02*
G03X7765801Y8880747I7874J0D01*
X7891786D02*
G01X7765801D01*
X7891786D02*
G03X7899660Y8888621I0J7874D01*
Y8953582D02*
G01Y8888621D01*
X7907534Y8961456D02*
G03X7899660Y8953582I0J-7874D01*
X8024463Y8961456D02*
G01X7907534D01*
X8083518Y8902401D02*
G03X8024463Y8961456I-59055J0D01*
X8083518Y8902401D02*
G01Y8771870D01*
X8066861Y8752420D02*
G03X8083518Y8771870I-3029J19451D01*
X8066861Y8752420D02*
G03X8066861Y8690177I4845J-31121D01*
X8083518Y8670727D02*
G03X8066861Y8690177I-19685J0D01*
X8083518Y8670727D02*
G01Y8575020D01*
X8066861Y8555569D02*
G03X8083518Y8575020I-3029J19451D01*
X7750053Y8961456D02*
G01X7292179D01*
X8976310Y8555569D02*
G03X8976310Y8493327I4845J-31121D01*
X8992967Y8473876D02*
G03X8976310Y8493327I-19685J0D01*
X8992967Y8473876D02*
G01Y8343346D01*
X8933912Y8284291D02*
G03X8992967Y8343346I0J59055D01*
X8816982Y8284291D02*
G01X8933912D01*
X8809108Y8292165D02*
G03X8816982Y8284291I7874J0D01*
X8809108Y8292165D02*
G01Y8357125D01*
G03X8801234Y8364999I-7874J0D01*
G01X8675250D01*
G03X8667376Y8357125I0J-7874D01*
G01Y8292165D01*
X8659502Y8284291D02*
G03X8667376Y8292165I0J7874D01*
X8201628Y8284291D02*
G01X8659502D01*
X8142573Y8343346D02*
G03X8201628Y8284291I59055J0D01*
X8142573Y8902401D02*
G01Y8343346D01*
X8201628Y8961456D02*
G03X8142573Y8902401I0J-59055D01*
X8667376Y8953582D02*
G03X8659502Y8961456I-7874J0D01*
X8667376Y8888621D02*
G01Y8953582D01*
Y8888621D02*
G03X8675250Y8880747I7874J0D01*
X8801234D02*
G01X8675250D01*
X8801234D02*
G03X8809108Y8888621I0J7874D01*
Y8953582D02*
G01Y8888621D01*
X8816982Y8961456D02*
G03X8809108Y8953582I0J-7874D01*
X8933912Y8961456D02*
G01X8816982D01*
X8992967Y8902401D02*
G03X8933912Y8961456I-59055J0D01*
X8992967Y8902401D02*
G01Y8771870D01*
X8976310Y8752420D02*
G03X8992967Y8771870I-3029J19451D01*
X8976310Y8752420D02*
G03X8976310Y8690177I4845J-31121D01*
X8992967Y8670727D02*
G03X8976310Y8690177I-19685J0D01*
X8992967Y8670727D02*
G01Y8575020D01*
X8976310Y8555569D02*
G03X8992967Y8575020I-3029J19451D01*
X8659502Y8961456D02*
G01X8201628D01*
X9885759Y8555569D02*
G03X9885759Y8493327I4845J-31121D01*
X9902416Y8473876D02*
G03X9885759Y8493327I-19685J0D01*
X9902416Y8473876D02*
G01Y8343346D01*
X9843360Y8284291D02*
G03X9902416Y8343346I0J59055D01*
X9726431Y8284291D02*
G01X9843360D01*
X9718557Y8292165D02*
G03X9726431Y8284291I7874J0D01*
X9718557Y8292165D02*
G01Y8357125D01*
G03X9710683Y8364999I-7874J0D01*
G01X9584699D01*
G03X9576825Y8357125I0J-7874D01*
G01Y8292165D01*
X9568951Y8284291D02*
G03X9576825Y8292165I0J7874D01*
X9111077Y8284291D02*
G01X9568951D01*
X9052022Y8343346D02*
G03X9111077Y8284291I59055J0D01*
X9052022Y8902401D02*
G01Y8343346D01*
X9111077Y8961456D02*
G03X9052022Y8902401I0J-59055D01*
X9576825Y8953582D02*
G03X9568951Y8961456I-7874J0D01*
X9576825Y8888621D02*
G01Y8953582D01*
Y8888621D02*
G03X9584699Y8880747I7874J0D01*
X9710683D02*
G01X9584699D01*
X9710683D02*
G03X9718557Y8888621I0J7874D01*
Y8953582D02*
G01Y8888621D01*
X9726431Y8961456D02*
G03X9718557Y8953582I0J-7874D01*
X9843360Y8961456D02*
G01X9726431D01*
X9902416Y8902401D02*
G03X9843360Y8961456I-59055J0D01*
X9902416Y8902401D02*
G01Y8771870D01*
X9885759Y8752420D02*
G03X9902416Y8771870I-3029J19451D01*
X9885759Y8752420D02*
G03X9885759Y8690177I4845J-31121D01*
X9902416Y8670727D02*
G03X9885759Y8690177I-19685J0D01*
X9902416Y8670727D02*
G01Y8575020D01*
X9885759Y8555569D02*
G03X9902416Y8575020I-3029J19451D01*
X9568951Y8961456D02*
G01X9111077D01*
X10795208Y8555569D02*
G03X10795208Y8493327I4845J-31121D01*
X10811864Y8473876D02*
G03X10795208Y8493327I-19685J0D01*
X10811864Y8473876D02*
G01Y8343346D01*
X10752809Y8284291D02*
G03X10811864Y8343346I0J59055D01*
X10635880Y8284291D02*
G01X10752809D01*
X10628006Y8292165D02*
G03X10635880Y8284291I7874J0D01*
X10628006Y8292165D02*
G01Y8357125D01*
G03X10620132Y8364999I-7874J0D01*
G01X10494148D01*
G03X10486274Y8357125I0J-7874D01*
G01Y8292165D01*
X10478400Y8284291D02*
G03X10486274Y8292165I0J7874D01*
X10020526Y8284291D02*
G01X10478400D01*
X9961471Y8343346D02*
G03X10020526Y8284291I59055J0D01*
X9961471Y8902401D02*
G01Y8343346D01*
X10020526Y8961456D02*
G03X9961471Y8902401I0J-59055D01*
X10486274Y8953582D02*
G03X10478400Y8961456I-7874J0D01*
X10486274Y8888621D02*
G01Y8953582D01*
Y8888621D02*
G03X10494148Y8880747I7874J0D01*
X10620132D02*
G01X10494148D01*
X10620132D02*
G03X10628006Y8888621I0J7874D01*
Y8953582D02*
G01Y8888621D01*
X10635880Y8961456D02*
G03X10628006Y8953582I0J-7874D01*
X10752809Y8961456D02*
G01X10635880D01*
X10811864Y8902401D02*
G03X10752809Y8961456I-59055J0D01*
X10811864Y8902401D02*
G01Y8771870D01*
X10795208Y8752420D02*
G03X10811864Y8771870I-3029J19451D01*
X10795208Y8752420D02*
G03X10795208Y8690177I4845J-31121D01*
X10811864Y8670727D02*
G03X10795208Y8690177I-19685J0D01*
X10811864Y8670727D02*
G01Y8575020D01*
X10795208Y8555569D02*
G03X10811864Y8575020I-3029J19451D01*
X10478400Y8961456D02*
G01X10020526D01*
X11999932Y8555569D02*
G03X11999932Y8493327I4845J-31121D01*
X12016589Y8473876D02*
G03X11999932Y8493327I-19685J0D01*
X12016589Y8473876D02*
G01Y8343346D01*
X11957534Y8284291D02*
G03X12016589Y8343346I0J59055D01*
X11840605Y8284291D02*
G01X11957534D01*
X11832731Y8292165D02*
G03X11840605Y8284291I7874J0D01*
X11832731Y8292165D02*
G01Y8357125D01*
G03X11824856Y8364999I-7874J0D01*
G01X11698872D01*
G03X11690998Y8357125I0J-7874D01*
G01Y8292165D01*
X11683124Y8284291D02*
G03X11690998Y8292165I0J7874D01*
X11225250Y8284291D02*
G01X11683124D01*
X11166195Y8343346D02*
G03X11225250Y8284291I59055J0D01*
X11166195Y8902401D02*
G01Y8343346D01*
X11225250Y8961456D02*
G03X11166195Y8902401I0J-59055D01*
X11690998Y8953582D02*
G03X11683124Y8961456I-7874J0D01*
X11690998Y8888621D02*
G01Y8953582D01*
Y8888621D02*
G03X11698872Y8880747I7874J0D01*
X11824856D02*
G01X11698872D01*
X11824856D02*
G03X11832731Y8888621I0J7874D01*
Y8953582D02*
G01Y8888621D01*
X11840605Y8961456D02*
G03X11832731Y8953582I0J-7874D01*
X11957534Y8961456D02*
G01X11840605D01*
X12016589Y8902401D02*
G03X11957534Y8961456I-59055J0D01*
X12016589Y8902401D02*
G01Y8771870D01*
X11999932Y8752420D02*
G03X12016589Y8771870I-3029J19451D01*
X11999932Y8752420D02*
G03X11999932Y8690177I4845J-31121D01*
X12016589Y8670727D02*
G03X11999932Y8690177I-19685J0D01*
X12016589Y8670727D02*
G01Y8575020D01*
X11999932Y8555569D02*
G03X12016589Y8575020I-3029J19451D01*
X11683124Y8961456D02*
G01X11225250D01*
X12909381Y8555569D02*
G03X12909381Y8493327I4845J-31121D01*
X12926038Y8473876D02*
G03X12909381Y8493327I-19685J0D01*
X12926038Y8473876D02*
G01Y8343346D01*
X12866982Y8284291D02*
G03X12926038Y8343346I0J59055D01*
X12750053Y8284291D02*
G01X12866982D01*
X12742179Y8292165D02*
G03X12750053Y8284291I7874J0D01*
X12742179Y8292165D02*
G01Y8357125D01*
G03X12734305Y8364999I-7874J0D01*
G01X12608321D01*
G03X12600447Y8357125I0J-7874D01*
G01Y8292165D01*
X12592573Y8284291D02*
G03X12600447Y8292165I0J7874D01*
X12134699Y8284291D02*
G01X12592573D01*
X12075644Y8343346D02*
G03X12134699Y8284291I59055J0D01*
X12075644Y8902401D02*
G01Y8343346D01*
X12134699Y8961456D02*
G03X12075644Y8902401I0J-59055D01*
X12600447Y8953582D02*
G03X12592573Y8961456I-7874J0D01*
X12600447Y8888621D02*
G01Y8953582D01*
Y8888621D02*
G03X12608321Y8880747I7874J0D01*
X12734305D02*
G01X12608321D01*
X12734305D02*
G03X12742179Y8888621I0J7874D01*
Y8953582D02*
G01Y8888621D01*
X12750053Y8961456D02*
G03X12742179Y8953582I0J-7874D01*
X12866982Y8961456D02*
G01X12750053D01*
X12926038Y8902401D02*
G03X12866982Y8961456I-59055J0D01*
X12926038Y8902401D02*
G01Y8771870D01*
X12909381Y8752420D02*
G03X12926038Y8771870I-3029J19451D01*
X12909381Y8752420D02*
G03X12909381Y8690177I4845J-31121D01*
X12926038Y8670727D02*
G03X12909381Y8690177I-19685J0D01*
X12926038Y8670727D02*
G01Y8575020D01*
X12909381Y8555569D02*
G03X12926038Y8575020I-3029J19451D01*
X12592573Y8961456D02*
G01X12134699D01*
X13818830Y8555569D02*
G03X13818830Y8493327I4845J-31121D01*
X13835486Y8473876D02*
G03X13818830Y8493327I-19685J0D01*
X13835486Y8473876D02*
G01Y8343346D01*
X13776431Y8284291D02*
G03X13835486Y8343346I0J59055D01*
X13659502Y8284291D02*
G01X13776431D01*
X13651628Y8292165D02*
G03X13659502Y8284291I7874J0D01*
X13651628Y8292165D02*
G01Y8357125D01*
G03X13643754Y8364999I-7874J0D01*
G01X13517770D01*
G03X13509896Y8357125I0J-7874D01*
G01Y8292165D01*
X13502022Y8284291D02*
G03X13509896Y8292165I0J7874D01*
X13044148Y8284291D02*
G01X13502022D01*
X12985093Y8343346D02*
G03X13044148Y8284291I59055J0D01*
X12985093Y8902401D02*
G01Y8343346D01*
X13044148Y8961456D02*
G03X12985093Y8902401I0J-59055D01*
X13509896Y8953582D02*
G03X13502022Y8961456I-7874J0D01*
X13509896Y8888621D02*
G01Y8953582D01*
Y8888621D02*
G03X13517770Y8880747I7874J0D01*
X13643754D02*
G01X13517770D01*
X13643754D02*
G03X13651628Y8888621I0J7874D01*
Y8953582D02*
G01Y8888621D01*
X13659502Y8961456D02*
G03X13651628Y8953582I0J-7874D01*
X13776431Y8961456D02*
G01X13659502D01*
X13835486Y8902401D02*
G03X13776431Y8961456I-59055J0D01*
X13835486Y8902401D02*
G01Y8771870D01*
X13818830Y8752420D02*
G03X13835486Y8771870I-3029J19451D01*
X13818830Y8752420D02*
G03X13818830Y8690177I4845J-31121D01*
X13835486Y8670727D02*
G03X13818830Y8690177I-19685J0D01*
X13835486Y8670727D02*
G01Y8575020D01*
X13818830Y8555569D02*
G03X13835486Y8575020I-3029J19451D01*
X13502022Y8961456D02*
G01X13044148D01*
X14728279Y8555569D02*
G03X14728279Y8493327I4845J-31121D01*
X14744935Y8473876D02*
G03X14728279Y8493327I-19685J0D01*
X14744935Y8473876D02*
G01Y8343346D01*
X14685880Y8284291D02*
G03X14744935Y8343346I0J59055D01*
X14568951Y8284291D02*
G01X14685880D01*
X14561077Y8292165D02*
G03X14568951Y8284291I7874J0D01*
X14561077Y8292165D02*
G01Y8357125D01*
G03X14553203Y8364999I-7874J0D01*
G01X14427219D01*
G03X14419345Y8357125I0J-7874D01*
G01Y8292165D01*
X14411471Y8284291D02*
G03X14419345Y8292165I0J7874D01*
X13953597Y8284291D02*
G01X14411471D01*
X13894542Y8343346D02*
G03X13953597Y8284291I59055J0D01*
X13894542Y8902401D02*
G01Y8343346D01*
X13953597Y8961456D02*
G03X13894542Y8902401I0J-59055D01*
X14419345Y8953582D02*
G03X14411471Y8961456I-7874J0D01*
X14419345Y8888621D02*
G01Y8953582D01*
Y8888621D02*
G03X14427219Y8880747I7874J0D01*
X14553203D02*
G01X14427219D01*
X14553203D02*
G03X14561077Y8888621I0J7874D01*
Y8953582D02*
G01Y8888621D01*
X14568951Y8961456D02*
G03X14561077Y8953582I0J-7874D01*
X14685880Y8961456D02*
G01X14568951D01*
X14744935Y8902401D02*
G03X14685880Y8961456I-59055J0D01*
X14744935Y8902401D02*
G01Y8771870D01*
X14728279Y8752420D02*
G03X14744935Y8771870I-3029J19451D01*
X14728279Y8752420D02*
G03X14728279Y8690177I4845J-31121D01*
X14744935Y8670727D02*
G03X14728279Y8690177I-19685J0D01*
X14744935Y8670727D02*
G01Y8575020D01*
X14728279Y8555569D02*
G03X14744935Y8575020I-3029J19451D01*
X14411471Y8961456D02*
G01X13953597D01*
X8066861Y7819349D02*
G03X8066861Y7757107I4845J-31121D01*
X8083518Y7737656D02*
G03X8066861Y7757107I-19685J0D01*
X8083518Y7737656D02*
G01Y7607125D01*
X8024463Y7548070D02*
G03X8083518Y7607125I0J59055D01*
X7907534Y7548070D02*
G01X8024463D01*
X7899660Y7555944D02*
G03X7907534Y7548070I7874J0D01*
X7899660Y7555944D02*
G01Y7620905D01*
G03X7891786Y7628779I-7874J0D01*
G01X7765801D01*
G03X7757927Y7620905I0J-7874D01*
G01Y7555944D01*
X7750053Y7548070D02*
G03X7757927Y7555944I0J7874D01*
X7292179Y7548070D02*
G01X7750053D01*
X7233124Y7607125D02*
G03X7292179Y7548070I59055J0D01*
X7233124Y8166180D02*
G01Y7607125D01*
X7292179Y8225236D02*
G03X7233124Y8166180I0J-59055D01*
X7757927Y8217362D02*
G03X7750053Y8225236I-7874J0D01*
X7757927Y8152401D02*
G01Y8217362D01*
Y8152401D02*
G03X7765801Y8144527I7874J0D01*
X7891786D02*
G01X7765801D01*
X7891786D02*
G03X7899660Y8152401I0J7874D01*
Y8217362D02*
G01Y8152401D01*
X7907534Y8225236D02*
G03X7899660Y8217362I0J-7874D01*
X8024463Y8225236D02*
G01X7907534D01*
X8083518Y8166180D02*
G03X8024463Y8225236I-59055J0D01*
X8083518Y8166180D02*
G01Y8035650D01*
X8066861Y8016199D02*
G03X8083518Y8035650I-3029J19451D01*
X8066861Y8016199D02*
G03X8066861Y7953957I4845J-31121D01*
X8083518Y7934506D02*
G03X8066861Y7953957I-19685J0D01*
X8083518Y7934506D02*
G01Y7838800D01*
X8066861Y7819349D02*
G03X8083518Y7838800I-3029J19451D01*
X7750053Y8225236D02*
G01X7292179D01*
X8976310Y7819349D02*
G03X8976310Y7757107I4845J-31121D01*
X8992967Y7737656D02*
G03X8976310Y7757107I-19685J0D01*
X8992967Y7737656D02*
G01Y7607125D01*
X8933912Y7548070D02*
G03X8992967Y7607125I0J59055D01*
X8816982Y7548070D02*
G01X8933912D01*
X8809108Y7555944D02*
G03X8816982Y7548070I7874J0D01*
X8809108Y7555944D02*
G01Y7620905D01*
G03X8801234Y7628779I-7874J0D01*
G01X8675250D01*
G03X8667376Y7620905I0J-7874D01*
G01Y7555944D01*
X8659502Y7548070D02*
G03X8667376Y7555944I0J7874D01*
X8201628Y7548070D02*
G01X8659502D01*
X8142573Y7607125D02*
G03X8201628Y7548070I59055J0D01*
X8142573Y8166180D02*
G01Y7607125D01*
X8201628Y8225236D02*
G03X8142573Y8166180I0J-59055D01*
X8667376Y8217362D02*
G03X8659502Y8225236I-7874J0D01*
X8667376Y8152401D02*
G01Y8217362D01*
Y8152401D02*
G03X8675250Y8144527I7874J0D01*
X8801234D02*
G01X8675250D01*
X8801234D02*
G03X8809108Y8152401I0J7874D01*
Y8217362D02*
G01Y8152401D01*
X8816982Y8225236D02*
G03X8809108Y8217362I0J-7874D01*
X8933912Y8225236D02*
G01X8816982D01*
X8992967Y8166180D02*
G03X8933912Y8225236I-59055J0D01*
X8992967Y8166180D02*
G01Y8035650D01*
X8976310Y8016199D02*
G03X8992967Y8035650I-3029J19451D01*
X8976310Y8016199D02*
G03X8976310Y7953957I4845J-31121D01*
X8992967Y7934506D02*
G03X8976310Y7953957I-19685J0D01*
X8992967Y7934506D02*
G01Y7838800D01*
X8976310Y7819349D02*
G03X8992967Y7838800I-3029J19451D01*
X8659502Y8225236D02*
G01X8201628D01*
X9885759Y7819349D02*
G03X9885759Y7757107I4845J-31121D01*
X9902416Y7737656D02*
G03X9885759Y7757107I-19685J0D01*
X9902416Y7737656D02*
G01Y7607125D01*
X9843360Y7548070D02*
G03X9902416Y7607125I0J59055D01*
X9726431Y7548070D02*
G01X9843360D01*
X9718557Y7555944D02*
G03X9726431Y7548070I7874J0D01*
X9718557Y7555944D02*
G01Y7620905D01*
G03X9710683Y7628779I-7874J0D01*
G01X9584699D01*
G03X9576825Y7620905I0J-7874D01*
G01Y7555944D01*
X9568951Y7548070D02*
G03X9576825Y7555944I0J7874D01*
X9111077Y7548070D02*
G01X9568951D01*
X9052022Y7607125D02*
G03X9111077Y7548070I59055J0D01*
X9052022Y8166180D02*
G01Y7607125D01*
X9111077Y8225236D02*
G03X9052022Y8166180I0J-59055D01*
X9576825Y8217362D02*
G03X9568951Y8225236I-7874J0D01*
X9576825Y8152401D02*
G01Y8217362D01*
Y8152401D02*
G03X9584699Y8144527I7874J0D01*
X9710683D02*
G01X9584699D01*
X9710683D02*
G03X9718557Y8152401I0J7874D01*
Y8217362D02*
G01Y8152401D01*
X9726431Y8225236D02*
G03X9718557Y8217362I0J-7874D01*
X9843360Y8225236D02*
G01X9726431D01*
X9902416Y8166180D02*
G03X9843360Y8225236I-59055J0D01*
X9902416Y8166180D02*
G01Y8035650D01*
X9885759Y8016199D02*
G03X9902416Y8035650I-3029J19451D01*
X9885759Y8016199D02*
G03X9885759Y7953957I4845J-31121D01*
X9902416Y7934506D02*
G03X9885759Y7953957I-19685J0D01*
X9902416Y7934506D02*
G01Y7838800D01*
X9885759Y7819349D02*
G03X9902416Y7838800I-3029J19451D01*
X9568951Y8225236D02*
G01X9111077D01*
X10795208Y7819349D02*
G03X10795208Y7757107I4845J-31121D01*
X10811864Y7737656D02*
G03X10795208Y7757107I-19685J0D01*
X10811864Y7737656D02*
G01Y7607125D01*
X10752809Y7548070D02*
G03X10811864Y7607125I0J59055D01*
X10635880Y7548070D02*
G01X10752809D01*
X10628006Y7555944D02*
G03X10635880Y7548070I7874J0D01*
X10628006Y7555944D02*
G01Y7620905D01*
G03X10620132Y7628779I-7874J0D01*
G01X10494148D01*
G03X10486274Y7620905I0J-7874D01*
G01Y7555944D01*
X10478400Y7548070D02*
G03X10486274Y7555944I0J7874D01*
X10020526Y7548070D02*
G01X10478400D01*
X9961471Y7607125D02*
G03X10020526Y7548070I59055J0D01*
X9961471Y8166180D02*
G01Y7607125D01*
X10020526Y8225236D02*
G03X9961471Y8166180I0J-59055D01*
X10486274Y8217362D02*
G03X10478400Y8225236I-7874J0D01*
X10486274Y8152401D02*
G01Y8217362D01*
Y8152401D02*
G03X10494148Y8144527I7874J0D01*
X10620132D02*
G01X10494148D01*
X10620132D02*
G03X10628006Y8152401I0J7874D01*
Y8217362D02*
G01Y8152401D01*
X10635880Y8225236D02*
G03X10628006Y8217362I0J-7874D01*
X10752809Y8225236D02*
G01X10635880D01*
X10811864Y8166180D02*
G03X10752809Y8225236I-59055J0D01*
X10811864Y8166180D02*
G01Y8035650D01*
X10795208Y8016199D02*
G03X10811864Y8035650I-3029J19451D01*
X10795208Y8016199D02*
G03X10795208Y7953957I4845J-31121D01*
X10811864Y7934506D02*
G03X10795208Y7953957I-19685J0D01*
X10811864Y7934506D02*
G01Y7838800D01*
X10795208Y7819349D02*
G03X10811864Y7838800I-3029J19451D01*
X10478400Y8225236D02*
G01X10020526D01*
X11999932Y7819349D02*
G03X11999932Y7757107I4845J-31121D01*
X12016589Y7737656D02*
G03X11999932Y7757107I-19685J0D01*
X12016589Y7737656D02*
G01Y7607125D01*
X11957534Y7548070D02*
G03X12016589Y7607125I0J59055D01*
X11840605Y7548070D02*
G01X11957534D01*
X11832731Y7555944D02*
G03X11840605Y7548070I7874J0D01*
X11832731Y7555944D02*
G01Y7620905D01*
G03X11824856Y7628779I-7874J0D01*
G01X11698872D01*
G03X11690998Y7620905I0J-7874D01*
G01Y7555944D01*
X11683124Y7548070D02*
G03X11690998Y7555944I0J7874D01*
X11225250Y7548070D02*
G01X11683124D01*
X11166195Y7607125D02*
G03X11225250Y7548070I59055J0D01*
X11166195Y8166180D02*
G01Y7607125D01*
X11225250Y8225236D02*
G03X11166195Y8166180I0J-59055D01*
X11690998Y8217362D02*
G03X11683124Y8225236I-7874J0D01*
X11690998Y8152401D02*
G01Y8217362D01*
Y8152401D02*
G03X11698872Y8144527I7874J0D01*
X11824856D02*
G01X11698872D01*
X11824856D02*
G03X11832731Y8152401I0J7874D01*
Y8217362D02*
G01Y8152401D01*
X11840605Y8225236D02*
G03X11832731Y8217362I0J-7874D01*
X11957534Y8225236D02*
G01X11840605D01*
X12016589Y8166180D02*
G03X11957534Y8225236I-59055J0D01*
X12016589Y8166180D02*
G01Y8035650D01*
X11999932Y8016199D02*
G03X12016589Y8035650I-3029J19451D01*
X11999932Y8016199D02*
G03X11999932Y7953957I4845J-31121D01*
X12016589Y7934506D02*
G03X11999932Y7953957I-19685J0D01*
X12016589Y7934506D02*
G01Y7838800D01*
X11999932Y7819349D02*
G03X12016589Y7838800I-3029J19451D01*
X11683124Y8225236D02*
G01X11225250D01*
X12909381Y7819349D02*
G03X12909381Y7757107I4845J-31121D01*
X12926038Y7737656D02*
G03X12909381Y7757107I-19685J0D01*
X12926038Y7737656D02*
G01Y7607125D01*
X12866982Y7548070D02*
G03X12926038Y7607125I0J59055D01*
X12750053Y7548070D02*
G01X12866982D01*
X12742179Y7555944D02*
G03X12750053Y7548070I7874J0D01*
X12742179Y7555944D02*
G01Y7620905D01*
G03X12734305Y7628779I-7874J0D01*
G01X12608321D01*
G03X12600447Y7620905I0J-7874D01*
G01Y7555944D01*
X12592573Y7548070D02*
G03X12600447Y7555944I0J7874D01*
X12134699Y7548070D02*
G01X12592573D01*
X12075644Y7607125D02*
G03X12134699Y7548070I59055J0D01*
X12075644Y8166180D02*
G01Y7607125D01*
X12134699Y8225236D02*
G03X12075644Y8166180I0J-59055D01*
X12600447Y8217362D02*
G03X12592573Y8225236I-7874J0D01*
X12600447Y8152401D02*
G01Y8217362D01*
Y8152401D02*
G03X12608321Y8144527I7874J0D01*
X12734305D02*
G01X12608321D01*
X12734305D02*
G03X12742179Y8152401I0J7874D01*
Y8217362D02*
G01Y8152401D01*
X12750053Y8225236D02*
G03X12742179Y8217362I0J-7874D01*
X12866982Y8225236D02*
G01X12750053D01*
X12926038Y8166180D02*
G03X12866982Y8225236I-59055J0D01*
X12926038Y8166180D02*
G01Y8035650D01*
X12909381Y8016199D02*
G03X12926038Y8035650I-3029J19451D01*
X12909381Y8016199D02*
G03X12909381Y7953957I4845J-31121D01*
X12926038Y7934506D02*
G03X12909381Y7953957I-19685J0D01*
X12926038Y7934506D02*
G01Y7838800D01*
X12909381Y7819349D02*
G03X12926038Y7838800I-3029J19451D01*
X12592573Y8225236D02*
G01X12134699D01*
X13818830Y7819349D02*
G03X13818830Y7757107I4845J-31121D01*
X13835486Y7737656D02*
G03X13818830Y7757107I-19685J0D01*
X13835486Y7737656D02*
G01Y7607125D01*
X13776431Y7548070D02*
G03X13835486Y7607125I0J59055D01*
X13659502Y7548070D02*
G01X13776431D01*
X13651628Y7555944D02*
G03X13659502Y7548070I7874J0D01*
X13651628Y7555944D02*
G01Y7620905D01*
G03X13643754Y7628779I-7874J0D01*
G01X13517770D01*
G03X13509896Y7620905I0J-7874D01*
G01Y7555944D01*
X13502022Y7548070D02*
G03X13509896Y7555944I0J7874D01*
X13044148Y7548070D02*
G01X13502022D01*
X12985093Y7607125D02*
G03X13044148Y7548070I59055J0D01*
X12985093Y8166180D02*
G01Y7607125D01*
X13044148Y8225236D02*
G03X12985093Y8166180I0J-59055D01*
X13509896Y8217362D02*
G03X13502022Y8225236I-7874J0D01*
X13509896Y8152401D02*
G01Y8217362D01*
Y8152401D02*
G03X13517770Y8144527I7874J0D01*
X13643754D02*
G01X13517770D01*
X13643754D02*
G03X13651628Y8152401I0J7874D01*
Y8217362D02*
G01Y8152401D01*
X13659502Y8225236D02*
G03X13651628Y8217362I0J-7874D01*
X13776431Y8225236D02*
G01X13659502D01*
X13835486Y8166180D02*
G03X13776431Y8225236I-59055J0D01*
X13835486Y8166180D02*
G01Y8035650D01*
X13818830Y8016199D02*
G03X13835486Y8035650I-3029J19451D01*
X13818830Y8016199D02*
G03X13818830Y7953957I4845J-31121D01*
X13835486Y7934506D02*
G03X13818830Y7953957I-19685J0D01*
X13835486Y7934506D02*
G01Y7838800D01*
X13818830Y7819349D02*
G03X13835486Y7838800I-3029J19451D01*
X13502022Y8225236D02*
G01X13044148D01*
X14728279Y7819349D02*
G03X14728279Y7757107I4845J-31121D01*
X14744935Y7737656D02*
G03X14728279Y7757107I-19685J0D01*
X14744935Y7737656D02*
G01Y7607125D01*
X14685880Y7548070D02*
G03X14744935Y7607125I0J59055D01*
X14568951Y7548070D02*
G01X14685880D01*
X14561077Y7555944D02*
G03X14568951Y7548070I7874J0D01*
X14561077Y7555944D02*
G01Y7620905D01*
G03X14553203Y7628779I-7874J0D01*
G01X14427219D01*
G03X14419345Y7620905I0J-7874D01*
G01Y7555944D01*
X14411471Y7548070D02*
G03X14419345Y7555944I0J7874D01*
X13953597Y7548070D02*
G01X14411471D01*
X13894542Y7607125D02*
G03X13953597Y7548070I59055J0D01*
X13894542Y8166180D02*
G01Y7607125D01*
X13953597Y8225236D02*
G03X13894542Y8166180I0J-59055D01*
X14419345Y8217362D02*
G03X14411471Y8225236I-7874J0D01*
X14419345Y8152401D02*
G01Y8217362D01*
Y8152401D02*
G03X14427219Y8144527I7874J0D01*
X14553203D02*
G01X14427219D01*
X14553203D02*
G03X14561077Y8152401I0J7874D01*
Y8217362D02*
G01Y8152401D01*
X14568951Y8225236D02*
G03X14561077Y8217362I0J-7874D01*
X14685880Y8225236D02*
G01X14568951D01*
X14744935Y8166180D02*
G03X14685880Y8225236I-59055J0D01*
X14744935Y8166180D02*
G01Y8035650D01*
X14728279Y8016199D02*
G03X14744935Y8035650I-3029J19451D01*
X14728279Y8016199D02*
G03X14728279Y7953957I4845J-31121D01*
X14744935Y7934506D02*
G03X14728279Y7953957I-19685J0D01*
X14744935Y7934506D02*
G01Y7838800D01*
X14728279Y7819349D02*
G03X14744935Y7838800I-3029J19451D01*
X14411471Y8225236D02*
G01X13953597D01*
X8066861Y7083128D02*
G03X8066861Y7020886I4845J-31121D01*
X8083518Y7001435D02*
G03X8066861Y7020886I-19685J0D01*
X8083518Y7001435D02*
G01Y6870905D01*
X8024463Y6811850D02*
G03X8083518Y6870905I0J59055D01*
X7907534Y6811850D02*
G01X8024463D01*
X7899660Y6819724D02*
G03X7907534Y6811850I7874J0D01*
X7899660Y6819724D02*
G01Y6884684D01*
G03X7891786Y6892558I-7874J0D01*
G01X7765801D01*
G03X7757927Y6884684I0J-7874D01*
G01Y6819724D01*
X7750053Y6811850D02*
G03X7757927Y6819724I0J7874D01*
X7292179Y6811850D02*
G01X7750053D01*
X7233124Y6870905D02*
G03X7292179Y6811850I59055J0D01*
X7233124Y7429960D02*
G01Y6870905D01*
X7292179Y7489015D02*
G03X7233124Y7429960I0J-59055D01*
X7757927Y7481141D02*
G03X7750053Y7489015I-7874J0D01*
X7757927Y7416180D02*
G01Y7481141D01*
Y7416180D02*
G03X7765801Y7408306I7874J0D01*
X7891786D02*
G01X7765801D01*
X7891786D02*
G03X7899660Y7416180I0J7874D01*
Y7481141D02*
G01Y7416180D01*
X7907534Y7489015D02*
G03X7899660Y7481141I0J-7874D01*
X8024463Y7489015D02*
G01X7907534D01*
X8083518Y7429960D02*
G03X8024463Y7489015I-59055J0D01*
X8083518Y7429960D02*
G01Y7299429D01*
X8066861Y7279979D02*
G03X8083518Y7299429I-3029J19451D01*
X8066861Y7279979D02*
G03X8066861Y7217737I4845J-31121D01*
X8083518Y7198286D02*
G03X8066861Y7217737I-19685J0D01*
X8083518Y7198286D02*
G01Y7102579D01*
X8066861Y7083128D02*
G03X8083518Y7102579I-3029J19451D01*
X7750053Y7489015D02*
G01X7292179D01*
X8976310Y7083128D02*
G03X8976310Y7020886I4845J-31121D01*
X8992967Y7001435D02*
G03X8976310Y7020886I-19685J0D01*
X8992967Y7001435D02*
G01Y6870905D01*
X8933912Y6811850D02*
G03X8992967Y6870905I0J59055D01*
X8816982Y6811850D02*
G01X8933912D01*
X8809108Y6819724D02*
G03X8816982Y6811850I7874J0D01*
X8809108Y6819724D02*
G01Y6884684D01*
G03X8801234Y6892558I-7874J0D01*
G01X8675250D01*
G03X8667376Y6884684I0J-7874D01*
G01Y6819724D01*
X8659502Y6811850D02*
G03X8667376Y6819724I0J7874D01*
X8201628Y6811850D02*
G01X8659502D01*
X8142573Y6870905D02*
G03X8201628Y6811850I59055J0D01*
X8142573Y7429960D02*
G01Y6870905D01*
X8201628Y7489015D02*
G03X8142573Y7429960I0J-59055D01*
X8667376Y7481141D02*
G03X8659502Y7489015I-7874J0D01*
X8667376Y7416180D02*
G01Y7481141D01*
Y7416180D02*
G03X8675250Y7408306I7874J0D01*
X8801234D02*
G01X8675250D01*
X8801234D02*
G03X8809108Y7416180I0J7874D01*
Y7481141D02*
G01Y7416180D01*
X8816982Y7489015D02*
G03X8809108Y7481141I0J-7874D01*
X8933912Y7489015D02*
G01X8816982D01*
X8992967Y7429960D02*
G03X8933912Y7489015I-59055J0D01*
X8992967Y7429960D02*
G01Y7299429D01*
X8976310Y7279979D02*
G03X8992967Y7299429I-3029J19451D01*
X8976310Y7279979D02*
G03X8976310Y7217737I4845J-31121D01*
X8992967Y7198286D02*
G03X8976310Y7217737I-19685J0D01*
X8992967Y7198286D02*
G01Y7102579D01*
X8976310Y7083128D02*
G03X8992967Y7102579I-3029J19451D01*
X8659502Y7489015D02*
G01X8201628D01*
X9885759Y7083128D02*
G03X9885759Y7020886I4845J-31121D01*
X9902416Y7001435D02*
G03X9885759Y7020886I-19685J0D01*
X9902416Y7001435D02*
G01Y6870905D01*
X9843360Y6811850D02*
G03X9902416Y6870905I0J59055D01*
X9726431Y6811850D02*
G01X9843360D01*
X9718557Y6819724D02*
G03X9726431Y6811850I7874J0D01*
X9718557Y6819724D02*
G01Y6884684D01*
G03X9710683Y6892558I-7874J0D01*
G01X9584699D01*
G03X9576825Y6884684I0J-7874D01*
G01Y6819724D01*
X9568951Y6811850D02*
G03X9576825Y6819724I0J7874D01*
X9111077Y6811850D02*
G01X9568951D01*
X9052022Y6870905D02*
G03X9111077Y6811850I59055J0D01*
X9052022Y7429960D02*
G01Y6870905D01*
X9111077Y7489015D02*
G03X9052022Y7429960I0J-59055D01*
X9576825Y7481141D02*
G03X9568951Y7489015I-7874J0D01*
X9576825Y7416180D02*
G01Y7481141D01*
Y7416180D02*
G03X9584699Y7408306I7874J0D01*
X9710683D02*
G01X9584699D01*
X9710683D02*
G03X9718557Y7416180I0J7874D01*
Y7481141D02*
G01Y7416180D01*
X9726431Y7489015D02*
G03X9718557Y7481141I0J-7874D01*
X9843360Y7489015D02*
G01X9726431D01*
X9902416Y7429960D02*
G03X9843360Y7489015I-59055J0D01*
X9902416Y7429960D02*
G01Y7299429D01*
X9885759Y7279979D02*
G03X9902416Y7299429I-3029J19451D01*
X9885759Y7279979D02*
G03X9885759Y7217737I4845J-31121D01*
X9902416Y7198286D02*
G03X9885759Y7217737I-19685J0D01*
X9902416Y7198286D02*
G01Y7102579D01*
X9885759Y7083128D02*
G03X9902416Y7102579I-3029J19451D01*
X9568951Y7489015D02*
G01X9111077D01*
X10795208Y7083128D02*
G03X10795208Y7020886I4845J-31121D01*
X10811864Y7001435D02*
G03X10795208Y7020886I-19685J0D01*
X10811864Y7001435D02*
G01Y6870905D01*
X10752809Y6811850D02*
G03X10811864Y6870905I0J59055D01*
X10635880Y6811850D02*
G01X10752809D01*
X10628006Y6819724D02*
G03X10635880Y6811850I7874J0D01*
X10628006Y6819724D02*
G01Y6884684D01*
G03X10620132Y6892558I-7874J0D01*
G01X10494148D01*
G03X10486274Y6884684I0J-7874D01*
G01Y6819724D01*
X10478400Y6811850D02*
G03X10486274Y6819724I0J7874D01*
X10020526Y6811850D02*
G01X10478400D01*
X9961471Y6870905D02*
G03X10020526Y6811850I59055J0D01*
X9961471Y7429960D02*
G01Y6870905D01*
X10020526Y7489015D02*
G03X9961471Y7429960I0J-59055D01*
X10486274Y7481141D02*
G03X10478400Y7489015I-7874J0D01*
X10486274Y7416180D02*
G01Y7481141D01*
Y7416180D02*
G03X10494148Y7408306I7874J0D01*
X10620132D02*
G01X10494148D01*
X10620132D02*
G03X10628006Y7416180I0J7874D01*
Y7481141D02*
G01Y7416180D01*
X10635880Y7489015D02*
G03X10628006Y7481141I0J-7874D01*
X10752809Y7489015D02*
G01X10635880D01*
X10811864Y7429960D02*
G03X10752809Y7489015I-59055J0D01*
X10811864Y7429960D02*
G01Y7299429D01*
X10795208Y7279979D02*
G03X10811864Y7299429I-3029J19451D01*
X10795208Y7279979D02*
G03X10795208Y7217737I4845J-31121D01*
X10811864Y7198286D02*
G03X10795208Y7217737I-19685J0D01*
X10811864Y7198286D02*
G01Y7102579D01*
X10795208Y7083128D02*
G03X10811864Y7102579I-3029J19451D01*
X10478400Y7489015D02*
G01X10020526D01*
X11999932Y7083128D02*
G03X11999932Y7020886I4845J-31121D01*
X12016589Y7001435D02*
G03X11999932Y7020886I-19685J0D01*
X12016589Y7001435D02*
G01Y6870905D01*
X11957534Y6811850D02*
G03X12016589Y6870905I0J59055D01*
X11840605Y6811850D02*
G01X11957534D01*
X11832731Y6819724D02*
G03X11840605Y6811850I7874J0D01*
X11832731Y6819724D02*
G01Y6884684D01*
G03X11824856Y6892558I-7874J0D01*
G01X11698872D01*
G03X11690998Y6884684I0J-7874D01*
G01Y6819724D01*
X11683124Y6811850D02*
G03X11690998Y6819724I0J7874D01*
X11225250Y6811850D02*
G01X11683124D01*
X11166195Y6870905D02*
G03X11225250Y6811850I59055J0D01*
X11166195Y7429960D02*
G01Y6870905D01*
X11225250Y7489015D02*
G03X11166195Y7429960I0J-59055D01*
X11690998Y7481141D02*
G03X11683124Y7489015I-7874J0D01*
X11690998Y7416180D02*
G01Y7481141D01*
Y7416180D02*
G03X11698872Y7408306I7874J0D01*
X11824856D02*
G01X11698872D01*
X11824856D02*
G03X11832731Y7416180I0J7874D01*
Y7481141D02*
G01Y7416180D01*
X11840605Y7489015D02*
G03X11832731Y7481141I0J-7874D01*
X11957534Y7489015D02*
G01X11840605D01*
X12016589Y7429960D02*
G03X11957534Y7489015I-59055J0D01*
X12016589Y7429960D02*
G01Y7299429D01*
X11999932Y7279979D02*
G03X12016589Y7299429I-3029J19451D01*
X11999932Y7279979D02*
G03X11999932Y7217737I4845J-31121D01*
X12016589Y7198286D02*
G03X11999932Y7217737I-19685J0D01*
X12016589Y7198286D02*
G01Y7102579D01*
X11999932Y7083128D02*
G03X12016589Y7102579I-3029J19451D01*
X11683124Y7489015D02*
G01X11225250D01*
X12909381Y7083128D02*
G03X12909381Y7020886I4845J-31121D01*
X12926038Y7001435D02*
G03X12909381Y7020886I-19685J0D01*
X12926038Y7001435D02*
G01Y6870905D01*
X12866982Y6811850D02*
G03X12926038Y6870905I0J59055D01*
X12750053Y6811850D02*
G01X12866982D01*
X12742179Y6819724D02*
G03X12750053Y6811850I7874J0D01*
X12742179Y6819724D02*
G01Y6884684D01*
G03X12734305Y6892558I-7874J0D01*
G01X12608321D01*
G03X12600447Y6884684I0J-7874D01*
G01Y6819724D01*
X12592573Y6811850D02*
G03X12600447Y6819724I0J7874D01*
X12134699Y6811850D02*
G01X12592573D01*
X12075644Y6870905D02*
G03X12134699Y6811850I59055J0D01*
X12075644Y7429960D02*
G01Y6870905D01*
X12134699Y7489015D02*
G03X12075644Y7429960I0J-59055D01*
X12600447Y7481141D02*
G03X12592573Y7489015I-7874J0D01*
X12600447Y7416180D02*
G01Y7481141D01*
Y7416180D02*
G03X12608321Y7408306I7874J0D01*
X12734305D02*
G01X12608321D01*
X12734305D02*
G03X12742179Y7416180I0J7874D01*
Y7481141D02*
G01Y7416180D01*
X12750053Y7489015D02*
G03X12742179Y7481141I0J-7874D01*
X12866982Y7489015D02*
G01X12750053D01*
X12926038Y7429960D02*
G03X12866982Y7489015I-59055J0D01*
X12926038Y7429960D02*
G01Y7299429D01*
X12909381Y7279979D02*
G03X12926038Y7299429I-3029J19451D01*
X12909381Y7279979D02*
G03X12909381Y7217737I4845J-31121D01*
X12926038Y7198286D02*
G03X12909381Y7217737I-19685J0D01*
X12926038Y7198286D02*
G01Y7102579D01*
X12909381Y7083128D02*
G03X12926038Y7102579I-3029J19451D01*
X12592573Y7489015D02*
G01X12134699D01*
X13818830Y7083128D02*
G03X13818830Y7020886I4845J-31121D01*
X13835486Y7001435D02*
G03X13818830Y7020886I-19685J0D01*
X13835486Y7001435D02*
G01Y6870905D01*
X13776431Y6811850D02*
G03X13835486Y6870905I0J59055D01*
X13659502Y6811850D02*
G01X13776431D01*
X13651628Y6819724D02*
G03X13659502Y6811850I7874J0D01*
X13651628Y6819724D02*
G01Y6884684D01*
G03X13643754Y6892558I-7874J0D01*
G01X13517770D01*
G03X13509896Y6884684I0J-7874D01*
G01Y6819724D01*
X13502022Y6811850D02*
G03X13509896Y6819724I0J7874D01*
X13044148Y6811850D02*
G01X13502022D01*
X12985093Y6870905D02*
G03X13044148Y6811850I59055J0D01*
X12985093Y7429960D02*
G01Y6870905D01*
X13044148Y7489015D02*
G03X12985093Y7429960I0J-59055D01*
X13509896Y7481141D02*
G03X13502022Y7489015I-7874J0D01*
X13509896Y7416180D02*
G01Y7481141D01*
Y7416180D02*
G03X13517770Y7408306I7874J0D01*
X13643754D02*
G01X13517770D01*
X13643754D02*
G03X13651628Y7416180I0J7874D01*
Y7481141D02*
G01Y7416180D01*
X13659502Y7489015D02*
G03X13651628Y7481141I0J-7874D01*
X13776431Y7489015D02*
G01X13659502D01*
X13835486Y7429960D02*
G03X13776431Y7489015I-59055J0D01*
X13835486Y7429960D02*
G01Y7299429D01*
X13818830Y7279979D02*
G03X13835486Y7299429I-3029J19451D01*
X13818830Y7279979D02*
G03X13818830Y7217737I4845J-31121D01*
X13835486Y7198286D02*
G03X13818830Y7217737I-19685J0D01*
X13835486Y7198286D02*
G01Y7102579D01*
X13818830Y7083128D02*
G03X13835486Y7102579I-3029J19451D01*
X13502022Y7489015D02*
G01X13044148D01*
X14728279Y7083128D02*
G03X14728279Y7020886I4845J-31121D01*
X14744935Y7001435D02*
G03X14728279Y7020886I-19685J0D01*
X14744935Y7001435D02*
G01Y6870905D01*
X14685880Y6811850D02*
G03X14744935Y6870905I0J59055D01*
X14568951Y6811850D02*
G01X14685880D01*
X14561077Y6819724D02*
G03X14568951Y6811850I7874J0D01*
X14561077Y6819724D02*
G01Y6884684D01*
G03X14553203Y6892558I-7874J0D01*
G01X14427219D01*
G03X14419345Y6884684I0J-7874D01*
G01Y6819724D01*
X14411471Y6811850D02*
G03X14419345Y6819724I0J7874D01*
X13953597Y6811850D02*
G01X14411471D01*
X13894542Y6870905D02*
G03X13953597Y6811850I59055J0D01*
X13894542Y7429960D02*
G01Y6870905D01*
X13953597Y7489015D02*
G03X13894542Y7429960I0J-59055D01*
X14419345Y7481141D02*
G03X14411471Y7489015I-7874J0D01*
X14419345Y7416180D02*
G01Y7481141D01*
Y7416180D02*
G03X14427219Y7408306I7874J0D01*
X14553203D02*
G01X14427219D01*
X14553203D02*
G03X14561077Y7416180I0J7874D01*
Y7481141D02*
G01Y7416180D01*
X14568951Y7489015D02*
G03X14561077Y7481141I0J-7874D01*
X14685880Y7489015D02*
G01X14568951D01*
X14744935Y7429960D02*
G03X14685880Y7489015I-59055J0D01*
X14744935Y7429960D02*
G01Y7299429D01*
X14728279Y7279979D02*
G03X14744935Y7299429I-3029J19451D01*
X14728279Y7279979D02*
G03X14728279Y7217737I4845J-31121D01*
X14744935Y7198286D02*
G03X14728279Y7217737I-19685J0D01*
X14744935Y7198286D02*
G01Y7102579D01*
X14728279Y7083128D02*
G03X14744935Y7102579I-3029J19451D01*
X14411471Y7489015D02*
G01X13953597D01*
X8066861Y6346908D02*
G03X8066861Y6284666I4845J-31121D01*
X8083518Y6265215D02*
G03X8066861Y6284666I-19685J0D01*
X8083518Y6265215D02*
G01Y6134684D01*
X8024463Y6075629D02*
G03X8083518Y6134684I0J59055D01*
X7907534Y6075629D02*
G01X8024463D01*
X7899660Y6083503D02*
G03X7907534Y6075629I7874J0D01*
X7899660Y6083503D02*
G01Y6148464D01*
G03X7891786Y6156338I-7874J0D01*
G01X7765801D01*
G03X7757927Y6148464I0J-7874D01*
G01Y6083503D01*
X7750053Y6075629D02*
G03X7757927Y6083503I0J7874D01*
X7292179Y6075629D02*
G01X7750053D01*
X7233124Y6134684D02*
G03X7292179Y6075629I59055J0D01*
X7233124Y6693739D02*
G01Y6134684D01*
X7292179Y6752795D02*
G03X7233124Y6693739I0J-59055D01*
X7757927Y6744921D02*
G03X7750053Y6752795I-7874J0D01*
X7757927Y6679960D02*
G01Y6744921D01*
Y6679960D02*
G03X7765801Y6672086I7874J0D01*
X7891786D02*
G01X7765801D01*
X7891786D02*
G03X7899660Y6679960I0J7874D01*
Y6744921D02*
G01Y6679960D01*
X7907534Y6752795D02*
G03X7899660Y6744921I0J-7874D01*
X8024463Y6752795D02*
G01X7907534D01*
X8083518Y6693739D02*
G03X8024463Y6752795I-59055J0D01*
X8083518Y6693739D02*
G01Y6563209D01*
X8066861Y6543758D02*
G03X8083518Y6563209I-3029J19451D01*
X8066861Y6543758D02*
G03X8066861Y6481516I4845J-31121D01*
X8083518Y6462065D02*
G03X8066861Y6481516I-19685J0D01*
X8083518Y6462065D02*
G01Y6366359D01*
X8066861Y6346908D02*
G03X8083518Y6366359I-3029J19451D01*
X7750053Y6752795D02*
G01X7292179D01*
X8976310Y6346908D02*
G03X8976310Y6284666I4845J-31121D01*
X8992967Y6265215D02*
G03X8976310Y6284666I-19685J0D01*
X8992967Y6265215D02*
G01Y6134684D01*
X8933912Y6075629D02*
G03X8992967Y6134684I0J59055D01*
X8816982Y6075629D02*
G01X8933912D01*
X8809108Y6083503D02*
G03X8816982Y6075629I7874J0D01*
X8809108Y6083503D02*
G01Y6148464D01*
G03X8801234Y6156338I-7874J0D01*
G01X8675250D01*
G03X8667376Y6148464I0J-7874D01*
G01Y6083503D01*
X8659502Y6075629D02*
G03X8667376Y6083503I0J7874D01*
X8201628Y6075629D02*
G01X8659502D01*
X8142573Y6134684D02*
G03X8201628Y6075629I59055J0D01*
X8142573Y6693739D02*
G01Y6134684D01*
X8201628Y6752795D02*
G03X8142573Y6693739I0J-59055D01*
X8667376Y6744921D02*
G03X8659502Y6752795I-7874J0D01*
X8667376Y6679960D02*
G01Y6744921D01*
Y6679960D02*
G03X8675250Y6672086I7874J0D01*
X8801234D02*
G01X8675250D01*
X8801234D02*
G03X8809108Y6679960I0J7874D01*
Y6744921D02*
G01Y6679960D01*
X8816982Y6752795D02*
G03X8809108Y6744921I0J-7874D01*
X8933912Y6752795D02*
G01X8816982D01*
X8992967Y6693739D02*
G03X8933912Y6752795I-59055J0D01*
X8992967Y6693739D02*
G01Y6563209D01*
X8976310Y6543758D02*
G03X8992967Y6563209I-3029J19451D01*
X8976310Y6543758D02*
G03X8976310Y6481516I4845J-31121D01*
X8992967Y6462065D02*
G03X8976310Y6481516I-19685J0D01*
X8992967Y6462065D02*
G01Y6366359D01*
X8976310Y6346908D02*
G03X8992967Y6366359I-3029J19451D01*
X8659502Y6752795D02*
G01X8201628D01*
X9885759Y6346908D02*
G03X9885759Y6284666I4845J-31121D01*
X9902416Y6265215D02*
G03X9885759Y6284666I-19685J0D01*
X9902416Y6265215D02*
G01Y6134684D01*
X9843360Y6075629D02*
G03X9902416Y6134684I0J59055D01*
X9726431Y6075629D02*
G01X9843360D01*
X9718557Y6083503D02*
G03X9726431Y6075629I7874J0D01*
X9718557Y6083503D02*
G01Y6148464D01*
G03X9710683Y6156338I-7874J0D01*
G01X9584699D01*
G03X9576825Y6148464I0J-7874D01*
G01Y6083503D01*
X9568951Y6075629D02*
G03X9576825Y6083503I0J7874D01*
X9111077Y6075629D02*
G01X9568951D01*
X9052022Y6134684D02*
G03X9111077Y6075629I59055J0D01*
X9052022Y6693739D02*
G01Y6134684D01*
X9111077Y6752795D02*
G03X9052022Y6693739I0J-59055D01*
X9576825Y6744921D02*
G03X9568951Y6752795I-7874J0D01*
X9576825Y6679960D02*
G01Y6744921D01*
Y6679960D02*
G03X9584699Y6672086I7874J0D01*
X9710683D02*
G01X9584699D01*
X9710683D02*
G03X9718557Y6679960I0J7874D01*
Y6744921D02*
G01Y6679960D01*
X9726431Y6752795D02*
G03X9718557Y6744921I0J-7874D01*
X9843360Y6752795D02*
G01X9726431D01*
X9902416Y6693739D02*
G03X9843360Y6752795I-59055J0D01*
X9902416Y6693739D02*
G01Y6563209D01*
X9885759Y6543758D02*
G03X9902416Y6563209I-3029J19451D01*
X9885759Y6543758D02*
G03X9885759Y6481516I4845J-31121D01*
X9902416Y6462065D02*
G03X9885759Y6481516I-19685J0D01*
X9902416Y6462065D02*
G01Y6366359D01*
X9885759Y6346908D02*
G03X9902416Y6366359I-3029J19451D01*
X9568951Y6752795D02*
G01X9111077D01*
X10795208Y6346908D02*
G03X10795208Y6284666I4845J-31121D01*
X10811864Y6265215D02*
G03X10795208Y6284666I-19685J0D01*
X10811864Y6265215D02*
G01Y6134684D01*
X10752809Y6075629D02*
G03X10811864Y6134684I0J59055D01*
X10635880Y6075629D02*
G01X10752809D01*
X10628006Y6083503D02*
G03X10635880Y6075629I7874J0D01*
X10628006Y6083503D02*
G01Y6148464D01*
G03X10620132Y6156338I-7874J0D01*
G01X10494148D01*
G03X10486274Y6148464I0J-7874D01*
G01Y6083503D01*
X10478400Y6075629D02*
G03X10486274Y6083503I0J7874D01*
X10020526Y6075629D02*
G01X10478400D01*
X9961471Y6134684D02*
G03X10020526Y6075629I59055J0D01*
X9961471Y6693739D02*
G01Y6134684D01*
X10020526Y6752795D02*
G03X9961471Y6693739I0J-59055D01*
X10486274Y6744921D02*
G03X10478400Y6752795I-7874J0D01*
X10486274Y6679960D02*
G01Y6744921D01*
Y6679960D02*
G03X10494148Y6672086I7874J0D01*
X10620132D02*
G01X10494148D01*
X10620132D02*
G03X10628006Y6679960I0J7874D01*
Y6744921D02*
G01Y6679960D01*
X10635880Y6752795D02*
G03X10628006Y6744921I0J-7874D01*
X10752809Y6752795D02*
G01X10635880D01*
X10811864Y6693739D02*
G03X10752809Y6752795I-59055J0D01*
X10811864Y6693739D02*
G01Y6563209D01*
X10795208Y6543758D02*
G03X10811864Y6563209I-3029J19451D01*
X10795208Y6543758D02*
G03X10795208Y6481516I4845J-31121D01*
X10811864Y6462065D02*
G03X10795208Y6481516I-19685J0D01*
X10811864Y6462065D02*
G01Y6366359D01*
X10795208Y6346908D02*
G03X10811864Y6366359I-3029J19451D01*
X10478400Y6752795D02*
G01X10020526D01*
X11999932Y6346908D02*
G03X11999932Y6284666I4845J-31121D01*
X12016589Y6265215D02*
G03X11999932Y6284666I-19685J0D01*
X12016589Y6265215D02*
G01Y6134684D01*
X11957534Y6075629D02*
G03X12016589Y6134684I0J59055D01*
X11840605Y6075629D02*
G01X11957534D01*
X11832731Y6083503D02*
G03X11840605Y6075629I7874J0D01*
X11832731Y6083503D02*
G01Y6148464D01*
G03X11824856Y6156338I-7874J0D01*
G01X11698872D01*
G03X11690998Y6148464I0J-7874D01*
G01Y6083503D01*
X11683124Y6075629D02*
G03X11690998Y6083503I0J7874D01*
X11225250Y6075629D02*
G01X11683124D01*
X11166195Y6134684D02*
G03X11225250Y6075629I59055J0D01*
X11166195Y6693739D02*
G01Y6134684D01*
X11225250Y6752795D02*
G03X11166195Y6693739I0J-59055D01*
X11690998Y6744921D02*
G03X11683124Y6752795I-7874J0D01*
X11690998Y6679960D02*
G01Y6744921D01*
Y6679960D02*
G03X11698872Y6672086I7874J0D01*
X11824856D02*
G01X11698872D01*
X11824856D02*
G03X11832731Y6679960I0J7874D01*
Y6744921D02*
G01Y6679960D01*
X11840605Y6752795D02*
G03X11832731Y6744921I0J-7874D01*
X11957534Y6752795D02*
G01X11840605D01*
X12016589Y6693739D02*
G03X11957534Y6752795I-59055J0D01*
X12016589Y6693739D02*
G01Y6563209D01*
X11999932Y6543758D02*
G03X12016589Y6563209I-3029J19451D01*
X11999932Y6543758D02*
G03X11999932Y6481516I4845J-31121D01*
X12016589Y6462065D02*
G03X11999932Y6481516I-19685J0D01*
X12016589Y6462065D02*
G01Y6366359D01*
X11999932Y6346908D02*
G03X12016589Y6366359I-3029J19451D01*
X11683124Y6752795D02*
G01X11225250D01*
X12909381Y6346908D02*
G03X12909381Y6284666I4845J-31121D01*
X12926038Y6265215D02*
G03X12909381Y6284666I-19685J0D01*
X12926038Y6265215D02*
G01Y6134684D01*
X12866982Y6075629D02*
G03X12926038Y6134684I0J59055D01*
X12750053Y6075629D02*
G01X12866982D01*
X12742179Y6083503D02*
G03X12750053Y6075629I7874J0D01*
X12742179Y6083503D02*
G01Y6148464D01*
G03X12734305Y6156338I-7874J0D01*
G01X12608321D01*
G03X12600447Y6148464I0J-7874D01*
G01Y6083503D01*
X12592573Y6075629D02*
G03X12600447Y6083503I0J7874D01*
X12134699Y6075629D02*
G01X12592573D01*
X12075644Y6134684D02*
G03X12134699Y6075629I59055J0D01*
X12075644Y6693739D02*
G01Y6134684D01*
X12134699Y6752795D02*
G03X12075644Y6693739I0J-59055D01*
X12600447Y6744921D02*
G03X12592573Y6752795I-7874J0D01*
X12600447Y6679960D02*
G01Y6744921D01*
Y6679960D02*
G03X12608321Y6672086I7874J0D01*
X12734305D02*
G01X12608321D01*
X12734305D02*
G03X12742179Y6679960I0J7874D01*
Y6744921D02*
G01Y6679960D01*
X12750053Y6752795D02*
G03X12742179Y6744921I0J-7874D01*
X12866982Y6752795D02*
G01X12750053D01*
X12926038Y6693739D02*
G03X12866982Y6752795I-59055J0D01*
X12926038Y6693739D02*
G01Y6563209D01*
X12909381Y6543758D02*
G03X12926038Y6563209I-3029J19451D01*
X12909381Y6543758D02*
G03X12909381Y6481516I4845J-31121D01*
X12926038Y6462065D02*
G03X12909381Y6481516I-19685J0D01*
X12926038Y6462065D02*
G01Y6366359D01*
X12909381Y6346908D02*
G03X12926038Y6366359I-3029J19451D01*
X12592573Y6752795D02*
G01X12134699D01*
X13818830Y6346908D02*
G03X13818830Y6284666I4845J-31121D01*
X13835486Y6265215D02*
G03X13818830Y6284666I-19685J0D01*
X13835486Y6265215D02*
G01Y6134684D01*
X13776431Y6075629D02*
G03X13835486Y6134684I0J59055D01*
X13659502Y6075629D02*
G01X13776431D01*
X13651628Y6083503D02*
G03X13659502Y6075629I7874J0D01*
X13651628Y6083503D02*
G01Y6148464D01*
G03X13643754Y6156338I-7874J0D01*
G01X13517770D01*
G03X13509896Y6148464I0J-7874D01*
G01Y6083503D01*
X13502022Y6075629D02*
G03X13509896Y6083503I0J7874D01*
X13044148Y6075629D02*
G01X13502022D01*
X12985093Y6134684D02*
G03X13044148Y6075629I59055J0D01*
X12985093Y6693739D02*
G01Y6134684D01*
X13044148Y6752795D02*
G03X12985093Y6693739I0J-59055D01*
X13509896Y6744921D02*
G03X13502022Y6752795I-7874J0D01*
X13509896Y6679960D02*
G01Y6744921D01*
Y6679960D02*
G03X13517770Y6672086I7874J0D01*
X13643754D02*
G01X13517770D01*
X13643754D02*
G03X13651628Y6679960I0J7874D01*
Y6744921D02*
G01Y6679960D01*
X13659502Y6752795D02*
G03X13651628Y6744921I0J-7874D01*
X13776431Y6752795D02*
G01X13659502D01*
X13835486Y6693739D02*
G03X13776431Y6752795I-59055J0D01*
X13835486Y6693739D02*
G01Y6563209D01*
X13818830Y6543758D02*
G03X13835486Y6563209I-3029J19451D01*
X13818830Y6543758D02*
G03X13818830Y6481516I4845J-31121D01*
X13835486Y6462065D02*
G03X13818830Y6481516I-19685J0D01*
X13835486Y6462065D02*
G01Y6366359D01*
X13818830Y6346908D02*
G03X13835486Y6366359I-3029J19451D01*
X13502022Y6752795D02*
G01X13044148D01*
X14728279Y6346908D02*
G03X14728279Y6284666I4845J-31121D01*
X14744935Y6265215D02*
G03X14728279Y6284666I-19685J0D01*
X14744935Y6265215D02*
G01Y6134684D01*
X14685880Y6075629D02*
G03X14744935Y6134684I0J59055D01*
X14568951Y6075629D02*
G01X14685880D01*
X14561077Y6083503D02*
G03X14568951Y6075629I7874J0D01*
X14561077Y6083503D02*
G01Y6148464D01*
G03X14553203Y6156338I-7874J0D01*
G01X14427219D01*
G03X14419345Y6148464I0J-7874D01*
G01Y6083503D01*
X14411471Y6075629D02*
G03X14419345Y6083503I0J7874D01*
X13953597Y6075629D02*
G01X14411471D01*
X13894542Y6134684D02*
G03X13953597Y6075629I59055J0D01*
X13894542Y6693739D02*
G01Y6134684D01*
X13953597Y6752795D02*
G03X13894542Y6693739I0J-59055D01*
X14419345Y6744921D02*
G03X14411471Y6752795I-7874J0D01*
X14419345Y6679960D02*
G01Y6744921D01*
Y6679960D02*
G03X14427219Y6672086I7874J0D01*
X14553203D02*
G01X14427219D01*
X14553203D02*
G03X14561077Y6679960I0J7874D01*
Y6744921D02*
G01Y6679960D01*
X14568951Y6752795D02*
G03X14561077Y6744921I0J-7874D01*
X14685880Y6752795D02*
G01X14568951D01*
X14744935Y6693739D02*
G03X14685880Y6752795I-59055J0D01*
X14744935Y6693739D02*
G01Y6563209D01*
X14728279Y6543758D02*
G03X14744935Y6563209I-3029J19451D01*
X14728279Y6543758D02*
G03X14728279Y6481516I4845J-31121D01*
X14744935Y6462065D02*
G03X14728279Y6481516I-19685J0D01*
X14744935Y6462065D02*
G01Y6366359D01*
X14728279Y6346908D02*
G03X14744935Y6366359I-3029J19451D01*
X14411471Y6752795D02*
G01X13953597D01*
X8066861Y5610687D02*
G03X8066861Y5548445I4845J-31121D01*
X8083518Y5528994D02*
G03X8066861Y5548445I-19685J0D01*
X8083518Y5528994D02*
G01Y5398464D01*
X8024463Y5339409D02*
G03X8083518Y5398464I0J59055D01*
X7907534Y5339409D02*
G01X8024463D01*
X7899660Y5347283D02*
G03X7907534Y5339409I7874J0D01*
X7899660Y5347283D02*
G01Y5412243D01*
G03X7891786Y5420117I-7874J0D01*
G01X7765801D01*
G03X7757927Y5412243I0J-7874D01*
G01Y5347283D01*
X7750053Y5339409D02*
G03X7757927Y5347283I0J7874D01*
X7292179Y5339409D02*
G01X7750053D01*
X7233124Y5398464D02*
G03X7292179Y5339409I59055J0D01*
X7233124Y5957519D02*
G01Y5398464D01*
X7292179Y6016574D02*
G03X7233124Y5957519I0J-59055D01*
X7757927Y6008700D02*
G03X7750053Y6016574I-7874J0D01*
X7757927Y5943739D02*
G01Y6008700D01*
Y5943739D02*
G03X7765801Y5935865I7874J0D01*
X7891786D02*
G01X7765801D01*
X7891786D02*
G03X7899660Y5943739I0J7874D01*
Y6008700D02*
G01Y5943739D01*
X7907534Y6016574D02*
G03X7899660Y6008700I0J-7874D01*
X8024463Y6016574D02*
G01X7907534D01*
X8083518Y5957519D02*
G03X8024463Y6016574I-59055J0D01*
X8083518Y5957519D02*
G01Y5826988D01*
X8066861Y5807538D02*
G03X8083518Y5826988I-3029J19451D01*
X8066861Y5807538D02*
G03X8066861Y5745296I4845J-31121D01*
X8083518Y5725845D02*
G03X8066861Y5745296I-19685J0D01*
X8083518Y5725845D02*
G01Y5630138D01*
X8066861Y5610687D02*
G03X8083518Y5630138I-3029J19451D01*
X7750053Y6016574D02*
G01X7292179D01*
X8976310Y5610687D02*
G03X8976310Y5548445I4845J-31121D01*
X8992967Y5528994D02*
G03X8976310Y5548445I-19685J0D01*
X8992967Y5528994D02*
G01Y5398464D01*
X8933912Y5339409D02*
G03X8992967Y5398464I0J59055D01*
X8816982Y5339409D02*
G01X8933912D01*
X8809108Y5347283D02*
G03X8816982Y5339409I7874J0D01*
X8809108Y5347283D02*
G01Y5412243D01*
G03X8801234Y5420117I-7874J0D01*
G01X8675250D01*
G03X8667376Y5412243I0J-7874D01*
G01Y5347283D01*
X8659502Y5339409D02*
G03X8667376Y5347283I0J7874D01*
X8201628Y5339409D02*
G01X8659502D01*
X8142573Y5398464D02*
G03X8201628Y5339409I59055J0D01*
X8142573Y5957519D02*
G01Y5398464D01*
X8201628Y6016574D02*
G03X8142573Y5957519I0J-59055D01*
X8667376Y6008700D02*
G03X8659502Y6016574I-7874J0D01*
X8667376Y5943739D02*
G01Y6008700D01*
Y5943739D02*
G03X8675250Y5935865I7874J0D01*
X8801234D02*
G01X8675250D01*
X8801234D02*
G03X8809108Y5943739I0J7874D01*
Y6008700D02*
G01Y5943739D01*
X8816982Y6016574D02*
G03X8809108Y6008700I0J-7874D01*
X8933912Y6016574D02*
G01X8816982D01*
X8992967Y5957519D02*
G03X8933912Y6016574I-59055J0D01*
X8992967Y5957519D02*
G01Y5826988D01*
X8976310Y5807538D02*
G03X8992967Y5826988I-3029J19451D01*
X8976310Y5807538D02*
G03X8976310Y5745296I4845J-31121D01*
X8992967Y5725845D02*
G03X8976310Y5745296I-19685J0D01*
X8992967Y5725845D02*
G01Y5630138D01*
X8976310Y5610687D02*
G03X8992967Y5630138I-3029J19451D01*
X8659502Y6016574D02*
G01X8201628D01*
X9885759Y5610687D02*
G03X9885759Y5548445I4845J-31121D01*
X9902416Y5528994D02*
G03X9885759Y5548445I-19685J0D01*
X9902416Y5528994D02*
G01Y5398464D01*
X9843360Y5339409D02*
G03X9902416Y5398464I0J59055D01*
X9726431Y5339409D02*
G01X9843360D01*
X9718557Y5347283D02*
G03X9726431Y5339409I7874J0D01*
X9718557Y5347283D02*
G01Y5412243D01*
G03X9710683Y5420117I-7874J0D01*
G01X9584699D01*
G03X9576825Y5412243I0J-7874D01*
G01Y5347283D01*
X9568951Y5339409D02*
G03X9576825Y5347283I0J7874D01*
X9111077Y5339409D02*
G01X9568951D01*
X9052022Y5398464D02*
G03X9111077Y5339409I59055J0D01*
X9052022Y5957519D02*
G01Y5398464D01*
X9111077Y6016574D02*
G03X9052022Y5957519I0J-59055D01*
X9576825Y6008700D02*
G03X9568951Y6016574I-7874J0D01*
X9576825Y5943739D02*
G01Y6008700D01*
Y5943739D02*
G03X9584699Y5935865I7874J0D01*
X9710683D02*
G01X9584699D01*
X9710683D02*
G03X9718557Y5943739I0J7874D01*
Y6008700D02*
G01Y5943739D01*
X9726431Y6016574D02*
G03X9718557Y6008700I0J-7874D01*
X9843360Y6016574D02*
G01X9726431D01*
X9902416Y5957519D02*
G03X9843360Y6016574I-59055J0D01*
X9902416Y5957519D02*
G01Y5826988D01*
X9885759Y5807538D02*
G03X9902416Y5826988I-3029J19451D01*
X9885759Y5807538D02*
G03X9885759Y5745296I4845J-31121D01*
X9902416Y5725845D02*
G03X9885759Y5745296I-19685J0D01*
X9902416Y5725845D02*
G01Y5630138D01*
X9885759Y5610687D02*
G03X9902416Y5630138I-3029J19451D01*
X9568951Y6016574D02*
G01X9111077D01*
X10795208Y5610687D02*
G03X10795208Y5548445I4845J-31121D01*
X10811864Y5528994D02*
G03X10795208Y5548445I-19685J0D01*
X10811864Y5528994D02*
G01Y5398464D01*
X10752809Y5339409D02*
G03X10811864Y5398464I0J59055D01*
X10635880Y5339409D02*
G01X10752809D01*
X10628006Y5347283D02*
G03X10635880Y5339409I7874J0D01*
X10628006Y5347283D02*
G01Y5412243D01*
G03X10620132Y5420117I-7874J0D01*
G01X10494148D01*
G03X10486274Y5412243I0J-7874D01*
G01Y5347283D01*
X10478400Y5339409D02*
G03X10486274Y5347283I0J7874D01*
X10020526Y5339409D02*
G01X10478400D01*
X9961471Y5398464D02*
G03X10020526Y5339409I59055J0D01*
X9961471Y5957519D02*
G01Y5398464D01*
X10020526Y6016574D02*
G03X9961471Y5957519I0J-59055D01*
X10486274Y6008700D02*
G03X10478400Y6016574I-7874J0D01*
X10486274Y5943739D02*
G01Y6008700D01*
Y5943739D02*
G03X10494148Y5935865I7874J0D01*
X10620132D02*
G01X10494148D01*
X10620132D02*
G03X10628006Y5943739I0J7874D01*
Y6008700D02*
G01Y5943739D01*
X10635880Y6016574D02*
G03X10628006Y6008700I0J-7874D01*
X10752809Y6016574D02*
G01X10635880D01*
X10811864Y5957519D02*
G03X10752809Y6016574I-59055J0D01*
X10811864Y5957519D02*
G01Y5826988D01*
X10795208Y5807538D02*
G03X10811864Y5826988I-3029J19451D01*
X10795208Y5807538D02*
G03X10795208Y5745296I4845J-31121D01*
X10811864Y5725845D02*
G03X10795208Y5745296I-19685J0D01*
X10811864Y5725845D02*
G01Y5630138D01*
X10795208Y5610687D02*
G03X10811864Y5630138I-3029J19451D01*
X10478400Y6016574D02*
G01X10020526D01*
X11999932Y5610687D02*
G03X11999932Y5548445I4845J-31121D01*
X12016589Y5528994D02*
G03X11999932Y5548445I-19685J0D01*
X12016589Y5528994D02*
G01Y5398464D01*
X11957534Y5339409D02*
G03X12016589Y5398464I0J59055D01*
X11840605Y5339409D02*
G01X11957534D01*
X11832731Y5347283D02*
G03X11840605Y5339409I7874J0D01*
X11832731Y5347283D02*
G01Y5412243D01*
G03X11824856Y5420117I-7874J0D01*
G01X11698872D01*
G03X11690998Y5412243I0J-7874D01*
G01Y5347283D01*
X11683124Y5339409D02*
G03X11690998Y5347283I0J7874D01*
X11225250Y5339409D02*
G01X11683124D01*
X11166195Y5398464D02*
G03X11225250Y5339409I59055J0D01*
X11166195Y5957519D02*
G01Y5398464D01*
X11225250Y6016574D02*
G03X11166195Y5957519I0J-59055D01*
X11690998Y6008700D02*
G03X11683124Y6016574I-7874J0D01*
X11690998Y5943739D02*
G01Y6008700D01*
Y5943739D02*
G03X11698872Y5935865I7874J0D01*
X11824856D02*
G01X11698872D01*
X11824856D02*
G03X11832731Y5943739I0J7874D01*
Y6008700D02*
G01Y5943739D01*
X11840605Y6016574D02*
G03X11832731Y6008700I0J-7874D01*
X11957534Y6016574D02*
G01X11840605D01*
X12016589Y5957519D02*
G03X11957534Y6016574I-59055J0D01*
X12016589Y5957519D02*
G01Y5826988D01*
X11999932Y5807538D02*
G03X12016589Y5826988I-3029J19451D01*
X11999932Y5807538D02*
G03X11999932Y5745296I4845J-31121D01*
X12016589Y5725845D02*
G03X11999932Y5745296I-19685J0D01*
X12016589Y5725845D02*
G01Y5630138D01*
X11999932Y5610687D02*
G03X12016589Y5630138I-3029J19451D01*
X11683124Y6016574D02*
G01X11225250D01*
X12909381Y5610687D02*
G03X12909381Y5548445I4845J-31121D01*
X12926038Y5528994D02*
G03X12909381Y5548445I-19685J0D01*
X12926038Y5528994D02*
G01Y5398464D01*
X12866982Y5339409D02*
G03X12926038Y5398464I0J59055D01*
X12750053Y5339409D02*
G01X12866982D01*
X12742179Y5347283D02*
G03X12750053Y5339409I7874J0D01*
X12742179Y5347283D02*
G01Y5412243D01*
G03X12734305Y5420117I-7874J0D01*
G01X12608321D01*
G03X12600447Y5412243I0J-7874D01*
G01Y5347283D01*
X12592573Y5339409D02*
G03X12600447Y5347283I0J7874D01*
X12134699Y5339409D02*
G01X12592573D01*
X12075644Y5398464D02*
G03X12134699Y5339409I59055J0D01*
X12075644Y5957519D02*
G01Y5398464D01*
X12134699Y6016574D02*
G03X12075644Y5957519I0J-59055D01*
X12600447Y6008700D02*
G03X12592573Y6016574I-7874J0D01*
X12600447Y5943739D02*
G01Y6008700D01*
Y5943739D02*
G03X12608321Y5935865I7874J0D01*
X12734305D02*
G01X12608321D01*
X12734305D02*
G03X12742179Y5943739I0J7874D01*
Y6008700D02*
G01Y5943739D01*
X12750053Y6016574D02*
G03X12742179Y6008700I0J-7874D01*
X12866982Y6016574D02*
G01X12750053D01*
X12926038Y5957519D02*
G03X12866982Y6016574I-59055J0D01*
X12926038Y5957519D02*
G01Y5826988D01*
X12909381Y5807538D02*
G03X12926038Y5826988I-3029J19451D01*
X12909381Y5807538D02*
G03X12909381Y5745296I4845J-31121D01*
X12926038Y5725845D02*
G03X12909381Y5745296I-19685J0D01*
X12926038Y5725845D02*
G01Y5630138D01*
X12909381Y5610687D02*
G03X12926038Y5630138I-3029J19451D01*
X12592573Y6016574D02*
G01X12134699D01*
X13818830Y5610687D02*
G03X13818830Y5548445I4845J-31121D01*
X13835486Y5528994D02*
G03X13818830Y5548445I-19685J0D01*
X13835486Y5528994D02*
G01Y5398464D01*
X13776431Y5339409D02*
G03X13835486Y5398464I0J59055D01*
X13659502Y5339409D02*
G01X13776431D01*
X13651628Y5347283D02*
G03X13659502Y5339409I7874J0D01*
X13651628Y5347283D02*
G01Y5412243D01*
G03X13643754Y5420117I-7874J0D01*
G01X13517770D01*
G03X13509896Y5412243I0J-7874D01*
G01Y5347283D01*
X13502022Y5339409D02*
G03X13509896Y5347283I0J7874D01*
X13044148Y5339409D02*
G01X13502022D01*
X12985093Y5398464D02*
G03X13044148Y5339409I59055J0D01*
X12985093Y5957519D02*
G01Y5398464D01*
X13044148Y6016574D02*
G03X12985093Y5957519I0J-59055D01*
X13509896Y6008700D02*
G03X13502022Y6016574I-7874J0D01*
X13509896Y5943739D02*
G01Y6008700D01*
Y5943739D02*
G03X13517770Y5935865I7874J0D01*
X13643754D02*
G01X13517770D01*
X13643754D02*
G03X13651628Y5943739I0J7874D01*
Y6008700D02*
G01Y5943739D01*
X13659502Y6016574D02*
G03X13651628Y6008700I0J-7874D01*
X13776431Y6016574D02*
G01X13659502D01*
X13835486Y5957519D02*
G03X13776431Y6016574I-59055J0D01*
X13835486Y5957519D02*
G01Y5826988D01*
X13818830Y5807538D02*
G03X13835486Y5826988I-3029J19451D01*
X13818830Y5807538D02*
G03X13818830Y5745296I4845J-31121D01*
X13835486Y5725845D02*
G03X13818830Y5745296I-19685J0D01*
X13835486Y5725845D02*
G01Y5630138D01*
X13818830Y5610687D02*
G03X13835486Y5630138I-3029J19451D01*
X13502022Y6016574D02*
G01X13044148D01*
X14728279Y5610687D02*
G03X14728279Y5548445I4845J-31121D01*
X14744935Y5528994D02*
G03X14728279Y5548445I-19685J0D01*
X14744935Y5528994D02*
G01Y5398464D01*
X14685880Y5339409D02*
G03X14744935Y5398464I0J59055D01*
X14568951Y5339409D02*
G01X14685880D01*
X14561077Y5347283D02*
G03X14568951Y5339409I7874J0D01*
X14561077Y5347283D02*
G01Y5412243D01*
G03X14553203Y5420117I-7874J0D01*
G01X14427219D01*
G03X14419345Y5412243I0J-7874D01*
G01Y5347283D01*
X14411471Y5339409D02*
G03X14419345Y5347283I0J7874D01*
X13953597Y5339409D02*
G01X14411471D01*
X13894542Y5398464D02*
G03X13953597Y5339409I59055J0D01*
X13894542Y5957519D02*
G01Y5398464D01*
X13953597Y6016574D02*
G03X13894542Y5957519I0J-59055D01*
X14419345Y6008700D02*
G03X14411471Y6016574I-7874J0D01*
X14419345Y5943739D02*
G01Y6008700D01*
Y5943739D02*
G03X14427219Y5935865I7874J0D01*
X14553203D02*
G01X14427219D01*
X14553203D02*
G03X14561077Y5943739I0J7874D01*
Y6008700D02*
G01Y5943739D01*
X14568951Y6016574D02*
G03X14561077Y6008700I0J-7874D01*
X14685880Y6016574D02*
G01X14568951D01*
X14744935Y5957519D02*
G03X14685880Y6016574I-59055J0D01*
X14744935Y5957519D02*
G01Y5826988D01*
X14728279Y5807538D02*
G03X14744935Y5826988I-3029J19451D01*
X14728279Y5807538D02*
G03X14728279Y5745296I4845J-31121D01*
X14744935Y5725845D02*
G03X14728279Y5745296I-19685J0D01*
X14744935Y5725845D02*
G01Y5630138D01*
X14728279Y5610687D02*
G03X14744935Y5630138I-3029J19451D01*
X14411471Y6016574D02*
G01X13953597D01*
X8066861Y4874467D02*
G03X8066861Y4812225I4845J-31121D01*
X8083518Y4792774D02*
G03X8066861Y4812225I-19685J0D01*
X8083518Y4792774D02*
G01Y4662243D01*
X8024463Y4603188D02*
G03X8083518Y4662243I0J59055D01*
X7907534Y4603188D02*
G01X8024463D01*
X7899660Y4611062D02*
G03X7907534Y4603188I7874J0D01*
X7899660Y4611062D02*
G01Y4676023D01*
G03X7891786Y4683897I-7874J0D01*
G01X7765801D01*
G03X7757927Y4676023I0J-7874D01*
G01Y4611062D01*
X7750053Y4603188D02*
G03X7757927Y4611062I0J7874D01*
X7292179Y4603188D02*
G01X7750053D01*
X7233124Y4662243D02*
G03X7292179Y4603188I59055J0D01*
X7233124Y5221299D02*
G01Y4662243D01*
X7292179Y5280354D02*
G03X7233124Y5221299I0J-59055D01*
X7757927Y5272480D02*
G03X7750053Y5280354I-7874J0D01*
X7757927Y5207519D02*
G01Y5272480D01*
Y5207519D02*
G03X7765801Y5199645I7874J0D01*
X7891786D02*
G01X7765801D01*
X7891786D02*
G03X7899660Y5207519I0J7874D01*
Y5272480D02*
G01Y5207519D01*
X7907534Y5280354D02*
G03X7899660Y5272480I0J-7874D01*
X8024463Y5280354D02*
G01X7907534D01*
X8083518Y5221299D02*
G03X8024463Y5280354I-59055J0D01*
X8083518Y5221299D02*
G01Y5090768D01*
X8066861Y5071317D02*
G03X8083518Y5090768I-3029J19451D01*
X8066861Y5071317D02*
G03X8066861Y5009075I4845J-31121D01*
X8083518Y4989624D02*
G03X8066861Y5009075I-19685J0D01*
X8083518Y4989624D02*
G01Y4893918D01*
X8066861Y4874467D02*
G03X8083518Y4893918I-3029J19451D01*
X7750053Y5280354D02*
G01X7292179D01*
X8976310Y4874467D02*
G03X8976310Y4812225I4845J-31121D01*
X8992967Y4792774D02*
G03X8976310Y4812225I-19685J0D01*
X8992967Y4792774D02*
G01Y4662243D01*
X8933912Y4603188D02*
G03X8992967Y4662243I0J59055D01*
X8816982Y4603188D02*
G01X8933912D01*
X8809108Y4611062D02*
G03X8816982Y4603188I7874J0D01*
X8809108Y4611062D02*
G01Y4676023D01*
G03X8801234Y4683897I-7874J0D01*
G01X8675250D01*
G03X8667376Y4676023I0J-7874D01*
G01Y4611062D01*
X8659502Y4603188D02*
G03X8667376Y4611062I0J7874D01*
X8201628Y4603188D02*
G01X8659502D01*
X8142573Y4662243D02*
G03X8201628Y4603188I59055J0D01*
X8142573Y5221299D02*
G01Y4662243D01*
X8201628Y5280354D02*
G03X8142573Y5221299I0J-59055D01*
X8667376Y5272480D02*
G03X8659502Y5280354I-7874J0D01*
X8667376Y5207519D02*
G01Y5272480D01*
Y5207519D02*
G03X8675250Y5199645I7874J0D01*
X8801234D02*
G01X8675250D01*
X8801234D02*
G03X8809108Y5207519I0J7874D01*
Y5272480D02*
G01Y5207519D01*
X8816982Y5280354D02*
G03X8809108Y5272480I0J-7874D01*
X8933912Y5280354D02*
G01X8816982D01*
X8992967Y5221299D02*
G03X8933912Y5280354I-59055J0D01*
X8992967Y5221299D02*
G01Y5090768D01*
X8976310Y5071317D02*
G03X8992967Y5090768I-3029J19451D01*
X8976310Y5071317D02*
G03X8976310Y5009075I4845J-31121D01*
X8992967Y4989624D02*
G03X8976310Y5009075I-19685J0D01*
X8992967Y4989624D02*
G01Y4893918D01*
X8976310Y4874467D02*
G03X8992967Y4893918I-3029J19451D01*
X8659502Y5280354D02*
G01X8201628D01*
X9885759Y4874467D02*
G03X9885759Y4812225I4845J-31121D01*
X9902416Y4792774D02*
G03X9885759Y4812225I-19685J0D01*
X9902416Y4792774D02*
G01Y4662243D01*
X9843360Y4603188D02*
G03X9902416Y4662243I0J59055D01*
X9726431Y4603188D02*
G01X9843360D01*
X9718557Y4611062D02*
G03X9726431Y4603188I7874J0D01*
X9718557Y4611062D02*
G01Y4676023D01*
G03X9710683Y4683897I-7874J0D01*
G01X9584699D01*
G03X9576825Y4676023I0J-7874D01*
G01Y4611062D01*
X9568951Y4603188D02*
G03X9576825Y4611062I0J7874D01*
X9111077Y4603188D02*
G01X9568951D01*
X9052022Y4662243D02*
G03X9111077Y4603188I59055J0D01*
X9052022Y5221299D02*
G01Y4662243D01*
X9111077Y5280354D02*
G03X9052022Y5221299I0J-59055D01*
X9576825Y5272480D02*
G03X9568951Y5280354I-7874J0D01*
X9576825Y5207519D02*
G01Y5272480D01*
Y5207519D02*
G03X9584699Y5199645I7874J0D01*
X9710683D02*
G01X9584699D01*
X9710683D02*
G03X9718557Y5207519I0J7874D01*
Y5272480D02*
G01Y5207519D01*
X9726431Y5280354D02*
G03X9718557Y5272480I0J-7874D01*
X9843360Y5280354D02*
G01X9726431D01*
X9902416Y5221299D02*
G03X9843360Y5280354I-59055J0D01*
X9902416Y5221299D02*
G01Y5090768D01*
X9885759Y5071317D02*
G03X9902416Y5090768I-3029J19451D01*
X9885759Y5071317D02*
G03X9885759Y5009075I4845J-31121D01*
X9902416Y4989624D02*
G03X9885759Y5009075I-19685J0D01*
X9902416Y4989624D02*
G01Y4893918D01*
X9885759Y4874467D02*
G03X9902416Y4893918I-3029J19451D01*
X9568951Y5280354D02*
G01X9111077D01*
X10795208Y4874467D02*
G03X10795208Y4812225I4845J-31121D01*
X10811864Y4792774D02*
G03X10795208Y4812225I-19685J0D01*
X10811864Y4792774D02*
G01Y4662243D01*
X10752809Y4603188D02*
G03X10811864Y4662243I0J59055D01*
X10635880Y4603188D02*
G01X10752809D01*
X10628006Y4611062D02*
G03X10635880Y4603188I7874J0D01*
X10628006Y4611062D02*
G01Y4676023D01*
G03X10620132Y4683897I-7874J0D01*
G01X10494148D01*
G03X10486274Y4676023I0J-7874D01*
G01Y4611062D01*
X10478400Y4603188D02*
G03X10486274Y4611062I0J7874D01*
X10020526Y4603188D02*
G01X10478400D01*
X9961471Y4662243D02*
G03X10020526Y4603188I59055J0D01*
X9961471Y5221299D02*
G01Y4662243D01*
X10020526Y5280354D02*
G03X9961471Y5221299I0J-59055D01*
X10486274Y5272480D02*
G03X10478400Y5280354I-7874J0D01*
X10486274Y5207519D02*
G01Y5272480D01*
Y5207519D02*
G03X10494148Y5199645I7874J0D01*
X10620132D02*
G01X10494148D01*
X10620132D02*
G03X10628006Y5207519I0J7874D01*
Y5272480D02*
G01Y5207519D01*
X10635880Y5280354D02*
G03X10628006Y5272480I0J-7874D01*
X10752809Y5280354D02*
G01X10635880D01*
X10811864Y5221299D02*
G03X10752809Y5280354I-59055J0D01*
X10811864Y5221299D02*
G01Y5090768D01*
X10795208Y5071317D02*
G03X10811864Y5090768I-3029J19451D01*
X10795208Y5071317D02*
G03X10795208Y5009075I4845J-31121D01*
X10811864Y4989624D02*
G03X10795208Y5009075I-19685J0D01*
X10811864Y4989624D02*
G01Y4893918D01*
X10795208Y4874467D02*
G03X10811864Y4893918I-3029J19451D01*
X10478400Y5280354D02*
G01X10020526D01*
X11999932Y4874467D02*
G03X11999932Y4812225I4845J-31121D01*
X12016589Y4792774D02*
G03X11999932Y4812225I-19685J0D01*
X12016589Y4792774D02*
G01Y4662243D01*
X11957534Y4603188D02*
G03X12016589Y4662243I0J59055D01*
X11840605Y4603188D02*
G01X11957534D01*
X11832731Y4611062D02*
G03X11840605Y4603188I7874J0D01*
X11832731Y4611062D02*
G01Y4676023D01*
G03X11824856Y4683897I-7874J0D01*
G01X11698872D01*
G03X11690998Y4676023I0J-7874D01*
G01Y4611062D01*
X11683124Y4603188D02*
G03X11690998Y4611062I0J7874D01*
X11225250Y4603188D02*
G01X11683124D01*
X11166195Y4662243D02*
G03X11225250Y4603188I59055J0D01*
X11166195Y5221299D02*
G01Y4662243D01*
X11225250Y5280354D02*
G03X11166195Y5221299I0J-59055D01*
X11690998Y5272480D02*
G03X11683124Y5280354I-7874J0D01*
X11690998Y5207519D02*
G01Y5272480D01*
Y5207519D02*
G03X11698872Y5199645I7874J0D01*
X11824856D02*
G01X11698872D01*
X11824856D02*
G03X11832731Y5207519I0J7874D01*
Y5272480D02*
G01Y5207519D01*
X11840605Y5280354D02*
G03X11832731Y5272480I0J-7874D01*
X11957534Y5280354D02*
G01X11840605D01*
X12016589Y5221299D02*
G03X11957534Y5280354I-59055J0D01*
X12016589Y5221299D02*
G01Y5090768D01*
X11999932Y5071317D02*
G03X12016589Y5090768I-3029J19451D01*
X11999932Y5071317D02*
G03X11999932Y5009075I4845J-31121D01*
X12016589Y4989624D02*
G03X11999932Y5009075I-19685J0D01*
X12016589Y4989624D02*
G01Y4893918D01*
X11999932Y4874467D02*
G03X12016589Y4893918I-3029J19451D01*
X11683124Y5280354D02*
G01X11225250D01*
X12909381Y4874467D02*
G03X12909381Y4812225I4845J-31121D01*
X12926038Y4792774D02*
G03X12909381Y4812225I-19685J0D01*
X12926038Y4792774D02*
G01Y4662243D01*
X12866982Y4603188D02*
G03X12926038Y4662243I0J59055D01*
X12750053Y4603188D02*
G01X12866982D01*
X12742179Y4611062D02*
G03X12750053Y4603188I7874J0D01*
X12742179Y4611062D02*
G01Y4676023D01*
G03X12734305Y4683897I-7874J0D01*
G01X12608321D01*
G03X12600447Y4676023I0J-7874D01*
G01Y4611062D01*
X12592573Y4603188D02*
G03X12600447Y4611062I0J7874D01*
X12134699Y4603188D02*
G01X12592573D01*
X12075644Y4662243D02*
G03X12134699Y4603188I59055J0D01*
X12075644Y5221299D02*
G01Y4662243D01*
X12134699Y5280354D02*
G03X12075644Y5221299I0J-59055D01*
X12600447Y5272480D02*
G03X12592573Y5280354I-7874J0D01*
X12600447Y5207519D02*
G01Y5272480D01*
Y5207519D02*
G03X12608321Y5199645I7874J0D01*
X12734305D02*
G01X12608321D01*
X12734305D02*
G03X12742179Y5207519I0J7874D01*
Y5272480D02*
G01Y5207519D01*
X12750053Y5280354D02*
G03X12742179Y5272480I0J-7874D01*
X12866982Y5280354D02*
G01X12750053D01*
X12926038Y5221299D02*
G03X12866982Y5280354I-59055J0D01*
X12926038Y5221299D02*
G01Y5090768D01*
X12909381Y5071317D02*
G03X12926038Y5090768I-3029J19451D01*
X12909381Y5071317D02*
G03X12909381Y5009075I4845J-31121D01*
X12926038Y4989624D02*
G03X12909381Y5009075I-19685J0D01*
X12926038Y4989624D02*
G01Y4893918D01*
X12909381Y4874467D02*
G03X12926038Y4893918I-3029J19451D01*
X12592573Y5280354D02*
G01X12134699D01*
X13818830Y4874467D02*
G03X13818830Y4812225I4845J-31121D01*
X13835486Y4792774D02*
G03X13818830Y4812225I-19685J0D01*
X13835486Y4792774D02*
G01Y4662243D01*
X13776431Y4603188D02*
G03X13835486Y4662243I0J59055D01*
X13659502Y4603188D02*
G01X13776431D01*
X13651628Y4611062D02*
G03X13659502Y4603188I7874J0D01*
X13651628Y4611062D02*
G01Y4676023D01*
G03X13643754Y4683897I-7874J0D01*
G01X13517770D01*
G03X13509896Y4676023I0J-7874D01*
G01Y4611062D01*
X13502022Y4603188D02*
G03X13509896Y4611062I0J7874D01*
X13044148Y4603188D02*
G01X13502022D01*
X12985093Y4662243D02*
G03X13044148Y4603188I59055J0D01*
X12985093Y5221299D02*
G01Y4662243D01*
X13044148Y5280354D02*
G03X12985093Y5221299I0J-59055D01*
X13509896Y5272480D02*
G03X13502022Y5280354I-7874J0D01*
X13509896Y5207519D02*
G01Y5272480D01*
Y5207519D02*
G03X13517770Y5199645I7874J0D01*
X13643754D02*
G01X13517770D01*
X13643754D02*
G03X13651628Y5207519I0J7874D01*
Y5272480D02*
G01Y5207519D01*
X13659502Y5280354D02*
G03X13651628Y5272480I0J-7874D01*
X13776431Y5280354D02*
G01X13659502D01*
X13835486Y5221299D02*
G03X13776431Y5280354I-59055J0D01*
X13835486Y5221299D02*
G01Y5090768D01*
X13818830Y5071317D02*
G03X13835486Y5090768I-3029J19451D01*
X13818830Y5071317D02*
G03X13818830Y5009075I4845J-31121D01*
X13835486Y4989624D02*
G03X13818830Y5009075I-19685J0D01*
X13835486Y4989624D02*
G01Y4893918D01*
X13818830Y4874467D02*
G03X13835486Y4893918I-3029J19451D01*
X13502022Y5280354D02*
G01X13044148D01*
X14728279Y4874467D02*
G03X14728279Y4812225I4845J-31121D01*
X14744935Y4792774D02*
G03X14728279Y4812225I-19685J0D01*
X14744935Y4792774D02*
G01Y4662243D01*
X14685880Y4603188D02*
G03X14744935Y4662243I0J59055D01*
X14568951Y4603188D02*
G01X14685880D01*
X14561077Y4611062D02*
G03X14568951Y4603188I7874J0D01*
X14561077Y4611062D02*
G01Y4676023D01*
G03X14553203Y4683897I-7874J0D01*
G01X14427219D01*
G03X14419345Y4676023I0J-7874D01*
G01Y4611062D01*
X14411471Y4603188D02*
G03X14419345Y4611062I0J7874D01*
X13953597Y4603188D02*
G01X14411471D01*
X13894542Y4662243D02*
G03X13953597Y4603188I59055J0D01*
X13894542Y5221299D02*
G01Y4662243D01*
X13953597Y5280354D02*
G03X13894542Y5221299I0J-59055D01*
X14419345Y5272480D02*
G03X14411471Y5280354I-7874J0D01*
X14419345Y5207519D02*
G01Y5272480D01*
Y5207519D02*
G03X14427219Y5199645I7874J0D01*
X14553203D02*
G01X14427219D01*
X14553203D02*
G03X14561077Y5207519I0J7874D01*
Y5272480D02*
G01Y5207519D01*
X14568951Y5280354D02*
G03X14561077Y5272480I0J-7874D01*
X14685880Y5280354D02*
G01X14568951D01*
X14744935Y5221299D02*
G03X14685880Y5280354I-59055J0D01*
X14744935Y5221299D02*
G01Y5090768D01*
X14728279Y5071317D02*
G03X14744935Y5090768I-3029J19451D01*
X14728279Y5071317D02*
G03X14728279Y5009075I4845J-31121D01*
X14744935Y4989624D02*
G03X14728279Y5009075I-19685J0D01*
X14744935Y4989624D02*
G01Y4893918D01*
X14728279Y4874467D02*
G03X14744935Y4893918I-3029J19451D01*
X14411471Y5280354D02*
G01X13953597D01*
X8066861Y4138246D02*
G03X8066861Y4076004I4845J-31121D01*
X8083518Y4056553D02*
G03X8066861Y4076004I-19685J0D01*
X8083518Y4056553D02*
G01Y3926023D01*
X8024463Y3866968D02*
G03X8083518Y3926023I0J59055D01*
X7907534Y3866968D02*
G01X8024463D01*
X7899660Y3874842D02*
G03X7907534Y3866968I7874J0D01*
X7899660Y3874842D02*
G01Y3939802D01*
G03X7891786Y3947676I-7874J0D01*
G01X7765801D01*
G03X7757927Y3939802I0J-7874D01*
G01Y3874842D01*
X7750053Y3866968D02*
G03X7757927Y3874842I0J7874D01*
X7292179Y3866968D02*
G01X7750053D01*
X7233124Y3926023D02*
G03X7292179Y3866968I59055J0D01*
X7233124Y4485078D02*
G01Y3926023D01*
X7292179Y4544133D02*
G03X7233124Y4485078I0J-59055D01*
X7757927Y4536259D02*
G03X7750053Y4544133I-7874J0D01*
X7757927Y4471299D02*
G01Y4536259D01*
Y4471299D02*
G03X7765801Y4463425I7874J0D01*
X7891786D02*
G01X7765801D01*
X7891786D02*
G03X7899660Y4471299I0J7874D01*
Y4536259D02*
G01Y4471299D01*
X7907534Y4544133D02*
G03X7899660Y4536259I0J-7874D01*
X8024463Y4544133D02*
G01X7907534D01*
X8083518Y4485078D02*
G03X8024463Y4544133I-59055J0D01*
X8083518Y4485078D02*
G01Y4354548D01*
X8066861Y4335097D02*
G03X8083518Y4354548I-3029J19451D01*
X8066861Y4335097D02*
G03X8066861Y4272855I4845J-31121D01*
X8083518Y4253404D02*
G03X8066861Y4272855I-19685J0D01*
X8083518Y4253404D02*
G01Y4157697D01*
X8066861Y4138246D02*
G03X8083518Y4157697I-3029J19451D01*
X7750053Y4544133D02*
G01X7292179D01*
X8976310Y4138246D02*
G03X8976310Y4076004I4845J-31121D01*
X8992967Y4056553D02*
G03X8976310Y4076004I-19685J0D01*
X8992967Y4056553D02*
G01Y3926023D01*
X8933912Y3866968D02*
G03X8992967Y3926023I0J59055D01*
X8816982Y3866968D02*
G01X8933912D01*
X8809108Y3874842D02*
G03X8816982Y3866968I7874J0D01*
X8809108Y3874842D02*
G01Y3939802D01*
G03X8801234Y3947676I-7874J0D01*
G01X8675250D01*
G03X8667376Y3939802I0J-7874D01*
G01Y3874842D01*
X8659502Y3866968D02*
G03X8667376Y3874842I0J7874D01*
X8201628Y3866968D02*
G01X8659502D01*
X8142573Y3926023D02*
G03X8201628Y3866968I59055J0D01*
X8142573Y4485078D02*
G01Y3926023D01*
X8201628Y4544133D02*
G03X8142573Y4485078I0J-59055D01*
X8667376Y4536259D02*
G03X8659502Y4544133I-7874J0D01*
X8667376Y4471299D02*
G01Y4536259D01*
Y4471299D02*
G03X8675250Y4463425I7874J0D01*
X8801234D02*
G01X8675250D01*
X8801234D02*
G03X8809108Y4471299I0J7874D01*
Y4536259D02*
G01Y4471299D01*
X8816982Y4544133D02*
G03X8809108Y4536259I0J-7874D01*
X8933912Y4544133D02*
G01X8816982D01*
X8992967Y4485078D02*
G03X8933912Y4544133I-59055J0D01*
X8992967Y4485078D02*
G01Y4354548D01*
X8976310Y4335097D02*
G03X8992967Y4354548I-3029J19451D01*
X8976310Y4335097D02*
G03X8976310Y4272855I4845J-31121D01*
X8992967Y4253404D02*
G03X8976310Y4272855I-19685J0D01*
X8992967Y4253404D02*
G01Y4157697D01*
X8976310Y4138246D02*
G03X8992967Y4157697I-3029J19451D01*
X8659502Y4544133D02*
G01X8201628D01*
X9885759Y4138246D02*
G03X9885759Y4076004I4845J-31121D01*
X9902416Y4056553D02*
G03X9885759Y4076004I-19685J0D01*
X9902416Y4056553D02*
G01Y3926023D01*
X9843360Y3866968D02*
G03X9902416Y3926023I0J59055D01*
X9726431Y3866968D02*
G01X9843360D01*
X9718557Y3874842D02*
G03X9726431Y3866968I7874J0D01*
X9718557Y3874842D02*
G01Y3939802D01*
G03X9710683Y3947676I-7874J0D01*
G01X9584699D01*
G03X9576825Y3939802I0J-7874D01*
G01Y3874842D01*
X9568951Y3866968D02*
G03X9576825Y3874842I0J7874D01*
X9111077Y3866968D02*
G01X9568951D01*
X9052022Y3926023D02*
G03X9111077Y3866968I59055J0D01*
X9052022Y4485078D02*
G01Y3926023D01*
X9111077Y4544133D02*
G03X9052022Y4485078I0J-59055D01*
X9576825Y4536259D02*
G03X9568951Y4544133I-7874J0D01*
X9576825Y4471299D02*
G01Y4536259D01*
Y4471299D02*
G03X9584699Y4463425I7874J0D01*
X9710683D02*
G01X9584699D01*
X9710683D02*
G03X9718557Y4471299I0J7874D01*
Y4536259D02*
G01Y4471299D01*
X9726431Y4544133D02*
G03X9718557Y4536259I0J-7874D01*
X9843360Y4544133D02*
G01X9726431D01*
X9902416Y4485078D02*
G03X9843360Y4544133I-59055J0D01*
X9902416Y4485078D02*
G01Y4354548D01*
X9885759Y4335097D02*
G03X9902416Y4354548I-3029J19451D01*
X9885759Y4335097D02*
G03X9885759Y4272855I4845J-31121D01*
X9902416Y4253404D02*
G03X9885759Y4272855I-19685J0D01*
X9902416Y4253404D02*
G01Y4157697D01*
X9885759Y4138246D02*
G03X9902416Y4157697I-3029J19451D01*
X9568951Y4544133D02*
G01X9111077D01*
X10795208Y4138246D02*
G03X10795208Y4076004I4845J-31121D01*
X10811864Y4056553D02*
G03X10795208Y4076004I-19685J0D01*
X10811864Y4056553D02*
G01Y3926023D01*
X10752809Y3866968D02*
G03X10811864Y3926023I0J59055D01*
X10635880Y3866968D02*
G01X10752809D01*
X10628006Y3874842D02*
G03X10635880Y3866968I7874J0D01*
X10628006Y3874842D02*
G01Y3939802D01*
G03X10620132Y3947676I-7874J0D01*
G01X10494148D01*
G03X10486274Y3939802I0J-7874D01*
G01Y3874842D01*
X10478400Y3866968D02*
G03X10486274Y3874842I0J7874D01*
X10020526Y3866968D02*
G01X10478400D01*
X9961471Y3926023D02*
G03X10020526Y3866968I59055J0D01*
X9961471Y4485078D02*
G01Y3926023D01*
X10020526Y4544133D02*
G03X9961471Y4485078I0J-59055D01*
X10486274Y4536259D02*
G03X10478400Y4544133I-7874J0D01*
X10486274Y4471299D02*
G01Y4536259D01*
Y4471299D02*
G03X10494148Y4463425I7874J0D01*
X10620132D02*
G01X10494148D01*
X10620132D02*
G03X10628006Y4471299I0J7874D01*
Y4536259D02*
G01Y4471299D01*
X10635880Y4544133D02*
G03X10628006Y4536259I0J-7874D01*
X10752809Y4544133D02*
G01X10635880D01*
X10811864Y4485078D02*
G03X10752809Y4544133I-59055J0D01*
X10811864Y4485078D02*
G01Y4354548D01*
X10795208Y4335097D02*
G03X10811864Y4354548I-3029J19451D01*
X10795208Y4335097D02*
G03X10795208Y4272855I4845J-31121D01*
X10811864Y4253404D02*
G03X10795208Y4272855I-19685J0D01*
X10811864Y4253404D02*
G01Y4157697D01*
X10795208Y4138246D02*
G03X10811864Y4157697I-3029J19451D01*
X10478400Y4544133D02*
G01X10020526D01*
X11999932Y4138246D02*
G03X11999932Y4076004I4845J-31121D01*
X12016589Y4056553D02*
G03X11999932Y4076004I-19685J0D01*
X12016589Y4056553D02*
G01Y3926023D01*
X11957534Y3866968D02*
G03X12016589Y3926023I0J59055D01*
X11840605Y3866968D02*
G01X11957534D01*
X11832731Y3874842D02*
G03X11840605Y3866968I7874J0D01*
X11832731Y3874842D02*
G01Y3939802D01*
G03X11824856Y3947676I-7874J0D01*
G01X11698872D01*
G03X11690998Y3939802I0J-7874D01*
G01Y3874842D01*
X11683124Y3866968D02*
G03X11690998Y3874842I0J7874D01*
X11225250Y3866968D02*
G01X11683124D01*
X11166195Y3926023D02*
G03X11225250Y3866968I59055J0D01*
X11166195Y4485078D02*
G01Y3926023D01*
X11225250Y4544133D02*
G03X11166195Y4485078I0J-59055D01*
X11690998Y4536259D02*
G03X11683124Y4544133I-7874J0D01*
X11690998Y4471299D02*
G01Y4536259D01*
Y4471299D02*
G03X11698872Y4463425I7874J0D01*
X11824856D02*
G01X11698872D01*
X11824856D02*
G03X11832731Y4471299I0J7874D01*
Y4536259D02*
G01Y4471299D01*
X11840605Y4544133D02*
G03X11832731Y4536259I0J-7874D01*
X11957534Y4544133D02*
G01X11840605D01*
X12016589Y4485078D02*
G03X11957534Y4544133I-59055J0D01*
X12016589Y4485078D02*
G01Y4354548D01*
X11999932Y4335097D02*
G03X12016589Y4354548I-3029J19451D01*
X11999932Y4335097D02*
G03X11999932Y4272855I4845J-31121D01*
X12016589Y4253404D02*
G03X11999932Y4272855I-19685J0D01*
X12016589Y4253404D02*
G01Y4157697D01*
X11999932Y4138246D02*
G03X12016589Y4157697I-3029J19451D01*
X11683124Y4544133D02*
G01X11225250D01*
X12909381Y4138246D02*
G03X12909381Y4076004I4845J-31121D01*
X12926038Y4056553D02*
G03X12909381Y4076004I-19685J0D01*
X12926038Y4056553D02*
G01Y3926023D01*
X12866982Y3866968D02*
G03X12926038Y3926023I0J59055D01*
X12750053Y3866968D02*
G01X12866982D01*
X12742179Y3874842D02*
G03X12750053Y3866968I7874J0D01*
X12742179Y3874842D02*
G01Y3939802D01*
G03X12734305Y3947676I-7874J0D01*
G01X12608321D01*
G03X12600447Y3939802I0J-7874D01*
G01Y3874842D01*
X12592573Y3866968D02*
G03X12600447Y3874842I0J7874D01*
X12134699Y3866968D02*
G01X12592573D01*
X12075644Y3926023D02*
G03X12134699Y3866968I59055J0D01*
X12075644Y4485078D02*
G01Y3926023D01*
X12134699Y4544133D02*
G03X12075644Y4485078I0J-59055D01*
X12600447Y4536259D02*
G03X12592573Y4544133I-7874J0D01*
X12600447Y4471299D02*
G01Y4536259D01*
Y4471299D02*
G03X12608321Y4463425I7874J0D01*
X12734305D02*
G01X12608321D01*
X12734305D02*
G03X12742179Y4471299I0J7874D01*
Y4536259D02*
G01Y4471299D01*
X12750053Y4544133D02*
G03X12742179Y4536259I0J-7874D01*
X12866982Y4544133D02*
G01X12750053D01*
X12926038Y4485078D02*
G03X12866982Y4544133I-59055J0D01*
X12926038Y4485078D02*
G01Y4354548D01*
X12909381Y4335097D02*
G03X12926038Y4354548I-3029J19451D01*
X12909381Y4335097D02*
G03X12909381Y4272855I4845J-31121D01*
X12926038Y4253404D02*
G03X12909381Y4272855I-19685J0D01*
X12926038Y4253404D02*
G01Y4157697D01*
X12909381Y4138246D02*
G03X12926038Y4157697I-3029J19451D01*
X12592573Y4544133D02*
G01X12134699D01*
X13818830Y4138246D02*
G03X13818830Y4076004I4845J-31121D01*
X13835486Y4056553D02*
G03X13818830Y4076004I-19685J0D01*
X13835486Y4056553D02*
G01Y3926023D01*
X13776431Y3866968D02*
G03X13835486Y3926023I0J59055D01*
X13659502Y3866968D02*
G01X13776431D01*
X13651628Y3874842D02*
G03X13659502Y3866968I7874J0D01*
X13651628Y3874842D02*
G01Y3939802D01*
G03X13643754Y3947676I-7874J0D01*
G01X13517770D01*
G03X13509896Y3939802I0J-7874D01*
G01Y3874842D01*
X13502022Y3866968D02*
G03X13509896Y3874842I0J7874D01*
X13044148Y3866968D02*
G01X13502022D01*
X12985093Y3926023D02*
G03X13044148Y3866968I59055J0D01*
X12985093Y4485078D02*
G01Y3926023D01*
X13044148Y4544133D02*
G03X12985093Y4485078I0J-59055D01*
X13509896Y4536259D02*
G03X13502022Y4544133I-7874J0D01*
X13509896Y4471299D02*
G01Y4536259D01*
Y4471299D02*
G03X13517770Y4463425I7874J0D01*
X13643754D02*
G01X13517770D01*
X13643754D02*
G03X13651628Y4471299I0J7874D01*
Y4536259D02*
G01Y4471299D01*
X13659502Y4544133D02*
G03X13651628Y4536259I0J-7874D01*
X13776431Y4544133D02*
G01X13659502D01*
X13835486Y4485078D02*
G03X13776431Y4544133I-59055J0D01*
X13835486Y4485078D02*
G01Y4354548D01*
X13818830Y4335097D02*
G03X13835486Y4354548I-3029J19451D01*
X13818830Y4335097D02*
G03X13818830Y4272855I4845J-31121D01*
X13835486Y4253404D02*
G03X13818830Y4272855I-19685J0D01*
X13835486Y4253404D02*
G01Y4157697D01*
X13818830Y4138246D02*
G03X13835486Y4157697I-3029J19451D01*
X13502022Y4544133D02*
G01X13044148D01*
X14728279Y4138246D02*
G03X14728279Y4076004I4845J-31121D01*
X14744935Y4056553D02*
G03X14728279Y4076004I-19685J0D01*
X14744935Y4056553D02*
G01Y3926023D01*
X14685880Y3866968D02*
G03X14744935Y3926023I0J59055D01*
X14568951Y3866968D02*
G01X14685880D01*
X14561077Y3874842D02*
G03X14568951Y3866968I7874J0D01*
X14561077Y3874842D02*
G01Y3939802D01*
G03X14553203Y3947676I-7874J0D01*
G01X14427219D01*
G03X14419345Y3939802I0J-7874D01*
G01Y3874842D01*
X14411471Y3866968D02*
G03X14419345Y3874842I0J7874D01*
X13953597Y3866968D02*
G01X14411471D01*
X13894542Y3926023D02*
G03X13953597Y3866968I59055J0D01*
X13894542Y4485078D02*
G01Y3926023D01*
X13953597Y4544133D02*
G03X13894542Y4485078I0J-59055D01*
X14419345Y4536259D02*
G03X14411471Y4544133I-7874J0D01*
X14419345Y4471299D02*
G01Y4536259D01*
Y4471299D02*
G03X14427219Y4463425I7874J0D01*
X14553203D02*
G01X14427219D01*
X14553203D02*
G03X14561077Y4471299I0J7874D01*
Y4536259D02*
G01Y4471299D01*
X14568951Y4544133D02*
G03X14561077Y4536259I0J-7874D01*
X14685880Y4544133D02*
G01X14568951D01*
X14744935Y4485078D02*
G03X14685880Y4544133I-59055J0D01*
X14744935Y4485078D02*
G01Y4354548D01*
X14728279Y4335097D02*
G03X14744935Y4354548I-3029J19451D01*
X14728279Y4335097D02*
G03X14728279Y4272855I4845J-31121D01*
X14744935Y4253404D02*
G03X14728279Y4272855I-19685J0D01*
X14744935Y4253404D02*
G01Y4157697D01*
X14728279Y4138246D02*
G03X14744935Y4157697I-3029J19451D01*
X14411471Y4544133D02*
G01X13953597D01*
X7174069Y9020511D02*
X10870919D01*
X11107140D02*
X14803990D01*
X7174069Y3807913D02*
X10870919D01*
X11107140D02*
X14803990D01*
X7174069D02*
Y9020511D01*
X14803990Y3807913D02*
Y9020511D01*
X7016589Y9138621D02*
X14961471D01*
X7016589Y3689805D02*
X14961471Y3689802D01*
X6977219Y3729175D02*
Y9099251D01*
X15000841Y3729172D02*
Y9099251D01*
X7948013Y3807916D02*
X8138975D01*
X6977219Y3911331D02*
Y4151357D01*
Y4915056D02*
Y4499300D01*
X7174069Y4915056D02*
Y4499300D01*
X11107140Y9020511D02*
Y3807913D01*
X10870919Y9020511D02*
Y3807913D01*
X7992671Y8961456D02*
Y9020511D01*
X7933616Y8961456D02*
Y9020511D01*
X7323971Y8961456D02*
Y9020511D01*
X7383026Y8961456D02*
Y9020511D01*
X8902120Y8961456D02*
Y9020511D01*
X8843065Y8961456D02*
Y9020511D01*
X8233419Y8961456D02*
Y9020511D01*
X8292475Y8961456D02*
Y9020511D01*
X9811569Y8961456D02*
Y9020511D01*
X9752514Y8961456D02*
Y9020511D01*
X9142868Y8961456D02*
Y9020511D01*
X9201923Y8961456D02*
Y9020511D01*
X10721018Y8961456D02*
Y9020511D01*
X10661963Y8961456D02*
Y9020511D01*
X10052317Y8961456D02*
Y9020511D01*
X10111372Y8961456D02*
Y9020511D01*
X11925742Y8961456D02*
Y9020511D01*
X11866687Y8961456D02*
Y9020511D01*
X11257042Y8961456D02*
Y9020511D01*
X11316097Y8961456D02*
Y9020511D01*
X12835191Y8961456D02*
Y9020511D01*
X12776136Y8961456D02*
Y9020511D01*
X12166490Y8961456D02*
Y9020511D01*
X12225545Y8961456D02*
Y9020511D01*
X13744640Y8961456D02*
Y9020511D01*
X13685585Y8961456D02*
Y9020511D01*
X13075939Y8961456D02*
Y9020511D01*
X13134994Y8961456D02*
Y9020511D01*
X14654089Y8961456D02*
Y9020511D01*
X14595034Y8961456D02*
Y9020511D01*
X13985388Y8961456D02*
Y9020511D01*
X14044443Y8961456D02*
Y9020511D01*
X7992671Y8225236D02*
Y8284291D01*
X7933616Y8225236D02*
Y8284291D01*
X7323971Y8225236D02*
Y8284291D01*
X7383026Y8225236D02*
Y8284291D01*
X8902120Y8225236D02*
Y8284291D01*
X8843065Y8225236D02*
Y8284291D01*
X8233419Y8225236D02*
Y8284291D01*
X8292475Y8225236D02*
Y8284291D01*
X9811569Y8225236D02*
Y8284291D01*
X9752514Y8225236D02*
Y8284291D01*
X9142868Y8225236D02*
Y8284291D01*
X9201923Y8225236D02*
Y8284291D01*
X10721018Y8225236D02*
Y8284291D01*
X10661963Y8225236D02*
Y8284291D01*
X10052317Y8225236D02*
Y8284291D01*
X10111372Y8225236D02*
Y8284291D01*
X11925742Y8225236D02*
Y8284291D01*
X11866687Y8225236D02*
Y8284291D01*
X11257042Y8225236D02*
Y8284291D01*
X11316097Y8225236D02*
Y8284291D01*
X12835191Y8225236D02*
Y8284291D01*
X12776136Y8225236D02*
Y8284291D01*
X12166490Y8225236D02*
Y8284291D01*
X12225545Y8225236D02*
Y8284291D01*
X13744640Y8225236D02*
Y8284291D01*
X13685585Y8225236D02*
Y8284291D01*
X13075939Y8225236D02*
Y8284291D01*
X13134994Y8225236D02*
Y8284291D01*
X14654089Y8225236D02*
Y8284291D01*
X14595034Y8225236D02*
Y8284291D01*
X13985388Y8225236D02*
Y8284291D01*
X14044443Y8225236D02*
Y8284291D01*
X7992671Y7489015D02*
Y7548070D01*
X7933616Y7489015D02*
Y7548070D01*
X7323971Y7489015D02*
Y7548070D01*
X7383026Y7489015D02*
Y7548070D01*
X8902120Y7489015D02*
Y7548070D01*
X8843065Y7489015D02*
Y7548070D01*
X8233419Y7489015D02*
Y7548070D01*
X8292475Y7489015D02*
Y7548070D01*
X9811569Y7489015D02*
Y7548070D01*
X9752514Y7489015D02*
Y7548070D01*
X9142868Y7489015D02*
Y7548070D01*
X9201923Y7489015D02*
Y7548070D01*
X10721018Y7489015D02*
Y7548070D01*
X10661963Y7489015D02*
Y7548070D01*
X10052317Y7489015D02*
Y7548070D01*
X10111372Y7489015D02*
Y7548070D01*
X11925742Y7489015D02*
Y7548070D01*
X11866687Y7489015D02*
Y7548070D01*
X11257042Y7489015D02*
Y7548070D01*
X11316097Y7489015D02*
Y7548070D01*
X12835191Y7489015D02*
Y7548070D01*
X12776136Y7489015D02*
Y7548070D01*
X12166490Y7489015D02*
Y7548070D01*
X12225545Y7489015D02*
Y7548070D01*
X13744640Y7489015D02*
Y7548070D01*
X13685585Y7489015D02*
Y7548070D01*
X13075939Y7489015D02*
Y7548070D01*
X13134994Y7489015D02*
Y7548070D01*
X14654089Y7489015D02*
Y7548070D01*
X14595034Y7489015D02*
Y7548070D01*
X13985388Y7489015D02*
Y7548070D01*
X14044443Y7489015D02*
Y7548070D01*
X7992671Y6752795D02*
Y6811850D01*
X7933616Y6752795D02*
Y6811850D01*
X7323971Y6752795D02*
Y6811850D01*
X7383026Y6752795D02*
Y6811850D01*
X8902120Y6752795D02*
Y6811850D01*
X8843065Y6752795D02*
Y6811850D01*
X8233419Y6752795D02*
Y6811850D01*
X8292475Y6752795D02*
Y6811850D01*
X9811569Y6752795D02*
Y6811850D01*
X9752514Y6752795D02*
Y6811850D01*
X9142868Y6752795D02*
Y6811850D01*
X9201923Y6752795D02*
Y6811850D01*
X10721018Y6752795D02*
Y6811850D01*
X10661963Y6752795D02*
Y6811850D01*
X10052317Y6752795D02*
Y6811850D01*
X10111372Y6752795D02*
Y6811850D01*
X11925742Y6752795D02*
Y6811850D01*
X11866687Y6752795D02*
Y6811850D01*
X11257042Y6752795D02*
Y6811850D01*
X11316097Y6752795D02*
Y6811850D01*
X12835191Y6752795D02*
Y6811850D01*
X12776136Y6752795D02*
Y6811850D01*
X12166490Y6752795D02*
Y6811850D01*
X12225545Y6752795D02*
Y6811850D01*
X13744640Y6752795D02*
Y6811850D01*
X13685585Y6752795D02*
Y6811850D01*
X13075939Y6752795D02*
Y6811850D01*
X13134994Y6752795D02*
Y6811850D01*
X14654089Y6752795D02*
Y6811850D01*
X14595034Y6752795D02*
Y6811850D01*
X13985388Y6752795D02*
Y6811850D01*
X14044443Y6752795D02*
Y6811850D01*
X7992671Y6016574D02*
Y6075629D01*
X7933616Y6016574D02*
Y6075629D01*
X7323971Y6016574D02*
Y6075629D01*
X7383026Y6016574D02*
Y6075629D01*
X8902120Y6016574D02*
Y6075629D01*
X8843065Y6016574D02*
Y6075629D01*
X8233419Y6016574D02*
Y6075629D01*
X8292475Y6016574D02*
Y6075629D01*
X9811569Y6016574D02*
Y6075629D01*
X9752514Y6016574D02*
Y6075629D01*
X9142868Y6016574D02*
Y6075629D01*
X9201923Y6016574D02*
Y6075629D01*
X10721018Y6016574D02*
Y6075629D01*
X10661963Y6016574D02*
Y6075629D01*
X10052317Y6016574D02*
Y6075629D01*
X10111372Y6016574D02*
Y6075629D01*
X11925742Y6016574D02*
Y6075629D01*
X11866687Y6016574D02*
Y6075629D01*
X11257042Y6016574D02*
Y6075629D01*
X11316097Y6016574D02*
Y6075629D01*
X12835191Y6016574D02*
Y6075629D01*
X12776136Y6016574D02*
Y6075629D01*
X12166490Y6016574D02*
Y6075629D01*
X12225545Y6016574D02*
Y6075629D01*
X13744640Y6016574D02*
Y6075629D01*
X13685585Y6016574D02*
Y6075629D01*
X13075939Y6016574D02*
Y6075629D01*
X13134994Y6016574D02*
Y6075629D01*
X14654089Y6016574D02*
Y6075629D01*
X14595034Y6016574D02*
Y6075629D01*
X13985388Y6016574D02*
Y6075629D01*
X14044443Y6016574D02*
Y6075629D01*
X7992671Y5280354D02*
Y5339409D01*
X7933616Y5280354D02*
Y5339409D01*
X7323971Y5280354D02*
Y5339409D01*
X7383026Y5280354D02*
Y5339409D01*
X8902120Y5280354D02*
Y5339409D01*
X8843065Y5280354D02*
Y5339409D01*
X8233419Y5280354D02*
Y5339409D01*
X8292475Y5280354D02*
Y5339409D01*
X9811569Y5280354D02*
Y5339409D01*
X9752514Y5280354D02*
Y5339409D01*
X9142868Y5280354D02*
Y5339409D01*
X9201923Y5280354D02*
Y5339409D01*
X10721018Y5280354D02*
Y5339409D01*
X10661963Y5280354D02*
Y5339409D01*
X10052317Y5280354D02*
Y5339409D01*
X10111372Y5280354D02*
Y5339409D01*
X11925742Y5280354D02*
Y5339409D01*
X11866687Y5280354D02*
Y5339409D01*
X11257042Y5280354D02*
Y5339409D01*
X11316097Y5280354D02*
Y5339409D01*
X12835191Y5280354D02*
Y5339409D01*
X12776136Y5280354D02*
Y5339409D01*
X12166490Y5280354D02*
Y5339409D01*
X12225545Y5280354D02*
Y5339409D01*
X13744640Y5280354D02*
Y5339409D01*
X13685585Y5280354D02*
Y5339409D01*
X13075939Y5280354D02*
Y5339409D01*
X13134994Y5280354D02*
Y5339409D01*
X14654089Y5280354D02*
Y5339409D01*
X14595034Y5280354D02*
Y5339409D01*
X13985388Y5280354D02*
Y5339409D01*
X14044443Y5280354D02*
Y5339409D01*
X7992671Y4544133D02*
Y4603188D01*
X7933616Y4544133D02*
Y4603188D01*
X7323971Y4544133D02*
Y4603188D01*
X7383026Y4544133D02*
Y4603188D01*
X8902120Y4544133D02*
Y4603188D01*
X8843065Y4544133D02*
Y4603188D01*
X8233419Y4544133D02*
Y4603188D01*
X8292475Y4544133D02*
Y4603188D01*
X9811569Y4544133D02*
Y4603188D01*
X9752514Y4544133D02*
Y4603188D01*
X9142868Y4544133D02*
Y4603188D01*
X9201923Y4544133D02*
Y4603188D01*
X10721018Y4544133D02*
Y4603188D01*
X10661963Y4544133D02*
Y4603188D01*
X10052317Y4544133D02*
Y4603188D01*
X10111372Y4544133D02*
Y4603188D01*
X11925742Y4544133D02*
Y4603188D01*
X11866687Y4544133D02*
Y4603188D01*
X11257042Y4544133D02*
Y4603188D01*
X11316097Y4544133D02*
Y4603188D01*
X12835191Y4544133D02*
Y4603188D01*
X12776136Y4544133D02*
Y4603188D01*
X12166490Y4544133D02*
Y4603188D01*
X12225545Y4544133D02*
Y4603188D01*
X13744640Y4544133D02*
Y4603188D01*
X13685585Y4544133D02*
Y4603188D01*
X13075939Y4544133D02*
Y4603188D01*
X13134994Y4544133D02*
Y4603188D01*
X14654089Y4544133D02*
Y4603188D01*
X14595034Y4544133D02*
Y4603188D01*
X13985388Y4544133D02*
Y4603188D01*
X14044443Y4544133D02*
Y4603188D01*
X7992671Y3866968D02*
Y3807913D01*
X7933616Y3866968D02*
Y3807913D01*
X7323971Y3866968D02*
Y3807913D01*
X7383026Y3866968D02*
Y3807913D01*
X8902120Y3866968D02*
Y3807913D01*
X8843065Y3866968D02*
Y3807913D01*
X8233419Y3866968D02*
Y3807913D01*
X8292475Y3866968D02*
Y3807913D01*
X9811569Y3866968D02*
Y3807913D01*
X9752514Y3866968D02*
Y3807913D01*
X9142868Y3866968D02*
Y3807913D01*
X9201923Y3866968D02*
Y3807913D01*
X10721018Y3866968D02*
Y3807913D01*
X10661963Y3866968D02*
Y3807913D01*
X10052317Y3866968D02*
Y3807913D01*
X10111372Y3866968D02*
Y3807913D01*
X11925742Y3866968D02*
Y3807913D01*
X11866687Y3866968D02*
Y3807913D01*
X11257042Y3866968D02*
Y3807913D01*
X11316097Y3866968D02*
Y3807913D01*
X12835191Y3866968D02*
Y3807913D01*
X12776136Y3866968D02*
Y3807913D01*
X12166490Y3866968D02*
Y3807913D01*
X12225545Y3866968D02*
Y3807913D01*
X13744640Y3866968D02*
Y3807913D01*
X13685585Y3866968D02*
Y3807913D01*
X13075939Y3866968D02*
Y3807913D01*
X13134994Y3866968D02*
Y3807913D01*
X14654089Y3866968D02*
Y3807913D01*
X14595034Y3866968D02*
Y3807913D01*
X13985388Y3866968D02*
Y3807913D01*
X14044443Y3866968D02*
Y3807913D01*
X7016589Y9138621D02*
G03X6977219Y9099251I0J-39370D01*
X14961471Y9138621D02*
G02X15000841Y9099251I0J-39370D01*
Y3729172D02*
G02X14961471Y3689802I-39370J0D01*
X6977219Y3729175D02*
G03X7016589Y3689805I39370J0D01*
M02*
