*
%FSLAX26Y26*%
%MOIN*%
%ADD10C,0.090550*%
%ADD11C,0.039370*%
%ADD12C,0.120079*%
%ADD13C,0.010000*%
%IPPOS*%
%LNset.gtp*%
%LPD*%
G75*
G54D10*
X7997879Y4384373D02*
Y4419803D01*
X8000839Y4187523D02*
Y4222953D01*
X8000619Y3990453D02*
Y4025883D01*
G54D11*
X7909469Y4088028D03*
X7803239Y4077118D03*
X7691519Y3969748D03*
X7872369Y4406488D03*
X7684839Y4227248D03*
X7682039Y4384718D03*
X7896639Y4216948D03*
G54D10*
X7997879Y5120593D02*
Y5156023D01*
X8000839Y4923743D02*
Y4959173D01*
X8000619Y4726673D02*
Y4762103D01*
G54D11*
X7909469Y4824248D03*
X7803239Y4813338D03*
X7691519Y4705968D03*
X7872369Y5142708D03*
X7684839Y4963468D03*
X7682039Y5120938D03*
X7896639Y4953168D03*
G54D10*
X7997879Y5856814D02*
Y5892244D01*
X8000839Y5659964D02*
Y5695394D01*
X8000619Y5462894D02*
Y5498324D01*
G54D11*
X7909469Y5560469D03*
X7803239Y5549559D03*
X7691519Y5442189D03*
X7872369Y5878929D03*
X7684839Y5699689D03*
X7682039Y5857159D03*
X7896639Y5689389D03*
G54D10*
X7997879Y6593034D02*
Y6628464D01*
X8000839Y6396184D02*
Y6431614D01*
X8000619Y6199114D02*
Y6234544D01*
G54D11*
X7909469Y6296689D03*
X7803239Y6285779D03*
X7691519Y6178409D03*
X7872369Y6615149D03*
X7684839Y6435909D03*
X7682039Y6593379D03*
X7896639Y6425609D03*
G54D10*
X7997879Y7329255D02*
Y7364685D01*
X8000839Y7132405D02*
Y7167835D01*
X8000619Y6935335D02*
Y6970765D01*
G54D11*
X7909469Y7032910D03*
X7803239Y7022000D03*
X7691519Y6914630D03*
X7872369Y7351370D03*
X7684839Y7172130D03*
X7682039Y7329600D03*
X7896639Y7161830D03*
G54D10*
X7997879Y8065475D02*
Y8100905D01*
X8000839Y7868625D02*
Y7904055D01*
X8000619Y7671555D02*
Y7706985D01*
G54D11*
X7909469Y7769130D03*
X7803239Y7758220D03*
X7691519Y7650850D03*
X7872369Y8087590D03*
X7684839Y7908350D03*
X7682039Y8065820D03*
X7896639Y7898050D03*
G54D10*
X7997879Y8801696D02*
Y8837126D01*
X8000839Y8604846D02*
Y8640276D01*
X8000619Y8407776D02*
Y8443206D01*
G54D11*
X7909469Y8505351D03*
X7803239Y8494441D03*
X7691519Y8387071D03*
X7872369Y8823811D03*
X7684839Y8644571D03*
X7682039Y8802041D03*
X7896639Y8634271D03*
G54D10*
X8907328Y4384373D02*
Y4419803D01*
X8910288Y4187523D02*
Y4222953D01*
X8910068Y3990453D02*
Y4025883D01*
G54D11*
X8818918Y4088028D03*
X8712688Y4077118D03*
X8600968Y3969748D03*
X8781818Y4406488D03*
X8594288Y4227248D03*
X8591488Y4384718D03*
X8806088Y4216948D03*
G54D10*
X8907328Y5120593D02*
Y5156023D01*
X8910288Y4923743D02*
Y4959173D01*
X8910068Y4726673D02*
Y4762103D01*
G54D11*
X8818918Y4824248D03*
X8712688Y4813338D03*
X8600968Y4705968D03*
X8781818Y5142708D03*
X8594288Y4963468D03*
X8591488Y5120938D03*
X8806088Y4953168D03*
G54D10*
X8907328Y5856814D02*
Y5892244D01*
X8910288Y5659964D02*
Y5695394D01*
X8910068Y5462894D02*
Y5498324D01*
G54D11*
X8818918Y5560469D03*
X8712688Y5549559D03*
X8600968Y5442189D03*
X8781818Y5878929D03*
X8594288Y5699689D03*
X8591488Y5857159D03*
X8806088Y5689389D03*
G54D10*
X8907328Y6593034D02*
Y6628464D01*
X8910288Y6396184D02*
Y6431614D01*
X8910068Y6199114D02*
Y6234544D01*
G54D11*
X8818918Y6296689D03*
X8712688Y6285779D03*
X8600968Y6178409D03*
X8781818Y6615149D03*
X8594288Y6435909D03*
X8591488Y6593379D03*
X8806088Y6425609D03*
G54D10*
X8907328Y7329255D02*
Y7364685D01*
X8910288Y7132405D02*
Y7167835D01*
X8910068Y6935335D02*
Y6970765D01*
G54D11*
X8818918Y7032910D03*
X8712688Y7022000D03*
X8600968Y6914630D03*
X8781818Y7351370D03*
X8594288Y7172130D03*
X8591488Y7329600D03*
X8806088Y7161830D03*
G54D10*
X8907328Y8065475D02*
Y8100905D01*
X8910288Y7868625D02*
Y7904055D01*
X8910068Y7671555D02*
Y7706985D01*
G54D11*
X8818918Y7769130D03*
X8712688Y7758220D03*
X8600968Y7650850D03*
X8781818Y8087590D03*
X8594288Y7908350D03*
X8591488Y8065820D03*
X8806088Y7898050D03*
G54D10*
X8907328Y8801696D02*
Y8837126D01*
X8910288Y8604846D02*
Y8640276D01*
X8910068Y8407776D02*
Y8443206D01*
G54D11*
X8818918Y8505351D03*
X8712688Y8494441D03*
X8600968Y8387071D03*
X8781818Y8823811D03*
X8594288Y8644571D03*
X8591488Y8802041D03*
X8806088Y8634271D03*
G54D10*
X9816777Y4384373D02*
Y4419803D01*
X9819737Y4187523D02*
Y4222953D01*
X9819517Y3990453D02*
Y4025883D01*
G54D11*
X9728367Y4088028D03*
X9622137Y4077118D03*
X9510417Y3969748D03*
X9691267Y4406488D03*
X9503737Y4227248D03*
X9500937Y4384718D03*
X9715537Y4216948D03*
G54D10*
X9816777Y5120593D02*
Y5156023D01*
X9819737Y4923743D02*
Y4959173D01*
X9819517Y4726673D02*
Y4762103D01*
G54D11*
X9728367Y4824248D03*
X9622137Y4813338D03*
X9510417Y4705968D03*
X9691267Y5142708D03*
X9503737Y4963468D03*
X9500937Y5120938D03*
X9715537Y4953168D03*
G54D10*
X9816777Y5856814D02*
Y5892244D01*
X9819737Y5659964D02*
Y5695394D01*
X9819517Y5462894D02*
Y5498324D01*
G54D11*
X9728367Y5560469D03*
X9622137Y5549559D03*
X9510417Y5442189D03*
X9691267Y5878929D03*
X9503737Y5699689D03*
X9500937Y5857159D03*
X9715537Y5689389D03*
G54D10*
X9816777Y6593034D02*
Y6628464D01*
X9819737Y6396184D02*
Y6431614D01*
X9819517Y6199114D02*
Y6234544D01*
G54D11*
X9728367Y6296689D03*
X9622137Y6285779D03*
X9510417Y6178409D03*
X9691267Y6615149D03*
X9503737Y6435909D03*
X9500937Y6593379D03*
X9715537Y6425609D03*
G54D10*
X9816777Y7329255D02*
Y7364685D01*
X9819737Y7132405D02*
Y7167835D01*
X9819517Y6935335D02*
Y6970765D01*
G54D11*
X9728367Y7032910D03*
X9622137Y7022000D03*
X9510417Y6914630D03*
X9691267Y7351370D03*
X9503737Y7172130D03*
X9500937Y7329600D03*
X9715537Y7161830D03*
G54D10*
X9816777Y8065475D02*
Y8100905D01*
X9819737Y7868625D02*
Y7904055D01*
X9819517Y7671555D02*
Y7706985D01*
G54D11*
X9728367Y7769130D03*
X9622137Y7758220D03*
X9510417Y7650850D03*
X9691267Y8087590D03*
X9503737Y7908350D03*
X9500937Y8065820D03*
X9715537Y7898050D03*
G54D10*
X9816777Y8801696D02*
Y8837126D01*
X9819737Y8604846D02*
Y8640276D01*
X9819517Y8407776D02*
Y8443206D01*
G54D11*
X9728367Y8505351D03*
X9622137Y8494441D03*
X9510417Y8387071D03*
X9691267Y8823811D03*
X9503737Y8644571D03*
X9500937Y8802041D03*
X9715537Y8634271D03*
G54D10*
X10726226Y4384373D02*
Y4419803D01*
X10729186Y4187523D02*
Y4222953D01*
X10728966Y3990453D02*
Y4025883D01*
G54D11*
X10637816Y4088028D03*
X10531586Y4077118D03*
X10419866Y3969748D03*
X10600716Y4406488D03*
X10413186Y4227248D03*
X10410386Y4384718D03*
X10624986Y4216948D03*
G54D10*
X10726226Y5120593D02*
Y5156023D01*
X10729186Y4923743D02*
Y4959173D01*
X10728966Y4726673D02*
Y4762103D01*
G54D11*
X10637816Y4824248D03*
X10531586Y4813338D03*
X10419866Y4705968D03*
X10600716Y5142708D03*
X10413186Y4963468D03*
X10410386Y5120938D03*
X10624986Y4953168D03*
G54D10*
X10726226Y5856814D02*
Y5892244D01*
X10729186Y5659964D02*
Y5695394D01*
X10728966Y5462894D02*
Y5498324D01*
G54D11*
X10637816Y5560469D03*
X10531586Y5549559D03*
X10419866Y5442189D03*
X10600716Y5878929D03*
X10413186Y5699689D03*
X10410386Y5857159D03*
X10624986Y5689389D03*
G54D10*
X10726226Y6593034D02*
Y6628464D01*
X10729186Y6396184D02*
Y6431614D01*
X10728966Y6199114D02*
Y6234544D01*
G54D11*
X10637816Y6296689D03*
X10531586Y6285779D03*
X10419866Y6178409D03*
X10600716Y6615149D03*
X10413186Y6435909D03*
X10410386Y6593379D03*
X10624986Y6425609D03*
G54D10*
X10726226Y7329255D02*
Y7364685D01*
X10729186Y7132405D02*
Y7167835D01*
X10728966Y6935335D02*
Y6970765D01*
G54D11*
X10637816Y7032910D03*
X10531586Y7022000D03*
X10419866Y6914630D03*
X10600716Y7351370D03*
X10413186Y7172130D03*
X10410386Y7329600D03*
X10624986Y7161830D03*
G54D10*
X10726226Y8065475D02*
Y8100905D01*
X10729186Y7868625D02*
Y7904055D01*
X10728966Y7671555D02*
Y7706985D01*
G54D11*
X10637816Y7769130D03*
X10531586Y7758220D03*
X10419866Y7650850D03*
X10600716Y8087590D03*
X10413186Y7908350D03*
X10410386Y8065820D03*
X10624986Y7898050D03*
G54D10*
X10726226Y8801696D02*
Y8837126D01*
X10729186Y8604846D02*
Y8640276D01*
X10728966Y8407776D02*
Y8443206D01*
G54D11*
X10637816Y8505351D03*
X10531586Y8494441D03*
X10419866Y8387071D03*
X10600716Y8823811D03*
X10413186Y8644571D03*
X10410386Y8802041D03*
X10624986Y8634271D03*
G54D10*
X11930950Y4384373D02*
Y4419803D01*
X11933910Y4187523D02*
Y4222953D01*
X11933690Y3990453D02*
Y4025883D01*
G54D11*
X11842540Y4088028D03*
X11736310Y4077118D03*
X11624590Y3969748D03*
X11805440Y4406488D03*
X11617910Y4227248D03*
X11615110Y4384718D03*
X11829710Y4216948D03*
G54D10*
X11930950Y5120593D02*
Y5156023D01*
X11933910Y4923743D02*
Y4959173D01*
X11933690Y4726673D02*
Y4762103D01*
G54D11*
X11842540Y4824248D03*
X11736310Y4813338D03*
X11624590Y4705968D03*
X11805440Y5142708D03*
X11617910Y4963468D03*
X11615110Y5120938D03*
X11829710Y4953168D03*
G54D10*
X11930950Y5856814D02*
Y5892244D01*
X11933910Y5659964D02*
Y5695394D01*
X11933690Y5462894D02*
Y5498324D01*
G54D11*
X11842540Y5560469D03*
X11736310Y5549559D03*
X11624590Y5442189D03*
X11805440Y5878929D03*
X11617910Y5699689D03*
X11615110Y5857159D03*
X11829710Y5689389D03*
G54D10*
X11930950Y6593034D02*
Y6628464D01*
X11933910Y6396184D02*
Y6431614D01*
X11933690Y6199114D02*
Y6234544D01*
G54D11*
X11842540Y6296689D03*
X11736310Y6285779D03*
X11624590Y6178409D03*
X11805440Y6615149D03*
X11617910Y6435909D03*
X11615110Y6593379D03*
X11829710Y6425609D03*
G54D10*
X11930950Y7329255D02*
Y7364685D01*
X11933910Y7132405D02*
Y7167835D01*
X11933690Y6935335D02*
Y6970765D01*
G54D11*
X11842540Y7032910D03*
X11736310Y7022000D03*
X11624590Y6914630D03*
X11805440Y7351370D03*
X11617910Y7172130D03*
X11615110Y7329600D03*
X11829710Y7161830D03*
G54D10*
X11930950Y8065475D02*
Y8100905D01*
X11933910Y7868625D02*
Y7904055D01*
X11933690Y7671555D02*
Y7706985D01*
G54D11*
X11842540Y7769130D03*
X11736310Y7758220D03*
X11624590Y7650850D03*
X11805440Y8087590D03*
X11617910Y7908350D03*
X11615110Y8065820D03*
X11829710Y7898050D03*
G54D10*
X11930950Y8801696D02*
Y8837126D01*
X11933910Y8604846D02*
Y8640276D01*
X11933690Y8407776D02*
Y8443206D01*
G54D11*
X11842540Y8505351D03*
X11736310Y8494441D03*
X11624590Y8387071D03*
X11805440Y8823811D03*
X11617910Y8644571D03*
X11615110Y8802041D03*
X11829710Y8634271D03*
G54D10*
X12840399Y4384373D02*
Y4419803D01*
X12843359Y4187523D02*
Y4222953D01*
X12843139Y3990453D02*
Y4025883D01*
G54D11*
X12751989Y4088028D03*
X12645759Y4077118D03*
X12534039Y3969748D03*
X12714889Y4406488D03*
X12527359Y4227248D03*
X12524559Y4384718D03*
X12739159Y4216948D03*
G54D10*
X12840399Y5120593D02*
Y5156023D01*
X12843359Y4923743D02*
Y4959173D01*
X12843139Y4726673D02*
Y4762103D01*
G54D11*
X12751989Y4824248D03*
X12645759Y4813338D03*
X12534039Y4705968D03*
X12714889Y5142708D03*
X12527359Y4963468D03*
X12524559Y5120938D03*
X12739159Y4953168D03*
G54D10*
X12840399Y5856814D02*
Y5892244D01*
X12843359Y5659964D02*
Y5695394D01*
X12843139Y5462894D02*
Y5498324D01*
G54D11*
X12751989Y5560469D03*
X12645759Y5549559D03*
X12534039Y5442189D03*
X12714889Y5878929D03*
X12527359Y5699689D03*
X12524559Y5857159D03*
X12739159Y5689389D03*
G54D10*
X12840399Y6593034D02*
Y6628464D01*
X12843359Y6396184D02*
Y6431614D01*
X12843139Y6199114D02*
Y6234544D01*
G54D11*
X12751989Y6296689D03*
X12645759Y6285779D03*
X12534039Y6178409D03*
X12714889Y6615149D03*
X12527359Y6435909D03*
X12524559Y6593379D03*
X12739159Y6425609D03*
G54D10*
X12840399Y7329255D02*
Y7364685D01*
X12843359Y7132405D02*
Y7167835D01*
X12843139Y6935335D02*
Y6970765D01*
G54D11*
X12751989Y7032910D03*
X12645759Y7022000D03*
X12534039Y6914630D03*
X12714889Y7351370D03*
X12527359Y7172130D03*
X12524559Y7329600D03*
X12739159Y7161830D03*
G54D10*
X12840399Y8065475D02*
Y8100905D01*
X12843359Y7868625D02*
Y7904055D01*
X12843139Y7671555D02*
Y7706985D01*
G54D11*
X12751989Y7769130D03*
X12645759Y7758220D03*
X12534039Y7650850D03*
X12714889Y8087590D03*
X12527359Y7908350D03*
X12524559Y8065820D03*
X12739159Y7898050D03*
G54D10*
X12840399Y8801696D02*
Y8837126D01*
X12843359Y8604846D02*
Y8640276D01*
X12843139Y8407776D02*
Y8443206D01*
G54D11*
X12751989Y8505351D03*
X12645759Y8494441D03*
X12534039Y8387071D03*
X12714889Y8823811D03*
X12527359Y8644571D03*
X12524559Y8802041D03*
X12739159Y8634271D03*
G54D10*
X13749848Y4384373D02*
Y4419803D01*
X13752808Y4187523D02*
Y4222953D01*
X13752588Y3990453D02*
Y4025883D01*
G54D11*
X13661438Y4088028D03*
X13555208Y4077118D03*
X13443488Y3969748D03*
X13624338Y4406488D03*
X13436808Y4227248D03*
X13434008Y4384718D03*
X13648608Y4216948D03*
G54D10*
X13749848Y5120593D02*
Y5156023D01*
X13752808Y4923743D02*
Y4959173D01*
X13752588Y4726673D02*
Y4762103D01*
G54D11*
X13661438Y4824248D03*
X13555208Y4813338D03*
X13443488Y4705968D03*
X13624338Y5142708D03*
X13436808Y4963468D03*
X13434008Y5120938D03*
X13648608Y4953168D03*
G54D10*
X13749848Y5856814D02*
Y5892244D01*
X13752808Y5659964D02*
Y5695394D01*
X13752588Y5462894D02*
Y5498324D01*
G54D11*
X13661438Y5560469D03*
X13555208Y5549559D03*
X13443488Y5442189D03*
X13624338Y5878929D03*
X13436808Y5699689D03*
X13434008Y5857159D03*
X13648608Y5689389D03*
G54D10*
X13749848Y6593034D02*
Y6628464D01*
X13752808Y6396184D02*
Y6431614D01*
X13752588Y6199114D02*
Y6234544D01*
G54D11*
X13661438Y6296689D03*
X13555208Y6285779D03*
X13443488Y6178409D03*
X13624338Y6615149D03*
X13436808Y6435909D03*
X13434008Y6593379D03*
X13648608Y6425609D03*
G54D10*
X13749848Y7329255D02*
Y7364685D01*
X13752808Y7132405D02*
Y7167835D01*
X13752588Y6935335D02*
Y6970765D01*
G54D11*
X13661438Y7032910D03*
X13555208Y7022000D03*
X13443488Y6914630D03*
X13624338Y7351370D03*
X13436808Y7172130D03*
X13434008Y7329600D03*
X13648608Y7161830D03*
G54D10*
X13749848Y8065475D02*
Y8100905D01*
X13752808Y7868625D02*
Y7904055D01*
X13752588Y7671555D02*
Y7706985D01*
G54D11*
X13661438Y7769130D03*
X13555208Y7758220D03*
X13443488Y7650850D03*
X13624338Y8087590D03*
X13436808Y7908350D03*
X13434008Y8065820D03*
X13648608Y7898050D03*
G54D10*
X13749848Y8801696D02*
Y8837126D01*
X13752808Y8604846D02*
Y8640276D01*
X13752588Y8407776D02*
Y8443206D01*
G54D11*
X13661438Y8505351D03*
X13555208Y8494441D03*
X13443488Y8387071D03*
X13624338Y8823811D03*
X13436808Y8644571D03*
X13434008Y8802041D03*
X13648608Y8634271D03*
G54D10*
X14659297Y4384373D02*
Y4419803D01*
X14662257Y4187523D02*
Y4222953D01*
X14662037Y3990453D02*
Y4025883D01*
G54D11*
X14570887Y4088028D03*
X14464657Y4077118D03*
X14352937Y3969748D03*
X14533787Y4406488D03*
X14346257Y4227248D03*
X14343457Y4384718D03*
X14558057Y4216948D03*
G54D10*
X14659297Y5120593D02*
Y5156023D01*
X14662257Y4923743D02*
Y4959173D01*
X14662037Y4726673D02*
Y4762103D01*
G54D11*
X14570887Y4824248D03*
X14464657Y4813338D03*
X14352937Y4705968D03*
X14533787Y5142708D03*
X14346257Y4963468D03*
X14343457Y5120938D03*
X14558057Y4953168D03*
G54D10*
X14659297Y5856814D02*
Y5892244D01*
X14662257Y5659964D02*
Y5695394D01*
X14662037Y5462894D02*
Y5498324D01*
G54D11*
X14570887Y5560469D03*
X14464657Y5549559D03*
X14352937Y5442189D03*
X14533787Y5878929D03*
X14346257Y5699689D03*
X14343457Y5857159D03*
X14558057Y5689389D03*
G54D10*
X14659297Y6593034D02*
Y6628464D01*
X14662257Y6396184D02*
Y6431614D01*
X14662037Y6199114D02*
Y6234544D01*
G54D11*
X14570887Y6296689D03*
X14464657Y6285779D03*
X14352937Y6178409D03*
X14533787Y6615149D03*
X14346257Y6435909D03*
X14343457Y6593379D03*
X14558057Y6425609D03*
G54D10*
X14659297Y7329255D02*
Y7364685D01*
X14662257Y7132405D02*
Y7167835D01*
X14662037Y6935335D02*
Y6970765D01*
G54D11*
X14570887Y7032910D03*
X14464657Y7022000D03*
X14352937Y6914630D03*
X14533787Y7351370D03*
X14346257Y7172130D03*
X14343457Y7329600D03*
X14558057Y7161830D03*
G54D10*
X14659297Y8065475D02*
Y8100905D01*
X14662257Y7868625D02*
Y7904055D01*
X14662037Y7671555D02*
Y7706985D01*
G54D11*
X14570887Y7769130D03*
X14464657Y7758220D03*
X14352937Y7650850D03*
X14533787Y8087590D03*
X14346257Y7908350D03*
X14343457Y8065820D03*
X14558057Y7898050D03*
G54D10*
X14659297Y8801696D02*
Y8837126D01*
X14662257Y8604846D02*
Y8640276D01*
X14662037Y8407776D02*
Y8443206D01*
G54D11*
X14570887Y8505351D03*
X14464657Y8494441D03*
X14352937Y8387071D03*
X14533787Y8823811D03*
X14346257Y8644571D03*
X14343457Y8802041D03*
X14558057Y8634271D03*
X7075644Y4280425D03*
X14902416Y4280442D03*
Y8351388D03*
X7075644Y4280425D03*
X14902416Y4280442D03*
Y8351388D03*
G54D12*
X7075644Y3886725D03*
X14902416Y8941939D03*
Y3886741D03*
G54D13*
X15000841Y8649445D02*
Y8055407D01*
X8066861Y8555569D02*
G03X8066861Y8493327I4845J-31121D01*
X8083518Y8473876D02*
G03X8066861Y8493327I-19685J0D01*
X8083518Y8473876D02*
G01Y8343346D01*
X8024463Y8284291D02*
G03X8083518Y8343346I0J59055D01*
X7907534Y8284291D02*
G01X8024463D01*
X7899660Y8292165D02*
G03X7907534Y8284291I7874J0D01*
X7899660Y8292165D02*
G01Y8357125D01*
G03X7891786Y8364999I-7874J0D01*
G01X7765801D01*
G03X7757927Y8357125I0J-7874D01*
G01Y8292165D01*
X7750053Y8284291D02*
G03X7757927Y8292165I0J7874D01*
X7292179Y8284291D02*
G01X7750053D01*
X7233124Y8343346D02*
G03X7292179Y8284291I59055J0D01*
X7233124Y8902401D02*
G01Y8343346D01*
X7292179Y8961456D02*
G03X7233124Y8902401I0J-59055D01*
X7757927Y8953582D02*
G03X7750053Y8961456I-7874J0D01*
X7757927Y8888621D02*
G01Y8953582D01*
Y8888621D02*
G03X7765801Y8880747I7874J0D01*
X7891786D02*
G01X7765801D01*
X7891786D02*
G03X7899660Y8888621I0J7874D01*
Y8953582D02*
G01Y8888621D01*
X7907534Y8961456D02*
G03X7899660Y8953582I0J-7874D01*
X8024463Y8961456D02*
G01X7907534D01*
X8083518Y8902401D02*
G03X8024463Y8961456I-59055J0D01*
X8083518Y8902401D02*
G01Y8771870D01*
X8066861Y8752420D02*
G03X8083518Y8771870I-3029J19451D01*
X8066861Y8752420D02*
G03X8066861Y8690177I4845J-31121D01*
X8083518Y8670727D02*
G03X8066861Y8690177I-19685J0D01*
X8083518Y8670727D02*
G01Y8575020D01*
X8066861Y8555569D02*
G03X8083518Y8575020I-3029J19451D01*
X7750053Y8961456D02*
G01X7292179D01*
X8976310Y8555569D02*
G03X8976310Y8493327I4845J-31121D01*
X8992967Y8473876D02*
G03X8976310Y8493327I-19685J0D01*
X8992967Y8473876D02*
G01Y8343346D01*
X8933912Y8284291D02*
G03X8992967Y8343346I0J59055D01*
X8816982Y8284291D02*
G01X8933912D01*
X8809108Y8292165D02*
G03X8816982Y8284291I7874J0D01*
X8809108Y8292165D02*
G01Y8357125D01*
G03X8801234Y8364999I-7874J0D01*
G01X8675250D01*
G03X8667376Y8357125I0J-7874D01*
G01Y8292165D01*
X8659502Y8284291D02*
G03X8667376Y8292165I0J7874D01*
X8201628Y8284291D02*
G01X8659502D01*
X8142573Y8343346D02*
G03X8201628Y8284291I59055J0D01*
X8142573Y8902401D02*
G01Y8343346D01*
X8201628Y8961456D02*
G03X8142573Y8902401I0J-59055D01*
X8667376Y8953582D02*
G03X8659502Y8961456I-7874J0D01*
X8667376Y8888621D02*
G01Y8953582D01*
Y8888621D02*
G03X8675250Y8880747I7874J0D01*
X8801234D02*
G01X8675250D01*
X8801234D02*
G03X8809108Y8888621I0J7874D01*
Y8953582D02*
G01Y8888621D01*
X8816982Y8961456D02*
G03X8809108Y8953582I0J-7874D01*
X8933912Y8961456D02*
G01X8816982D01*
X8992967Y8902401D02*
G03X8933912Y8961456I-59055J0D01*
X8992967Y8902401D02*
G01Y8771870D01*
X8976310Y8752420D02*
G03X8992967Y8771870I-3029J19451D01*
X8976310Y8752420D02*
G03X8976310Y8690177I4845J-31121D01*
X8992967Y8670727D02*
G03X8976310Y8690177I-19685J0D01*
X8992967Y8670727D02*
G01Y8575020D01*
X8976310Y8555569D02*
G03X8992967Y8575020I-3029J19451D01*
X8659502Y8961456D02*
G01X8201628D01*
X9885759Y8555569D02*
G03X9885759Y8493327I4845J-31121D01*
X9902416Y8473876D02*
G03X9885759Y8493327I-19685J0D01*
X9902416Y8473876D02*
G01Y8343346D01*
X9843360Y8284291D02*
G03X9902416Y8343346I0J59055D01*
X9726431Y8284291D02*
G01X9843360D01*
X9718557Y8292165D02*
G03X9726431Y8284291I7874J0D01*
X9718557Y8292165D02*
G01Y8357125D01*
G03X9710683Y8364999I-7874J0D01*
G01X9584699D01*
G03X9576825Y8357125I0J-7874D01*
G01Y8292165D01*
X9568951Y8284291D02*
G03X9576825Y8292165I0J7874D01*
X9111077Y8284291D02*
G01X9568951D01*
X9052022Y8343346D02*
G03X9111077Y8284291I59055J0D01*
X9052022Y8902401D02*
G01Y8343346D01*
X9111077Y8961456D02*
G03X9052022Y8902401I0J-59055D01*
X9576825Y8953582D02*
G03X9568951Y8961456I-7874J0D01*
X9576825Y8888621D02*
G01Y8953582D01*
Y8888621D02*
G03X9584699Y8880747I7874J0D01*
X9710683D02*
G01X9584699D01*
X9710683D02*
G03X9718557Y8888621I0J7874D01*
Y8953582D02*
G01Y8888621D01*
X9726431Y8961456D02*
G03X9718557Y8953582I0J-7874D01*
X9843360Y8961456D02*
G01X9726431D01*
X9902416Y8902401D02*
G03X9843360Y8961456I-59055J0D01*
X9902416Y8902401D02*
G01Y8771870D01*
X9885759Y8752420D02*
G03X9902416Y8771870I-3029J19451D01*
X9885759Y8752420D02*
G03X9885759Y8690177I4845J-31121D01*
X9902416Y8670727D02*
G03X9885759Y8690177I-19685J0D01*
X9902416Y8670727D02*
G01Y8575020D01*
X9885759Y8555569D02*
G03X9902416Y8575020I-3029J19451D01*
X9568951Y8961456D02*
G01X9111077D01*
X10795208Y8555569D02*
G03X10795208Y8493327I4845J-31121D01*
X10811864Y8473876D02*
G03X10795208Y8493327I-19685J0D01*
X10811864Y8473876D02*
G01Y8343346D01*
X10752809Y8284291D02*
G03X10811864Y8343346I0J59055D01*
X10635880Y8284291D02*
G01X10752809D01*
X10628006Y8292165D02*
G03X10635880Y8284291I7874J0D01*
X10628006Y8292165D02*
G01Y8357125D01*
G03X10620132Y8364999I-7874J0D01*
G01X10494148D01*
G03X10486274Y8357125I0J-7874D01*
G01Y8292165D01*
X10478400Y8284291D02*
G03X10486274Y8292165I0J7874D01*
X10020526Y8284291D02*
G01X10478400D01*
X9961471Y8343346D02*
G03X10020526Y8284291I59055J0D01*
X9961471Y8902401D02*
G01Y8343346D01*
X10020526Y8961456D02*
G03X9961471Y8902401I0J-59055D01*
X10486274Y8953582D02*
G03X10478400Y8961456I-7874J0D01*
X10486274Y8888621D02*
G01Y8953582D01*
Y8888621D02*
G03X10494148Y8880747I7874J0D01*
X10620132D02*
G01X10494148D01*
X10620132D02*
G03X10628006Y8888621I0J7874D01*
Y8953582D02*
G01Y8888621D01*
X10635880Y8961456D02*
G03X10628006Y8953582I0J-7874D01*
X10752809Y8961456D02*
G01X10635880D01*
X10811864Y8902401D02*
G03X10752809Y8961456I-59055J0D01*
X10811864Y8902401D02*
G01Y8771870D01*
X10795208Y8752420D02*
G03X10811864Y8771870I-3029J19451D01*
X10795208Y8752420D02*
G03X10795208Y8690177I4845J-31121D01*
X10811864Y8670727D02*
G03X10795208Y8690177I-19685J0D01*
X10811864Y8670727D02*
G01Y8575020D01*
X10795208Y8555569D02*
G03X10811864Y8575020I-3029J19451D01*
X10478400Y8961456D02*
G01X10020526D01*
X11999932Y8555569D02*
G03X11999932Y8493327I4845J-31121D01*
X12016589Y8473876D02*
G03X11999932Y8493327I-19685J0D01*
X12016589Y8473876D02*
G01Y8343346D01*
X11957534Y8284291D02*
G03X12016589Y8343346I0J59055D01*
X11840605Y8284291D02*
G01X11957534D01*
X11832731Y8292165D02*
G03X11840605Y8284291I7874J0D01*
X11832731Y8292165D02*
G01Y8357125D01*
G03X11824856Y8364999I-7874J0D01*
G01X11698872D01*
G03X11690998Y8357125I0J-7874D01*
G01Y8292165D01*
X11683124Y8284291D02*
G03X11690998Y8292165I0J7874D01*
X11225250Y8284291D02*
G01X11683124D01*
X11166195Y8343346D02*
G03X11225250Y8284291I59055J0D01*
X11166195Y8902401D02*
G01Y8343346D01*
X11225250Y8961456D02*
G03X11166195Y8902401I0J-59055D01*
X11690998Y8953582D02*
G03X11683124Y8961456I-7874J0D01*
X11690998Y8888621D02*
G01Y8953582D01*
Y8888621D02*
G03X11698872Y8880747I7874J0D01*
X11824856D02*
G01X11698872D01*
X11824856D02*
G03X11832731Y8888621I0J7874D01*
Y8953582D02*
G01Y8888621D01*
X11840605Y8961456D02*
G03X11832731Y8953582I0J-7874D01*
X11957534Y8961456D02*
G01X11840605D01*
X12016589Y8902401D02*
G03X11957534Y8961456I-59055J0D01*
X12016589Y8902401D02*
G01Y8771870D01*
X11999932Y8752420D02*
G03X12016589Y8771870I-3029J19451D01*
X11999932Y8752420D02*
G03X11999932Y8690177I4845J-31121D01*
X12016589Y8670727D02*
G03X11999932Y8690177I-19685J0D01*
X12016589Y8670727D02*
G01Y8575020D01*
X11999932Y8555569D02*
G03X12016589Y8575020I-3029J19451D01*
X11683124Y8961456D02*
G01X11225250D01*
X12909381Y8555569D02*
G03X12909381Y8493327I4845J-31121D01*
X12926038Y8473876D02*
G03X12909381Y8493327I-19685J0D01*
X12926038Y8473876D02*
G01Y8343346D01*
X12866982Y8284291D02*
G03X12926038Y8343346I0J59055D01*
X12750053Y8284291D02*
G01X12866982D01*
X12742179Y8292165D02*
G03X12750053Y8284291I7874J0D01*
X12742179Y8292165D02*
G01Y8357125D01*
G03X12734305Y8364999I-7874J0D01*
G01X12608321D01*
G03X12600447Y8357125I0J-7874D01*
G01Y8292165D01*
X12592573Y8284291D02*
G03X12600447Y8292165I0J7874D01*
X12134699Y8284291D02*
G01X12592573D01*
X12075644Y8343346D02*
G03X12134699Y8284291I59055J0D01*
X12075644Y8902401D02*
G01Y8343346D01*
X12134699Y8961456D02*
G03X12075644Y8902401I0J-59055D01*
X12600447Y8953582D02*
G03X12592573Y8961456I-7874J0D01*
X12600447Y8888621D02*
G01Y8953582D01*
Y8888621D02*
G03X12608321Y8880747I7874J0D01*
X12734305D02*
G01X12608321D01*
X12734305D02*
G03X12742179Y8888621I0J7874D01*
Y8953582D02*
G01Y8888621D01*
X12750053Y8961456D02*
G03X12742179Y8953582I0J-7874D01*
X12866982Y8961456D02*
G01X12750053D01*
X12926038Y8902401D02*
G03X12866982Y8961456I-59055J0D01*
X12926038Y8902401D02*
G01Y8771870D01*
X12909381Y8752420D02*
G03X12926038Y8771870I-3029J19451D01*
X12909381Y8752420D02*
G03X12909381Y8690177I4845J-31121D01*
X12926038Y8670727D02*
G03X12909381Y8690177I-19685J0D01*
X12926038Y8670727D02*
G01Y8575020D01*
X12909381Y8555569D02*
G03X12926038Y8575020I-3029J19451D01*
X12592573Y8961456D02*
G01X12134699D01*
X13818830Y8555569D02*
G03X13818830Y8493327I4845J-31121D01*
X13835486Y8473876D02*
G03X13818830Y8493327I-19685J0D01*
X13835486Y8473876D02*
G01Y8343346D01*
X13776431Y8284291D02*
G03X13835486Y8343346I0J59055D01*
X13659502Y8284291D02*
G01X13776431D01*
X13651628Y8292165D02*
G03X13659502Y8284291I7874J0D01*
X13651628Y8292165D02*
G01Y8357125D01*
G03X13643754Y8364999I-7874J0D01*
G01X13517770D01*
G03X13509896Y8357125I0J-7874D01*
G01Y8292165D01*
X13502022Y8284291D02*
G03X13509896Y8292165I0J7874D01*
X13044148Y8284291D02*
G01X13502022D01*
X12985093Y8343346D02*
G03X13044148Y8284291I59055J0D01*
X12985093Y8902401D02*
G01Y8343346D01*
X13044148Y8961456D02*
G03X12985093Y8902401I0J-59055D01*
X13509896Y8953582D02*
G03X13502022Y8961456I-7874J0D01*
X13509896Y8888621D02*
G01Y8953582D01*
Y8888621D02*
G03X13517770Y8880747I7874J0D01*
X13643754D02*
G01X13517770D01*
X13643754D02*
G03X13651628Y8888621I0J7874D01*
Y8953582D02*
G01Y8888621D01*
X13659502Y8961456D02*
G03X13651628Y8953582I0J-7874D01*
X13776431Y8961456D02*
G01X13659502D01*
X13835486Y8902401D02*
G03X13776431Y8961456I-59055J0D01*
X13835486Y8902401D02*
G01Y8771870D01*
X13818830Y8752420D02*
G03X13835486Y8771870I-3029J19451D01*
X13818830Y8752420D02*
G03X13818830Y8690177I4845J-31121D01*
X13835486Y8670727D02*
G03X13818830Y8690177I-19685J0D01*
X13835486Y8670727D02*
G01Y8575020D01*
X13818830Y8555569D02*
G03X13835486Y8575020I-3029J19451D01*
X13502022Y8961456D02*
G01X13044148D01*
X14728279Y8555569D02*
G03X14728279Y8493327I4845J-31121D01*
X14744935Y8473876D02*
G03X14728279Y8493327I-19685J0D01*
X14744935Y8473876D02*
G01Y8343346D01*
X14685880Y8284291D02*
G03X14744935Y8343346I0J59055D01*
X14568951Y8284291D02*
G01X14685880D01*
X14561077Y8292165D02*
G03X14568951Y8284291I7874J0D01*
X14561077Y8292165D02*
G01Y8357125D01*
G03X14553203Y8364999I-7874J0D01*
G01X14427219D01*
G03X14419345Y8357125I0J-7874D01*
G01Y8292165D01*
X14411471Y8284291D02*
G03X14419345Y8292165I0J7874D01*
X13953597Y8284291D02*
G01X14411471D01*
X13894542Y8343346D02*
G03X13953597Y8284291I59055J0D01*
X13894542Y8902401D02*
G01Y8343346D01*
X13953597Y8961456D02*
G03X13894542Y8902401I0J-59055D01*
X14419345Y8953582D02*
G03X14411471Y8961456I-7874J0D01*
X14419345Y8888621D02*
G01Y8953582D01*
Y8888621D02*
G03X14427219Y8880747I7874J0D01*
X14553203D02*
G01X14427219D01*
X14553203D02*
G03X14561077Y8888621I0J7874D01*
Y8953582D02*
G01Y8888621D01*
X14568951Y8961456D02*
G03X14561077Y8953582I0J-7874D01*
X14685880Y8961456D02*
G01X14568951D01*
X14744935Y8902401D02*
G03X14685880Y8961456I-59055J0D01*
X14744935Y8902401D02*
G01Y8771870D01*
X14728279Y8752420D02*
G03X14744935Y8771870I-3029J19451D01*
X14728279Y8752420D02*
G03X14728279Y8690177I4845J-31121D01*
X14744935Y8670727D02*
G03X14728279Y8690177I-19685J0D01*
X14744935Y8670727D02*
G01Y8575020D01*
X14728279Y8555569D02*
G03X14744935Y8575020I-3029J19451D01*
X14411471Y8961456D02*
G01X13953597D01*
X8066861Y7819349D02*
G03X8066861Y7757107I4845J-31121D01*
X8083518Y7737656D02*
G03X8066861Y7757107I-19685J0D01*
X8083518Y7737656D02*
G01Y7607125D01*
X8024463Y7548070D02*
G03X8083518Y7607125I0J59055D01*
X7907534Y7548070D02*
G01X8024463D01*
X7899660Y7555944D02*
G03X7907534Y7548070I7874J0D01*
X7899660Y7555944D02*
G01Y7620905D01*
G03X7891786Y7628779I-7874J0D01*
G01X7765801D01*
G03X7757927Y7620905I0J-7874D01*
G01Y7555944D01*
X7750053Y7548070D02*
G03X7757927Y7555944I0J7874D01*
X7292179Y7548070D02*
G01X7750053D01*
X7233124Y7607125D02*
G03X7292179Y7548070I59055J0D01*
X7233124Y8166180D02*
G01Y7607125D01*
X7292179Y8225236D02*
G03X7233124Y8166180I0J-59055D01*
X7757927Y8217362D02*
G03X7750053Y8225236I-7874J0D01*
X7757927Y8152401D02*
G01Y8217362D01*
Y8152401D02*
G03X7765801Y8144527I7874J0D01*
X7891786D02*
G01X7765801D01*
X7891786D02*
G03X7899660Y8152401I0J7874D01*
Y8217362D02*
G01Y8152401D01*
X7907534Y8225236D02*
G03X7899660Y8217362I0J-7874D01*
X8024463Y8225236D02*
G01X7907534D01*
X8083518Y8166180D02*
G03X8024463Y8225236I-59055J0D01*
X8083518Y8166180D02*
G01Y8035650D01*
X8066861Y8016199D02*
G03X8083518Y8035650I-3029J19451D01*
X8066861Y8016199D02*
G03X8066861Y7953957I4845J-31121D01*
X8083518Y7934506D02*
G03X8066861Y7953957I-19685J0D01*
X8083518Y7934506D02*
G01Y7838800D01*
X8066861Y7819349D02*
G03X8083518Y7838800I-3029J19451D01*
X7750053Y8225236D02*
G01X7292179D01*
X8976310Y7819349D02*
G03X8976310Y7757107I4845J-31121D01*
X8992967Y7737656D02*
G03X8976310Y7757107I-19685J0D01*
X8992967Y7737656D02*
G01Y7607125D01*
X8933912Y7548070D02*
G03X8992967Y7607125I0J59055D01*
X8816982Y7548070D02*
G01X8933912D01*
X8809108Y7555944D02*
G03X8816982Y7548070I7874J0D01*
X8809108Y7555944D02*
G01Y7620905D01*
G03X8801234Y7628779I-7874J0D01*
G01X8675250D01*
G03X8667376Y7620905I0J-7874D01*
G01Y7555944D01*
X8659502Y7548070D02*
G03X8667376Y7555944I0J7874D01*
X8201628Y7548070D02*
G01X8659502D01*
X8142573Y7607125D02*
G03X8201628Y7548070I59055J0D01*
X8142573Y8166180D02*
G01Y7607125D01*
X8201628Y8225236D02*
G03X8142573Y8166180I0J-59055D01*
X8667376Y8217362D02*
G03X8659502Y8225236I-7874J0D01*
X8667376Y8152401D02*
G01Y8217362D01*
Y8152401D02*
G03X8675250Y8144527I7874J0D01*
X8801234D02*
G01X8675250D01*
X8801234D02*
G03X8809108Y8152401I0J7874D01*
Y8217362D02*
G01Y8152401D01*
X8816982Y8225236D02*
G03X8809108Y8217362I0J-7874D01*
X8933912Y8225236D02*
G01X8816982D01*
X8992967Y8166180D02*
G03X8933912Y8225236I-59055J0D01*
X8992967Y8166180D02*
G01Y8035650D01*
X8976310Y8016199D02*
G03X8992967Y8035650I-3029J19451D01*
X8976310Y8016199D02*
G03X8976310Y7953957I4845J-31121D01*
X8992967Y7934506D02*
G03X8976310Y7953957I-19685J0D01*
X8992967Y7934506D02*
G01Y7838800D01*
X8976310Y7819349D02*
G03X8992967Y7838800I-3029J19451D01*
X8659502Y8225236D02*
G01X8201628D01*
X9885759Y7819349D02*
G03X9885759Y7757107I4845J-31121D01*
X9902416Y7737656D02*
G03X9885759Y7757107I-19685J0D01*
X9902416Y7737656D02*
G01Y7607125D01*
X9843360Y7548070D02*
G03X9902416Y7607125I0J59055D01*
X9726431Y7548070D02*
G01X9843360D01*
X9718557Y7555944D02*
G03X9726431Y7548070I7874J0D01*
X9718557Y7555944D02*
G01Y7620905D01*
G03X9710683Y7628779I-7874J0D01*
G01X9584699D01*
G03X9576825Y7620905I0J-7874D01*
G01Y7555944D01*
X9568951Y7548070D02*
G03X9576825Y7555944I0J7874D01*
X9111077Y7548070D02*
G01X9568951D01*
X9052022Y7607125D02*
G03X9111077Y7548070I59055J0D01*
X9052022Y8166180D02*
G01Y7607125D01*
X9111077Y8225236D02*
G03X9052022Y8166180I0J-59055D01*
X9576825Y8217362D02*
G03X9568951Y8225236I-7874J0D01*
X9576825Y8152401D02*
G01Y8217362D01*
Y8152401D02*
G03X9584699Y8144527I7874J0D01*
X9710683D02*
G01X9584699D01*
X9710683D02*
G03X9718557Y8152401I0J7874D01*
Y8217362D02*
G01Y8152401D01*
X9726431Y8225236D02*
G03X9718557Y8217362I0J-7874D01*
X9843360Y8225236D02*
G01X9726431D01*
X9902416Y8166180D02*
G03X9843360Y8225236I-59055J0D01*
X9902416Y8166180D02*
G01Y8035650D01*
X9885759Y8016199D02*
G03X9902416Y8035650I-3029J19451D01*
X9885759Y8016199D02*
G03X9885759Y7953957I4845J-31121D01*
X9902416Y7934506D02*
G03X9885759Y7953957I-19685J0D01*
X9902416Y7934506D02*
G01Y7838800D01*
X9885759Y7819349D02*
G03X9902416Y7838800I-3029J19451D01*
X9568951Y8225236D02*
G01X9111077D01*
X10795208Y7819349D02*
G03X10795208Y7757107I4845J-31121D01*
X10811864Y7737656D02*
G03X10795208Y7757107I-19685J0D01*
X10811864Y7737656D02*
G01Y7607125D01*
X10752809Y7548070D02*
G03X10811864Y7607125I0J59055D01*
X10635880Y7548070D02*
G01X10752809D01*
X10628006Y7555944D02*
G03X10635880Y7548070I7874J0D01*
X10628006Y7555944D02*
G01Y7620905D01*
G03X10620132Y7628779I-7874J0D01*
G01X10494148D01*
G03X10486274Y7620905I0J-7874D01*
G01Y7555944D01*
X10478400Y7548070D02*
G03X10486274Y7555944I0J7874D01*
X10020526Y7548070D02*
G01X10478400D01*
X9961471Y7607125D02*
G03X10020526Y7548070I59055J0D01*
X9961471Y8166180D02*
G01Y7607125D01*
X10020526Y8225236D02*
G03X9961471Y8166180I0J-59055D01*
X10486274Y8217362D02*
G03X10478400Y8225236I-7874J0D01*
X10486274Y8152401D02*
G01Y8217362D01*
Y8152401D02*
G03X10494148Y8144527I7874J0D01*
X10620132D02*
G01X10494148D01*
X10620132D02*
G03X10628006Y8152401I0J7874D01*
Y8217362D02*
G01Y8152401D01*
X10635880Y8225236D02*
G03X10628006Y8217362I0J-7874D01*
X10752809Y8225236D02*
G01X10635880D01*
X10811864Y8166180D02*
G03X10752809Y8225236I-59055J0D01*
X10811864Y8166180D02*
G01Y8035650D01*
X10795208Y8016199D02*
G03X10811864Y8035650I-3029J19451D01*
X10795208Y8016199D02*
G03X10795208Y7953957I4845J-31121D01*
X10811864Y7934506D02*
G03X10795208Y7953957I-19685J0D01*
X10811864Y7934506D02*
G01Y7838800D01*
X10795208Y7819349D02*
G03X10811864Y7838800I-3029J19451D01*
X10478400Y8225236D02*
G01X10020526D01*
X11999932Y7819349D02*
G03X11999932Y7757107I4845J-31121D01*
X12016589Y7737656D02*
G03X11999932Y7757107I-19685J0D01*
X12016589Y7737656D02*
G01Y7607125D01*
X11957534Y7548070D02*
G03X12016589Y7607125I0J59055D01*
X11840605Y7548070D02*
G01X11957534D01*
X11832731Y7555944D02*
G03X11840605Y7548070I7874J0D01*
X11832731Y7555944D02*
G01Y7620905D01*
G03X11824856Y7628779I-7874J0D01*
G01X11698872D01*
G03X11690998Y7620905I0J-7874D01*
G01Y7555944D01*
X11683124Y7548070D02*
G03X11690998Y7555944I0J7874D01*
X11225250Y7548070D02*
G01X11683124D01*
X11166195Y7607125D02*
G03X11225250Y7548070I59055J0D01*
X11166195Y8166180D02*
G01Y7607125D01*
X11225250Y8225236D02*
G03X11166195Y8166180I0J-59055D01*
X11690998Y8217362D02*
G03X11683124Y8225236I-7874J0D01*
X11690998Y8152401D02*
G01Y8217362D01*
Y8152401D02*
G03X11698872Y8144527I7874J0D01*
X11824856D02*
G01X11698872D01*
X11824856D02*
G03X11832731Y8152401I0J7874D01*
Y8217362D02*
G01Y8152401D01*
X11840605Y8225236D02*
G03X11832731Y8217362I0J-7874D01*
X11957534Y8225236D02*
G01X11840605D01*
X12016589Y8166180D02*
G03X11957534Y8225236I-59055J0D01*
X12016589Y8166180D02*
G01Y8035650D01*
X11999932Y8016199D02*
G03X12016589Y8035650I-3029J19451D01*
X11999932Y8016199D02*
G03X11999932Y7953957I4845J-31121D01*
X12016589Y7934506D02*
G03X11999932Y7953957I-19685J0D01*
X12016589Y7934506D02*
G01Y7838800D01*
X11999932Y7819349D02*
G03X12016589Y7838800I-3029J19451D01*
X11683124Y8225236D02*
G01X11225250D01*
X12909381Y7819349D02*
G03X12909381Y7757107I4845J-31121D01*
X12926038Y7737656D02*
G03X12909381Y7757107I-19685J0D01*
X12926038Y7737656D02*
G01Y7607125D01*
X12866982Y7548070D02*
G03X12926038Y7607125I0J59055D01*
X12750053Y7548070D02*
G01X12866982D01*
X12742179Y7555944D02*
G03X12750053Y7548070I7874J0D01*
X12742179Y7555944D02*
G01Y7620905D01*
G03X12734305Y7628779I-7874J0D01*
G01X12608321D01*
G03X12600447Y7620905I0J-7874D01*
G01Y7555944D01*
X12592573Y7548070D02*
G03X12600447Y7555944I0J7874D01*
X12134699Y7548070D02*
G01X12592573D01*
X12075644Y7607125D02*
G03X12134699Y7548070I59055J0D01*
X12075644Y8166180D02*
G01Y7607125D01*
X12134699Y8225236D02*
G03X12075644Y8166180I0J-59055D01*
X12600447Y8217362D02*
G03X12592573Y8225236I-7874J0D01*
X12600447Y8152401D02*
G01Y8217362D01*
Y8152401D02*
G03X12608321Y8144527I7874J0D01*
X12734305D02*
G01X12608321D01*
X12734305D02*
G03X12742179Y8152401I0J7874D01*
Y8217362D02*
G01Y8152401D01*
X12750053Y8225236D02*
G03X12742179Y8217362I0J-7874D01*
X12866982Y8225236D02*
G01X12750053D01*
X12926038Y8166180D02*
G03X12866982Y8225236I-59055J0D01*
X12926038Y8166180D02*
G01Y8035650D01*
X12909381Y8016199D02*
G03X12926038Y8035650I-3029J19451D01*
X12909381Y8016199D02*
G03X12909381Y7953957I4845J-31121D01*
X12926038Y7934506D02*
G03X12909381Y7953957I-19685J0D01*
X12926038Y7934506D02*
G01Y7838800D01*
X12909381Y7819349D02*
G03X12926038Y7838800I-3029J19451D01*
X12592573Y8225236D02*
G01X12134699D01*
X13818830Y7819349D02*
G03X13818830Y7757107I4845J-31121D01*
X13835486Y7737656D02*
G03X13818830Y7757107I-19685J0D01*
X13835486Y7737656D02*
G01Y7607125D01*
X13776431Y7548070D02*
G03X13835486Y7607125I0J59055D01*
X13659502Y7548070D02*
G01X13776431D01*
X13651628Y7555944D02*
G03X13659502Y7548070I7874J0D01*
X13651628Y7555944D02*
G01Y7620905D01*
G03X13643754Y7628779I-7874J0D01*
G01X13517770D01*
G03X13509896Y7620905I0J-7874D01*
G01Y7555944D01*
X13502022Y7548070D02*
G03X13509896Y7555944I0J7874D01*
X13044148Y7548070D02*
G01X13502022D01*
X12985093Y7607125D02*
G03X13044148Y7548070I59055J0D01*
X12985093Y8166180D02*
G01Y7607125D01*
X13044148Y8225236D02*
G03X12985093Y8166180I0J-59055D01*
X13509896Y8217362D02*
G03X13502022Y8225236I-7874J0D01*
X13509896Y8152401D02*
G01Y8217362D01*
Y8152401D02*
G03X13517770Y8144527I7874J0D01*
X13643754D02*
G01X13517770D01*
X13643754D02*
G03X13651628Y8152401I0J7874D01*
Y8217362D02*
G01Y8152401D01*
X13659502Y8225236D02*
G03X13651628Y8217362I0J-7874D01*
X13776431Y8225236D02*
G01X13659502D01*
X13835486Y8166180D02*
G03X13776431Y8225236I-59055J0D01*
X13835486Y8166180D02*
G01Y8035650D01*
X13818830Y8016199D02*
G03X13835486Y8035650I-3029J19451D01*
X13818830Y8016199D02*
G03X13818830Y7953957I4845J-31121D01*
X13835486Y7934506D02*
G03X13818830Y7953957I-19685J0D01*
X13835486Y7934506D02*
G01Y7838800D01*
X13818830Y7819349D02*
G03X13835486Y7838800I-3029J19451D01*
X13502022Y8225236D02*
G01X13044148D01*
X14728279Y7819349D02*
G03X14728279Y7757107I4845J-31121D01*
X14744935Y7737656D02*
G03X14728279Y7757107I-19685J0D01*
X14744935Y7737656D02*
G01Y7607125D01*
X14685880Y7548070D02*
G03X14744935Y7607125I0J59055D01*
X14568951Y7548070D02*
G01X14685880D01*
X14561077Y7555944D02*
G03X14568951Y7548070I7874J0D01*
X14561077Y7555944D02*
G01Y7620905D01*
G03X14553203Y7628779I-7874J0D01*
G01X14427219D01*
G03X14419345Y7620905I0J-7874D01*
G01Y7555944D01*
X14411471Y7548070D02*
G03X14419345Y7555944I0J7874D01*
X13953597Y7548070D02*
G01X14411471D01*
X13894542Y7607125D02*
G03X13953597Y7548070I59055J0D01*
X13894542Y8166180D02*
G01Y7607125D01*
X13953597Y8225236D02*
G03X13894542Y8166180I0J-59055D01*
X14419345Y8217362D02*
G03X14411471Y8225236I-7874J0D01*
X14419345Y8152401D02*
G01Y8217362D01*
Y8152401D02*
G03X14427219Y8144527I7874J0D01*
X14553203D02*
G01X14427219D01*
X14553203D02*
G03X14561077Y8152401I0J7874D01*
Y8217362D02*
G01Y8152401D01*
X14568951Y8225236D02*
G03X14561077Y8217362I0J-7874D01*
X14685880Y8225236D02*
G01X14568951D01*
X14744935Y8166180D02*
G03X14685880Y8225236I-59055J0D01*
X14744935Y8166180D02*
G01Y8035650D01*
X14728279Y8016199D02*
G03X14744935Y8035650I-3029J19451D01*
X14728279Y8016199D02*
G03X14728279Y7953957I4845J-31121D01*
X14744935Y7934506D02*
G03X14728279Y7953957I-19685J0D01*
X14744935Y7934506D02*
G01Y7838800D01*
X14728279Y7819349D02*
G03X14744935Y7838800I-3029J19451D01*
X14411471Y8225236D02*
G01X13953597D01*
X8066861Y7083128D02*
G03X8066861Y7020886I4845J-31121D01*
X8083518Y7001435D02*
G03X8066861Y7020886I-19685J0D01*
X8083518Y7001435D02*
G01Y6870905D01*
X8024463Y6811850D02*
G03X8083518Y6870905I0J59055D01*
X7907534Y6811850D02*
G01X8024463D01*
X7899660Y6819724D02*
G03X7907534Y6811850I7874J0D01*
X7899660Y6819724D02*
G01Y6884684D01*
G03X7891786Y6892558I-7874J0D01*
G01X7765801D01*
G03X7757927Y6884684I0J-7874D01*
G01Y6819724D01*
X7750053Y6811850D02*
G03X7757927Y6819724I0J7874D01*
X7292179Y6811850D02*
G01X7750053D01*
X7233124Y6870905D02*
G03X7292179Y6811850I59055J0D01*
X7233124Y7429960D02*
G01Y6870905D01*
X7292179Y7489015D02*
G03X7233124Y7429960I0J-59055D01*
X7757927Y7481141D02*
G03X7750053Y7489015I-7874J0D01*
X7757927Y7416180D02*
G01Y7481141D01*
Y7416180D02*
G03X7765801Y7408306I7874J0D01*
X7891786D02*
G01X7765801D01*
X7891786D02*
G03X7899660Y7416180I0J7874D01*
Y7481141D02*
G01Y7416180D01*
X7907534Y7489015D02*
G03X7899660Y7481141I0J-7874D01*
X8024463Y7489015D02*
G01X7907534D01*
X8083518Y7429960D02*
G03X8024463Y7489015I-59055J0D01*
X8083518Y7429960D02*
G01Y7299429D01*
X8066861Y7279979D02*
G03X8083518Y7299429I-3029J19451D01*
X8066861Y7279979D02*
G03X8066861Y7217737I4845J-31121D01*
X8083518Y7198286D02*
G03X8066861Y7217737I-19685J0D01*
X8083518Y7198286D02*
G01Y7102579D01*
X8066861Y7083128D02*
G03X8083518Y7102579I-3029J19451D01*
X7750053Y7489015D02*
G01X7292179D01*
X8976310Y7083128D02*
G03X8976310Y7020886I4845J-31121D01*
X8992967Y7001435D02*
G03X8976310Y7020886I-19685J0D01*
X8992967Y7001435D02*
G01Y6870905D01*
X8933912Y6811850D02*
G03X8992967Y6870905I0J59055D01*
X8816982Y6811850D02*
G01X8933912D01*
X8809108Y6819724D02*
G03X8816982Y6811850I7874J0D01*
X8809108Y6819724D02*
G01Y6884684D01*
G03X8801234Y6892558I-7874J0D01*
G01X8675250D01*
G03X8667376Y6884684I0J-7874D01*
G01Y6819724D01*
X8659502Y6811850D02*
G03X8667376Y6819724I0J7874D01*
X8201628Y6811850D02*
G01X8659502D01*
X8142573Y6870905D02*
G03X8201628Y6811850I59055J0D01*
X8142573Y7429960D02*
G01Y6870905D01*
X8201628Y7489015D02*
G03X8142573Y7429960I0J-59055D01*
X8667376Y7481141D02*
G03X8659502Y7489015I-7874J0D01*
X8667376Y7416180D02*
G01Y7481141D01*
Y7416180D02*
G03X8675250Y7408306I7874J0D01*
X8801234D02*
G01X8675250D01*
X8801234D02*
G03X8809108Y7416180I0J7874D01*
Y7481141D02*
G01Y7416180D01*
X8816982Y7489015D02*
G03X8809108Y7481141I0J-7874D01*
X8933912Y7489015D02*
G01X8816982D01*
X8992967Y7429960D02*
G03X8933912Y7489015I-59055J0D01*
X8992967Y7429960D02*
G01Y7299429D01*
X8976310Y7279979D02*
G03X8992967Y7299429I-3029J19451D01*
X8976310Y7279979D02*
G03X8976310Y7217737I4845J-31121D01*
X8992967Y7198286D02*
G03X8976310Y7217737I-19685J0D01*
X8992967Y7198286D02*
G01Y7102579D01*
X8976310Y7083128D02*
G03X8992967Y7102579I-3029J19451D01*
X8659502Y7489015D02*
G01X8201628D01*
X9885759Y7083128D02*
G03X9885759Y7020886I4845J-31121D01*
X9902416Y7001435D02*
G03X9885759Y7020886I-19685J0D01*
X9902416Y7001435D02*
G01Y6870905D01*
X9843360Y6811850D02*
G03X9902416Y6870905I0J59055D01*
X9726431Y6811850D02*
G01X9843360D01*
X9718557Y6819724D02*
G03X9726431Y6811850I7874J0D01*
X9718557Y6819724D02*
G01Y6884684D01*
G03X9710683Y6892558I-7874J0D01*
G01X9584699D01*
G03X9576825Y6884684I0J-7874D01*
G01Y6819724D01*
X9568951Y6811850D02*
G03X9576825Y6819724I0J7874D01*
X9111077Y6811850D02*
G01X9568951D01*
X9052022Y6870905D02*
G03X9111077Y6811850I59055J0D01*
X9052022Y7429960D02*
G01Y6870905D01*
X9111077Y7489015D02*
G03X9052022Y7429960I0J-59055D01*
X9576825Y7481141D02*
G03X9568951Y7489015I-7874J0D01*
X9576825Y7416180D02*
G01Y7481141D01*
Y7416180D02*
G03X9584699Y7408306I7874J0D01*
X9710683D02*
G01X9584699D01*
X9710683D02*
G03X9718557Y7416180I0J7874D01*
Y7481141D02*
G01Y7416180D01*
X9726431Y7489015D02*
G03X9718557Y7481141I0J-7874D01*
X9843360Y7489015D02*
G01X9726431D01*
X9902416Y7429960D02*
G03X9843360Y7489015I-59055J0D01*
X9902416Y7429960D02*
G01Y7299429D01*
X9885759Y7279979D02*
G03X9902416Y7299429I-3029J19451D01*
X9885759Y7279979D02*
G03X9885759Y7217737I4845J-31121D01*
X9902416Y7198286D02*
G03X9885759Y7217737I-19685J0D01*
X9902416Y7198286D02*
G01Y7102579D01*
X9885759Y7083128D02*
G03X9902416Y7102579I-3029J19451D01*
X9568951Y7489015D02*
G01X9111077D01*
X10795208Y7083128D02*
G03X10795208Y7020886I4845J-31121D01*
X10811864Y7001435D02*
G03X10795208Y7020886I-19685J0D01*
X10811864Y7001435D02*
G01Y6870905D01*
X10752809Y6811850D02*
G03X10811864Y6870905I0J59055D01*
X10635880Y6811850D02*
G01X10752809D01*
X10628006Y6819724D02*
G03X10635880Y6811850I7874J0D01*
X10628006Y6819724D02*
G01Y6884684D01*
G03X10620132Y6892558I-7874J0D01*
G01X10494148D01*
G03X10486274Y6884684I0J-7874D01*
G01Y6819724D01*
X10478400Y6811850D02*
G03X10486274Y6819724I0J7874D01*
X10020526Y6811850D02*
G01X10478400D01*
X9961471Y6870905D02*
G03X10020526Y6811850I59055J0D01*
X9961471Y7429960D02*
G01Y6870905D01*
X10020526Y7489015D02*
G03X9961471Y7429960I0J-59055D01*
X10486274Y7481141D02*
G03X10478400Y7489015I-7874J0D01*
X10486274Y7416180D02*
G01Y7481141D01*
Y7416180D02*
G03X10494148Y7408306I7874J0D01*
X10620132D02*
G01X10494148D01*
X10620132D02*
G03X10628006Y7416180I0J7874D01*
Y7481141D02*
G01Y7416180D01*
X10635880Y7489015D02*
G03X10628006Y7481141I0J-7874D01*
X10752809Y7489015D02*
G01X10635880D01*
X10811864Y7429960D02*
G03X10752809Y7489015I-59055J0D01*
X10811864Y7429960D02*
G01Y7299429D01*
X10795208Y7279979D02*
G03X10811864Y7299429I-3029J19451D01*
X10795208Y7279979D02*
G03X10795208Y7217737I4845J-31121D01*
X10811864Y7198286D02*
G03X10795208Y7217737I-19685J0D01*
X10811864Y7198286D02*
G01Y7102579D01*
X10795208Y7083128D02*
G03X10811864Y7102579I-3029J19451D01*
X10478400Y7489015D02*
G01X10020526D01*
X11999932Y7083128D02*
G03X11999932Y7020886I4845J-31121D01*
X12016589Y7001435D02*
G03X11999932Y7020886I-19685J0D01*
X12016589Y7001435D02*
G01Y6870905D01*
X11957534Y6811850D02*
G03X12016589Y6870905I0J59055D01*
X11840605Y6811850D02*
G01X11957534D01*
X11832731Y6819724D02*
G03X11840605Y6811850I7874J0D01*
X11832731Y6819724D02*
G01Y6884684D01*
G03X11824856Y6892558I-7874J0D01*
G01X11698872D01*
G03X11690998Y6884684I0J-7874D01*
G01Y6819724D01*
X11683124Y6811850D02*
G03X11690998Y6819724I0J7874D01*
X11225250Y6811850D02*
G01X11683124D01*
X11166195Y6870905D02*
G03X11225250Y6811850I59055J0D01*
X11166195Y7429960D02*
G01Y6870905D01*
X11225250Y7489015D02*
G03X11166195Y7429960I0J-59055D01*
X11690998Y7481141D02*
G03X11683124Y7489015I-7874J0D01*
X11690998Y7416180D02*
G01Y7481141D01*
Y7416180D02*
G03X11698872Y7408306I7874J0D01*
X11824856D02*
G01X11698872D01*
X11824856D02*
G03X11832731Y7416180I0J7874D01*
Y7481141D02*
G01Y7416180D01*
X11840605Y7489015D02*
G03X11832731Y7481141I0J-7874D01*
X11957534Y7489015D02*
G01X11840605D01*
X12016589Y7429960D02*
G03X11957534Y7489015I-59055J0D01*
X12016589Y7429960D02*
G01Y7299429D01*
X11999932Y7279979D02*
G03X12016589Y7299429I-3029J19451D01*
X11999932Y7279979D02*
G03X11999932Y7217737I4845J-31121D01*
X12016589Y7198286D02*
G03X11999932Y7217737I-19685J0D01*
X12016589Y7198286D02*
G01Y7102579D01*
X11999932Y7083128D02*
G03X12016589Y7102579I-3029J19451D01*
X11683124Y7489015D02*
G01X11225250D01*
X12909381Y7083128D02*
G03X12909381Y7020886I4845J-31121D01*
X12926038Y7001435D02*
G03X12909381Y7020886I-19685J0D01*
X12926038Y7001435D02*
G01Y6870905D01*
X12866982Y6811850D02*
G03X12926038Y6870905I0J59055D01*
X12750053Y6811850D02*
G01X12866982D01*
X12742179Y6819724D02*
G03X12750053Y6811850I7874J0D01*
X12742179Y6819724D02*
G01Y6884684D01*
G03X12734305Y6892558I-7874J0D01*
G01X12608321D01*
G03X12600447Y6884684I0J-7874D01*
G01Y6819724D01*
X12592573Y6811850D02*
G03X12600447Y6819724I0J7874D01*
X12134699Y6811850D02*
G01X12592573D01*
X12075644Y6870905D02*
G03X12134699Y6811850I59055J0D01*
X12075644Y7429960D02*
G01Y6870905D01*
X12134699Y7489015D02*
G03X12075644Y7429960I0J-59055D01*
X12600447Y7481141D02*
G03X12592573Y7489015I-7874J0D01*
X12600447Y7416180D02*
G01Y7481141D01*
Y7416180D02*
G03X12608321Y7408306I7874J0D01*
X12734305D02*
G01X12608321D01*
X12734305D02*
G03X12742179Y7416180I0J7874D01*
Y7481141D02*
G01Y7416180D01*
X12750053Y7489015D02*
G03X12742179Y7481141I0J-7874D01*
X12866982Y7489015D02*
G01X12750053D01*
X12926038Y7429960D02*
G03X12866982Y7489015I-59055J0D01*
X12926038Y7429960D02*
G01Y7299429D01*
X12909381Y7279979D02*
G03X12926038Y7299429I-3029J19451D01*
X12909381Y7279979D02*
G03X12909381Y7217737I4845J-31121D01*
X12926038Y7198286D02*
G03X12909381Y7217737I-19685J0D01*
X12926038Y7198286D02*
G01Y7102579D01*
X12909381Y7083128D02*
G03X12926038Y7102579I-3029J19451D01*
X12592573Y7489015D02*
G01X12134699D01*
X13818830Y7083128D02*
G03X13818830Y7020886I4845J-31121D01*
X13835486Y7001435D02*
G03X13818830Y7020886I-19685J0D01*
X13835486Y7001435D02*
G01Y6870905D01*
X13776431Y6811850D02*
G03X13835486Y6870905I0J59055D01*
X13659502Y6811850D02*
G01X13776431D01*
X13651628Y6819724D02*
G03X13659502Y6811850I7874J0D01*
X13651628Y6819724D02*
G01Y6884684D01*
G03X13643754Y6892558I-7874J0D01*
G01X13517770D01*
G03X13509896Y6884684I0J-7874D01*
G01Y6819724D01*
X13502022Y6811850D02*
G03X13509896Y6819724I0J7874D01*
X13044148Y6811850D02*
G01X13502022D01*
X12985093Y6870905D02*
G03X13044148Y6811850I59055J0D01*
X12985093Y7429960D02*
G01Y6870905D01*
X13044148Y7489015D02*
G03X12985093Y7429960I0J-59055D01*
X13509896Y7481141D02*
G03X13502022Y7489015I-7874J0D01*
X13509896Y7416180D02*
G01Y7481141D01*
Y7416180D02*
G03X13517770Y7408306I7874J0D01*
X13643754D02*
G01X13517770D01*
X13643754D02*
G03X13651628Y7416180I0J7874D01*
Y7481141D02*
G01Y7416180D01*
X13659502Y7489015D02*
G03X13651628Y7481141I0J-7874D01*
X13776431Y7489015D02*
G01X13659502D01*
X13835486Y7429960D02*
G03X13776431Y7489015I-59055J0D01*
X13835486Y7429960D02*
G01Y7299429D01*
X13818830Y7279979D02*
G03X13835486Y7299429I-3029J19451D01*
X13818830Y7279979D02*
G03X13818830Y7217737I4845J-31121D01*
X13835486Y7198286D02*
G03X13818830Y7217737I-19685J0D01*
X13835486Y7198286D02*
G01Y7102579D01*
X13818830Y7083128D02*
G03X13835486Y7102579I-3029J19451D01*
X13502022Y7489015D02*
G01X13044148D01*
X14728279Y7083128D02*
G03X14728279Y7020886I4845J-31121D01*
X14744935Y7001435D02*
G03X14728279Y7020886I-19685J0D01*
X14744935Y7001435D02*
G01Y6870905D01*
X14685880Y6811850D02*
G03X14744935Y6870905I0J59055D01*
X14568951Y6811850D02*
G01X14685880D01*
X14561077Y6819724D02*
G03X14568951Y6811850I7874J0D01*
X14561077Y6819724D02*
G01Y6884684D01*
G03X14553203Y6892558I-7874J0D01*
G01X14427219D01*
G03X14419345Y6884684I0J-7874D01*
G01Y6819724D01*
X14411471Y6811850D02*
G03X14419345Y6819724I0J7874D01*
X13953597Y6811850D02*
G01X14411471D01*
X13894542Y6870905D02*
G03X13953597Y6811850I59055J0D01*
X13894542Y7429960D02*
G01Y6870905D01*
X13953597Y7489015D02*
G03X13894542Y7429960I0J-59055D01*
X14419345Y7481141D02*
G03X14411471Y7489015I-7874J0D01*
X14419345Y7416180D02*
G01Y7481141D01*
Y7416180D02*
G03X14427219Y7408306I7874J0D01*
X14553203D02*
G01X14427219D01*
X14553203D02*
G03X14561077Y7416180I0J7874D01*
Y7481141D02*
G01Y7416180D01*
X14568951Y7489015D02*
G03X14561077Y7481141I0J-7874D01*
X14685880Y7489015D02*
G01X14568951D01*
X14744935Y7429960D02*
G03X14685880Y7489015I-59055J0D01*
X14744935Y7429960D02*
G01Y7299429D01*
X14728279Y7279979D02*
G03X14744935Y7299429I-3029J19451D01*
X14728279Y7279979D02*
G03X14728279Y7217737I4845J-31121D01*
X14744935Y7198286D02*
G03X14728279Y7217737I-19685J0D01*
X14744935Y7198286D02*
G01Y7102579D01*
X14728279Y7083128D02*
G03X14744935Y7102579I-3029J19451D01*
X14411471Y7489015D02*
G01X13953597D01*
X8066861Y6346908D02*
G03X8066861Y6284666I4845J-31121D01*
X8083518Y6265215D02*
G03X8066861Y6284666I-19685J0D01*
X8083518Y6265215D02*
G01Y6134684D01*
X8024463Y6075629D02*
G03X8083518Y6134684I0J59055D01*
X7907534Y6075629D02*
G01X8024463D01*
X7899660Y6083503D02*
G03X7907534Y6075629I7874J0D01*
X7899660Y6083503D02*
G01Y6148464D01*
G03X7891786Y6156338I-7874J0D01*
G01X7765801D01*
G03X7757927Y6148464I0J-7874D01*
G01Y6083503D01*
X7750053Y6075629D02*
G03X7757927Y6083503I0J7874D01*
X7292179Y6075629D02*
G01X7750053D01*
X7233124Y6134684D02*
G03X7292179Y6075629I59055J0D01*
X7233124Y6693739D02*
G01Y6134684D01*
X7292179Y6752795D02*
G03X7233124Y6693739I0J-59055D01*
X7757927Y6744921D02*
G03X7750053Y6752795I-7874J0D01*
X7757927Y6679960D02*
G01Y6744921D01*
Y6679960D02*
G03X7765801Y6672086I7874J0D01*
X7891786D02*
G01X7765801D01*
X7891786D02*
G03X7899660Y6679960I0J7874D01*
Y6744921D02*
G01Y6679960D01*
X7907534Y6752795D02*
G03X7899660Y6744921I0J-7874D01*
X8024463Y6752795D02*
G01X7907534D01*
X8083518Y6693739D02*
G03X8024463Y6752795I-59055J0D01*
X8083518Y6693739D02*
G01Y6563209D01*
X8066861Y6543758D02*
G03X8083518Y6563209I-3029J19451D01*
X8066861Y6543758D02*
G03X8066861Y6481516I4845J-31121D01*
X8083518Y6462065D02*
G03X8066861Y6481516I-19685J0D01*
X8083518Y6462065D02*
G01Y6366359D01*
X8066861Y6346908D02*
G03X8083518Y6366359I-3029J19451D01*
X7750053Y6752795D02*
G01X7292179D01*
X8976310Y6346908D02*
G03X8976310Y6284666I4845J-31121D01*
X8992967Y6265215D02*
G03X8976310Y6284666I-19685J0D01*
X8992967Y6265215D02*
G01Y6134684D01*
X8933912Y6075629D02*
G03X8992967Y6134684I0J59055D01*
X8816982Y6075629D02*
G01X8933912D01*
X8809108Y6083503D02*
G03X8816982Y6075629I7874J0D01*
X8809108Y6083503D02*
G01Y6148464D01*
G03X8801234Y6156338I-7874J0D01*
G01X8675250D01*
G03X8667376Y6148464I0J-7874D01*
G01Y6083503D01*
X8659502Y6075629D02*
G03X8667376Y6083503I0J7874D01*
X8201628Y6075629D02*
G01X8659502D01*
X8142573Y6134684D02*
G03X8201628Y6075629I59055J0D01*
X8142573Y6693739D02*
G01Y6134684D01*
X8201628Y6752795D02*
G03X8142573Y6693739I0J-59055D01*
X8667376Y6744921D02*
G03X8659502Y6752795I-7874J0D01*
X8667376Y6679960D02*
G01Y6744921D01*
Y6679960D02*
G03X8675250Y6672086I7874J0D01*
X8801234D02*
G01X8675250D01*
X8801234D02*
G03X8809108Y6679960I0J7874D01*
Y6744921D02*
G01Y6679960D01*
X8816982Y6752795D02*
G03X8809108Y6744921I0J-7874D01*
X8933912Y6752795D02*
G01X8816982D01*
X8992967Y6693739D02*
G03X8933912Y6752795I-59055J0D01*
X8992967Y6693739D02*
G01Y6563209D01*
X8976310Y6543758D02*
G03X8992967Y6563209I-3029J19451D01*
X8976310Y6543758D02*
G03X8976310Y6481516I4845J-31121D01*
X8992967Y6462065D02*
G03X8976310Y6481516I-19685J0D01*
X8992967Y6462065D02*
G01Y6366359D01*
X8976310Y6346908D02*
G03X8992967Y6366359I-3029J19451D01*
X8659502Y6752795D02*
G01X8201628D01*
X9885759Y6346908D02*
G03X9885759Y6284666I4845J-31121D01*
X9902416Y6265215D02*
G03X9885759Y6284666I-19685J0D01*
X9902416Y6265215D02*
G01Y6134684D01*
X9843360Y6075629D02*
G03X9902416Y6134684I0J59055D01*
X9726431Y6075629D02*
G01X9843360D01*
X9718557Y6083503D02*
G03X9726431Y6075629I7874J0D01*
X9718557Y6083503D02*
G01Y6148464D01*
G03X9710683Y6156338I-7874J0D01*
G01X9584699D01*
G03X9576825Y6148464I0J-7874D01*
G01Y6083503D01*
X9568951Y6075629D02*
G03X9576825Y6083503I0J7874D01*
X9111077Y6075629D02*
G01X9568951D01*
X9052022Y6134684D02*
G03X9111077Y6075629I59055J0D01*
X9052022Y6693739D02*
G01Y6134684D01*
X9111077Y6752795D02*
G03X9052022Y6693739I0J-59055D01*
X9576825Y6744921D02*
G03X9568951Y6752795I-7874J0D01*
X9576825Y6679960D02*
G01Y6744921D01*
Y6679960D02*
G03X9584699Y6672086I7874J0D01*
X9710683D02*
G01X9584699D01*
X9710683D02*
G03X9718557Y6679960I0J7874D01*
Y6744921D02*
G01Y6679960D01*
X9726431Y6752795D02*
G03X9718557Y6744921I0J-7874D01*
X9843360Y6752795D02*
G01X9726431D01*
X9902416Y6693739D02*
G03X9843360Y6752795I-59055J0D01*
X9902416Y6693739D02*
G01Y6563209D01*
X9885759Y6543758D02*
G03X9902416Y6563209I-3029J19451D01*
X9885759Y6543758D02*
G03X9885759Y6481516I4845J-31121D01*
X9902416Y6462065D02*
G03X9885759Y6481516I-19685J0D01*
X9902416Y6462065D02*
G01Y6366359D01*
X9885759Y6346908D02*
G03X9902416Y6366359I-3029J19451D01*
X9568951Y6752795D02*
G01X9111077D01*
X10795208Y6346908D02*
G03X10795208Y6284666I4845J-31121D01*
X10811864Y6265215D02*
G03X10795208Y6284666I-19685J0D01*
X10811864Y6265215D02*
G01Y6134684D01*
X10752809Y6075629D02*
G03X10811864Y6134684I0J59055D01*
X10635880Y6075629D02*
G01X10752809D01*
X10628006Y6083503D02*
G03X10635880Y6075629I7874J0D01*
X10628006Y6083503D02*
G01Y6148464D01*
G03X10620132Y6156338I-7874J0D01*
G01X10494148D01*
G03X10486274Y6148464I0J-7874D01*
G01Y6083503D01*
X10478400Y6075629D02*
G03X10486274Y6083503I0J7874D01*
X10020526Y6075629D02*
G01X10478400D01*
X9961471Y6134684D02*
G03X10020526Y6075629I59055J0D01*
X9961471Y6693739D02*
G01Y6134684D01*
X10020526Y6752795D02*
G03X9961471Y6693739I0J-59055D01*
X10486274Y6744921D02*
G03X10478400Y6752795I-7874J0D01*
X10486274Y6679960D02*
G01Y6744921D01*
Y6679960D02*
G03X10494148Y6672086I7874J0D01*
X10620132D02*
G01X10494148D01*
X10620132D02*
G03X10628006Y6679960I0J7874D01*
Y6744921D02*
G01Y6679960D01*
X10635880Y6752795D02*
G03X10628006Y6744921I0J-7874D01*
X10752809Y6752795D02*
G01X10635880D01*
X10811864Y6693739D02*
G03X10752809Y6752795I-59055J0D01*
X10811864Y6693739D02*
G01Y6563209D01*
X10795208Y6543758D02*
G03X10811864Y6563209I-3029J19451D01*
X10795208Y6543758D02*
G03X10795208Y6481516I4845J-31121D01*
X10811864Y6462065D02*
G03X10795208Y6481516I-19685J0D01*
X10811864Y6462065D02*
G01Y6366359D01*
X10795208Y6346908D02*
G03X10811864Y6366359I-3029J19451D01*
X10478400Y6752795D02*
G01X10020526D01*
X11999932Y6346908D02*
G03X11999932Y6284666I4845J-31121D01*
X12016589Y6265215D02*
G03X11999932Y6284666I-19685J0D01*
X12016589Y6265215D02*
G01Y6134684D01*
X11957534Y6075629D02*
G03X12016589Y6134684I0J59055D01*
X11840605Y6075629D02*
G01X11957534D01*
X11832731Y6083503D02*
G03X11840605Y6075629I7874J0D01*
X11832731Y6083503D02*
G01Y6148464D01*
G03X11824856Y6156338I-7874J0D01*
G01X11698872D01*
G03X11690998Y6148464I0J-7874D01*
G01Y6083503D01*
X11683124Y6075629D02*
G03X11690998Y6083503I0J7874D01*
X11225250Y6075629D02*
G01X11683124D01*
X11166195Y6134684D02*
G03X11225250Y6075629I59055J0D01*
X11166195Y6693739D02*
G01Y6134684D01*
X11225250Y6752795D02*
G03X11166195Y6693739I0J-59055D01*
X11690998Y6744921D02*
G03X11683124Y6752795I-7874J0D01*
X11690998Y6679960D02*
G01Y6744921D01*
Y6679960D02*
G03X11698872Y6672086I7874J0D01*
X11824856D02*
G01X11698872D01*
X11824856D02*
G03X11832731Y6679960I0J7874D01*
Y6744921D02*
G01Y6679960D01*
X11840605Y6752795D02*
G03X11832731Y6744921I0J-7874D01*
X11957534Y6752795D02*
G01X11840605D01*
X12016589Y6693739D02*
G03X11957534Y6752795I-59055J0D01*
X12016589Y6693739D02*
G01Y6563209D01*
X11999932Y6543758D02*
G03X12016589Y6563209I-3029J19451D01*
X11999932Y6543758D02*
G03X11999932Y6481516I4845J-31121D01*
X12016589Y6462065D02*
G03X11999932Y6481516I-19685J0D01*
X12016589Y6462065D02*
G01Y6366359D01*
X11999932Y6346908D02*
G03X12016589Y6366359I-3029J19451D01*
X11683124Y6752795D02*
G01X11225250D01*
X12909381Y6346908D02*
G03X12909381Y6284666I4845J-31121D01*
X12926038Y6265215D02*
G03X12909381Y6284666I-19685J0D01*
X12926038Y6265215D02*
G01Y6134684D01*
X12866982Y6075629D02*
G03X12926038Y6134684I0J59055D01*
X12750053Y6075629D02*
G01X12866982D01*
X12742179Y6083503D02*
G03X12750053Y6075629I7874J0D01*
X12742179Y6083503D02*
G01Y6148464D01*
G03X12734305Y6156338I-7874J0D01*
G01X12608321D01*
G03X12600447Y6148464I0J-7874D01*
G01Y6083503D01*
X12592573Y6075629D02*
G03X12600447Y6083503I0J7874D01*
X12134699Y6075629D02*
G01X12592573D01*
X12075644Y6134684D02*
G03X12134699Y6075629I59055J0D01*
X12075644Y6693739D02*
G01Y6134684D01*
X12134699Y6752795D02*
G03X12075644Y6693739I0J-59055D01*
X12600447Y6744921D02*
G03X12592573Y6752795I-7874J0D01*
X12600447Y6679960D02*
G01Y6744921D01*
Y6679960D02*
G03X12608321Y6672086I7874J0D01*
X12734305D02*
G01X12608321D01*
X12734305D02*
G03X12742179Y6679960I0J7874D01*
Y6744921D02*
G01Y6679960D01*
X12750053Y6752795D02*
G03X12742179Y6744921I0J-7874D01*
X12866982Y6752795D02*
G01X12750053D01*
X12926038Y6693739D02*
G03X12866982Y6752795I-59055J0D01*
X12926038Y6693739D02*
G01Y6563209D01*
X12909381Y6543758D02*
G03X12926038Y6563209I-3029J19451D01*
X12909381Y6543758D02*
G03X12909381Y6481516I4845J-31121D01*
X12926038Y6462065D02*
G03X12909381Y6481516I-19685J0D01*
X12926038Y6462065D02*
G01Y6366359D01*
X12909381Y6346908D02*
G03X12926038Y6366359I-3029J19451D01*
X12592573Y6752795D02*
G01X12134699D01*
X13818830Y6346908D02*
G03X13818830Y6284666I4845J-31121D01*
X13835486Y6265215D02*
G03X13818830Y6284666I-19685J0D01*
X13835486Y6265215D02*
G01Y6134684D01*
X13776431Y6075629D02*
G03X13835486Y6134684I0J59055D01*
X13659502Y6075629D02*
G01X13776431D01*
X13651628Y6083503D02*
G03X13659502Y6075629I7874J0D01*
X13651628Y6083503D02*
G01Y6148464D01*
G03X13643754Y6156338I-7874J0D01*
G01X13517770D01*
G03X13509896Y6148464I0J-7874D01*
G01Y6083503D01*
X13502022Y6075629D02*
G03X13509896Y6083503I0J7874D01*
X13044148Y6075629D02*
G01X13502022D01*
X12985093Y6134684D02*
G03X13044148Y6075629I59055J0D01*
X12985093Y6693739D02*
G01Y6134684D01*
X13044148Y6752795D02*
G03X12985093Y6693739I0J-59055D01*
X13509896Y6744921D02*
G03X13502022Y6752795I-7874J0D01*
X13509896Y6679960D02*
G01Y6744921D01*
Y6679960D02*
G03X13517770Y6672086I7874J0D01*
X13643754D02*
G01X13517770D01*
X13643754D02*
G03X13651628Y6679960I0J7874D01*
Y6744921D02*
G01Y6679960D01*
X13659502Y6752795D02*
G03X13651628Y6744921I0J-7874D01*
X13776431Y6752795D02*
G01X13659502D01*
X13835486Y6693739D02*
G03X13776431Y6752795I-59055J0D01*
X13835486Y6693739D02*
G01Y6563209D01*
X13818830Y6543758D02*
G03X13835486Y6563209I-3029J19451D01*
X13818830Y6543758D02*
G03X13818830Y6481516I4845J-31121D01*
X13835486Y6462065D02*
G03X13818830Y6481516I-19685J0D01*
X13835486Y6462065D02*
G01Y6366359D01*
X13818830Y6346908D02*
G03X13835486Y6366359I-3029J19451D01*
X13502022Y6752795D02*
G01X13044148D01*
X14728279Y6346908D02*
G03X14728279Y6284666I4845J-31121D01*
X14744935Y6265215D02*
G03X14728279Y6284666I-19685J0D01*
X14744935Y6265215D02*
G01Y6134684D01*
X14685880Y6075629D02*
G03X14744935Y6134684I0J59055D01*
X14568951Y6075629D02*
G01X14685880D01*
X14561077Y6083503D02*
G03X14568951Y6075629I7874J0D01*
X14561077Y6083503D02*
G01Y6148464D01*
G03X14553203Y6156338I-7874J0D01*
G01X14427219D01*
G03X14419345Y6148464I0J-7874D01*
G01Y6083503D01*
X14411471Y6075629D02*
G03X14419345Y6083503I0J7874D01*
X13953597Y6075629D02*
G01X14411471D01*
X13894542Y6134684D02*
G03X13953597Y6075629I59055J0D01*
X13894542Y6693739D02*
G01Y6134684D01*
X13953597Y6752795D02*
G03X13894542Y6693739I0J-59055D01*
X14419345Y6744921D02*
G03X14411471Y6752795I-7874J0D01*
X14419345Y6679960D02*
G01Y6744921D01*
Y6679960D02*
G03X14427219Y6672086I7874J0D01*
X14553203D02*
G01X14427219D01*
X14553203D02*
G03X14561077Y6679960I0J7874D01*
Y6744921D02*
G01Y6679960D01*
X14568951Y6752795D02*
G03X14561077Y6744921I0J-7874D01*
X14685880Y6752795D02*
G01X14568951D01*
X14744935Y6693739D02*
G03X14685880Y6752795I-59055J0D01*
X14744935Y6693739D02*
G01Y6563209D01*
X14728279Y6543758D02*
G03X14744935Y6563209I-3029J19451D01*
X14728279Y6543758D02*
G03X14728279Y6481516I4845J-31121D01*
X14744935Y6462065D02*
G03X14728279Y6481516I-19685J0D01*
X14744935Y6462065D02*
G01Y6366359D01*
X14728279Y6346908D02*
G03X14744935Y6366359I-3029J19451D01*
X14411471Y6752795D02*
G01X13953597D01*
X8066861Y5610687D02*
G03X8066861Y5548445I4845J-31121D01*
X8083518Y5528994D02*
G03X8066861Y5548445I-19685J0D01*
X8083518Y5528994D02*
G01Y5398464D01*
X8024463Y5339409D02*
G03X8083518Y5398464I0J59055D01*
X7907534Y5339409D02*
G01X8024463D01*
X7899660Y5347283D02*
G03X7907534Y5339409I7874J0D01*
X7899660Y5347283D02*
G01Y5412243D01*
G03X7891786Y5420117I-7874J0D01*
G01X7765801D01*
G03X7757927Y5412243I0J-7874D01*
G01Y5347283D01*
X7750053Y5339409D02*
G03X7757927Y5347283I0J7874D01*
X7292179Y5339409D02*
G01X7750053D01*
X7233124Y5398464D02*
G03X7292179Y5339409I59055J0D01*
X7233124Y5957519D02*
G01Y5398464D01*
X7292179Y6016574D02*
G03X7233124Y5957519I0J-59055D01*
X7757927Y6008700D02*
G03X7750053Y6016574I-7874J0D01*
X7757927Y5943739D02*
G01Y6008700D01*
Y5943739D02*
G03X7765801Y5935865I7874J0D01*
X7891786D02*
G01X7765801D01*
X7891786D02*
G03X7899660Y5943739I0J7874D01*
Y6008700D02*
G01Y5943739D01*
X7907534Y6016574D02*
G03X7899660Y6008700I0J-7874D01*
X8024463Y6016574D02*
G01X7907534D01*
X8083518Y5957519D02*
G03X8024463Y6016574I-59055J0D01*
X8083518Y5957519D02*
G01Y5826988D01*
X8066861Y5807538D02*
G03X8083518Y5826988I-3029J19451D01*
X8066861Y5807538D02*
G03X8066861Y5745296I4845J-31121D01*
X8083518Y5725845D02*
G03X8066861Y5745296I-19685J0D01*
X8083518Y5725845D02*
G01Y5630138D01*
X8066861Y5610687D02*
G03X8083518Y5630138I-3029J19451D01*
X7750053Y6016574D02*
G01X7292179D01*
X8976310Y5610687D02*
G03X8976310Y5548445I4845J-31121D01*
X8992967Y5528994D02*
G03X8976310Y5548445I-19685J0D01*
X8992967Y5528994D02*
G01Y5398464D01*
X8933912Y5339409D02*
G03X8992967Y5398464I0J59055D01*
X8816982Y5339409D02*
G01X8933912D01*
X8809108Y5347283D02*
G03X8816982Y5339409I7874J0D01*
X8809108Y5347283D02*
G01Y5412243D01*
G03X8801234Y5420117I-7874J0D01*
G01X8675250D01*
G03X8667376Y5412243I0J-7874D01*
G01Y5347283D01*
X8659502Y5339409D02*
G03X8667376Y5347283I0J7874D01*
X8201628Y5339409D02*
G01X8659502D01*
X8142573Y5398464D02*
G03X8201628Y5339409I59055J0D01*
X8142573Y5957519D02*
G01Y5398464D01*
X8201628Y6016574D02*
G03X8142573Y5957519I0J-59055D01*
X8667376Y6008700D02*
G03X8659502Y6016574I-7874J0D01*
X8667376Y5943739D02*
G01Y6008700D01*
Y5943739D02*
G03X8675250Y5935865I7874J0D01*
X8801234D02*
G01X8675250D01*
X8801234D02*
G03X8809108Y5943739I0J7874D01*
Y6008700D02*
G01Y5943739D01*
X8816982Y6016574D02*
G03X8809108Y6008700I0J-7874D01*
X8933912Y6016574D02*
G01X8816982D01*
X8992967Y5957519D02*
G03X8933912Y6016574I-59055J0D01*
X8992967Y5957519D02*
G01Y5826988D01*
X8976310Y5807538D02*
G03X8992967Y5826988I-3029J19451D01*
X8976310Y5807538D02*
G03X8976310Y5745296I4845J-31121D01*
X8992967Y5725845D02*
G03X8976310Y5745296I-19685J0D01*
X8992967Y5725845D02*
G01Y5630138D01*
X8976310Y5610687D02*
G03X8992967Y5630138I-3029J19451D01*
X8659502Y6016574D02*
G01X8201628D01*
X9885759Y5610687D02*
G03X9885759Y5548445I4845J-31121D01*
X9902416Y5528994D02*
G03X9885759Y5548445I-19685J0D01*
X9902416Y5528994D02*
G01Y5398464D01*
X9843360Y5339409D02*
G03X9902416Y5398464I0J59055D01*
X9726431Y5339409D02*
G01X9843360D01*
X9718557Y5347283D02*
G03X9726431Y5339409I7874J0D01*
X9718557Y5347283D02*
G01Y5412243D01*
G03X9710683Y5420117I-7874J0D01*
G01X9584699D01*
G03X9576825Y5412243I0J-7874D01*
G01Y5347283D01*
X9568951Y5339409D02*
G03X9576825Y5347283I0J7874D01*
X9111077Y5339409D02*
G01X9568951D01*
X9052022Y5398464D02*
G03X9111077Y5339409I59055J0D01*
X9052022Y5957519D02*
G01Y5398464D01*
X9111077Y6016574D02*
G03X9052022Y5957519I0J-59055D01*
X9576825Y6008700D02*
G03X9568951Y6016574I-7874J0D01*
X9576825Y5943739D02*
G01Y6008700D01*
Y5943739D02*
G03X9584699Y5935865I7874J0D01*
X9710683D02*
G01X9584699D01*
X9710683D02*
G03X9718557Y5943739I0J7874D01*
Y6008700D02*
G01Y5943739D01*
X9726431Y6016574D02*
G03X9718557Y6008700I0J-7874D01*
X9843360Y6016574D02*
G01X9726431D01*
X9902416Y5957519D02*
G03X9843360Y6016574I-59055J0D01*
X9902416Y5957519D02*
G01Y5826988D01*
X9885759Y5807538D02*
G03X9902416Y5826988I-3029J19451D01*
X9885759Y5807538D02*
G03X9885759Y5745296I4845J-31121D01*
X9902416Y5725845D02*
G03X9885759Y5745296I-19685J0D01*
X9902416Y5725845D02*
G01Y5630138D01*
X9885759Y5610687D02*
G03X9902416Y5630138I-3029J19451D01*
X9568951Y6016574D02*
G01X9111077D01*
X10795208Y5610687D02*
G03X10795208Y5548445I4845J-31121D01*
X10811864Y5528994D02*
G03X10795208Y5548445I-19685J0D01*
X10811864Y5528994D02*
G01Y5398464D01*
X10752809Y5339409D02*
G03X10811864Y5398464I0J59055D01*
X10635880Y5339409D02*
G01X10752809D01*
X10628006Y5347283D02*
G03X10635880Y5339409I7874J0D01*
X10628006Y5347283D02*
G01Y5412243D01*
G03X10620132Y5420117I-7874J0D01*
G01X10494148D01*
G03X10486274Y5412243I0J-7874D01*
G01Y5347283D01*
X10478400Y5339409D02*
G03X10486274Y5347283I0J7874D01*
X10020526Y5339409D02*
G01X10478400D01*
X9961471Y5398464D02*
G03X10020526Y5339409I59055J0D01*
X9961471Y5957519D02*
G01Y5398464D01*
X10020526Y6016574D02*
G03X9961471Y5957519I0J-59055D01*
X10486274Y6008700D02*
G03X10478400Y6016574I-7874J0D01*
X10486274Y5943739D02*
G01Y6008700D01*
Y5943739D02*
G03X10494148Y5935865I7874J0D01*
X10620132D02*
G01X10494148D01*
X10620132D02*
G03X10628006Y5943739I0J7874D01*
Y6008700D02*
G01Y5943739D01*
X10635880Y6016574D02*
G03X10628006Y6008700I0J-7874D01*
X10752809Y6016574D02*
G01X10635880D01*
X10811864Y5957519D02*
G03X10752809Y6016574I-59055J0D01*
X10811864Y5957519D02*
G01Y5826988D01*
X10795208Y5807538D02*
G03X10811864Y5826988I-3029J19451D01*
X10795208Y5807538D02*
G03X10795208Y5745296I4845J-31121D01*
X10811864Y5725845D02*
G03X10795208Y5745296I-19685J0D01*
X10811864Y5725845D02*
G01Y5630138D01*
X10795208Y5610687D02*
G03X10811864Y5630138I-3029J19451D01*
X10478400Y6016574D02*
G01X10020526D01*
X11999932Y5610687D02*
G03X11999932Y5548445I4845J-31121D01*
X12016589Y5528994D02*
G03X11999932Y5548445I-19685J0D01*
X12016589Y5528994D02*
G01Y5398464D01*
X11957534Y5339409D02*
G03X12016589Y5398464I0J59055D01*
X11840605Y5339409D02*
G01X11957534D01*
X11832731Y5347283D02*
G03X11840605Y5339409I7874J0D01*
X11832731Y5347283D02*
G01Y5412243D01*
G03X11824856Y5420117I-7874J0D01*
G01X11698872D01*
G03X11690998Y5412243I0J-7874D01*
G01Y5347283D01*
X11683124Y5339409D02*
G03X11690998Y5347283I0J7874D01*
X11225250Y5339409D02*
G01X11683124D01*
X11166195Y5398464D02*
G03X11225250Y5339409I59055J0D01*
X11166195Y5957519D02*
G01Y5398464D01*
X11225250Y6016574D02*
G03X11166195Y5957519I0J-59055D01*
X11690998Y6008700D02*
G03X11683124Y6016574I-7874J0D01*
X11690998Y5943739D02*
G01Y6008700D01*
Y5943739D02*
G03X11698872Y5935865I7874J0D01*
X11824856D02*
G01X11698872D01*
X11824856D02*
G03X11832731Y5943739I0J7874D01*
Y6008700D02*
G01Y5943739D01*
X11840605Y6016574D02*
G03X11832731Y6008700I0J-7874D01*
X11957534Y6016574D02*
G01X11840605D01*
X12016589Y5957519D02*
G03X11957534Y6016574I-59055J0D01*
X12016589Y5957519D02*
G01Y5826988D01*
X11999932Y5807538D02*
G03X12016589Y5826988I-3029J19451D01*
X11999932Y5807538D02*
G03X11999932Y5745296I4845J-31121D01*
X12016589Y5725845D02*
G03X11999932Y5745296I-19685J0D01*
X12016589Y5725845D02*
G01Y5630138D01*
X11999932Y5610687D02*
G03X12016589Y5630138I-3029J19451D01*
X11683124Y6016574D02*
G01X11225250D01*
X12909381Y5610687D02*
G03X12909381Y5548445I4845J-31121D01*
X12926038Y5528994D02*
G03X12909381Y5548445I-19685J0D01*
X12926038Y5528994D02*
G01Y5398464D01*
X12866982Y5339409D02*
G03X12926038Y5398464I0J59055D01*
X12750053Y5339409D02*
G01X12866982D01*
X12742179Y5347283D02*
G03X12750053Y5339409I7874J0D01*
X12742179Y5347283D02*
G01Y5412243D01*
G03X12734305Y5420117I-7874J0D01*
G01X12608321D01*
G03X12600447Y5412243I0J-7874D01*
G01Y5347283D01*
X12592573Y5339409D02*
G03X12600447Y5347283I0J7874D01*
X12134699Y5339409D02*
G01X12592573D01*
X12075644Y5398464D02*
G03X12134699Y5339409I59055J0D01*
X12075644Y5957519D02*
G01Y5398464D01*
X12134699Y6016574D02*
G03X12075644Y5957519I0J-59055D01*
X12600447Y6008700D02*
G03X12592573Y6016574I-7874J0D01*
X12600447Y5943739D02*
G01Y6008700D01*
Y5943739D02*
G03X12608321Y5935865I7874J0D01*
X12734305D02*
G01X12608321D01*
X12734305D02*
G03X12742179Y5943739I0J7874D01*
Y6008700D02*
G01Y5943739D01*
X12750053Y6016574D02*
G03X12742179Y6008700I0J-7874D01*
X12866982Y6016574D02*
G01X12750053D01*
X12926038Y5957519D02*
G03X12866982Y6016574I-59055J0D01*
X12926038Y5957519D02*
G01Y5826988D01*
X12909381Y5807538D02*
G03X12926038Y5826988I-3029J19451D01*
X12909381Y5807538D02*
G03X12909381Y5745296I4845J-31121D01*
X12926038Y5725845D02*
G03X12909381Y5745296I-19685J0D01*
X12926038Y5725845D02*
G01Y5630138D01*
X12909381Y5610687D02*
G03X12926038Y5630138I-3029J19451D01*
X12592573Y6016574D02*
G01X12134699D01*
X13818830Y5610687D02*
G03X13818830Y5548445I4845J-31121D01*
X13835486Y5528994D02*
G03X13818830Y5548445I-19685J0D01*
X13835486Y5528994D02*
G01Y5398464D01*
X13776431Y5339409D02*
G03X13835486Y5398464I0J59055D01*
X13659502Y5339409D02*
G01X13776431D01*
X13651628Y5347283D02*
G03X13659502Y5339409I7874J0D01*
X13651628Y5347283D02*
G01Y5412243D01*
G03X13643754Y5420117I-7874J0D01*
G01X13517770D01*
G03X13509896Y5412243I0J-7874D01*
G01Y5347283D01*
X13502022Y5339409D02*
G03X13509896Y5347283I0J7874D01*
X13044148Y5339409D02*
G01X13502022D01*
X12985093Y5398464D02*
G03X13044148Y5339409I59055J0D01*
X12985093Y5957519D02*
G01Y5398464D01*
X13044148Y6016574D02*
G03X12985093Y5957519I0J-59055D01*
X13509896Y6008700D02*
G03X13502022Y6016574I-7874J0D01*
X13509896Y5943739D02*
G01Y6008700D01*
Y5943739D02*
G03X13517770Y5935865I7874J0D01*
X13643754D02*
G01X13517770D01*
X13643754D02*
G03X13651628Y5943739I0J7874D01*
Y6008700D02*
G01Y5943739D01*
X13659502Y6016574D02*
G03X13651628Y6008700I0J-7874D01*
X13776431Y6016574D02*
G01X13659502D01*
X13835486Y5957519D02*
G03X13776431Y6016574I-59055J0D01*
X13835486Y5957519D02*
G01Y5826988D01*
X13818830Y5807538D02*
G03X13835486Y5826988I-3029J19451D01*
X13818830Y5807538D02*
G03X13818830Y5745296I4845J-31121D01*
X13835486Y5725845D02*
G03X13818830Y5745296I-19685J0D01*
X13835486Y5725845D02*
G01Y5630138D01*
X13818830Y5610687D02*
G03X13835486Y5630138I-3029J19451D01*
X13502022Y6016574D02*
G01X13044148D01*
X14728279Y5610687D02*
G03X14728279Y5548445I4845J-31121D01*
X14744935Y5528994D02*
G03X14728279Y5548445I-19685J0D01*
X14744935Y5528994D02*
G01Y5398464D01*
X14685880Y5339409D02*
G03X14744935Y5398464I0J59055D01*
X14568951Y5339409D02*
G01X14685880D01*
X14561077Y5347283D02*
G03X14568951Y5339409I7874J0D01*
X14561077Y5347283D02*
G01Y5412243D01*
G03X14553203Y5420117I-7874J0D01*
G01X14427219D01*
G03X14419345Y5412243I0J-7874D01*
G01Y5347283D01*
X14411471Y5339409D02*
G03X14419345Y5347283I0J7874D01*
X13953597Y5339409D02*
G01X14411471D01*
X13894542Y5398464D02*
G03X13953597Y5339409I59055J0D01*
X13894542Y5957519D02*
G01Y5398464D01*
X13953597Y6016574D02*
G03X13894542Y5957519I0J-59055D01*
X14419345Y6008700D02*
G03X14411471Y6016574I-7874J0D01*
X14419345Y5943739D02*
G01Y6008700D01*
Y5943739D02*
G03X14427219Y5935865I7874J0D01*
X14553203D02*
G01X14427219D01*
X14553203D02*
G03X14561077Y5943739I0J7874D01*
Y6008700D02*
G01Y5943739D01*
X14568951Y6016574D02*
G03X14561077Y6008700I0J-7874D01*
X14685880Y6016574D02*
G01X14568951D01*
X14744935Y5957519D02*
G03X14685880Y6016574I-59055J0D01*
X14744935Y5957519D02*
G01Y5826988D01*
X14728279Y5807538D02*
G03X14744935Y5826988I-3029J19451D01*
X14728279Y5807538D02*
G03X14728279Y5745296I4845J-31121D01*
X14744935Y5725845D02*
G03X14728279Y5745296I-19685J0D01*
X14744935Y5725845D02*
G01Y5630138D01*
X14728279Y5610687D02*
G03X14744935Y5630138I-3029J19451D01*
X14411471Y6016574D02*
G01X13953597D01*
X8066861Y4874467D02*
G03X8066861Y4812225I4845J-31121D01*
X8083518Y4792774D02*
G03X8066861Y4812225I-19685J0D01*
X8083518Y4792774D02*
G01Y4662243D01*
X8024463Y4603188D02*
G03X8083518Y4662243I0J59055D01*
X7907534Y4603188D02*
G01X8024463D01*
X7899660Y4611062D02*
G03X7907534Y4603188I7874J0D01*
X7899660Y4611062D02*
G01Y4676023D01*
G03X7891786Y4683897I-7874J0D01*
G01X7765801D01*
G03X7757927Y4676023I0J-7874D01*
G01Y4611062D01*
X7750053Y4603188D02*
G03X7757927Y4611062I0J7874D01*
X7292179Y4603188D02*
G01X7750053D01*
X7233124Y4662243D02*
G03X7292179Y4603188I59055J0D01*
X7233124Y5221299D02*
G01Y4662243D01*
X7292179Y5280354D02*
G03X7233124Y5221299I0J-59055D01*
X7757927Y5272480D02*
G03X7750053Y5280354I-7874J0D01*
X7757927Y5207519D02*
G01Y5272480D01*
Y5207519D02*
G03X7765801Y5199645I7874J0D01*
X7891786D02*
G01X7765801D01*
X7891786D02*
G03X7899660Y5207519I0J7874D01*
Y5272480D02*
G01Y5207519D01*
X7907534Y5280354D02*
G03X7899660Y5272480I0J-7874D01*
X8024463Y5280354D02*
G01X7907534D01*
X8083518Y5221299D02*
G03X8024463Y5280354I-59055J0D01*
X8083518Y5221299D02*
G01Y5090768D01*
X8066861Y5071317D02*
G03X8083518Y5090768I-3029J19451D01*
X8066861Y5071317D02*
G03X8066861Y5009075I4845J-31121D01*
X8083518Y4989624D02*
G03X8066861Y5009075I-19685J0D01*
X8083518Y4989624D02*
G01Y4893918D01*
X8066861Y4874467D02*
G03X8083518Y4893918I-3029J19451D01*
X7750053Y5280354D02*
G01X7292179D01*
X8976310Y4874467D02*
G03X8976310Y4812225I4845J-31121D01*
X8992967Y4792774D02*
G03X8976310Y4812225I-19685J0D01*
X8992967Y4792774D02*
G01Y4662243D01*
X8933912Y4603188D02*
G03X8992967Y4662243I0J59055D01*
X8816982Y4603188D02*
G01X8933912D01*
X8809108Y4611062D02*
G03X8816982Y4603188I7874J0D01*
X8809108Y4611062D02*
G01Y4676023D01*
G03X8801234Y4683897I-7874J0D01*
G01X8675250D01*
G03X8667376Y4676023I0J-7874D01*
G01Y4611062D01*
X8659502Y4603188D02*
G03X8667376Y4611062I0J7874D01*
X8201628Y4603188D02*
G01X8659502D01*
X8142573Y4662243D02*
G03X8201628Y4603188I59055J0D01*
X8142573Y5221299D02*
G01Y4662243D01*
X8201628Y5280354D02*
G03X8142573Y5221299I0J-59055D01*
X8667376Y5272480D02*
G03X8659502Y5280354I-7874J0D01*
X8667376Y5207519D02*
G01Y5272480D01*
Y5207519D02*
G03X8675250Y5199645I7874J0D01*
X8801234D02*
G01X8675250D01*
X8801234D02*
G03X8809108Y5207519I0J7874D01*
Y5272480D02*
G01Y5207519D01*
X8816982Y5280354D02*
G03X8809108Y5272480I0J-7874D01*
X8933912Y5280354D02*
G01X8816982D01*
X8992967Y5221299D02*
G03X8933912Y5280354I-59055J0D01*
X8992967Y5221299D02*
G01Y5090768D01*
X8976310Y5071317D02*
G03X8992967Y5090768I-3029J19451D01*
X8976310Y5071317D02*
G03X8976310Y5009075I4845J-31121D01*
X8992967Y4989624D02*
G03X8976310Y5009075I-19685J0D01*
X8992967Y4989624D02*
G01Y4893918D01*
X8976310Y4874467D02*
G03X8992967Y4893918I-3029J19451D01*
X8659502Y5280354D02*
G01X8201628D01*
X9885759Y4874467D02*
G03X9885759Y4812225I4845J-31121D01*
X9902416Y4792774D02*
G03X9885759Y4812225I-19685J0D01*
X9902416Y4792774D02*
G01Y4662243D01*
X9843360Y4603188D02*
G03X9902416Y4662243I0J59055D01*
X9726431Y4603188D02*
G01X9843360D01*
X9718557Y4611062D02*
G03X9726431Y4603188I7874J0D01*
X9718557Y4611062D02*
G01Y4676023D01*
G03X9710683Y4683897I-7874J0D01*
G01X9584699D01*
G03X9576825Y4676023I0J-7874D01*
G01Y4611062D01*
X9568951Y4603188D02*
G03X9576825Y4611062I0J7874D01*
X9111077Y4603188D02*
G01X9568951D01*
X9052022Y4662243D02*
G03X9111077Y4603188I59055J0D01*
X9052022Y5221299D02*
G01Y4662243D01*
X9111077Y5280354D02*
G03X9052022Y5221299I0J-59055D01*
X9576825Y5272480D02*
G03X9568951Y5280354I-7874J0D01*
X9576825Y5207519D02*
G01Y5272480D01*
Y5207519D02*
G03X9584699Y5199645I7874J0D01*
X9710683D02*
G01X9584699D01*
X9710683D02*
G03X9718557Y5207519I0J7874D01*
Y5272480D02*
G01Y5207519D01*
X9726431Y5280354D02*
G03X9718557Y5272480I0J-7874D01*
X9843360Y5280354D02*
G01X9726431D01*
X9902416Y5221299D02*
G03X9843360Y5280354I-59055J0D01*
X9902416Y5221299D02*
G01Y5090768D01*
X9885759Y5071317D02*
G03X9902416Y5090768I-3029J19451D01*
X9885759Y5071317D02*
G03X9885759Y5009075I4845J-31121D01*
X9902416Y4989624D02*
G03X9885759Y5009075I-19685J0D01*
X9902416Y4989624D02*
G01Y4893918D01*
X9885759Y4874467D02*
G03X9902416Y4893918I-3029J19451D01*
X9568951Y5280354D02*
G01X9111077D01*
X10795208Y4874467D02*
G03X10795208Y4812225I4845J-31121D01*
X10811864Y4792774D02*
G03X10795208Y4812225I-19685J0D01*
X10811864Y4792774D02*
G01Y4662243D01*
X10752809Y4603188D02*
G03X10811864Y4662243I0J59055D01*
X10635880Y4603188D02*
G01X10752809D01*
X10628006Y4611062D02*
G03X10635880Y4603188I7874J0D01*
X10628006Y4611062D02*
G01Y4676023D01*
G03X10620132Y4683897I-7874J0D01*
G01X10494148D01*
G03X10486274Y4676023I0J-7874D01*
G01Y4611062D01*
X10478400Y4603188D02*
G03X10486274Y4611062I0J7874D01*
X10020526Y4603188D02*
G01X10478400D01*
X9961471Y4662243D02*
G03X10020526Y4603188I59055J0D01*
X9961471Y5221299D02*
G01Y4662243D01*
X10020526Y5280354D02*
G03X9961471Y5221299I0J-59055D01*
X10486274Y5272480D02*
G03X10478400Y5280354I-7874J0D01*
X10486274Y5207519D02*
G01Y5272480D01*
Y5207519D02*
G03X10494148Y5199645I7874J0D01*
X10620132D02*
G01X10494148D01*
X10620132D02*
G03X10628006Y5207519I0J7874D01*
Y5272480D02*
G01Y5207519D01*
X10635880Y5280354D02*
G03X10628006Y5272480I0J-7874D01*
X10752809Y5280354D02*
G01X10635880D01*
X10811864Y5221299D02*
G03X10752809Y5280354I-59055J0D01*
X10811864Y5221299D02*
G01Y5090768D01*
X10795208Y5071317D02*
G03X10811864Y5090768I-3029J19451D01*
X10795208Y5071317D02*
G03X10795208Y5009075I4845J-31121D01*
X10811864Y4989624D02*
G03X10795208Y5009075I-19685J0D01*
X10811864Y4989624D02*
G01Y4893918D01*
X10795208Y4874467D02*
G03X10811864Y4893918I-3029J19451D01*
X10478400Y5280354D02*
G01X10020526D01*
X11999932Y4874467D02*
G03X11999932Y4812225I4845J-31121D01*
X12016589Y4792774D02*
G03X11999932Y4812225I-19685J0D01*
X12016589Y4792774D02*
G01Y4662243D01*
X11957534Y4603188D02*
G03X12016589Y4662243I0J59055D01*
X11840605Y4603188D02*
G01X11957534D01*
X11832731Y4611062D02*
G03X11840605Y4603188I7874J0D01*
X11832731Y4611062D02*
G01Y4676023D01*
G03X11824856Y4683897I-7874J0D01*
G01X11698872D01*
G03X11690998Y4676023I0J-7874D01*
G01Y4611062D01*
X11683124Y4603188D02*
G03X11690998Y4611062I0J7874D01*
X11225250Y4603188D02*
G01X11683124D01*
X11166195Y4662243D02*
G03X11225250Y4603188I59055J0D01*
X11166195Y5221299D02*
G01Y4662243D01*
X11225250Y5280354D02*
G03X11166195Y5221299I0J-59055D01*
X11690998Y5272480D02*
G03X11683124Y5280354I-7874J0D01*
X11690998Y5207519D02*
G01Y5272480D01*
Y5207519D02*
G03X11698872Y5199645I7874J0D01*
X11824856D02*
G01X11698872D01*
X11824856D02*
G03X11832731Y5207519I0J7874D01*
Y5272480D02*
G01Y5207519D01*
X11840605Y5280354D02*
G03X11832731Y5272480I0J-7874D01*
X11957534Y5280354D02*
G01X11840605D01*
X12016589Y5221299D02*
G03X11957534Y5280354I-59055J0D01*
X12016589Y5221299D02*
G01Y5090768D01*
X11999932Y5071317D02*
G03X12016589Y5090768I-3029J19451D01*
X11999932Y5071317D02*
G03X11999932Y5009075I4845J-31121D01*
X12016589Y4989624D02*
G03X11999932Y5009075I-19685J0D01*
X12016589Y4989624D02*
G01Y4893918D01*
X11999932Y4874467D02*
G03X12016589Y4893918I-3029J19451D01*
X11683124Y5280354D02*
G01X11225250D01*
X12909381Y4874467D02*
G03X12909381Y4812225I4845J-31121D01*
X12926038Y4792774D02*
G03X12909381Y4812225I-19685J0D01*
X12926038Y4792774D02*
G01Y4662243D01*
X12866982Y4603188D02*
G03X12926038Y4662243I0J59055D01*
X12750053Y4603188D02*
G01X12866982D01*
X12742179Y4611062D02*
G03X12750053Y4603188I7874J0D01*
X12742179Y4611062D02*
G01Y4676023D01*
G03X12734305Y4683897I-7874J0D01*
G01X12608321D01*
G03X12600447Y4676023I0J-7874D01*
G01Y4611062D01*
X12592573Y4603188D02*
G03X12600447Y4611062I0J7874D01*
X12134699Y4603188D02*
G01X12592573D01*
X12075644Y4662243D02*
G03X12134699Y4603188I59055J0D01*
X12075644Y5221299D02*
G01Y4662243D01*
X12134699Y5280354D02*
G03X12075644Y5221299I0J-59055D01*
X12600447Y5272480D02*
G03X12592573Y5280354I-7874J0D01*
X12600447Y5207519D02*
G01Y5272480D01*
Y5207519D02*
G03X12608321Y5199645I7874J0D01*
X12734305D02*
G01X12608321D01*
X12734305D02*
G03X12742179Y5207519I0J7874D01*
Y5272480D02*
G01Y5207519D01*
X12750053Y5280354D02*
G03X12742179Y5272480I0J-7874D01*
X12866982Y5280354D02*
G01X12750053D01*
X12926038Y5221299D02*
G03X12866982Y5280354I-59055J0D01*
X12926038Y5221299D02*
G01Y5090768D01*
X12909381Y5071317D02*
G03X12926038Y5090768I-3029J19451D01*
X12909381Y5071317D02*
G03X12909381Y5009075I4845J-31121D01*
X12926038Y4989624D02*
G03X12909381Y5009075I-19685J0D01*
X12926038Y4989624D02*
G01Y4893918D01*
X12909381Y4874467D02*
G03X12926038Y4893918I-3029J19451D01*
X12592573Y5280354D02*
G01X12134699D01*
X13818830Y4874467D02*
G03X13818830Y4812225I4845J-31121D01*
X13835486Y4792774D02*
G03X13818830Y4812225I-19685J0D01*
X13835486Y4792774D02*
G01Y4662243D01*
X13776431Y4603188D02*
G03X13835486Y4662243I0J59055D01*
X13659502Y4603188D02*
G01X13776431D01*
X13651628Y4611062D02*
G03X13659502Y4603188I7874J0D01*
X13651628Y4611062D02*
G01Y4676023D01*
G03X13643754Y4683897I-7874J0D01*
G01X13517770D01*
G03X13509896Y4676023I0J-7874D01*
G01Y4611062D01*
X13502022Y4603188D02*
G03X13509896Y4611062I0J7874D01*
X13044148Y4603188D02*
G01X13502022D01*
X12985093Y4662243D02*
G03X13044148Y4603188I59055J0D01*
X12985093Y5221299D02*
G01Y4662243D01*
X13044148Y5280354D02*
G03X12985093Y5221299I0J-59055D01*
X13509896Y5272480D02*
G03X13502022Y5280354I-7874J0D01*
X13509896Y5207519D02*
G01Y5272480D01*
Y5207519D02*
G03X13517770Y5199645I7874J0D01*
X13643754D02*
G01X13517770D01*
X13643754D02*
G03X13651628Y5207519I0J7874D01*
Y5272480D02*
G01Y5207519D01*
X13659502Y5280354D02*
G03X13651628Y5272480I0J-7874D01*
X13776431Y5280354D02*
G01X13659502D01*
X13835486Y5221299D02*
G03X13776431Y5280354I-59055J0D01*
X13835486Y5221299D02*
G01Y5090768D01*
X13818830Y5071317D02*
G03X13835486Y5090768I-3029J19451D01*
X13818830Y5071317D02*
G03X13818830Y5009075I4845J-31121D01*
X13835486Y4989624D02*
G03X13818830Y5009075I-19685J0D01*
X13835486Y4989624D02*
G01Y4893918D01*
X13818830Y4874467D02*
G03X13835486Y4893918I-3029J19451D01*
X13502022Y5280354D02*
G01X13044148D01*
X14728279Y4874467D02*
G03X14728279Y4812225I4845J-31121D01*
X14744935Y4792774D02*
G03X14728279Y4812225I-19685J0D01*
X14744935Y4792774D02*
G01Y4662243D01*
X14685880Y4603188D02*
G03X14744935Y4662243I0J59055D01*
X14568951Y4603188D02*
G01X14685880D01*
X14561077Y4611062D02*
G03X14568951Y4603188I7874J0D01*
X14561077Y4611062D02*
G01Y4676023D01*
G03X14553203Y4683897I-7874J0D01*
G01X14427219D01*
G03X14419345Y4676023I0J-7874D01*
G01Y4611062D01*
X14411471Y4603188D02*
G03X14419345Y4611062I0J7874D01*
X13953597Y4603188D02*
G01X14411471D01*
X13894542Y4662243D02*
G03X13953597Y4603188I59055J0D01*
X13894542Y5221299D02*
G01Y4662243D01*
X13953597Y5280354D02*
G03X13894542Y5221299I0J-59055D01*
X14419345Y5272480D02*
G03X14411471Y5280354I-7874J0D01*
X14419345Y5207519D02*
G01Y5272480D01*
Y5207519D02*
G03X14427219Y5199645I7874J0D01*
X14553203D02*
G01X14427219D01*
X14553203D02*
G03X14561077Y5207519I0J7874D01*
Y5272480D02*
G01Y5207519D01*
X14568951Y5280354D02*
G03X14561077Y5272480I0J-7874D01*
X14685880Y5280354D02*
G01X14568951D01*
X14744935Y5221299D02*
G03X14685880Y5280354I-59055J0D01*
X14744935Y5221299D02*
G01Y5090768D01*
X14728279Y5071317D02*
G03X14744935Y5090768I-3029J19451D01*
X14728279Y5071317D02*
G03X14728279Y5009075I4845J-31121D01*
X14744935Y4989624D02*
G03X14728279Y5009075I-19685J0D01*
X14744935Y4989624D02*
G01Y4893918D01*
X14728279Y4874467D02*
G03X14744935Y4893918I-3029J19451D01*
X14411471Y5280354D02*
G01X13953597D01*
X8066861Y4138246D02*
G03X8066861Y4076004I4845J-31121D01*
X8083518Y4056553D02*
G03X8066861Y4076004I-19685J0D01*
X8083518Y4056553D02*
G01Y3926023D01*
X8024463Y3866968D02*
G03X8083518Y3926023I0J59055D01*
X7907534Y3866968D02*
G01X8024463D01*
X7899660Y3874842D02*
G03X7907534Y3866968I7874J0D01*
X7899660Y3874842D02*
G01Y3939802D01*
G03X7891786Y3947676I-7874J0D01*
G01X7765801D01*
G03X7757927Y3939802I0J-7874D01*
G01Y3874842D01*
X7750053Y3866968D02*
G03X7757927Y3874842I0J7874D01*
X7292179Y3866968D02*
G01X7750053D01*
X7233124Y3926023D02*
G03X7292179Y3866968I59055J0D01*
X7233124Y4485078D02*
G01Y3926023D01*
X7292179Y4544133D02*
G03X7233124Y4485078I0J-59055D01*
X7757927Y4536259D02*
G03X7750053Y4544133I-7874J0D01*
X7757927Y4471299D02*
G01Y4536259D01*
Y4471299D02*
G03X7765801Y4463425I7874J0D01*
X7891786D02*
G01X7765801D01*
X7891786D02*
G03X7899660Y4471299I0J7874D01*
Y4536259D02*
G01Y4471299D01*
X7907534Y4544133D02*
G03X7899660Y4536259I0J-7874D01*
X8024463Y4544133D02*
G01X7907534D01*
X8083518Y4485078D02*
G03X8024463Y4544133I-59055J0D01*
X8083518Y4485078D02*
G01Y4354548D01*
X8066861Y4335097D02*
G03X8083518Y4354548I-3029J19451D01*
X8066861Y4335097D02*
G03X8066861Y4272855I4845J-31121D01*
X8083518Y4253404D02*
G03X8066861Y4272855I-19685J0D01*
X8083518Y4253404D02*
G01Y4157697D01*
X8066861Y4138246D02*
G03X8083518Y4157697I-3029J19451D01*
X7750053Y4544133D02*
G01X7292179D01*
X8976310Y4138246D02*
G03X8976310Y4076004I4845J-31121D01*
X8992967Y4056553D02*
G03X8976310Y4076004I-19685J0D01*
X8992967Y4056553D02*
G01Y3926023D01*
X8933912Y3866968D02*
G03X8992967Y3926023I0J59055D01*
X8816982Y3866968D02*
G01X8933912D01*
X8809108Y3874842D02*
G03X8816982Y3866968I7874J0D01*
X8809108Y3874842D02*
G01Y3939802D01*
G03X8801234Y3947676I-7874J0D01*
G01X8675250D01*
G03X8667376Y3939802I0J-7874D01*
G01Y3874842D01*
X8659502Y3866968D02*
G03X8667376Y3874842I0J7874D01*
X8201628Y3866968D02*
G01X8659502D01*
X8142573Y3926023D02*
G03X8201628Y3866968I59055J0D01*
X8142573Y4485078D02*
G01Y3926023D01*
X8201628Y4544133D02*
G03X8142573Y4485078I0J-59055D01*
X8667376Y4536259D02*
G03X8659502Y4544133I-7874J0D01*
X8667376Y4471299D02*
G01Y4536259D01*
Y4471299D02*
G03X8675250Y4463425I7874J0D01*
X8801234D02*
G01X8675250D01*
X8801234D02*
G03X8809108Y4471299I0J7874D01*
Y4536259D02*
G01Y4471299D01*
X8816982Y4544133D02*
G03X8809108Y4536259I0J-7874D01*
X8933912Y4544133D02*
G01X8816982D01*
X8992967Y4485078D02*
G03X8933912Y4544133I-59055J0D01*
X8992967Y4485078D02*
G01Y4354548D01*
X8976310Y4335097D02*
G03X8992967Y4354548I-3029J19451D01*
X8976310Y4335097D02*
G03X8976310Y4272855I4845J-31121D01*
X8992967Y4253404D02*
G03X8976310Y4272855I-19685J0D01*
X8992967Y4253404D02*
G01Y4157697D01*
X8976310Y4138246D02*
G03X8992967Y4157697I-3029J19451D01*
X8659502Y4544133D02*
G01X8201628D01*
X9885759Y4138246D02*
G03X9885759Y4076004I4845J-31121D01*
X9902416Y4056553D02*
G03X9885759Y4076004I-19685J0D01*
X9902416Y4056553D02*
G01Y3926023D01*
X9843360Y3866968D02*
G03X9902416Y3926023I0J59055D01*
X9726431Y3866968D02*
G01X9843360D01*
X9718557Y3874842D02*
G03X9726431Y3866968I7874J0D01*
X9718557Y3874842D02*
G01Y3939802D01*
G03X9710683Y3947676I-7874J0D01*
G01X9584699D01*
G03X9576825Y3939802I0J-7874D01*
G01Y3874842D01*
X9568951Y3866968D02*
G03X9576825Y3874842I0J7874D01*
X9111077Y3866968D02*
G01X9568951D01*
X9052022Y3926023D02*
G03X9111077Y3866968I59055J0D01*
X9052022Y4485078D02*
G01Y3926023D01*
X9111077Y4544133D02*
G03X9052022Y4485078I0J-59055D01*
X9576825Y4536259D02*
G03X9568951Y4544133I-7874J0D01*
X9576825Y4471299D02*
G01Y4536259D01*
Y4471299D02*
G03X9584699Y4463425I7874J0D01*
X9710683D02*
G01X9584699D01*
X9710683D02*
G03X9718557Y4471299I0J7874D01*
Y4536259D02*
G01Y4471299D01*
X9726431Y4544133D02*
G03X9718557Y4536259I0J-7874D01*
X9843360Y4544133D02*
G01X9726431D01*
X9902416Y4485078D02*
G03X9843360Y4544133I-59055J0D01*
X9902416Y4485078D02*
G01Y4354548D01*
X9885759Y4335097D02*
G03X9902416Y4354548I-3029J19451D01*
X9885759Y4335097D02*
G03X9885759Y4272855I4845J-31121D01*
X9902416Y4253404D02*
G03X9885759Y4272855I-19685J0D01*
X9902416Y4253404D02*
G01Y4157697D01*
X9885759Y4138246D02*
G03X9902416Y4157697I-3029J19451D01*
X9568951Y4544133D02*
G01X9111077D01*
X10795208Y4138246D02*
G03X10795208Y4076004I4845J-31121D01*
X10811864Y4056553D02*
G03X10795208Y4076004I-19685J0D01*
X10811864Y4056553D02*
G01Y3926023D01*
X10752809Y3866968D02*
G03X10811864Y3926023I0J59055D01*
X10635880Y3866968D02*
G01X10752809D01*
X10628006Y3874842D02*
G03X10635880Y3866968I7874J0D01*
X10628006Y3874842D02*
G01Y3939802D01*
G03X10620132Y3947676I-7874J0D01*
G01X10494148D01*
G03X10486274Y3939802I0J-7874D01*
G01Y3874842D01*
X10478400Y3866968D02*
G03X10486274Y3874842I0J7874D01*
X10020526Y3866968D02*
G01X10478400D01*
X9961471Y3926023D02*
G03X10020526Y3866968I59055J0D01*
X9961471Y4485078D02*
G01Y3926023D01*
X10020526Y4544133D02*
G03X9961471Y4485078I0J-59055D01*
X10486274Y4536259D02*
G03X10478400Y4544133I-7874J0D01*
X10486274Y4471299D02*
G01Y4536259D01*
Y4471299D02*
G03X10494148Y4463425I7874J0D01*
X10620132D02*
G01X10494148D01*
X10620132D02*
G03X10628006Y4471299I0J7874D01*
Y4536259D02*
G01Y4471299D01*
X10635880Y4544133D02*
G03X10628006Y4536259I0J-7874D01*
X10752809Y4544133D02*
G01X10635880D01*
X10811864Y4485078D02*
G03X10752809Y4544133I-59055J0D01*
X10811864Y4485078D02*
G01Y4354548D01*
X10795208Y4335097D02*
G03X10811864Y4354548I-3029J19451D01*
X10795208Y4335097D02*
G03X10795208Y4272855I4845J-31121D01*
X10811864Y4253404D02*
G03X10795208Y4272855I-19685J0D01*
X10811864Y4253404D02*
G01Y4157697D01*
X10795208Y4138246D02*
G03X10811864Y4157697I-3029J19451D01*
X10478400Y4544133D02*
G01X10020526D01*
X11999932Y4138246D02*
G03X11999932Y4076004I4845J-31121D01*
X12016589Y4056553D02*
G03X11999932Y4076004I-19685J0D01*
X12016589Y4056553D02*
G01Y3926023D01*
X11957534Y3866968D02*
G03X12016589Y3926023I0J59055D01*
X11840605Y3866968D02*
G01X11957534D01*
X11832731Y3874842D02*
G03X11840605Y3866968I7874J0D01*
X11832731Y3874842D02*
G01Y3939802D01*
G03X11824856Y3947676I-7874J0D01*
G01X11698872D01*
G03X11690998Y3939802I0J-7874D01*
G01Y3874842D01*
X11683124Y3866968D02*
G03X11690998Y3874842I0J7874D01*
X11225250Y3866968D02*
G01X11683124D01*
X11166195Y3926023D02*
G03X11225250Y3866968I59055J0D01*
X11166195Y4485078D02*
G01Y3926023D01*
X11225250Y4544133D02*
G03X11166195Y4485078I0J-59055D01*
X11690998Y4536259D02*
G03X11683124Y4544133I-7874J0D01*
X11690998Y4471299D02*
G01Y4536259D01*
Y4471299D02*
G03X11698872Y4463425I7874J0D01*
X11824856D02*
G01X11698872D01*
X11824856D02*
G03X11832731Y4471299I0J7874D01*
Y4536259D02*
G01Y4471299D01*
X11840605Y4544133D02*
G03X11832731Y4536259I0J-7874D01*
X11957534Y4544133D02*
G01X11840605D01*
X12016589Y4485078D02*
G03X11957534Y4544133I-59055J0D01*
X12016589Y4485078D02*
G01Y4354548D01*
X11999932Y4335097D02*
G03X12016589Y4354548I-3029J19451D01*
X11999932Y4335097D02*
G03X11999932Y4272855I4845J-31121D01*
X12016589Y4253404D02*
G03X11999932Y4272855I-19685J0D01*
X12016589Y4253404D02*
G01Y4157697D01*
X11999932Y4138246D02*
G03X12016589Y4157697I-3029J19451D01*
X11683124Y4544133D02*
G01X11225250D01*
X12909381Y4138246D02*
G03X12909381Y4076004I4845J-31121D01*
X12926038Y4056553D02*
G03X12909381Y4076004I-19685J0D01*
X12926038Y4056553D02*
G01Y3926023D01*
X12866982Y3866968D02*
G03X12926038Y3926023I0J59055D01*
X12750053Y3866968D02*
G01X12866982D01*
X12742179Y3874842D02*
G03X12750053Y3866968I7874J0D01*
X12742179Y3874842D02*
G01Y3939802D01*
G03X12734305Y3947676I-7874J0D01*
G01X12608321D01*
G03X12600447Y3939802I0J-7874D01*
G01Y3874842D01*
X12592573Y3866968D02*
G03X12600447Y3874842I0J7874D01*
X12134699Y3866968D02*
G01X12592573D01*
X12075644Y3926023D02*
G03X12134699Y3866968I59055J0D01*
X12075644Y4485078D02*
G01Y3926023D01*
X12134699Y4544133D02*
G03X12075644Y4485078I0J-59055D01*
X12600447Y4536259D02*
G03X12592573Y4544133I-7874J0D01*
X12600447Y4471299D02*
G01Y4536259D01*
Y4471299D02*
G03X12608321Y4463425I7874J0D01*
X12734305D02*
G01X12608321D01*
X12734305D02*
G03X12742179Y4471299I0J7874D01*
Y4536259D02*
G01Y4471299D01*
X12750053Y4544133D02*
G03X12742179Y4536259I0J-7874D01*
X12866982Y4544133D02*
G01X12750053D01*
X12926038Y4485078D02*
G03X12866982Y4544133I-59055J0D01*
X12926038Y4485078D02*
G01Y4354548D01*
X12909381Y4335097D02*
G03X12926038Y4354548I-3029J19451D01*
X12909381Y4335097D02*
G03X12909381Y4272855I4845J-31121D01*
X12926038Y4253404D02*
G03X12909381Y4272855I-19685J0D01*
X12926038Y4253404D02*
G01Y4157697D01*
X12909381Y4138246D02*
G03X12926038Y4157697I-3029J19451D01*
X12592573Y4544133D02*
G01X12134699D01*
X13818830Y4138246D02*
G03X13818830Y4076004I4845J-31121D01*
X13835486Y4056553D02*
G03X13818830Y4076004I-19685J0D01*
X13835486Y4056553D02*
G01Y3926023D01*
X13776431Y3866968D02*
G03X13835486Y3926023I0J59055D01*
X13659502Y3866968D02*
G01X13776431D01*
X13651628Y3874842D02*
G03X13659502Y3866968I7874J0D01*
X13651628Y3874842D02*
G01Y3939802D01*
G03X13643754Y3947676I-7874J0D01*
G01X13517770D01*
G03X13509896Y3939802I0J-7874D01*
G01Y3874842D01*
X13502022Y3866968D02*
G03X13509896Y3874842I0J7874D01*
X13044148Y3866968D02*
G01X13502022D01*
X12985093Y3926023D02*
G03X13044148Y3866968I59055J0D01*
X12985093Y4485078D02*
G01Y3926023D01*
X13044148Y4544133D02*
G03X12985093Y4485078I0J-59055D01*
X13509896Y4536259D02*
G03X13502022Y4544133I-7874J0D01*
X13509896Y4471299D02*
G01Y4536259D01*
Y4471299D02*
G03X13517770Y4463425I7874J0D01*
X13643754D02*
G01X13517770D01*
X13643754D02*
G03X13651628Y4471299I0J7874D01*
Y4536259D02*
G01Y4471299D01*
X13659502Y4544133D02*
G03X13651628Y4536259I0J-7874D01*
X13776431Y4544133D02*
G01X13659502D01*
X13835486Y4485078D02*
G03X13776431Y4544133I-59055J0D01*
X13835486Y4485078D02*
G01Y4354548D01*
X13818830Y4335097D02*
G03X13835486Y4354548I-3029J19451D01*
X13818830Y4335097D02*
G03X13818830Y4272855I4845J-31121D01*
X13835486Y4253404D02*
G03X13818830Y4272855I-19685J0D01*
X13835486Y4253404D02*
G01Y4157697D01*
X13818830Y4138246D02*
G03X13835486Y4157697I-3029J19451D01*
X13502022Y4544133D02*
G01X13044148D01*
X14728279Y4138246D02*
G03X14728279Y4076004I4845J-31121D01*
X14744935Y4056553D02*
G03X14728279Y4076004I-19685J0D01*
X14744935Y4056553D02*
G01Y3926023D01*
X14685880Y3866968D02*
G03X14744935Y3926023I0J59055D01*
X14568951Y3866968D02*
G01X14685880D01*
X14561077Y3874842D02*
G03X14568951Y3866968I7874J0D01*
X14561077Y3874842D02*
G01Y3939802D01*
G03X14553203Y3947676I-7874J0D01*
G01X14427219D01*
G03X14419345Y3939802I0J-7874D01*
G01Y3874842D01*
X14411471Y3866968D02*
G03X14419345Y3874842I0J7874D01*
X13953597Y3866968D02*
G01X14411471D01*
X13894542Y3926023D02*
G03X13953597Y3866968I59055J0D01*
X13894542Y4485078D02*
G01Y3926023D01*
X13953597Y4544133D02*
G03X13894542Y4485078I0J-59055D01*
X14419345Y4536259D02*
G03X14411471Y4544133I-7874J0D01*
X14419345Y4471299D02*
G01Y4536259D01*
Y4471299D02*
G03X14427219Y4463425I7874J0D01*
X14553203D02*
G01X14427219D01*
X14553203D02*
G03X14561077Y4471299I0J7874D01*
Y4536259D02*
G01Y4471299D01*
X14568951Y4544133D02*
G03X14561077Y4536259I0J-7874D01*
X14685880Y4544133D02*
G01X14568951D01*
X14744935Y4485078D02*
G03X14685880Y4544133I-59055J0D01*
X14744935Y4485078D02*
G01Y4354548D01*
X14728279Y4335097D02*
G03X14744935Y4354548I-3029J19451D01*
X14728279Y4335097D02*
G03X14728279Y4272855I4845J-31121D01*
X14744935Y4253404D02*
G03X14728279Y4272855I-19685J0D01*
X14744935Y4253404D02*
G01Y4157697D01*
X14728279Y4138246D02*
G03X14744935Y4157697I-3029J19451D01*
X14411471Y4544133D02*
G01X13953597D01*
X7174069Y9020511D02*
X10870919D01*
X11107140D02*
X14803990D01*
X7174069Y3807913D02*
X10870919D01*
X11107140D02*
X14803990D01*
X7174069D02*
Y9020511D01*
X14803990Y3807913D02*
Y9020511D01*
X7016589Y9138621D02*
X14961471D01*
X7016589Y3689805D02*
X14961471Y3689802D01*
X6977219Y3729175D02*
Y9099251D01*
X15000841Y3729172D02*
Y9099251D01*
X7948013Y3807916D02*
X8138975D01*
X6977219Y3911331D02*
Y4151357D01*
Y4915056D02*
Y4499300D01*
X7174069Y4915056D02*
Y4499300D01*
X11107140Y9020511D02*
Y3807913D01*
X10870919Y9020511D02*
Y3807913D01*
X7992671Y8961456D02*
Y9020511D01*
X7933616Y8961456D02*
Y9020511D01*
X7323971Y8961456D02*
Y9020511D01*
X7383026Y8961456D02*
Y9020511D01*
X8902120Y8961456D02*
Y9020511D01*
X8843065Y8961456D02*
Y9020511D01*
X8233419Y8961456D02*
Y9020511D01*
X8292475Y8961456D02*
Y9020511D01*
X9811569Y8961456D02*
Y9020511D01*
X9752514Y8961456D02*
Y9020511D01*
X9142868Y8961456D02*
Y9020511D01*
X9201923Y8961456D02*
Y9020511D01*
X10721018Y8961456D02*
Y9020511D01*
X10661963Y8961456D02*
Y9020511D01*
X10052317Y8961456D02*
Y9020511D01*
X10111372Y8961456D02*
Y9020511D01*
X11925742Y8961456D02*
Y9020511D01*
X11866687Y8961456D02*
Y9020511D01*
X11257042Y8961456D02*
Y9020511D01*
X11316097Y8961456D02*
Y9020511D01*
X12835191Y8961456D02*
Y9020511D01*
X12776136Y8961456D02*
Y9020511D01*
X12166490Y8961456D02*
Y9020511D01*
X12225545Y8961456D02*
Y9020511D01*
X13744640Y8961456D02*
Y9020511D01*
X13685585Y8961456D02*
Y9020511D01*
X13075939Y8961456D02*
Y9020511D01*
X13134994Y8961456D02*
Y9020511D01*
X14654089Y8961456D02*
Y9020511D01*
X14595034Y8961456D02*
Y9020511D01*
X13985388Y8961456D02*
Y9020511D01*
X14044443Y8961456D02*
Y9020511D01*
X7992671Y8225236D02*
Y8284291D01*
X7933616Y8225236D02*
Y8284291D01*
X7323971Y8225236D02*
Y8284291D01*
X7383026Y8225236D02*
Y8284291D01*
X8902120Y8225236D02*
Y8284291D01*
X8843065Y8225236D02*
Y8284291D01*
X8233419Y8225236D02*
Y8284291D01*
X8292475Y8225236D02*
Y8284291D01*
X9811569Y8225236D02*
Y8284291D01*
X9752514Y8225236D02*
Y8284291D01*
X9142868Y8225236D02*
Y8284291D01*
X9201923Y8225236D02*
Y8284291D01*
X10721018Y8225236D02*
Y8284291D01*
X10661963Y8225236D02*
Y8284291D01*
X10052317Y8225236D02*
Y8284291D01*
X10111372Y8225236D02*
Y8284291D01*
X11925742Y8225236D02*
Y8284291D01*
X11866687Y8225236D02*
Y8284291D01*
X11257042Y8225236D02*
Y8284291D01*
X11316097Y8225236D02*
Y8284291D01*
X12835191Y8225236D02*
Y8284291D01*
X12776136Y8225236D02*
Y8284291D01*
X12166490Y8225236D02*
Y8284291D01*
X12225545Y8225236D02*
Y8284291D01*
X13744640Y8225236D02*
Y8284291D01*
X13685585Y8225236D02*
Y8284291D01*
X13075939Y8225236D02*
Y8284291D01*
X13134994Y8225236D02*
Y8284291D01*
X14654089Y8225236D02*
Y8284291D01*
X14595034Y8225236D02*
Y8284291D01*
X13985388Y8225236D02*
Y8284291D01*
X14044443Y8225236D02*
Y8284291D01*
X7992671Y7489015D02*
Y7548070D01*
X7933616Y7489015D02*
Y7548070D01*
X7323971Y7489015D02*
Y7548070D01*
X7383026Y7489015D02*
Y7548070D01*
X8902120Y7489015D02*
Y7548070D01*
X8843065Y7489015D02*
Y7548070D01*
X8233419Y7489015D02*
Y7548070D01*
X8292475Y7489015D02*
Y7548070D01*
X9811569Y7489015D02*
Y7548070D01*
X9752514Y7489015D02*
Y7548070D01*
X9142868Y7489015D02*
Y7548070D01*
X9201923Y7489015D02*
Y7548070D01*
X10721018Y7489015D02*
Y7548070D01*
X10661963Y7489015D02*
Y7548070D01*
X10052317Y7489015D02*
Y7548070D01*
X10111372Y7489015D02*
Y7548070D01*
X11925742Y7489015D02*
Y7548070D01*
X11866687Y7489015D02*
Y7548070D01*
X11257042Y7489015D02*
Y7548070D01*
X11316097Y7489015D02*
Y7548070D01*
X12835191Y7489015D02*
Y7548070D01*
X12776136Y7489015D02*
Y7548070D01*
X12166490Y7489015D02*
Y7548070D01*
X12225545Y7489015D02*
Y7548070D01*
X13744640Y7489015D02*
Y7548070D01*
X13685585Y7489015D02*
Y7548070D01*
X13075939Y7489015D02*
Y7548070D01*
X13134994Y7489015D02*
Y7548070D01*
X14654089Y7489015D02*
Y7548070D01*
X14595034Y7489015D02*
Y7548070D01*
X13985388Y7489015D02*
Y7548070D01*
X14044443Y7489015D02*
Y7548070D01*
X7992671Y6752795D02*
Y6811850D01*
X7933616Y6752795D02*
Y6811850D01*
X7323971Y6752795D02*
Y6811850D01*
X7383026Y6752795D02*
Y6811850D01*
X8902120Y6752795D02*
Y6811850D01*
X8843065Y6752795D02*
Y6811850D01*
X8233419Y6752795D02*
Y6811850D01*
X8292475Y6752795D02*
Y6811850D01*
X9811569Y6752795D02*
Y6811850D01*
X9752514Y6752795D02*
Y6811850D01*
X9142868Y6752795D02*
Y6811850D01*
X9201923Y6752795D02*
Y6811850D01*
X10721018Y6752795D02*
Y6811850D01*
X10661963Y6752795D02*
Y6811850D01*
X10052317Y6752795D02*
Y6811850D01*
X10111372Y6752795D02*
Y6811850D01*
X11925742Y6752795D02*
Y6811850D01*
X11866687Y6752795D02*
Y6811850D01*
X11257042Y6752795D02*
Y6811850D01*
X11316097Y6752795D02*
Y6811850D01*
X12835191Y6752795D02*
Y6811850D01*
X12776136Y6752795D02*
Y6811850D01*
X12166490Y6752795D02*
Y6811850D01*
X12225545Y6752795D02*
Y6811850D01*
X13744640Y6752795D02*
Y6811850D01*
X13685585Y6752795D02*
Y6811850D01*
X13075939Y6752795D02*
Y6811850D01*
X13134994Y6752795D02*
Y6811850D01*
X14654089Y6752795D02*
Y6811850D01*
X14595034Y6752795D02*
Y6811850D01*
X13985388Y6752795D02*
Y6811850D01*
X14044443Y6752795D02*
Y6811850D01*
X7992671Y6016574D02*
Y6075629D01*
X7933616Y6016574D02*
Y6075629D01*
X7323971Y6016574D02*
Y6075629D01*
X7383026Y6016574D02*
Y6075629D01*
X8902120Y6016574D02*
Y6075629D01*
X8843065Y6016574D02*
Y6075629D01*
X8233419Y6016574D02*
Y6075629D01*
X8292475Y6016574D02*
Y6075629D01*
X9811569Y6016574D02*
Y6075629D01*
X9752514Y6016574D02*
Y6075629D01*
X9142868Y6016574D02*
Y6075629D01*
X9201923Y6016574D02*
Y6075629D01*
X10721018Y6016574D02*
Y6075629D01*
X10661963Y6016574D02*
Y6075629D01*
X10052317Y6016574D02*
Y6075629D01*
X10111372Y6016574D02*
Y6075629D01*
X11925742Y6016574D02*
Y6075629D01*
X11866687Y6016574D02*
Y6075629D01*
X11257042Y6016574D02*
Y6075629D01*
X11316097Y6016574D02*
Y6075629D01*
X12835191Y6016574D02*
Y6075629D01*
X12776136Y6016574D02*
Y6075629D01*
X12166490Y6016574D02*
Y6075629D01*
X12225545Y6016574D02*
Y6075629D01*
X13744640Y6016574D02*
Y6075629D01*
X13685585Y6016574D02*
Y6075629D01*
X13075939Y6016574D02*
Y6075629D01*
X13134994Y6016574D02*
Y6075629D01*
X14654089Y6016574D02*
Y6075629D01*
X14595034Y6016574D02*
Y6075629D01*
X13985388Y6016574D02*
Y6075629D01*
X14044443Y6016574D02*
Y6075629D01*
X7992671Y5280354D02*
Y5339409D01*
X7933616Y5280354D02*
Y5339409D01*
X7323971Y5280354D02*
Y5339409D01*
X7383026Y5280354D02*
Y5339409D01*
X8902120Y5280354D02*
Y5339409D01*
X8843065Y5280354D02*
Y5339409D01*
X8233419Y5280354D02*
Y5339409D01*
X8292475Y5280354D02*
Y5339409D01*
X9811569Y5280354D02*
Y5339409D01*
X9752514Y5280354D02*
Y5339409D01*
X9142868Y5280354D02*
Y5339409D01*
X9201923Y5280354D02*
Y5339409D01*
X10721018Y5280354D02*
Y5339409D01*
X10661963Y5280354D02*
Y5339409D01*
X10052317Y5280354D02*
Y5339409D01*
X10111372Y5280354D02*
Y5339409D01*
X11925742Y5280354D02*
Y5339409D01*
X11866687Y5280354D02*
Y5339409D01*
X11257042Y5280354D02*
Y5339409D01*
X11316097Y5280354D02*
Y5339409D01*
X12835191Y5280354D02*
Y5339409D01*
X12776136Y5280354D02*
Y5339409D01*
X12166490Y5280354D02*
Y5339409D01*
X12225545Y5280354D02*
Y5339409D01*
X13744640Y5280354D02*
Y5339409D01*
X13685585Y5280354D02*
Y5339409D01*
X13075939Y5280354D02*
Y5339409D01*
X13134994Y5280354D02*
Y5339409D01*
X14654089Y5280354D02*
Y5339409D01*
X14595034Y5280354D02*
Y5339409D01*
X13985388Y5280354D02*
Y5339409D01*
X14044443Y5280354D02*
Y5339409D01*
X7992671Y4544133D02*
Y4603188D01*
X7933616Y4544133D02*
Y4603188D01*
X7323971Y4544133D02*
Y4603188D01*
X7383026Y4544133D02*
Y4603188D01*
X8902120Y4544133D02*
Y4603188D01*
X8843065Y4544133D02*
Y4603188D01*
X8233419Y4544133D02*
Y4603188D01*
X8292475Y4544133D02*
Y4603188D01*
X9811569Y4544133D02*
Y4603188D01*
X9752514Y4544133D02*
Y4603188D01*
X9142868Y4544133D02*
Y4603188D01*
X9201923Y4544133D02*
Y4603188D01*
X10721018Y4544133D02*
Y4603188D01*
X10661963Y4544133D02*
Y4603188D01*
X10052317Y4544133D02*
Y4603188D01*
X10111372Y4544133D02*
Y4603188D01*
X11925742Y4544133D02*
Y4603188D01*
X11866687Y4544133D02*
Y4603188D01*
X11257042Y4544133D02*
Y4603188D01*
X11316097Y4544133D02*
Y4603188D01*
X12835191Y4544133D02*
Y4603188D01*
X12776136Y4544133D02*
Y4603188D01*
X12166490Y4544133D02*
Y4603188D01*
X12225545Y4544133D02*
Y4603188D01*
X13744640Y4544133D02*
Y4603188D01*
X13685585Y4544133D02*
Y4603188D01*
X13075939Y4544133D02*
Y4603188D01*
X13134994Y4544133D02*
Y4603188D01*
X14654089Y4544133D02*
Y4603188D01*
X14595034Y4544133D02*
Y4603188D01*
X13985388Y4544133D02*
Y4603188D01*
X14044443Y4544133D02*
Y4603188D01*
X7992671Y3866968D02*
Y3807913D01*
X7933616Y3866968D02*
Y3807913D01*
X7323971Y3866968D02*
Y3807913D01*
X7383026Y3866968D02*
Y3807913D01*
X8902120Y3866968D02*
Y3807913D01*
X8843065Y3866968D02*
Y3807913D01*
X8233419Y3866968D02*
Y3807913D01*
X8292475Y3866968D02*
Y3807913D01*
X9811569Y3866968D02*
Y3807913D01*
X9752514Y3866968D02*
Y3807913D01*
X9142868Y3866968D02*
Y3807913D01*
X9201923Y3866968D02*
Y3807913D01*
X10721018Y3866968D02*
Y3807913D01*
X10661963Y3866968D02*
Y3807913D01*
X10052317Y3866968D02*
Y3807913D01*
X10111372Y3866968D02*
Y3807913D01*
X11925742Y3866968D02*
Y3807913D01*
X11866687Y3866968D02*
Y3807913D01*
X11257042Y3866968D02*
Y3807913D01*
X11316097Y3866968D02*
Y3807913D01*
X12835191Y3866968D02*
Y3807913D01*
X12776136Y3866968D02*
Y3807913D01*
X12166490Y3866968D02*
Y3807913D01*
X12225545Y3866968D02*
Y3807913D01*
X13744640Y3866968D02*
Y3807913D01*
X13685585Y3866968D02*
Y3807913D01*
X13075939Y3866968D02*
Y3807913D01*
X13134994Y3866968D02*
Y3807913D01*
X14654089Y3866968D02*
Y3807913D01*
X14595034Y3866968D02*
Y3807913D01*
X13985388Y3866968D02*
Y3807913D01*
X14044443Y3866968D02*
Y3807913D01*
X7016589Y9138621D02*
G03X6977219Y9099251I0J-39370D01*
X14961471Y9138621D02*
G02X15000841Y9099251I0J-39370D01*
Y3729172D02*
G02X14961471Y3689802I-39370J0D01*
X6977219Y3729175D02*
G03X7016589Y3689805I39370J0D01*
M02*
