*
%FSLAX26Y26*%
%MOIN*%
%ADD10C,0.046370*%
%ADD11C,0.097550*%
%ADD12C,0.033717*%
%ADD13C,0.045567*%
%ADD14R,0.011940X0.011940*%
%ADD15C,0.118110*%
%ADD16C,0.045370*%
%ADD17C,0.004000*%
%ADD18C,0.136079*%
%ADD19C,0.059307*%
%IPPOS*%
%LNset.gts*%
%LPD*%
G75*
G54D10*
X7909469Y4088028D03*
X7803239Y4077118D03*
X7691519Y3969748D03*
X7872369Y4406488D03*
X7684839Y4227248D03*
X7682039Y4384718D03*
X7896639Y4216948D03*
G54D11*
X7997879Y4384373D02*
Y4419803D01*
X8000839Y4187523D02*
Y4222953D01*
X8000619Y3990453D02*
Y4025883D01*
X8016239Y4384503D02*
Y4419933D01*
X8016599Y4187763D02*
Y4223193D01*
X8016549Y3990943D02*
Y4026373D01*
G54D12*
X7765799Y4471298D03*
X7891784Y4471303D03*
G54D13*
X7771737Y4477226D03*
X7885883Y4477214D03*
G54D12*
X7765799Y3939808D03*
X7891784Y3939803D03*
G54D13*
X7771706Y3933894D03*
X7885889Y3933909D03*
G54D14*
X7463689Y4133873D02*
Y4141743D01*
X7294589Y4287933D02*
Y4295803D01*
X7454864Y4134248D02*
X7462734D01*
X7294704Y4296168D02*
X7302574D01*
G54D10*
X7909469Y4824248D03*
X7803239Y4813338D03*
X7691519Y4705968D03*
X7872369Y5142708D03*
X7684839Y4963468D03*
X7682039Y5120938D03*
X7896639Y4953168D03*
G54D11*
X7997879Y5120593D02*
Y5156023D01*
X8000839Y4923743D02*
Y4959173D01*
X8000619Y4726673D02*
Y4762103D01*
X8016239Y5120723D02*
Y5156153D01*
X8016599Y4923983D02*
Y4959413D01*
X8016549Y4727163D02*
Y4762593D01*
G54D12*
X7765799Y5207518D03*
X7891784Y5207523D03*
G54D13*
X7771737Y5213447D03*
X7885883Y5213435D03*
G54D12*
X7765799Y4676028D03*
X7891784Y4676023D03*
G54D13*
X7771706Y4670114D03*
X7885889Y4670129D03*
G54D14*
X7463689Y4870093D02*
Y4877963D01*
X7294589Y5024153D02*
Y5032023D01*
X7454864Y4870468D02*
X7462734D01*
X7294704Y5032388D02*
X7302574D01*
G54D10*
X7909469Y5560469D03*
X7803239Y5549559D03*
X7691519Y5442189D03*
X7872369Y5878929D03*
X7684839Y5699689D03*
X7682039Y5857159D03*
X7896639Y5689389D03*
G54D11*
X7997879Y5856814D02*
Y5892244D01*
X8000839Y5659964D02*
Y5695394D01*
X8000619Y5462894D02*
Y5498324D01*
X8016239Y5856944D02*
Y5892374D01*
X8016599Y5660204D02*
Y5695634D01*
X8016549Y5463384D02*
Y5498814D01*
G54D12*
X7765799Y5943739D03*
X7891784Y5943744D03*
G54D13*
X7771737Y5949667D03*
X7885883Y5949655D03*
G54D12*
X7765799Y5412249D03*
X7891784Y5412244D03*
G54D13*
X7771706Y5406335D03*
X7885889Y5406350D03*
G54D14*
X7463689Y5606314D02*
Y5614184D01*
X7294589Y5760374D02*
Y5768244D01*
X7454864Y5606689D02*
X7462734D01*
X7294704Y5768609D02*
X7302574D01*
G54D10*
X7909469Y6296689D03*
X7803239Y6285779D03*
X7691519Y6178409D03*
X7872369Y6615149D03*
X7684839Y6435909D03*
X7682039Y6593379D03*
X7896639Y6425609D03*
G54D11*
X7997879Y6593034D02*
Y6628464D01*
X8000839Y6396184D02*
Y6431614D01*
X8000619Y6199114D02*
Y6234544D01*
X8016239Y6593164D02*
Y6628594D01*
X8016599Y6396424D02*
Y6431854D01*
X8016549Y6199604D02*
Y6235034D01*
G54D12*
X7765799Y6679959D03*
X7891784Y6679964D03*
G54D13*
X7771737Y6685888D03*
X7885883Y6685875D03*
G54D12*
X7765799Y6148469D03*
X7891784Y6148464D03*
G54D13*
X7771706Y6142555D03*
X7885889Y6142570D03*
G54D14*
X7463689Y6342534D02*
Y6350404D01*
X7294589Y6496594D02*
Y6504464D01*
X7454864Y6342909D02*
X7462734D01*
X7294704Y6504829D02*
X7302574D01*
G54D10*
X7909469Y7032910D03*
X7803239Y7022000D03*
X7691519Y6914630D03*
X7872369Y7351370D03*
X7684839Y7172130D03*
X7682039Y7329600D03*
X7896639Y7161830D03*
G54D11*
X7997879Y7329255D02*
Y7364685D01*
X8000839Y7132405D02*
Y7167835D01*
X8000619Y6935335D02*
Y6970765D01*
X8016239Y7329385D02*
Y7364815D01*
X8016599Y7132645D02*
Y7168075D01*
X8016549Y6935825D02*
Y6971255D01*
G54D12*
X7765799Y7416180D03*
X7891784Y7416185D03*
G54D13*
X7771737Y7422108D03*
X7885883Y7422096D03*
G54D12*
X7765799Y6884690D03*
X7891784Y6884685D03*
G54D13*
X7771706Y6878776D03*
X7885889Y6878791D03*
G54D14*
X7463689Y7078755D02*
Y7086625D01*
X7294589Y7232815D02*
Y7240685D01*
X7454864Y7079130D02*
X7462734D01*
X7294704Y7241050D02*
X7302574D01*
G54D10*
X7909469Y7769130D03*
X7803239Y7758220D03*
X7691519Y7650850D03*
X7872369Y8087590D03*
X7684839Y7908350D03*
X7682039Y8065820D03*
X7896639Y7898050D03*
G54D11*
X7997879Y8065475D02*
Y8100905D01*
X8000839Y7868625D02*
Y7904055D01*
X8000619Y7671555D02*
Y7706985D01*
X8016239Y8065605D02*
Y8101035D01*
X8016599Y7868865D02*
Y7904295D01*
X8016549Y7672045D02*
Y7707475D01*
G54D12*
X7765799Y8152400D03*
X7891784Y8152405D03*
G54D13*
X7771737Y8158329D03*
X7885883Y8158316D03*
G54D12*
X7765799Y7620910D03*
X7891784Y7620905D03*
G54D13*
X7771706Y7614996D03*
X7885889Y7615011D03*
G54D14*
X7463689Y7814975D02*
Y7822845D01*
X7294589Y7969035D02*
Y7976905D01*
X7454864Y7815350D02*
X7462734D01*
X7294704Y7977270D02*
X7302574D01*
G54D10*
X7909469Y8505351D03*
X7803239Y8494441D03*
X7691519Y8387071D03*
X7872369Y8823811D03*
X7684839Y8644571D03*
X7682039Y8802041D03*
X7896639Y8634271D03*
G54D11*
X7997879Y8801696D02*
Y8837126D01*
X8000839Y8604846D02*
Y8640276D01*
X8000619Y8407776D02*
Y8443206D01*
X8016239Y8801826D02*
Y8837256D01*
X8016599Y8605086D02*
Y8640516D01*
X8016549Y8408266D02*
Y8443696D01*
G54D12*
X7765799Y8888621D03*
X7891784Y8888625D03*
G54D13*
X7771737Y8894549D03*
X7885883Y8894537D03*
G54D12*
X7765799Y8357131D03*
X7891784Y8357126D03*
G54D13*
X7771706Y8351217D03*
X7885889Y8351231D03*
G54D14*
X7463689Y8551196D02*
Y8559066D01*
X7294589Y8705256D02*
Y8713126D01*
X7454864Y8551571D02*
X7462734D01*
X7294704Y8713491D02*
X7302574D01*
G54D10*
X8818918Y4088028D03*
X8712688Y4077118D03*
X8600968Y3969748D03*
X8781818Y4406488D03*
X8594288Y4227248D03*
X8591488Y4384718D03*
X8806088Y4216948D03*
G54D11*
X8907328Y4384373D02*
Y4419803D01*
X8910288Y4187523D02*
Y4222953D01*
X8910068Y3990453D02*
Y4025883D01*
X8925688Y4384503D02*
Y4419933D01*
X8926048Y4187763D02*
Y4223193D01*
X8925998Y3990943D02*
Y4026373D01*
G54D12*
X8675248Y4471298D03*
X8801233Y4471303D03*
G54D13*
X8681186Y4477226D03*
X8795332Y4477214D03*
G54D12*
X8675248Y3939808D03*
X8801233Y3939803D03*
G54D13*
X8681155Y3933894D03*
X8795338Y3933909D03*
G54D14*
X8373138Y4133873D02*
Y4141743D01*
X8204038Y4287933D02*
Y4295803D01*
X8364313Y4134248D02*
X8372183D01*
X8204153Y4296168D02*
X8212023D01*
G54D10*
X8818918Y4824248D03*
X8712688Y4813338D03*
X8600968Y4705968D03*
X8781818Y5142708D03*
X8594288Y4963468D03*
X8591488Y5120938D03*
X8806088Y4953168D03*
G54D11*
X8907328Y5120593D02*
Y5156023D01*
X8910288Y4923743D02*
Y4959173D01*
X8910068Y4726673D02*
Y4762103D01*
X8925688Y5120723D02*
Y5156153D01*
X8926048Y4923983D02*
Y4959413D01*
X8925998Y4727163D02*
Y4762593D01*
G54D12*
X8675248Y5207518D03*
X8801233Y5207523D03*
G54D13*
X8681186Y5213447D03*
X8795332Y5213435D03*
G54D12*
X8675248Y4676028D03*
X8801233Y4676023D03*
G54D13*
X8681155Y4670114D03*
X8795338Y4670129D03*
G54D14*
X8373138Y4870093D02*
Y4877963D01*
X8204038Y5024153D02*
Y5032023D01*
X8364313Y4870468D02*
X8372183D01*
X8204153Y5032388D02*
X8212023D01*
G54D10*
X8818918Y5560469D03*
X8712688Y5549559D03*
X8600968Y5442189D03*
X8781818Y5878929D03*
X8594288Y5699689D03*
X8591488Y5857159D03*
X8806088Y5689389D03*
G54D11*
X8907328Y5856814D02*
Y5892244D01*
X8910288Y5659964D02*
Y5695394D01*
X8910068Y5462894D02*
Y5498324D01*
X8925688Y5856944D02*
Y5892374D01*
X8926048Y5660204D02*
Y5695634D01*
X8925998Y5463384D02*
Y5498814D01*
G54D12*
X8675248Y5943739D03*
X8801233Y5943744D03*
G54D13*
X8681186Y5949667D03*
X8795332Y5949655D03*
G54D12*
X8675248Y5412249D03*
X8801233Y5412244D03*
G54D13*
X8681155Y5406335D03*
X8795338Y5406350D03*
G54D14*
X8373138Y5606314D02*
Y5614184D01*
X8204038Y5760374D02*
Y5768244D01*
X8364313Y5606689D02*
X8372183D01*
X8204153Y5768609D02*
X8212023D01*
G54D10*
X8818918Y6296689D03*
X8712688Y6285779D03*
X8600968Y6178409D03*
X8781818Y6615149D03*
X8594288Y6435909D03*
X8591488Y6593379D03*
X8806088Y6425609D03*
G54D11*
X8907328Y6593034D02*
Y6628464D01*
X8910288Y6396184D02*
Y6431614D01*
X8910068Y6199114D02*
Y6234544D01*
X8925688Y6593164D02*
Y6628594D01*
X8926048Y6396424D02*
Y6431854D01*
X8925998Y6199604D02*
Y6235034D01*
G54D12*
X8675248Y6679959D03*
X8801233Y6679964D03*
G54D13*
X8681186Y6685888D03*
X8795332Y6685875D03*
G54D12*
X8675248Y6148469D03*
X8801233Y6148464D03*
G54D13*
X8681155Y6142555D03*
X8795338Y6142570D03*
G54D14*
X8373138Y6342534D02*
Y6350404D01*
X8204038Y6496594D02*
Y6504464D01*
X8364313Y6342909D02*
X8372183D01*
X8204153Y6504829D02*
X8212023D01*
G54D10*
X8818918Y7032910D03*
X8712688Y7022000D03*
X8600968Y6914630D03*
X8781818Y7351370D03*
X8594288Y7172130D03*
X8591488Y7329600D03*
X8806088Y7161830D03*
G54D11*
X8907328Y7329255D02*
Y7364685D01*
X8910288Y7132405D02*
Y7167835D01*
X8910068Y6935335D02*
Y6970765D01*
X8925688Y7329385D02*
Y7364815D01*
X8926048Y7132645D02*
Y7168075D01*
X8925998Y6935825D02*
Y6971255D01*
G54D12*
X8675248Y7416180D03*
X8801233Y7416185D03*
G54D13*
X8681186Y7422108D03*
X8795332Y7422096D03*
G54D12*
X8675248Y6884690D03*
X8801233Y6884685D03*
G54D13*
X8681155Y6878776D03*
X8795338Y6878791D03*
G54D14*
X8373138Y7078755D02*
Y7086625D01*
X8204038Y7232815D02*
Y7240685D01*
X8364313Y7079130D02*
X8372183D01*
X8204153Y7241050D02*
X8212023D01*
G54D10*
X8818918Y7769130D03*
X8712688Y7758220D03*
X8600968Y7650850D03*
X8781818Y8087590D03*
X8594288Y7908350D03*
X8591488Y8065820D03*
X8806088Y7898050D03*
G54D11*
X8907328Y8065475D02*
Y8100905D01*
X8910288Y7868625D02*
Y7904055D01*
X8910068Y7671555D02*
Y7706985D01*
X8925688Y8065605D02*
Y8101035D01*
X8926048Y7868865D02*
Y7904295D01*
X8925998Y7672045D02*
Y7707475D01*
G54D12*
X8675248Y8152400D03*
X8801233Y8152405D03*
G54D13*
X8681186Y8158329D03*
X8795332Y8158316D03*
G54D12*
X8675248Y7620910D03*
X8801233Y7620905D03*
G54D13*
X8681155Y7614996D03*
X8795338Y7615011D03*
G54D14*
X8373138Y7814975D02*
Y7822845D01*
X8204038Y7969035D02*
Y7976905D01*
X8364313Y7815350D02*
X8372183D01*
X8204153Y7977270D02*
X8212023D01*
G54D10*
X8818918Y8505351D03*
X8712688Y8494441D03*
X8600968Y8387071D03*
X8781818Y8823811D03*
X8594288Y8644571D03*
X8591488Y8802041D03*
X8806088Y8634271D03*
G54D11*
X8907328Y8801696D02*
Y8837126D01*
X8910288Y8604846D02*
Y8640276D01*
X8910068Y8407776D02*
Y8443206D01*
X8925688Y8801826D02*
Y8837256D01*
X8926048Y8605086D02*
Y8640516D01*
X8925998Y8408266D02*
Y8443696D01*
G54D12*
X8675248Y8888621D03*
X8801233Y8888625D03*
G54D13*
X8681186Y8894549D03*
X8795332Y8894537D03*
G54D12*
X8675248Y8357131D03*
X8801233Y8357126D03*
G54D13*
X8681155Y8351217D03*
X8795338Y8351231D03*
G54D14*
X8373138Y8551196D02*
Y8559066D01*
X8204038Y8705256D02*
Y8713126D01*
X8364313Y8551571D02*
X8372183D01*
X8204153Y8713491D02*
X8212023D01*
G54D10*
X9728367Y4088028D03*
X9622137Y4077118D03*
X9510417Y3969748D03*
X9691267Y4406488D03*
X9503737Y4227248D03*
X9500937Y4384718D03*
X9715537Y4216948D03*
G54D11*
X9816777Y4384373D02*
Y4419803D01*
X9819737Y4187523D02*
Y4222953D01*
X9819517Y3990453D02*
Y4025883D01*
X9835137Y4384503D02*
Y4419933D01*
X9835497Y4187763D02*
Y4223193D01*
X9835447Y3990943D02*
Y4026373D01*
G54D12*
X9584697Y4471298D03*
X9710682Y4471303D03*
G54D13*
X9590635Y4477226D03*
X9704781Y4477214D03*
G54D12*
X9584697Y3939808D03*
X9710682Y3939803D03*
G54D13*
X9590604Y3933894D03*
X9704787Y3933909D03*
G54D14*
X9282587Y4133873D02*
Y4141743D01*
X9113487Y4287933D02*
Y4295803D01*
X9273762Y4134248D02*
X9281632D01*
X9113602Y4296168D02*
X9121472D01*
G54D10*
X9728367Y4824248D03*
X9622137Y4813338D03*
X9510417Y4705968D03*
X9691267Y5142708D03*
X9503737Y4963468D03*
X9500937Y5120938D03*
X9715537Y4953168D03*
G54D11*
X9816777Y5120593D02*
Y5156023D01*
X9819737Y4923743D02*
Y4959173D01*
X9819517Y4726673D02*
Y4762103D01*
X9835137Y5120723D02*
Y5156153D01*
X9835497Y4923983D02*
Y4959413D01*
X9835447Y4727163D02*
Y4762593D01*
G54D12*
X9584697Y5207518D03*
X9710682Y5207523D03*
G54D13*
X9590635Y5213447D03*
X9704781Y5213435D03*
G54D12*
X9584697Y4676028D03*
X9710682Y4676023D03*
G54D13*
X9590604Y4670114D03*
X9704787Y4670129D03*
G54D14*
X9282587Y4870093D02*
Y4877963D01*
X9113487Y5024153D02*
Y5032023D01*
X9273762Y4870468D02*
X9281632D01*
X9113602Y5032388D02*
X9121472D01*
G54D10*
X9728367Y5560469D03*
X9622137Y5549559D03*
X9510417Y5442189D03*
X9691267Y5878929D03*
X9503737Y5699689D03*
X9500937Y5857159D03*
X9715537Y5689389D03*
G54D11*
X9816777Y5856814D02*
Y5892244D01*
X9819737Y5659964D02*
Y5695394D01*
X9819517Y5462894D02*
Y5498324D01*
X9835137Y5856944D02*
Y5892374D01*
X9835497Y5660204D02*
Y5695634D01*
X9835447Y5463384D02*
Y5498814D01*
G54D12*
X9584697Y5943739D03*
X9710682Y5943744D03*
G54D13*
X9590635Y5949667D03*
X9704781Y5949655D03*
G54D12*
X9584697Y5412249D03*
X9710682Y5412244D03*
G54D13*
X9590604Y5406335D03*
X9704787Y5406350D03*
G54D14*
X9282587Y5606314D02*
Y5614184D01*
X9113487Y5760374D02*
Y5768244D01*
X9273762Y5606689D02*
X9281632D01*
X9113602Y5768609D02*
X9121472D01*
G54D10*
X9728367Y6296689D03*
X9622137Y6285779D03*
X9510417Y6178409D03*
X9691267Y6615149D03*
X9503737Y6435909D03*
X9500937Y6593379D03*
X9715537Y6425609D03*
G54D11*
X9816777Y6593034D02*
Y6628464D01*
X9819737Y6396184D02*
Y6431614D01*
X9819517Y6199114D02*
Y6234544D01*
X9835137Y6593164D02*
Y6628594D01*
X9835497Y6396424D02*
Y6431854D01*
X9835447Y6199604D02*
Y6235034D01*
G54D12*
X9584697Y6679959D03*
X9710682Y6679964D03*
G54D13*
X9590635Y6685888D03*
X9704781Y6685875D03*
G54D12*
X9584697Y6148469D03*
X9710682Y6148464D03*
G54D13*
X9590604Y6142555D03*
X9704787Y6142570D03*
G54D14*
X9282587Y6342534D02*
Y6350404D01*
X9113487Y6496594D02*
Y6504464D01*
X9273762Y6342909D02*
X9281632D01*
X9113602Y6504829D02*
X9121472D01*
G54D10*
X9728367Y7032910D03*
X9622137Y7022000D03*
X9510417Y6914630D03*
X9691267Y7351370D03*
X9503737Y7172130D03*
X9500937Y7329600D03*
X9715537Y7161830D03*
G54D11*
X9816777Y7329255D02*
Y7364685D01*
X9819737Y7132405D02*
Y7167835D01*
X9819517Y6935335D02*
Y6970765D01*
X9835137Y7329385D02*
Y7364815D01*
X9835497Y7132645D02*
Y7168075D01*
X9835447Y6935825D02*
Y6971255D01*
G54D12*
X9584697Y7416180D03*
X9710682Y7416185D03*
G54D13*
X9590635Y7422108D03*
X9704781Y7422096D03*
G54D12*
X9584697Y6884690D03*
X9710682Y6884685D03*
G54D13*
X9590604Y6878776D03*
X9704787Y6878791D03*
G54D14*
X9282587Y7078755D02*
Y7086625D01*
X9113487Y7232815D02*
Y7240685D01*
X9273762Y7079130D02*
X9281632D01*
X9113602Y7241050D02*
X9121472D01*
G54D10*
X9728367Y7769130D03*
X9622137Y7758220D03*
X9510417Y7650850D03*
X9691267Y8087590D03*
X9503737Y7908350D03*
X9500937Y8065820D03*
X9715537Y7898050D03*
G54D11*
X9816777Y8065475D02*
Y8100905D01*
X9819737Y7868625D02*
Y7904055D01*
X9819517Y7671555D02*
Y7706985D01*
X9835137Y8065605D02*
Y8101035D01*
X9835497Y7868865D02*
Y7904295D01*
X9835447Y7672045D02*
Y7707475D01*
G54D12*
X9584697Y8152400D03*
X9710682Y8152405D03*
G54D13*
X9590635Y8158329D03*
X9704781Y8158316D03*
G54D12*
X9584697Y7620910D03*
X9710682Y7620905D03*
G54D13*
X9590604Y7614996D03*
X9704787Y7615011D03*
G54D14*
X9282587Y7814975D02*
Y7822845D01*
X9113487Y7969035D02*
Y7976905D01*
X9273762Y7815350D02*
X9281632D01*
X9113602Y7977270D02*
X9121472D01*
G54D10*
X9728367Y8505351D03*
X9622137Y8494441D03*
X9510417Y8387071D03*
X9691267Y8823811D03*
X9503737Y8644571D03*
X9500937Y8802041D03*
X9715537Y8634271D03*
G54D11*
X9816777Y8801696D02*
Y8837126D01*
X9819737Y8604846D02*
Y8640276D01*
X9819517Y8407776D02*
Y8443206D01*
X9835137Y8801826D02*
Y8837256D01*
X9835497Y8605086D02*
Y8640516D01*
X9835447Y8408266D02*
Y8443696D01*
G54D12*
X9584697Y8888621D03*
X9710682Y8888625D03*
G54D13*
X9590635Y8894549D03*
X9704781Y8894537D03*
G54D12*
X9584697Y8357131D03*
X9710682Y8357126D03*
G54D13*
X9590604Y8351217D03*
X9704787Y8351231D03*
G54D14*
X9282587Y8551196D02*
Y8559066D01*
X9113487Y8705256D02*
Y8713126D01*
X9273762Y8551571D02*
X9281632D01*
X9113602Y8713491D02*
X9121472D01*
G54D10*
X10637816Y4088028D03*
X10531586Y4077118D03*
X10419866Y3969748D03*
X10600716Y4406488D03*
X10413186Y4227248D03*
X10410386Y4384718D03*
X10624986Y4216948D03*
G54D11*
X10726226Y4384373D02*
Y4419803D01*
X10729186Y4187523D02*
Y4222953D01*
X10728966Y3990453D02*
Y4025883D01*
X10744586Y4384503D02*
Y4419933D01*
X10744946Y4187763D02*
Y4223193D01*
X10744896Y3990943D02*
Y4026373D01*
G54D12*
X10494146Y4471298D03*
X10620131Y4471303D03*
G54D13*
X10500084Y4477226D03*
X10614230Y4477214D03*
G54D12*
X10494146Y3939808D03*
X10620131Y3939803D03*
G54D13*
X10500053Y3933894D03*
X10614235Y3933909D03*
G54D14*
X10192036Y4133873D02*
Y4141743D01*
X10022936Y4287933D02*
Y4295803D01*
X10183211Y4134248D02*
X10191081D01*
X10023051Y4296168D02*
X10030921D01*
G54D10*
X10637816Y4824248D03*
X10531586Y4813338D03*
X10419866Y4705968D03*
X10600716Y5142708D03*
X10413186Y4963468D03*
X10410386Y5120938D03*
X10624986Y4953168D03*
G54D11*
X10726226Y5120593D02*
Y5156023D01*
X10729186Y4923743D02*
Y4959173D01*
X10728966Y4726673D02*
Y4762103D01*
X10744586Y5120723D02*
Y5156153D01*
X10744946Y4923983D02*
Y4959413D01*
X10744896Y4727163D02*
Y4762593D01*
G54D12*
X10494146Y5207518D03*
X10620131Y5207523D03*
G54D13*
X10500084Y5213447D03*
X10614230Y5213435D03*
G54D12*
X10494146Y4676028D03*
X10620131Y4676023D03*
G54D13*
X10500053Y4670114D03*
X10614235Y4670129D03*
G54D14*
X10192036Y4870093D02*
Y4877963D01*
X10022936Y5024153D02*
Y5032023D01*
X10183211Y4870468D02*
X10191081D01*
X10023051Y5032388D02*
X10030921D01*
G54D10*
X10637816Y5560469D03*
X10531586Y5549559D03*
X10419866Y5442189D03*
X10600716Y5878929D03*
X10413186Y5699689D03*
X10410386Y5857159D03*
X10624986Y5689389D03*
G54D11*
X10726226Y5856814D02*
Y5892244D01*
X10729186Y5659964D02*
Y5695394D01*
X10728966Y5462894D02*
Y5498324D01*
X10744586Y5856944D02*
Y5892374D01*
X10744946Y5660204D02*
Y5695634D01*
X10744896Y5463384D02*
Y5498814D01*
G54D12*
X10494146Y5943739D03*
X10620131Y5943744D03*
G54D13*
X10500084Y5949667D03*
X10614230Y5949655D03*
G54D12*
X10494146Y5412249D03*
X10620131Y5412244D03*
G54D13*
X10500053Y5406335D03*
X10614235Y5406350D03*
G54D14*
X10192036Y5606314D02*
Y5614184D01*
X10022936Y5760374D02*
Y5768244D01*
X10183211Y5606689D02*
X10191081D01*
X10023051Y5768609D02*
X10030921D01*
G54D10*
X10637816Y6296689D03*
X10531586Y6285779D03*
X10419866Y6178409D03*
X10600716Y6615149D03*
X10413186Y6435909D03*
X10410386Y6593379D03*
X10624986Y6425609D03*
G54D11*
X10726226Y6593034D02*
Y6628464D01*
X10729186Y6396184D02*
Y6431614D01*
X10728966Y6199114D02*
Y6234544D01*
X10744586Y6593164D02*
Y6628594D01*
X10744946Y6396424D02*
Y6431854D01*
X10744896Y6199604D02*
Y6235034D01*
G54D12*
X10494146Y6679959D03*
X10620131Y6679964D03*
G54D13*
X10500084Y6685888D03*
X10614230Y6685875D03*
G54D12*
X10494146Y6148469D03*
X10620131Y6148464D03*
G54D13*
X10500053Y6142555D03*
X10614235Y6142570D03*
G54D14*
X10192036Y6342534D02*
Y6350404D01*
X10022936Y6496594D02*
Y6504464D01*
X10183211Y6342909D02*
X10191081D01*
X10023051Y6504829D02*
X10030921D01*
G54D10*
X10637816Y7032910D03*
X10531586Y7022000D03*
X10419866Y6914630D03*
X10600716Y7351370D03*
X10413186Y7172130D03*
X10410386Y7329600D03*
X10624986Y7161830D03*
G54D11*
X10726226Y7329255D02*
Y7364685D01*
X10729186Y7132405D02*
Y7167835D01*
X10728966Y6935335D02*
Y6970765D01*
X10744586Y7329385D02*
Y7364815D01*
X10744946Y7132645D02*
Y7168075D01*
X10744896Y6935825D02*
Y6971255D01*
G54D12*
X10494146Y7416180D03*
X10620131Y7416185D03*
G54D13*
X10500084Y7422108D03*
X10614230Y7422096D03*
G54D12*
X10494146Y6884690D03*
X10620131Y6884685D03*
G54D13*
X10500053Y6878776D03*
X10614235Y6878791D03*
G54D14*
X10192036Y7078755D02*
Y7086625D01*
X10022936Y7232815D02*
Y7240685D01*
X10183211Y7079130D02*
X10191081D01*
X10023051Y7241050D02*
X10030921D01*
G54D10*
X10637816Y7769130D03*
X10531586Y7758220D03*
X10419866Y7650850D03*
X10600716Y8087590D03*
X10413186Y7908350D03*
X10410386Y8065820D03*
X10624986Y7898050D03*
G54D11*
X10726226Y8065475D02*
Y8100905D01*
X10729186Y7868625D02*
Y7904055D01*
X10728966Y7671555D02*
Y7706985D01*
X10744586Y8065605D02*
Y8101035D01*
X10744946Y7868865D02*
Y7904295D01*
X10744896Y7672045D02*
Y7707475D01*
G54D12*
X10494146Y8152400D03*
X10620131Y8152405D03*
G54D13*
X10500084Y8158329D03*
X10614230Y8158316D03*
G54D12*
X10494146Y7620910D03*
X10620131Y7620905D03*
G54D13*
X10500053Y7614996D03*
X10614235Y7615011D03*
G54D14*
X10192036Y7814975D02*
Y7822845D01*
X10022936Y7969035D02*
Y7976905D01*
X10183211Y7815350D02*
X10191081D01*
X10023051Y7977270D02*
X10030921D01*
G54D10*
X10637816Y8505351D03*
X10531586Y8494441D03*
X10419866Y8387071D03*
X10600716Y8823811D03*
X10413186Y8644571D03*
X10410386Y8802041D03*
X10624986Y8634271D03*
G54D11*
X10726226Y8801696D02*
Y8837126D01*
X10729186Y8604846D02*
Y8640276D01*
X10728966Y8407776D02*
Y8443206D01*
X10744586Y8801826D02*
Y8837256D01*
X10744946Y8605086D02*
Y8640516D01*
X10744896Y8408266D02*
Y8443696D01*
G54D12*
X10494146Y8888621D03*
X10620131Y8888625D03*
G54D13*
X10500084Y8894549D03*
X10614230Y8894537D03*
G54D12*
X10494146Y8357131D03*
X10620131Y8357126D03*
G54D13*
X10500053Y8351217D03*
X10614235Y8351231D03*
G54D14*
X10192036Y8551196D02*
Y8559066D01*
X10022936Y8705256D02*
Y8713126D01*
X10183211Y8551571D02*
X10191081D01*
X10023051Y8713491D02*
X10030921D01*
G54D10*
X11842540Y4088028D03*
X11736310Y4077118D03*
X11624590Y3969748D03*
X11805440Y4406488D03*
X11617910Y4227248D03*
X11615110Y4384718D03*
X11829710Y4216948D03*
G54D11*
X11930950Y4384373D02*
Y4419803D01*
X11933910Y4187523D02*
Y4222953D01*
X11933690Y3990453D02*
Y4025883D01*
X11949310Y4384503D02*
Y4419933D01*
X11949670Y4187763D02*
Y4223193D01*
X11949620Y3990943D02*
Y4026373D01*
G54D12*
X11698870Y4471298D03*
X11824855Y4471303D03*
G54D13*
X11704808Y4477226D03*
X11818954Y4477214D03*
G54D12*
X11698870Y3939808D03*
X11824855Y3939803D03*
G54D13*
X11704777Y3933894D03*
X11818960Y3933909D03*
G54D14*
X11396760Y4133873D02*
Y4141743D01*
X11227660Y4287933D02*
Y4295803D01*
X11387935Y4134248D02*
X11395805D01*
X11227775Y4296168D02*
X11235645D01*
G54D10*
X11842540Y4824248D03*
X11736310Y4813338D03*
X11624590Y4705968D03*
X11805440Y5142708D03*
X11617910Y4963468D03*
X11615110Y5120938D03*
X11829710Y4953168D03*
G54D11*
X11930950Y5120593D02*
Y5156023D01*
X11933910Y4923743D02*
Y4959173D01*
X11933690Y4726673D02*
Y4762103D01*
X11949310Y5120723D02*
Y5156153D01*
X11949670Y4923983D02*
Y4959413D01*
X11949620Y4727163D02*
Y4762593D01*
G54D12*
X11698870Y5207518D03*
X11824855Y5207523D03*
G54D13*
X11704808Y5213447D03*
X11818954Y5213435D03*
G54D12*
X11698870Y4676028D03*
X11824855Y4676023D03*
G54D13*
X11704777Y4670114D03*
X11818960Y4670129D03*
G54D14*
X11396760Y4870093D02*
Y4877963D01*
X11227660Y5024153D02*
Y5032023D01*
X11387935Y4870468D02*
X11395805D01*
X11227775Y5032388D02*
X11235645D01*
G54D10*
X11842540Y5560469D03*
X11736310Y5549559D03*
X11624590Y5442189D03*
X11805440Y5878929D03*
X11617910Y5699689D03*
X11615110Y5857159D03*
X11829710Y5689389D03*
G54D11*
X11930950Y5856814D02*
Y5892244D01*
X11933910Y5659964D02*
Y5695394D01*
X11933690Y5462894D02*
Y5498324D01*
X11949310Y5856944D02*
Y5892374D01*
X11949670Y5660204D02*
Y5695634D01*
X11949620Y5463384D02*
Y5498814D01*
G54D12*
X11698870Y5943739D03*
X11824855Y5943744D03*
G54D13*
X11704808Y5949667D03*
X11818954Y5949655D03*
G54D12*
X11698870Y5412249D03*
X11824855Y5412244D03*
G54D13*
X11704777Y5406335D03*
X11818960Y5406350D03*
G54D14*
X11396760Y5606314D02*
Y5614184D01*
X11227660Y5760374D02*
Y5768244D01*
X11387935Y5606689D02*
X11395805D01*
X11227775Y5768609D02*
X11235645D01*
G54D10*
X11842540Y6296689D03*
X11736310Y6285779D03*
X11624590Y6178409D03*
X11805440Y6615149D03*
X11617910Y6435909D03*
X11615110Y6593379D03*
X11829710Y6425609D03*
G54D11*
X11930950Y6593034D02*
Y6628464D01*
X11933910Y6396184D02*
Y6431614D01*
X11933690Y6199114D02*
Y6234544D01*
X11949310Y6593164D02*
Y6628594D01*
X11949670Y6396424D02*
Y6431854D01*
X11949620Y6199604D02*
Y6235034D01*
G54D12*
X11698870Y6679959D03*
X11824855Y6679964D03*
G54D13*
X11704808Y6685888D03*
X11818954Y6685875D03*
G54D12*
X11698870Y6148469D03*
X11824855Y6148464D03*
G54D13*
X11704777Y6142555D03*
X11818960Y6142570D03*
G54D14*
X11396760Y6342534D02*
Y6350404D01*
X11227660Y6496594D02*
Y6504464D01*
X11387935Y6342909D02*
X11395805D01*
X11227775Y6504829D02*
X11235645D01*
G54D10*
X11842540Y7032910D03*
X11736310Y7022000D03*
X11624590Y6914630D03*
X11805440Y7351370D03*
X11617910Y7172130D03*
X11615110Y7329600D03*
X11829710Y7161830D03*
G54D11*
X11930950Y7329255D02*
Y7364685D01*
X11933910Y7132405D02*
Y7167835D01*
X11933690Y6935335D02*
Y6970765D01*
X11949310Y7329385D02*
Y7364815D01*
X11949670Y7132645D02*
Y7168075D01*
X11949620Y6935825D02*
Y6971255D01*
G54D12*
X11698870Y7416180D03*
X11824855Y7416185D03*
G54D13*
X11704808Y7422108D03*
X11818954Y7422096D03*
G54D12*
X11698870Y6884690D03*
X11824855Y6884685D03*
G54D13*
X11704777Y6878776D03*
X11818960Y6878791D03*
G54D14*
X11396760Y7078755D02*
Y7086625D01*
X11227660Y7232815D02*
Y7240685D01*
X11387935Y7079130D02*
X11395805D01*
X11227775Y7241050D02*
X11235645D01*
G54D10*
X11842540Y7769130D03*
X11736310Y7758220D03*
X11624590Y7650850D03*
X11805440Y8087590D03*
X11617910Y7908350D03*
X11615110Y8065820D03*
X11829710Y7898050D03*
G54D11*
X11930950Y8065475D02*
Y8100905D01*
X11933910Y7868625D02*
Y7904055D01*
X11933690Y7671555D02*
Y7706985D01*
X11949310Y8065605D02*
Y8101035D01*
X11949670Y7868865D02*
Y7904295D01*
X11949620Y7672045D02*
Y7707475D01*
G54D12*
X11698870Y8152400D03*
X11824855Y8152405D03*
G54D13*
X11704808Y8158329D03*
X11818954Y8158316D03*
G54D12*
X11698870Y7620910D03*
X11824855Y7620905D03*
G54D13*
X11704777Y7614996D03*
X11818960Y7615011D03*
G54D14*
X11396760Y7814975D02*
Y7822845D01*
X11227660Y7969035D02*
Y7976905D01*
X11387935Y7815350D02*
X11395805D01*
X11227775Y7977270D02*
X11235645D01*
G54D10*
X11842540Y8505351D03*
X11736310Y8494441D03*
X11624590Y8387071D03*
X11805440Y8823811D03*
X11617910Y8644571D03*
X11615110Y8802041D03*
X11829710Y8634271D03*
G54D11*
X11930950Y8801696D02*
Y8837126D01*
X11933910Y8604846D02*
Y8640276D01*
X11933690Y8407776D02*
Y8443206D01*
X11949310Y8801826D02*
Y8837256D01*
X11949670Y8605086D02*
Y8640516D01*
X11949620Y8408266D02*
Y8443696D01*
G54D12*
X11698870Y8888621D03*
X11824855Y8888625D03*
G54D13*
X11704808Y8894549D03*
X11818954Y8894537D03*
G54D12*
X11698870Y8357131D03*
X11824855Y8357126D03*
G54D13*
X11704777Y8351217D03*
X11818960Y8351231D03*
G54D14*
X11396760Y8551196D02*
Y8559066D01*
X11227660Y8705256D02*
Y8713126D01*
X11387935Y8551571D02*
X11395805D01*
X11227775Y8713491D02*
X11235645D01*
G54D10*
X12751989Y4088028D03*
X12645759Y4077118D03*
X12534039Y3969748D03*
X12714889Y4406488D03*
X12527359Y4227248D03*
X12524559Y4384718D03*
X12739159Y4216948D03*
G54D11*
X12840399Y4384373D02*
Y4419803D01*
X12843359Y4187523D02*
Y4222953D01*
X12843139Y3990453D02*
Y4025883D01*
X12858759Y4384503D02*
Y4419933D01*
X12859119Y4187763D02*
Y4223193D01*
X12859069Y3990943D02*
Y4026373D01*
G54D12*
X12608319Y4471298D03*
X12734304Y4471303D03*
G54D13*
X12614257Y4477226D03*
X12728403Y4477214D03*
G54D12*
X12608319Y3939808D03*
X12734304Y3939803D03*
G54D13*
X12614226Y3933894D03*
X12728409Y3933909D03*
G54D14*
X12306209Y4133873D02*
Y4141743D01*
X12137109Y4287933D02*
Y4295803D01*
X12297384Y4134248D02*
X12305254D01*
X12137224Y4296168D02*
X12145094D01*
G54D10*
X12751989Y4824248D03*
X12645759Y4813338D03*
X12534039Y4705968D03*
X12714889Y5142708D03*
X12527359Y4963468D03*
X12524559Y5120938D03*
X12739159Y4953168D03*
G54D11*
X12840399Y5120593D02*
Y5156023D01*
X12843359Y4923743D02*
Y4959173D01*
X12843139Y4726673D02*
Y4762103D01*
X12858759Y5120723D02*
Y5156153D01*
X12859119Y4923983D02*
Y4959413D01*
X12859069Y4727163D02*
Y4762593D01*
G54D12*
X12608319Y5207518D03*
X12734304Y5207523D03*
G54D13*
X12614257Y5213447D03*
X12728403Y5213435D03*
G54D12*
X12608319Y4676028D03*
X12734304Y4676023D03*
G54D13*
X12614226Y4670114D03*
X12728409Y4670129D03*
G54D14*
X12306209Y4870093D02*
Y4877963D01*
X12137109Y5024153D02*
Y5032023D01*
X12297384Y4870468D02*
X12305254D01*
X12137224Y5032388D02*
X12145094D01*
G54D10*
X12751989Y5560469D03*
X12645759Y5549559D03*
X12534039Y5442189D03*
X12714889Y5878929D03*
X12527359Y5699689D03*
X12524559Y5857159D03*
X12739159Y5689389D03*
G54D11*
X12840399Y5856814D02*
Y5892244D01*
X12843359Y5659964D02*
Y5695394D01*
X12843139Y5462894D02*
Y5498324D01*
X12858759Y5856944D02*
Y5892374D01*
X12859119Y5660204D02*
Y5695634D01*
X12859069Y5463384D02*
Y5498814D01*
G54D12*
X12608319Y5943739D03*
X12734304Y5943744D03*
G54D13*
X12614257Y5949667D03*
X12728403Y5949655D03*
G54D12*
X12608319Y5412249D03*
X12734304Y5412244D03*
G54D13*
X12614226Y5406335D03*
X12728409Y5406350D03*
G54D14*
X12306209Y5606314D02*
Y5614184D01*
X12137109Y5760374D02*
Y5768244D01*
X12297384Y5606689D02*
X12305254D01*
X12137224Y5768609D02*
X12145094D01*
G54D10*
X12751989Y6296689D03*
X12645759Y6285779D03*
X12534039Y6178409D03*
X12714889Y6615149D03*
X12527359Y6435909D03*
X12524559Y6593379D03*
X12739159Y6425609D03*
G54D11*
X12840399Y6593034D02*
Y6628464D01*
X12843359Y6396184D02*
Y6431614D01*
X12843139Y6199114D02*
Y6234544D01*
X12858759Y6593164D02*
Y6628594D01*
X12859119Y6396424D02*
Y6431854D01*
X12859069Y6199604D02*
Y6235034D01*
G54D12*
X12608319Y6679959D03*
X12734304Y6679964D03*
G54D13*
X12614257Y6685888D03*
X12728403Y6685875D03*
G54D12*
X12608319Y6148469D03*
X12734304Y6148464D03*
G54D13*
X12614226Y6142555D03*
X12728409Y6142570D03*
G54D14*
X12306209Y6342534D02*
Y6350404D01*
X12137109Y6496594D02*
Y6504464D01*
X12297384Y6342909D02*
X12305254D01*
X12137224Y6504829D02*
X12145094D01*
G54D10*
X12751989Y7032910D03*
X12645759Y7022000D03*
X12534039Y6914630D03*
X12714889Y7351370D03*
X12527359Y7172130D03*
X12524559Y7329600D03*
X12739159Y7161830D03*
G54D11*
X12840399Y7329255D02*
Y7364685D01*
X12843359Y7132405D02*
Y7167835D01*
X12843139Y6935335D02*
Y6970765D01*
X12858759Y7329385D02*
Y7364815D01*
X12859119Y7132645D02*
Y7168075D01*
X12859069Y6935825D02*
Y6971255D01*
G54D12*
X12608319Y7416180D03*
X12734304Y7416185D03*
G54D13*
X12614257Y7422108D03*
X12728403Y7422096D03*
G54D12*
X12608319Y6884690D03*
X12734304Y6884685D03*
G54D13*
X12614226Y6878776D03*
X12728409Y6878791D03*
G54D14*
X12306209Y7078755D02*
Y7086625D01*
X12137109Y7232815D02*
Y7240685D01*
X12297384Y7079130D02*
X12305254D01*
X12137224Y7241050D02*
X12145094D01*
G54D10*
X12751989Y7769130D03*
X12645759Y7758220D03*
X12534039Y7650850D03*
X12714889Y8087590D03*
X12527359Y7908350D03*
X12524559Y8065820D03*
X12739159Y7898050D03*
G54D11*
X12840399Y8065475D02*
Y8100905D01*
X12843359Y7868625D02*
Y7904055D01*
X12843139Y7671555D02*
Y7706985D01*
X12858759Y8065605D02*
Y8101035D01*
X12859119Y7868865D02*
Y7904295D01*
X12859069Y7672045D02*
Y7707475D01*
G54D12*
X12608319Y8152400D03*
X12734304Y8152405D03*
G54D13*
X12614257Y8158329D03*
X12728403Y8158316D03*
G54D12*
X12608319Y7620910D03*
X12734304Y7620905D03*
G54D13*
X12614226Y7614996D03*
X12728409Y7615011D03*
G54D14*
X12306209Y7814975D02*
Y7822845D01*
X12137109Y7969035D02*
Y7976905D01*
X12297384Y7815350D02*
X12305254D01*
X12137224Y7977270D02*
X12145094D01*
G54D10*
X12751989Y8505351D03*
X12645759Y8494441D03*
X12534039Y8387071D03*
X12714889Y8823811D03*
X12527359Y8644571D03*
X12524559Y8802041D03*
X12739159Y8634271D03*
G54D11*
X12840399Y8801696D02*
Y8837126D01*
X12843359Y8604846D02*
Y8640276D01*
X12843139Y8407776D02*
Y8443206D01*
X12858759Y8801826D02*
Y8837256D01*
X12859119Y8605086D02*
Y8640516D01*
X12859069Y8408266D02*
Y8443696D01*
G54D12*
X12608319Y8888621D03*
X12734304Y8888625D03*
G54D13*
X12614257Y8894549D03*
X12728403Y8894537D03*
G54D12*
X12608319Y8357131D03*
X12734304Y8357126D03*
G54D13*
X12614226Y8351217D03*
X12728409Y8351231D03*
G54D14*
X12306209Y8551196D02*
Y8559066D01*
X12137109Y8705256D02*
Y8713126D01*
X12297384Y8551571D02*
X12305254D01*
X12137224Y8713491D02*
X12145094D01*
G54D10*
X13661438Y4088028D03*
X13555208Y4077118D03*
X13443488Y3969748D03*
X13624338Y4406488D03*
X13436808Y4227248D03*
X13434008Y4384718D03*
X13648608Y4216948D03*
G54D11*
X13749848Y4384373D02*
Y4419803D01*
X13752808Y4187523D02*
Y4222953D01*
X13752588Y3990453D02*
Y4025883D01*
X13768208Y4384503D02*
Y4419933D01*
X13768568Y4187763D02*
Y4223193D01*
X13768518Y3990943D02*
Y4026373D01*
G54D12*
X13517768Y4471298D03*
X13643753Y4471303D03*
G54D13*
X13523706Y4477226D03*
X13637852Y4477214D03*
G54D12*
X13517768Y3939808D03*
X13643753Y3939803D03*
G54D13*
X13523675Y3933894D03*
X13637857Y3933909D03*
G54D14*
X13215658Y4133873D02*
Y4141743D01*
X13046558Y4287933D02*
Y4295803D01*
X13206833Y4134248D02*
X13214703D01*
X13046673Y4296168D02*
X13054543D01*
G54D10*
X13661438Y4824248D03*
X13555208Y4813338D03*
X13443488Y4705968D03*
X13624338Y5142708D03*
X13436808Y4963468D03*
X13434008Y5120938D03*
X13648608Y4953168D03*
G54D11*
X13749848Y5120593D02*
Y5156023D01*
X13752808Y4923743D02*
Y4959173D01*
X13752588Y4726673D02*
Y4762103D01*
X13768208Y5120723D02*
Y5156153D01*
X13768568Y4923983D02*
Y4959413D01*
X13768518Y4727163D02*
Y4762593D01*
G54D12*
X13517768Y5207518D03*
X13643753Y5207523D03*
G54D13*
X13523706Y5213447D03*
X13637852Y5213435D03*
G54D12*
X13517768Y4676028D03*
X13643753Y4676023D03*
G54D13*
X13523675Y4670114D03*
X13637857Y4670129D03*
G54D14*
X13215658Y4870093D02*
Y4877963D01*
X13046558Y5024153D02*
Y5032023D01*
X13206833Y4870468D02*
X13214703D01*
X13046673Y5032388D02*
X13054543D01*
G54D10*
X13661438Y5560469D03*
X13555208Y5549559D03*
X13443488Y5442189D03*
X13624338Y5878929D03*
X13436808Y5699689D03*
X13434008Y5857159D03*
X13648608Y5689389D03*
G54D11*
X13749848Y5856814D02*
Y5892244D01*
X13752808Y5659964D02*
Y5695394D01*
X13752588Y5462894D02*
Y5498324D01*
X13768208Y5856944D02*
Y5892374D01*
X13768568Y5660204D02*
Y5695634D01*
X13768518Y5463384D02*
Y5498814D01*
G54D12*
X13517768Y5943739D03*
X13643753Y5943744D03*
G54D13*
X13523706Y5949667D03*
X13637852Y5949655D03*
G54D12*
X13517768Y5412249D03*
X13643753Y5412244D03*
G54D13*
X13523675Y5406335D03*
X13637857Y5406350D03*
G54D14*
X13215658Y5606314D02*
Y5614184D01*
X13046558Y5760374D02*
Y5768244D01*
X13206833Y5606689D02*
X13214703D01*
X13046673Y5768609D02*
X13054543D01*
G54D10*
X13661438Y6296689D03*
X13555208Y6285779D03*
X13443488Y6178409D03*
X13624338Y6615149D03*
X13436808Y6435909D03*
X13434008Y6593379D03*
X13648608Y6425609D03*
G54D11*
X13749848Y6593034D02*
Y6628464D01*
X13752808Y6396184D02*
Y6431614D01*
X13752588Y6199114D02*
Y6234544D01*
X13768208Y6593164D02*
Y6628594D01*
X13768568Y6396424D02*
Y6431854D01*
X13768518Y6199604D02*
Y6235034D01*
G54D12*
X13517768Y6679959D03*
X13643753Y6679964D03*
G54D13*
X13523706Y6685888D03*
X13637852Y6685875D03*
G54D12*
X13517768Y6148469D03*
X13643753Y6148464D03*
G54D13*
X13523675Y6142555D03*
X13637857Y6142570D03*
G54D14*
X13215658Y6342534D02*
Y6350404D01*
X13046558Y6496594D02*
Y6504464D01*
X13206833Y6342909D02*
X13214703D01*
X13046673Y6504829D02*
X13054543D01*
G54D10*
X13661438Y7032910D03*
X13555208Y7022000D03*
X13443488Y6914630D03*
X13624338Y7351370D03*
X13436808Y7172130D03*
X13434008Y7329600D03*
X13648608Y7161830D03*
G54D11*
X13749848Y7329255D02*
Y7364685D01*
X13752808Y7132405D02*
Y7167835D01*
X13752588Y6935335D02*
Y6970765D01*
X13768208Y7329385D02*
Y7364815D01*
X13768568Y7132645D02*
Y7168075D01*
X13768518Y6935825D02*
Y6971255D01*
G54D12*
X13517768Y7416180D03*
X13643753Y7416185D03*
G54D13*
X13523706Y7422108D03*
X13637852Y7422096D03*
G54D12*
X13517768Y6884690D03*
X13643753Y6884685D03*
G54D13*
X13523675Y6878776D03*
X13637857Y6878791D03*
G54D14*
X13215658Y7078755D02*
Y7086625D01*
X13046558Y7232815D02*
Y7240685D01*
X13206833Y7079130D02*
X13214703D01*
X13046673Y7241050D02*
X13054543D01*
G54D10*
X13661438Y7769130D03*
X13555208Y7758220D03*
X13443488Y7650850D03*
X13624338Y8087590D03*
X13436808Y7908350D03*
X13434008Y8065820D03*
X13648608Y7898050D03*
G54D11*
X13749848Y8065475D02*
Y8100905D01*
X13752808Y7868625D02*
Y7904055D01*
X13752588Y7671555D02*
Y7706985D01*
X13768208Y8065605D02*
Y8101035D01*
X13768568Y7868865D02*
Y7904295D01*
X13768518Y7672045D02*
Y7707475D01*
G54D12*
X13517768Y8152400D03*
X13643753Y8152405D03*
G54D13*
X13523706Y8158329D03*
X13637852Y8158316D03*
G54D12*
X13517768Y7620910D03*
X13643753Y7620905D03*
G54D13*
X13523675Y7614996D03*
X13637857Y7615011D03*
G54D14*
X13215658Y7814975D02*
Y7822845D01*
X13046558Y7969035D02*
Y7976905D01*
X13206833Y7815350D02*
X13214703D01*
X13046673Y7977270D02*
X13054543D01*
G54D10*
X13661438Y8505351D03*
X13555208Y8494441D03*
X13443488Y8387071D03*
X13624338Y8823811D03*
X13436808Y8644571D03*
X13434008Y8802041D03*
X13648608Y8634271D03*
G54D11*
X13749848Y8801696D02*
Y8837126D01*
X13752808Y8604846D02*
Y8640276D01*
X13752588Y8407776D02*
Y8443206D01*
X13768208Y8801826D02*
Y8837256D01*
X13768568Y8605086D02*
Y8640516D01*
X13768518Y8408266D02*
Y8443696D01*
G54D12*
X13517768Y8888621D03*
X13643753Y8888625D03*
G54D13*
X13523706Y8894549D03*
X13637852Y8894537D03*
G54D12*
X13517768Y8357131D03*
X13643753Y8357126D03*
G54D13*
X13523675Y8351217D03*
X13637857Y8351231D03*
G54D14*
X13215658Y8551196D02*
Y8559066D01*
X13046558Y8705256D02*
Y8713126D01*
X13206833Y8551571D02*
X13214703D01*
X13046673Y8713491D02*
X13054543D01*
G54D10*
X14570887Y4088028D03*
X14464657Y4077118D03*
X14352937Y3969748D03*
X14533787Y4406488D03*
X14346257Y4227248D03*
X14343457Y4384718D03*
X14558057Y4216948D03*
G54D11*
X14659297Y4384373D02*
Y4419803D01*
X14662257Y4187523D02*
Y4222953D01*
X14662037Y3990453D02*
Y4025883D01*
X14677657Y4384503D02*
Y4419933D01*
X14678017Y4187763D02*
Y4223193D01*
X14677967Y3990943D02*
Y4026373D01*
G54D12*
X14427217Y4471298D03*
X14553202Y4471303D03*
G54D13*
X14433154Y4477226D03*
X14547301Y4477214D03*
G54D12*
X14427217Y3939808D03*
X14553202Y3939803D03*
G54D13*
X14433124Y3933894D03*
X14547306Y3933909D03*
G54D14*
X14125107Y4133873D02*
Y4141743D01*
X13956007Y4287933D02*
Y4295803D01*
X14116282Y4134248D02*
X14124152D01*
X13956122Y4296168D02*
X13963992D01*
G54D10*
X14570887Y4824248D03*
X14464657Y4813338D03*
X14352937Y4705968D03*
X14533787Y5142708D03*
X14346257Y4963468D03*
X14343457Y5120938D03*
X14558057Y4953168D03*
G54D11*
X14659297Y5120593D02*
Y5156023D01*
X14662257Y4923743D02*
Y4959173D01*
X14662037Y4726673D02*
Y4762103D01*
X14677657Y5120723D02*
Y5156153D01*
X14678017Y4923983D02*
Y4959413D01*
X14677967Y4727163D02*
Y4762593D01*
G54D12*
X14427217Y5207518D03*
X14553202Y5207523D03*
G54D13*
X14433154Y5213447D03*
X14547301Y5213435D03*
G54D12*
X14427217Y4676028D03*
X14553202Y4676023D03*
G54D13*
X14433124Y4670114D03*
X14547306Y4670129D03*
G54D14*
X14125107Y4870093D02*
Y4877963D01*
X13956007Y5024153D02*
Y5032023D01*
X14116282Y4870468D02*
X14124152D01*
X13956122Y5032388D02*
X13963992D01*
G54D10*
X14570887Y5560469D03*
X14464657Y5549559D03*
X14352937Y5442189D03*
X14533787Y5878929D03*
X14346257Y5699689D03*
X14343457Y5857159D03*
X14558057Y5689389D03*
G54D11*
X14659297Y5856814D02*
Y5892244D01*
X14662257Y5659964D02*
Y5695394D01*
X14662037Y5462894D02*
Y5498324D01*
X14677657Y5856944D02*
Y5892374D01*
X14678017Y5660204D02*
Y5695634D01*
X14677967Y5463384D02*
Y5498814D01*
G54D12*
X14427217Y5943739D03*
X14553202Y5943744D03*
G54D13*
X14433154Y5949667D03*
X14547301Y5949655D03*
G54D12*
X14427217Y5412249D03*
X14553202Y5412244D03*
G54D13*
X14433124Y5406335D03*
X14547306Y5406350D03*
G54D14*
X14125107Y5606314D02*
Y5614184D01*
X13956007Y5760374D02*
Y5768244D01*
X14116282Y5606689D02*
X14124152D01*
X13956122Y5768609D02*
X13963992D01*
G54D10*
X14570887Y6296689D03*
X14464657Y6285779D03*
X14352937Y6178409D03*
X14533787Y6615149D03*
X14346257Y6435909D03*
X14343457Y6593379D03*
X14558057Y6425609D03*
G54D11*
X14659297Y6593034D02*
Y6628464D01*
X14662257Y6396184D02*
Y6431614D01*
X14662037Y6199114D02*
Y6234544D01*
X14677657Y6593164D02*
Y6628594D01*
X14678017Y6396424D02*
Y6431854D01*
X14677967Y6199604D02*
Y6235034D01*
G54D12*
X14427217Y6679959D03*
X14553202Y6679964D03*
G54D13*
X14433154Y6685888D03*
X14547301Y6685875D03*
G54D12*
X14427217Y6148469D03*
X14553202Y6148464D03*
G54D13*
X14433124Y6142555D03*
X14547306Y6142570D03*
G54D14*
X14125107Y6342534D02*
Y6350404D01*
X13956007Y6496594D02*
Y6504464D01*
X14116282Y6342909D02*
X14124152D01*
X13956122Y6504829D02*
X13963992D01*
G54D10*
X14570887Y7032910D03*
X14464657Y7022000D03*
X14352937Y6914630D03*
X14533787Y7351370D03*
X14346257Y7172130D03*
X14343457Y7329600D03*
X14558057Y7161830D03*
G54D11*
X14659297Y7329255D02*
Y7364685D01*
X14662257Y7132405D02*
Y7167835D01*
X14662037Y6935335D02*
Y6970765D01*
X14677657Y7329385D02*
Y7364815D01*
X14678017Y7132645D02*
Y7168075D01*
X14677967Y6935825D02*
Y6971255D01*
G54D12*
X14427217Y7416180D03*
X14553202Y7416185D03*
G54D13*
X14433154Y7422108D03*
X14547301Y7422096D03*
G54D12*
X14427217Y6884690D03*
X14553202Y6884685D03*
G54D13*
X14433124Y6878776D03*
X14547306Y6878791D03*
G54D14*
X14125107Y7078755D02*
Y7086625D01*
X13956007Y7232815D02*
Y7240685D01*
X14116282Y7079130D02*
X14124152D01*
X13956122Y7241050D02*
X13963992D01*
G54D10*
X14570887Y7769130D03*
X14464657Y7758220D03*
X14352937Y7650850D03*
X14533787Y8087590D03*
X14346257Y7908350D03*
X14343457Y8065820D03*
X14558057Y7898050D03*
G54D11*
X14659297Y8065475D02*
Y8100905D01*
X14662257Y7868625D02*
Y7904055D01*
X14662037Y7671555D02*
Y7706985D01*
X14677657Y8065605D02*
Y8101035D01*
X14678017Y7868865D02*
Y7904295D01*
X14677967Y7672045D02*
Y7707475D01*
G54D12*
X14427217Y8152400D03*
X14553202Y8152405D03*
G54D13*
X14433154Y8158329D03*
X14547301Y8158316D03*
G54D12*
X14427217Y7620910D03*
X14553202Y7620905D03*
G54D13*
X14433124Y7614996D03*
X14547306Y7615011D03*
G54D14*
X14125107Y7814975D02*
Y7822845D01*
X13956007Y7969035D02*
Y7976905D01*
X14116282Y7815350D02*
X14124152D01*
X13956122Y7977270D02*
X13963992D01*
G54D10*
X14570887Y8505351D03*
X14464657Y8494441D03*
X14352937Y8387071D03*
X14533787Y8823811D03*
X14346257Y8644571D03*
X14343457Y8802041D03*
X14558057Y8634271D03*
G54D11*
X14659297Y8801696D02*
Y8837126D01*
X14662257Y8604846D02*
Y8640276D01*
X14662037Y8407776D02*
Y8443206D01*
X14677657Y8801826D02*
Y8837256D01*
X14678017Y8605086D02*
Y8640516D01*
X14677967Y8408266D02*
Y8443696D01*
G54D12*
X14427217Y8888621D03*
X14553202Y8888625D03*
G54D13*
X14433154Y8894549D03*
X14547301Y8894537D03*
G54D12*
X14427217Y8357131D03*
X14553202Y8357126D03*
G54D13*
X14433124Y8351217D03*
X14547306Y8351231D03*
G54D14*
X14125107Y8551196D02*
Y8559066D01*
X13956007Y8705256D02*
Y8713126D01*
X14116282Y8551571D02*
X14124152D01*
X13956122Y8713491D02*
X13963992D01*
G54D15*
X7075644Y4280425D03*
X14902416Y4280442D03*
Y8351388D03*
X7075644Y4280425D03*
X14902416Y4280442D03*
Y8351388D03*
G54D16*
X7078435Y6413284D03*
G54D16*
Y6290562D03*
G54D17*
X8024459Y3866968D02*
G03X8083519Y3926018I0J59060D01*
G01Y4056558D01*
G03X8066859Y4076008I-19687J-3D01*
G02X8066859Y4138248I4850J31120D01*
G03X8083519Y4157698I-3027J19453D01*
G01Y4253408D01*
G03X8066859Y4272858I-19687J-3D01*
G02X8066859Y4335098I4850J31120D01*
G03X8083519Y4354548I-3027J19453D01*
G01Y4485078D01*
G03X8024459Y4544138I-59060J0D01*
G01X7992671D01*
X7292179D02*
G03X7233119Y4485078I0J-59060D01*
G01Y3926018D01*
G03X7292179Y3866968I59055J5D01*
G01X7323971D01*
X7750049D02*
G03X7757929Y3874838I5J7875D01*
G01Y3939798D01*
G02X7765799Y3947678I7870J10D01*
G01X7891779D01*
G02X7899659Y3939798I5J-7875D01*
G01Y3874838D01*
G03X7907529Y3866968I7870J0D01*
G01X7933616D01*
X8024459Y4603188D02*
G03X8083519Y4662238I0J59060D01*
G01Y4792778D01*
G03X8066859Y4812228I-19687J-3D01*
G02X8066859Y4874468I4850J31120D01*
G03X8083519Y4893918I-3027J19453D01*
G01Y4989628D01*
G03X8066859Y5009078I-19687J-3D01*
G02X8066859Y5071318I4850J31120D01*
G03X8083519Y5090768I-3027J19453D01*
G01Y5221298D01*
G03X8024459Y5280358I-59060J0D01*
G01X7992671D01*
X7292179D02*
G03X7233119Y5221298I0J-59060D01*
G01Y4662238D01*
G03X7292179Y4603188I59055J5D01*
G01X7323971D01*
X8024459Y5339409D02*
G03X8083519Y5398459I0J59060D01*
G01Y5528999D01*
G03X8066859Y5548449I-19687J-3D01*
G02X8066859Y5610689I4850J31120D01*
G03X8083519Y5630139I-3027J19453D01*
G01Y5725849D01*
G03X8066859Y5745299I-19687J-3D01*
G02X8066859Y5807539I4850J31120D01*
G03X8083519Y5826989I-3027J19453D01*
G01Y5957519D01*
G03X8024459Y6016579I-59060J0D01*
G01X7992671D01*
X7292179D02*
G03X7233119Y5957519I0J-59060D01*
G01Y5398459D01*
G03X7292179Y5339409I59055J5D01*
G01X7323971D01*
X8024459Y6075629D02*
G03X8083519Y6134679I0J59060D01*
G01Y6265219D01*
G03X8066859Y6284669I-19687J-3D01*
G02X8066859Y6346909I4850J31120D01*
G03X8083519Y6366359I-3027J19453D01*
G01Y6462069D01*
G03X8066859Y6481519I-19687J-3D01*
G02X8066859Y6543759I4850J31120D01*
G03X8083519Y6563209I-3027J19453D01*
G01Y6693739D01*
G03X8024459Y6752799I-59060J0D01*
G01X7992671D01*
X7292179D02*
G03X7233119Y6693739I0J-59060D01*
G01Y6134679D01*
G03X7292179Y6075629I59055J5D01*
G01X7323971D01*
X8024459Y6811850D02*
G03X8083519Y6870900I0J59060D01*
G01Y7001440D01*
G03X8066859Y7020890I-19687J-3D01*
G02X8066859Y7083130I4850J31120D01*
G03X8083519Y7102580I-3027J19453D01*
G01Y7198290D01*
G03X8066859Y7217740I-19687J-3D01*
G02X8066859Y7279980I4850J31120D01*
G03X8083519Y7299430I-3027J19453D01*
G01Y7429960D01*
G03X8024459Y7489020I-59060J0D01*
G01X7992671D01*
X7292179D02*
G03X7233119Y7429960I0J-59060D01*
G01Y6870900D01*
G03X7292179Y6811850I59055J5D01*
G01X7323971D01*
X8024459Y7548070D02*
G03X8083519Y7607120I0J59060D01*
G01Y7737660D01*
G03X8066859Y7757110I-19687J-3D01*
G02X8066859Y7819350I4850J31120D01*
G03X8083519Y7838800I-3027J19453D01*
G01Y7934510D01*
G03X8066859Y7953960I-19687J-3D01*
G02X8066859Y8016200I4850J31120D01*
G03X8083519Y8035650I-3027J19453D01*
G01Y8166180D01*
G03X8024459Y8225240I-59060J0D01*
G01X7992671D01*
X7907529D02*
G03X7899659Y8217360I0J-7870D01*
G01Y8152400D01*
G02X7891779Y8144530I-7875J5D01*
G01X7765799D01*
G02X7757929Y8152400I-0J7870D01*
G01Y8217360D01*
G03X7750049Y8225240I-7875J5D01*
G01X7383026D01*
X7292179D02*
G03X7233119Y8166180I0J-59060D01*
G01Y7607120D01*
G03X7292179Y7548070I59055J5D01*
G01X7323971D01*
X8024459Y8284291D02*
G03X8083519Y8343341I0J59060D01*
G01Y8473881D01*
G03X8066859Y8493331I-19687J-3D01*
G02X8066859Y8555571I4850J31120D01*
G03X8083519Y8575021I-3027J19453D01*
G01Y8670731D01*
G03X8066859Y8690181I-19687J-3D01*
G02X8066859Y8752421I4850J31120D01*
G03X8083519Y8771871I-3027J19453D01*
G01Y8902401D01*
G03X8024459Y8961461I-59060J0D01*
G01X7992671D01*
X7907529D02*
G03X7899659Y8953581I0J-7870D01*
G01Y8888621D01*
G02X7891779Y8880751I-7875J5D01*
G01X7765799D01*
G02X7757929Y8888621I-0J7870D01*
G01Y8953581D01*
G03X7750049Y8961461I-7875J5D01*
G01X7383026D01*
X7292179D02*
G03X7233119Y8902401I0J-59060D01*
G01Y8343341D01*
G03X7292179Y8284291I59055J5D01*
G01X7323971D01*
X7750049D02*
G03X7757929Y8292161I5J7875D01*
G01Y8357121D01*
G02X7765799Y8365001I7870J10D01*
G01X7891779D01*
G02X7899659Y8357121I5J-7875D01*
G01Y8292161D01*
G03X7907529Y8284291I7870J0D01*
G01X7933616D01*
X8201628Y4544138D02*
G03X8142568Y4485078I0J-59060D01*
G01Y3926018D01*
G03X8201628Y3866968I59055J5D01*
G01X8233419D01*
X8201628Y5280358D02*
G03X8142568Y5221298I0J-59060D01*
G01Y4662238D01*
G03X8201628Y4603188I59055J5D01*
G01X8233419D01*
X8201628Y6016579D02*
G03X8142568Y5957519I0J-59060D01*
G01Y5398459D01*
G03X8201628Y5339409I59055J5D01*
G01X8233419D01*
X8201628Y6752799D02*
G03X8142568Y6693739I0J-59060D01*
G01Y6134679D01*
G03X8201628Y6075629I59055J5D01*
G01X8233419D01*
X8201628Y7489020D02*
G03X8142568Y7429960I0J-59060D01*
G01Y6870900D01*
G03X8201628Y6811850I59055J5D01*
G01X8233419D01*
X8201628Y8225240D02*
G03X8142568Y8166180I0J-59060D01*
G01Y7607120D01*
G03X8201628Y7548070I59055J5D01*
G01X8233419D01*
X8201628Y8961461D02*
G03X8142568Y8902401I0J-59060D01*
G01Y8343341D01*
G03X8201628Y8284291I59055J5D01*
G01X8233419D01*
X10752806Y3866968D02*
G03X10811866Y3926018I0J59060D01*
G01Y4056558D01*
G03X10795206Y4076008I-19687J-3D01*
G02X10795206Y4138248I4850J31120D01*
G03X10811866Y4157698I-3027J19453D01*
G01Y4253408D01*
G03X10795206Y4272858I-19687J-3D01*
G02X10795206Y4335098I4850J31120D01*
G03X10811866Y4354548I-3027J19453D01*
G01Y4485078D01*
G03X10752806Y4544138I-59060J0D01*
G01X10721018D01*
X10752806Y4603188D02*
G03X10811866Y4662238I0J59060D01*
G01Y4792778D01*
G03X10795206Y4812228I-19687J-3D01*
G02X10795206Y4874468I4850J31120D01*
G03X10811866Y4893918I-3027J19453D01*
G01Y4989628D01*
G03X10795206Y5009078I-19687J-3D01*
G02X10795206Y5071318I4850J31120D01*
G03X10811866Y5090768I-3027J19453D01*
G01Y5221298D01*
G03X10752806Y5280358I-59060J0D01*
G01X10721018D01*
X10752806Y5339409D02*
G03X10811866Y5398459I0J59060D01*
G01Y5528999D01*
G03X10795206Y5548449I-19687J-3D01*
G02X10795206Y5610689I4850J31120D01*
G03X10811866Y5630139I-3027J19453D01*
G01Y5725849D01*
G03X10795206Y5745299I-19687J-3D01*
G02X10795206Y5807539I4850J31120D01*
G03X10811866Y5826989I-3027J19453D01*
G01Y5957519D01*
G03X10752806Y6016579I-59060J0D01*
G01X10721018D01*
X10752806Y6075629D02*
G03X10811866Y6134679I0J59060D01*
G01Y6265219D01*
G03X10795206Y6284669I-19687J-3D01*
G02X10795206Y6346909I4850J31120D01*
G03X10811866Y6366359I-3027J19453D01*
G01Y6462069D01*
G03X10795206Y6481519I-19687J-3D01*
G02X10795206Y6543759I4850J31120D01*
G03X10811866Y6563209I-3027J19453D01*
G01Y6693739D01*
G03X10752806Y6752799I-59060J0D01*
G01X10721018D01*
X10752806Y6811850D02*
G03X10811866Y6870900I0J59060D01*
G01Y7001440D01*
G03X10795206Y7020890I-19687J-3D01*
G02X10795206Y7083130I4850J31120D01*
G03X10811866Y7102580I-3027J19453D01*
G01Y7198290D01*
G03X10795206Y7217740I-19687J-3D01*
G02X10795206Y7279980I4850J31120D01*
G03X10811866Y7299430I-3027J19453D01*
G01Y7429960D01*
G03X10752806Y7489020I-59060J0D01*
G01X10721018D01*
X10752806Y7548070D02*
G03X10811866Y7607120I0J59060D01*
G01Y7737660D01*
G03X10795206Y7757110I-19687J-3D01*
G02X10795206Y7819350I4850J31120D01*
G03X10811866Y7838800I-3027J19453D01*
G01Y7934510D01*
G03X10795206Y7953960I-19687J-3D01*
G02X10795206Y8016200I4850J31120D01*
G03X10811866Y8035650I-3027J19453D01*
G01Y8166180D01*
G03X10752806Y8225240I-59060J0D01*
G01X10721018D01*
X10752806Y8284291D02*
G03X10811866Y8343341I0J59060D01*
G01Y8473881D01*
G03X10795206Y8493331I-19687J-3D01*
G02X10795206Y8555571I4850J31120D01*
G03X10811866Y8575021I-3027J19453D01*
G01Y8670731D01*
G03X10795206Y8690181I-19687J-3D01*
G02X10795206Y8752421I4850J31120D01*
G03X10811866Y8771871I-3027J19453D01*
G01Y8902401D01*
G03X10752806Y8961461I-59060J0D01*
G01X10721018D01*
X15000841Y8649445D02*
Y8055407D01*
X7174069Y9020511D02*
X7323971D01*
X7174069Y3807913D02*
X7323971D01*
X7174069D02*
Y9020511D01*
X7016589Y9138621D02*
X14961471D01*
X7016589Y3689805D02*
X14961471Y3689802D01*
X6977219Y3729175D02*
Y9099251D01*
X15000841Y3729172D02*
Y9099251D01*
X7992671Y3807916D02*
X8138975D01*
X6977219Y3911331D02*
Y4151357D01*
Y4915056D02*
Y4499300D01*
X7174069Y4915056D02*
Y4499300D01*
X10870919Y9020511D02*
Y3807913D01*
X7992671Y8961456D02*
Y9020511D01*
X7933616Y8961456D02*
Y9020511D01*
X7323971Y8961456D02*
Y9020511D01*
X7383026Y8961456D02*
Y9020511D01*
X8233419Y8961456D02*
Y9020511D01*
X10721018Y8961456D02*
Y9020511D01*
X7992671Y8225236D02*
Y8284291D01*
X7933616Y8225236D02*
Y8284291D01*
X7323971Y8225236D02*
Y8284291D01*
X7383026Y8225236D02*
Y8284291D01*
X8233419Y8225236D02*
Y8284291D01*
X10721018Y8225236D02*
Y8284291D01*
X7992671Y7489015D02*
Y7548070D01*
X7323971Y7489015D02*
Y7548070D01*
X8233419Y7489015D02*
Y7548070D01*
X10721018Y7489015D02*
Y7548070D01*
X7992671Y6752795D02*
Y6811850D01*
X7323971Y6752795D02*
Y6811850D01*
X8233419Y6752795D02*
Y6811850D01*
X10721018Y6752795D02*
Y6811850D01*
X7992671Y6016574D02*
Y6075629D01*
X7323971Y6016574D02*
Y6075629D01*
X8233419Y6016574D02*
Y6075629D01*
X10721018Y6016574D02*
Y6075629D01*
X7992671Y5280354D02*
Y5339409D01*
X7323971Y5280354D02*
Y5339409D01*
X8233419Y5280354D02*
Y5339409D01*
X10721018Y5280354D02*
Y5339409D01*
X7992671Y4544133D02*
Y4603188D01*
X7323971Y4544133D02*
Y4603188D01*
X8233419Y4544133D02*
Y4603188D01*
X10721018Y4544133D02*
Y4603188D01*
X7992671Y3866968D02*
Y3807913D01*
X7933616Y3866968D02*
Y3807913D01*
X7323971Y3866968D02*
Y3807913D01*
X7383026Y3866968D02*
Y3807913D01*
X8233419Y3866968D02*
Y3807913D01*
X10721018Y3866968D02*
Y3807913D01*
X7016589Y9138621D02*
G03X6977219Y9099251I0J-39370D01*
X14961471Y9138621D02*
G02X15000841Y9099251I0J-39370D01*
Y3729172D02*
G02X14961471Y3689802I-39370J0D01*
X6977219Y3729175D02*
G03X7016589Y3689805I39370J0D01*
X7383026Y9020511D02*
G01X7933616D01*
X7992671D02*
X8233419D01*
X10721018D02*
X10870919D01*
X10721018Y3807913D02*
X10870919D01*
X7992671D02*
X8233419D01*
X7383026D02*
X7933616D01*
X7323971Y8961461D02*
X7292179D01*
X7383026Y8284291D02*
X7750049D01*
X7323971Y8225240D02*
X7292179D01*
X7933616Y8961461D02*
X7907529D01*
X7992671Y8284291D02*
X8024459D01*
X7933616Y8225240D02*
X7907529D01*
X8233419Y8961461D02*
X8201628D01*
X8233419Y8225240D02*
X8201628D01*
X7323971Y7489020D02*
X7292179D01*
X7992671Y7548070D02*
X8024459D01*
X8233419Y7489020D02*
X8201628D01*
X7323971Y6752799D02*
X7292179D01*
X7992671Y6811850D02*
X8024459D01*
X8233419Y6752799D02*
X8201628D01*
X7323971Y6016579D02*
X7292179D01*
X7992671Y6075629D02*
X8024459D01*
X8233419Y6016579D02*
X8201628D01*
X7323971Y5280358D02*
X7292179D01*
X7992671Y5339409D02*
X8024459D01*
X8233419Y5280358D02*
X8201628D01*
X7323971Y4544138D02*
X7292179D01*
X7992671Y4603188D02*
X8024459D01*
X8233419Y4544138D02*
X8201628D01*
X7383026Y3866968D02*
X7750049D01*
X7992671D02*
X8024459D01*
X10721018Y8284291D02*
X10752806D01*
X10721018Y7548070D02*
X10752806D01*
X10721018Y6811850D02*
X10752806D01*
X10721018Y6075629D02*
X10752806D01*
X10721018Y5339409D02*
X10752806D01*
X10721018Y4603188D02*
X10752806D01*
X10721018Y3866968D02*
X10752806D01*
X8933908D02*
G03X8992968Y3926018I0J59060D01*
G01Y4056558D01*
G03X8976308Y4076008I-19687J-3D01*
G02X8976308Y4138248I4850J31120D01*
G03X8992968Y4157698I-3027J19453D01*
G01Y4253408D01*
G03X8976308Y4272858I-19687J-3D01*
G02X8976308Y4335098I4850J31120D01*
G03X8992968Y4354548I-3027J19453D01*
G01Y4485078D01*
G03X8933908Y4544138I-59060J0D01*
G01X8902120D01*
X8933908Y4603188D02*
G03X8992968Y4662238I0J59060D01*
G01Y4792778D01*
G03X8976308Y4812228I-19687J-3D01*
G02X8976308Y4874468I4850J31120D01*
G03X8992968Y4893918I-3027J19453D01*
G01Y4989628D01*
G03X8976308Y5009078I-19687J-3D01*
G02X8976308Y5071318I4850J31120D01*
G03X8992968Y5090768I-3027J19453D01*
G01Y5221298D01*
G03X8933908Y5280358I-59060J0D01*
G01X8902120D01*
X8933908Y5339409D02*
G03X8992968Y5398459I0J59060D01*
G01Y5528999D01*
G03X8976308Y5548449I-19687J-3D01*
G02X8976308Y5610689I4850J31120D01*
G03X8992968Y5630139I-3027J19453D01*
G01Y5725849D01*
G03X8976308Y5745299I-19687J-3D01*
G02X8976308Y5807539I4850J31120D01*
G03X8992968Y5826989I-3027J19453D01*
G01Y5957519D01*
G03X8933908Y6016579I-59060J0D01*
G01X8902120D01*
X8933908Y6075629D02*
G03X8992968Y6134679I0J59060D01*
G01Y6265219D01*
G03X8976308Y6284669I-19687J-3D01*
G02X8976308Y6346909I4850J31120D01*
G03X8992968Y6366359I-3027J19453D01*
G01Y6462069D01*
G03X8976308Y6481519I-19687J-3D01*
G02X8976308Y6543759I4850J31120D01*
G03X8992968Y6563209I-3027J19453D01*
G01Y6693739D01*
G03X8933908Y6752799I-59060J0D01*
G01X8902120D01*
X8933908Y6811850D02*
G03X8992968Y6870900I0J59060D01*
G01Y7001440D01*
G03X8976308Y7020890I-19687J-3D01*
G02X8976308Y7083130I4850J31120D01*
G03X8992968Y7102580I-3027J19453D01*
G01Y7198290D01*
G03X8976308Y7217740I-19687J-3D01*
G02X8976308Y7279980I4850J31120D01*
G03X8992968Y7299430I-3027J19453D01*
G01Y7429960D01*
G03X8933908Y7489020I-59060J0D01*
G01X8902120D01*
X8933908Y7548070D02*
G03X8992968Y7607120I0J59060D01*
G01Y7737660D01*
G03X8976308Y7757110I-19687J-3D01*
G02X8976308Y7819350I4850J31120D01*
G03X8992968Y7838800I-3027J19453D01*
G01Y7934510D01*
G03X8976308Y7953960I-19687J-3D01*
G02X8976308Y8016200I4850J31120D01*
G03X8992968Y8035650I-3027J19453D01*
G01Y8166180D01*
G03X8933908Y8225240I-59060J0D01*
G01X8902120D01*
X8933908Y8284291D02*
G03X8992968Y8343341I0J59060D01*
G01Y8473881D01*
G03X8976308Y8493331I-19687J-3D01*
G02X8976308Y8555571I4850J31120D01*
G03X8992968Y8575021I-3027J19453D01*
G01Y8670731D01*
G03X8976308Y8690181I-19687J-3D01*
G02X8976308Y8752421I4850J31120D01*
G03X8992968Y8771871I-3027J19453D01*
G01Y8902401D01*
G03X8933908Y8961461I-59060J0D01*
G01X8902120D01*
X8816978D02*
G03X8809108Y8953581I0J-7870D01*
G01Y8888621D01*
G02X8801228Y8880751I-7875J5D01*
G01X8675248D01*
G02X8667378Y8888621I-0J7870D01*
G01Y8953581D01*
G03X8659498Y8961461I-7875J5D01*
G01X8292475D01*
X9111077Y4544138D02*
G03X9052017Y4485078I0J-59060D01*
G01Y3926018D01*
G03X9111077Y3866968I59055J5D01*
G01X9142868D01*
X9111077Y5280358D02*
G03X9052017Y5221298I0J-59060D01*
G01Y4662238D01*
G03X9111077Y4603188I59055J5D01*
G01X9142868D01*
X9111077Y6016579D02*
G03X9052017Y5957519I0J-59060D01*
G01Y5398459D01*
G03X9111077Y5339409I59055J5D01*
G01X9142868D01*
X9111077Y6752799D02*
G03X9052017Y6693739I0J-59060D01*
G01Y6134679D01*
G03X9111077Y6075629I59055J5D01*
G01X9142868D01*
X9111077Y7489020D02*
G03X9052017Y7429960I0J-59060D01*
G01Y6870900D01*
G03X9111077Y6811850I59055J5D01*
G01X9142868D01*
X9111077Y8225240D02*
G03X9052017Y8166180I0J-59060D01*
G01Y7607120D01*
G03X9111077Y7548070I59055J5D01*
G01X9142868D01*
X9111077Y8961461D02*
G03X9052017Y8902401I0J-59060D01*
G01Y8343341D01*
G03X9111077Y8284291I59055J5D01*
G01X9142868D01*
X8902120Y3807916D02*
X9048423D01*
X8902120Y8961456D02*
Y9020511D01*
X8843065Y8961456D02*
Y9020511D01*
X8292475Y8961456D02*
Y9020511D01*
X9142868Y8961456D02*
Y9020511D01*
X8902120Y8225236D02*
Y8284291D01*
X9142868Y8225236D02*
Y8284291D01*
X8902120Y7489015D02*
Y7548070D01*
X9142868Y7489015D02*
Y7548070D01*
X8902120Y6752795D02*
Y6811850D01*
X9142868Y6752795D02*
Y6811850D01*
X8902120Y6016574D02*
Y6075629D01*
X9142868Y6016574D02*
Y6075629D01*
X8902120Y5280354D02*
Y5339409D01*
X9142868Y5280354D02*
Y5339409D01*
X8902120Y4544133D02*
Y4603188D01*
X9142868Y4544133D02*
Y4603188D01*
X8902120Y3866968D02*
Y3807913D01*
X9142868Y3866968D02*
Y3807913D01*
X8292475Y9020511D02*
X8843065D01*
X8902120D02*
X9142868D01*
X8902120Y3807913D02*
X9142868D01*
X8843065Y8961461D02*
X8816978D01*
X8902120Y8284291D02*
X8933908D01*
X9142868Y8961461D02*
X9111077D01*
X9142868Y8225240D02*
X9111077D01*
X8902120Y7548070D02*
X8933908D01*
X9142868Y7489020D02*
X9111077D01*
X8902120Y6811850D02*
X8933908D01*
X9142868Y6752799D02*
X9111077D01*
X8902120Y6075629D02*
X8933908D01*
X9142868Y6016579D02*
X9111077D01*
X8902120Y5339409D02*
X8933908D01*
X9142868Y5280358D02*
X9111077D01*
X8902120Y4603188D02*
X8933908D01*
X9142868Y4544138D02*
X9111077D01*
X8902120Y3866968D02*
X8933908D01*
X9843357D02*
G03X9902417Y3926018I0J59060D01*
G01Y4056558D01*
G03X9885757Y4076008I-19687J-3D01*
G02X9885757Y4138248I4850J31120D01*
G03X9902417Y4157698I-3027J19453D01*
G01Y4253408D01*
G03X9885757Y4272858I-19687J-3D01*
G02X9885757Y4335098I4850J31120D01*
G03X9902417Y4354548I-3027J19453D01*
G01Y4485078D01*
G03X9843357Y4544138I-59060J0D01*
G01X9811569D01*
X9843357Y4603188D02*
G03X9902417Y4662238I0J59060D01*
G01Y4792778D01*
G03X9885757Y4812228I-19687J-3D01*
G02X9885757Y4874468I4850J31120D01*
G03X9902417Y4893918I-3027J19453D01*
G01Y4989628D01*
G03X9885757Y5009078I-19687J-3D01*
G02X9885757Y5071318I4850J31120D01*
G03X9902417Y5090768I-3027J19453D01*
G01Y5221298D01*
G03X9843357Y5280358I-59060J0D01*
G01X9811569D01*
X9843357Y5339409D02*
G03X9902417Y5398459I0J59060D01*
G01Y5528999D01*
G03X9885757Y5548449I-19687J-3D01*
G02X9885757Y5610689I4850J31120D01*
G03X9902417Y5630139I-3027J19453D01*
G01Y5725849D01*
G03X9885757Y5745299I-19687J-3D01*
G02X9885757Y5807539I4850J31120D01*
G03X9902417Y5826989I-3027J19453D01*
G01Y5957519D01*
G03X9843357Y6016579I-59060J0D01*
G01X9811569D01*
X9843357Y6075629D02*
G03X9902417Y6134679I0J59060D01*
G01Y6265219D01*
G03X9885757Y6284669I-19687J-3D01*
G02X9885757Y6346909I4850J31120D01*
G03X9902417Y6366359I-3027J19453D01*
G01Y6462069D01*
G03X9885757Y6481519I-19687J-3D01*
G02X9885757Y6543759I4850J31120D01*
G03X9902417Y6563209I-3027J19453D01*
G01Y6693739D01*
G03X9843357Y6752799I-59060J0D01*
G01X9811569D01*
X9843357Y6811850D02*
G03X9902417Y6870900I0J59060D01*
G01Y7001440D01*
G03X9885757Y7020890I-19687J-3D01*
G02X9885757Y7083130I4850J31120D01*
G03X9902417Y7102580I-3027J19453D01*
G01Y7198290D01*
G03X9885757Y7217740I-19687J-3D01*
G02X9885757Y7279980I4850J31120D01*
G03X9902417Y7299430I-3027J19453D01*
G01Y7429960D01*
G03X9843357Y7489020I-59060J0D01*
G01X9811569D01*
X9843357Y7548070D02*
G03X9902417Y7607120I0J59060D01*
G01Y7737660D01*
G03X9885757Y7757110I-19687J-3D01*
G02X9885757Y7819350I4850J31120D01*
G03X9902417Y7838800I-3027J19453D01*
G01Y7934510D01*
G03X9885757Y7953960I-19687J-3D01*
G02X9885757Y8016200I4850J31120D01*
G03X9902417Y8035650I-3027J19453D01*
G01Y8166180D01*
G03X9843357Y8225240I-59060J0D01*
G01X9811569D01*
X9843357Y8284291D02*
G03X9902417Y8343341I0J59060D01*
G01Y8473881D01*
G03X9885757Y8493331I-19687J-3D01*
G02X9885757Y8555571I4850J31120D01*
G03X9902417Y8575021I-3027J19453D01*
G01Y8670731D01*
G03X9885757Y8690181I-19687J-3D01*
G02X9885757Y8752421I4850J31120D01*
G03X9902417Y8771871I-3027J19453D01*
G01Y8902401D01*
G03X9843357Y8961461I-59060J0D01*
G01X9811569D01*
X9726427D02*
G03X9718557Y8953581I0J-7870D01*
G01Y8888621D01*
G02X9710677Y8880751I-7875J5D01*
G01X9584697D01*
G02X9576827Y8888621I-0J7870D01*
G01Y8953581D01*
G03X9568947Y8961461I-7875J5D01*
G01X9201923D01*
X10020526Y4544138D02*
G03X9961466Y4485078I0J-59060D01*
G01Y3926018D01*
G03X10020526Y3866968I59055J5D01*
G01X10052317D01*
X10020526Y5280358D02*
G03X9961466Y5221298I0J-59060D01*
G01Y4662238D01*
G03X10020526Y4603188I59055J5D01*
G01X10052317D01*
X10020526Y6016579D02*
G03X9961466Y5957519I0J-59060D01*
G01Y5398459D01*
G03X10020526Y5339409I59055J5D01*
G01X10052317D01*
X10020526Y6752799D02*
G03X9961466Y6693739I0J-59060D01*
G01Y6134679D01*
G03X10020526Y6075629I59055J5D01*
G01X10052317D01*
X10020526Y7489020D02*
G03X9961466Y7429960I0J-59060D01*
G01Y6870900D01*
G03X10020526Y6811850I59055J5D01*
G01X10052317D01*
X10020526Y8225240D02*
G03X9961466Y8166180I0J-59060D01*
G01Y7607120D01*
G03X10020526Y7548070I59055J5D01*
G01X10052317D01*
X10020526Y8961461D02*
G03X9961466Y8902401I0J-59060D01*
G01Y8343341D01*
G03X10020526Y8284291I59055J5D01*
G01X10052317D01*
X9811569Y3807916D02*
X9957872D01*
X9811569Y8961456D02*
Y9020511D01*
X9752514Y8961456D02*
Y9020511D01*
X9201923Y8961456D02*
Y9020511D01*
X10052317Y8961456D02*
Y9020511D01*
X9811569Y8225236D02*
Y8284291D01*
X10052317Y8225236D02*
Y8284291D01*
X9811569Y7489015D02*
Y7548070D01*
X10052317Y7489015D02*
Y7548070D01*
X9811569Y6752795D02*
Y6811850D01*
X10052317Y6752795D02*
Y6811850D01*
X9811569Y6016574D02*
Y6075629D01*
X10052317Y6016574D02*
Y6075629D01*
X9811569Y5280354D02*
Y5339409D01*
X10052317Y5280354D02*
Y5339409D01*
X9811569Y4544133D02*
Y4603188D01*
X10052317Y4544133D02*
Y4603188D01*
X9811569Y3866968D02*
Y3807913D01*
X10052317Y3866968D02*
Y3807913D01*
X9201923Y9020511D02*
X9752514D01*
X9811569D02*
X10052317D01*
X9811569Y3807913D02*
X10052317D01*
X9752514Y8961461D02*
X9726427D01*
X9811569Y8284291D02*
X9843357D01*
X10052317Y8961461D02*
X10020526D01*
X10052317Y8225240D02*
X10020526D01*
X9811569Y7548070D02*
X9843357D01*
X10052317Y7489020D02*
X10020526D01*
X9811569Y6811850D02*
X9843357D01*
X10052317Y6752799D02*
X10020526D01*
X9811569Y6075629D02*
X9843357D01*
X10052317Y6016579D02*
X10020526D01*
X9811569Y5339409D02*
X9843357D01*
X10052317Y5280358D02*
X10020526D01*
X9811569Y4603188D02*
X9843357D01*
X10052317Y4544138D02*
X10020526D01*
X9811569Y3866968D02*
X9843357D01*
X10635876Y8961461D02*
G03X10628006Y8953581I0J-7870D01*
G01Y8888621D01*
G02X10620126Y8880751I-7875J5D01*
G01X10494146D01*
G02X10486276Y8888621I-0J7870D01*
G01Y8953581D01*
G03X10478396Y8961461I-7875J5D01*
G01X10111372D01*
X10661963Y8961456D02*
Y9020511D01*
X10111372Y8961456D02*
Y9020511D01*
X10661963D01*
Y8961461D02*
X10635876D01*
X8816978Y8225240D02*
G03X8809108Y8217360I0J-7870D01*
G01Y8152400D01*
G02X8801228Y8144530I-7875J5D01*
G01X8675248D01*
G02X8667378Y8152400I-0J7870D01*
G01Y8217360D01*
G03X8659498Y8225240I-7875J5D01*
G01X8292475D01*
X8659498Y8284291D02*
G03X8667378Y8292161I5J7875D01*
G01Y8357121D01*
G02X8675248Y8365001I7870J10D01*
G01X8801228D01*
G02X8809108Y8357121I5J-7875D01*
G01Y8292161D01*
G03X8816978Y8284291I7870J0D01*
G01X8843065D01*
Y8225236D02*
Y8284291D01*
X8292475Y8225236D02*
Y8284291D01*
X8659498D01*
X8843065Y8225240D02*
X8816978D01*
X9726427D02*
G03X9718557Y8217360I0J-7870D01*
G01Y8152400D01*
G02X9710677Y8144530I-7875J5D01*
G01X9584697D01*
G02X9576827Y8152400I-0J7870D01*
G01Y8217360D01*
G03X9568947Y8225240I-7875J5D01*
G01X9201923D01*
X9568947Y8284291D02*
G03X9576827Y8292161I5J7875D01*
G01Y8357121D01*
G02X9584697Y8365001I7870J10D01*
G01X9710677D01*
G02X9718557Y8357121I5J-7875D01*
G01Y8292161D01*
G03X9726427Y8284291I7870J0D01*
G01X9752514D01*
Y8225236D02*
Y8284291D01*
X9201923Y8225236D02*
Y8284291D01*
X9568947D01*
X9752514Y8225240D02*
X9726427D01*
X10635876D02*
G03X10628006Y8217360I0J-7870D01*
G01Y8152400D01*
G02X10620126Y8144530I-7875J5D01*
G01X10494146D01*
G02X10486276Y8152400I-0J7870D01*
G01Y8217360D01*
G03X10478396Y8225240I-7875J5D01*
G01X10111372D01*
X10478396Y8284291D02*
G03X10486276Y8292161I5J7875D01*
G01Y8357121D01*
G02X10494146Y8365001I7870J10D01*
G01X10620126D01*
G02X10628006Y8357121I5J-7875D01*
G01Y8292161D01*
G03X10635876Y8284291I7870J0D01*
G01X10661963D01*
Y8225236D02*
Y8284291D01*
X10111372Y8225236D02*
Y8284291D01*
X10478396D01*
X10661963Y8225240D02*
X10635876D01*
X7907529Y7489020D02*
G03X7899659Y7481140I0J-7870D01*
G01Y7416180D01*
G02X7891779Y7408310I-7875J5D01*
G01X7765799D01*
G02X7757929Y7416180I-0J7870D01*
G01Y7481140D01*
G03X7750049Y7489020I-7875J5D01*
G01X7383026D01*
X7750049Y7548070D02*
G03X7757929Y7555940I5J7875D01*
G01Y7620900D01*
G02X7765799Y7628780I7870J10D01*
G01X7891779D01*
G02X7899659Y7620900I5J-7875D01*
G01Y7555940D01*
G03X7907529Y7548070I7870J0D01*
G01X7933616D01*
Y7489015D02*
Y7548070D01*
X7383026Y7489015D02*
Y7548070D01*
X7750049D01*
X7933616Y7489020D02*
X7907529D01*
X8816978D02*
G03X8809108Y7481140I0J-7870D01*
G01Y7416180D01*
G02X8801228Y7408310I-7875J5D01*
G01X8675248D01*
G02X8667378Y7416180I-0J7870D01*
G01Y7481140D01*
G03X8659498Y7489020I-7875J5D01*
G01X8292475D01*
X8659498Y7548070D02*
G03X8667378Y7555940I5J7875D01*
G01Y7620900D01*
G02X8675248Y7628780I7870J10D01*
G01X8801228D01*
G02X8809108Y7620900I5J-7875D01*
G01Y7555940D01*
G03X8816978Y7548070I7870J0D01*
G01X8843065D01*
Y7489015D02*
Y7548070D01*
X8292475Y7489015D02*
Y7548070D01*
X8659498D01*
X8843065Y7489020D02*
X8816978D01*
X9726427D02*
G03X9718557Y7481140I0J-7870D01*
G01Y7416180D01*
G02X9710677Y7408310I-7875J5D01*
G01X9584697D01*
G02X9576827Y7416180I-0J7870D01*
G01Y7481140D01*
G03X9568947Y7489020I-7875J5D01*
G01X9201923D01*
X9568947Y7548070D02*
G03X9576827Y7555940I5J7875D01*
G01Y7620900D01*
G02X9584697Y7628780I7870J10D01*
G01X9710677D01*
G02X9718557Y7620900I5J-7875D01*
G01Y7555940D01*
G03X9726427Y7548070I7870J0D01*
G01X9752514D01*
Y7489015D02*
Y7548070D01*
X9201923Y7489015D02*
Y7548070D01*
X9568947D01*
X9752514Y7489020D02*
X9726427D01*
X10635876D02*
G03X10628006Y7481140I0J-7870D01*
G01Y7416180D01*
G02X10620126Y7408310I-7875J5D01*
G01X10494146D01*
G02X10486276Y7416180I-0J7870D01*
G01Y7481140D01*
G03X10478396Y7489020I-7875J5D01*
G01X10111372D01*
X10478396Y7548070D02*
G03X10486276Y7555940I5J7875D01*
G01Y7620900D01*
G02X10494146Y7628780I7870J10D01*
G01X10620126D01*
G02X10628006Y7620900I5J-7875D01*
G01Y7555940D01*
G03X10635876Y7548070I7870J0D01*
G01X10661963D01*
Y7489015D02*
Y7548070D01*
X10111372Y7489015D02*
Y7548070D01*
X10478396D01*
X10661963Y7489020D02*
X10635876D01*
X7907529Y6752799D02*
G03X7899659Y6744919I0J-7870D01*
G01Y6679959D01*
G02X7891779Y6672089I-7875J5D01*
G01X7765799D01*
G02X7757929Y6679959I-0J7870D01*
G01Y6744919D01*
G03X7750049Y6752799I-7875J5D01*
G01X7383026D01*
X7750049Y6811850D02*
G03X7757929Y6819720I5J7875D01*
G01Y6884680D01*
G02X7765799Y6892560I7870J10D01*
G01X7891779D01*
G02X7899659Y6884680I5J-7875D01*
G01Y6819720D01*
G03X7907529Y6811850I7870J0D01*
G01X7933616D01*
Y6752795D02*
Y6811850D01*
X7383026Y6752795D02*
Y6811850D01*
X7750049D01*
X7933616Y6752799D02*
X7907529D01*
X8816978D02*
G03X8809108Y6744919I0J-7870D01*
G01Y6679959D01*
G02X8801228Y6672089I-7875J5D01*
G01X8675248D01*
G02X8667378Y6679959I-0J7870D01*
G01Y6744919D01*
G03X8659498Y6752799I-7875J5D01*
G01X8292475D01*
X8659498Y6811850D02*
G03X8667378Y6819720I5J7875D01*
G01Y6884680D01*
G02X8675248Y6892560I7870J10D01*
G01X8801228D01*
G02X8809108Y6884680I5J-7875D01*
G01Y6819720D01*
G03X8816978Y6811850I7870J0D01*
G01X8843065D01*
Y6752795D02*
Y6811850D01*
X8292475Y6752795D02*
Y6811850D01*
X8659498D01*
X8843065Y6752799D02*
X8816978D01*
X9726427D02*
G03X9718557Y6744919I0J-7870D01*
G01Y6679959D01*
G02X9710677Y6672089I-7875J5D01*
G01X9584697D01*
G02X9576827Y6679959I-0J7870D01*
G01Y6744919D01*
G03X9568947Y6752799I-7875J5D01*
G01X9201923D01*
X9568947Y6811850D02*
G03X9576827Y6819720I5J7875D01*
G01Y6884680D01*
G02X9584697Y6892560I7870J10D01*
G01X9710677D01*
G02X9718557Y6884680I5J-7875D01*
G01Y6819720D01*
G03X9726427Y6811850I7870J0D01*
G01X9752514D01*
Y6752795D02*
Y6811850D01*
X9201923Y6752795D02*
Y6811850D01*
X9568947D01*
X9752514Y6752799D02*
X9726427D01*
X10635876D02*
G03X10628006Y6744919I0J-7870D01*
G01Y6679959D01*
G02X10620126Y6672089I-7875J5D01*
G01X10494146D01*
G02X10486276Y6679959I-0J7870D01*
G01Y6744919D01*
G03X10478396Y6752799I-7875J5D01*
G01X10111372D01*
X10478396Y6811850D02*
G03X10486276Y6819720I5J7875D01*
G01Y6884680D01*
G02X10494146Y6892560I7870J10D01*
G01X10620126D01*
G02X10628006Y6884680I5J-7875D01*
G01Y6819720D01*
G03X10635876Y6811850I7870J0D01*
G01X10661963D01*
Y6752795D02*
Y6811850D01*
X10111372Y6752795D02*
Y6811850D01*
X10478396D01*
X10661963Y6752799D02*
X10635876D01*
X7907529Y6016579D02*
G03X7899659Y6008699I0J-7870D01*
G01Y5943739D01*
G02X7891779Y5935869I-7875J5D01*
G01X7765799D01*
G02X7757929Y5943739I-0J7870D01*
G01Y6008699D01*
G03X7750049Y6016579I-7875J5D01*
G01X7383026D01*
X7750049Y6075629D02*
G03X7757929Y6083499I5J7875D01*
G01Y6148459D01*
G02X7765799Y6156339I7870J10D01*
G01X7891779D01*
G02X7899659Y6148459I5J-7875D01*
G01Y6083499D01*
G03X7907529Y6075629I7870J0D01*
G01X7933616D01*
Y6016574D02*
Y6075629D01*
X7383026Y6016574D02*
Y6075629D01*
X7750049D01*
X7933616Y6016579D02*
X7907529D01*
X8816978D02*
G03X8809108Y6008699I0J-7870D01*
G01Y5943739D01*
G02X8801228Y5935869I-7875J5D01*
G01X8675248D01*
G02X8667378Y5943739I-0J7870D01*
G01Y6008699D01*
G03X8659498Y6016579I-7875J5D01*
G01X8292475D01*
X8659498Y6075629D02*
G03X8667378Y6083499I5J7875D01*
G01Y6148459D01*
G02X8675248Y6156339I7870J10D01*
G01X8801228D01*
G02X8809108Y6148459I5J-7875D01*
G01Y6083499D01*
G03X8816978Y6075629I7870J0D01*
G01X8843065D01*
Y6016574D02*
Y6075629D01*
X8292475Y6016574D02*
Y6075629D01*
X8659498D01*
X8843065Y6016579D02*
X8816978D01*
X9726427D02*
G03X9718557Y6008699I0J-7870D01*
G01Y5943739D01*
G02X9710677Y5935869I-7875J5D01*
G01X9584697D01*
G02X9576827Y5943739I-0J7870D01*
G01Y6008699D01*
G03X9568947Y6016579I-7875J5D01*
G01X9201923D01*
X9568947Y6075629D02*
G03X9576827Y6083499I5J7875D01*
G01Y6148459D01*
G02X9584697Y6156339I7870J10D01*
G01X9710677D01*
G02X9718557Y6148459I5J-7875D01*
G01Y6083499D01*
G03X9726427Y6075629I7870J0D01*
G01X9752514D01*
Y6016574D02*
Y6075629D01*
X9201923Y6016574D02*
Y6075629D01*
X9568947D01*
X9752514Y6016579D02*
X9726427D01*
X10635876D02*
G03X10628006Y6008699I0J-7870D01*
G01Y5943739D01*
G02X10620126Y5935869I-7875J5D01*
G01X10494146D01*
G02X10486276Y5943739I-0J7870D01*
G01Y6008699D01*
G03X10478396Y6016579I-7875J5D01*
G01X10111372D01*
X10478396Y6075629D02*
G03X10486276Y6083499I5J7875D01*
G01Y6148459D01*
G02X10494146Y6156339I7870J10D01*
G01X10620126D01*
G02X10628006Y6148459I5J-7875D01*
G01Y6083499D01*
G03X10635876Y6075629I7870J0D01*
G01X10661963D01*
Y6016574D02*
Y6075629D01*
X10111372Y6016574D02*
Y6075629D01*
X10478396D01*
X10661963Y6016579D02*
X10635876D01*
X7907529Y5280358D02*
G03X7899659Y5272478I0J-7870D01*
G01Y5207518D01*
G02X7891779Y5199648I-7875J5D01*
G01X7765799D01*
G02X7757929Y5207518I-0J7870D01*
G01Y5272478D01*
G03X7750049Y5280358I-7875J5D01*
G01X7383026D01*
X7750049Y5339409D02*
G03X7757929Y5347279I5J7875D01*
G01Y5412239D01*
G02X7765799Y5420119I7870J10D01*
G01X7891779D01*
G02X7899659Y5412239I5J-7875D01*
G01Y5347279D01*
G03X7907529Y5339409I7870J0D01*
G01X7933616D01*
Y5280354D02*
Y5339409D01*
X7383026Y5280354D02*
Y5339409D01*
X7750049D01*
X7933616Y5280358D02*
X7907529D01*
X8816978D02*
G03X8809108Y5272478I0J-7870D01*
G01Y5207518D01*
G02X8801228Y5199648I-7875J5D01*
G01X8675248D01*
G02X8667378Y5207518I-0J7870D01*
G01Y5272478D01*
G03X8659498Y5280358I-7875J5D01*
G01X8292475D01*
X8659498Y5339409D02*
G03X8667378Y5347279I5J7875D01*
G01Y5412239D01*
G02X8675248Y5420119I7870J10D01*
G01X8801228D01*
G02X8809108Y5412239I5J-7875D01*
G01Y5347279D01*
G03X8816978Y5339409I7870J0D01*
G01X8843065D01*
Y5280354D02*
Y5339409D01*
X8292475Y5280354D02*
Y5339409D01*
X8659498D01*
X8843065Y5280358D02*
X8816978D01*
X9726427D02*
G03X9718557Y5272478I0J-7870D01*
G01Y5207518D01*
G02X9710677Y5199648I-7875J5D01*
G01X9584697D01*
G02X9576827Y5207518I-0J7870D01*
G01Y5272478D01*
G03X9568947Y5280358I-7875J5D01*
G01X9201923D01*
X9568947Y5339409D02*
G03X9576827Y5347279I5J7875D01*
G01Y5412239D01*
G02X9584697Y5420119I7870J10D01*
G01X9710677D01*
G02X9718557Y5412239I5J-7875D01*
G01Y5347279D01*
G03X9726427Y5339409I7870J0D01*
G01X9752514D01*
Y5280354D02*
Y5339409D01*
X9201923Y5280354D02*
Y5339409D01*
X9568947D01*
X9752514Y5280358D02*
X9726427D01*
X10635876D02*
G03X10628006Y5272478I0J-7870D01*
G01Y5207518D01*
G02X10620126Y5199648I-7875J5D01*
G01X10494146D01*
G02X10486276Y5207518I-0J7870D01*
G01Y5272478D01*
G03X10478396Y5280358I-7875J5D01*
G01X10111372D01*
X10478396Y5339409D02*
G03X10486276Y5347279I5J7875D01*
G01Y5412239D01*
G02X10494146Y5420119I7870J10D01*
G01X10620126D01*
G02X10628006Y5412239I5J-7875D01*
G01Y5347279D01*
G03X10635876Y5339409I7870J0D01*
G01X10661963D01*
Y5280354D02*
Y5339409D01*
X10111372Y5280354D02*
Y5339409D01*
X10478396D01*
X10661963Y5280358D02*
X10635876D01*
X7907529Y4544138D02*
G03X7899659Y4536258I0J-7870D01*
G01Y4471298D01*
G02X7891779Y4463428I-7875J5D01*
G01X7765799D01*
G02X7757929Y4471298I-0J7870D01*
G01Y4536258D01*
G03X7750049Y4544138I-7875J5D01*
G01X7383026D01*
X7750049Y4603188D02*
G03X7757929Y4611058I5J7875D01*
G01Y4676018D01*
G02X7765799Y4683898I7870J10D01*
G01X7891779D01*
G02X7899659Y4676018I5J-7875D01*
G01Y4611058D01*
G03X7907529Y4603188I7870J0D01*
G01X7933616D01*
Y4544133D02*
Y4603188D01*
X7383026Y4544133D02*
Y4603188D01*
X7750049D01*
X7933616Y4544138D02*
X7907529D01*
X8816978D02*
G03X8809108Y4536258I0J-7870D01*
G01Y4471298D01*
G02X8801228Y4463428I-7875J5D01*
G01X8675248D01*
G02X8667378Y4471298I-0J7870D01*
G01Y4536258D01*
G03X8659498Y4544138I-7875J5D01*
G01X8292475D01*
X8659498Y4603188D02*
G03X8667378Y4611058I5J7875D01*
G01Y4676018D01*
G02X8675248Y4683898I7870J10D01*
G01X8801228D01*
G02X8809108Y4676018I5J-7875D01*
G01Y4611058D01*
G03X8816978Y4603188I7870J0D01*
G01X8843065D01*
Y4544133D02*
Y4603188D01*
X8292475Y4544133D02*
Y4603188D01*
X8659498D01*
X8843065Y4544138D02*
X8816978D01*
X9726427D02*
G03X9718557Y4536258I0J-7870D01*
G01Y4471298D01*
G02X9710677Y4463428I-7875J5D01*
G01X9584697D01*
G02X9576827Y4471298I-0J7870D01*
G01Y4536258D01*
G03X9568947Y4544138I-7875J5D01*
G01X9201923D01*
X9568947Y4603188D02*
G03X9576827Y4611058I5J7875D01*
G01Y4676018D01*
G02X9584697Y4683898I7870J10D01*
G01X9710677D01*
G02X9718557Y4676018I5J-7875D01*
G01Y4611058D01*
G03X9726427Y4603188I7870J0D01*
G01X9752514D01*
Y4544133D02*
Y4603188D01*
X9201923Y4544133D02*
Y4603188D01*
X9568947D01*
X9752514Y4544138D02*
X9726427D01*
X10635876D02*
G03X10628006Y4536258I0J-7870D01*
G01Y4471298D01*
G02X10620126Y4463428I-7875J5D01*
G01X10494146D01*
G02X10486276Y4471298I-0J7870D01*
G01Y4536258D01*
G03X10478396Y4544138I-7875J5D01*
G01X10111372D01*
X10478396Y4603188D02*
G03X10486276Y4611058I5J7875D01*
G01Y4676018D01*
G02X10494146Y4683898I7870J10D01*
G01X10620126D01*
G02X10628006Y4676018I5J-7875D01*
G01Y4611058D01*
G03X10635876Y4603188I7870J0D01*
G01X10661963D01*
Y4544133D02*
Y4603188D01*
X10111372Y4544133D02*
Y4603188D01*
X10478396D01*
X10661963Y4544138D02*
X10635876D01*
X11957530Y3866968D02*
G03X12016590Y3926018I0J59060D01*
G01Y4056558D01*
G03X11999930Y4076008I-19687J-3D01*
G02X11999930Y4138248I4850J31120D01*
G03X12016590Y4157698I-3027J19453D01*
G01Y4253408D01*
G03X11999930Y4272858I-19687J-3D01*
G02X11999930Y4335098I4850J31120D01*
G03X12016590Y4354548I-3027J19453D01*
G01Y4485078D01*
G03X11957530Y4544138I-59060J0D01*
G01X11925742D01*
X11225250D02*
G03X11166190Y4485078I0J-59060D01*
G01Y3926018D01*
G03X11225250Y3866968I59055J5D01*
G01X11257042D01*
X11683120D02*
G03X11691000Y3874838I5J7875D01*
G01Y3939798D01*
G02X11698870Y3947678I7870J10D01*
G01X11824850D01*
G02X11832730Y3939798I5J-7875D01*
G01Y3874838D01*
G03X11840600Y3866968I7870J0D01*
G01X11866687D01*
X11957530Y4603188D02*
G03X12016590Y4662238I0J59060D01*
G01Y4792778D01*
G03X11999930Y4812228I-19687J-3D01*
G02X11999930Y4874468I4850J31120D01*
G03X12016590Y4893918I-3027J19453D01*
G01Y4989628D01*
G03X11999930Y5009078I-19687J-3D01*
G02X11999930Y5071318I4850J31120D01*
G03X12016590Y5090768I-3027J19453D01*
G01Y5221298D01*
G03X11957530Y5280358I-59060J0D01*
G01X11925742D01*
X11225250D02*
G03X11166190Y5221298I0J-59060D01*
G01Y4662238D01*
G03X11225250Y4603188I59055J5D01*
G01X11257042D01*
X11957530Y5339409D02*
G03X12016590Y5398459I0J59060D01*
G01Y5528999D01*
G03X11999930Y5548449I-19687J-3D01*
G02X11999930Y5610689I4850J31120D01*
G03X12016590Y5630139I-3027J19453D01*
G01Y5725849D01*
G03X11999930Y5745299I-19687J-3D01*
G02X11999930Y5807539I4850J31120D01*
G03X12016590Y5826989I-3027J19453D01*
G01Y5957519D01*
G03X11957530Y6016579I-59060J0D01*
G01X11925742D01*
X11225250D02*
G03X11166190Y5957519I0J-59060D01*
G01Y5398459D01*
G03X11225250Y5339409I59055J5D01*
G01X11257042D01*
X11957530Y6075629D02*
G03X12016590Y6134679I0J59060D01*
G01Y6265219D01*
G03X11999930Y6284669I-19687J-3D01*
G02X11999930Y6346909I4850J31120D01*
G03X12016590Y6366359I-3027J19453D01*
G01Y6462069D01*
G03X11999930Y6481519I-19687J-3D01*
G02X11999930Y6543759I4850J31120D01*
G03X12016590Y6563209I-3027J19453D01*
G01Y6693739D01*
G03X11957530Y6752799I-59060J0D01*
G01X11925742D01*
X11225250D02*
G03X11166190Y6693739I0J-59060D01*
G01Y6134679D01*
G03X11225250Y6075629I59055J5D01*
G01X11257042D01*
X11957530Y6811850D02*
G03X12016590Y6870900I0J59060D01*
G01Y7001440D01*
G03X11999930Y7020890I-19687J-3D01*
G02X11999930Y7083130I4850J31120D01*
G03X12016590Y7102580I-3027J19453D01*
G01Y7198290D01*
G03X11999930Y7217740I-19687J-3D01*
G02X11999930Y7279980I4850J31120D01*
G03X12016590Y7299430I-3027J19453D01*
G01Y7429960D01*
G03X11957530Y7489020I-59060J0D01*
G01X11925742D01*
X11225250D02*
G03X11166190Y7429960I0J-59060D01*
G01Y6870900D01*
G03X11225250Y6811850I59055J5D01*
G01X11257042D01*
X11957530Y7548070D02*
G03X12016590Y7607120I0J59060D01*
G01Y7737660D01*
G03X11999930Y7757110I-19687J-3D01*
G02X11999930Y7819350I4850J31120D01*
G03X12016590Y7838800I-3027J19453D01*
G01Y7934510D01*
G03X11999930Y7953960I-19687J-3D01*
G02X11999930Y8016200I4850J31120D01*
G03X12016590Y8035650I-3027J19453D01*
G01Y8166180D01*
G03X11957530Y8225240I-59060J0D01*
G01X11925742D01*
X11840600D02*
G03X11832730Y8217360I0J-7870D01*
G01Y8152400D01*
G02X11824850Y8144530I-7875J5D01*
G01X11698870D01*
G02X11691000Y8152400I-0J7870D01*
G01Y8217360D01*
G03X11683120Y8225240I-7875J5D01*
G01X11316097D01*
X11225250D02*
G03X11166190Y8166180I0J-59060D01*
G01Y7607120D01*
G03X11225250Y7548070I59055J5D01*
G01X11257042D01*
X11957530Y8284291D02*
G03X12016590Y8343341I0J59060D01*
G01Y8473881D01*
G03X11999930Y8493331I-19687J-3D01*
G02X11999930Y8555571I4850J31120D01*
G03X12016590Y8575021I-3027J19453D01*
G01Y8670731D01*
G03X11999930Y8690181I-19687J-3D01*
G02X11999930Y8752421I4850J31120D01*
G03X12016590Y8771871I-3027J19453D01*
G01Y8902401D01*
G03X11957530Y8961461I-59060J0D01*
G01X11925742D01*
X11840600D02*
G03X11832730Y8953581I0J-7870D01*
G01Y8888621D01*
G02X11824850Y8880751I-7875J5D01*
G01X11698870D01*
G02X11691000Y8888621I-0J7870D01*
G01Y8953581D01*
G03X11683120Y8961461I-7875J5D01*
G01X11316097D01*
X11225250D02*
G03X11166190Y8902401I0J-59060D01*
G01Y8343341D01*
G03X11225250Y8284291I59055J5D01*
G01X11257042D01*
X11683120D02*
G03X11691000Y8292161I5J7875D01*
G01Y8357121D01*
G02X11698870Y8365001I7870J10D01*
G01X11824850D01*
G02X11832730Y8357121I5J-7875D01*
G01Y8292161D01*
G03X11840600Y8284291I7870J0D01*
G01X11866687D01*
X12134699Y4544138D02*
G03X12075639Y4485078I0J-59060D01*
G01Y3926018D01*
G03X12134699Y3866968I59055J5D01*
G01X12166490D01*
X12134699Y5280358D02*
G03X12075639Y5221298I0J-59060D01*
G01Y4662238D01*
G03X12134699Y4603188I59055J5D01*
G01X12166490D01*
X12134699Y6016579D02*
G03X12075639Y5957519I0J-59060D01*
G01Y5398459D01*
G03X12134699Y5339409I59055J5D01*
G01X12166490D01*
X12134699Y6752799D02*
G03X12075639Y6693739I0J-59060D01*
G01Y6134679D01*
G03X12134699Y6075629I59055J5D01*
G01X12166490D01*
X12134699Y7489020D02*
G03X12075639Y7429960I0J-59060D01*
G01Y6870900D01*
G03X12134699Y6811850I59055J5D01*
G01X12166490D01*
X12134699Y8225240D02*
G03X12075639Y8166180I0J-59060D01*
G01Y7607120D01*
G03X12134699Y7548070I59055J5D01*
G01X12166490D01*
X12134699Y8961461D02*
G03X12075639Y8902401I0J-59060D01*
G01Y8343341D01*
G03X12134699Y8284291I59055J5D01*
G01X12166490D01*
X14685877Y3866968D02*
G03X14744937Y3926018I0J59060D01*
G01Y4056558D01*
G03X14728277Y4076008I-19687J-3D01*
G02X14728277Y4138248I4850J31120D01*
G03X14744937Y4157698I-3027J19453D01*
G01Y4253408D01*
G03X14728277Y4272858I-19687J-3D01*
G02X14728277Y4335098I4850J31120D01*
G03X14744937Y4354548I-3027J19453D01*
G01Y4485078D01*
G03X14685877Y4544138I-59060J0D01*
G01X14654089D01*
X14685877Y4603188D02*
G03X14744937Y4662238I0J59060D01*
G01Y4792778D01*
G03X14728277Y4812228I-19687J-3D01*
G02X14728277Y4874468I4850J31120D01*
G03X14744937Y4893918I-3027J19453D01*
G01Y4989628D01*
G03X14728277Y5009078I-19687J-3D01*
G02X14728277Y5071318I4850J31120D01*
G03X14744937Y5090768I-3027J19453D01*
G01Y5221298D01*
G03X14685877Y5280358I-59060J0D01*
G01X14654089D01*
X14685877Y5339409D02*
G03X14744937Y5398459I0J59060D01*
G01Y5528999D01*
G03X14728277Y5548449I-19687J-3D01*
G02X14728277Y5610689I4850J31120D01*
G03X14744937Y5630139I-3027J19453D01*
G01Y5725849D01*
G03X14728277Y5745299I-19687J-3D01*
G02X14728277Y5807539I4850J31120D01*
G03X14744937Y5826989I-3027J19453D01*
G01Y5957519D01*
G03X14685877Y6016579I-59060J0D01*
G01X14654089D01*
X14685877Y6075629D02*
G03X14744937Y6134679I0J59060D01*
G01Y6265219D01*
G03X14728277Y6284669I-19687J-3D01*
G02X14728277Y6346909I4850J31120D01*
G03X14744937Y6366359I-3027J19453D01*
G01Y6462069D01*
G03X14728277Y6481519I-19687J-3D01*
G02X14728277Y6543759I4850J31120D01*
G03X14744937Y6563209I-3027J19453D01*
G01Y6693739D01*
G03X14685877Y6752799I-59060J0D01*
G01X14654089D01*
X14685877Y6811850D02*
G03X14744937Y6870900I0J59060D01*
G01Y7001440D01*
G03X14728277Y7020890I-19687J-3D01*
G02X14728277Y7083130I4850J31120D01*
G03X14744937Y7102580I-3027J19453D01*
G01Y7198290D01*
G03X14728277Y7217740I-19687J-3D01*
G02X14728277Y7279980I4850J31120D01*
G03X14744937Y7299430I-3027J19453D01*
G01Y7429960D01*
G03X14685877Y7489020I-59060J0D01*
G01X14654089D01*
X14685877Y7548070D02*
G03X14744937Y7607120I0J59060D01*
G01Y7737660D01*
G03X14728277Y7757110I-19687J-3D01*
G02X14728277Y7819350I4850J31120D01*
G03X14744937Y7838800I-3027J19453D01*
G01Y7934510D01*
G03X14728277Y7953960I-19687J-3D01*
G02X14728277Y8016200I4850J31120D01*
G03X14744937Y8035650I-3027J19453D01*
G01Y8166180D01*
G03X14685877Y8225240I-59060J0D01*
G01X14654089D01*
X14685877Y8284291D02*
G03X14744937Y8343341I0J59060D01*
G01Y8473881D01*
G03X14728277Y8493331I-19687J-3D01*
G02X14728277Y8555571I4850J31120D01*
G03X14744937Y8575021I-3027J19453D01*
G01Y8670731D01*
G03X14728277Y8690181I-19687J-3D01*
G02X14728277Y8752421I4850J31120D01*
G03X14744937Y8771871I-3027J19453D01*
G01Y8902401D01*
G03X14685877Y8961461I-59060J0D01*
G01X14654089D01*
X11107140Y9020511D02*
X11257042D01*
X11107140Y3807913D02*
X11257042D01*
X11107140D02*
Y9020511D01*
X11925742Y3807916D02*
X12072045D01*
X11107140Y4915056D02*
Y4499300D01*
X14803990Y9020511D02*
Y3807913D01*
X11925742Y8961456D02*
Y9020511D01*
X11866687Y8961456D02*
Y9020511D01*
X11257042Y8961456D02*
Y9020511D01*
X11316097Y8961456D02*
Y9020511D01*
X12166490Y8961456D02*
Y9020511D01*
X14654089Y8961456D02*
Y9020511D01*
X11925742Y8225236D02*
Y8284291D01*
X11866687Y8225236D02*
Y8284291D01*
X11257042Y8225236D02*
Y8284291D01*
X11316097Y8225236D02*
Y8284291D01*
X12166490Y8225236D02*
Y8284291D01*
X14654089Y8225236D02*
Y8284291D01*
X11925742Y7489015D02*
Y7548070D01*
X11257042Y7489015D02*
Y7548070D01*
X12166490Y7489015D02*
Y7548070D01*
X14654089Y7489015D02*
Y7548070D01*
X11925742Y6752795D02*
Y6811850D01*
X11257042Y6752795D02*
Y6811850D01*
X12166490Y6752795D02*
Y6811850D01*
X14654089Y6752795D02*
Y6811850D01*
X11925742Y6016574D02*
Y6075629D01*
X11257042Y6016574D02*
Y6075629D01*
X12166490Y6016574D02*
Y6075629D01*
X14654089Y6016574D02*
Y6075629D01*
X11925742Y5280354D02*
Y5339409D01*
X11257042Y5280354D02*
Y5339409D01*
X12166490Y5280354D02*
Y5339409D01*
X14654089Y5280354D02*
Y5339409D01*
X11925742Y4544133D02*
Y4603188D01*
X11257042Y4544133D02*
Y4603188D01*
X12166490Y4544133D02*
Y4603188D01*
X14654089Y4544133D02*
Y4603188D01*
X11925742Y3866968D02*
Y3807913D01*
X11866687Y3866968D02*
Y3807913D01*
X11257042Y3866968D02*
Y3807913D01*
X11316097Y3866968D02*
Y3807913D01*
X12166490Y3866968D02*
Y3807913D01*
X14654089Y3866968D02*
Y3807913D01*
X11316097Y9020511D02*
X11866687D01*
X11925742D02*
X12166490D01*
X14654089D02*
X14803990D01*
X14654089Y3807913D02*
X14803990D01*
X11925742D02*
X12166490D01*
X11316097D02*
X11866687D01*
X11257042Y8961461D02*
X11225250D01*
X11316097Y8284291D02*
X11683120D01*
X11257042Y8225240D02*
X11225250D01*
X11866687Y8961461D02*
X11840600D01*
X11925742Y8284291D02*
X11957530D01*
X11866687Y8225240D02*
X11840600D01*
X12166490Y8961461D02*
X12134699D01*
X12166490Y8225240D02*
X12134699D01*
X11257042Y7489020D02*
X11225250D01*
X11925742Y7548070D02*
X11957530D01*
X12166490Y7489020D02*
X12134699D01*
X11257042Y6752799D02*
X11225250D01*
X11925742Y6811850D02*
X11957530D01*
X12166490Y6752799D02*
X12134699D01*
X11257042Y6016579D02*
X11225250D01*
X11925742Y6075629D02*
X11957530D01*
X12166490Y6016579D02*
X12134699D01*
X11257042Y5280358D02*
X11225250D01*
X11925742Y5339409D02*
X11957530D01*
X12166490Y5280358D02*
X12134699D01*
X11257042Y4544138D02*
X11225250D01*
X11925742Y4603188D02*
X11957530D01*
X12166490Y4544138D02*
X12134699D01*
X11316097Y3866968D02*
X11683120D01*
X11925742D02*
X11957530D01*
X14654089Y8284291D02*
X14685877D01*
X14654089Y7548070D02*
X14685877D01*
X14654089Y6811850D02*
X14685877D01*
X14654089Y6075629D02*
X14685877D01*
X14654089Y5339409D02*
X14685877D01*
X14654089Y4603188D02*
X14685877D01*
X14654089Y3866968D02*
X14685877D01*
X12866979D02*
G03X12926039Y3926018I0J59060D01*
G01Y4056558D01*
G03X12909379Y4076008I-19687J-3D01*
G02X12909379Y4138248I4850J31120D01*
G03X12926039Y4157698I-3027J19453D01*
G01Y4253408D01*
G03X12909379Y4272858I-19687J-3D01*
G02X12909379Y4335098I4850J31120D01*
G03X12926039Y4354548I-3027J19453D01*
G01Y4485078D01*
G03X12866979Y4544138I-59060J0D01*
G01X12835191D01*
X12866979Y4603188D02*
G03X12926039Y4662238I0J59060D01*
G01Y4792778D01*
G03X12909379Y4812228I-19687J-3D01*
G02X12909379Y4874468I4850J31120D01*
G03X12926039Y4893918I-3027J19453D01*
G01Y4989628D01*
G03X12909379Y5009078I-19687J-3D01*
G02X12909379Y5071318I4850J31120D01*
G03X12926039Y5090768I-3027J19453D01*
G01Y5221298D01*
G03X12866979Y5280358I-59060J0D01*
G01X12835191D01*
X12866979Y5339409D02*
G03X12926039Y5398459I0J59060D01*
G01Y5528999D01*
G03X12909379Y5548449I-19687J-3D01*
G02X12909379Y5610689I4850J31120D01*
G03X12926039Y5630139I-3027J19453D01*
G01Y5725849D01*
G03X12909379Y5745299I-19687J-3D01*
G02X12909379Y5807539I4850J31120D01*
G03X12926039Y5826989I-3027J19453D01*
G01Y5957519D01*
G03X12866979Y6016579I-59060J0D01*
G01X12835191D01*
X12866979Y6075629D02*
G03X12926039Y6134679I0J59060D01*
G01Y6265219D01*
G03X12909379Y6284669I-19687J-3D01*
G02X12909379Y6346909I4850J31120D01*
G03X12926039Y6366359I-3027J19453D01*
G01Y6462069D01*
G03X12909379Y6481519I-19687J-3D01*
G02X12909379Y6543759I4850J31120D01*
G03X12926039Y6563209I-3027J19453D01*
G01Y6693739D01*
G03X12866979Y6752799I-59060J0D01*
G01X12835191D01*
X12866979Y6811850D02*
G03X12926039Y6870900I0J59060D01*
G01Y7001440D01*
G03X12909379Y7020890I-19687J-3D01*
G02X12909379Y7083130I4850J31120D01*
G03X12926039Y7102580I-3027J19453D01*
G01Y7198290D01*
G03X12909379Y7217740I-19687J-3D01*
G02X12909379Y7279980I4850J31120D01*
G03X12926039Y7299430I-3027J19453D01*
G01Y7429960D01*
G03X12866979Y7489020I-59060J0D01*
G01X12835191D01*
X12866979Y7548070D02*
G03X12926039Y7607120I0J59060D01*
G01Y7737660D01*
G03X12909379Y7757110I-19687J-3D01*
G02X12909379Y7819350I4850J31120D01*
G03X12926039Y7838800I-3027J19453D01*
G01Y7934510D01*
G03X12909379Y7953960I-19687J-3D01*
G02X12909379Y8016200I4850J31120D01*
G03X12926039Y8035650I-3027J19453D01*
G01Y8166180D01*
G03X12866979Y8225240I-59060J0D01*
G01X12835191D01*
X12866979Y8284291D02*
G03X12926039Y8343341I0J59060D01*
G01Y8473881D01*
G03X12909379Y8493331I-19687J-3D01*
G02X12909379Y8555571I4850J31120D01*
G03X12926039Y8575021I-3027J19453D01*
G01Y8670731D01*
G03X12909379Y8690181I-19687J-3D01*
G02X12909379Y8752421I4850J31120D01*
G03X12926039Y8771871I-3027J19453D01*
G01Y8902401D01*
G03X12866979Y8961461I-59060J0D01*
G01X12835191D01*
X12750049D02*
G03X12742179Y8953581I0J-7870D01*
G01Y8888621D01*
G02X12734299Y8880751I-7875J5D01*
G01X12608319D01*
G02X12600449Y8888621I-0J7870D01*
G01Y8953581D01*
G03X12592569Y8961461I-7875J5D01*
G01X12225545D01*
X13044148Y4544138D02*
G03X12985088Y4485078I0J-59060D01*
G01Y3926018D01*
G03X13044148Y3866968I59055J5D01*
G01X13075939D01*
X13044148Y5280358D02*
G03X12985088Y5221298I0J-59060D01*
G01Y4662238D01*
G03X13044148Y4603188I59055J5D01*
G01X13075939D01*
X13044148Y6016579D02*
G03X12985088Y5957519I0J-59060D01*
G01Y5398459D01*
G03X13044148Y5339409I59055J5D01*
G01X13075939D01*
X13044148Y6752799D02*
G03X12985088Y6693739I0J-59060D01*
G01Y6134679D01*
G03X13044148Y6075629I59055J5D01*
G01X13075939D01*
X13044148Y7489020D02*
G03X12985088Y7429960I0J-59060D01*
G01Y6870900D01*
G03X13044148Y6811850I59055J5D01*
G01X13075939D01*
X13044148Y8225240D02*
G03X12985088Y8166180I0J-59060D01*
G01Y7607120D01*
G03X13044148Y7548070I59055J5D01*
G01X13075939D01*
X13044148Y8961461D02*
G03X12985088Y8902401I0J-59060D01*
G01Y8343341D01*
G03X13044148Y8284291I59055J5D01*
G01X13075939D01*
X12835191Y3807916D02*
X12981494D01*
X12835191Y8961456D02*
Y9020511D01*
X12776136Y8961456D02*
Y9020511D01*
X12225545Y8961456D02*
Y9020511D01*
X13075939Y8961456D02*
Y9020511D01*
X12835191Y8225236D02*
Y8284291D01*
X13075939Y8225236D02*
Y8284291D01*
X12835191Y7489015D02*
Y7548070D01*
X13075939Y7489015D02*
Y7548070D01*
X12835191Y6752795D02*
Y6811850D01*
X13075939Y6752795D02*
Y6811850D01*
X12835191Y6016574D02*
Y6075629D01*
X13075939Y6016574D02*
Y6075629D01*
X12835191Y5280354D02*
Y5339409D01*
X13075939Y5280354D02*
Y5339409D01*
X12835191Y4544133D02*
Y4603188D01*
X13075939Y4544133D02*
Y4603188D01*
X12835191Y3866968D02*
Y3807913D01*
X13075939Y3866968D02*
Y3807913D01*
X12225545Y9020511D02*
X12776136D01*
X12835191D02*
X13075939D01*
X12835191Y3807913D02*
X13075939D01*
X12776136Y8961461D02*
X12750049D01*
X12835191Y8284291D02*
X12866979D01*
X13075939Y8961461D02*
X13044148D01*
X13075939Y8225240D02*
X13044148D01*
X12835191Y7548070D02*
X12866979D01*
X13075939Y7489020D02*
X13044148D01*
X12835191Y6811850D02*
X12866979D01*
X13075939Y6752799D02*
X13044148D01*
X12835191Y6075629D02*
X12866979D01*
X13075939Y6016579D02*
X13044148D01*
X12835191Y5339409D02*
X12866979D01*
X13075939Y5280358D02*
X13044148D01*
X12835191Y4603188D02*
X12866979D01*
X13075939Y4544138D02*
X13044148D01*
X12835191Y3866968D02*
X12866979D01*
X13776428D02*
G03X13835488Y3926018I0J59060D01*
G01Y4056558D01*
G03X13818828Y4076008I-19687J-3D01*
G02X13818828Y4138248I4850J31120D01*
G03X13835488Y4157698I-3027J19453D01*
G01Y4253408D01*
G03X13818828Y4272858I-19687J-3D01*
G02X13818828Y4335098I4850J31120D01*
G03X13835488Y4354548I-3027J19453D01*
G01Y4485078D01*
G03X13776428Y4544138I-59060J0D01*
G01X13744640D01*
X13776428Y4603188D02*
G03X13835488Y4662238I0J59060D01*
G01Y4792778D01*
G03X13818828Y4812228I-19687J-3D01*
G02X13818828Y4874468I4850J31120D01*
G03X13835488Y4893918I-3027J19453D01*
G01Y4989628D01*
G03X13818828Y5009078I-19687J-3D01*
G02X13818828Y5071318I4850J31120D01*
G03X13835488Y5090768I-3027J19453D01*
G01Y5221298D01*
G03X13776428Y5280358I-59060J0D01*
G01X13744640D01*
X13776428Y5339409D02*
G03X13835488Y5398459I0J59060D01*
G01Y5528999D01*
G03X13818828Y5548449I-19687J-3D01*
G02X13818828Y5610689I4850J31120D01*
G03X13835488Y5630139I-3027J19453D01*
G01Y5725849D01*
G03X13818828Y5745299I-19687J-3D01*
G02X13818828Y5807539I4850J31120D01*
G03X13835488Y5826989I-3027J19453D01*
G01Y5957519D01*
G03X13776428Y6016579I-59060J0D01*
G01X13744640D01*
X13776428Y6075629D02*
G03X13835488Y6134679I0J59060D01*
G01Y6265219D01*
G03X13818828Y6284669I-19687J-3D01*
G02X13818828Y6346909I4850J31120D01*
G03X13835488Y6366359I-3027J19453D01*
G01Y6462069D01*
G03X13818828Y6481519I-19687J-3D01*
G02X13818828Y6543759I4850J31120D01*
G03X13835488Y6563209I-3027J19453D01*
G01Y6693739D01*
G03X13776428Y6752799I-59060J0D01*
G01X13744640D01*
X13776428Y6811850D02*
G03X13835488Y6870900I0J59060D01*
G01Y7001440D01*
G03X13818828Y7020890I-19687J-3D01*
G02X13818828Y7083130I4850J31120D01*
G03X13835488Y7102580I-3027J19453D01*
G01Y7198290D01*
G03X13818828Y7217740I-19687J-3D01*
G02X13818828Y7279980I4850J31120D01*
G03X13835488Y7299430I-3027J19453D01*
G01Y7429960D01*
G03X13776428Y7489020I-59060J0D01*
G01X13744640D01*
X13776428Y7548070D02*
G03X13835488Y7607120I0J59060D01*
G01Y7737660D01*
G03X13818828Y7757110I-19687J-3D01*
G02X13818828Y7819350I4850J31120D01*
G03X13835488Y7838800I-3027J19453D01*
G01Y7934510D01*
G03X13818828Y7953960I-19687J-3D01*
G02X13818828Y8016200I4850J31120D01*
G03X13835488Y8035650I-3027J19453D01*
G01Y8166180D01*
G03X13776428Y8225240I-59060J0D01*
G01X13744640D01*
X13776428Y8284291D02*
G03X13835488Y8343341I0J59060D01*
G01Y8473881D01*
G03X13818828Y8493331I-19687J-3D01*
G02X13818828Y8555571I4850J31120D01*
G03X13835488Y8575021I-3027J19453D01*
G01Y8670731D01*
G03X13818828Y8690181I-19687J-3D01*
G02X13818828Y8752421I4850J31120D01*
G03X13835488Y8771871I-3027J19453D01*
G01Y8902401D01*
G03X13776428Y8961461I-59060J0D01*
G01X13744640D01*
X13659498D02*
G03X13651628Y8953581I0J-7870D01*
G01Y8888621D01*
G02X13643748Y8880751I-7875J5D01*
G01X13517768D01*
G02X13509898Y8888621I-0J7870D01*
G01Y8953581D01*
G03X13502018Y8961461I-7875J5D01*
G01X13134994D01*
X13953597Y4544138D02*
G03X13894537Y4485078I0J-59060D01*
G01Y3926018D01*
G03X13953597Y3866968I59055J5D01*
G01X13985388D01*
X13953597Y5280358D02*
G03X13894537Y5221298I0J-59060D01*
G01Y4662238D01*
G03X13953597Y4603188I59055J5D01*
G01X13985388D01*
X13953597Y6016579D02*
G03X13894537Y5957519I0J-59060D01*
G01Y5398459D01*
G03X13953597Y5339409I59055J5D01*
G01X13985388D01*
X13953597Y6752799D02*
G03X13894537Y6693739I0J-59060D01*
G01Y6134679D01*
G03X13953597Y6075629I59055J5D01*
G01X13985388D01*
X13953597Y7489020D02*
G03X13894537Y7429960I0J-59060D01*
G01Y6870900D01*
G03X13953597Y6811850I59055J5D01*
G01X13985388D01*
X13953597Y8225240D02*
G03X13894537Y8166180I0J-59060D01*
G01Y7607120D01*
G03X13953597Y7548070I59055J5D01*
G01X13985388D01*
X13953597Y8961461D02*
G03X13894537Y8902401I0J-59060D01*
G01Y8343341D01*
G03X13953597Y8284291I59055J5D01*
G01X13985388D01*
X13744640Y3807916D02*
X13890943D01*
X13744640Y8961456D02*
Y9020511D01*
X13685585Y8961456D02*
Y9020511D01*
X13134994Y8961456D02*
Y9020511D01*
X13985388Y8961456D02*
Y9020511D01*
X13744640Y8225236D02*
Y8284291D01*
X13985388Y8225236D02*
Y8284291D01*
X13744640Y7489015D02*
Y7548070D01*
X13985388Y7489015D02*
Y7548070D01*
X13744640Y6752795D02*
Y6811850D01*
X13985388Y6752795D02*
Y6811850D01*
X13744640Y6016574D02*
Y6075629D01*
X13985388Y6016574D02*
Y6075629D01*
X13744640Y5280354D02*
Y5339409D01*
X13985388Y5280354D02*
Y5339409D01*
X13744640Y4544133D02*
Y4603188D01*
X13985388Y4544133D02*
Y4603188D01*
X13744640Y3866968D02*
Y3807913D01*
X13985388Y3866968D02*
Y3807913D01*
X13134994Y9020511D02*
X13685585D01*
X13744640D02*
X13985388D01*
X13744640Y3807913D02*
X13985388D01*
X13685585Y8961461D02*
X13659498D01*
X13744640Y8284291D02*
X13776428D01*
X13985388Y8961461D02*
X13953597D01*
X13985388Y8225240D02*
X13953597D01*
X13744640Y7548070D02*
X13776428D01*
X13985388Y7489020D02*
X13953597D01*
X13744640Y6811850D02*
X13776428D01*
X13985388Y6752799D02*
X13953597D01*
X13744640Y6075629D02*
X13776428D01*
X13985388Y6016579D02*
X13953597D01*
X13744640Y5339409D02*
X13776428D01*
X13985388Y5280358D02*
X13953597D01*
X13744640Y4603188D02*
X13776428D01*
X13985388Y4544138D02*
X13953597D01*
X13744640Y3866968D02*
X13776428D01*
X14568947Y8961461D02*
G03X14561077Y8953581I0J-7870D01*
G01Y8888621D01*
G02X14553197Y8880751I-7875J5D01*
G01X14427217D01*
G02X14419347Y8888621I-0J7870D01*
G01Y8953581D01*
G03X14411467Y8961461I-7875J5D01*
G01X14044443D01*
X14595034Y8961456D02*
Y9020511D01*
X14044443Y8961456D02*
Y9020511D01*
X14595034D01*
Y8961461D02*
X14568947D01*
X12750049Y8225240D02*
G03X12742179Y8217360I0J-7870D01*
G01Y8152400D01*
G02X12734299Y8144530I-7875J5D01*
G01X12608319D01*
G02X12600449Y8152400I-0J7870D01*
G01Y8217360D01*
G03X12592569Y8225240I-7875J5D01*
G01X12225545D01*
X12592569Y8284291D02*
G03X12600449Y8292161I5J7875D01*
G01Y8357121D01*
G02X12608319Y8365001I7870J10D01*
G01X12734299D01*
G02X12742179Y8357121I5J-7875D01*
G01Y8292161D01*
G03X12750049Y8284291I7870J0D01*
G01X12776136D01*
Y8225236D02*
Y8284291D01*
X12225545Y8225236D02*
Y8284291D01*
X12592569D01*
X12776136Y8225240D02*
X12750049D01*
X13659498D02*
G03X13651628Y8217360I0J-7870D01*
G01Y8152400D01*
G02X13643748Y8144530I-7875J5D01*
G01X13517768D01*
G02X13509898Y8152400I-0J7870D01*
G01Y8217360D01*
G03X13502018Y8225240I-7875J5D01*
G01X13134994D01*
X13502018Y8284291D02*
G03X13509898Y8292161I5J7875D01*
G01Y8357121D01*
G02X13517768Y8365001I7870J10D01*
G01X13643748D01*
G02X13651628Y8357121I5J-7875D01*
G01Y8292161D01*
G03X13659498Y8284291I7870J0D01*
G01X13685585D01*
Y8225236D02*
Y8284291D01*
X13134994Y8225236D02*
Y8284291D01*
X13502018D01*
X13685585Y8225240D02*
X13659498D01*
X14568947D02*
G03X14561077Y8217360I0J-7870D01*
G01Y8152400D01*
G02X14553197Y8144530I-7875J5D01*
G01X14427217D01*
G02X14419347Y8152400I-0J7870D01*
G01Y8217360D01*
G03X14411467Y8225240I-7875J5D01*
G01X14044443D01*
X14411467Y8284291D02*
G03X14419347Y8292161I5J7875D01*
G01Y8357121D01*
G02X14427217Y8365001I7870J10D01*
G01X14553197D01*
G02X14561077Y8357121I5J-7875D01*
G01Y8292161D01*
G03X14568947Y8284291I7870J0D01*
G01X14595034D01*
Y8225236D02*
Y8284291D01*
X14044443Y8225236D02*
Y8284291D01*
X14411467D01*
X14595034Y8225240D02*
X14568947D01*
X11840600Y7489020D02*
G03X11832730Y7481140I0J-7870D01*
G01Y7416180D01*
G02X11824850Y7408310I-7875J5D01*
G01X11698870D01*
G02X11691000Y7416180I-0J7870D01*
G01Y7481140D01*
G03X11683120Y7489020I-7875J5D01*
G01X11316097D01*
X11683120Y7548070D02*
G03X11691000Y7555940I5J7875D01*
G01Y7620900D01*
G02X11698870Y7628780I7870J10D01*
G01X11824850D01*
G02X11832730Y7620900I5J-7875D01*
G01Y7555940D01*
G03X11840600Y7548070I7870J0D01*
G01X11866687D01*
Y7489015D02*
Y7548070D01*
X11316097Y7489015D02*
Y7548070D01*
X11683120D01*
X11866687Y7489020D02*
X11840600D01*
X12750049D02*
G03X12742179Y7481140I0J-7870D01*
G01Y7416180D01*
G02X12734299Y7408310I-7875J5D01*
G01X12608319D01*
G02X12600449Y7416180I-0J7870D01*
G01Y7481140D01*
G03X12592569Y7489020I-7875J5D01*
G01X12225545D01*
X12592569Y7548070D02*
G03X12600449Y7555940I5J7875D01*
G01Y7620900D01*
G02X12608319Y7628780I7870J10D01*
G01X12734299D01*
G02X12742179Y7620900I5J-7875D01*
G01Y7555940D01*
G03X12750049Y7548070I7870J0D01*
G01X12776136D01*
Y7489015D02*
Y7548070D01*
X12225545Y7489015D02*
Y7548070D01*
X12592569D01*
X12776136Y7489020D02*
X12750049D01*
X13659498D02*
G03X13651628Y7481140I0J-7870D01*
G01Y7416180D01*
G02X13643748Y7408310I-7875J5D01*
G01X13517768D01*
G02X13509898Y7416180I-0J7870D01*
G01Y7481140D01*
G03X13502018Y7489020I-7875J5D01*
G01X13134994D01*
X13502018Y7548070D02*
G03X13509898Y7555940I5J7875D01*
G01Y7620900D01*
G02X13517768Y7628780I7870J10D01*
G01X13643748D01*
G02X13651628Y7620900I5J-7875D01*
G01Y7555940D01*
G03X13659498Y7548070I7870J0D01*
G01X13685585D01*
Y7489015D02*
Y7548070D01*
X13134994Y7489015D02*
Y7548070D01*
X13502018D01*
X13685585Y7489020D02*
X13659498D01*
X14568947D02*
G03X14561077Y7481140I0J-7870D01*
G01Y7416180D01*
G02X14553197Y7408310I-7875J5D01*
G01X14427217D01*
G02X14419347Y7416180I-0J7870D01*
G01Y7481140D01*
G03X14411467Y7489020I-7875J5D01*
G01X14044443D01*
X14411467Y7548070D02*
G03X14419347Y7555940I5J7875D01*
G01Y7620900D01*
G02X14427217Y7628780I7870J10D01*
G01X14553197D01*
G02X14561077Y7620900I5J-7875D01*
G01Y7555940D01*
G03X14568947Y7548070I7870J0D01*
G01X14595034D01*
Y7489015D02*
Y7548070D01*
X14044443Y7489015D02*
Y7548070D01*
X14411467D01*
X14595034Y7489020D02*
X14568947D01*
X11840600Y6752799D02*
G03X11832730Y6744919I0J-7870D01*
G01Y6679959D01*
G02X11824850Y6672089I-7875J5D01*
G01X11698870D01*
G02X11691000Y6679959I-0J7870D01*
G01Y6744919D01*
G03X11683120Y6752799I-7875J5D01*
G01X11316097D01*
X11683120Y6811850D02*
G03X11691000Y6819720I5J7875D01*
G01Y6884680D01*
G02X11698870Y6892560I7870J10D01*
G01X11824850D01*
G02X11832730Y6884680I5J-7875D01*
G01Y6819720D01*
G03X11840600Y6811850I7870J0D01*
G01X11866687D01*
Y6752795D02*
Y6811850D01*
X11316097Y6752795D02*
Y6811850D01*
X11683120D01*
X11866687Y6752799D02*
X11840600D01*
X12750049D02*
G03X12742179Y6744919I0J-7870D01*
G01Y6679959D01*
G02X12734299Y6672089I-7875J5D01*
G01X12608319D01*
G02X12600449Y6679959I-0J7870D01*
G01Y6744919D01*
G03X12592569Y6752799I-7875J5D01*
G01X12225545D01*
X12592569Y6811850D02*
G03X12600449Y6819720I5J7875D01*
G01Y6884680D01*
G02X12608319Y6892560I7870J10D01*
G01X12734299D01*
G02X12742179Y6884680I5J-7875D01*
G01Y6819720D01*
G03X12750049Y6811850I7870J0D01*
G01X12776136D01*
Y6752795D02*
Y6811850D01*
X12225545Y6752795D02*
Y6811850D01*
X12592569D01*
X12776136Y6752799D02*
X12750049D01*
X13659498D02*
G03X13651628Y6744919I0J-7870D01*
G01Y6679959D01*
G02X13643748Y6672089I-7875J5D01*
G01X13517768D01*
G02X13509898Y6679959I-0J7870D01*
G01Y6744919D01*
G03X13502018Y6752799I-7875J5D01*
G01X13134994D01*
X13502018Y6811850D02*
G03X13509898Y6819720I5J7875D01*
G01Y6884680D01*
G02X13517768Y6892560I7870J10D01*
G01X13643748D01*
G02X13651628Y6884680I5J-7875D01*
G01Y6819720D01*
G03X13659498Y6811850I7870J0D01*
G01X13685585D01*
Y6752795D02*
Y6811850D01*
X13134994Y6752795D02*
Y6811850D01*
X13502018D01*
X13685585Y6752799D02*
X13659498D01*
X14568947D02*
G03X14561077Y6744919I0J-7870D01*
G01Y6679959D01*
G02X14553197Y6672089I-7875J5D01*
G01X14427217D01*
G02X14419347Y6679959I-0J7870D01*
G01Y6744919D01*
G03X14411467Y6752799I-7875J5D01*
G01X14044443D01*
X14411467Y6811850D02*
G03X14419347Y6819720I5J7875D01*
G01Y6884680D01*
G02X14427217Y6892560I7870J10D01*
G01X14553197D01*
G02X14561077Y6884680I5J-7875D01*
G01Y6819720D01*
G03X14568947Y6811850I7870J0D01*
G01X14595034D01*
Y6752795D02*
Y6811850D01*
X14044443Y6752795D02*
Y6811850D01*
X14411467D01*
X14595034Y6752799D02*
X14568947D01*
X11840600Y6016579D02*
G03X11832730Y6008699I0J-7870D01*
G01Y5943739D01*
G02X11824850Y5935869I-7875J5D01*
G01X11698870D01*
G02X11691000Y5943739I-0J7870D01*
G01Y6008699D01*
G03X11683120Y6016579I-7875J5D01*
G01X11316097D01*
X11683120Y6075629D02*
G03X11691000Y6083499I5J7875D01*
G01Y6148459D01*
G02X11698870Y6156339I7870J10D01*
G01X11824850D01*
G02X11832730Y6148459I5J-7875D01*
G01Y6083499D01*
G03X11840600Y6075629I7870J0D01*
G01X11866687D01*
Y6016574D02*
Y6075629D01*
X11316097Y6016574D02*
Y6075629D01*
X11683120D01*
X11866687Y6016579D02*
X11840600D01*
X12750049D02*
G03X12742179Y6008699I0J-7870D01*
G01Y5943739D01*
G02X12734299Y5935869I-7875J5D01*
G01X12608319D01*
G02X12600449Y5943739I-0J7870D01*
G01Y6008699D01*
G03X12592569Y6016579I-7875J5D01*
G01X12225545D01*
X12592569Y6075629D02*
G03X12600449Y6083499I5J7875D01*
G01Y6148459D01*
G02X12608319Y6156339I7870J10D01*
G01X12734299D01*
G02X12742179Y6148459I5J-7875D01*
G01Y6083499D01*
G03X12750049Y6075629I7870J0D01*
G01X12776136D01*
Y6016574D02*
Y6075629D01*
X12225545Y6016574D02*
Y6075629D01*
X12592569D01*
X12776136Y6016579D02*
X12750049D01*
X13659498D02*
G03X13651628Y6008699I0J-7870D01*
G01Y5943739D01*
G02X13643748Y5935869I-7875J5D01*
G01X13517768D01*
G02X13509898Y5943739I-0J7870D01*
G01Y6008699D01*
G03X13502018Y6016579I-7875J5D01*
G01X13134994D01*
X13502018Y6075629D02*
G03X13509898Y6083499I5J7875D01*
G01Y6148459D01*
G02X13517768Y6156339I7870J10D01*
G01X13643748D01*
G02X13651628Y6148459I5J-7875D01*
G01Y6083499D01*
G03X13659498Y6075629I7870J0D01*
G01X13685585D01*
Y6016574D02*
Y6075629D01*
X13134994Y6016574D02*
Y6075629D01*
X13502018D01*
X13685585Y6016579D02*
X13659498D01*
X14568947D02*
G03X14561077Y6008699I0J-7870D01*
G01Y5943739D01*
G02X14553197Y5935869I-7875J5D01*
G01X14427217D01*
G02X14419347Y5943739I-0J7870D01*
G01Y6008699D01*
G03X14411467Y6016579I-7875J5D01*
G01X14044443D01*
X14411467Y6075629D02*
G03X14419347Y6083499I5J7875D01*
G01Y6148459D01*
G02X14427217Y6156339I7870J10D01*
G01X14553197D01*
G02X14561077Y6148459I5J-7875D01*
G01Y6083499D01*
G03X14568947Y6075629I7870J0D01*
G01X14595034D01*
Y6016574D02*
Y6075629D01*
X14044443Y6016574D02*
Y6075629D01*
X14411467D01*
X14595034Y6016579D02*
X14568947D01*
X11840600Y5280358D02*
G03X11832730Y5272478I0J-7870D01*
G01Y5207518D01*
G02X11824850Y5199648I-7875J5D01*
G01X11698870D01*
G02X11691000Y5207518I-0J7870D01*
G01Y5272478D01*
G03X11683120Y5280358I-7875J5D01*
G01X11316097D01*
X11683120Y5339409D02*
G03X11691000Y5347279I5J7875D01*
G01Y5412239D01*
G02X11698870Y5420119I7870J10D01*
G01X11824850D01*
G02X11832730Y5412239I5J-7875D01*
G01Y5347279D01*
G03X11840600Y5339409I7870J0D01*
G01X11866687D01*
Y5280354D02*
Y5339409D01*
X11316097Y5280354D02*
Y5339409D01*
X11683120D01*
X11866687Y5280358D02*
X11840600D01*
X12750049D02*
G03X12742179Y5272478I0J-7870D01*
G01Y5207518D01*
G02X12734299Y5199648I-7875J5D01*
G01X12608319D01*
G02X12600449Y5207518I-0J7870D01*
G01Y5272478D01*
G03X12592569Y5280358I-7875J5D01*
G01X12225545D01*
X12592569Y5339409D02*
G03X12600449Y5347279I5J7875D01*
G01Y5412239D01*
G02X12608319Y5420119I7870J10D01*
G01X12734299D01*
G02X12742179Y5412239I5J-7875D01*
G01Y5347279D01*
G03X12750049Y5339409I7870J0D01*
G01X12776136D01*
Y5280354D02*
Y5339409D01*
X12225545Y5280354D02*
Y5339409D01*
X12592569D01*
X12776136Y5280358D02*
X12750049D01*
X13659498D02*
G03X13651628Y5272478I0J-7870D01*
G01Y5207518D01*
G02X13643748Y5199648I-7875J5D01*
G01X13517768D01*
G02X13509898Y5207518I-0J7870D01*
G01Y5272478D01*
G03X13502018Y5280358I-7875J5D01*
G01X13134994D01*
X13502018Y5339409D02*
G03X13509898Y5347279I5J7875D01*
G01Y5412239D01*
G02X13517768Y5420119I7870J10D01*
G01X13643748D01*
G02X13651628Y5412239I5J-7875D01*
G01Y5347279D01*
G03X13659498Y5339409I7870J0D01*
G01X13685585D01*
Y5280354D02*
Y5339409D01*
X13134994Y5280354D02*
Y5339409D01*
X13502018D01*
X13685585Y5280358D02*
X13659498D01*
X14568947D02*
G03X14561077Y5272478I0J-7870D01*
G01Y5207518D01*
G02X14553197Y5199648I-7875J5D01*
G01X14427217D01*
G02X14419347Y5207518I-0J7870D01*
G01Y5272478D01*
G03X14411467Y5280358I-7875J5D01*
G01X14044443D01*
X14411467Y5339409D02*
G03X14419347Y5347279I5J7875D01*
G01Y5412239D01*
G02X14427217Y5420119I7870J10D01*
G01X14553197D01*
G02X14561077Y5412239I5J-7875D01*
G01Y5347279D01*
G03X14568947Y5339409I7870J0D01*
G01X14595034D01*
Y5280354D02*
Y5339409D01*
X14044443Y5280354D02*
Y5339409D01*
X14411467D01*
X14595034Y5280358D02*
X14568947D01*
X11840600Y4544138D02*
G03X11832730Y4536258I0J-7870D01*
G01Y4471298D01*
G02X11824850Y4463428I-7875J5D01*
G01X11698870D01*
G02X11691000Y4471298I-0J7870D01*
G01Y4536258D01*
G03X11683120Y4544138I-7875J5D01*
G01X11316097D01*
X11683120Y4603188D02*
G03X11691000Y4611058I5J7875D01*
G01Y4676018D01*
G02X11698870Y4683898I7870J10D01*
G01X11824850D01*
G02X11832730Y4676018I5J-7875D01*
G01Y4611058D01*
G03X11840600Y4603188I7870J0D01*
G01X11866687D01*
Y4544133D02*
Y4603188D01*
X11316097Y4544133D02*
Y4603188D01*
X11683120D01*
X11866687Y4544138D02*
X11840600D01*
X12750049D02*
G03X12742179Y4536258I0J-7870D01*
G01Y4471298D01*
G02X12734299Y4463428I-7875J5D01*
G01X12608319D01*
G02X12600449Y4471298I-0J7870D01*
G01Y4536258D01*
G03X12592569Y4544138I-7875J5D01*
G01X12225545D01*
X12592569Y4603188D02*
G03X12600449Y4611058I5J7875D01*
G01Y4676018D01*
G02X12608319Y4683898I7870J10D01*
G01X12734299D01*
G02X12742179Y4676018I5J-7875D01*
G01Y4611058D01*
G03X12750049Y4603188I7870J0D01*
G01X12776136D01*
Y4544133D02*
Y4603188D01*
X12225545Y4544133D02*
Y4603188D01*
X12592569D01*
X12776136Y4544138D02*
X12750049D01*
X13659498D02*
G03X13651628Y4536258I0J-7870D01*
G01Y4471298D01*
G02X13643748Y4463428I-7875J5D01*
G01X13517768D01*
G02X13509898Y4471298I-0J7870D01*
G01Y4536258D01*
G03X13502018Y4544138I-7875J5D01*
G01X13134994D01*
X13502018Y4603188D02*
G03X13509898Y4611058I5J7875D01*
G01Y4676018D01*
G02X13517768Y4683898I7870J10D01*
G01X13643748D01*
G02X13651628Y4676018I5J-7875D01*
G01Y4611058D01*
G03X13659498Y4603188I7870J0D01*
G01X13685585D01*
Y4544133D02*
Y4603188D01*
X13134994Y4544133D02*
Y4603188D01*
X13502018D01*
X13685585Y4544138D02*
X13659498D01*
X14568947D02*
G03X14561077Y4536258I0J-7870D01*
G01Y4471298D01*
G02X14553197Y4463428I-7875J5D01*
G01X14427217D01*
G02X14419347Y4471298I-0J7870D01*
G01Y4536258D01*
G03X14411467Y4544138I-7875J5D01*
G01X14044443D01*
X14411467Y4603188D02*
G03X14419347Y4611058I5J7875D01*
G01Y4676018D01*
G02X14427217Y4683898I7870J10D01*
G01X14553197D01*
G02X14561077Y4676018I5J-7875D01*
G01Y4611058D01*
G03X14568947Y4603188I7870J0D01*
G01X14595034D01*
Y4544133D02*
Y4603188D01*
X14044443Y4544133D02*
Y4603188D01*
X14411467D01*
X14595034Y4544138D02*
X14568947D01*
X8659498Y3866968D02*
G03X8667378Y3874838I5J7875D01*
G01Y3939798D01*
G02X8675248Y3947678I7870J10D01*
G01X8801228D01*
G02X8809108Y3939798I5J-7875D01*
G01Y3874838D01*
G03X8816978Y3866968I7870J0D01*
G01X8843065D01*
Y3807913D01*
X8292475Y3866968D02*
Y3807913D01*
X8843065D01*
X8292475Y3866968D02*
X8659498D01*
X9568947D02*
G03X9576827Y3874838I5J7875D01*
G01Y3939798D01*
G02X9584697Y3947678I7870J10D01*
G01X9710677D01*
G02X9718557Y3939798I5J-7875D01*
G01Y3874838D01*
G03X9726427Y3866968I7870J0D01*
G01X9752514D01*
Y3807913D01*
X9201923Y3866968D02*
Y3807913D01*
X9752514D01*
X9201923Y3866968D02*
X9568947D01*
X10478396D02*
G03X10486276Y3874838I5J7875D01*
G01Y3939798D01*
G02X10494146Y3947678I7870J10D01*
G01X10620126D01*
G02X10628006Y3939798I5J-7875D01*
G01Y3874838D01*
G03X10635876Y3866968I7870J0D01*
G01X10661963D01*
Y3807913D01*
X10111372Y3866968D02*
Y3807913D01*
X10661963D01*
X10111372Y3866968D02*
X10478396D01*
X12592569D02*
G03X12600449Y3874838I5J7875D01*
G01Y3939798D01*
G02X12608319Y3947678I7870J10D01*
G01X12734299D01*
G02X12742179Y3939798I5J-7875D01*
G01Y3874838D01*
G03X12750049Y3866968I7870J0D01*
G01X12776136D01*
Y3807913D01*
X12225545Y3866968D02*
Y3807913D01*
X12776136D01*
X12225545Y3866968D02*
X12592569D01*
X13502018D02*
G03X13509898Y3874838I5J7875D01*
G01Y3939798D01*
G02X13517768Y3947678I7870J10D01*
G01X13643748D01*
G02X13651628Y3939798I5J-7875D01*
G01Y3874838D01*
G03X13659498Y3866968I7870J0D01*
G01X13685585D01*
Y3807913D01*
X13134994Y3866968D02*
Y3807913D01*
X13685585D01*
X13134994Y3866968D02*
X13502018D01*
X14411467D02*
G03X14419347Y3874838I5J7875D01*
G01Y3939798D01*
G02X14427217Y3947678I7870J10D01*
G01X14553197D01*
G02X14561077Y3939798I5J-7875D01*
G01Y3874838D01*
G03X14568947Y3866968I7870J0D01*
G01X14595034D01*
Y3807913D01*
X14044443Y3866968D02*
Y3807913D01*
X14595034D01*
X14044443Y3866968D02*
X14411467D01*
G54D18*
X7075644Y3886725D03*
X14902416Y8941939D03*
Y3886741D03*
G54D19*
X7203597Y8990984D03*
X7412617D03*
X7412703Y8254763D03*
X8022291Y8990984D03*
X7412855Y3837440D03*
X10841392Y8990984D03*
X8322066D03*
X8322152Y8254763D03*
X8322304Y3837440D03*
X9231514Y8990984D03*
X9231600Y8254763D03*
X9231753Y3837440D03*
X10140963Y8990984D03*
X10141049Y8254763D03*
X10141201Y3837440D03*
X7412703Y7518543D03*
X8322152D03*
X9231600D03*
X10141049D03*
X7412703Y6782322D03*
X8322152D03*
X9231600D03*
X10141049D03*
X7412703Y6046102D03*
X8322152D03*
X9231600D03*
X10141049D03*
X7412703Y5309881D03*
X8322152D03*
X9231600D03*
X10141049D03*
X7412703Y4573661D03*
X8322152D03*
X9231600D03*
X10141049D03*
X8931739Y8990984D03*
X9841188D03*
X11136668D03*
X11345688D03*
X11345774Y8254763D03*
X11955362Y8990984D03*
X11345926Y3837440D03*
X14774463Y8990984D03*
X12255137D03*
X12255222Y8254763D03*
X12255375Y3837440D03*
X13164585Y8990984D03*
X13164671Y8254763D03*
X13164823Y3837440D03*
X14074034Y8990984D03*
X14074120Y8254763D03*
X14074272Y3837440D03*
X11345774Y7518543D03*
X12255222D03*
X13164671D03*
X14074120D03*
X11345774Y6782322D03*
X12255222D03*
X13164671D03*
X14074120D03*
X11345774Y6046102D03*
X12255222D03*
X13164671D03*
X14074120D03*
X11345774Y5309881D03*
X12255222D03*
X13164671D03*
X14074120D03*
X11345774Y4573661D03*
X12255222D03*
X13164671D03*
X14074120D03*
X12864810Y8990984D03*
X13774259D03*
M02*
