*
%FSLAX26Y26*%
%MOIN*%
%ADD10R,0.026680X0.026680*%
%ADD11R,0.029010X0.029010*%
%ADD12R,0.040470X0.040470*%
%ADD13R,0.038500X0.038500*%
%ADD14C,0.097550*%
%ADD15C,0.033717*%
%ADD16C,0.045567*%
%ADD17C,0.118110*%
%ADD18C,0.045370*%
%ADD19C,0.004000*%
%ADD20C,0.136079*%
%ADD21C,0.059307*%
%IPPOS*%
%LNset.gbs*%
%LPD*%
G75*
G54D10*
X7889089Y4053958D02*
Y4057118D01*
Y4107498D02*
Y4110658D01*
X7910829Y4380218D02*
Y4383378D01*
Y4326668D02*
Y4329828D01*
G54D11*
X7770159Y4306523D02*
Y4308133D01*
Y4271093D02*
Y4272703D01*
X7840079Y4107683D02*
Y4109293D01*
Y4072253D02*
Y4073863D01*
X7805539Y4072373D02*
Y4073983D01*
Y4107803D02*
Y4109413D01*
X7770439Y4072953D02*
Y4074563D01*
Y4108383D02*
Y4109993D01*
X7769829Y3994863D02*
Y3996473D01*
Y4030293D02*
Y4031903D01*
X7770999Y4151433D02*
Y4153043D01*
Y4186863D02*
Y4188473D01*
X7809289Y4350533D02*
Y4352143D01*
Y4385963D02*
Y4387573D01*
X7770489Y4350593D02*
Y4352203D01*
Y4386023D02*
Y4387633D01*
G54D12*
X7852819Y4387138D02*
X7854779D01*
X7852819Y4329658D02*
X7854779D01*
G54D11*
X7769674Y4428918D02*
X7771284D01*
X7805104D02*
X7806714D01*
G54D13*
X7548289Y4388233D02*
Y4409883D01*
X7498289Y4388233D02*
Y4409883D01*
X7448289Y4388233D02*
Y4409883D01*
X7398289Y4388233D02*
Y4409883D01*
Y4001213D02*
Y4022863D01*
X7448289Y4001213D02*
Y4022863D01*
X7498289Y4001213D02*
Y4022863D01*
X7548289Y4001213D02*
Y4022863D01*
G54D14*
X8016239Y4384503D02*
Y4419933D01*
X8016599Y4187763D02*
Y4223193D01*
X8016549Y3990943D02*
Y4026373D01*
G54D15*
X7765799Y4471298D03*
X7891784Y4471303D03*
G54D16*
X7771737Y4477226D03*
X7885883Y4477214D03*
G54D15*
X7765799Y3939808D03*
X7891784Y3939803D03*
G54D16*
X7771706Y3933894D03*
X7885889Y3933909D03*
G54D10*
X7889089Y4790178D02*
Y4793338D01*
Y4843718D02*
Y4846878D01*
X7910829Y5116438D02*
Y5119598D01*
Y5062888D02*
Y5066048D01*
G54D11*
X7770159Y5042743D02*
Y5044353D01*
Y5007313D02*
Y5008923D01*
X7840079Y4843903D02*
Y4845513D01*
Y4808473D02*
Y4810083D01*
X7805539Y4808593D02*
Y4810203D01*
Y4844023D02*
Y4845633D01*
X7770439Y4809173D02*
Y4810783D01*
Y4844603D02*
Y4846213D01*
X7769829Y4731083D02*
Y4732693D01*
Y4766513D02*
Y4768123D01*
X7770999Y4887653D02*
Y4889263D01*
Y4923083D02*
Y4924693D01*
X7809289Y5086753D02*
Y5088363D01*
Y5122183D02*
Y5123793D01*
X7770489Y5086813D02*
Y5088423D01*
Y5122243D02*
Y5123853D01*
G54D12*
X7852819Y5123358D02*
X7854779D01*
X7852819Y5065878D02*
X7854779D01*
G54D11*
X7769674Y5165138D02*
X7771284D01*
X7805104D02*
X7806714D01*
G54D13*
X7548289Y5124453D02*
Y5146103D01*
X7498289Y5124453D02*
Y5146103D01*
X7448289Y5124453D02*
Y5146103D01*
X7398289Y5124453D02*
Y5146103D01*
Y4737433D02*
Y4759083D01*
X7448289Y4737433D02*
Y4759083D01*
X7498289Y4737433D02*
Y4759083D01*
X7548289Y4737433D02*
Y4759083D01*
G54D14*
X8016239Y5120723D02*
Y5156153D01*
X8016599Y4923983D02*
Y4959413D01*
X8016549Y4727163D02*
Y4762593D01*
G54D15*
X7765799Y5207518D03*
X7891784Y5207523D03*
G54D16*
X7771737Y5213447D03*
X7885883Y5213435D03*
G54D15*
X7765799Y4676028D03*
X7891784Y4676023D03*
G54D16*
X7771706Y4670114D03*
X7885889Y4670129D03*
G54D10*
X7889089Y5526399D02*
Y5529559D01*
Y5579939D02*
Y5583099D01*
X7910829Y5852659D02*
Y5855819D01*
Y5799109D02*
Y5802269D01*
G54D11*
X7770159Y5778964D02*
Y5780574D01*
Y5743534D02*
Y5745144D01*
X7840079Y5580124D02*
Y5581734D01*
Y5544694D02*
Y5546304D01*
X7805539Y5544814D02*
Y5546424D01*
Y5580244D02*
Y5581854D01*
X7770439Y5545394D02*
Y5547004D01*
Y5580824D02*
Y5582434D01*
X7769829Y5467304D02*
Y5468914D01*
Y5502734D02*
Y5504344D01*
X7770999Y5623874D02*
Y5625484D01*
Y5659304D02*
Y5660914D01*
X7809289Y5822974D02*
Y5824584D01*
Y5858404D02*
Y5860014D01*
X7770489Y5823034D02*
Y5824644D01*
Y5858464D02*
Y5860074D01*
G54D12*
X7852819Y5859579D02*
X7854779D01*
X7852819Y5802099D02*
X7854779D01*
G54D11*
X7769674Y5901359D02*
X7771284D01*
X7805104D02*
X7806714D01*
G54D13*
X7548289Y5860674D02*
Y5882324D01*
X7498289Y5860674D02*
Y5882324D01*
X7448289Y5860674D02*
Y5882324D01*
X7398289Y5860674D02*
Y5882324D01*
Y5473654D02*
Y5495304D01*
X7448289Y5473654D02*
Y5495304D01*
X7498289Y5473654D02*
Y5495304D01*
X7548289Y5473654D02*
Y5495304D01*
G54D14*
X8016239Y5856944D02*
Y5892374D01*
X8016599Y5660204D02*
Y5695634D01*
X8016549Y5463384D02*
Y5498814D01*
G54D15*
X7765799Y5943739D03*
X7891784Y5943744D03*
G54D16*
X7771737Y5949667D03*
X7885883Y5949655D03*
G54D15*
X7765799Y5412249D03*
X7891784Y5412244D03*
G54D16*
X7771706Y5406335D03*
X7885889Y5406350D03*
G54D10*
X7889089Y6262619D02*
Y6265779D01*
Y6316159D02*
Y6319319D01*
X7910829Y6588879D02*
Y6592039D01*
Y6535329D02*
Y6538489D01*
G54D11*
X7770159Y6515184D02*
Y6516794D01*
Y6479754D02*
Y6481364D01*
X7840079Y6316344D02*
Y6317954D01*
Y6280914D02*
Y6282524D01*
X7805539Y6281034D02*
Y6282644D01*
Y6316464D02*
Y6318074D01*
X7770439Y6281614D02*
Y6283224D01*
Y6317044D02*
Y6318654D01*
X7769829Y6203524D02*
Y6205134D01*
Y6238954D02*
Y6240564D01*
X7770999Y6360094D02*
Y6361704D01*
Y6395524D02*
Y6397134D01*
X7809289Y6559194D02*
Y6560804D01*
Y6594624D02*
Y6596234D01*
X7770489Y6559254D02*
Y6560864D01*
Y6594684D02*
Y6596294D01*
G54D12*
X7852819Y6595799D02*
X7854779D01*
X7852819Y6538319D02*
X7854779D01*
G54D11*
X7769674Y6637579D02*
X7771284D01*
X7805104D02*
X7806714D01*
G54D13*
X7548289Y6596894D02*
Y6618544D01*
X7498289Y6596894D02*
Y6618544D01*
X7448289Y6596894D02*
Y6618544D01*
X7398289Y6596894D02*
Y6618544D01*
Y6209874D02*
Y6231524D01*
X7448289Y6209874D02*
Y6231524D01*
X7498289Y6209874D02*
Y6231524D01*
X7548289Y6209874D02*
Y6231524D01*
G54D14*
X8016239Y6593164D02*
Y6628594D01*
X8016599Y6396424D02*
Y6431854D01*
X8016549Y6199604D02*
Y6235034D01*
G54D15*
X7765799Y6679959D03*
X7891784Y6679964D03*
G54D16*
X7771737Y6685888D03*
X7885883Y6685875D03*
G54D15*
X7765799Y6148469D03*
X7891784Y6148464D03*
G54D16*
X7771706Y6142555D03*
X7885889Y6142570D03*
G54D10*
X7889089Y6998840D02*
Y7002000D01*
Y7052380D02*
Y7055540D01*
X7910829Y7325100D02*
Y7328260D01*
Y7271550D02*
Y7274710D01*
G54D11*
X7770159Y7251405D02*
Y7253015D01*
Y7215975D02*
Y7217585D01*
X7840079Y7052565D02*
Y7054175D01*
Y7017135D02*
Y7018745D01*
X7805539Y7017255D02*
Y7018865D01*
Y7052685D02*
Y7054295D01*
X7770439Y7017835D02*
Y7019445D01*
Y7053265D02*
Y7054875D01*
X7769829Y6939745D02*
Y6941355D01*
Y6975175D02*
Y6976785D01*
X7770999Y7096315D02*
Y7097925D01*
Y7131745D02*
Y7133355D01*
X7809289Y7295415D02*
Y7297025D01*
Y7330845D02*
Y7332455D01*
X7770489Y7295475D02*
Y7297085D01*
Y7330905D02*
Y7332515D01*
G54D12*
X7852819Y7332020D02*
X7854779D01*
X7852819Y7274540D02*
X7854779D01*
G54D11*
X7769674Y7373800D02*
X7771284D01*
X7805104D02*
X7806714D01*
G54D13*
X7548289Y7333115D02*
Y7354765D01*
X7498289Y7333115D02*
Y7354765D01*
X7448289Y7333115D02*
Y7354765D01*
X7398289Y7333115D02*
Y7354765D01*
Y6946095D02*
Y6967745D01*
X7448289Y6946095D02*
Y6967745D01*
X7498289Y6946095D02*
Y6967745D01*
X7548289Y6946095D02*
Y6967745D01*
G54D14*
X8016239Y7329385D02*
Y7364815D01*
X8016599Y7132645D02*
Y7168075D01*
X8016549Y6935825D02*
Y6971255D01*
G54D15*
X7765799Y7416180D03*
X7891784Y7416185D03*
G54D16*
X7771737Y7422108D03*
X7885883Y7422096D03*
G54D15*
X7765799Y6884690D03*
X7891784Y6884685D03*
G54D16*
X7771706Y6878776D03*
X7885889Y6878791D03*
G54D10*
X7889089Y7735060D02*
Y7738220D01*
Y7788600D02*
Y7791760D01*
X7910829Y8061320D02*
Y8064480D01*
Y8007770D02*
Y8010930D01*
G54D11*
X7770159Y7987625D02*
Y7989235D01*
Y7952195D02*
Y7953805D01*
X7840079Y7788785D02*
Y7790395D01*
Y7753355D02*
Y7754965D01*
X7805539Y7753475D02*
Y7755085D01*
Y7788905D02*
Y7790515D01*
X7770439Y7754055D02*
Y7755665D01*
Y7789485D02*
Y7791095D01*
X7769829Y7675965D02*
Y7677575D01*
Y7711395D02*
Y7713005D01*
X7770999Y7832535D02*
Y7834145D01*
Y7867965D02*
Y7869575D01*
X7809289Y8031635D02*
Y8033245D01*
Y8067065D02*
Y8068675D01*
X7770489Y8031695D02*
Y8033305D01*
Y8067125D02*
Y8068735D01*
G54D12*
X7852819Y8068240D02*
X7854779D01*
X7852819Y8010760D02*
X7854779D01*
G54D11*
X7769674Y8110020D02*
X7771284D01*
X7805104D02*
X7806714D01*
G54D13*
X7548289Y8069335D02*
Y8090985D01*
X7498289Y8069335D02*
Y8090985D01*
X7448289Y8069335D02*
Y8090985D01*
X7398289Y8069335D02*
Y8090985D01*
Y7682315D02*
Y7703965D01*
X7448289Y7682315D02*
Y7703965D01*
X7498289Y7682315D02*
Y7703965D01*
X7548289Y7682315D02*
Y7703965D01*
G54D14*
X8016239Y8065605D02*
Y8101035D01*
X8016599Y7868865D02*
Y7904295D01*
X8016549Y7672045D02*
Y7707475D01*
G54D15*
X7765799Y8152400D03*
X7891784Y8152405D03*
G54D16*
X7771737Y8158329D03*
X7885883Y8158316D03*
G54D15*
X7765799Y7620910D03*
X7891784Y7620905D03*
G54D16*
X7771706Y7614996D03*
X7885889Y7615011D03*
G54D10*
X7889089Y8471281D02*
Y8474441D01*
Y8524821D02*
Y8527981D01*
X7910829Y8797541D02*
Y8800700D01*
Y8743991D02*
Y8747150D01*
G54D11*
X7770159Y8723846D02*
Y8725456D01*
Y8688416D02*
Y8690026D01*
X7840079Y8525006D02*
Y8526616D01*
Y8489576D02*
Y8491186D01*
X7805539Y8489696D02*
Y8491306D01*
Y8525126D02*
Y8526736D01*
X7770439Y8490276D02*
Y8491886D01*
Y8525706D02*
Y8527316D01*
X7769829Y8412186D02*
Y8413796D01*
Y8447616D02*
Y8449226D01*
X7770999Y8568756D02*
Y8570366D01*
Y8604186D02*
Y8605796D01*
X7809289Y8767856D02*
Y8769466D01*
Y8803286D02*
Y8804896D01*
X7770489Y8767916D02*
Y8769526D01*
Y8803346D02*
Y8804956D01*
G54D12*
X7852819Y8804461D02*
X7854779D01*
X7852819Y8746981D02*
X7854779D01*
G54D11*
X7769674Y8846241D02*
X7771284D01*
X7805104D02*
X7806714D01*
G54D13*
X7548289Y8805556D02*
Y8827206D01*
X7498289Y8805556D02*
Y8827206D01*
X7448289Y8805556D02*
Y8827206D01*
X7398289Y8805556D02*
Y8827206D01*
Y8418536D02*
Y8440186D01*
X7448289Y8418536D02*
Y8440186D01*
X7498289Y8418536D02*
Y8440186D01*
X7548289Y8418536D02*
Y8440186D01*
G54D14*
X8016239Y8801826D02*
Y8837256D01*
X8016599Y8605086D02*
Y8640516D01*
X8016549Y8408266D02*
Y8443696D01*
G54D15*
X7765799Y8888621D03*
X7891784Y8888625D03*
G54D16*
X7771737Y8894549D03*
X7885883Y8894537D03*
G54D15*
X7765799Y8357131D03*
X7891784Y8357126D03*
G54D16*
X7771706Y8351217D03*
X7885889Y8351231D03*
G54D10*
X8798538Y4053958D02*
Y4057118D01*
Y4107498D02*
Y4110658D01*
X8820278Y4380218D02*
Y4383378D01*
Y4326668D02*
Y4329828D01*
G54D11*
X8679608Y4306523D02*
Y4308133D01*
Y4271093D02*
Y4272703D01*
X8749528Y4107683D02*
Y4109293D01*
Y4072253D02*
Y4073863D01*
X8714988Y4072373D02*
Y4073983D01*
Y4107803D02*
Y4109413D01*
X8679888Y4072953D02*
Y4074563D01*
Y4108383D02*
Y4109993D01*
X8679278Y3994863D02*
Y3996473D01*
Y4030293D02*
Y4031903D01*
X8680448Y4151433D02*
Y4153043D01*
Y4186863D02*
Y4188473D01*
X8718738Y4350533D02*
Y4352143D01*
Y4385963D02*
Y4387573D01*
X8679938Y4350593D02*
Y4352203D01*
Y4386023D02*
Y4387633D01*
G54D12*
X8762268Y4387138D02*
X8764228D01*
X8762268Y4329658D02*
X8764228D01*
G54D11*
X8679123Y4428918D02*
X8680733D01*
X8714553D02*
X8716163D01*
G54D13*
X8457738Y4388233D02*
Y4409883D01*
X8407738Y4388233D02*
Y4409883D01*
X8357738Y4388233D02*
Y4409883D01*
X8307738Y4388233D02*
Y4409883D01*
Y4001213D02*
Y4022863D01*
X8357738Y4001213D02*
Y4022863D01*
X8407738Y4001213D02*
Y4022863D01*
X8457738Y4001213D02*
Y4022863D01*
G54D14*
X8925688Y4384503D02*
Y4419933D01*
X8926048Y4187763D02*
Y4223193D01*
X8925998Y3990943D02*
Y4026373D01*
G54D15*
X8675248Y4471298D03*
X8801233Y4471303D03*
G54D16*
X8681186Y4477226D03*
X8795332Y4477214D03*
G54D15*
X8675248Y3939808D03*
X8801233Y3939803D03*
G54D16*
X8681155Y3933894D03*
X8795338Y3933909D03*
G54D10*
X8798538Y4790178D02*
Y4793338D01*
Y4843718D02*
Y4846878D01*
X8820278Y5116438D02*
Y5119598D01*
Y5062888D02*
Y5066048D01*
G54D11*
X8679608Y5042743D02*
Y5044353D01*
Y5007313D02*
Y5008923D01*
X8749528Y4843903D02*
Y4845513D01*
Y4808473D02*
Y4810083D01*
X8714988Y4808593D02*
Y4810203D01*
Y4844023D02*
Y4845633D01*
X8679888Y4809173D02*
Y4810783D01*
Y4844603D02*
Y4846213D01*
X8679278Y4731083D02*
Y4732693D01*
Y4766513D02*
Y4768123D01*
X8680448Y4887653D02*
Y4889263D01*
Y4923083D02*
Y4924693D01*
X8718738Y5086753D02*
Y5088363D01*
Y5122183D02*
Y5123793D01*
X8679938Y5086813D02*
Y5088423D01*
Y5122243D02*
Y5123853D01*
G54D12*
X8762268Y5123358D02*
X8764228D01*
X8762268Y5065878D02*
X8764228D01*
G54D11*
X8679123Y5165138D02*
X8680733D01*
X8714553D02*
X8716163D01*
G54D13*
X8457738Y5124453D02*
Y5146103D01*
X8407738Y5124453D02*
Y5146103D01*
X8357738Y5124453D02*
Y5146103D01*
X8307738Y5124453D02*
Y5146103D01*
Y4737433D02*
Y4759083D01*
X8357738Y4737433D02*
Y4759083D01*
X8407738Y4737433D02*
Y4759083D01*
X8457738Y4737433D02*
Y4759083D01*
G54D14*
X8925688Y5120723D02*
Y5156153D01*
X8926048Y4923983D02*
Y4959413D01*
X8925998Y4727163D02*
Y4762593D01*
G54D15*
X8675248Y5207518D03*
X8801233Y5207523D03*
G54D16*
X8681186Y5213447D03*
X8795332Y5213435D03*
G54D15*
X8675248Y4676028D03*
X8801233Y4676023D03*
G54D16*
X8681155Y4670114D03*
X8795338Y4670129D03*
G54D10*
X8798538Y5526399D02*
Y5529559D01*
Y5579939D02*
Y5583099D01*
X8820278Y5852659D02*
Y5855819D01*
Y5799109D02*
Y5802269D01*
G54D11*
X8679608Y5778964D02*
Y5780574D01*
Y5743534D02*
Y5745144D01*
X8749528Y5580124D02*
Y5581734D01*
Y5544694D02*
Y5546304D01*
X8714988Y5544814D02*
Y5546424D01*
Y5580244D02*
Y5581854D01*
X8679888Y5545394D02*
Y5547004D01*
Y5580824D02*
Y5582434D01*
X8679278Y5467304D02*
Y5468914D01*
Y5502734D02*
Y5504344D01*
X8680448Y5623874D02*
Y5625484D01*
Y5659304D02*
Y5660914D01*
X8718738Y5822974D02*
Y5824584D01*
Y5858404D02*
Y5860014D01*
X8679938Y5823034D02*
Y5824644D01*
Y5858464D02*
Y5860074D01*
G54D12*
X8762268Y5859579D02*
X8764228D01*
X8762268Y5802099D02*
X8764228D01*
G54D11*
X8679123Y5901359D02*
X8680733D01*
X8714553D02*
X8716163D01*
G54D13*
X8457738Y5860674D02*
Y5882324D01*
X8407738Y5860674D02*
Y5882324D01*
X8357738Y5860674D02*
Y5882324D01*
X8307738Y5860674D02*
Y5882324D01*
Y5473654D02*
Y5495304D01*
X8357738Y5473654D02*
Y5495304D01*
X8407738Y5473654D02*
Y5495304D01*
X8457738Y5473654D02*
Y5495304D01*
G54D14*
X8925688Y5856944D02*
Y5892374D01*
X8926048Y5660204D02*
Y5695634D01*
X8925998Y5463384D02*
Y5498814D01*
G54D15*
X8675248Y5943739D03*
X8801233Y5943744D03*
G54D16*
X8681186Y5949667D03*
X8795332Y5949655D03*
G54D15*
X8675248Y5412249D03*
X8801233Y5412244D03*
G54D16*
X8681155Y5406335D03*
X8795338Y5406350D03*
G54D10*
X8798538Y6262619D02*
Y6265779D01*
Y6316159D02*
Y6319319D01*
X8820278Y6588879D02*
Y6592039D01*
Y6535329D02*
Y6538489D01*
G54D11*
X8679608Y6515184D02*
Y6516794D01*
Y6479754D02*
Y6481364D01*
X8749528Y6316344D02*
Y6317954D01*
Y6280914D02*
Y6282524D01*
X8714988Y6281034D02*
Y6282644D01*
Y6316464D02*
Y6318074D01*
X8679888Y6281614D02*
Y6283224D01*
Y6317044D02*
Y6318654D01*
X8679278Y6203524D02*
Y6205134D01*
Y6238954D02*
Y6240564D01*
X8680448Y6360094D02*
Y6361704D01*
Y6395524D02*
Y6397134D01*
X8718738Y6559194D02*
Y6560804D01*
Y6594624D02*
Y6596234D01*
X8679938Y6559254D02*
Y6560864D01*
Y6594684D02*
Y6596294D01*
G54D12*
X8762268Y6595799D02*
X8764228D01*
X8762268Y6538319D02*
X8764228D01*
G54D11*
X8679123Y6637579D02*
X8680733D01*
X8714553D02*
X8716163D01*
G54D13*
X8457738Y6596894D02*
Y6618544D01*
X8407738Y6596894D02*
Y6618544D01*
X8357738Y6596894D02*
Y6618544D01*
X8307738Y6596894D02*
Y6618544D01*
Y6209874D02*
Y6231524D01*
X8357738Y6209874D02*
Y6231524D01*
X8407738Y6209874D02*
Y6231524D01*
X8457738Y6209874D02*
Y6231524D01*
G54D14*
X8925688Y6593164D02*
Y6628594D01*
X8926048Y6396424D02*
Y6431854D01*
X8925998Y6199604D02*
Y6235034D01*
G54D15*
X8675248Y6679959D03*
X8801233Y6679964D03*
G54D16*
X8681186Y6685888D03*
X8795332Y6685875D03*
G54D15*
X8675248Y6148469D03*
X8801233Y6148464D03*
G54D16*
X8681155Y6142555D03*
X8795338Y6142570D03*
G54D10*
X8798538Y6998840D02*
Y7002000D01*
Y7052380D02*
Y7055540D01*
X8820278Y7325100D02*
Y7328260D01*
Y7271550D02*
Y7274710D01*
G54D11*
X8679608Y7251405D02*
Y7253015D01*
Y7215975D02*
Y7217585D01*
X8749528Y7052565D02*
Y7054175D01*
Y7017135D02*
Y7018745D01*
X8714988Y7017255D02*
Y7018865D01*
Y7052685D02*
Y7054295D01*
X8679888Y7017835D02*
Y7019445D01*
Y7053265D02*
Y7054875D01*
X8679278Y6939745D02*
Y6941355D01*
Y6975175D02*
Y6976785D01*
X8680448Y7096315D02*
Y7097925D01*
Y7131745D02*
Y7133355D01*
X8718738Y7295415D02*
Y7297025D01*
Y7330845D02*
Y7332455D01*
X8679938Y7295475D02*
Y7297085D01*
Y7330905D02*
Y7332515D01*
G54D12*
X8762268Y7332020D02*
X8764228D01*
X8762268Y7274540D02*
X8764228D01*
G54D11*
X8679123Y7373800D02*
X8680733D01*
X8714553D02*
X8716163D01*
G54D13*
X8457738Y7333115D02*
Y7354765D01*
X8407738Y7333115D02*
Y7354765D01*
X8357738Y7333115D02*
Y7354765D01*
X8307738Y7333115D02*
Y7354765D01*
Y6946095D02*
Y6967745D01*
X8357738Y6946095D02*
Y6967745D01*
X8407738Y6946095D02*
Y6967745D01*
X8457738Y6946095D02*
Y6967745D01*
G54D14*
X8925688Y7329385D02*
Y7364815D01*
X8926048Y7132645D02*
Y7168075D01*
X8925998Y6935825D02*
Y6971255D01*
G54D15*
X8675248Y7416180D03*
X8801233Y7416185D03*
G54D16*
X8681186Y7422108D03*
X8795332Y7422096D03*
G54D15*
X8675248Y6884690D03*
X8801233Y6884685D03*
G54D16*
X8681155Y6878776D03*
X8795338Y6878791D03*
G54D10*
X8798538Y7735060D02*
Y7738220D01*
Y7788600D02*
Y7791760D01*
X8820278Y8061320D02*
Y8064480D01*
Y8007770D02*
Y8010930D01*
G54D11*
X8679608Y7987625D02*
Y7989235D01*
Y7952195D02*
Y7953805D01*
X8749528Y7788785D02*
Y7790395D01*
Y7753355D02*
Y7754965D01*
X8714988Y7753475D02*
Y7755085D01*
Y7788905D02*
Y7790515D01*
X8679888Y7754055D02*
Y7755665D01*
Y7789485D02*
Y7791095D01*
X8679278Y7675965D02*
Y7677575D01*
Y7711395D02*
Y7713005D01*
X8680448Y7832535D02*
Y7834145D01*
Y7867965D02*
Y7869575D01*
X8718738Y8031635D02*
Y8033245D01*
Y8067065D02*
Y8068675D01*
X8679938Y8031695D02*
Y8033305D01*
Y8067125D02*
Y8068735D01*
G54D12*
X8762268Y8068240D02*
X8764228D01*
X8762268Y8010760D02*
X8764228D01*
G54D11*
X8679123Y8110020D02*
X8680733D01*
X8714553D02*
X8716163D01*
G54D13*
X8457738Y8069335D02*
Y8090985D01*
X8407738Y8069335D02*
Y8090985D01*
X8357738Y8069335D02*
Y8090985D01*
X8307738Y8069335D02*
Y8090985D01*
Y7682315D02*
Y7703965D01*
X8357738Y7682315D02*
Y7703965D01*
X8407738Y7682315D02*
Y7703965D01*
X8457738Y7682315D02*
Y7703965D01*
G54D14*
X8925688Y8065605D02*
Y8101035D01*
X8926048Y7868865D02*
Y7904295D01*
X8925998Y7672045D02*
Y7707475D01*
G54D15*
X8675248Y8152400D03*
X8801233Y8152405D03*
G54D16*
X8681186Y8158329D03*
X8795332Y8158316D03*
G54D15*
X8675248Y7620910D03*
X8801233Y7620905D03*
G54D16*
X8681155Y7614996D03*
X8795338Y7615011D03*
G54D10*
X8798538Y8471281D02*
Y8474441D01*
Y8524821D02*
Y8527981D01*
X8820278Y8797541D02*
Y8800700D01*
Y8743991D02*
Y8747150D01*
G54D11*
X8679608Y8723846D02*
Y8725456D01*
Y8688416D02*
Y8690026D01*
X8749528Y8525006D02*
Y8526616D01*
Y8489576D02*
Y8491186D01*
X8714988Y8489696D02*
Y8491306D01*
Y8525126D02*
Y8526736D01*
X8679888Y8490276D02*
Y8491886D01*
Y8525706D02*
Y8527316D01*
X8679278Y8412186D02*
Y8413796D01*
Y8447616D02*
Y8449226D01*
X8680448Y8568756D02*
Y8570366D01*
Y8604186D02*
Y8605796D01*
X8718738Y8767856D02*
Y8769466D01*
Y8803286D02*
Y8804896D01*
X8679938Y8767916D02*
Y8769526D01*
Y8803346D02*
Y8804956D01*
G54D12*
X8762268Y8804461D02*
X8764228D01*
X8762268Y8746981D02*
X8764228D01*
G54D11*
X8679123Y8846241D02*
X8680733D01*
X8714553D02*
X8716163D01*
G54D13*
X8457738Y8805556D02*
Y8827206D01*
X8407738Y8805556D02*
Y8827206D01*
X8357738Y8805556D02*
Y8827206D01*
X8307738Y8805556D02*
Y8827206D01*
Y8418536D02*
Y8440186D01*
X8357738Y8418536D02*
Y8440186D01*
X8407738Y8418536D02*
Y8440186D01*
X8457738Y8418536D02*
Y8440186D01*
G54D14*
X8925688Y8801826D02*
Y8837256D01*
X8926048Y8605086D02*
Y8640516D01*
X8925998Y8408266D02*
Y8443696D01*
G54D15*
X8675248Y8888621D03*
X8801233Y8888625D03*
G54D16*
X8681186Y8894549D03*
X8795332Y8894537D03*
G54D15*
X8675248Y8357131D03*
X8801233Y8357126D03*
G54D16*
X8681155Y8351217D03*
X8795338Y8351231D03*
G54D10*
X9707987Y4053958D02*
Y4057118D01*
Y4107498D02*
Y4110658D01*
X9729727Y4380218D02*
Y4383378D01*
Y4326668D02*
Y4329828D01*
G54D11*
X9589057Y4306523D02*
Y4308133D01*
Y4271093D02*
Y4272703D01*
X9658977Y4107683D02*
Y4109293D01*
Y4072253D02*
Y4073863D01*
X9624437Y4072373D02*
Y4073983D01*
Y4107803D02*
Y4109413D01*
X9589337Y4072953D02*
Y4074563D01*
Y4108383D02*
Y4109993D01*
X9588727Y3994863D02*
Y3996473D01*
Y4030293D02*
Y4031903D01*
X9589897Y4151433D02*
Y4153043D01*
Y4186863D02*
Y4188473D01*
X9628187Y4350533D02*
Y4352143D01*
Y4385963D02*
Y4387573D01*
X9589387Y4350593D02*
Y4352203D01*
Y4386023D02*
Y4387633D01*
G54D12*
X9671717Y4387138D02*
X9673677D01*
X9671717Y4329658D02*
X9673677D01*
G54D11*
X9588572Y4428918D02*
X9590182D01*
X9624002D02*
X9625612D01*
G54D13*
X9367187Y4388233D02*
Y4409883D01*
X9317187Y4388233D02*
Y4409883D01*
X9267187Y4388233D02*
Y4409883D01*
X9217187Y4388233D02*
Y4409883D01*
Y4001213D02*
Y4022863D01*
X9267187Y4001213D02*
Y4022863D01*
X9317187Y4001213D02*
Y4022863D01*
X9367187Y4001213D02*
Y4022863D01*
G54D14*
X9835137Y4384503D02*
Y4419933D01*
X9835497Y4187763D02*
Y4223193D01*
X9835447Y3990943D02*
Y4026373D01*
G54D15*
X9584697Y4471298D03*
X9710682Y4471303D03*
G54D16*
X9590635Y4477226D03*
X9704781Y4477214D03*
G54D15*
X9584697Y3939808D03*
X9710682Y3939803D03*
G54D16*
X9590604Y3933894D03*
X9704787Y3933909D03*
G54D10*
X9707987Y4790178D02*
Y4793338D01*
Y4843718D02*
Y4846878D01*
X9729727Y5116438D02*
Y5119598D01*
Y5062888D02*
Y5066048D01*
G54D11*
X9589057Y5042743D02*
Y5044353D01*
Y5007313D02*
Y5008923D01*
X9658977Y4843903D02*
Y4845513D01*
Y4808473D02*
Y4810083D01*
X9624437Y4808593D02*
Y4810203D01*
Y4844023D02*
Y4845633D01*
X9589337Y4809173D02*
Y4810783D01*
Y4844603D02*
Y4846213D01*
X9588727Y4731083D02*
Y4732693D01*
Y4766513D02*
Y4768123D01*
X9589897Y4887653D02*
Y4889263D01*
Y4923083D02*
Y4924693D01*
X9628187Y5086753D02*
Y5088363D01*
Y5122183D02*
Y5123793D01*
X9589387Y5086813D02*
Y5088423D01*
Y5122243D02*
Y5123853D01*
G54D12*
X9671717Y5123358D02*
X9673677D01*
X9671717Y5065878D02*
X9673677D01*
G54D11*
X9588572Y5165138D02*
X9590182D01*
X9624002D02*
X9625612D01*
G54D13*
X9367187Y5124453D02*
Y5146103D01*
X9317187Y5124453D02*
Y5146103D01*
X9267187Y5124453D02*
Y5146103D01*
X9217187Y5124453D02*
Y5146103D01*
Y4737433D02*
Y4759083D01*
X9267187Y4737433D02*
Y4759083D01*
X9317187Y4737433D02*
Y4759083D01*
X9367187Y4737433D02*
Y4759083D01*
G54D14*
X9835137Y5120723D02*
Y5156153D01*
X9835497Y4923983D02*
Y4959413D01*
X9835447Y4727163D02*
Y4762593D01*
G54D15*
X9584697Y5207518D03*
X9710682Y5207523D03*
G54D16*
X9590635Y5213447D03*
X9704781Y5213435D03*
G54D15*
X9584697Y4676028D03*
X9710682Y4676023D03*
G54D16*
X9590604Y4670114D03*
X9704787Y4670129D03*
G54D10*
X9707987Y5526399D02*
Y5529559D01*
Y5579939D02*
Y5583099D01*
X9729727Y5852659D02*
Y5855819D01*
Y5799109D02*
Y5802269D01*
G54D11*
X9589057Y5778964D02*
Y5780574D01*
Y5743534D02*
Y5745144D01*
X9658977Y5580124D02*
Y5581734D01*
Y5544694D02*
Y5546304D01*
X9624437Y5544814D02*
Y5546424D01*
Y5580244D02*
Y5581854D01*
X9589337Y5545394D02*
Y5547004D01*
Y5580824D02*
Y5582434D01*
X9588727Y5467304D02*
Y5468914D01*
Y5502734D02*
Y5504344D01*
X9589897Y5623874D02*
Y5625484D01*
Y5659304D02*
Y5660914D01*
X9628187Y5822974D02*
Y5824584D01*
Y5858404D02*
Y5860014D01*
X9589387Y5823034D02*
Y5824644D01*
Y5858464D02*
Y5860074D01*
G54D12*
X9671717Y5859579D02*
X9673677D01*
X9671717Y5802099D02*
X9673677D01*
G54D11*
X9588572Y5901359D02*
X9590182D01*
X9624002D02*
X9625612D01*
G54D13*
X9367187Y5860674D02*
Y5882324D01*
X9317187Y5860674D02*
Y5882324D01*
X9267187Y5860674D02*
Y5882324D01*
X9217187Y5860674D02*
Y5882324D01*
Y5473654D02*
Y5495304D01*
X9267187Y5473654D02*
Y5495304D01*
X9317187Y5473654D02*
Y5495304D01*
X9367187Y5473654D02*
Y5495304D01*
G54D14*
X9835137Y5856944D02*
Y5892374D01*
X9835497Y5660204D02*
Y5695634D01*
X9835447Y5463384D02*
Y5498814D01*
G54D15*
X9584697Y5943739D03*
X9710682Y5943744D03*
G54D16*
X9590635Y5949667D03*
X9704781Y5949655D03*
G54D15*
X9584697Y5412249D03*
X9710682Y5412244D03*
G54D16*
X9590604Y5406335D03*
X9704787Y5406350D03*
G54D10*
X9707987Y6262619D02*
Y6265779D01*
Y6316159D02*
Y6319319D01*
X9729727Y6588879D02*
Y6592039D01*
Y6535329D02*
Y6538489D01*
G54D11*
X9589057Y6515184D02*
Y6516794D01*
Y6479754D02*
Y6481364D01*
X9658977Y6316344D02*
Y6317954D01*
Y6280914D02*
Y6282524D01*
X9624437Y6281034D02*
Y6282644D01*
Y6316464D02*
Y6318074D01*
X9589337Y6281614D02*
Y6283224D01*
Y6317044D02*
Y6318654D01*
X9588727Y6203524D02*
Y6205134D01*
Y6238954D02*
Y6240564D01*
X9589897Y6360094D02*
Y6361704D01*
Y6395524D02*
Y6397134D01*
X9628187Y6559194D02*
Y6560804D01*
Y6594624D02*
Y6596234D01*
X9589387Y6559254D02*
Y6560864D01*
Y6594684D02*
Y6596294D01*
G54D12*
X9671717Y6595799D02*
X9673677D01*
X9671717Y6538319D02*
X9673677D01*
G54D11*
X9588572Y6637579D02*
X9590182D01*
X9624002D02*
X9625612D01*
G54D13*
X9367187Y6596894D02*
Y6618544D01*
X9317187Y6596894D02*
Y6618544D01*
X9267187Y6596894D02*
Y6618544D01*
X9217187Y6596894D02*
Y6618544D01*
Y6209874D02*
Y6231524D01*
X9267187Y6209874D02*
Y6231524D01*
X9317187Y6209874D02*
Y6231524D01*
X9367187Y6209874D02*
Y6231524D01*
G54D14*
X9835137Y6593164D02*
Y6628594D01*
X9835497Y6396424D02*
Y6431854D01*
X9835447Y6199604D02*
Y6235034D01*
G54D15*
X9584697Y6679959D03*
X9710682Y6679964D03*
G54D16*
X9590635Y6685888D03*
X9704781Y6685875D03*
G54D15*
X9584697Y6148469D03*
X9710682Y6148464D03*
G54D16*
X9590604Y6142555D03*
X9704787Y6142570D03*
G54D10*
X9707987Y6998840D02*
Y7002000D01*
Y7052380D02*
Y7055540D01*
X9729727Y7325100D02*
Y7328260D01*
Y7271550D02*
Y7274710D01*
G54D11*
X9589057Y7251405D02*
Y7253015D01*
Y7215975D02*
Y7217585D01*
X9658977Y7052565D02*
Y7054175D01*
Y7017135D02*
Y7018745D01*
X9624437Y7017255D02*
Y7018865D01*
Y7052685D02*
Y7054295D01*
X9589337Y7017835D02*
Y7019445D01*
Y7053265D02*
Y7054875D01*
X9588727Y6939745D02*
Y6941355D01*
Y6975175D02*
Y6976785D01*
X9589897Y7096315D02*
Y7097925D01*
Y7131745D02*
Y7133355D01*
X9628187Y7295415D02*
Y7297025D01*
Y7330845D02*
Y7332455D01*
X9589387Y7295475D02*
Y7297085D01*
Y7330905D02*
Y7332515D01*
G54D12*
X9671717Y7332020D02*
X9673677D01*
X9671717Y7274540D02*
X9673677D01*
G54D11*
X9588572Y7373800D02*
X9590182D01*
X9624002D02*
X9625612D01*
G54D13*
X9367187Y7333115D02*
Y7354765D01*
X9317187Y7333115D02*
Y7354765D01*
X9267187Y7333115D02*
Y7354765D01*
X9217187Y7333115D02*
Y7354765D01*
Y6946095D02*
Y6967745D01*
X9267187Y6946095D02*
Y6967745D01*
X9317187Y6946095D02*
Y6967745D01*
X9367187Y6946095D02*
Y6967745D01*
G54D14*
X9835137Y7329385D02*
Y7364815D01*
X9835497Y7132645D02*
Y7168075D01*
X9835447Y6935825D02*
Y6971255D01*
G54D15*
X9584697Y7416180D03*
X9710682Y7416185D03*
G54D16*
X9590635Y7422108D03*
X9704781Y7422096D03*
G54D15*
X9584697Y6884690D03*
X9710682Y6884685D03*
G54D16*
X9590604Y6878776D03*
X9704787Y6878791D03*
G54D10*
X9707987Y7735060D02*
Y7738220D01*
Y7788600D02*
Y7791760D01*
X9729727Y8061320D02*
Y8064480D01*
Y8007770D02*
Y8010930D01*
G54D11*
X9589057Y7987625D02*
Y7989235D01*
Y7952195D02*
Y7953805D01*
X9658977Y7788785D02*
Y7790395D01*
Y7753355D02*
Y7754965D01*
X9624437Y7753475D02*
Y7755085D01*
Y7788905D02*
Y7790515D01*
X9589337Y7754055D02*
Y7755665D01*
Y7789485D02*
Y7791095D01*
X9588727Y7675965D02*
Y7677575D01*
Y7711395D02*
Y7713005D01*
X9589897Y7832535D02*
Y7834145D01*
Y7867965D02*
Y7869575D01*
X9628187Y8031635D02*
Y8033245D01*
Y8067065D02*
Y8068675D01*
X9589387Y8031695D02*
Y8033305D01*
Y8067125D02*
Y8068735D01*
G54D12*
X9671717Y8068240D02*
X9673677D01*
X9671717Y8010760D02*
X9673677D01*
G54D11*
X9588572Y8110020D02*
X9590182D01*
X9624002D02*
X9625612D01*
G54D13*
X9367187Y8069335D02*
Y8090985D01*
X9317187Y8069335D02*
Y8090985D01*
X9267187Y8069335D02*
Y8090985D01*
X9217187Y8069335D02*
Y8090985D01*
Y7682315D02*
Y7703965D01*
X9267187Y7682315D02*
Y7703965D01*
X9317187Y7682315D02*
Y7703965D01*
X9367187Y7682315D02*
Y7703965D01*
G54D14*
X9835137Y8065605D02*
Y8101035D01*
X9835497Y7868865D02*
Y7904295D01*
X9835447Y7672045D02*
Y7707475D01*
G54D15*
X9584697Y8152400D03*
X9710682Y8152405D03*
G54D16*
X9590635Y8158329D03*
X9704781Y8158316D03*
G54D15*
X9584697Y7620910D03*
X9710682Y7620905D03*
G54D16*
X9590604Y7614996D03*
X9704787Y7615011D03*
G54D10*
X9707987Y8471281D02*
Y8474441D01*
Y8524821D02*
Y8527981D01*
X9729727Y8797541D02*
Y8800700D01*
Y8743991D02*
Y8747150D01*
G54D11*
X9589057Y8723846D02*
Y8725456D01*
Y8688416D02*
Y8690026D01*
X9658977Y8525006D02*
Y8526616D01*
Y8489576D02*
Y8491186D01*
X9624437Y8489696D02*
Y8491306D01*
Y8525126D02*
Y8526736D01*
X9589337Y8490276D02*
Y8491886D01*
Y8525706D02*
Y8527316D01*
X9588727Y8412186D02*
Y8413796D01*
Y8447616D02*
Y8449226D01*
X9589897Y8568756D02*
Y8570366D01*
Y8604186D02*
Y8605796D01*
X9628187Y8767856D02*
Y8769466D01*
Y8803286D02*
Y8804896D01*
X9589387Y8767916D02*
Y8769526D01*
Y8803346D02*
Y8804956D01*
G54D12*
X9671717Y8804461D02*
X9673677D01*
X9671717Y8746981D02*
X9673677D01*
G54D11*
X9588572Y8846241D02*
X9590182D01*
X9624002D02*
X9625612D01*
G54D13*
X9367187Y8805556D02*
Y8827206D01*
X9317187Y8805556D02*
Y8827206D01*
X9267187Y8805556D02*
Y8827206D01*
X9217187Y8805556D02*
Y8827206D01*
Y8418536D02*
Y8440186D01*
X9267187Y8418536D02*
Y8440186D01*
X9317187Y8418536D02*
Y8440186D01*
X9367187Y8418536D02*
Y8440186D01*
G54D14*
X9835137Y8801826D02*
Y8837256D01*
X9835497Y8605086D02*
Y8640516D01*
X9835447Y8408266D02*
Y8443696D01*
G54D15*
X9584697Y8888621D03*
X9710682Y8888625D03*
G54D16*
X9590635Y8894549D03*
X9704781Y8894537D03*
G54D15*
X9584697Y8357131D03*
X9710682Y8357126D03*
G54D16*
X9590604Y8351217D03*
X9704787Y8351231D03*
G54D10*
X10617436Y4053958D02*
Y4057118D01*
Y4107498D02*
Y4110658D01*
X10639176Y4380218D02*
Y4383378D01*
Y4326668D02*
Y4329828D01*
G54D11*
X10498506Y4306523D02*
Y4308133D01*
Y4271093D02*
Y4272703D01*
X10568426Y4107683D02*
Y4109293D01*
Y4072253D02*
Y4073863D01*
X10533886Y4072373D02*
Y4073983D01*
Y4107803D02*
Y4109413D01*
X10498786Y4072953D02*
Y4074563D01*
Y4108383D02*
Y4109993D01*
X10498176Y3994863D02*
Y3996473D01*
Y4030293D02*
Y4031903D01*
X10499346Y4151433D02*
Y4153043D01*
Y4186863D02*
Y4188473D01*
X10537636Y4350533D02*
Y4352143D01*
Y4385963D02*
Y4387573D01*
X10498836Y4350593D02*
Y4352203D01*
Y4386023D02*
Y4387633D01*
G54D12*
X10581166Y4387138D02*
X10583126D01*
X10581166Y4329658D02*
X10583126D01*
G54D11*
X10498021Y4428918D02*
X10499631D01*
X10533451D02*
X10535061D01*
G54D13*
X10276636Y4388233D02*
Y4409883D01*
X10226636Y4388233D02*
Y4409883D01*
X10176636Y4388233D02*
Y4409883D01*
X10126636Y4388233D02*
Y4409883D01*
Y4001213D02*
Y4022863D01*
X10176636Y4001213D02*
Y4022863D01*
X10226636Y4001213D02*
Y4022863D01*
X10276636Y4001213D02*
Y4022863D01*
G54D14*
X10744586Y4384503D02*
Y4419933D01*
X10744946Y4187763D02*
Y4223193D01*
X10744896Y3990943D02*
Y4026373D01*
G54D15*
X10494146Y4471298D03*
X10620131Y4471303D03*
G54D16*
X10500084Y4477226D03*
X10614230Y4477214D03*
G54D15*
X10494146Y3939808D03*
X10620131Y3939803D03*
G54D16*
X10500053Y3933894D03*
X10614235Y3933909D03*
G54D10*
X10617436Y4790178D02*
Y4793338D01*
Y4843718D02*
Y4846878D01*
X10639176Y5116438D02*
Y5119598D01*
Y5062888D02*
Y5066048D01*
G54D11*
X10498506Y5042743D02*
Y5044353D01*
Y5007313D02*
Y5008923D01*
X10568426Y4843903D02*
Y4845513D01*
Y4808473D02*
Y4810083D01*
X10533886Y4808593D02*
Y4810203D01*
Y4844023D02*
Y4845633D01*
X10498786Y4809173D02*
Y4810783D01*
Y4844603D02*
Y4846213D01*
X10498176Y4731083D02*
Y4732693D01*
Y4766513D02*
Y4768123D01*
X10499346Y4887653D02*
Y4889263D01*
Y4923083D02*
Y4924693D01*
X10537636Y5086753D02*
Y5088363D01*
Y5122183D02*
Y5123793D01*
X10498836Y5086813D02*
Y5088423D01*
Y5122243D02*
Y5123853D01*
G54D12*
X10581166Y5123358D02*
X10583126D01*
X10581166Y5065878D02*
X10583126D01*
G54D11*
X10498021Y5165138D02*
X10499631D01*
X10533451D02*
X10535061D01*
G54D13*
X10276636Y5124453D02*
Y5146103D01*
X10226636Y5124453D02*
Y5146103D01*
X10176636Y5124453D02*
Y5146103D01*
X10126636Y5124453D02*
Y5146103D01*
Y4737433D02*
Y4759083D01*
X10176636Y4737433D02*
Y4759083D01*
X10226636Y4737433D02*
Y4759083D01*
X10276636Y4737433D02*
Y4759083D01*
G54D14*
X10744586Y5120723D02*
Y5156153D01*
X10744946Y4923983D02*
Y4959413D01*
X10744896Y4727163D02*
Y4762593D01*
G54D15*
X10494146Y5207518D03*
X10620131Y5207523D03*
G54D16*
X10500084Y5213447D03*
X10614230Y5213435D03*
G54D15*
X10494146Y4676028D03*
X10620131Y4676023D03*
G54D16*
X10500053Y4670114D03*
X10614235Y4670129D03*
G54D10*
X10617436Y5526399D02*
Y5529559D01*
Y5579939D02*
Y5583099D01*
X10639176Y5852659D02*
Y5855819D01*
Y5799109D02*
Y5802269D01*
G54D11*
X10498506Y5778964D02*
Y5780574D01*
Y5743534D02*
Y5745144D01*
X10568426Y5580124D02*
Y5581734D01*
Y5544694D02*
Y5546304D01*
X10533886Y5544814D02*
Y5546424D01*
Y5580244D02*
Y5581854D01*
X10498786Y5545394D02*
Y5547004D01*
Y5580824D02*
Y5582434D01*
X10498176Y5467304D02*
Y5468914D01*
Y5502734D02*
Y5504344D01*
X10499346Y5623874D02*
Y5625484D01*
Y5659304D02*
Y5660914D01*
X10537636Y5822974D02*
Y5824584D01*
Y5858404D02*
Y5860014D01*
X10498836Y5823034D02*
Y5824644D01*
Y5858464D02*
Y5860074D01*
G54D12*
X10581166Y5859579D02*
X10583126D01*
X10581166Y5802099D02*
X10583126D01*
G54D11*
X10498021Y5901359D02*
X10499631D01*
X10533451D02*
X10535061D01*
G54D13*
X10276636Y5860674D02*
Y5882324D01*
X10226636Y5860674D02*
Y5882324D01*
X10176636Y5860674D02*
Y5882324D01*
X10126636Y5860674D02*
Y5882324D01*
Y5473654D02*
Y5495304D01*
X10176636Y5473654D02*
Y5495304D01*
X10226636Y5473654D02*
Y5495304D01*
X10276636Y5473654D02*
Y5495304D01*
G54D14*
X10744586Y5856944D02*
Y5892374D01*
X10744946Y5660204D02*
Y5695634D01*
X10744896Y5463384D02*
Y5498814D01*
G54D15*
X10494146Y5943739D03*
X10620131Y5943744D03*
G54D16*
X10500084Y5949667D03*
X10614230Y5949655D03*
G54D15*
X10494146Y5412249D03*
X10620131Y5412244D03*
G54D16*
X10500053Y5406335D03*
X10614235Y5406350D03*
G54D10*
X10617436Y6262619D02*
Y6265779D01*
Y6316159D02*
Y6319319D01*
X10639176Y6588879D02*
Y6592039D01*
Y6535329D02*
Y6538489D01*
G54D11*
X10498506Y6515184D02*
Y6516794D01*
Y6479754D02*
Y6481364D01*
X10568426Y6316344D02*
Y6317954D01*
Y6280914D02*
Y6282524D01*
X10533886Y6281034D02*
Y6282644D01*
Y6316464D02*
Y6318074D01*
X10498786Y6281614D02*
Y6283224D01*
Y6317044D02*
Y6318654D01*
X10498176Y6203524D02*
Y6205134D01*
Y6238954D02*
Y6240564D01*
X10499346Y6360094D02*
Y6361704D01*
Y6395524D02*
Y6397134D01*
X10537636Y6559194D02*
Y6560804D01*
Y6594624D02*
Y6596234D01*
X10498836Y6559254D02*
Y6560864D01*
Y6594684D02*
Y6596294D01*
G54D12*
X10581166Y6595799D02*
X10583126D01*
X10581166Y6538319D02*
X10583126D01*
G54D11*
X10498021Y6637579D02*
X10499631D01*
X10533451D02*
X10535061D01*
G54D13*
X10276636Y6596894D02*
Y6618544D01*
X10226636Y6596894D02*
Y6618544D01*
X10176636Y6596894D02*
Y6618544D01*
X10126636Y6596894D02*
Y6618544D01*
Y6209874D02*
Y6231524D01*
X10176636Y6209874D02*
Y6231524D01*
X10226636Y6209874D02*
Y6231524D01*
X10276636Y6209874D02*
Y6231524D01*
G54D14*
X10744586Y6593164D02*
Y6628594D01*
X10744946Y6396424D02*
Y6431854D01*
X10744896Y6199604D02*
Y6235034D01*
G54D15*
X10494146Y6679959D03*
X10620131Y6679964D03*
G54D16*
X10500084Y6685888D03*
X10614230Y6685875D03*
G54D15*
X10494146Y6148469D03*
X10620131Y6148464D03*
G54D16*
X10500053Y6142555D03*
X10614235Y6142570D03*
G54D10*
X10617436Y6998840D02*
Y7002000D01*
Y7052380D02*
Y7055540D01*
X10639176Y7325100D02*
Y7328260D01*
Y7271550D02*
Y7274710D01*
G54D11*
X10498506Y7251405D02*
Y7253015D01*
Y7215975D02*
Y7217585D01*
X10568426Y7052565D02*
Y7054175D01*
Y7017135D02*
Y7018745D01*
X10533886Y7017255D02*
Y7018865D01*
Y7052685D02*
Y7054295D01*
X10498786Y7017835D02*
Y7019445D01*
Y7053265D02*
Y7054875D01*
X10498176Y6939745D02*
Y6941355D01*
Y6975175D02*
Y6976785D01*
X10499346Y7096315D02*
Y7097925D01*
Y7131745D02*
Y7133355D01*
X10537636Y7295415D02*
Y7297025D01*
Y7330845D02*
Y7332455D01*
X10498836Y7295475D02*
Y7297085D01*
Y7330905D02*
Y7332515D01*
G54D12*
X10581166Y7332020D02*
X10583126D01*
X10581166Y7274540D02*
X10583126D01*
G54D11*
X10498021Y7373800D02*
X10499631D01*
X10533451D02*
X10535061D01*
G54D13*
X10276636Y7333115D02*
Y7354765D01*
X10226636Y7333115D02*
Y7354765D01*
X10176636Y7333115D02*
Y7354765D01*
X10126636Y7333115D02*
Y7354765D01*
Y6946095D02*
Y6967745D01*
X10176636Y6946095D02*
Y6967745D01*
X10226636Y6946095D02*
Y6967745D01*
X10276636Y6946095D02*
Y6967745D01*
G54D14*
X10744586Y7329385D02*
Y7364815D01*
X10744946Y7132645D02*
Y7168075D01*
X10744896Y6935825D02*
Y6971255D01*
G54D15*
X10494146Y7416180D03*
X10620131Y7416185D03*
G54D16*
X10500084Y7422108D03*
X10614230Y7422096D03*
G54D15*
X10494146Y6884690D03*
X10620131Y6884685D03*
G54D16*
X10500053Y6878776D03*
X10614235Y6878791D03*
G54D10*
X10617436Y7735060D02*
Y7738220D01*
Y7788600D02*
Y7791760D01*
X10639176Y8061320D02*
Y8064480D01*
Y8007770D02*
Y8010930D01*
G54D11*
X10498506Y7987625D02*
Y7989235D01*
Y7952195D02*
Y7953805D01*
X10568426Y7788785D02*
Y7790395D01*
Y7753355D02*
Y7754965D01*
X10533886Y7753475D02*
Y7755085D01*
Y7788905D02*
Y7790515D01*
X10498786Y7754055D02*
Y7755665D01*
Y7789485D02*
Y7791095D01*
X10498176Y7675965D02*
Y7677575D01*
Y7711395D02*
Y7713005D01*
X10499346Y7832535D02*
Y7834145D01*
Y7867965D02*
Y7869575D01*
X10537636Y8031635D02*
Y8033245D01*
Y8067065D02*
Y8068675D01*
X10498836Y8031695D02*
Y8033305D01*
Y8067125D02*
Y8068735D01*
G54D12*
X10581166Y8068240D02*
X10583126D01*
X10581166Y8010760D02*
X10583126D01*
G54D11*
X10498021Y8110020D02*
X10499631D01*
X10533451D02*
X10535061D01*
G54D13*
X10276636Y8069335D02*
Y8090985D01*
X10226636Y8069335D02*
Y8090985D01*
X10176636Y8069335D02*
Y8090985D01*
X10126636Y8069335D02*
Y8090985D01*
Y7682315D02*
Y7703965D01*
X10176636Y7682315D02*
Y7703965D01*
X10226636Y7682315D02*
Y7703965D01*
X10276636Y7682315D02*
Y7703965D01*
G54D14*
X10744586Y8065605D02*
Y8101035D01*
X10744946Y7868865D02*
Y7904295D01*
X10744896Y7672045D02*
Y7707475D01*
G54D15*
X10494146Y8152400D03*
X10620131Y8152405D03*
G54D16*
X10500084Y8158329D03*
X10614230Y8158316D03*
G54D15*
X10494146Y7620910D03*
X10620131Y7620905D03*
G54D16*
X10500053Y7614996D03*
X10614235Y7615011D03*
G54D10*
X10617436Y8471281D02*
Y8474441D01*
Y8524821D02*
Y8527981D01*
X10639176Y8797541D02*
Y8800700D01*
Y8743991D02*
Y8747150D01*
G54D11*
X10498506Y8723846D02*
Y8725456D01*
Y8688416D02*
Y8690026D01*
X10568426Y8525006D02*
Y8526616D01*
Y8489576D02*
Y8491186D01*
X10533886Y8489696D02*
Y8491306D01*
Y8525126D02*
Y8526736D01*
X10498786Y8490276D02*
Y8491886D01*
Y8525706D02*
Y8527316D01*
X10498176Y8412186D02*
Y8413796D01*
Y8447616D02*
Y8449226D01*
X10499346Y8568756D02*
Y8570366D01*
Y8604186D02*
Y8605796D01*
X10537636Y8767856D02*
Y8769466D01*
Y8803286D02*
Y8804896D01*
X10498836Y8767916D02*
Y8769526D01*
Y8803346D02*
Y8804956D01*
G54D12*
X10581166Y8804461D02*
X10583126D01*
X10581166Y8746981D02*
X10583126D01*
G54D11*
X10498021Y8846241D02*
X10499631D01*
X10533451D02*
X10535061D01*
G54D13*
X10276636Y8805556D02*
Y8827206D01*
X10226636Y8805556D02*
Y8827206D01*
X10176636Y8805556D02*
Y8827206D01*
X10126636Y8805556D02*
Y8827206D01*
Y8418536D02*
Y8440186D01*
X10176636Y8418536D02*
Y8440186D01*
X10226636Y8418536D02*
Y8440186D01*
X10276636Y8418536D02*
Y8440186D01*
G54D14*
X10744586Y8801826D02*
Y8837256D01*
X10744946Y8605086D02*
Y8640516D01*
X10744896Y8408266D02*
Y8443696D01*
G54D15*
X10494146Y8888621D03*
X10620131Y8888625D03*
G54D16*
X10500084Y8894549D03*
X10614230Y8894537D03*
G54D15*
X10494146Y8357131D03*
X10620131Y8357126D03*
G54D16*
X10500053Y8351217D03*
X10614235Y8351231D03*
G54D10*
X11822160Y4053958D02*
Y4057118D01*
Y4107498D02*
Y4110658D01*
X11843900Y4380218D02*
Y4383378D01*
Y4326668D02*
Y4329828D01*
G54D11*
X11703230Y4306523D02*
Y4308133D01*
Y4271093D02*
Y4272703D01*
X11773150Y4107683D02*
Y4109293D01*
Y4072253D02*
Y4073863D01*
X11738610Y4072373D02*
Y4073983D01*
Y4107803D02*
Y4109413D01*
X11703510Y4072953D02*
Y4074563D01*
Y4108383D02*
Y4109993D01*
X11702900Y3994863D02*
Y3996473D01*
Y4030293D02*
Y4031903D01*
X11704070Y4151433D02*
Y4153043D01*
Y4186863D02*
Y4188473D01*
X11742360Y4350533D02*
Y4352143D01*
Y4385963D02*
Y4387573D01*
X11703560Y4350593D02*
Y4352203D01*
Y4386023D02*
Y4387633D01*
G54D12*
X11785890Y4387138D02*
X11787850D01*
X11785890Y4329658D02*
X11787850D01*
G54D11*
X11702745Y4428918D02*
X11704355D01*
X11738175D02*
X11739785D01*
G54D13*
X11481360Y4388233D02*
Y4409883D01*
X11431360Y4388233D02*
Y4409883D01*
X11381360Y4388233D02*
Y4409883D01*
X11331360Y4388233D02*
Y4409883D01*
Y4001213D02*
Y4022863D01*
X11381360Y4001213D02*
Y4022863D01*
X11431360Y4001213D02*
Y4022863D01*
X11481360Y4001213D02*
Y4022863D01*
G54D14*
X11949310Y4384503D02*
Y4419933D01*
X11949670Y4187763D02*
Y4223193D01*
X11949620Y3990943D02*
Y4026373D01*
G54D15*
X11698870Y4471298D03*
X11824855Y4471303D03*
G54D16*
X11704808Y4477226D03*
X11818954Y4477214D03*
G54D15*
X11698870Y3939808D03*
X11824855Y3939803D03*
G54D16*
X11704777Y3933894D03*
X11818960Y3933909D03*
G54D10*
X11822160Y4790178D02*
Y4793338D01*
Y4843718D02*
Y4846878D01*
X11843900Y5116438D02*
Y5119598D01*
Y5062888D02*
Y5066048D01*
G54D11*
X11703230Y5042743D02*
Y5044353D01*
Y5007313D02*
Y5008923D01*
X11773150Y4843903D02*
Y4845513D01*
Y4808473D02*
Y4810083D01*
X11738610Y4808593D02*
Y4810203D01*
Y4844023D02*
Y4845633D01*
X11703510Y4809173D02*
Y4810783D01*
Y4844603D02*
Y4846213D01*
X11702900Y4731083D02*
Y4732693D01*
Y4766513D02*
Y4768123D01*
X11704070Y4887653D02*
Y4889263D01*
Y4923083D02*
Y4924693D01*
X11742360Y5086753D02*
Y5088363D01*
Y5122183D02*
Y5123793D01*
X11703560Y5086813D02*
Y5088423D01*
Y5122243D02*
Y5123853D01*
G54D12*
X11785890Y5123358D02*
X11787850D01*
X11785890Y5065878D02*
X11787850D01*
G54D11*
X11702745Y5165138D02*
X11704355D01*
X11738175D02*
X11739785D01*
G54D13*
X11481360Y5124453D02*
Y5146103D01*
X11431360Y5124453D02*
Y5146103D01*
X11381360Y5124453D02*
Y5146103D01*
X11331360Y5124453D02*
Y5146103D01*
Y4737433D02*
Y4759083D01*
X11381360Y4737433D02*
Y4759083D01*
X11431360Y4737433D02*
Y4759083D01*
X11481360Y4737433D02*
Y4759083D01*
G54D14*
X11949310Y5120723D02*
Y5156153D01*
X11949670Y4923983D02*
Y4959413D01*
X11949620Y4727163D02*
Y4762593D01*
G54D15*
X11698870Y5207518D03*
X11824855Y5207523D03*
G54D16*
X11704808Y5213447D03*
X11818954Y5213435D03*
G54D15*
X11698870Y4676028D03*
X11824855Y4676023D03*
G54D16*
X11704777Y4670114D03*
X11818960Y4670129D03*
G54D10*
X11822160Y5526399D02*
Y5529559D01*
Y5579939D02*
Y5583099D01*
X11843900Y5852659D02*
Y5855819D01*
Y5799109D02*
Y5802269D01*
G54D11*
X11703230Y5778964D02*
Y5780574D01*
Y5743534D02*
Y5745144D01*
X11773150Y5580124D02*
Y5581734D01*
Y5544694D02*
Y5546304D01*
X11738610Y5544814D02*
Y5546424D01*
Y5580244D02*
Y5581854D01*
X11703510Y5545394D02*
Y5547004D01*
Y5580824D02*
Y5582434D01*
X11702900Y5467304D02*
Y5468914D01*
Y5502734D02*
Y5504344D01*
X11704070Y5623874D02*
Y5625484D01*
Y5659304D02*
Y5660914D01*
X11742360Y5822974D02*
Y5824584D01*
Y5858404D02*
Y5860014D01*
X11703560Y5823034D02*
Y5824644D01*
Y5858464D02*
Y5860074D01*
G54D12*
X11785890Y5859579D02*
X11787850D01*
X11785890Y5802099D02*
X11787850D01*
G54D11*
X11702745Y5901359D02*
X11704355D01*
X11738175D02*
X11739785D01*
G54D13*
X11481360Y5860674D02*
Y5882324D01*
X11431360Y5860674D02*
Y5882324D01*
X11381360Y5860674D02*
Y5882324D01*
X11331360Y5860674D02*
Y5882324D01*
Y5473654D02*
Y5495304D01*
X11381360Y5473654D02*
Y5495304D01*
X11431360Y5473654D02*
Y5495304D01*
X11481360Y5473654D02*
Y5495304D01*
G54D14*
X11949310Y5856944D02*
Y5892374D01*
X11949670Y5660204D02*
Y5695634D01*
X11949620Y5463384D02*
Y5498814D01*
G54D15*
X11698870Y5943739D03*
X11824855Y5943744D03*
G54D16*
X11704808Y5949667D03*
X11818954Y5949655D03*
G54D15*
X11698870Y5412249D03*
X11824855Y5412244D03*
G54D16*
X11704777Y5406335D03*
X11818960Y5406350D03*
G54D10*
X11822160Y6262619D02*
Y6265779D01*
Y6316159D02*
Y6319319D01*
X11843900Y6588879D02*
Y6592039D01*
Y6535329D02*
Y6538489D01*
G54D11*
X11703230Y6515184D02*
Y6516794D01*
Y6479754D02*
Y6481364D01*
X11773150Y6316344D02*
Y6317954D01*
Y6280914D02*
Y6282524D01*
X11738610Y6281034D02*
Y6282644D01*
Y6316464D02*
Y6318074D01*
X11703510Y6281614D02*
Y6283224D01*
Y6317044D02*
Y6318654D01*
X11702900Y6203524D02*
Y6205134D01*
Y6238954D02*
Y6240564D01*
X11704070Y6360094D02*
Y6361704D01*
Y6395524D02*
Y6397134D01*
X11742360Y6559194D02*
Y6560804D01*
Y6594624D02*
Y6596234D01*
X11703560Y6559254D02*
Y6560864D01*
Y6594684D02*
Y6596294D01*
G54D12*
X11785890Y6595799D02*
X11787850D01*
X11785890Y6538319D02*
X11787850D01*
G54D11*
X11702745Y6637579D02*
X11704355D01*
X11738175D02*
X11739785D01*
G54D13*
X11481360Y6596894D02*
Y6618544D01*
X11431360Y6596894D02*
Y6618544D01*
X11381360Y6596894D02*
Y6618544D01*
X11331360Y6596894D02*
Y6618544D01*
Y6209874D02*
Y6231524D01*
X11381360Y6209874D02*
Y6231524D01*
X11431360Y6209874D02*
Y6231524D01*
X11481360Y6209874D02*
Y6231524D01*
G54D14*
X11949310Y6593164D02*
Y6628594D01*
X11949670Y6396424D02*
Y6431854D01*
X11949620Y6199604D02*
Y6235034D01*
G54D15*
X11698870Y6679959D03*
X11824855Y6679964D03*
G54D16*
X11704808Y6685888D03*
X11818954Y6685875D03*
G54D15*
X11698870Y6148469D03*
X11824855Y6148464D03*
G54D16*
X11704777Y6142555D03*
X11818960Y6142570D03*
G54D10*
X11822160Y6998840D02*
Y7002000D01*
Y7052380D02*
Y7055540D01*
X11843900Y7325100D02*
Y7328260D01*
Y7271550D02*
Y7274710D01*
G54D11*
X11703230Y7251405D02*
Y7253015D01*
Y7215975D02*
Y7217585D01*
X11773150Y7052565D02*
Y7054175D01*
Y7017135D02*
Y7018745D01*
X11738610Y7017255D02*
Y7018865D01*
Y7052685D02*
Y7054295D01*
X11703510Y7017835D02*
Y7019445D01*
Y7053265D02*
Y7054875D01*
X11702900Y6939745D02*
Y6941355D01*
Y6975175D02*
Y6976785D01*
X11704070Y7096315D02*
Y7097925D01*
Y7131745D02*
Y7133355D01*
X11742360Y7295415D02*
Y7297025D01*
Y7330845D02*
Y7332455D01*
X11703560Y7295475D02*
Y7297085D01*
Y7330905D02*
Y7332515D01*
G54D12*
X11785890Y7332020D02*
X11787850D01*
X11785890Y7274540D02*
X11787850D01*
G54D11*
X11702745Y7373800D02*
X11704355D01*
X11738175D02*
X11739785D01*
G54D13*
X11481360Y7333115D02*
Y7354765D01*
X11431360Y7333115D02*
Y7354765D01*
X11381360Y7333115D02*
Y7354765D01*
X11331360Y7333115D02*
Y7354765D01*
Y6946095D02*
Y6967745D01*
X11381360Y6946095D02*
Y6967745D01*
X11431360Y6946095D02*
Y6967745D01*
X11481360Y6946095D02*
Y6967745D01*
G54D14*
X11949310Y7329385D02*
Y7364815D01*
X11949670Y7132645D02*
Y7168075D01*
X11949620Y6935825D02*
Y6971255D01*
G54D15*
X11698870Y7416180D03*
X11824855Y7416185D03*
G54D16*
X11704808Y7422108D03*
X11818954Y7422096D03*
G54D15*
X11698870Y6884690D03*
X11824855Y6884685D03*
G54D16*
X11704777Y6878776D03*
X11818960Y6878791D03*
G54D10*
X11822160Y7735060D02*
Y7738220D01*
Y7788600D02*
Y7791760D01*
X11843900Y8061320D02*
Y8064480D01*
Y8007770D02*
Y8010930D01*
G54D11*
X11703230Y7987625D02*
Y7989235D01*
Y7952195D02*
Y7953805D01*
X11773150Y7788785D02*
Y7790395D01*
Y7753355D02*
Y7754965D01*
X11738610Y7753475D02*
Y7755085D01*
Y7788905D02*
Y7790515D01*
X11703510Y7754055D02*
Y7755665D01*
Y7789485D02*
Y7791095D01*
X11702900Y7675965D02*
Y7677575D01*
Y7711395D02*
Y7713005D01*
X11704070Y7832535D02*
Y7834145D01*
Y7867965D02*
Y7869575D01*
X11742360Y8031635D02*
Y8033245D01*
Y8067065D02*
Y8068675D01*
X11703560Y8031695D02*
Y8033305D01*
Y8067125D02*
Y8068735D01*
G54D12*
X11785890Y8068240D02*
X11787850D01*
X11785890Y8010760D02*
X11787850D01*
G54D11*
X11702745Y8110020D02*
X11704355D01*
X11738175D02*
X11739785D01*
G54D13*
X11481360Y8069335D02*
Y8090985D01*
X11431360Y8069335D02*
Y8090985D01*
X11381360Y8069335D02*
Y8090985D01*
X11331360Y8069335D02*
Y8090985D01*
Y7682315D02*
Y7703965D01*
X11381360Y7682315D02*
Y7703965D01*
X11431360Y7682315D02*
Y7703965D01*
X11481360Y7682315D02*
Y7703965D01*
G54D14*
X11949310Y8065605D02*
Y8101035D01*
X11949670Y7868865D02*
Y7904295D01*
X11949620Y7672045D02*
Y7707475D01*
G54D15*
X11698870Y8152400D03*
X11824855Y8152405D03*
G54D16*
X11704808Y8158329D03*
X11818954Y8158316D03*
G54D15*
X11698870Y7620910D03*
X11824855Y7620905D03*
G54D16*
X11704777Y7614996D03*
X11818960Y7615011D03*
G54D10*
X11822160Y8471281D02*
Y8474441D01*
Y8524821D02*
Y8527981D01*
X11843900Y8797541D02*
Y8800700D01*
Y8743991D02*
Y8747150D01*
G54D11*
X11703230Y8723846D02*
Y8725456D01*
Y8688416D02*
Y8690026D01*
X11773150Y8525006D02*
Y8526616D01*
Y8489576D02*
Y8491186D01*
X11738610Y8489696D02*
Y8491306D01*
Y8525126D02*
Y8526736D01*
X11703510Y8490276D02*
Y8491886D01*
Y8525706D02*
Y8527316D01*
X11702900Y8412186D02*
Y8413796D01*
Y8447616D02*
Y8449226D01*
X11704070Y8568756D02*
Y8570366D01*
Y8604186D02*
Y8605796D01*
X11742360Y8767856D02*
Y8769466D01*
Y8803286D02*
Y8804896D01*
X11703560Y8767916D02*
Y8769526D01*
Y8803346D02*
Y8804956D01*
G54D12*
X11785890Y8804461D02*
X11787850D01*
X11785890Y8746981D02*
X11787850D01*
G54D11*
X11702745Y8846241D02*
X11704355D01*
X11738175D02*
X11739785D01*
G54D13*
X11481360Y8805556D02*
Y8827206D01*
X11431360Y8805556D02*
Y8827206D01*
X11381360Y8805556D02*
Y8827206D01*
X11331360Y8805556D02*
Y8827206D01*
Y8418536D02*
Y8440186D01*
X11381360Y8418536D02*
Y8440186D01*
X11431360Y8418536D02*
Y8440186D01*
X11481360Y8418536D02*
Y8440186D01*
G54D14*
X11949310Y8801826D02*
Y8837256D01*
X11949670Y8605086D02*
Y8640516D01*
X11949620Y8408266D02*
Y8443696D01*
G54D15*
X11698870Y8888621D03*
X11824855Y8888625D03*
G54D16*
X11704808Y8894549D03*
X11818954Y8894537D03*
G54D15*
X11698870Y8357131D03*
X11824855Y8357126D03*
G54D16*
X11704777Y8351217D03*
X11818960Y8351231D03*
G54D10*
X12731609Y4053958D02*
Y4057118D01*
Y4107498D02*
Y4110658D01*
X12753349Y4380218D02*
Y4383378D01*
Y4326668D02*
Y4329828D01*
G54D11*
X12612679Y4306523D02*
Y4308133D01*
Y4271093D02*
Y4272703D01*
X12682599Y4107683D02*
Y4109293D01*
Y4072253D02*
Y4073863D01*
X12648059Y4072373D02*
Y4073983D01*
Y4107803D02*
Y4109413D01*
X12612959Y4072953D02*
Y4074563D01*
Y4108383D02*
Y4109993D01*
X12612349Y3994863D02*
Y3996473D01*
Y4030293D02*
Y4031903D01*
X12613519Y4151433D02*
Y4153043D01*
Y4186863D02*
Y4188473D01*
X12651809Y4350533D02*
Y4352143D01*
Y4385963D02*
Y4387573D01*
X12613009Y4350593D02*
Y4352203D01*
Y4386023D02*
Y4387633D01*
G54D12*
X12695339Y4387138D02*
X12697299D01*
X12695339Y4329658D02*
X12697299D01*
G54D11*
X12612194Y4428918D02*
X12613804D01*
X12647624D02*
X12649234D01*
G54D13*
X12390809Y4388233D02*
Y4409883D01*
X12340809Y4388233D02*
Y4409883D01*
X12290809Y4388233D02*
Y4409883D01*
X12240809Y4388233D02*
Y4409883D01*
Y4001213D02*
Y4022863D01*
X12290809Y4001213D02*
Y4022863D01*
X12340809Y4001213D02*
Y4022863D01*
X12390809Y4001213D02*
Y4022863D01*
G54D14*
X12858759Y4384503D02*
Y4419933D01*
X12859119Y4187763D02*
Y4223193D01*
X12859069Y3990943D02*
Y4026373D01*
G54D15*
X12608319Y4471298D03*
X12734304Y4471303D03*
G54D16*
X12614257Y4477226D03*
X12728403Y4477214D03*
G54D15*
X12608319Y3939808D03*
X12734304Y3939803D03*
G54D16*
X12614226Y3933894D03*
X12728409Y3933909D03*
G54D10*
X12731609Y4790178D02*
Y4793338D01*
Y4843718D02*
Y4846878D01*
X12753349Y5116438D02*
Y5119598D01*
Y5062888D02*
Y5066048D01*
G54D11*
X12612679Y5042743D02*
Y5044353D01*
Y5007313D02*
Y5008923D01*
X12682599Y4843903D02*
Y4845513D01*
Y4808473D02*
Y4810083D01*
X12648059Y4808593D02*
Y4810203D01*
Y4844023D02*
Y4845633D01*
X12612959Y4809173D02*
Y4810783D01*
Y4844603D02*
Y4846213D01*
X12612349Y4731083D02*
Y4732693D01*
Y4766513D02*
Y4768123D01*
X12613519Y4887653D02*
Y4889263D01*
Y4923083D02*
Y4924693D01*
X12651809Y5086753D02*
Y5088363D01*
Y5122183D02*
Y5123793D01*
X12613009Y5086813D02*
Y5088423D01*
Y5122243D02*
Y5123853D01*
G54D12*
X12695339Y5123358D02*
X12697299D01*
X12695339Y5065878D02*
X12697299D01*
G54D11*
X12612194Y5165138D02*
X12613804D01*
X12647624D02*
X12649234D01*
G54D13*
X12390809Y5124453D02*
Y5146103D01*
X12340809Y5124453D02*
Y5146103D01*
X12290809Y5124453D02*
Y5146103D01*
X12240809Y5124453D02*
Y5146103D01*
Y4737433D02*
Y4759083D01*
X12290809Y4737433D02*
Y4759083D01*
X12340809Y4737433D02*
Y4759083D01*
X12390809Y4737433D02*
Y4759083D01*
G54D14*
X12858759Y5120723D02*
Y5156153D01*
X12859119Y4923983D02*
Y4959413D01*
X12859069Y4727163D02*
Y4762593D01*
G54D15*
X12608319Y5207518D03*
X12734304Y5207523D03*
G54D16*
X12614257Y5213447D03*
X12728403Y5213435D03*
G54D15*
X12608319Y4676028D03*
X12734304Y4676023D03*
G54D16*
X12614226Y4670114D03*
X12728409Y4670129D03*
G54D10*
X12731609Y5526399D02*
Y5529559D01*
Y5579939D02*
Y5583099D01*
X12753349Y5852659D02*
Y5855819D01*
Y5799109D02*
Y5802269D01*
G54D11*
X12612679Y5778964D02*
Y5780574D01*
Y5743534D02*
Y5745144D01*
X12682599Y5580124D02*
Y5581734D01*
Y5544694D02*
Y5546304D01*
X12648059Y5544814D02*
Y5546424D01*
Y5580244D02*
Y5581854D01*
X12612959Y5545394D02*
Y5547004D01*
Y5580824D02*
Y5582434D01*
X12612349Y5467304D02*
Y5468914D01*
Y5502734D02*
Y5504344D01*
X12613519Y5623874D02*
Y5625484D01*
Y5659304D02*
Y5660914D01*
X12651809Y5822974D02*
Y5824584D01*
Y5858404D02*
Y5860014D01*
X12613009Y5823034D02*
Y5824644D01*
Y5858464D02*
Y5860074D01*
G54D12*
X12695339Y5859579D02*
X12697299D01*
X12695339Y5802099D02*
X12697299D01*
G54D11*
X12612194Y5901359D02*
X12613804D01*
X12647624D02*
X12649234D01*
G54D13*
X12390809Y5860674D02*
Y5882324D01*
X12340809Y5860674D02*
Y5882324D01*
X12290809Y5860674D02*
Y5882324D01*
X12240809Y5860674D02*
Y5882324D01*
Y5473654D02*
Y5495304D01*
X12290809Y5473654D02*
Y5495304D01*
X12340809Y5473654D02*
Y5495304D01*
X12390809Y5473654D02*
Y5495304D01*
G54D14*
X12858759Y5856944D02*
Y5892374D01*
X12859119Y5660204D02*
Y5695634D01*
X12859069Y5463384D02*
Y5498814D01*
G54D15*
X12608319Y5943739D03*
X12734304Y5943744D03*
G54D16*
X12614257Y5949667D03*
X12728403Y5949655D03*
G54D15*
X12608319Y5412249D03*
X12734304Y5412244D03*
G54D16*
X12614226Y5406335D03*
X12728409Y5406350D03*
G54D10*
X12731609Y6262619D02*
Y6265779D01*
Y6316159D02*
Y6319319D01*
X12753349Y6588879D02*
Y6592039D01*
Y6535329D02*
Y6538489D01*
G54D11*
X12612679Y6515184D02*
Y6516794D01*
Y6479754D02*
Y6481364D01*
X12682599Y6316344D02*
Y6317954D01*
Y6280914D02*
Y6282524D01*
X12648059Y6281034D02*
Y6282644D01*
Y6316464D02*
Y6318074D01*
X12612959Y6281614D02*
Y6283224D01*
Y6317044D02*
Y6318654D01*
X12612349Y6203524D02*
Y6205134D01*
Y6238954D02*
Y6240564D01*
X12613519Y6360094D02*
Y6361704D01*
Y6395524D02*
Y6397134D01*
X12651809Y6559194D02*
Y6560804D01*
Y6594624D02*
Y6596234D01*
X12613009Y6559254D02*
Y6560864D01*
Y6594684D02*
Y6596294D01*
G54D12*
X12695339Y6595799D02*
X12697299D01*
X12695339Y6538319D02*
X12697299D01*
G54D11*
X12612194Y6637579D02*
X12613804D01*
X12647624D02*
X12649234D01*
G54D13*
X12390809Y6596894D02*
Y6618544D01*
X12340809Y6596894D02*
Y6618544D01*
X12290809Y6596894D02*
Y6618544D01*
X12240809Y6596894D02*
Y6618544D01*
Y6209874D02*
Y6231524D01*
X12290809Y6209874D02*
Y6231524D01*
X12340809Y6209874D02*
Y6231524D01*
X12390809Y6209874D02*
Y6231524D01*
G54D14*
X12858759Y6593164D02*
Y6628594D01*
X12859119Y6396424D02*
Y6431854D01*
X12859069Y6199604D02*
Y6235034D01*
G54D15*
X12608319Y6679959D03*
X12734304Y6679964D03*
G54D16*
X12614257Y6685888D03*
X12728403Y6685875D03*
G54D15*
X12608319Y6148469D03*
X12734304Y6148464D03*
G54D16*
X12614226Y6142555D03*
X12728409Y6142570D03*
G54D10*
X12731609Y6998840D02*
Y7002000D01*
Y7052380D02*
Y7055540D01*
X12753349Y7325100D02*
Y7328260D01*
Y7271550D02*
Y7274710D01*
G54D11*
X12612679Y7251405D02*
Y7253015D01*
Y7215975D02*
Y7217585D01*
X12682599Y7052565D02*
Y7054175D01*
Y7017135D02*
Y7018745D01*
X12648059Y7017255D02*
Y7018865D01*
Y7052685D02*
Y7054295D01*
X12612959Y7017835D02*
Y7019445D01*
Y7053265D02*
Y7054875D01*
X12612349Y6939745D02*
Y6941355D01*
Y6975175D02*
Y6976785D01*
X12613519Y7096315D02*
Y7097925D01*
Y7131745D02*
Y7133355D01*
X12651809Y7295415D02*
Y7297025D01*
Y7330845D02*
Y7332455D01*
X12613009Y7295475D02*
Y7297085D01*
Y7330905D02*
Y7332515D01*
G54D12*
X12695339Y7332020D02*
X12697299D01*
X12695339Y7274540D02*
X12697299D01*
G54D11*
X12612194Y7373800D02*
X12613804D01*
X12647624D02*
X12649234D01*
G54D13*
X12390809Y7333115D02*
Y7354765D01*
X12340809Y7333115D02*
Y7354765D01*
X12290809Y7333115D02*
Y7354765D01*
X12240809Y7333115D02*
Y7354765D01*
Y6946095D02*
Y6967745D01*
X12290809Y6946095D02*
Y6967745D01*
X12340809Y6946095D02*
Y6967745D01*
X12390809Y6946095D02*
Y6967745D01*
G54D14*
X12858759Y7329385D02*
Y7364815D01*
X12859119Y7132645D02*
Y7168075D01*
X12859069Y6935825D02*
Y6971255D01*
G54D15*
X12608319Y7416180D03*
X12734304Y7416185D03*
G54D16*
X12614257Y7422108D03*
X12728403Y7422096D03*
G54D15*
X12608319Y6884690D03*
X12734304Y6884685D03*
G54D16*
X12614226Y6878776D03*
X12728409Y6878791D03*
G54D10*
X12731609Y7735060D02*
Y7738220D01*
Y7788600D02*
Y7791760D01*
X12753349Y8061320D02*
Y8064480D01*
Y8007770D02*
Y8010930D01*
G54D11*
X12612679Y7987625D02*
Y7989235D01*
Y7952195D02*
Y7953805D01*
X12682599Y7788785D02*
Y7790395D01*
Y7753355D02*
Y7754965D01*
X12648059Y7753475D02*
Y7755085D01*
Y7788905D02*
Y7790515D01*
X12612959Y7754055D02*
Y7755665D01*
Y7789485D02*
Y7791095D01*
X12612349Y7675965D02*
Y7677575D01*
Y7711395D02*
Y7713005D01*
X12613519Y7832535D02*
Y7834145D01*
Y7867965D02*
Y7869575D01*
X12651809Y8031635D02*
Y8033245D01*
Y8067065D02*
Y8068675D01*
X12613009Y8031695D02*
Y8033305D01*
Y8067125D02*
Y8068735D01*
G54D12*
X12695339Y8068240D02*
X12697299D01*
X12695339Y8010760D02*
X12697299D01*
G54D11*
X12612194Y8110020D02*
X12613804D01*
X12647624D02*
X12649234D01*
G54D13*
X12390809Y8069335D02*
Y8090985D01*
X12340809Y8069335D02*
Y8090985D01*
X12290809Y8069335D02*
Y8090985D01*
X12240809Y8069335D02*
Y8090985D01*
Y7682315D02*
Y7703965D01*
X12290809Y7682315D02*
Y7703965D01*
X12340809Y7682315D02*
Y7703965D01*
X12390809Y7682315D02*
Y7703965D01*
G54D14*
X12858759Y8065605D02*
Y8101035D01*
X12859119Y7868865D02*
Y7904295D01*
X12859069Y7672045D02*
Y7707475D01*
G54D15*
X12608319Y8152400D03*
X12734304Y8152405D03*
G54D16*
X12614257Y8158329D03*
X12728403Y8158316D03*
G54D15*
X12608319Y7620910D03*
X12734304Y7620905D03*
G54D16*
X12614226Y7614996D03*
X12728409Y7615011D03*
G54D10*
X12731609Y8471281D02*
Y8474441D01*
Y8524821D02*
Y8527981D01*
X12753349Y8797541D02*
Y8800700D01*
Y8743991D02*
Y8747150D01*
G54D11*
X12612679Y8723846D02*
Y8725456D01*
Y8688416D02*
Y8690026D01*
X12682599Y8525006D02*
Y8526616D01*
Y8489576D02*
Y8491186D01*
X12648059Y8489696D02*
Y8491306D01*
Y8525126D02*
Y8526736D01*
X12612959Y8490276D02*
Y8491886D01*
Y8525706D02*
Y8527316D01*
X12612349Y8412186D02*
Y8413796D01*
Y8447616D02*
Y8449226D01*
X12613519Y8568756D02*
Y8570366D01*
Y8604186D02*
Y8605796D01*
X12651809Y8767856D02*
Y8769466D01*
Y8803286D02*
Y8804896D01*
X12613009Y8767916D02*
Y8769526D01*
Y8803346D02*
Y8804956D01*
G54D12*
X12695339Y8804461D02*
X12697299D01*
X12695339Y8746981D02*
X12697299D01*
G54D11*
X12612194Y8846241D02*
X12613804D01*
X12647624D02*
X12649234D01*
G54D13*
X12390809Y8805556D02*
Y8827206D01*
X12340809Y8805556D02*
Y8827206D01*
X12290809Y8805556D02*
Y8827206D01*
X12240809Y8805556D02*
Y8827206D01*
Y8418536D02*
Y8440186D01*
X12290809Y8418536D02*
Y8440186D01*
X12340809Y8418536D02*
Y8440186D01*
X12390809Y8418536D02*
Y8440186D01*
G54D14*
X12858759Y8801826D02*
Y8837256D01*
X12859119Y8605086D02*
Y8640516D01*
X12859069Y8408266D02*
Y8443696D01*
G54D15*
X12608319Y8888621D03*
X12734304Y8888625D03*
G54D16*
X12614257Y8894549D03*
X12728403Y8894537D03*
G54D15*
X12608319Y8357131D03*
X12734304Y8357126D03*
G54D16*
X12614226Y8351217D03*
X12728409Y8351231D03*
G54D10*
X13641058Y4053958D02*
Y4057118D01*
Y4107498D02*
Y4110658D01*
X13662798Y4380218D02*
Y4383378D01*
Y4326668D02*
Y4329828D01*
G54D11*
X13522128Y4306523D02*
Y4308133D01*
Y4271093D02*
Y4272703D01*
X13592048Y4107683D02*
Y4109293D01*
Y4072253D02*
Y4073863D01*
X13557508Y4072373D02*
Y4073983D01*
Y4107803D02*
Y4109413D01*
X13522408Y4072953D02*
Y4074563D01*
Y4108383D02*
Y4109993D01*
X13521798Y3994863D02*
Y3996473D01*
Y4030293D02*
Y4031903D01*
X13522968Y4151433D02*
Y4153043D01*
Y4186863D02*
Y4188473D01*
X13561258Y4350533D02*
Y4352143D01*
Y4385963D02*
Y4387573D01*
X13522458Y4350593D02*
Y4352203D01*
Y4386023D02*
Y4387633D01*
G54D12*
X13604788Y4387138D02*
X13606748D01*
X13604788Y4329658D02*
X13606748D01*
G54D11*
X13521643Y4428918D02*
X13523253D01*
X13557073D02*
X13558683D01*
G54D13*
X13300258Y4388233D02*
Y4409883D01*
X13250258Y4388233D02*
Y4409883D01*
X13200258Y4388233D02*
Y4409883D01*
X13150258Y4388233D02*
Y4409883D01*
Y4001213D02*
Y4022863D01*
X13200258Y4001213D02*
Y4022863D01*
X13250258Y4001213D02*
Y4022863D01*
X13300258Y4001213D02*
Y4022863D01*
G54D14*
X13768208Y4384503D02*
Y4419933D01*
X13768568Y4187763D02*
Y4223193D01*
X13768518Y3990943D02*
Y4026373D01*
G54D15*
X13517768Y4471298D03*
X13643753Y4471303D03*
G54D16*
X13523706Y4477226D03*
X13637852Y4477214D03*
G54D15*
X13517768Y3939808D03*
X13643753Y3939803D03*
G54D16*
X13523675Y3933894D03*
X13637857Y3933909D03*
G54D10*
X13641058Y4790178D02*
Y4793338D01*
Y4843718D02*
Y4846878D01*
X13662798Y5116438D02*
Y5119598D01*
Y5062888D02*
Y5066048D01*
G54D11*
X13522128Y5042743D02*
Y5044353D01*
Y5007313D02*
Y5008923D01*
X13592048Y4843903D02*
Y4845513D01*
Y4808473D02*
Y4810083D01*
X13557508Y4808593D02*
Y4810203D01*
Y4844023D02*
Y4845633D01*
X13522408Y4809173D02*
Y4810783D01*
Y4844603D02*
Y4846213D01*
X13521798Y4731083D02*
Y4732693D01*
Y4766513D02*
Y4768123D01*
X13522968Y4887653D02*
Y4889263D01*
Y4923083D02*
Y4924693D01*
X13561258Y5086753D02*
Y5088363D01*
Y5122183D02*
Y5123793D01*
X13522458Y5086813D02*
Y5088423D01*
Y5122243D02*
Y5123853D01*
G54D12*
X13604788Y5123358D02*
X13606748D01*
X13604788Y5065878D02*
X13606748D01*
G54D11*
X13521643Y5165138D02*
X13523253D01*
X13557073D02*
X13558683D01*
G54D13*
X13300258Y5124453D02*
Y5146103D01*
X13250258Y5124453D02*
Y5146103D01*
X13200258Y5124453D02*
Y5146103D01*
X13150258Y5124453D02*
Y5146103D01*
Y4737433D02*
Y4759083D01*
X13200258Y4737433D02*
Y4759083D01*
X13250258Y4737433D02*
Y4759083D01*
X13300258Y4737433D02*
Y4759083D01*
G54D14*
X13768208Y5120723D02*
Y5156153D01*
X13768568Y4923983D02*
Y4959413D01*
X13768518Y4727163D02*
Y4762593D01*
G54D15*
X13517768Y5207518D03*
X13643753Y5207523D03*
G54D16*
X13523706Y5213447D03*
X13637852Y5213435D03*
G54D15*
X13517768Y4676028D03*
X13643753Y4676023D03*
G54D16*
X13523675Y4670114D03*
X13637857Y4670129D03*
G54D10*
X13641058Y5526399D02*
Y5529559D01*
Y5579939D02*
Y5583099D01*
X13662798Y5852659D02*
Y5855819D01*
Y5799109D02*
Y5802269D01*
G54D11*
X13522128Y5778964D02*
Y5780574D01*
Y5743534D02*
Y5745144D01*
X13592048Y5580124D02*
Y5581734D01*
Y5544694D02*
Y5546304D01*
X13557508Y5544814D02*
Y5546424D01*
Y5580244D02*
Y5581854D01*
X13522408Y5545394D02*
Y5547004D01*
Y5580824D02*
Y5582434D01*
X13521798Y5467304D02*
Y5468914D01*
Y5502734D02*
Y5504344D01*
X13522968Y5623874D02*
Y5625484D01*
Y5659304D02*
Y5660914D01*
X13561258Y5822974D02*
Y5824584D01*
Y5858404D02*
Y5860014D01*
X13522458Y5823034D02*
Y5824644D01*
Y5858464D02*
Y5860074D01*
G54D12*
X13604788Y5859579D02*
X13606748D01*
X13604788Y5802099D02*
X13606748D01*
G54D11*
X13521643Y5901359D02*
X13523253D01*
X13557073D02*
X13558683D01*
G54D13*
X13300258Y5860674D02*
Y5882324D01*
X13250258Y5860674D02*
Y5882324D01*
X13200258Y5860674D02*
Y5882324D01*
X13150258Y5860674D02*
Y5882324D01*
Y5473654D02*
Y5495304D01*
X13200258Y5473654D02*
Y5495304D01*
X13250258Y5473654D02*
Y5495304D01*
X13300258Y5473654D02*
Y5495304D01*
G54D14*
X13768208Y5856944D02*
Y5892374D01*
X13768568Y5660204D02*
Y5695634D01*
X13768518Y5463384D02*
Y5498814D01*
G54D15*
X13517768Y5943739D03*
X13643753Y5943744D03*
G54D16*
X13523706Y5949667D03*
X13637852Y5949655D03*
G54D15*
X13517768Y5412249D03*
X13643753Y5412244D03*
G54D16*
X13523675Y5406335D03*
X13637857Y5406350D03*
G54D10*
X13641058Y6262619D02*
Y6265779D01*
Y6316159D02*
Y6319319D01*
X13662798Y6588879D02*
Y6592039D01*
Y6535329D02*
Y6538489D01*
G54D11*
X13522128Y6515184D02*
Y6516794D01*
Y6479754D02*
Y6481364D01*
X13592048Y6316344D02*
Y6317954D01*
Y6280914D02*
Y6282524D01*
X13557508Y6281034D02*
Y6282644D01*
Y6316464D02*
Y6318074D01*
X13522408Y6281614D02*
Y6283224D01*
Y6317044D02*
Y6318654D01*
X13521798Y6203524D02*
Y6205134D01*
Y6238954D02*
Y6240564D01*
X13522968Y6360094D02*
Y6361704D01*
Y6395524D02*
Y6397134D01*
X13561258Y6559194D02*
Y6560804D01*
Y6594624D02*
Y6596234D01*
X13522458Y6559254D02*
Y6560864D01*
Y6594684D02*
Y6596294D01*
G54D12*
X13604788Y6595799D02*
X13606748D01*
X13604788Y6538319D02*
X13606748D01*
G54D11*
X13521643Y6637579D02*
X13523253D01*
X13557073D02*
X13558683D01*
G54D13*
X13300258Y6596894D02*
Y6618544D01*
X13250258Y6596894D02*
Y6618544D01*
X13200258Y6596894D02*
Y6618544D01*
X13150258Y6596894D02*
Y6618544D01*
Y6209874D02*
Y6231524D01*
X13200258Y6209874D02*
Y6231524D01*
X13250258Y6209874D02*
Y6231524D01*
X13300258Y6209874D02*
Y6231524D01*
G54D14*
X13768208Y6593164D02*
Y6628594D01*
X13768568Y6396424D02*
Y6431854D01*
X13768518Y6199604D02*
Y6235034D01*
G54D15*
X13517768Y6679959D03*
X13643753Y6679964D03*
G54D16*
X13523706Y6685888D03*
X13637852Y6685875D03*
G54D15*
X13517768Y6148469D03*
X13643753Y6148464D03*
G54D16*
X13523675Y6142555D03*
X13637857Y6142570D03*
G54D10*
X13641058Y6998840D02*
Y7002000D01*
Y7052380D02*
Y7055540D01*
X13662798Y7325100D02*
Y7328260D01*
Y7271550D02*
Y7274710D01*
G54D11*
X13522128Y7251405D02*
Y7253015D01*
Y7215975D02*
Y7217585D01*
X13592048Y7052565D02*
Y7054175D01*
Y7017135D02*
Y7018745D01*
X13557508Y7017255D02*
Y7018865D01*
Y7052685D02*
Y7054295D01*
X13522408Y7017835D02*
Y7019445D01*
Y7053265D02*
Y7054875D01*
X13521798Y6939745D02*
Y6941355D01*
Y6975175D02*
Y6976785D01*
X13522968Y7096315D02*
Y7097925D01*
Y7131745D02*
Y7133355D01*
X13561258Y7295415D02*
Y7297025D01*
Y7330845D02*
Y7332455D01*
X13522458Y7295475D02*
Y7297085D01*
Y7330905D02*
Y7332515D01*
G54D12*
X13604788Y7332020D02*
X13606748D01*
X13604788Y7274540D02*
X13606748D01*
G54D11*
X13521643Y7373800D02*
X13523253D01*
X13557073D02*
X13558683D01*
G54D13*
X13300258Y7333115D02*
Y7354765D01*
X13250258Y7333115D02*
Y7354765D01*
X13200258Y7333115D02*
Y7354765D01*
X13150258Y7333115D02*
Y7354765D01*
Y6946095D02*
Y6967745D01*
X13200258Y6946095D02*
Y6967745D01*
X13250258Y6946095D02*
Y6967745D01*
X13300258Y6946095D02*
Y6967745D01*
G54D14*
X13768208Y7329385D02*
Y7364815D01*
X13768568Y7132645D02*
Y7168075D01*
X13768518Y6935825D02*
Y6971255D01*
G54D15*
X13517768Y7416180D03*
X13643753Y7416185D03*
G54D16*
X13523706Y7422108D03*
X13637852Y7422096D03*
G54D15*
X13517768Y6884690D03*
X13643753Y6884685D03*
G54D16*
X13523675Y6878776D03*
X13637857Y6878791D03*
G54D10*
X13641058Y7735060D02*
Y7738220D01*
Y7788600D02*
Y7791760D01*
X13662798Y8061320D02*
Y8064480D01*
Y8007770D02*
Y8010930D01*
G54D11*
X13522128Y7987625D02*
Y7989235D01*
Y7952195D02*
Y7953805D01*
X13592048Y7788785D02*
Y7790395D01*
Y7753355D02*
Y7754965D01*
X13557508Y7753475D02*
Y7755085D01*
Y7788905D02*
Y7790515D01*
X13522408Y7754055D02*
Y7755665D01*
Y7789485D02*
Y7791095D01*
X13521798Y7675965D02*
Y7677575D01*
Y7711395D02*
Y7713005D01*
X13522968Y7832535D02*
Y7834145D01*
Y7867965D02*
Y7869575D01*
X13561258Y8031635D02*
Y8033245D01*
Y8067065D02*
Y8068675D01*
X13522458Y8031695D02*
Y8033305D01*
Y8067125D02*
Y8068735D01*
G54D12*
X13604788Y8068240D02*
X13606748D01*
X13604788Y8010760D02*
X13606748D01*
G54D11*
X13521643Y8110020D02*
X13523253D01*
X13557073D02*
X13558683D01*
G54D13*
X13300258Y8069335D02*
Y8090985D01*
X13250258Y8069335D02*
Y8090985D01*
X13200258Y8069335D02*
Y8090985D01*
X13150258Y8069335D02*
Y8090985D01*
Y7682315D02*
Y7703965D01*
X13200258Y7682315D02*
Y7703965D01*
X13250258Y7682315D02*
Y7703965D01*
X13300258Y7682315D02*
Y7703965D01*
G54D14*
X13768208Y8065605D02*
Y8101035D01*
X13768568Y7868865D02*
Y7904295D01*
X13768518Y7672045D02*
Y7707475D01*
G54D15*
X13517768Y8152400D03*
X13643753Y8152405D03*
G54D16*
X13523706Y8158329D03*
X13637852Y8158316D03*
G54D15*
X13517768Y7620910D03*
X13643753Y7620905D03*
G54D16*
X13523675Y7614996D03*
X13637857Y7615011D03*
G54D10*
X13641058Y8471281D02*
Y8474441D01*
Y8524821D02*
Y8527981D01*
X13662798Y8797541D02*
Y8800700D01*
Y8743991D02*
Y8747150D01*
G54D11*
X13522128Y8723846D02*
Y8725456D01*
Y8688416D02*
Y8690026D01*
X13592048Y8525006D02*
Y8526616D01*
Y8489576D02*
Y8491186D01*
X13557508Y8489696D02*
Y8491306D01*
Y8525126D02*
Y8526736D01*
X13522408Y8490276D02*
Y8491886D01*
Y8525706D02*
Y8527316D01*
X13521798Y8412186D02*
Y8413796D01*
Y8447616D02*
Y8449226D01*
X13522968Y8568756D02*
Y8570366D01*
Y8604186D02*
Y8605796D01*
X13561258Y8767856D02*
Y8769466D01*
Y8803286D02*
Y8804896D01*
X13522458Y8767916D02*
Y8769526D01*
Y8803346D02*
Y8804956D01*
G54D12*
X13604788Y8804461D02*
X13606748D01*
X13604788Y8746981D02*
X13606748D01*
G54D11*
X13521643Y8846241D02*
X13523253D01*
X13557073D02*
X13558683D01*
G54D13*
X13300258Y8805556D02*
Y8827206D01*
X13250258Y8805556D02*
Y8827206D01*
X13200258Y8805556D02*
Y8827206D01*
X13150258Y8805556D02*
Y8827206D01*
Y8418536D02*
Y8440186D01*
X13200258Y8418536D02*
Y8440186D01*
X13250258Y8418536D02*
Y8440186D01*
X13300258Y8418536D02*
Y8440186D01*
G54D14*
X13768208Y8801826D02*
Y8837256D01*
X13768568Y8605086D02*
Y8640516D01*
X13768518Y8408266D02*
Y8443696D01*
G54D15*
X13517768Y8888621D03*
X13643753Y8888625D03*
G54D16*
X13523706Y8894549D03*
X13637852Y8894537D03*
G54D15*
X13517768Y8357131D03*
X13643753Y8357126D03*
G54D16*
X13523675Y8351217D03*
X13637857Y8351231D03*
G54D10*
X14550507Y4053958D02*
Y4057118D01*
Y4107498D02*
Y4110658D01*
X14572247Y4380218D02*
Y4383378D01*
Y4326668D02*
Y4329828D01*
G54D11*
X14431577Y4306523D02*
Y4308133D01*
Y4271093D02*
Y4272703D01*
X14501497Y4107683D02*
Y4109293D01*
Y4072253D02*
Y4073863D01*
X14466957Y4072373D02*
Y4073983D01*
Y4107803D02*
Y4109413D01*
X14431857Y4072953D02*
Y4074563D01*
Y4108383D02*
Y4109993D01*
X14431247Y3994863D02*
Y3996473D01*
Y4030293D02*
Y4031903D01*
X14432417Y4151433D02*
Y4153043D01*
Y4186863D02*
Y4188473D01*
X14470707Y4350533D02*
Y4352143D01*
Y4385963D02*
Y4387573D01*
X14431907Y4350593D02*
Y4352203D01*
Y4386023D02*
Y4387633D01*
G54D12*
X14514237Y4387138D02*
X14516197D01*
X14514237Y4329658D02*
X14516197D01*
G54D11*
X14431092Y4428918D02*
X14432702D01*
X14466522D02*
X14468132D01*
G54D13*
X14209707Y4388233D02*
Y4409883D01*
X14159707Y4388233D02*
Y4409883D01*
X14109707Y4388233D02*
Y4409883D01*
X14059707Y4388233D02*
Y4409883D01*
Y4001213D02*
Y4022863D01*
X14109707Y4001213D02*
Y4022863D01*
X14159707Y4001213D02*
Y4022863D01*
X14209707Y4001213D02*
Y4022863D01*
G54D14*
X14677657Y4384503D02*
Y4419933D01*
X14678017Y4187763D02*
Y4223193D01*
X14677967Y3990943D02*
Y4026373D01*
G54D15*
X14427217Y4471298D03*
X14553202Y4471303D03*
G54D16*
X14433154Y4477226D03*
X14547301Y4477214D03*
G54D15*
X14427217Y3939808D03*
X14553202Y3939803D03*
G54D16*
X14433124Y3933894D03*
X14547306Y3933909D03*
G54D10*
X14550507Y4790178D02*
Y4793338D01*
Y4843718D02*
Y4846878D01*
X14572247Y5116438D02*
Y5119598D01*
Y5062888D02*
Y5066048D01*
G54D11*
X14431577Y5042743D02*
Y5044353D01*
Y5007313D02*
Y5008923D01*
X14501497Y4843903D02*
Y4845513D01*
Y4808473D02*
Y4810083D01*
X14466957Y4808593D02*
Y4810203D01*
Y4844023D02*
Y4845633D01*
X14431857Y4809173D02*
Y4810783D01*
Y4844603D02*
Y4846213D01*
X14431247Y4731083D02*
Y4732693D01*
Y4766513D02*
Y4768123D01*
X14432417Y4887653D02*
Y4889263D01*
Y4923083D02*
Y4924693D01*
X14470707Y5086753D02*
Y5088363D01*
Y5122183D02*
Y5123793D01*
X14431907Y5086813D02*
Y5088423D01*
Y5122243D02*
Y5123853D01*
G54D12*
X14514237Y5123358D02*
X14516197D01*
X14514237Y5065878D02*
X14516197D01*
G54D11*
X14431092Y5165138D02*
X14432702D01*
X14466522D02*
X14468132D01*
G54D13*
X14209707Y5124453D02*
Y5146103D01*
X14159707Y5124453D02*
Y5146103D01*
X14109707Y5124453D02*
Y5146103D01*
X14059707Y5124453D02*
Y5146103D01*
Y4737433D02*
Y4759083D01*
X14109707Y4737433D02*
Y4759083D01*
X14159707Y4737433D02*
Y4759083D01*
X14209707Y4737433D02*
Y4759083D01*
G54D14*
X14677657Y5120723D02*
Y5156153D01*
X14678017Y4923983D02*
Y4959413D01*
X14677967Y4727163D02*
Y4762593D01*
G54D15*
X14427217Y5207518D03*
X14553202Y5207523D03*
G54D16*
X14433154Y5213447D03*
X14547301Y5213435D03*
G54D15*
X14427217Y4676028D03*
X14553202Y4676023D03*
G54D16*
X14433124Y4670114D03*
X14547306Y4670129D03*
G54D10*
X14550507Y5526399D02*
Y5529559D01*
Y5579939D02*
Y5583099D01*
X14572247Y5852659D02*
Y5855819D01*
Y5799109D02*
Y5802269D01*
G54D11*
X14431577Y5778964D02*
Y5780574D01*
Y5743534D02*
Y5745144D01*
X14501497Y5580124D02*
Y5581734D01*
Y5544694D02*
Y5546304D01*
X14466957Y5544814D02*
Y5546424D01*
Y5580244D02*
Y5581854D01*
X14431857Y5545394D02*
Y5547004D01*
Y5580824D02*
Y5582434D01*
X14431247Y5467304D02*
Y5468914D01*
Y5502734D02*
Y5504344D01*
X14432417Y5623874D02*
Y5625484D01*
Y5659304D02*
Y5660914D01*
X14470707Y5822974D02*
Y5824584D01*
Y5858404D02*
Y5860014D01*
X14431907Y5823034D02*
Y5824644D01*
Y5858464D02*
Y5860074D01*
G54D12*
X14514237Y5859579D02*
X14516197D01*
X14514237Y5802099D02*
X14516197D01*
G54D11*
X14431092Y5901359D02*
X14432702D01*
X14466522D02*
X14468132D01*
G54D13*
X14209707Y5860674D02*
Y5882324D01*
X14159707Y5860674D02*
Y5882324D01*
X14109707Y5860674D02*
Y5882324D01*
X14059707Y5860674D02*
Y5882324D01*
Y5473654D02*
Y5495304D01*
X14109707Y5473654D02*
Y5495304D01*
X14159707Y5473654D02*
Y5495304D01*
X14209707Y5473654D02*
Y5495304D01*
G54D14*
X14677657Y5856944D02*
Y5892374D01*
X14678017Y5660204D02*
Y5695634D01*
X14677967Y5463384D02*
Y5498814D01*
G54D15*
X14427217Y5943739D03*
X14553202Y5943744D03*
G54D16*
X14433154Y5949667D03*
X14547301Y5949655D03*
G54D15*
X14427217Y5412249D03*
X14553202Y5412244D03*
G54D16*
X14433124Y5406335D03*
X14547306Y5406350D03*
G54D10*
X14550507Y6262619D02*
Y6265779D01*
Y6316159D02*
Y6319319D01*
X14572247Y6588879D02*
Y6592039D01*
Y6535329D02*
Y6538489D01*
G54D11*
X14431577Y6515184D02*
Y6516794D01*
Y6479754D02*
Y6481364D01*
X14501497Y6316344D02*
Y6317954D01*
Y6280914D02*
Y6282524D01*
X14466957Y6281034D02*
Y6282644D01*
Y6316464D02*
Y6318074D01*
X14431857Y6281614D02*
Y6283224D01*
Y6317044D02*
Y6318654D01*
X14431247Y6203524D02*
Y6205134D01*
Y6238954D02*
Y6240564D01*
X14432417Y6360094D02*
Y6361704D01*
Y6395524D02*
Y6397134D01*
X14470707Y6559194D02*
Y6560804D01*
Y6594624D02*
Y6596234D01*
X14431907Y6559254D02*
Y6560864D01*
Y6594684D02*
Y6596294D01*
G54D12*
X14514237Y6595799D02*
X14516197D01*
X14514237Y6538319D02*
X14516197D01*
G54D11*
X14431092Y6637579D02*
X14432702D01*
X14466522D02*
X14468132D01*
G54D13*
X14209707Y6596894D02*
Y6618544D01*
X14159707Y6596894D02*
Y6618544D01*
X14109707Y6596894D02*
Y6618544D01*
X14059707Y6596894D02*
Y6618544D01*
Y6209874D02*
Y6231524D01*
X14109707Y6209874D02*
Y6231524D01*
X14159707Y6209874D02*
Y6231524D01*
X14209707Y6209874D02*
Y6231524D01*
G54D14*
X14677657Y6593164D02*
Y6628594D01*
X14678017Y6396424D02*
Y6431854D01*
X14677967Y6199604D02*
Y6235034D01*
G54D15*
X14427217Y6679959D03*
X14553202Y6679964D03*
G54D16*
X14433154Y6685888D03*
X14547301Y6685875D03*
G54D15*
X14427217Y6148469D03*
X14553202Y6148464D03*
G54D16*
X14433124Y6142555D03*
X14547306Y6142570D03*
G54D10*
X14550507Y6998840D02*
Y7002000D01*
Y7052380D02*
Y7055540D01*
X14572247Y7325100D02*
Y7328260D01*
Y7271550D02*
Y7274710D01*
G54D11*
X14431577Y7251405D02*
Y7253015D01*
Y7215975D02*
Y7217585D01*
X14501497Y7052565D02*
Y7054175D01*
Y7017135D02*
Y7018745D01*
X14466957Y7017255D02*
Y7018865D01*
Y7052685D02*
Y7054295D01*
X14431857Y7017835D02*
Y7019445D01*
Y7053265D02*
Y7054875D01*
X14431247Y6939745D02*
Y6941355D01*
Y6975175D02*
Y6976785D01*
X14432417Y7096315D02*
Y7097925D01*
Y7131745D02*
Y7133355D01*
X14470707Y7295415D02*
Y7297025D01*
Y7330845D02*
Y7332455D01*
X14431907Y7295475D02*
Y7297085D01*
Y7330905D02*
Y7332515D01*
G54D12*
X14514237Y7332020D02*
X14516197D01*
X14514237Y7274540D02*
X14516197D01*
G54D11*
X14431092Y7373800D02*
X14432702D01*
X14466522D02*
X14468132D01*
G54D13*
X14209707Y7333115D02*
Y7354765D01*
X14159707Y7333115D02*
Y7354765D01*
X14109707Y7333115D02*
Y7354765D01*
X14059707Y7333115D02*
Y7354765D01*
Y6946095D02*
Y6967745D01*
X14109707Y6946095D02*
Y6967745D01*
X14159707Y6946095D02*
Y6967745D01*
X14209707Y6946095D02*
Y6967745D01*
G54D14*
X14677657Y7329385D02*
Y7364815D01*
X14678017Y7132645D02*
Y7168075D01*
X14677967Y6935825D02*
Y6971255D01*
G54D15*
X14427217Y7416180D03*
X14553202Y7416185D03*
G54D16*
X14433154Y7422108D03*
X14547301Y7422096D03*
G54D15*
X14427217Y6884690D03*
X14553202Y6884685D03*
G54D16*
X14433124Y6878776D03*
X14547306Y6878791D03*
G54D10*
X14550507Y7735060D02*
Y7738220D01*
Y7788600D02*
Y7791760D01*
X14572247Y8061320D02*
Y8064480D01*
Y8007770D02*
Y8010930D01*
G54D11*
X14431577Y7987625D02*
Y7989235D01*
Y7952195D02*
Y7953805D01*
X14501497Y7788785D02*
Y7790395D01*
Y7753355D02*
Y7754965D01*
X14466957Y7753475D02*
Y7755085D01*
Y7788905D02*
Y7790515D01*
X14431857Y7754055D02*
Y7755665D01*
Y7789485D02*
Y7791095D01*
X14431247Y7675965D02*
Y7677575D01*
Y7711395D02*
Y7713005D01*
X14432417Y7832535D02*
Y7834145D01*
Y7867965D02*
Y7869575D01*
X14470707Y8031635D02*
Y8033245D01*
Y8067065D02*
Y8068675D01*
X14431907Y8031695D02*
Y8033305D01*
Y8067125D02*
Y8068735D01*
G54D12*
X14514237Y8068240D02*
X14516197D01*
X14514237Y8010760D02*
X14516197D01*
G54D11*
X14431092Y8110020D02*
X14432702D01*
X14466522D02*
X14468132D01*
G54D13*
X14209707Y8069335D02*
Y8090985D01*
X14159707Y8069335D02*
Y8090985D01*
X14109707Y8069335D02*
Y8090985D01*
X14059707Y8069335D02*
Y8090985D01*
Y7682315D02*
Y7703965D01*
X14109707Y7682315D02*
Y7703965D01*
X14159707Y7682315D02*
Y7703965D01*
X14209707Y7682315D02*
Y7703965D01*
G54D14*
X14677657Y8065605D02*
Y8101035D01*
X14678017Y7868865D02*
Y7904295D01*
X14677967Y7672045D02*
Y7707475D01*
G54D15*
X14427217Y8152400D03*
X14553202Y8152405D03*
G54D16*
X14433154Y8158329D03*
X14547301Y8158316D03*
G54D15*
X14427217Y7620910D03*
X14553202Y7620905D03*
G54D16*
X14433124Y7614996D03*
X14547306Y7615011D03*
G54D10*
X14550507Y8471281D02*
Y8474441D01*
Y8524821D02*
Y8527981D01*
X14572247Y8797541D02*
Y8800700D01*
Y8743991D02*
Y8747150D01*
G54D11*
X14431577Y8723846D02*
Y8725456D01*
Y8688416D02*
Y8690026D01*
X14501497Y8525006D02*
Y8526616D01*
Y8489576D02*
Y8491186D01*
X14466957Y8489696D02*
Y8491306D01*
Y8525126D02*
Y8526736D01*
X14431857Y8490276D02*
Y8491886D01*
Y8525706D02*
Y8527316D01*
X14431247Y8412186D02*
Y8413796D01*
Y8447616D02*
Y8449226D01*
X14432417Y8568756D02*
Y8570366D01*
Y8604186D02*
Y8605796D01*
X14470707Y8767856D02*
Y8769466D01*
Y8803286D02*
Y8804896D01*
X14431907Y8767916D02*
Y8769526D01*
Y8803346D02*
Y8804956D01*
G54D12*
X14514237Y8804461D02*
X14516197D01*
X14514237Y8746981D02*
X14516197D01*
G54D11*
X14431092Y8846241D02*
X14432702D01*
X14466522D02*
X14468132D01*
G54D13*
X14209707Y8805556D02*
Y8827206D01*
X14159707Y8805556D02*
Y8827206D01*
X14109707Y8805556D02*
Y8827206D01*
X14059707Y8805556D02*
Y8827206D01*
Y8418536D02*
Y8440186D01*
X14109707Y8418536D02*
Y8440186D01*
X14159707Y8418536D02*
Y8440186D01*
X14209707Y8418536D02*
Y8440186D01*
G54D14*
X14677657Y8801826D02*
Y8837256D01*
X14678017Y8605086D02*
Y8640516D01*
X14677967Y8408266D02*
Y8443696D01*
G54D15*
X14427217Y8888621D03*
X14553202Y8888625D03*
G54D16*
X14433154Y8894549D03*
X14547301Y8894537D03*
G54D15*
X14427217Y8357131D03*
X14553202Y8357126D03*
G54D16*
X14433124Y8351217D03*
X14547306Y8351231D03*
G54D17*
X7075644Y4280425D03*
X14902416Y4280442D03*
Y8351388D03*
X7075644Y4280425D03*
X14902416Y4280442D03*
Y8351388D03*
G54D18*
X7078435Y6413284D03*
G54D18*
Y6290562D03*
G54D19*
X8024459Y3866968D02*
G03X8083519Y3926018I0J59060D01*
G01Y4056558D01*
G03X8066859Y4076008I-19687J-3D01*
G02X8066859Y4138248I4850J31120D01*
G03X8083519Y4157698I-3027J19453D01*
G01Y4253408D01*
G03X8066859Y4272858I-19687J-3D01*
G02X8066859Y4335098I4850J31120D01*
G03X8083519Y4354548I-3027J19453D01*
G01Y4485078D01*
G03X8024459Y4544138I-59060J0D01*
G01X7992671D01*
X7292179D02*
G03X7233119Y4485078I0J-59060D01*
G01Y3926018D01*
G03X7292179Y3866968I59055J5D01*
G01X7323971D01*
X7750049D02*
G03X7757929Y3874838I5J7875D01*
G01Y3939798D01*
G02X7765799Y3947678I7870J10D01*
G01X7891779D01*
G02X7899659Y3939798I5J-7875D01*
G01Y3874838D01*
G03X7907529Y3866968I7870J0D01*
G01X7933616D01*
X8024459Y4603188D02*
G03X8083519Y4662238I0J59060D01*
G01Y4792778D01*
G03X8066859Y4812228I-19687J-3D01*
G02X8066859Y4874468I4850J31120D01*
G03X8083519Y4893918I-3027J19453D01*
G01Y4989628D01*
G03X8066859Y5009078I-19687J-3D01*
G02X8066859Y5071318I4850J31120D01*
G03X8083519Y5090768I-3027J19453D01*
G01Y5221298D01*
G03X8024459Y5280358I-59060J0D01*
G01X7992671D01*
X7292179D02*
G03X7233119Y5221298I0J-59060D01*
G01Y4662238D01*
G03X7292179Y4603188I59055J5D01*
G01X7323971D01*
X8024459Y5339409D02*
G03X8083519Y5398459I0J59060D01*
G01Y5528999D01*
G03X8066859Y5548449I-19687J-3D01*
G02X8066859Y5610689I4850J31120D01*
G03X8083519Y5630139I-3027J19453D01*
G01Y5725849D01*
G03X8066859Y5745299I-19687J-3D01*
G02X8066859Y5807539I4850J31120D01*
G03X8083519Y5826989I-3027J19453D01*
G01Y5957519D01*
G03X8024459Y6016579I-59060J0D01*
G01X7992671D01*
X7292179D02*
G03X7233119Y5957519I0J-59060D01*
G01Y5398459D01*
G03X7292179Y5339409I59055J5D01*
G01X7323971D01*
X8024459Y6075629D02*
G03X8083519Y6134679I0J59060D01*
G01Y6265219D01*
G03X8066859Y6284669I-19687J-3D01*
G02X8066859Y6346909I4850J31120D01*
G03X8083519Y6366359I-3027J19453D01*
G01Y6462069D01*
G03X8066859Y6481519I-19687J-3D01*
G02X8066859Y6543759I4850J31120D01*
G03X8083519Y6563209I-3027J19453D01*
G01Y6693739D01*
G03X8024459Y6752799I-59060J0D01*
G01X7992671D01*
X7292179D02*
G03X7233119Y6693739I0J-59060D01*
G01Y6134679D01*
G03X7292179Y6075629I59055J5D01*
G01X7323971D01*
X8024459Y6811850D02*
G03X8083519Y6870900I0J59060D01*
G01Y7001440D01*
G03X8066859Y7020890I-19687J-3D01*
G02X8066859Y7083130I4850J31120D01*
G03X8083519Y7102580I-3027J19453D01*
G01Y7198290D01*
G03X8066859Y7217740I-19687J-3D01*
G02X8066859Y7279980I4850J31120D01*
G03X8083519Y7299430I-3027J19453D01*
G01Y7429960D01*
G03X8024459Y7489020I-59060J0D01*
G01X7992671D01*
X7292179D02*
G03X7233119Y7429960I0J-59060D01*
G01Y6870900D01*
G03X7292179Y6811850I59055J5D01*
G01X7323971D01*
X8024459Y7548070D02*
G03X8083519Y7607120I0J59060D01*
G01Y7737660D01*
G03X8066859Y7757110I-19687J-3D01*
G02X8066859Y7819350I4850J31120D01*
G03X8083519Y7838800I-3027J19453D01*
G01Y7934510D01*
G03X8066859Y7953960I-19687J-3D01*
G02X8066859Y8016200I4850J31120D01*
G03X8083519Y8035650I-3027J19453D01*
G01Y8166180D01*
G03X8024459Y8225240I-59060J0D01*
G01X7992671D01*
X7907529D02*
G03X7899659Y8217360I0J-7870D01*
G01Y8152400D01*
G02X7891779Y8144530I-7875J5D01*
G01X7765799D01*
G02X7757929Y8152400I-0J7870D01*
G01Y8217360D01*
G03X7750049Y8225240I-7875J5D01*
G01X7383026D01*
X7292179D02*
G03X7233119Y8166180I0J-59060D01*
G01Y7607120D01*
G03X7292179Y7548070I59055J5D01*
G01X7323971D01*
X8024459Y8284291D02*
G03X8083519Y8343341I0J59060D01*
G01Y8473881D01*
G03X8066859Y8493331I-19687J-3D01*
G02X8066859Y8555571I4850J31120D01*
G03X8083519Y8575021I-3027J19453D01*
G01Y8670731D01*
G03X8066859Y8690181I-19687J-3D01*
G02X8066859Y8752421I4850J31120D01*
G03X8083519Y8771871I-3027J19453D01*
G01Y8902401D01*
G03X8024459Y8961461I-59060J0D01*
G01X7992671D01*
X7907529D02*
G03X7899659Y8953581I0J-7870D01*
G01Y8888621D01*
G02X7891779Y8880751I-7875J5D01*
G01X7765799D01*
G02X7757929Y8888621I-0J7870D01*
G01Y8953581D01*
G03X7750049Y8961461I-7875J5D01*
G01X7383026D01*
X7292179D02*
G03X7233119Y8902401I0J-59060D01*
G01Y8343341D01*
G03X7292179Y8284291I59055J5D01*
G01X7323971D01*
X7750049D02*
G03X7757929Y8292161I5J7875D01*
G01Y8357121D01*
G02X7765799Y8365001I7870J10D01*
G01X7891779D01*
G02X7899659Y8357121I5J-7875D01*
G01Y8292161D01*
G03X7907529Y8284291I7870J0D01*
G01X7933616D01*
X8201628Y4544138D02*
G03X8142568Y4485078I0J-59060D01*
G01Y3926018D01*
G03X8201628Y3866968I59055J5D01*
G01X8233419D01*
X8201628Y5280358D02*
G03X8142568Y5221298I0J-59060D01*
G01Y4662238D01*
G03X8201628Y4603188I59055J5D01*
G01X8233419D01*
X8201628Y6016579D02*
G03X8142568Y5957519I0J-59060D01*
G01Y5398459D01*
G03X8201628Y5339409I59055J5D01*
G01X8233419D01*
X8201628Y6752799D02*
G03X8142568Y6693739I0J-59060D01*
G01Y6134679D01*
G03X8201628Y6075629I59055J5D01*
G01X8233419D01*
X8201628Y7489020D02*
G03X8142568Y7429960I0J-59060D01*
G01Y6870900D01*
G03X8201628Y6811850I59055J5D01*
G01X8233419D01*
X8201628Y8225240D02*
G03X8142568Y8166180I0J-59060D01*
G01Y7607120D01*
G03X8201628Y7548070I59055J5D01*
G01X8233419D01*
X8201628Y8961461D02*
G03X8142568Y8902401I0J-59060D01*
G01Y8343341D01*
G03X8201628Y8284291I59055J5D01*
G01X8233419D01*
X10752806Y3866968D02*
G03X10811866Y3926018I0J59060D01*
G01Y4056558D01*
G03X10795206Y4076008I-19687J-3D01*
G02X10795206Y4138248I4850J31120D01*
G03X10811866Y4157698I-3027J19453D01*
G01Y4253408D01*
G03X10795206Y4272858I-19687J-3D01*
G02X10795206Y4335098I4850J31120D01*
G03X10811866Y4354548I-3027J19453D01*
G01Y4485078D01*
G03X10752806Y4544138I-59060J0D01*
G01X10721018D01*
X10752806Y4603188D02*
G03X10811866Y4662238I0J59060D01*
G01Y4792778D01*
G03X10795206Y4812228I-19687J-3D01*
G02X10795206Y4874468I4850J31120D01*
G03X10811866Y4893918I-3027J19453D01*
G01Y4989628D01*
G03X10795206Y5009078I-19687J-3D01*
G02X10795206Y5071318I4850J31120D01*
G03X10811866Y5090768I-3027J19453D01*
G01Y5221298D01*
G03X10752806Y5280358I-59060J0D01*
G01X10721018D01*
X10752806Y5339409D02*
G03X10811866Y5398459I0J59060D01*
G01Y5528999D01*
G03X10795206Y5548449I-19687J-3D01*
G02X10795206Y5610689I4850J31120D01*
G03X10811866Y5630139I-3027J19453D01*
G01Y5725849D01*
G03X10795206Y5745299I-19687J-3D01*
G02X10795206Y5807539I4850J31120D01*
G03X10811866Y5826989I-3027J19453D01*
G01Y5957519D01*
G03X10752806Y6016579I-59060J0D01*
G01X10721018D01*
X10752806Y6075629D02*
G03X10811866Y6134679I0J59060D01*
G01Y6265219D01*
G03X10795206Y6284669I-19687J-3D01*
G02X10795206Y6346909I4850J31120D01*
G03X10811866Y6366359I-3027J19453D01*
G01Y6462069D01*
G03X10795206Y6481519I-19687J-3D01*
G02X10795206Y6543759I4850J31120D01*
G03X10811866Y6563209I-3027J19453D01*
G01Y6693739D01*
G03X10752806Y6752799I-59060J0D01*
G01X10721018D01*
X10752806Y6811850D02*
G03X10811866Y6870900I0J59060D01*
G01Y7001440D01*
G03X10795206Y7020890I-19687J-3D01*
G02X10795206Y7083130I4850J31120D01*
G03X10811866Y7102580I-3027J19453D01*
G01Y7198290D01*
G03X10795206Y7217740I-19687J-3D01*
G02X10795206Y7279980I4850J31120D01*
G03X10811866Y7299430I-3027J19453D01*
G01Y7429960D01*
G03X10752806Y7489020I-59060J0D01*
G01X10721018D01*
X10752806Y7548070D02*
G03X10811866Y7607120I0J59060D01*
G01Y7737660D01*
G03X10795206Y7757110I-19687J-3D01*
G02X10795206Y7819350I4850J31120D01*
G03X10811866Y7838800I-3027J19453D01*
G01Y7934510D01*
G03X10795206Y7953960I-19687J-3D01*
G02X10795206Y8016200I4850J31120D01*
G03X10811866Y8035650I-3027J19453D01*
G01Y8166180D01*
G03X10752806Y8225240I-59060J0D01*
G01X10721018D01*
X10752806Y8284291D02*
G03X10811866Y8343341I0J59060D01*
G01Y8473881D01*
G03X10795206Y8493331I-19687J-3D01*
G02X10795206Y8555571I4850J31120D01*
G03X10811866Y8575021I-3027J19453D01*
G01Y8670731D01*
G03X10795206Y8690181I-19687J-3D01*
G02X10795206Y8752421I4850J31120D01*
G03X10811866Y8771871I-3027J19453D01*
G01Y8902401D01*
G03X10752806Y8961461I-59060J0D01*
G01X10721018D01*
X15000841Y8649445D02*
Y8055407D01*
X7174069Y9020511D02*
X7323971D01*
X7174069Y3807913D02*
X7323971D01*
X7174069D02*
Y9020511D01*
X7016589Y9138621D02*
X14961471D01*
X7016589Y3689805D02*
X14961471Y3689802D01*
X6977219Y3729175D02*
Y9099251D01*
X15000841Y3729172D02*
Y9099251D01*
X7992671Y3807916D02*
X8138975D01*
X6977219Y3911331D02*
Y4151357D01*
Y4915056D02*
Y4499300D01*
X7174069Y4915056D02*
Y4499300D01*
X10870919Y9020511D02*
Y3807913D01*
X7992671Y8961456D02*
Y9020511D01*
X7933616Y8961456D02*
Y9020511D01*
X7323971Y8961456D02*
Y9020511D01*
X7383026Y8961456D02*
Y9020511D01*
X8233419Y8961456D02*
Y9020511D01*
X10721018Y8961456D02*
Y9020511D01*
X7992671Y8225236D02*
Y8284291D01*
X7933616Y8225236D02*
Y8284291D01*
X7323971Y8225236D02*
Y8284291D01*
X7383026Y8225236D02*
Y8284291D01*
X8233419Y8225236D02*
Y8284291D01*
X10721018Y8225236D02*
Y8284291D01*
X7992671Y7489015D02*
Y7548070D01*
X7323971Y7489015D02*
Y7548070D01*
X8233419Y7489015D02*
Y7548070D01*
X10721018Y7489015D02*
Y7548070D01*
X7992671Y6752795D02*
Y6811850D01*
X7323971Y6752795D02*
Y6811850D01*
X8233419Y6752795D02*
Y6811850D01*
X10721018Y6752795D02*
Y6811850D01*
X7992671Y6016574D02*
Y6075629D01*
X7323971Y6016574D02*
Y6075629D01*
X8233419Y6016574D02*
Y6075629D01*
X10721018Y6016574D02*
Y6075629D01*
X7992671Y5280354D02*
Y5339409D01*
X7323971Y5280354D02*
Y5339409D01*
X8233419Y5280354D02*
Y5339409D01*
X10721018Y5280354D02*
Y5339409D01*
X7992671Y4544133D02*
Y4603188D01*
X7323971Y4544133D02*
Y4603188D01*
X8233419Y4544133D02*
Y4603188D01*
X10721018Y4544133D02*
Y4603188D01*
X7992671Y3866968D02*
Y3807913D01*
X7933616Y3866968D02*
Y3807913D01*
X7323971Y3866968D02*
Y3807913D01*
X7383026Y3866968D02*
Y3807913D01*
X8233419Y3866968D02*
Y3807913D01*
X10721018Y3866968D02*
Y3807913D01*
X7016589Y9138621D02*
G03X6977219Y9099251I0J-39370D01*
X14961471Y9138621D02*
G02X15000841Y9099251I0J-39370D01*
Y3729172D02*
G02X14961471Y3689802I-39370J0D01*
X6977219Y3729175D02*
G03X7016589Y3689805I39370J0D01*
X7383026Y9020511D02*
G01X7933616D01*
X7992671D02*
X8233419D01*
X10721018D02*
X10870919D01*
X10721018Y3807913D02*
X10870919D01*
X7992671D02*
X8233419D01*
X7383026D02*
X7933616D01*
X7323971Y8961461D02*
X7292179D01*
X7383026Y8284291D02*
X7750049D01*
X7323971Y8225240D02*
X7292179D01*
X7933616Y8961461D02*
X7907529D01*
X7992671Y8284291D02*
X8024459D01*
X7933616Y8225240D02*
X7907529D01*
X8233419Y8961461D02*
X8201628D01*
X8233419Y8225240D02*
X8201628D01*
X7323971Y7489020D02*
X7292179D01*
X7992671Y7548070D02*
X8024459D01*
X8233419Y7489020D02*
X8201628D01*
X7323971Y6752799D02*
X7292179D01*
X7992671Y6811850D02*
X8024459D01*
X8233419Y6752799D02*
X8201628D01*
X7323971Y6016579D02*
X7292179D01*
X7992671Y6075629D02*
X8024459D01*
X8233419Y6016579D02*
X8201628D01*
X7323971Y5280358D02*
X7292179D01*
X7992671Y5339409D02*
X8024459D01*
X8233419Y5280358D02*
X8201628D01*
X7323971Y4544138D02*
X7292179D01*
X7992671Y4603188D02*
X8024459D01*
X8233419Y4544138D02*
X8201628D01*
X7383026Y3866968D02*
X7750049D01*
X7992671D02*
X8024459D01*
X10721018Y8284291D02*
X10752806D01*
X10721018Y7548070D02*
X10752806D01*
X10721018Y6811850D02*
X10752806D01*
X10721018Y6075629D02*
X10752806D01*
X10721018Y5339409D02*
X10752806D01*
X10721018Y4603188D02*
X10752806D01*
X10721018Y3866968D02*
X10752806D01*
X8933908D02*
G03X8992968Y3926018I0J59060D01*
G01Y4056558D01*
G03X8976308Y4076008I-19687J-3D01*
G02X8976308Y4138248I4850J31120D01*
G03X8992968Y4157698I-3027J19453D01*
G01Y4253408D01*
G03X8976308Y4272858I-19687J-3D01*
G02X8976308Y4335098I4850J31120D01*
G03X8992968Y4354548I-3027J19453D01*
G01Y4485078D01*
G03X8933908Y4544138I-59060J0D01*
G01X8902120D01*
X8933908Y4603188D02*
G03X8992968Y4662238I0J59060D01*
G01Y4792778D01*
G03X8976308Y4812228I-19687J-3D01*
G02X8976308Y4874468I4850J31120D01*
G03X8992968Y4893918I-3027J19453D01*
G01Y4989628D01*
G03X8976308Y5009078I-19687J-3D01*
G02X8976308Y5071318I4850J31120D01*
G03X8992968Y5090768I-3027J19453D01*
G01Y5221298D01*
G03X8933908Y5280358I-59060J0D01*
G01X8902120D01*
X8933908Y5339409D02*
G03X8992968Y5398459I0J59060D01*
G01Y5528999D01*
G03X8976308Y5548449I-19687J-3D01*
G02X8976308Y5610689I4850J31120D01*
G03X8992968Y5630139I-3027J19453D01*
G01Y5725849D01*
G03X8976308Y5745299I-19687J-3D01*
G02X8976308Y5807539I4850J31120D01*
G03X8992968Y5826989I-3027J19453D01*
G01Y5957519D01*
G03X8933908Y6016579I-59060J0D01*
G01X8902120D01*
X8933908Y6075629D02*
G03X8992968Y6134679I0J59060D01*
G01Y6265219D01*
G03X8976308Y6284669I-19687J-3D01*
G02X8976308Y6346909I4850J31120D01*
G03X8992968Y6366359I-3027J19453D01*
G01Y6462069D01*
G03X8976308Y6481519I-19687J-3D01*
G02X8976308Y6543759I4850J31120D01*
G03X8992968Y6563209I-3027J19453D01*
G01Y6693739D01*
G03X8933908Y6752799I-59060J0D01*
G01X8902120D01*
X8933908Y6811850D02*
G03X8992968Y6870900I0J59060D01*
G01Y7001440D01*
G03X8976308Y7020890I-19687J-3D01*
G02X8976308Y7083130I4850J31120D01*
G03X8992968Y7102580I-3027J19453D01*
G01Y7198290D01*
G03X8976308Y7217740I-19687J-3D01*
G02X8976308Y7279980I4850J31120D01*
G03X8992968Y7299430I-3027J19453D01*
G01Y7429960D01*
G03X8933908Y7489020I-59060J0D01*
G01X8902120D01*
X8933908Y7548070D02*
G03X8992968Y7607120I0J59060D01*
G01Y7737660D01*
G03X8976308Y7757110I-19687J-3D01*
G02X8976308Y7819350I4850J31120D01*
G03X8992968Y7838800I-3027J19453D01*
G01Y7934510D01*
G03X8976308Y7953960I-19687J-3D01*
G02X8976308Y8016200I4850J31120D01*
G03X8992968Y8035650I-3027J19453D01*
G01Y8166180D01*
G03X8933908Y8225240I-59060J0D01*
G01X8902120D01*
X8933908Y8284291D02*
G03X8992968Y8343341I0J59060D01*
G01Y8473881D01*
G03X8976308Y8493331I-19687J-3D01*
G02X8976308Y8555571I4850J31120D01*
G03X8992968Y8575021I-3027J19453D01*
G01Y8670731D01*
G03X8976308Y8690181I-19687J-3D01*
G02X8976308Y8752421I4850J31120D01*
G03X8992968Y8771871I-3027J19453D01*
G01Y8902401D01*
G03X8933908Y8961461I-59060J0D01*
G01X8902120D01*
X8816978D02*
G03X8809108Y8953581I0J-7870D01*
G01Y8888621D01*
G02X8801228Y8880751I-7875J5D01*
G01X8675248D01*
G02X8667378Y8888621I-0J7870D01*
G01Y8953581D01*
G03X8659498Y8961461I-7875J5D01*
G01X8292475D01*
X9111077Y4544138D02*
G03X9052017Y4485078I0J-59060D01*
G01Y3926018D01*
G03X9111077Y3866968I59055J5D01*
G01X9142868D01*
X9111077Y5280358D02*
G03X9052017Y5221298I0J-59060D01*
G01Y4662238D01*
G03X9111077Y4603188I59055J5D01*
G01X9142868D01*
X9111077Y6016579D02*
G03X9052017Y5957519I0J-59060D01*
G01Y5398459D01*
G03X9111077Y5339409I59055J5D01*
G01X9142868D01*
X9111077Y6752799D02*
G03X9052017Y6693739I0J-59060D01*
G01Y6134679D01*
G03X9111077Y6075629I59055J5D01*
G01X9142868D01*
X9111077Y7489020D02*
G03X9052017Y7429960I0J-59060D01*
G01Y6870900D01*
G03X9111077Y6811850I59055J5D01*
G01X9142868D01*
X9111077Y8225240D02*
G03X9052017Y8166180I0J-59060D01*
G01Y7607120D01*
G03X9111077Y7548070I59055J5D01*
G01X9142868D01*
X9111077Y8961461D02*
G03X9052017Y8902401I0J-59060D01*
G01Y8343341D01*
G03X9111077Y8284291I59055J5D01*
G01X9142868D01*
X8902120Y3807916D02*
X9048423D01*
X8902120Y8961456D02*
Y9020511D01*
X8843065Y8961456D02*
Y9020511D01*
X8292475Y8961456D02*
Y9020511D01*
X9142868Y8961456D02*
Y9020511D01*
X8902120Y8225236D02*
Y8284291D01*
X9142868Y8225236D02*
Y8284291D01*
X8902120Y7489015D02*
Y7548070D01*
X9142868Y7489015D02*
Y7548070D01*
X8902120Y6752795D02*
Y6811850D01*
X9142868Y6752795D02*
Y6811850D01*
X8902120Y6016574D02*
Y6075629D01*
X9142868Y6016574D02*
Y6075629D01*
X8902120Y5280354D02*
Y5339409D01*
X9142868Y5280354D02*
Y5339409D01*
X8902120Y4544133D02*
Y4603188D01*
X9142868Y4544133D02*
Y4603188D01*
X8902120Y3866968D02*
Y3807913D01*
X9142868Y3866968D02*
Y3807913D01*
X8292475Y9020511D02*
X8843065D01*
X8902120D02*
X9142868D01*
X8902120Y3807913D02*
X9142868D01*
X8843065Y8961461D02*
X8816978D01*
X8902120Y8284291D02*
X8933908D01*
X9142868Y8961461D02*
X9111077D01*
X9142868Y8225240D02*
X9111077D01*
X8902120Y7548070D02*
X8933908D01*
X9142868Y7489020D02*
X9111077D01*
X8902120Y6811850D02*
X8933908D01*
X9142868Y6752799D02*
X9111077D01*
X8902120Y6075629D02*
X8933908D01*
X9142868Y6016579D02*
X9111077D01*
X8902120Y5339409D02*
X8933908D01*
X9142868Y5280358D02*
X9111077D01*
X8902120Y4603188D02*
X8933908D01*
X9142868Y4544138D02*
X9111077D01*
X8902120Y3866968D02*
X8933908D01*
X9843357D02*
G03X9902417Y3926018I0J59060D01*
G01Y4056558D01*
G03X9885757Y4076008I-19687J-3D01*
G02X9885757Y4138248I4850J31120D01*
G03X9902417Y4157698I-3027J19453D01*
G01Y4253408D01*
G03X9885757Y4272858I-19687J-3D01*
G02X9885757Y4335098I4850J31120D01*
G03X9902417Y4354548I-3027J19453D01*
G01Y4485078D01*
G03X9843357Y4544138I-59060J0D01*
G01X9811569D01*
X9843357Y4603188D02*
G03X9902417Y4662238I0J59060D01*
G01Y4792778D01*
G03X9885757Y4812228I-19687J-3D01*
G02X9885757Y4874468I4850J31120D01*
G03X9902417Y4893918I-3027J19453D01*
G01Y4989628D01*
G03X9885757Y5009078I-19687J-3D01*
G02X9885757Y5071318I4850J31120D01*
G03X9902417Y5090768I-3027J19453D01*
G01Y5221298D01*
G03X9843357Y5280358I-59060J0D01*
G01X9811569D01*
X9843357Y5339409D02*
G03X9902417Y5398459I0J59060D01*
G01Y5528999D01*
G03X9885757Y5548449I-19687J-3D01*
G02X9885757Y5610689I4850J31120D01*
G03X9902417Y5630139I-3027J19453D01*
G01Y5725849D01*
G03X9885757Y5745299I-19687J-3D01*
G02X9885757Y5807539I4850J31120D01*
G03X9902417Y5826989I-3027J19453D01*
G01Y5957519D01*
G03X9843357Y6016579I-59060J0D01*
G01X9811569D01*
X9843357Y6075629D02*
G03X9902417Y6134679I0J59060D01*
G01Y6265219D01*
G03X9885757Y6284669I-19687J-3D01*
G02X9885757Y6346909I4850J31120D01*
G03X9902417Y6366359I-3027J19453D01*
G01Y6462069D01*
G03X9885757Y6481519I-19687J-3D01*
G02X9885757Y6543759I4850J31120D01*
G03X9902417Y6563209I-3027J19453D01*
G01Y6693739D01*
G03X9843357Y6752799I-59060J0D01*
G01X9811569D01*
X9843357Y6811850D02*
G03X9902417Y6870900I0J59060D01*
G01Y7001440D01*
G03X9885757Y7020890I-19687J-3D01*
G02X9885757Y7083130I4850J31120D01*
G03X9902417Y7102580I-3027J19453D01*
G01Y7198290D01*
G03X9885757Y7217740I-19687J-3D01*
G02X9885757Y7279980I4850J31120D01*
G03X9902417Y7299430I-3027J19453D01*
G01Y7429960D01*
G03X9843357Y7489020I-59060J0D01*
G01X9811569D01*
X9843357Y7548070D02*
G03X9902417Y7607120I0J59060D01*
G01Y7737660D01*
G03X9885757Y7757110I-19687J-3D01*
G02X9885757Y7819350I4850J31120D01*
G03X9902417Y7838800I-3027J19453D01*
G01Y7934510D01*
G03X9885757Y7953960I-19687J-3D01*
G02X9885757Y8016200I4850J31120D01*
G03X9902417Y8035650I-3027J19453D01*
G01Y8166180D01*
G03X9843357Y8225240I-59060J0D01*
G01X9811569D01*
X9843357Y8284291D02*
G03X9902417Y8343341I0J59060D01*
G01Y8473881D01*
G03X9885757Y8493331I-19687J-3D01*
G02X9885757Y8555571I4850J31120D01*
G03X9902417Y8575021I-3027J19453D01*
G01Y8670731D01*
G03X9885757Y8690181I-19687J-3D01*
G02X9885757Y8752421I4850J31120D01*
G03X9902417Y8771871I-3027J19453D01*
G01Y8902401D01*
G03X9843357Y8961461I-59060J0D01*
G01X9811569D01*
X9726427D02*
G03X9718557Y8953581I0J-7870D01*
G01Y8888621D01*
G02X9710677Y8880751I-7875J5D01*
G01X9584697D01*
G02X9576827Y8888621I-0J7870D01*
G01Y8953581D01*
G03X9568947Y8961461I-7875J5D01*
G01X9201923D01*
X10020526Y4544138D02*
G03X9961466Y4485078I0J-59060D01*
G01Y3926018D01*
G03X10020526Y3866968I59055J5D01*
G01X10052317D01*
X10020526Y5280358D02*
G03X9961466Y5221298I0J-59060D01*
G01Y4662238D01*
G03X10020526Y4603188I59055J5D01*
G01X10052317D01*
X10020526Y6016579D02*
G03X9961466Y5957519I0J-59060D01*
G01Y5398459D01*
G03X10020526Y5339409I59055J5D01*
G01X10052317D01*
X10020526Y6752799D02*
G03X9961466Y6693739I0J-59060D01*
G01Y6134679D01*
G03X10020526Y6075629I59055J5D01*
G01X10052317D01*
X10020526Y7489020D02*
G03X9961466Y7429960I0J-59060D01*
G01Y6870900D01*
G03X10020526Y6811850I59055J5D01*
G01X10052317D01*
X10020526Y8225240D02*
G03X9961466Y8166180I0J-59060D01*
G01Y7607120D01*
G03X10020526Y7548070I59055J5D01*
G01X10052317D01*
X10020526Y8961461D02*
G03X9961466Y8902401I0J-59060D01*
G01Y8343341D01*
G03X10020526Y8284291I59055J5D01*
G01X10052317D01*
X9811569Y3807916D02*
X9957872D01*
X9811569Y8961456D02*
Y9020511D01*
X9752514Y8961456D02*
Y9020511D01*
X9201923Y8961456D02*
Y9020511D01*
X10052317Y8961456D02*
Y9020511D01*
X9811569Y8225236D02*
Y8284291D01*
X10052317Y8225236D02*
Y8284291D01*
X9811569Y7489015D02*
Y7548070D01*
X10052317Y7489015D02*
Y7548070D01*
X9811569Y6752795D02*
Y6811850D01*
X10052317Y6752795D02*
Y6811850D01*
X9811569Y6016574D02*
Y6075629D01*
X10052317Y6016574D02*
Y6075629D01*
X9811569Y5280354D02*
Y5339409D01*
X10052317Y5280354D02*
Y5339409D01*
X9811569Y4544133D02*
Y4603188D01*
X10052317Y4544133D02*
Y4603188D01*
X9811569Y3866968D02*
Y3807913D01*
X10052317Y3866968D02*
Y3807913D01*
X9201923Y9020511D02*
X9752514D01*
X9811569D02*
X10052317D01*
X9811569Y3807913D02*
X10052317D01*
X9752514Y8961461D02*
X9726427D01*
X9811569Y8284291D02*
X9843357D01*
X10052317Y8961461D02*
X10020526D01*
X10052317Y8225240D02*
X10020526D01*
X9811569Y7548070D02*
X9843357D01*
X10052317Y7489020D02*
X10020526D01*
X9811569Y6811850D02*
X9843357D01*
X10052317Y6752799D02*
X10020526D01*
X9811569Y6075629D02*
X9843357D01*
X10052317Y6016579D02*
X10020526D01*
X9811569Y5339409D02*
X9843357D01*
X10052317Y5280358D02*
X10020526D01*
X9811569Y4603188D02*
X9843357D01*
X10052317Y4544138D02*
X10020526D01*
X9811569Y3866968D02*
X9843357D01*
X10635876Y8961461D02*
G03X10628006Y8953581I0J-7870D01*
G01Y8888621D01*
G02X10620126Y8880751I-7875J5D01*
G01X10494146D01*
G02X10486276Y8888621I-0J7870D01*
G01Y8953581D01*
G03X10478396Y8961461I-7875J5D01*
G01X10111372D01*
X10661963Y8961456D02*
Y9020511D01*
X10111372Y8961456D02*
Y9020511D01*
X10661963D01*
Y8961461D02*
X10635876D01*
X8816978Y8225240D02*
G03X8809108Y8217360I0J-7870D01*
G01Y8152400D01*
G02X8801228Y8144530I-7875J5D01*
G01X8675248D01*
G02X8667378Y8152400I-0J7870D01*
G01Y8217360D01*
G03X8659498Y8225240I-7875J5D01*
G01X8292475D01*
X8659498Y8284291D02*
G03X8667378Y8292161I5J7875D01*
G01Y8357121D01*
G02X8675248Y8365001I7870J10D01*
G01X8801228D01*
G02X8809108Y8357121I5J-7875D01*
G01Y8292161D01*
G03X8816978Y8284291I7870J0D01*
G01X8843065D01*
Y8225236D02*
Y8284291D01*
X8292475Y8225236D02*
Y8284291D01*
X8659498D01*
X8843065Y8225240D02*
X8816978D01*
X9726427D02*
G03X9718557Y8217360I0J-7870D01*
G01Y8152400D01*
G02X9710677Y8144530I-7875J5D01*
G01X9584697D01*
G02X9576827Y8152400I-0J7870D01*
G01Y8217360D01*
G03X9568947Y8225240I-7875J5D01*
G01X9201923D01*
X9568947Y8284291D02*
G03X9576827Y8292161I5J7875D01*
G01Y8357121D01*
G02X9584697Y8365001I7870J10D01*
G01X9710677D01*
G02X9718557Y8357121I5J-7875D01*
G01Y8292161D01*
G03X9726427Y8284291I7870J0D01*
G01X9752514D01*
Y8225236D02*
Y8284291D01*
X9201923Y8225236D02*
Y8284291D01*
X9568947D01*
X9752514Y8225240D02*
X9726427D01*
X10635876D02*
G03X10628006Y8217360I0J-7870D01*
G01Y8152400D01*
G02X10620126Y8144530I-7875J5D01*
G01X10494146D01*
G02X10486276Y8152400I-0J7870D01*
G01Y8217360D01*
G03X10478396Y8225240I-7875J5D01*
G01X10111372D01*
X10478396Y8284291D02*
G03X10486276Y8292161I5J7875D01*
G01Y8357121D01*
G02X10494146Y8365001I7870J10D01*
G01X10620126D01*
G02X10628006Y8357121I5J-7875D01*
G01Y8292161D01*
G03X10635876Y8284291I7870J0D01*
G01X10661963D01*
Y8225236D02*
Y8284291D01*
X10111372Y8225236D02*
Y8284291D01*
X10478396D01*
X10661963Y8225240D02*
X10635876D01*
X7907529Y7489020D02*
G03X7899659Y7481140I0J-7870D01*
G01Y7416180D01*
G02X7891779Y7408310I-7875J5D01*
G01X7765799D01*
G02X7757929Y7416180I-0J7870D01*
G01Y7481140D01*
G03X7750049Y7489020I-7875J5D01*
G01X7383026D01*
X7750049Y7548070D02*
G03X7757929Y7555940I5J7875D01*
G01Y7620900D01*
G02X7765799Y7628780I7870J10D01*
G01X7891779D01*
G02X7899659Y7620900I5J-7875D01*
G01Y7555940D01*
G03X7907529Y7548070I7870J0D01*
G01X7933616D01*
Y7489015D02*
Y7548070D01*
X7383026Y7489015D02*
Y7548070D01*
X7750049D01*
X7933616Y7489020D02*
X7907529D01*
X8816978D02*
G03X8809108Y7481140I0J-7870D01*
G01Y7416180D01*
G02X8801228Y7408310I-7875J5D01*
G01X8675248D01*
G02X8667378Y7416180I-0J7870D01*
G01Y7481140D01*
G03X8659498Y7489020I-7875J5D01*
G01X8292475D01*
X8659498Y7548070D02*
G03X8667378Y7555940I5J7875D01*
G01Y7620900D01*
G02X8675248Y7628780I7870J10D01*
G01X8801228D01*
G02X8809108Y7620900I5J-7875D01*
G01Y7555940D01*
G03X8816978Y7548070I7870J0D01*
G01X8843065D01*
Y7489015D02*
Y7548070D01*
X8292475Y7489015D02*
Y7548070D01*
X8659498D01*
X8843065Y7489020D02*
X8816978D01*
X9726427D02*
G03X9718557Y7481140I0J-7870D01*
G01Y7416180D01*
G02X9710677Y7408310I-7875J5D01*
G01X9584697D01*
G02X9576827Y7416180I-0J7870D01*
G01Y7481140D01*
G03X9568947Y7489020I-7875J5D01*
G01X9201923D01*
X9568947Y7548070D02*
G03X9576827Y7555940I5J7875D01*
G01Y7620900D01*
G02X9584697Y7628780I7870J10D01*
G01X9710677D01*
G02X9718557Y7620900I5J-7875D01*
G01Y7555940D01*
G03X9726427Y7548070I7870J0D01*
G01X9752514D01*
Y7489015D02*
Y7548070D01*
X9201923Y7489015D02*
Y7548070D01*
X9568947D01*
X9752514Y7489020D02*
X9726427D01*
X10635876D02*
G03X10628006Y7481140I0J-7870D01*
G01Y7416180D01*
G02X10620126Y7408310I-7875J5D01*
G01X10494146D01*
G02X10486276Y7416180I-0J7870D01*
G01Y7481140D01*
G03X10478396Y7489020I-7875J5D01*
G01X10111372D01*
X10478396Y7548070D02*
G03X10486276Y7555940I5J7875D01*
G01Y7620900D01*
G02X10494146Y7628780I7870J10D01*
G01X10620126D01*
G02X10628006Y7620900I5J-7875D01*
G01Y7555940D01*
G03X10635876Y7548070I7870J0D01*
G01X10661963D01*
Y7489015D02*
Y7548070D01*
X10111372Y7489015D02*
Y7548070D01*
X10478396D01*
X10661963Y7489020D02*
X10635876D01*
X7907529Y6752799D02*
G03X7899659Y6744919I0J-7870D01*
G01Y6679959D01*
G02X7891779Y6672089I-7875J5D01*
G01X7765799D01*
G02X7757929Y6679959I-0J7870D01*
G01Y6744919D01*
G03X7750049Y6752799I-7875J5D01*
G01X7383026D01*
X7750049Y6811850D02*
G03X7757929Y6819720I5J7875D01*
G01Y6884680D01*
G02X7765799Y6892560I7870J10D01*
G01X7891779D01*
G02X7899659Y6884680I5J-7875D01*
G01Y6819720D01*
G03X7907529Y6811850I7870J0D01*
G01X7933616D01*
Y6752795D02*
Y6811850D01*
X7383026Y6752795D02*
Y6811850D01*
X7750049D01*
X7933616Y6752799D02*
X7907529D01*
X8816978D02*
G03X8809108Y6744919I0J-7870D01*
G01Y6679959D01*
G02X8801228Y6672089I-7875J5D01*
G01X8675248D01*
G02X8667378Y6679959I-0J7870D01*
G01Y6744919D01*
G03X8659498Y6752799I-7875J5D01*
G01X8292475D01*
X8659498Y6811850D02*
G03X8667378Y6819720I5J7875D01*
G01Y6884680D01*
G02X8675248Y6892560I7870J10D01*
G01X8801228D01*
G02X8809108Y6884680I5J-7875D01*
G01Y6819720D01*
G03X8816978Y6811850I7870J0D01*
G01X8843065D01*
Y6752795D02*
Y6811850D01*
X8292475Y6752795D02*
Y6811850D01*
X8659498D01*
X8843065Y6752799D02*
X8816978D01*
X9726427D02*
G03X9718557Y6744919I0J-7870D01*
G01Y6679959D01*
G02X9710677Y6672089I-7875J5D01*
G01X9584697D01*
G02X9576827Y6679959I-0J7870D01*
G01Y6744919D01*
G03X9568947Y6752799I-7875J5D01*
G01X9201923D01*
X9568947Y6811850D02*
G03X9576827Y6819720I5J7875D01*
G01Y6884680D01*
G02X9584697Y6892560I7870J10D01*
G01X9710677D01*
G02X9718557Y6884680I5J-7875D01*
G01Y6819720D01*
G03X9726427Y6811850I7870J0D01*
G01X9752514D01*
Y6752795D02*
Y6811850D01*
X9201923Y6752795D02*
Y6811850D01*
X9568947D01*
X9752514Y6752799D02*
X9726427D01*
X10635876D02*
G03X10628006Y6744919I0J-7870D01*
G01Y6679959D01*
G02X10620126Y6672089I-7875J5D01*
G01X10494146D01*
G02X10486276Y6679959I-0J7870D01*
G01Y6744919D01*
G03X10478396Y6752799I-7875J5D01*
G01X10111372D01*
X10478396Y6811850D02*
G03X10486276Y6819720I5J7875D01*
G01Y6884680D01*
G02X10494146Y6892560I7870J10D01*
G01X10620126D01*
G02X10628006Y6884680I5J-7875D01*
G01Y6819720D01*
G03X10635876Y6811850I7870J0D01*
G01X10661963D01*
Y6752795D02*
Y6811850D01*
X10111372Y6752795D02*
Y6811850D01*
X10478396D01*
X10661963Y6752799D02*
X10635876D01*
X7907529Y6016579D02*
G03X7899659Y6008699I0J-7870D01*
G01Y5943739D01*
G02X7891779Y5935869I-7875J5D01*
G01X7765799D01*
G02X7757929Y5943739I-0J7870D01*
G01Y6008699D01*
G03X7750049Y6016579I-7875J5D01*
G01X7383026D01*
X7750049Y6075629D02*
G03X7757929Y6083499I5J7875D01*
G01Y6148459D01*
G02X7765799Y6156339I7870J10D01*
G01X7891779D01*
G02X7899659Y6148459I5J-7875D01*
G01Y6083499D01*
G03X7907529Y6075629I7870J0D01*
G01X7933616D01*
Y6016574D02*
Y6075629D01*
X7383026Y6016574D02*
Y6075629D01*
X7750049D01*
X7933616Y6016579D02*
X7907529D01*
X8816978D02*
G03X8809108Y6008699I0J-7870D01*
G01Y5943739D01*
G02X8801228Y5935869I-7875J5D01*
G01X8675248D01*
G02X8667378Y5943739I-0J7870D01*
G01Y6008699D01*
G03X8659498Y6016579I-7875J5D01*
G01X8292475D01*
X8659498Y6075629D02*
G03X8667378Y6083499I5J7875D01*
G01Y6148459D01*
G02X8675248Y6156339I7870J10D01*
G01X8801228D01*
G02X8809108Y6148459I5J-7875D01*
G01Y6083499D01*
G03X8816978Y6075629I7870J0D01*
G01X8843065D01*
Y6016574D02*
Y6075629D01*
X8292475Y6016574D02*
Y6075629D01*
X8659498D01*
X8843065Y6016579D02*
X8816978D01*
X9726427D02*
G03X9718557Y6008699I0J-7870D01*
G01Y5943739D01*
G02X9710677Y5935869I-7875J5D01*
G01X9584697D01*
G02X9576827Y5943739I-0J7870D01*
G01Y6008699D01*
G03X9568947Y6016579I-7875J5D01*
G01X9201923D01*
X9568947Y6075629D02*
G03X9576827Y6083499I5J7875D01*
G01Y6148459D01*
G02X9584697Y6156339I7870J10D01*
G01X9710677D01*
G02X9718557Y6148459I5J-7875D01*
G01Y6083499D01*
G03X9726427Y6075629I7870J0D01*
G01X9752514D01*
Y6016574D02*
Y6075629D01*
X9201923Y6016574D02*
Y6075629D01*
X9568947D01*
X9752514Y6016579D02*
X9726427D01*
X10635876D02*
G03X10628006Y6008699I0J-7870D01*
G01Y5943739D01*
G02X10620126Y5935869I-7875J5D01*
G01X10494146D01*
G02X10486276Y5943739I-0J7870D01*
G01Y6008699D01*
G03X10478396Y6016579I-7875J5D01*
G01X10111372D01*
X10478396Y6075629D02*
G03X10486276Y6083499I5J7875D01*
G01Y6148459D01*
G02X10494146Y6156339I7870J10D01*
G01X10620126D01*
G02X10628006Y6148459I5J-7875D01*
G01Y6083499D01*
G03X10635876Y6075629I7870J0D01*
G01X10661963D01*
Y6016574D02*
Y6075629D01*
X10111372Y6016574D02*
Y6075629D01*
X10478396D01*
X10661963Y6016579D02*
X10635876D01*
X7907529Y5280358D02*
G03X7899659Y5272478I0J-7870D01*
G01Y5207518D01*
G02X7891779Y5199648I-7875J5D01*
G01X7765799D01*
G02X7757929Y5207518I-0J7870D01*
G01Y5272478D01*
G03X7750049Y5280358I-7875J5D01*
G01X7383026D01*
X7750049Y5339409D02*
G03X7757929Y5347279I5J7875D01*
G01Y5412239D01*
G02X7765799Y5420119I7870J10D01*
G01X7891779D01*
G02X7899659Y5412239I5J-7875D01*
G01Y5347279D01*
G03X7907529Y5339409I7870J0D01*
G01X7933616D01*
Y5280354D02*
Y5339409D01*
X7383026Y5280354D02*
Y5339409D01*
X7750049D01*
X7933616Y5280358D02*
X7907529D01*
X8816978D02*
G03X8809108Y5272478I0J-7870D01*
G01Y5207518D01*
G02X8801228Y5199648I-7875J5D01*
G01X8675248D01*
G02X8667378Y5207518I-0J7870D01*
G01Y5272478D01*
G03X8659498Y5280358I-7875J5D01*
G01X8292475D01*
X8659498Y5339409D02*
G03X8667378Y5347279I5J7875D01*
G01Y5412239D01*
G02X8675248Y5420119I7870J10D01*
G01X8801228D01*
G02X8809108Y5412239I5J-7875D01*
G01Y5347279D01*
G03X8816978Y5339409I7870J0D01*
G01X8843065D01*
Y5280354D02*
Y5339409D01*
X8292475Y5280354D02*
Y5339409D01*
X8659498D01*
X8843065Y5280358D02*
X8816978D01*
X9726427D02*
G03X9718557Y5272478I0J-7870D01*
G01Y5207518D01*
G02X9710677Y5199648I-7875J5D01*
G01X9584697D01*
G02X9576827Y5207518I-0J7870D01*
G01Y5272478D01*
G03X9568947Y5280358I-7875J5D01*
G01X9201923D01*
X9568947Y5339409D02*
G03X9576827Y5347279I5J7875D01*
G01Y5412239D01*
G02X9584697Y5420119I7870J10D01*
G01X9710677D01*
G02X9718557Y5412239I5J-7875D01*
G01Y5347279D01*
G03X9726427Y5339409I7870J0D01*
G01X9752514D01*
Y5280354D02*
Y5339409D01*
X9201923Y5280354D02*
Y5339409D01*
X9568947D01*
X9752514Y5280358D02*
X9726427D01*
X10635876D02*
G03X10628006Y5272478I0J-7870D01*
G01Y5207518D01*
G02X10620126Y5199648I-7875J5D01*
G01X10494146D01*
G02X10486276Y5207518I-0J7870D01*
G01Y5272478D01*
G03X10478396Y5280358I-7875J5D01*
G01X10111372D01*
X10478396Y5339409D02*
G03X10486276Y5347279I5J7875D01*
G01Y5412239D01*
G02X10494146Y5420119I7870J10D01*
G01X10620126D01*
G02X10628006Y5412239I5J-7875D01*
G01Y5347279D01*
G03X10635876Y5339409I7870J0D01*
G01X10661963D01*
Y5280354D02*
Y5339409D01*
X10111372Y5280354D02*
Y5339409D01*
X10478396D01*
X10661963Y5280358D02*
X10635876D01*
X7907529Y4544138D02*
G03X7899659Y4536258I0J-7870D01*
G01Y4471298D01*
G02X7891779Y4463428I-7875J5D01*
G01X7765799D01*
G02X7757929Y4471298I-0J7870D01*
G01Y4536258D01*
G03X7750049Y4544138I-7875J5D01*
G01X7383026D01*
X7750049Y4603188D02*
G03X7757929Y4611058I5J7875D01*
G01Y4676018D01*
G02X7765799Y4683898I7870J10D01*
G01X7891779D01*
G02X7899659Y4676018I5J-7875D01*
G01Y4611058D01*
G03X7907529Y4603188I7870J0D01*
G01X7933616D01*
Y4544133D02*
Y4603188D01*
X7383026Y4544133D02*
Y4603188D01*
X7750049D01*
X7933616Y4544138D02*
X7907529D01*
X8816978D02*
G03X8809108Y4536258I0J-7870D01*
G01Y4471298D01*
G02X8801228Y4463428I-7875J5D01*
G01X8675248D01*
G02X8667378Y4471298I-0J7870D01*
G01Y4536258D01*
G03X8659498Y4544138I-7875J5D01*
G01X8292475D01*
X8659498Y4603188D02*
G03X8667378Y4611058I5J7875D01*
G01Y4676018D01*
G02X8675248Y4683898I7870J10D01*
G01X8801228D01*
G02X8809108Y4676018I5J-7875D01*
G01Y4611058D01*
G03X8816978Y4603188I7870J0D01*
G01X8843065D01*
Y4544133D02*
Y4603188D01*
X8292475Y4544133D02*
Y4603188D01*
X8659498D01*
X8843065Y4544138D02*
X8816978D01*
X9726427D02*
G03X9718557Y4536258I0J-7870D01*
G01Y4471298D01*
G02X9710677Y4463428I-7875J5D01*
G01X9584697D01*
G02X9576827Y4471298I-0J7870D01*
G01Y4536258D01*
G03X9568947Y4544138I-7875J5D01*
G01X9201923D01*
X9568947Y4603188D02*
G03X9576827Y4611058I5J7875D01*
G01Y4676018D01*
G02X9584697Y4683898I7870J10D01*
G01X9710677D01*
G02X9718557Y4676018I5J-7875D01*
G01Y4611058D01*
G03X9726427Y4603188I7870J0D01*
G01X9752514D01*
Y4544133D02*
Y4603188D01*
X9201923Y4544133D02*
Y4603188D01*
X9568947D01*
X9752514Y4544138D02*
X9726427D01*
X10635876D02*
G03X10628006Y4536258I0J-7870D01*
G01Y4471298D01*
G02X10620126Y4463428I-7875J5D01*
G01X10494146D01*
G02X10486276Y4471298I-0J7870D01*
G01Y4536258D01*
G03X10478396Y4544138I-7875J5D01*
G01X10111372D01*
X10478396Y4603188D02*
G03X10486276Y4611058I5J7875D01*
G01Y4676018D01*
G02X10494146Y4683898I7870J10D01*
G01X10620126D01*
G02X10628006Y4676018I5J-7875D01*
G01Y4611058D01*
G03X10635876Y4603188I7870J0D01*
G01X10661963D01*
Y4544133D02*
Y4603188D01*
X10111372Y4544133D02*
Y4603188D01*
X10478396D01*
X10661963Y4544138D02*
X10635876D01*
X11957530Y3866968D02*
G03X12016590Y3926018I0J59060D01*
G01Y4056558D01*
G03X11999930Y4076008I-19687J-3D01*
G02X11999930Y4138248I4850J31120D01*
G03X12016590Y4157698I-3027J19453D01*
G01Y4253408D01*
G03X11999930Y4272858I-19687J-3D01*
G02X11999930Y4335098I4850J31120D01*
G03X12016590Y4354548I-3027J19453D01*
G01Y4485078D01*
G03X11957530Y4544138I-59060J0D01*
G01X11925742D01*
X11225250D02*
G03X11166190Y4485078I0J-59060D01*
G01Y3926018D01*
G03X11225250Y3866968I59055J5D01*
G01X11257042D01*
X11683120D02*
G03X11691000Y3874838I5J7875D01*
G01Y3939798D01*
G02X11698870Y3947678I7870J10D01*
G01X11824850D01*
G02X11832730Y3939798I5J-7875D01*
G01Y3874838D01*
G03X11840600Y3866968I7870J0D01*
G01X11866687D01*
X11957530Y4603188D02*
G03X12016590Y4662238I0J59060D01*
G01Y4792778D01*
G03X11999930Y4812228I-19687J-3D01*
G02X11999930Y4874468I4850J31120D01*
G03X12016590Y4893918I-3027J19453D01*
G01Y4989628D01*
G03X11999930Y5009078I-19687J-3D01*
G02X11999930Y5071318I4850J31120D01*
G03X12016590Y5090768I-3027J19453D01*
G01Y5221298D01*
G03X11957530Y5280358I-59060J0D01*
G01X11925742D01*
X11225250D02*
G03X11166190Y5221298I0J-59060D01*
G01Y4662238D01*
G03X11225250Y4603188I59055J5D01*
G01X11257042D01*
X11957530Y5339409D02*
G03X12016590Y5398459I0J59060D01*
G01Y5528999D01*
G03X11999930Y5548449I-19687J-3D01*
G02X11999930Y5610689I4850J31120D01*
G03X12016590Y5630139I-3027J19453D01*
G01Y5725849D01*
G03X11999930Y5745299I-19687J-3D01*
G02X11999930Y5807539I4850J31120D01*
G03X12016590Y5826989I-3027J19453D01*
G01Y5957519D01*
G03X11957530Y6016579I-59060J0D01*
G01X11925742D01*
X11225250D02*
G03X11166190Y5957519I0J-59060D01*
G01Y5398459D01*
G03X11225250Y5339409I59055J5D01*
G01X11257042D01*
X11957530Y6075629D02*
G03X12016590Y6134679I0J59060D01*
G01Y6265219D01*
G03X11999930Y6284669I-19687J-3D01*
G02X11999930Y6346909I4850J31120D01*
G03X12016590Y6366359I-3027J19453D01*
G01Y6462069D01*
G03X11999930Y6481519I-19687J-3D01*
G02X11999930Y6543759I4850J31120D01*
G03X12016590Y6563209I-3027J19453D01*
G01Y6693739D01*
G03X11957530Y6752799I-59060J0D01*
G01X11925742D01*
X11225250D02*
G03X11166190Y6693739I0J-59060D01*
G01Y6134679D01*
G03X11225250Y6075629I59055J5D01*
G01X11257042D01*
X11957530Y6811850D02*
G03X12016590Y6870900I0J59060D01*
G01Y7001440D01*
G03X11999930Y7020890I-19687J-3D01*
G02X11999930Y7083130I4850J31120D01*
G03X12016590Y7102580I-3027J19453D01*
G01Y7198290D01*
G03X11999930Y7217740I-19687J-3D01*
G02X11999930Y7279980I4850J31120D01*
G03X12016590Y7299430I-3027J19453D01*
G01Y7429960D01*
G03X11957530Y7489020I-59060J0D01*
G01X11925742D01*
X11225250D02*
G03X11166190Y7429960I0J-59060D01*
G01Y6870900D01*
G03X11225250Y6811850I59055J5D01*
G01X11257042D01*
X11957530Y7548070D02*
G03X12016590Y7607120I0J59060D01*
G01Y7737660D01*
G03X11999930Y7757110I-19687J-3D01*
G02X11999930Y7819350I4850J31120D01*
G03X12016590Y7838800I-3027J19453D01*
G01Y7934510D01*
G03X11999930Y7953960I-19687J-3D01*
G02X11999930Y8016200I4850J31120D01*
G03X12016590Y8035650I-3027J19453D01*
G01Y8166180D01*
G03X11957530Y8225240I-59060J0D01*
G01X11925742D01*
X11840600D02*
G03X11832730Y8217360I0J-7870D01*
G01Y8152400D01*
G02X11824850Y8144530I-7875J5D01*
G01X11698870D01*
G02X11691000Y8152400I-0J7870D01*
G01Y8217360D01*
G03X11683120Y8225240I-7875J5D01*
G01X11316097D01*
X11225250D02*
G03X11166190Y8166180I0J-59060D01*
G01Y7607120D01*
G03X11225250Y7548070I59055J5D01*
G01X11257042D01*
X11957530Y8284291D02*
G03X12016590Y8343341I0J59060D01*
G01Y8473881D01*
G03X11999930Y8493331I-19687J-3D01*
G02X11999930Y8555571I4850J31120D01*
G03X12016590Y8575021I-3027J19453D01*
G01Y8670731D01*
G03X11999930Y8690181I-19687J-3D01*
G02X11999930Y8752421I4850J31120D01*
G03X12016590Y8771871I-3027J19453D01*
G01Y8902401D01*
G03X11957530Y8961461I-59060J0D01*
G01X11925742D01*
X11840600D02*
G03X11832730Y8953581I0J-7870D01*
G01Y8888621D01*
G02X11824850Y8880751I-7875J5D01*
G01X11698870D01*
G02X11691000Y8888621I-0J7870D01*
G01Y8953581D01*
G03X11683120Y8961461I-7875J5D01*
G01X11316097D01*
X11225250D02*
G03X11166190Y8902401I0J-59060D01*
G01Y8343341D01*
G03X11225250Y8284291I59055J5D01*
G01X11257042D01*
X11683120D02*
G03X11691000Y8292161I5J7875D01*
G01Y8357121D01*
G02X11698870Y8365001I7870J10D01*
G01X11824850D01*
G02X11832730Y8357121I5J-7875D01*
G01Y8292161D01*
G03X11840600Y8284291I7870J0D01*
G01X11866687D01*
X12134699Y4544138D02*
G03X12075639Y4485078I0J-59060D01*
G01Y3926018D01*
G03X12134699Y3866968I59055J5D01*
G01X12166490D01*
X12134699Y5280358D02*
G03X12075639Y5221298I0J-59060D01*
G01Y4662238D01*
G03X12134699Y4603188I59055J5D01*
G01X12166490D01*
X12134699Y6016579D02*
G03X12075639Y5957519I0J-59060D01*
G01Y5398459D01*
G03X12134699Y5339409I59055J5D01*
G01X12166490D01*
X12134699Y6752799D02*
G03X12075639Y6693739I0J-59060D01*
G01Y6134679D01*
G03X12134699Y6075629I59055J5D01*
G01X12166490D01*
X12134699Y7489020D02*
G03X12075639Y7429960I0J-59060D01*
G01Y6870900D01*
G03X12134699Y6811850I59055J5D01*
G01X12166490D01*
X12134699Y8225240D02*
G03X12075639Y8166180I0J-59060D01*
G01Y7607120D01*
G03X12134699Y7548070I59055J5D01*
G01X12166490D01*
X12134699Y8961461D02*
G03X12075639Y8902401I0J-59060D01*
G01Y8343341D01*
G03X12134699Y8284291I59055J5D01*
G01X12166490D01*
X14685877Y3866968D02*
G03X14744937Y3926018I0J59060D01*
G01Y4056558D01*
G03X14728277Y4076008I-19687J-3D01*
G02X14728277Y4138248I4850J31120D01*
G03X14744937Y4157698I-3027J19453D01*
G01Y4253408D01*
G03X14728277Y4272858I-19687J-3D01*
G02X14728277Y4335098I4850J31120D01*
G03X14744937Y4354548I-3027J19453D01*
G01Y4485078D01*
G03X14685877Y4544138I-59060J0D01*
G01X14654089D01*
X14685877Y4603188D02*
G03X14744937Y4662238I0J59060D01*
G01Y4792778D01*
G03X14728277Y4812228I-19687J-3D01*
G02X14728277Y4874468I4850J31120D01*
G03X14744937Y4893918I-3027J19453D01*
G01Y4989628D01*
G03X14728277Y5009078I-19687J-3D01*
G02X14728277Y5071318I4850J31120D01*
G03X14744937Y5090768I-3027J19453D01*
G01Y5221298D01*
G03X14685877Y5280358I-59060J0D01*
G01X14654089D01*
X14685877Y5339409D02*
G03X14744937Y5398459I0J59060D01*
G01Y5528999D01*
G03X14728277Y5548449I-19687J-3D01*
G02X14728277Y5610689I4850J31120D01*
G03X14744937Y5630139I-3027J19453D01*
G01Y5725849D01*
G03X14728277Y5745299I-19687J-3D01*
G02X14728277Y5807539I4850J31120D01*
G03X14744937Y5826989I-3027J19453D01*
G01Y5957519D01*
G03X14685877Y6016579I-59060J0D01*
G01X14654089D01*
X14685877Y6075629D02*
G03X14744937Y6134679I0J59060D01*
G01Y6265219D01*
G03X14728277Y6284669I-19687J-3D01*
G02X14728277Y6346909I4850J31120D01*
G03X14744937Y6366359I-3027J19453D01*
G01Y6462069D01*
G03X14728277Y6481519I-19687J-3D01*
G02X14728277Y6543759I4850J31120D01*
G03X14744937Y6563209I-3027J19453D01*
G01Y6693739D01*
G03X14685877Y6752799I-59060J0D01*
G01X14654089D01*
X14685877Y6811850D02*
G03X14744937Y6870900I0J59060D01*
G01Y7001440D01*
G03X14728277Y7020890I-19687J-3D01*
G02X14728277Y7083130I4850J31120D01*
G03X14744937Y7102580I-3027J19453D01*
G01Y7198290D01*
G03X14728277Y7217740I-19687J-3D01*
G02X14728277Y7279980I4850J31120D01*
G03X14744937Y7299430I-3027J19453D01*
G01Y7429960D01*
G03X14685877Y7489020I-59060J0D01*
G01X14654089D01*
X14685877Y7548070D02*
G03X14744937Y7607120I0J59060D01*
G01Y7737660D01*
G03X14728277Y7757110I-19687J-3D01*
G02X14728277Y7819350I4850J31120D01*
G03X14744937Y7838800I-3027J19453D01*
G01Y7934510D01*
G03X14728277Y7953960I-19687J-3D01*
G02X14728277Y8016200I4850J31120D01*
G03X14744937Y8035650I-3027J19453D01*
G01Y8166180D01*
G03X14685877Y8225240I-59060J0D01*
G01X14654089D01*
X14685877Y8284291D02*
G03X14744937Y8343341I0J59060D01*
G01Y8473881D01*
G03X14728277Y8493331I-19687J-3D01*
G02X14728277Y8555571I4850J31120D01*
G03X14744937Y8575021I-3027J19453D01*
G01Y8670731D01*
G03X14728277Y8690181I-19687J-3D01*
G02X14728277Y8752421I4850J31120D01*
G03X14744937Y8771871I-3027J19453D01*
G01Y8902401D01*
G03X14685877Y8961461I-59060J0D01*
G01X14654089D01*
X11107140Y9020511D02*
X11257042D01*
X11107140Y3807913D02*
X11257042D01*
X11107140D02*
Y9020511D01*
X11925742Y3807916D02*
X12072045D01*
X11107140Y4915056D02*
Y4499300D01*
X14803990Y9020511D02*
Y3807913D01*
X11925742Y8961456D02*
Y9020511D01*
X11866687Y8961456D02*
Y9020511D01*
X11257042Y8961456D02*
Y9020511D01*
X11316097Y8961456D02*
Y9020511D01*
X12166490Y8961456D02*
Y9020511D01*
X14654089Y8961456D02*
Y9020511D01*
X11925742Y8225236D02*
Y8284291D01*
X11866687Y8225236D02*
Y8284291D01*
X11257042Y8225236D02*
Y8284291D01*
X11316097Y8225236D02*
Y8284291D01*
X12166490Y8225236D02*
Y8284291D01*
X14654089Y8225236D02*
Y8284291D01*
X11925742Y7489015D02*
Y7548070D01*
X11257042Y7489015D02*
Y7548070D01*
X12166490Y7489015D02*
Y7548070D01*
X14654089Y7489015D02*
Y7548070D01*
X11925742Y6752795D02*
Y6811850D01*
X11257042Y6752795D02*
Y6811850D01*
X12166490Y6752795D02*
Y6811850D01*
X14654089Y6752795D02*
Y6811850D01*
X11925742Y6016574D02*
Y6075629D01*
X11257042Y6016574D02*
Y6075629D01*
X12166490Y6016574D02*
Y6075629D01*
X14654089Y6016574D02*
Y6075629D01*
X11925742Y5280354D02*
Y5339409D01*
X11257042Y5280354D02*
Y5339409D01*
X12166490Y5280354D02*
Y5339409D01*
X14654089Y5280354D02*
Y5339409D01*
X11925742Y4544133D02*
Y4603188D01*
X11257042Y4544133D02*
Y4603188D01*
X12166490Y4544133D02*
Y4603188D01*
X14654089Y4544133D02*
Y4603188D01*
X11925742Y3866968D02*
Y3807913D01*
X11866687Y3866968D02*
Y3807913D01*
X11257042Y3866968D02*
Y3807913D01*
X11316097Y3866968D02*
Y3807913D01*
X12166490Y3866968D02*
Y3807913D01*
X14654089Y3866968D02*
Y3807913D01*
X11316097Y9020511D02*
X11866687D01*
X11925742D02*
X12166490D01*
X14654089D02*
X14803990D01*
X14654089Y3807913D02*
X14803990D01*
X11925742D02*
X12166490D01*
X11316097D02*
X11866687D01*
X11257042Y8961461D02*
X11225250D01*
X11316097Y8284291D02*
X11683120D01*
X11257042Y8225240D02*
X11225250D01*
X11866687Y8961461D02*
X11840600D01*
X11925742Y8284291D02*
X11957530D01*
X11866687Y8225240D02*
X11840600D01*
X12166490Y8961461D02*
X12134699D01*
X12166490Y8225240D02*
X12134699D01*
X11257042Y7489020D02*
X11225250D01*
X11925742Y7548070D02*
X11957530D01*
X12166490Y7489020D02*
X12134699D01*
X11257042Y6752799D02*
X11225250D01*
X11925742Y6811850D02*
X11957530D01*
X12166490Y6752799D02*
X12134699D01*
X11257042Y6016579D02*
X11225250D01*
X11925742Y6075629D02*
X11957530D01*
X12166490Y6016579D02*
X12134699D01*
X11257042Y5280358D02*
X11225250D01*
X11925742Y5339409D02*
X11957530D01*
X12166490Y5280358D02*
X12134699D01*
X11257042Y4544138D02*
X11225250D01*
X11925742Y4603188D02*
X11957530D01*
X12166490Y4544138D02*
X12134699D01*
X11316097Y3866968D02*
X11683120D01*
X11925742D02*
X11957530D01*
X14654089Y8284291D02*
X14685877D01*
X14654089Y7548070D02*
X14685877D01*
X14654089Y6811850D02*
X14685877D01*
X14654089Y6075629D02*
X14685877D01*
X14654089Y5339409D02*
X14685877D01*
X14654089Y4603188D02*
X14685877D01*
X14654089Y3866968D02*
X14685877D01*
X12866979D02*
G03X12926039Y3926018I0J59060D01*
G01Y4056558D01*
G03X12909379Y4076008I-19687J-3D01*
G02X12909379Y4138248I4850J31120D01*
G03X12926039Y4157698I-3027J19453D01*
G01Y4253408D01*
G03X12909379Y4272858I-19687J-3D01*
G02X12909379Y4335098I4850J31120D01*
G03X12926039Y4354548I-3027J19453D01*
G01Y4485078D01*
G03X12866979Y4544138I-59060J0D01*
G01X12835191D01*
X12866979Y4603188D02*
G03X12926039Y4662238I0J59060D01*
G01Y4792778D01*
G03X12909379Y4812228I-19687J-3D01*
G02X12909379Y4874468I4850J31120D01*
G03X12926039Y4893918I-3027J19453D01*
G01Y4989628D01*
G03X12909379Y5009078I-19687J-3D01*
G02X12909379Y5071318I4850J31120D01*
G03X12926039Y5090768I-3027J19453D01*
G01Y5221298D01*
G03X12866979Y5280358I-59060J0D01*
G01X12835191D01*
X12866979Y5339409D02*
G03X12926039Y5398459I0J59060D01*
G01Y5528999D01*
G03X12909379Y5548449I-19687J-3D01*
G02X12909379Y5610689I4850J31120D01*
G03X12926039Y5630139I-3027J19453D01*
G01Y5725849D01*
G03X12909379Y5745299I-19687J-3D01*
G02X12909379Y5807539I4850J31120D01*
G03X12926039Y5826989I-3027J19453D01*
G01Y5957519D01*
G03X12866979Y6016579I-59060J0D01*
G01X12835191D01*
X12866979Y6075629D02*
G03X12926039Y6134679I0J59060D01*
G01Y6265219D01*
G03X12909379Y6284669I-19687J-3D01*
G02X12909379Y6346909I4850J31120D01*
G03X12926039Y6366359I-3027J19453D01*
G01Y6462069D01*
G03X12909379Y6481519I-19687J-3D01*
G02X12909379Y6543759I4850J31120D01*
G03X12926039Y6563209I-3027J19453D01*
G01Y6693739D01*
G03X12866979Y6752799I-59060J0D01*
G01X12835191D01*
X12866979Y6811850D02*
G03X12926039Y6870900I0J59060D01*
G01Y7001440D01*
G03X12909379Y7020890I-19687J-3D01*
G02X12909379Y7083130I4850J31120D01*
G03X12926039Y7102580I-3027J19453D01*
G01Y7198290D01*
G03X12909379Y7217740I-19687J-3D01*
G02X12909379Y7279980I4850J31120D01*
G03X12926039Y7299430I-3027J19453D01*
G01Y7429960D01*
G03X12866979Y7489020I-59060J0D01*
G01X12835191D01*
X12866979Y7548070D02*
G03X12926039Y7607120I0J59060D01*
G01Y7737660D01*
G03X12909379Y7757110I-19687J-3D01*
G02X12909379Y7819350I4850J31120D01*
G03X12926039Y7838800I-3027J19453D01*
G01Y7934510D01*
G03X12909379Y7953960I-19687J-3D01*
G02X12909379Y8016200I4850J31120D01*
G03X12926039Y8035650I-3027J19453D01*
G01Y8166180D01*
G03X12866979Y8225240I-59060J0D01*
G01X12835191D01*
X12866979Y8284291D02*
G03X12926039Y8343341I0J59060D01*
G01Y8473881D01*
G03X12909379Y8493331I-19687J-3D01*
G02X12909379Y8555571I4850J31120D01*
G03X12926039Y8575021I-3027J19453D01*
G01Y8670731D01*
G03X12909379Y8690181I-19687J-3D01*
G02X12909379Y8752421I4850J31120D01*
G03X12926039Y8771871I-3027J19453D01*
G01Y8902401D01*
G03X12866979Y8961461I-59060J0D01*
G01X12835191D01*
X12750049D02*
G03X12742179Y8953581I0J-7870D01*
G01Y8888621D01*
G02X12734299Y8880751I-7875J5D01*
G01X12608319D01*
G02X12600449Y8888621I-0J7870D01*
G01Y8953581D01*
G03X12592569Y8961461I-7875J5D01*
G01X12225545D01*
X13044148Y4544138D02*
G03X12985088Y4485078I0J-59060D01*
G01Y3926018D01*
G03X13044148Y3866968I59055J5D01*
G01X13075939D01*
X13044148Y5280358D02*
G03X12985088Y5221298I0J-59060D01*
G01Y4662238D01*
G03X13044148Y4603188I59055J5D01*
G01X13075939D01*
X13044148Y6016579D02*
G03X12985088Y5957519I0J-59060D01*
G01Y5398459D01*
G03X13044148Y5339409I59055J5D01*
G01X13075939D01*
X13044148Y6752799D02*
G03X12985088Y6693739I0J-59060D01*
G01Y6134679D01*
G03X13044148Y6075629I59055J5D01*
G01X13075939D01*
X13044148Y7489020D02*
G03X12985088Y7429960I0J-59060D01*
G01Y6870900D01*
G03X13044148Y6811850I59055J5D01*
G01X13075939D01*
X13044148Y8225240D02*
G03X12985088Y8166180I0J-59060D01*
G01Y7607120D01*
G03X13044148Y7548070I59055J5D01*
G01X13075939D01*
X13044148Y8961461D02*
G03X12985088Y8902401I0J-59060D01*
G01Y8343341D01*
G03X13044148Y8284291I59055J5D01*
G01X13075939D01*
X12835191Y3807916D02*
X12981494D01*
X12835191Y8961456D02*
Y9020511D01*
X12776136Y8961456D02*
Y9020511D01*
X12225545Y8961456D02*
Y9020511D01*
X13075939Y8961456D02*
Y9020511D01*
X12835191Y8225236D02*
Y8284291D01*
X13075939Y8225236D02*
Y8284291D01*
X12835191Y7489015D02*
Y7548070D01*
X13075939Y7489015D02*
Y7548070D01*
X12835191Y6752795D02*
Y6811850D01*
X13075939Y6752795D02*
Y6811850D01*
X12835191Y6016574D02*
Y6075629D01*
X13075939Y6016574D02*
Y6075629D01*
X12835191Y5280354D02*
Y5339409D01*
X13075939Y5280354D02*
Y5339409D01*
X12835191Y4544133D02*
Y4603188D01*
X13075939Y4544133D02*
Y4603188D01*
X12835191Y3866968D02*
Y3807913D01*
X13075939Y3866968D02*
Y3807913D01*
X12225545Y9020511D02*
X12776136D01*
X12835191D02*
X13075939D01*
X12835191Y3807913D02*
X13075939D01*
X12776136Y8961461D02*
X12750049D01*
X12835191Y8284291D02*
X12866979D01*
X13075939Y8961461D02*
X13044148D01*
X13075939Y8225240D02*
X13044148D01*
X12835191Y7548070D02*
X12866979D01*
X13075939Y7489020D02*
X13044148D01*
X12835191Y6811850D02*
X12866979D01*
X13075939Y6752799D02*
X13044148D01*
X12835191Y6075629D02*
X12866979D01*
X13075939Y6016579D02*
X13044148D01*
X12835191Y5339409D02*
X12866979D01*
X13075939Y5280358D02*
X13044148D01*
X12835191Y4603188D02*
X12866979D01*
X13075939Y4544138D02*
X13044148D01*
X12835191Y3866968D02*
X12866979D01*
X13776428D02*
G03X13835488Y3926018I0J59060D01*
G01Y4056558D01*
G03X13818828Y4076008I-19687J-3D01*
G02X13818828Y4138248I4850J31120D01*
G03X13835488Y4157698I-3027J19453D01*
G01Y4253408D01*
G03X13818828Y4272858I-19687J-3D01*
G02X13818828Y4335098I4850J31120D01*
G03X13835488Y4354548I-3027J19453D01*
G01Y4485078D01*
G03X13776428Y4544138I-59060J0D01*
G01X13744640D01*
X13776428Y4603188D02*
G03X13835488Y4662238I0J59060D01*
G01Y4792778D01*
G03X13818828Y4812228I-19687J-3D01*
G02X13818828Y4874468I4850J31120D01*
G03X13835488Y4893918I-3027J19453D01*
G01Y4989628D01*
G03X13818828Y5009078I-19687J-3D01*
G02X13818828Y5071318I4850J31120D01*
G03X13835488Y5090768I-3027J19453D01*
G01Y5221298D01*
G03X13776428Y5280358I-59060J0D01*
G01X13744640D01*
X13776428Y5339409D02*
G03X13835488Y5398459I0J59060D01*
G01Y5528999D01*
G03X13818828Y5548449I-19687J-3D01*
G02X13818828Y5610689I4850J31120D01*
G03X13835488Y5630139I-3027J19453D01*
G01Y5725849D01*
G03X13818828Y5745299I-19687J-3D01*
G02X13818828Y5807539I4850J31120D01*
G03X13835488Y5826989I-3027J19453D01*
G01Y5957519D01*
G03X13776428Y6016579I-59060J0D01*
G01X13744640D01*
X13776428Y6075629D02*
G03X13835488Y6134679I0J59060D01*
G01Y6265219D01*
G03X13818828Y6284669I-19687J-3D01*
G02X13818828Y6346909I4850J31120D01*
G03X13835488Y6366359I-3027J19453D01*
G01Y6462069D01*
G03X13818828Y6481519I-19687J-3D01*
G02X13818828Y6543759I4850J31120D01*
G03X13835488Y6563209I-3027J19453D01*
G01Y6693739D01*
G03X13776428Y6752799I-59060J0D01*
G01X13744640D01*
X13776428Y6811850D02*
G03X13835488Y6870900I0J59060D01*
G01Y7001440D01*
G03X13818828Y7020890I-19687J-3D01*
G02X13818828Y7083130I4850J31120D01*
G03X13835488Y7102580I-3027J19453D01*
G01Y7198290D01*
G03X13818828Y7217740I-19687J-3D01*
G02X13818828Y7279980I4850J31120D01*
G03X13835488Y7299430I-3027J19453D01*
G01Y7429960D01*
G03X13776428Y7489020I-59060J0D01*
G01X13744640D01*
X13776428Y7548070D02*
G03X13835488Y7607120I0J59060D01*
G01Y7737660D01*
G03X13818828Y7757110I-19687J-3D01*
G02X13818828Y7819350I4850J31120D01*
G03X13835488Y7838800I-3027J19453D01*
G01Y7934510D01*
G03X13818828Y7953960I-19687J-3D01*
G02X13818828Y8016200I4850J31120D01*
G03X13835488Y8035650I-3027J19453D01*
G01Y8166180D01*
G03X13776428Y8225240I-59060J0D01*
G01X13744640D01*
X13776428Y8284291D02*
G03X13835488Y8343341I0J59060D01*
G01Y8473881D01*
G03X13818828Y8493331I-19687J-3D01*
G02X13818828Y8555571I4850J31120D01*
G03X13835488Y8575021I-3027J19453D01*
G01Y8670731D01*
G03X13818828Y8690181I-19687J-3D01*
G02X13818828Y8752421I4850J31120D01*
G03X13835488Y8771871I-3027J19453D01*
G01Y8902401D01*
G03X13776428Y8961461I-59060J0D01*
G01X13744640D01*
X13659498D02*
G03X13651628Y8953581I0J-7870D01*
G01Y8888621D01*
G02X13643748Y8880751I-7875J5D01*
G01X13517768D01*
G02X13509898Y8888621I-0J7870D01*
G01Y8953581D01*
G03X13502018Y8961461I-7875J5D01*
G01X13134994D01*
X13953597Y4544138D02*
G03X13894537Y4485078I0J-59060D01*
G01Y3926018D01*
G03X13953597Y3866968I59055J5D01*
G01X13985388D01*
X13953597Y5280358D02*
G03X13894537Y5221298I0J-59060D01*
G01Y4662238D01*
G03X13953597Y4603188I59055J5D01*
G01X13985388D01*
X13953597Y6016579D02*
G03X13894537Y5957519I0J-59060D01*
G01Y5398459D01*
G03X13953597Y5339409I59055J5D01*
G01X13985388D01*
X13953597Y6752799D02*
G03X13894537Y6693739I0J-59060D01*
G01Y6134679D01*
G03X13953597Y6075629I59055J5D01*
G01X13985388D01*
X13953597Y7489020D02*
G03X13894537Y7429960I0J-59060D01*
G01Y6870900D01*
G03X13953597Y6811850I59055J5D01*
G01X13985388D01*
X13953597Y8225240D02*
G03X13894537Y8166180I0J-59060D01*
G01Y7607120D01*
G03X13953597Y7548070I59055J5D01*
G01X13985388D01*
X13953597Y8961461D02*
G03X13894537Y8902401I0J-59060D01*
G01Y8343341D01*
G03X13953597Y8284291I59055J5D01*
G01X13985388D01*
X13744640Y3807916D02*
X13890943D01*
X13744640Y8961456D02*
Y9020511D01*
X13685585Y8961456D02*
Y9020511D01*
X13134994Y8961456D02*
Y9020511D01*
X13985388Y8961456D02*
Y9020511D01*
X13744640Y8225236D02*
Y8284291D01*
X13985388Y8225236D02*
Y8284291D01*
X13744640Y7489015D02*
Y7548070D01*
X13985388Y7489015D02*
Y7548070D01*
X13744640Y6752795D02*
Y6811850D01*
X13985388Y6752795D02*
Y6811850D01*
X13744640Y6016574D02*
Y6075629D01*
X13985388Y6016574D02*
Y6075629D01*
X13744640Y5280354D02*
Y5339409D01*
X13985388Y5280354D02*
Y5339409D01*
X13744640Y4544133D02*
Y4603188D01*
X13985388Y4544133D02*
Y4603188D01*
X13744640Y3866968D02*
Y3807913D01*
X13985388Y3866968D02*
Y3807913D01*
X13134994Y9020511D02*
X13685585D01*
X13744640D02*
X13985388D01*
X13744640Y3807913D02*
X13985388D01*
X13685585Y8961461D02*
X13659498D01*
X13744640Y8284291D02*
X13776428D01*
X13985388Y8961461D02*
X13953597D01*
X13985388Y8225240D02*
X13953597D01*
X13744640Y7548070D02*
X13776428D01*
X13985388Y7489020D02*
X13953597D01*
X13744640Y6811850D02*
X13776428D01*
X13985388Y6752799D02*
X13953597D01*
X13744640Y6075629D02*
X13776428D01*
X13985388Y6016579D02*
X13953597D01*
X13744640Y5339409D02*
X13776428D01*
X13985388Y5280358D02*
X13953597D01*
X13744640Y4603188D02*
X13776428D01*
X13985388Y4544138D02*
X13953597D01*
X13744640Y3866968D02*
X13776428D01*
X14568947Y8961461D02*
G03X14561077Y8953581I0J-7870D01*
G01Y8888621D01*
G02X14553197Y8880751I-7875J5D01*
G01X14427217D01*
G02X14419347Y8888621I-0J7870D01*
G01Y8953581D01*
G03X14411467Y8961461I-7875J5D01*
G01X14044443D01*
X14595034Y8961456D02*
Y9020511D01*
X14044443Y8961456D02*
Y9020511D01*
X14595034D01*
Y8961461D02*
X14568947D01*
X12750049Y8225240D02*
G03X12742179Y8217360I0J-7870D01*
G01Y8152400D01*
G02X12734299Y8144530I-7875J5D01*
G01X12608319D01*
G02X12600449Y8152400I-0J7870D01*
G01Y8217360D01*
G03X12592569Y8225240I-7875J5D01*
G01X12225545D01*
X12592569Y8284291D02*
G03X12600449Y8292161I5J7875D01*
G01Y8357121D01*
G02X12608319Y8365001I7870J10D01*
G01X12734299D01*
G02X12742179Y8357121I5J-7875D01*
G01Y8292161D01*
G03X12750049Y8284291I7870J0D01*
G01X12776136D01*
Y8225236D02*
Y8284291D01*
X12225545Y8225236D02*
Y8284291D01*
X12592569D01*
X12776136Y8225240D02*
X12750049D01*
X13659498D02*
G03X13651628Y8217360I0J-7870D01*
G01Y8152400D01*
G02X13643748Y8144530I-7875J5D01*
G01X13517768D01*
G02X13509898Y8152400I-0J7870D01*
G01Y8217360D01*
G03X13502018Y8225240I-7875J5D01*
G01X13134994D01*
X13502018Y8284291D02*
G03X13509898Y8292161I5J7875D01*
G01Y8357121D01*
G02X13517768Y8365001I7870J10D01*
G01X13643748D01*
G02X13651628Y8357121I5J-7875D01*
G01Y8292161D01*
G03X13659498Y8284291I7870J0D01*
G01X13685585D01*
Y8225236D02*
Y8284291D01*
X13134994Y8225236D02*
Y8284291D01*
X13502018D01*
X13685585Y8225240D02*
X13659498D01*
X14568947D02*
G03X14561077Y8217360I0J-7870D01*
G01Y8152400D01*
G02X14553197Y8144530I-7875J5D01*
G01X14427217D01*
G02X14419347Y8152400I-0J7870D01*
G01Y8217360D01*
G03X14411467Y8225240I-7875J5D01*
G01X14044443D01*
X14411467Y8284291D02*
G03X14419347Y8292161I5J7875D01*
G01Y8357121D01*
G02X14427217Y8365001I7870J10D01*
G01X14553197D01*
G02X14561077Y8357121I5J-7875D01*
G01Y8292161D01*
G03X14568947Y8284291I7870J0D01*
G01X14595034D01*
Y8225236D02*
Y8284291D01*
X14044443Y8225236D02*
Y8284291D01*
X14411467D01*
X14595034Y8225240D02*
X14568947D01*
X11840600Y7489020D02*
G03X11832730Y7481140I0J-7870D01*
G01Y7416180D01*
G02X11824850Y7408310I-7875J5D01*
G01X11698870D01*
G02X11691000Y7416180I-0J7870D01*
G01Y7481140D01*
G03X11683120Y7489020I-7875J5D01*
G01X11316097D01*
X11683120Y7548070D02*
G03X11691000Y7555940I5J7875D01*
G01Y7620900D01*
G02X11698870Y7628780I7870J10D01*
G01X11824850D01*
G02X11832730Y7620900I5J-7875D01*
G01Y7555940D01*
G03X11840600Y7548070I7870J0D01*
G01X11866687D01*
Y7489015D02*
Y7548070D01*
X11316097Y7489015D02*
Y7548070D01*
X11683120D01*
X11866687Y7489020D02*
X11840600D01*
X12750049D02*
G03X12742179Y7481140I0J-7870D01*
G01Y7416180D01*
G02X12734299Y7408310I-7875J5D01*
G01X12608319D01*
G02X12600449Y7416180I-0J7870D01*
G01Y7481140D01*
G03X12592569Y7489020I-7875J5D01*
G01X12225545D01*
X12592569Y7548070D02*
G03X12600449Y7555940I5J7875D01*
G01Y7620900D01*
G02X12608319Y7628780I7870J10D01*
G01X12734299D01*
G02X12742179Y7620900I5J-7875D01*
G01Y7555940D01*
G03X12750049Y7548070I7870J0D01*
G01X12776136D01*
Y7489015D02*
Y7548070D01*
X12225545Y7489015D02*
Y7548070D01*
X12592569D01*
X12776136Y7489020D02*
X12750049D01*
X13659498D02*
G03X13651628Y7481140I0J-7870D01*
G01Y7416180D01*
G02X13643748Y7408310I-7875J5D01*
G01X13517768D01*
G02X13509898Y7416180I-0J7870D01*
G01Y7481140D01*
G03X13502018Y7489020I-7875J5D01*
G01X13134994D01*
X13502018Y7548070D02*
G03X13509898Y7555940I5J7875D01*
G01Y7620900D01*
G02X13517768Y7628780I7870J10D01*
G01X13643748D01*
G02X13651628Y7620900I5J-7875D01*
G01Y7555940D01*
G03X13659498Y7548070I7870J0D01*
G01X13685585D01*
Y7489015D02*
Y7548070D01*
X13134994Y7489015D02*
Y7548070D01*
X13502018D01*
X13685585Y7489020D02*
X13659498D01*
X14568947D02*
G03X14561077Y7481140I0J-7870D01*
G01Y7416180D01*
G02X14553197Y7408310I-7875J5D01*
G01X14427217D01*
G02X14419347Y7416180I-0J7870D01*
G01Y7481140D01*
G03X14411467Y7489020I-7875J5D01*
G01X14044443D01*
X14411467Y7548070D02*
G03X14419347Y7555940I5J7875D01*
G01Y7620900D01*
G02X14427217Y7628780I7870J10D01*
G01X14553197D01*
G02X14561077Y7620900I5J-7875D01*
G01Y7555940D01*
G03X14568947Y7548070I7870J0D01*
G01X14595034D01*
Y7489015D02*
Y7548070D01*
X14044443Y7489015D02*
Y7548070D01*
X14411467D01*
X14595034Y7489020D02*
X14568947D01*
X11840600Y6752799D02*
G03X11832730Y6744919I0J-7870D01*
G01Y6679959D01*
G02X11824850Y6672089I-7875J5D01*
G01X11698870D01*
G02X11691000Y6679959I-0J7870D01*
G01Y6744919D01*
G03X11683120Y6752799I-7875J5D01*
G01X11316097D01*
X11683120Y6811850D02*
G03X11691000Y6819720I5J7875D01*
G01Y6884680D01*
G02X11698870Y6892560I7870J10D01*
G01X11824850D01*
G02X11832730Y6884680I5J-7875D01*
G01Y6819720D01*
G03X11840600Y6811850I7870J0D01*
G01X11866687D01*
Y6752795D02*
Y6811850D01*
X11316097Y6752795D02*
Y6811850D01*
X11683120D01*
X11866687Y6752799D02*
X11840600D01*
X12750049D02*
G03X12742179Y6744919I0J-7870D01*
G01Y6679959D01*
G02X12734299Y6672089I-7875J5D01*
G01X12608319D01*
G02X12600449Y6679959I-0J7870D01*
G01Y6744919D01*
G03X12592569Y6752799I-7875J5D01*
G01X12225545D01*
X12592569Y6811850D02*
G03X12600449Y6819720I5J7875D01*
G01Y6884680D01*
G02X12608319Y6892560I7870J10D01*
G01X12734299D01*
G02X12742179Y6884680I5J-7875D01*
G01Y6819720D01*
G03X12750049Y6811850I7870J0D01*
G01X12776136D01*
Y6752795D02*
Y6811850D01*
X12225545Y6752795D02*
Y6811850D01*
X12592569D01*
X12776136Y6752799D02*
X12750049D01*
X13659498D02*
G03X13651628Y6744919I0J-7870D01*
G01Y6679959D01*
G02X13643748Y6672089I-7875J5D01*
G01X13517768D01*
G02X13509898Y6679959I-0J7870D01*
G01Y6744919D01*
G03X13502018Y6752799I-7875J5D01*
G01X13134994D01*
X13502018Y6811850D02*
G03X13509898Y6819720I5J7875D01*
G01Y6884680D01*
G02X13517768Y6892560I7870J10D01*
G01X13643748D01*
G02X13651628Y6884680I5J-7875D01*
G01Y6819720D01*
G03X13659498Y6811850I7870J0D01*
G01X13685585D01*
Y6752795D02*
Y6811850D01*
X13134994Y6752795D02*
Y6811850D01*
X13502018D01*
X13685585Y6752799D02*
X13659498D01*
X14568947D02*
G03X14561077Y6744919I0J-7870D01*
G01Y6679959D01*
G02X14553197Y6672089I-7875J5D01*
G01X14427217D01*
G02X14419347Y6679959I-0J7870D01*
G01Y6744919D01*
G03X14411467Y6752799I-7875J5D01*
G01X14044443D01*
X14411467Y6811850D02*
G03X14419347Y6819720I5J7875D01*
G01Y6884680D01*
G02X14427217Y6892560I7870J10D01*
G01X14553197D01*
G02X14561077Y6884680I5J-7875D01*
G01Y6819720D01*
G03X14568947Y6811850I7870J0D01*
G01X14595034D01*
Y6752795D02*
Y6811850D01*
X14044443Y6752795D02*
Y6811850D01*
X14411467D01*
X14595034Y6752799D02*
X14568947D01*
X11840600Y6016579D02*
G03X11832730Y6008699I0J-7870D01*
G01Y5943739D01*
G02X11824850Y5935869I-7875J5D01*
G01X11698870D01*
G02X11691000Y5943739I-0J7870D01*
G01Y6008699D01*
G03X11683120Y6016579I-7875J5D01*
G01X11316097D01*
X11683120Y6075629D02*
G03X11691000Y6083499I5J7875D01*
G01Y6148459D01*
G02X11698870Y6156339I7870J10D01*
G01X11824850D01*
G02X11832730Y6148459I5J-7875D01*
G01Y6083499D01*
G03X11840600Y6075629I7870J0D01*
G01X11866687D01*
Y6016574D02*
Y6075629D01*
X11316097Y6016574D02*
Y6075629D01*
X11683120D01*
X11866687Y6016579D02*
X11840600D01*
X12750049D02*
G03X12742179Y6008699I0J-7870D01*
G01Y5943739D01*
G02X12734299Y5935869I-7875J5D01*
G01X12608319D01*
G02X12600449Y5943739I-0J7870D01*
G01Y6008699D01*
G03X12592569Y6016579I-7875J5D01*
G01X12225545D01*
X12592569Y6075629D02*
G03X12600449Y6083499I5J7875D01*
G01Y6148459D01*
G02X12608319Y6156339I7870J10D01*
G01X12734299D01*
G02X12742179Y6148459I5J-7875D01*
G01Y6083499D01*
G03X12750049Y6075629I7870J0D01*
G01X12776136D01*
Y6016574D02*
Y6075629D01*
X12225545Y6016574D02*
Y6075629D01*
X12592569D01*
X12776136Y6016579D02*
X12750049D01*
X13659498D02*
G03X13651628Y6008699I0J-7870D01*
G01Y5943739D01*
G02X13643748Y5935869I-7875J5D01*
G01X13517768D01*
G02X13509898Y5943739I-0J7870D01*
G01Y6008699D01*
G03X13502018Y6016579I-7875J5D01*
G01X13134994D01*
X13502018Y6075629D02*
G03X13509898Y6083499I5J7875D01*
G01Y6148459D01*
G02X13517768Y6156339I7870J10D01*
G01X13643748D01*
G02X13651628Y6148459I5J-7875D01*
G01Y6083499D01*
G03X13659498Y6075629I7870J0D01*
G01X13685585D01*
Y6016574D02*
Y6075629D01*
X13134994Y6016574D02*
Y6075629D01*
X13502018D01*
X13685585Y6016579D02*
X13659498D01*
X14568947D02*
G03X14561077Y6008699I0J-7870D01*
G01Y5943739D01*
G02X14553197Y5935869I-7875J5D01*
G01X14427217D01*
G02X14419347Y5943739I-0J7870D01*
G01Y6008699D01*
G03X14411467Y6016579I-7875J5D01*
G01X14044443D01*
X14411467Y6075629D02*
G03X14419347Y6083499I5J7875D01*
G01Y6148459D01*
G02X14427217Y6156339I7870J10D01*
G01X14553197D01*
G02X14561077Y6148459I5J-7875D01*
G01Y6083499D01*
G03X14568947Y6075629I7870J0D01*
G01X14595034D01*
Y6016574D02*
Y6075629D01*
X14044443Y6016574D02*
Y6075629D01*
X14411467D01*
X14595034Y6016579D02*
X14568947D01*
X11840600Y5280358D02*
G03X11832730Y5272478I0J-7870D01*
G01Y5207518D01*
G02X11824850Y5199648I-7875J5D01*
G01X11698870D01*
G02X11691000Y5207518I-0J7870D01*
G01Y5272478D01*
G03X11683120Y5280358I-7875J5D01*
G01X11316097D01*
X11683120Y5339409D02*
G03X11691000Y5347279I5J7875D01*
G01Y5412239D01*
G02X11698870Y5420119I7870J10D01*
G01X11824850D01*
G02X11832730Y5412239I5J-7875D01*
G01Y5347279D01*
G03X11840600Y5339409I7870J0D01*
G01X11866687D01*
Y5280354D02*
Y5339409D01*
X11316097Y5280354D02*
Y5339409D01*
X11683120D01*
X11866687Y5280358D02*
X11840600D01*
X12750049D02*
G03X12742179Y5272478I0J-7870D01*
G01Y5207518D01*
G02X12734299Y5199648I-7875J5D01*
G01X12608319D01*
G02X12600449Y5207518I-0J7870D01*
G01Y5272478D01*
G03X12592569Y5280358I-7875J5D01*
G01X12225545D01*
X12592569Y5339409D02*
G03X12600449Y5347279I5J7875D01*
G01Y5412239D01*
G02X12608319Y5420119I7870J10D01*
G01X12734299D01*
G02X12742179Y5412239I5J-7875D01*
G01Y5347279D01*
G03X12750049Y5339409I7870J0D01*
G01X12776136D01*
Y5280354D02*
Y5339409D01*
X12225545Y5280354D02*
Y5339409D01*
X12592569D01*
X12776136Y5280358D02*
X12750049D01*
X13659498D02*
G03X13651628Y5272478I0J-7870D01*
G01Y5207518D01*
G02X13643748Y5199648I-7875J5D01*
G01X13517768D01*
G02X13509898Y5207518I-0J7870D01*
G01Y5272478D01*
G03X13502018Y5280358I-7875J5D01*
G01X13134994D01*
X13502018Y5339409D02*
G03X13509898Y5347279I5J7875D01*
G01Y5412239D01*
G02X13517768Y5420119I7870J10D01*
G01X13643748D01*
G02X13651628Y5412239I5J-7875D01*
G01Y5347279D01*
G03X13659498Y5339409I7870J0D01*
G01X13685585D01*
Y5280354D02*
Y5339409D01*
X13134994Y5280354D02*
Y5339409D01*
X13502018D01*
X13685585Y5280358D02*
X13659498D01*
X14568947D02*
G03X14561077Y5272478I0J-7870D01*
G01Y5207518D01*
G02X14553197Y5199648I-7875J5D01*
G01X14427217D01*
G02X14419347Y5207518I-0J7870D01*
G01Y5272478D01*
G03X14411467Y5280358I-7875J5D01*
G01X14044443D01*
X14411467Y5339409D02*
G03X14419347Y5347279I5J7875D01*
G01Y5412239D01*
G02X14427217Y5420119I7870J10D01*
G01X14553197D01*
G02X14561077Y5412239I5J-7875D01*
G01Y5347279D01*
G03X14568947Y5339409I7870J0D01*
G01X14595034D01*
Y5280354D02*
Y5339409D01*
X14044443Y5280354D02*
Y5339409D01*
X14411467D01*
X14595034Y5280358D02*
X14568947D01*
X11840600Y4544138D02*
G03X11832730Y4536258I0J-7870D01*
G01Y4471298D01*
G02X11824850Y4463428I-7875J5D01*
G01X11698870D01*
G02X11691000Y4471298I-0J7870D01*
G01Y4536258D01*
G03X11683120Y4544138I-7875J5D01*
G01X11316097D01*
X11683120Y4603188D02*
G03X11691000Y4611058I5J7875D01*
G01Y4676018D01*
G02X11698870Y4683898I7870J10D01*
G01X11824850D01*
G02X11832730Y4676018I5J-7875D01*
G01Y4611058D01*
G03X11840600Y4603188I7870J0D01*
G01X11866687D01*
Y4544133D02*
Y4603188D01*
X11316097Y4544133D02*
Y4603188D01*
X11683120D01*
X11866687Y4544138D02*
X11840600D01*
X12750049D02*
G03X12742179Y4536258I0J-7870D01*
G01Y4471298D01*
G02X12734299Y4463428I-7875J5D01*
G01X12608319D01*
G02X12600449Y4471298I-0J7870D01*
G01Y4536258D01*
G03X12592569Y4544138I-7875J5D01*
G01X12225545D01*
X12592569Y4603188D02*
G03X12600449Y4611058I5J7875D01*
G01Y4676018D01*
G02X12608319Y4683898I7870J10D01*
G01X12734299D01*
G02X12742179Y4676018I5J-7875D01*
G01Y4611058D01*
G03X12750049Y4603188I7870J0D01*
G01X12776136D01*
Y4544133D02*
Y4603188D01*
X12225545Y4544133D02*
Y4603188D01*
X12592569D01*
X12776136Y4544138D02*
X12750049D01*
X13659498D02*
G03X13651628Y4536258I0J-7870D01*
G01Y4471298D01*
G02X13643748Y4463428I-7875J5D01*
G01X13517768D01*
G02X13509898Y4471298I-0J7870D01*
G01Y4536258D01*
G03X13502018Y4544138I-7875J5D01*
G01X13134994D01*
X13502018Y4603188D02*
G03X13509898Y4611058I5J7875D01*
G01Y4676018D01*
G02X13517768Y4683898I7870J10D01*
G01X13643748D01*
G02X13651628Y4676018I5J-7875D01*
G01Y4611058D01*
G03X13659498Y4603188I7870J0D01*
G01X13685585D01*
Y4544133D02*
Y4603188D01*
X13134994Y4544133D02*
Y4603188D01*
X13502018D01*
X13685585Y4544138D02*
X13659498D01*
X14568947D02*
G03X14561077Y4536258I0J-7870D01*
G01Y4471298D01*
G02X14553197Y4463428I-7875J5D01*
G01X14427217D01*
G02X14419347Y4471298I-0J7870D01*
G01Y4536258D01*
G03X14411467Y4544138I-7875J5D01*
G01X14044443D01*
X14411467Y4603188D02*
G03X14419347Y4611058I5J7875D01*
G01Y4676018D01*
G02X14427217Y4683898I7870J10D01*
G01X14553197D01*
G02X14561077Y4676018I5J-7875D01*
G01Y4611058D01*
G03X14568947Y4603188I7870J0D01*
G01X14595034D01*
Y4544133D02*
Y4603188D01*
X14044443Y4544133D02*
Y4603188D01*
X14411467D01*
X14595034Y4544138D02*
X14568947D01*
X8659498Y3866968D02*
G03X8667378Y3874838I5J7875D01*
G01Y3939798D01*
G02X8675248Y3947678I7870J10D01*
G01X8801228D01*
G02X8809108Y3939798I5J-7875D01*
G01Y3874838D01*
G03X8816978Y3866968I7870J0D01*
G01X8843065D01*
Y3807913D01*
X8292475Y3866968D02*
Y3807913D01*
X8843065D01*
X8292475Y3866968D02*
X8659498D01*
X9568947D02*
G03X9576827Y3874838I5J7875D01*
G01Y3939798D01*
G02X9584697Y3947678I7870J10D01*
G01X9710677D01*
G02X9718557Y3939798I5J-7875D01*
G01Y3874838D01*
G03X9726427Y3866968I7870J0D01*
G01X9752514D01*
Y3807913D01*
X9201923Y3866968D02*
Y3807913D01*
X9752514D01*
X9201923Y3866968D02*
X9568947D01*
X10478396D02*
G03X10486276Y3874838I5J7875D01*
G01Y3939798D01*
G02X10494146Y3947678I7870J10D01*
G01X10620126D01*
G02X10628006Y3939798I5J-7875D01*
G01Y3874838D01*
G03X10635876Y3866968I7870J0D01*
G01X10661963D01*
Y3807913D01*
X10111372Y3866968D02*
Y3807913D01*
X10661963D01*
X10111372Y3866968D02*
X10478396D01*
X12592569D02*
G03X12600449Y3874838I5J7875D01*
G01Y3939798D01*
G02X12608319Y3947678I7870J10D01*
G01X12734299D01*
G02X12742179Y3939798I5J-7875D01*
G01Y3874838D01*
G03X12750049Y3866968I7870J0D01*
G01X12776136D01*
Y3807913D01*
X12225545Y3866968D02*
Y3807913D01*
X12776136D01*
X12225545Y3866968D02*
X12592569D01*
X13502018D02*
G03X13509898Y3874838I5J7875D01*
G01Y3939798D01*
G02X13517768Y3947678I7870J10D01*
G01X13643748D01*
G02X13651628Y3939798I5J-7875D01*
G01Y3874838D01*
G03X13659498Y3866968I7870J0D01*
G01X13685585D01*
Y3807913D01*
X13134994Y3866968D02*
Y3807913D01*
X13685585D01*
X13134994Y3866968D02*
X13502018D01*
X14411467D02*
G03X14419347Y3874838I5J7875D01*
G01Y3939798D01*
G02X14427217Y3947678I7870J10D01*
G01X14553197D01*
G02X14561077Y3939798I5J-7875D01*
G01Y3874838D01*
G03X14568947Y3866968I7870J0D01*
G01X14595034D01*
Y3807913D01*
X14044443Y3866968D02*
Y3807913D01*
X14595034D01*
X14044443Y3866968D02*
X14411467D01*
G54D20*
X7075644Y3886725D03*
X14902416Y8941939D03*
Y3886741D03*
G54D21*
X7203597Y8990984D03*
X7412617D03*
X7412703Y8254763D03*
X8022291Y8990984D03*
X7412855Y3837440D03*
X10841392Y8990984D03*
X8322066D03*
X8322152Y8254763D03*
X8322304Y3837440D03*
X9231514Y8990984D03*
X9231600Y8254763D03*
X9231753Y3837440D03*
X10140963Y8990984D03*
X10141049Y8254763D03*
X10141201Y3837440D03*
X7412703Y7518543D03*
X8322152D03*
X9231600D03*
X10141049D03*
X7412703Y6782322D03*
X8322152D03*
X9231600D03*
X10141049D03*
X7412703Y6046102D03*
X8322152D03*
X9231600D03*
X10141049D03*
X7412703Y5309881D03*
X8322152D03*
X9231600D03*
X10141049D03*
X7412703Y4573661D03*
X8322152D03*
X9231600D03*
X10141049D03*
X8931739Y8990984D03*
X9841188D03*
X11136668D03*
X11345688D03*
X11345774Y8254763D03*
X11955362Y8990984D03*
X11345926Y3837440D03*
X14774463Y8990984D03*
X12255137D03*
X12255222Y8254763D03*
X12255375Y3837440D03*
X13164585Y8990984D03*
X13164671Y8254763D03*
X13164823Y3837440D03*
X14074034Y8990984D03*
X14074120Y8254763D03*
X14074272Y3837440D03*
X11345774Y7518543D03*
X12255222D03*
X13164671D03*
X14074120D03*
X11345774Y6782322D03*
X12255222D03*
X13164671D03*
X14074120D03*
X11345774Y6046102D03*
X12255222D03*
X13164671D03*
X14074120D03*
X11345774Y5309881D03*
X12255222D03*
X13164671D03*
X14074120D03*
X11345774Y4573661D03*
X12255222D03*
X13164671D03*
X14074120D03*
X12864810Y8990984D03*
X13774259D03*
M02*
