*
%FSLAX26Y26*%
%MOIN*%
%ADD10R,0.039980X0.039980*%
%ADD11C,0.012520*%
%ADD12R,0.043980X0.043980*%
%ADD13R,0.042327X0.042327*%
%ADD14R,0.016516X0.016516*%
%ADD15R,0.020516X0.020516*%
%ADD16R,0.018311X0.018311*%
%ADD17R,0.073429X0.073429*%
%ADD18R,0.037996X0.037996*%
%ADD19R,0.033996X0.033996*%
%ADD20R,0.026122X0.026122*%
%ADD21R,0.030122X0.030122*%
%ADD22C,0.057681*%
%ADD23R,0.014311X0.014311*%
%ADD24C,0.003937*%
%ADD25C,0.007874*%
%ADD26R,0.034532X0.034532*%
%ADD27C,0.009370*%
%ADD28R,0.030531X0.030531*%
%ADD29C,0.030122*%
%ADD30C,0.028122*%
%ADD31C,0.030181*%
%ADD32C,0.029756*%
%ADD33C,0.031756*%
%ADD34C,0.004000*%
%ADD35C,0.078992*%
%ADD36C,0.094740*%
%ADD37C,0.094819*%
%ADD38C,0.098425*%
%ADD39C,0.045370*%
%ADD40C,0.005000*%
%IPPOS*%
%LNset63.gts*%
%LPD*%
G75*
G54D10*
X4541467Y-2136225D02*
Y-2048666D01*
G54D11*
X4521477Y-2149955D02*
Y-2034936D01*
X4561457Y-2149955D02*
Y-2034936D01*
G54D12*
X4632018Y-2136225D02*
Y-2048666D01*
G54D11*
X4610028Y-2151955D02*
Y-2032936D01*
X4654008Y-2151955D02*
Y-2032936D01*
G54D12*
X4722373Y-2135792D02*
Y-2048233D01*
G54D11*
X4700382Y-2151522D02*
Y-2032503D01*
X4744363Y-2151522D02*
Y-2032503D01*
G54D12*
X4812845Y-2136776D02*
Y-2049217D01*
G54D11*
X4790855Y-2152506D02*
Y-2033487D01*
X4834835Y-2152506D02*
Y-2033487D01*
G54D13*
X4799813Y-1696304D02*
X4795876D01*
X4799813Y-1759296D02*
X4795876D01*
X4741939Y-1696304D02*
X4738002D01*
X4741939Y-1759296D02*
X4738002D01*
G54D14*
X4730443Y-1809394D02*
Y-1803528D01*
G54D15*
Y-1912268D02*
Y-1906402D01*
G54D14*
X4826349Y-1808804D02*
Y-1802938D01*
G54D15*
Y-1911678D02*
Y-1905812D01*
G54D16*
X4515876Y-1812839D02*
Y-1793154D01*
X4535562Y-1812839D02*
Y-1793154D01*
X4555247Y-1812839D02*
Y-1793154D01*
X4574932Y-1812839D02*
Y-1793154D01*
X4594617Y-1812839D02*
Y-1793154D01*
X4614302Y-1812839D02*
Y-1793154D01*
Y-1690792D02*
Y-1671107D01*
X4594617Y-1690792D02*
Y-1671107D01*
X4574932Y-1690792D02*
Y-1671107D01*
X4555247Y-1690792D02*
Y-1671107D01*
X4535562Y-1690792D02*
Y-1671107D01*
X4515876Y-1690792D02*
Y-1671107D01*
G54D17*
X4580837Y-1741973D02*
X4549341D01*
G54D18*
X4732412Y-1557013D02*
X4716664D01*
X4637924Y-1474335D02*
X4622176D01*
G54D19*
X4732412D02*
X4716664D01*
G54D18*
X4637924Y-1557013D02*
X4622176D01*
G54D20*
X4736349Y-1515674D02*
X4712727D01*
G54D21*
X4641861D02*
X4618239D01*
G54D22*
X4581506Y-1972918D03*
G54D22*
X4533593Y-1894178D03*
G54D23*
X4661546Y-1934532D02*
Y-1922721D01*
G54D24*
X4654390Y-1939719D02*
Y-1917534D01*
X4668701Y-1939719D02*
Y-1917534D01*
G54D16*
X4626113Y-1934532D02*
Y-1922721D01*
G54D24*
X4616957Y-1941719D02*
Y-1915534D01*
X4635268Y-1941719D02*
Y-1915534D01*
G54D23*
X4825916Y-1650083D02*
Y-1638272D01*
G54D24*
X4818760Y-1655270D02*
Y-1633085D01*
X4833071Y-1655270D02*
Y-1633085D01*
G54D16*
X4790483Y-1650083D02*
Y-1638272D01*
G54D24*
X4781327Y-1657270D02*
Y-1631085D01*
X4799638Y-1657270D02*
Y-1631085D01*
G54D20*
X4673357Y-1886304D02*
X4661546D01*
G54D25*
X4682481Y-1899365D02*
X4652422D01*
X4682481Y-1873243D02*
X4652422D01*
G54D21*
X4606428Y-1886304D02*
X4594617D01*
G54D25*
X4617552Y-1901365D02*
X4583493D01*
X4617552Y-1871243D02*
X4583493D01*
G54D26*
X4665246Y-1827249D02*
X4653908D01*
G54D27*
X4677827Y-1844515D02*
X4641327D01*
X4677827Y-1809983D02*
X4641327D01*
G54D28*
X4665247Y-1764257D02*
X4653908D01*
G54D27*
X4675827Y-1779522D02*
X4643327D01*
X4675827Y-1748991D02*
X4643327D01*
G54D23*
X4697963Y-1721934D02*
X4686152D01*
G54D24*
X4703150Y-1729089D02*
X4680965D01*
X4703150Y-1714778D02*
X4680965D01*
G54D16*
X4697963Y-1686501D02*
X4686152D01*
G54D24*
X4705150Y-1695656D02*
X4678965D01*
X4705150Y-1677345D02*
X4678965D01*
G54D29*
X4573239Y-1740201D03*
G54D29*
X4554341Y-1720950D03*
G54D30*
X4620207Y-2142209D03*
G54D30*
X4553278Y-2141225D03*
G54D29*
X4528672D03*
G54D31*
X4812136Y-1514257D03*
G54D31*
Y-1479808D03*
G54D31*
X4776546D03*
G54D31*
Y-1514296D03*
G54D31*
X4777688Y-1444375D03*
G54D31*
X4812569D03*
G54D31*
X4850475Y-1415564D03*
G54D31*
X4502034Y-1492603D03*
G54D31*
X4504034Y-1414894D03*
G54D32*
X4825916Y-2140194D03*
G54D32*
X4800325D03*
G54D33*
X4851459Y-1694375D03*
G54D33*
X4851617Y-1596028D03*
G54D33*
Y-1511264D03*
G54D33*
X4771231Y-1558548D03*
G54D33*
X4659577Y-1413595D03*
G54D33*
X4564774Y-1413201D03*
G54D33*
X4563121Y-1473902D03*
G54D33*
X4557530Y-1547170D03*
G54D33*
X4570995Y-1586973D03*
G54D33*
X4525719Y-1718981D03*
G54D33*
X4502105D03*
G54D33*
X4644813Y-1680595D03*
G54D33*
X4502144Y-2048705D03*
G54D33*
Y-2140753D03*
G54D32*
X4644577Y-2142209D03*
G54D32*
X4709223Y-2141934D03*
G54D32*
X4735168D03*
G54D16*
X4515876Y-1812839D02*
Y-1793154D01*
X4614302Y-1812839D02*
Y-1793154D01*
G54D18*
X4595304Y-1802997D02*
X4534874D01*
G54D16*
X4515876Y-1690792D02*
Y-1671107D01*
X4614302Y-1690792D02*
Y-1671107D01*
G54D18*
X4595304Y-1680950D02*
X4534874D01*
G54D10*
X4541467Y-1151973D02*
Y-1064414D01*
G54D11*
X4521477Y-1165703D02*
Y-1050684D01*
X4561457Y-1165703D02*
Y-1050684D01*
G54D12*
X4632018Y-1151973D02*
Y-1064414D01*
G54D11*
X4610028Y-1167703D02*
Y-1048684D01*
X4654008Y-1167703D02*
Y-1048684D01*
G54D12*
X4722373Y-1151540D02*
Y-1063981D01*
G54D11*
X4700382Y-1167270D02*
Y-1048251D01*
X4744363Y-1167270D02*
Y-1048251D01*
G54D12*
X4812845Y-1152524D02*
Y-1064965D01*
G54D11*
X4790855Y-1168254D02*
Y-1049235D01*
X4834835Y-1168254D02*
Y-1049235D01*
G54D13*
X4799813Y-712052D02*
X4795876D01*
X4799813Y-775044D02*
X4795876D01*
X4741939Y-712052D02*
X4738002D01*
X4741939Y-775044D02*
X4738002D01*
G54D14*
X4730443Y-825142D02*
Y-819276D01*
G54D15*
Y-928016D02*
Y-922150D01*
G54D14*
X4826349Y-824552D02*
Y-818686D01*
G54D15*
Y-927426D02*
Y-921560D01*
G54D16*
X4515876Y-828587D02*
Y-808902D01*
X4535562Y-828587D02*
Y-808902D01*
X4555247Y-828587D02*
Y-808902D01*
X4574932Y-828587D02*
Y-808902D01*
X4594617Y-828587D02*
Y-808902D01*
X4614302Y-828587D02*
Y-808902D01*
Y-706540D02*
Y-686855D01*
X4594617Y-706540D02*
Y-686855D01*
X4574932Y-706540D02*
Y-686855D01*
X4555247Y-706540D02*
Y-686855D01*
X4535562Y-706540D02*
Y-686855D01*
X4515876Y-706540D02*
Y-686855D01*
G54D17*
X4580837Y-757721D02*
X4549341D01*
G54D18*
X4732412Y-572761D02*
X4716664D01*
X4637924Y-490083D02*
X4622176D01*
G54D19*
X4732412D02*
X4716664D01*
G54D18*
X4637924Y-572761D02*
X4622176D01*
G54D20*
X4736349Y-531422D02*
X4712727D01*
G54D21*
X4641861D02*
X4618239D01*
G54D22*
X4581506Y-988666D03*
G54D22*
X4533593Y-909926D03*
G54D23*
X4661546Y-950280D02*
Y-938469D01*
G54D24*
X4654390Y-955467D02*
Y-933282D01*
X4668701Y-955467D02*
Y-933282D01*
G54D16*
X4626113Y-950280D02*
Y-938469D01*
G54D24*
X4616957Y-957467D02*
Y-931282D01*
X4635268Y-957467D02*
Y-931282D01*
G54D23*
X4825916Y-665831D02*
Y-654020D01*
G54D24*
X4818760Y-671018D02*
Y-648833D01*
X4833071Y-671018D02*
Y-648833D01*
G54D16*
X4790483Y-665831D02*
Y-654020D01*
G54D24*
X4781327Y-673018D02*
Y-646833D01*
X4799638Y-673018D02*
Y-646833D01*
G54D20*
X4673357Y-902052D02*
X4661546D01*
G54D25*
X4682481Y-915113D02*
X4652422D01*
X4682481Y-888991D02*
X4652422D01*
G54D21*
X4606428Y-902052D02*
X4594617D01*
G54D25*
X4617552Y-917113D02*
X4583493D01*
X4617552Y-886991D02*
X4583493D01*
G54D26*
X4665246Y-842997D02*
X4653908D01*
G54D27*
X4677827Y-860263D02*
X4641327D01*
X4677827Y-825731D02*
X4641327D01*
G54D28*
X4665247Y-780005D02*
X4653908D01*
G54D27*
X4675827Y-795270D02*
X4643327D01*
X4675827Y-764739D02*
X4643327D01*
G54D23*
X4697963Y-737682D02*
X4686152D01*
G54D24*
X4703150Y-744837D02*
X4680965D01*
X4703150Y-730526D02*
X4680965D01*
G54D16*
X4697963Y-702249D02*
X4686152D01*
G54D24*
X4705150Y-711404D02*
X4678965D01*
X4705150Y-693093D02*
X4678965D01*
G54D29*
X4573239Y-755950D03*
G54D29*
X4554341Y-736698D03*
G54D30*
X4620207Y-1157957D03*
G54D30*
X4553278Y-1156973D03*
G54D29*
X4528672D03*
G54D31*
X4812136Y-530005D03*
G54D31*
Y-495556D03*
G54D31*
X4776546D03*
G54D31*
Y-530044D03*
G54D31*
X4777688Y-460123D03*
G54D31*
X4812569D03*
G54D31*
X4850475Y-431312D03*
G54D31*
X4502034Y-508351D03*
G54D31*
X4504034Y-430642D03*
G54D32*
X4825916Y-1155942D03*
G54D32*
X4800325D03*
G54D33*
X4851459Y-710123D03*
G54D33*
X4851617Y-611776D03*
G54D33*
Y-527013D03*
G54D33*
X4771231Y-574296D03*
G54D33*
X4659577Y-429343D03*
G54D33*
X4564774Y-428950D03*
G54D33*
X4563121Y-489650D03*
G54D33*
X4557530Y-562918D03*
G54D33*
X4570995Y-602721D03*
G54D33*
X4525719Y-734729D03*
G54D33*
X4502105D03*
G54D33*
X4644813Y-696343D03*
G54D33*
X4502144Y-1064453D03*
G54D33*
Y-1156501D03*
G54D32*
X4644577Y-1157957D03*
G54D32*
X4709223Y-1157682D03*
G54D32*
X4735168D03*
G54D16*
X4515876Y-828587D02*
Y-808902D01*
X4614302Y-828587D02*
Y-808902D01*
G54D18*
X4595304Y-818745D02*
X4534874D01*
G54D16*
X4515876Y-706540D02*
Y-686855D01*
X4614302Y-706540D02*
Y-686855D01*
G54D18*
X4595304Y-696698D02*
X4534874D01*
G54D10*
X4541467Y-167721D02*
Y-80162D01*
G54D11*
X4521477Y-181451D02*
Y-66432D01*
X4561457Y-181451D02*
Y-66432D01*
G54D12*
X4632018Y-167721D02*
Y-80162D01*
G54D11*
X4610028Y-183451D02*
Y-64432D01*
X4654008Y-183451D02*
Y-64432D01*
G54D12*
X4722373Y-167288D02*
Y-79729D01*
G54D11*
X4700382Y-183018D02*
Y-63999D01*
X4744363Y-183018D02*
Y-63999D01*
G54D12*
X4812845Y-168272D02*
Y-80713D01*
G54D11*
X4790855Y-184002D02*
Y-64983D01*
X4834835Y-184002D02*
Y-64983D01*
G54D13*
X4799813Y272200D02*
X4795876D01*
X4799813Y209208D02*
X4795876D01*
X4741939Y272200D02*
X4738002D01*
X4741939Y209208D02*
X4738002D01*
G54D14*
X4730443Y159110D02*
Y164976D01*
G54D15*
Y56236D02*
Y62102D01*
G54D14*
X4826349Y159700D02*
Y165566D01*
G54D15*
Y56826D02*
Y62692D01*
G54D16*
X4515876Y155665D02*
Y175350D01*
X4535562Y155665D02*
Y175350D01*
X4555247Y155665D02*
Y175350D01*
X4574932Y155665D02*
Y175350D01*
X4594617Y155665D02*
Y175350D01*
X4614302Y155665D02*
Y175350D01*
Y277712D02*
Y297397D01*
X4594617Y277712D02*
Y297397D01*
X4574932Y277712D02*
Y297397D01*
X4555247Y277712D02*
Y297397D01*
X4535562Y277712D02*
Y297397D01*
X4515876Y277712D02*
Y297397D01*
G54D17*
X4580837Y226531D02*
X4549341D01*
G54D18*
X4732412Y411491D02*
X4716664D01*
X4637924Y494169D02*
X4622176D01*
G54D19*
X4732412D02*
X4716664D01*
G54D18*
X4637924Y411491D02*
X4622176D01*
G54D20*
X4736349Y452830D02*
X4712727D01*
G54D21*
X4641861D02*
X4618239D01*
G54D22*
X4581506Y-4414D03*
G54D22*
X4533593Y74326D03*
G54D23*
X4661546Y33972D02*
Y45783D01*
G54D24*
X4654390Y28785D02*
Y50970D01*
X4668701Y28785D02*
Y50970D01*
G54D16*
X4626113Y33972D02*
Y45783D01*
G54D24*
X4616957Y26785D02*
Y52970D01*
X4635268Y26785D02*
Y52970D01*
G54D23*
X4825916Y318421D02*
Y330232D01*
G54D24*
X4818760Y313234D02*
Y335419D01*
X4833071Y313234D02*
Y335419D01*
G54D16*
X4790483Y318421D02*
Y330232D01*
G54D24*
X4781327Y311234D02*
Y337419D01*
X4799638Y311234D02*
Y337419D01*
G54D20*
X4673357Y82200D02*
X4661546D01*
G54D25*
X4682481Y69139D02*
X4652422D01*
X4682481Y95261D02*
X4652422D01*
G54D21*
X4606428Y82200D02*
X4594617D01*
G54D25*
X4617552Y67139D02*
X4583493D01*
X4617552Y97261D02*
X4583493D01*
G54D26*
X4665246Y141255D02*
X4653908D01*
G54D27*
X4677827Y123989D02*
X4641327D01*
X4677827Y158521D02*
X4641327D01*
G54D28*
X4665247Y204247D02*
X4653908D01*
G54D27*
X4675827Y188982D02*
X4643327D01*
X4675827Y219513D02*
X4643327D01*
G54D23*
X4697963Y246570D02*
X4686152D01*
G54D24*
X4703150Y239415D02*
X4680965D01*
X4703150Y253726D02*
X4680965D01*
G54D16*
X4697963Y282003D02*
X4686152D01*
G54D24*
X4705150Y272848D02*
X4678965D01*
X4705150Y291159D02*
X4678965D01*
G54D29*
X4573239Y228302D03*
G54D29*
X4554341Y247554D03*
G54D30*
X4620207Y-173705D03*
G54D30*
X4553278Y-172721D03*
G54D29*
X4528672D03*
G54D31*
X4812136Y454247D03*
G54D31*
Y488696D03*
G54D31*
X4776546D03*
G54D31*
Y454208D03*
G54D31*
X4777688Y524129D03*
G54D31*
X4812569D03*
G54D31*
X4850475Y552940D03*
G54D31*
X4502034Y475901D03*
G54D31*
X4504034Y553610D03*
G54D32*
X4825916Y-171690D03*
G54D32*
X4800325D03*
G54D33*
X4851459Y274129D03*
G54D33*
X4851617Y372476D03*
G54D33*
Y457239D03*
G54D33*
X4771231Y409956D03*
G54D33*
X4659577Y554909D03*
G54D33*
X4564774Y555302D03*
G54D33*
X4563121Y494602D03*
G54D33*
X4557530Y421334D03*
G54D33*
X4570995Y381531D03*
G54D33*
X4525719Y249523D03*
G54D33*
X4502105D03*
G54D33*
X4644813Y287909D03*
G54D33*
X4502144Y-80201D03*
G54D33*
Y-172249D03*
G54D32*
X4644577Y-173705D03*
G54D32*
X4709223Y-173430D03*
G54D32*
X4735168D03*
G54D16*
X4515876Y155665D02*
Y175350D01*
X4614302Y155665D02*
Y175350D01*
G54D18*
X4595304Y165507D02*
X4534874D01*
G54D16*
X4515876Y277712D02*
Y297397D01*
X4614302Y277712D02*
Y297397D01*
G54D18*
X4595304Y287554D02*
X4534874D01*
G54D10*
X4541467Y816531D02*
Y904090D01*
G54D11*
X4521477Y802800D02*
Y917820D01*
X4561457Y802800D02*
Y917820D01*
G54D12*
X4632018Y816531D02*
Y904090D01*
G54D11*
X4610028Y800801D02*
Y919820D01*
X4654008Y800801D02*
Y919820D01*
G54D12*
X4722373Y816964D02*
Y904523D01*
G54D11*
X4700382Y801234D02*
Y920253D01*
X4744363Y801234D02*
Y920253D01*
G54D12*
X4812845Y815980D02*
Y903538D01*
G54D11*
X4790855Y800250D02*
Y919269D01*
X4834835Y800250D02*
Y919269D01*
G54D13*
X4799813Y1256452D02*
X4795876D01*
X4799813Y1193460D02*
X4795876D01*
X4741939Y1256452D02*
X4738002D01*
X4741939Y1193460D02*
X4738002D01*
G54D14*
X4730443Y1143362D02*
Y1149228D01*
G54D15*
Y1040488D02*
Y1046354D01*
G54D14*
X4826349Y1143952D02*
Y1149818D01*
G54D15*
Y1041078D02*
Y1046944D01*
G54D16*
X4515876Y1139917D02*
Y1159602D01*
X4535562Y1139917D02*
Y1159602D01*
X4555247Y1139917D02*
Y1159602D01*
X4574932Y1139917D02*
Y1159602D01*
X4594617Y1139917D02*
Y1159602D01*
X4614302Y1139917D02*
Y1159602D01*
Y1261964D02*
Y1281649D01*
X4594617Y1261964D02*
Y1281649D01*
X4574932Y1261964D02*
Y1281649D01*
X4555247Y1261964D02*
Y1281649D01*
X4535562Y1261964D02*
Y1281649D01*
X4515876Y1261964D02*
Y1281649D01*
G54D17*
X4580837Y1210783D02*
X4549341D01*
G54D18*
X4732412Y1395743D02*
X4716664D01*
X4637924Y1478421D02*
X4622176D01*
G54D19*
X4732412D02*
X4716664D01*
G54D18*
X4637924Y1395743D02*
X4622176D01*
G54D20*
X4736349Y1437082D02*
X4712727D01*
G54D21*
X4641861D02*
X4618239D01*
G54D22*
X4581506Y979838D03*
G54D22*
X4533593Y1058578D03*
G54D23*
X4661546Y1018224D02*
Y1030035D01*
G54D24*
X4654390Y1013037D02*
Y1035222D01*
X4668701Y1013037D02*
Y1035222D01*
G54D16*
X4626113Y1018224D02*
Y1030035D01*
G54D24*
X4616957Y1011037D02*
Y1037222D01*
X4635268Y1011037D02*
Y1037222D01*
G54D23*
X4825916Y1302673D02*
Y1314484D01*
G54D24*
X4818760Y1297486D02*
Y1319671D01*
X4833071Y1297486D02*
Y1319671D01*
G54D16*
X4790483Y1302673D02*
Y1314484D01*
G54D24*
X4781327Y1295486D02*
Y1321671D01*
X4799638Y1295486D02*
Y1321671D01*
G54D20*
X4673357Y1066452D02*
X4661546D01*
G54D25*
X4682481Y1053391D02*
X4652422D01*
X4682481Y1079513D02*
X4652422D01*
G54D21*
X4606428Y1066452D02*
X4594617D01*
G54D25*
X4617552Y1051391D02*
X4583493D01*
X4617552Y1081513D02*
X4583493D01*
G54D26*
X4665246Y1125507D02*
X4653908D01*
G54D27*
X4677827Y1108241D02*
X4641327D01*
X4677827Y1142773D02*
X4641327D01*
G54D28*
X4665247Y1188499D02*
X4653908D01*
G54D27*
X4675827Y1173234D02*
X4643327D01*
X4675827Y1203765D02*
X4643327D01*
G54D23*
X4697963Y1230822D02*
X4686152D01*
G54D24*
X4703150Y1223667D02*
X4680965D01*
X4703150Y1237978D02*
X4680965D01*
G54D16*
X4697963Y1266255D02*
X4686152D01*
G54D24*
X4705150Y1257100D02*
X4678965D01*
X4705150Y1275411D02*
X4678965D01*
G54D29*
X4573239Y1212554D03*
G54D29*
X4554341Y1231806D03*
G54D30*
X4620207Y810547D03*
G54D30*
X4553278Y811531D03*
G54D29*
X4528672D03*
G54D31*
X4812136Y1438499D03*
G54D31*
Y1472948D03*
G54D31*
X4776546D03*
G54D31*
Y1438460D03*
G54D31*
X4777688Y1508381D03*
G54D31*
X4812569D03*
G54D31*
X4850475Y1537192D03*
G54D31*
X4502034Y1460153D03*
G54D31*
X4504034Y1537862D03*
G54D32*
X4825916Y812562D03*
G54D32*
X4800325D03*
G54D33*
X4851459Y1258381D03*
G54D33*
X4851617Y1356728D03*
G54D33*
Y1441491D03*
G54D33*
X4771231Y1394208D03*
G54D33*
X4659577Y1539161D03*
G54D33*
X4564774Y1539554D03*
G54D33*
X4563121Y1478854D03*
G54D33*
X4557530Y1405586D03*
G54D33*
X4570995Y1365783D03*
G54D33*
X4525719Y1233775D03*
G54D33*
X4502105D03*
G54D33*
X4644813Y1272161D03*
G54D33*
X4502144Y904050D03*
G54D33*
Y812003D03*
G54D32*
X4644577Y810547D03*
G54D32*
X4709223Y810822D03*
G54D32*
X4735168D03*
G54D16*
X4515876Y1139917D02*
Y1159602D01*
X4614302Y1139917D02*
Y1159602D01*
G54D18*
X4595304Y1149759D02*
X4534874D01*
G54D16*
X4515876Y1261964D02*
Y1281649D01*
X4614302Y1261964D02*
Y1281649D01*
G54D18*
X4595304Y1271806D02*
X4534874D01*
G54D10*
X4541467Y1800783D02*
Y1888342D01*
G54D11*
X4521477Y1787052D02*
Y1902072D01*
X4561457Y1787052D02*
Y1902072D01*
G54D12*
X4632018Y1800783D02*
Y1888342D01*
G54D11*
X4610028Y1785053D02*
Y1904072D01*
X4654008Y1785053D02*
Y1904072D01*
G54D12*
X4722373Y1801216D02*
Y1888775D01*
G54D11*
X4700382Y1785486D02*
Y1904505D01*
X4744363Y1785486D02*
Y1904505D01*
G54D12*
X4812845Y1800232D02*
Y1887790D01*
G54D11*
X4790855Y1784501D02*
Y1903521D01*
X4834835Y1784501D02*
Y1903521D01*
G54D13*
X4799813Y2240704D02*
X4795876D01*
X4799813Y2177712D02*
X4795876D01*
X4741939Y2240704D02*
X4738002D01*
X4741939Y2177712D02*
X4738002D01*
G54D14*
X4730443Y2127613D02*
Y2133480D01*
G54D15*
Y2024740D02*
Y2030606D01*
G54D14*
X4826349Y2128204D02*
Y2134070D01*
G54D15*
Y2025330D02*
Y2031196D01*
G54D16*
X4515876Y2124169D02*
Y2143854D01*
X4535562Y2124169D02*
Y2143854D01*
X4555247Y2124169D02*
Y2143854D01*
X4574932Y2124169D02*
Y2143854D01*
X4594617Y2124169D02*
Y2143854D01*
X4614302Y2124169D02*
Y2143854D01*
Y2246216D02*
Y2265901D01*
X4594617Y2246216D02*
Y2265901D01*
X4574932Y2246216D02*
Y2265901D01*
X4555247Y2246216D02*
Y2265901D01*
X4535562Y2246216D02*
Y2265901D01*
X4515876Y2246216D02*
Y2265901D01*
G54D17*
X4580837Y2195035D02*
X4549341D01*
G54D18*
X4732412Y2379995D02*
X4716664D01*
X4637924Y2462673D02*
X4622176D01*
G54D19*
X4732412D02*
X4716664D01*
G54D18*
X4637924Y2379995D02*
X4622176D01*
G54D20*
X4736349Y2421334D02*
X4712727D01*
G54D21*
X4641861D02*
X4618239D01*
G54D22*
X4581506Y1964090D03*
G54D22*
X4533593Y2042830D03*
G54D23*
X4661546Y2002476D02*
Y2014287D01*
G54D24*
X4654390Y1997289D02*
Y2019474D01*
X4668701Y1997289D02*
Y2019474D01*
G54D16*
X4626113Y2002476D02*
Y2014287D01*
G54D24*
X4616957Y1995289D02*
Y2021474D01*
X4635268Y1995289D02*
Y2021474D01*
G54D23*
X4825916Y2286925D02*
Y2298736D01*
G54D24*
X4818760Y2281738D02*
Y2303923D01*
X4833071Y2281738D02*
Y2303923D01*
G54D16*
X4790483Y2286925D02*
Y2298736D01*
G54D24*
X4781327Y2279738D02*
Y2305923D01*
X4799638Y2279738D02*
Y2305923D01*
G54D20*
X4673357Y2050704D02*
X4661546D01*
G54D25*
X4682481Y2037643D02*
X4652422D01*
X4682481Y2063765D02*
X4652422D01*
G54D21*
X4606428Y2050704D02*
X4594617D01*
G54D25*
X4617552Y2035643D02*
X4583493D01*
X4617552Y2065765D02*
X4583493D01*
G54D26*
X4665246Y2109759D02*
X4653908D01*
G54D27*
X4677827Y2092493D02*
X4641327D01*
X4677827Y2127025D02*
X4641327D01*
G54D28*
X4665247Y2172751D02*
X4653908D01*
G54D27*
X4675827Y2157486D02*
X4643327D01*
X4675827Y2188017D02*
X4643327D01*
G54D23*
X4697963Y2215074D02*
X4686152D01*
G54D24*
X4703150Y2207919D02*
X4680965D01*
X4703150Y2222230D02*
X4680965D01*
G54D16*
X4697963Y2250507D02*
X4686152D01*
G54D24*
X4705150Y2241352D02*
X4678965D01*
X4705150Y2259663D02*
X4678965D01*
G54D29*
X4573239Y2196806D03*
G54D29*
X4554341Y2216058D03*
G54D30*
X4620207Y1794799D03*
G54D30*
X4553278Y1795783D03*
G54D29*
X4528672D03*
G54D31*
X4812136Y2422751D03*
G54D31*
Y2457200D03*
G54D31*
X4776546D03*
G54D31*
Y2422712D03*
G54D31*
X4777688Y2492633D03*
G54D31*
X4812569D03*
G54D31*
X4850475Y2521444D03*
G54D31*
X4502034Y2444405D03*
G54D31*
X4504034Y2522113D03*
G54D32*
X4825916Y1796814D03*
G54D32*
X4800325D03*
G54D33*
X4851459Y2242633D03*
G54D33*
X4851617Y2340980D03*
G54D33*
Y2425743D03*
G54D33*
X4771231Y2378460D03*
G54D33*
X4659577Y2523413D03*
G54D33*
X4564774Y2523806D03*
G54D33*
X4563121Y2463106D03*
G54D33*
X4557530Y2389838D03*
G54D33*
X4570995Y2350035D03*
G54D33*
X4525719Y2218027D03*
G54D33*
X4502105D03*
G54D33*
X4644813Y2256413D03*
G54D33*
X4502144Y1888302D03*
G54D33*
Y1796255D03*
G54D32*
X4644577Y1794799D03*
G54D32*
X4709223Y1795074D03*
G54D32*
X4735168D03*
G54D16*
X4515876Y2124169D02*
Y2143854D01*
X4614302Y2124169D02*
Y2143854D01*
G54D18*
X4595304Y2134011D02*
X4534874D01*
G54D16*
X4515876Y2246216D02*
Y2265901D01*
X4614302Y2246216D02*
Y2265901D01*
G54D18*
X4595304Y2256058D02*
X4534874D01*
G54D10*
X5029656Y-2136225D02*
Y-2048666D01*
G54D11*
X5009666Y-2149955D02*
Y-2034936D01*
X5049646Y-2149955D02*
Y-2034936D01*
G54D12*
X5120207Y-2136225D02*
Y-2048666D01*
G54D11*
X5098217Y-2151955D02*
Y-2032936D01*
X5142197Y-2151955D02*
Y-2032936D01*
G54D12*
X5210562Y-2135792D02*
Y-2048233D01*
G54D11*
X5188571Y-2151522D02*
Y-2032503D01*
X5232552Y-2151522D02*
Y-2032503D01*
G54D12*
X5301034Y-2136776D02*
Y-2049217D01*
G54D11*
X5279044Y-2152506D02*
Y-2033487D01*
X5323024Y-2152506D02*
Y-2033487D01*
G54D13*
X5288002Y-1696304D02*
X5284065D01*
X5288002Y-1759296D02*
X5284065D01*
X5230128Y-1696304D02*
X5226191D01*
X5230128Y-1759296D02*
X5226191D01*
G54D14*
X5218632Y-1809394D02*
Y-1803528D01*
G54D15*
Y-1912268D02*
Y-1906402D01*
G54D14*
X5314538Y-1808804D02*
Y-1802938D01*
G54D15*
Y-1911678D02*
Y-1905812D01*
G54D16*
X5004065Y-1812839D02*
Y-1793154D01*
X5023750Y-1812839D02*
Y-1793154D01*
X5043436Y-1812839D02*
Y-1793154D01*
X5063121Y-1812839D02*
Y-1793154D01*
X5082806Y-1812839D02*
Y-1793154D01*
X5102491Y-1812839D02*
Y-1793154D01*
Y-1690792D02*
Y-1671107D01*
X5082806Y-1690792D02*
Y-1671107D01*
X5063121Y-1690792D02*
Y-1671107D01*
X5043436Y-1690792D02*
Y-1671107D01*
X5023750Y-1690792D02*
Y-1671107D01*
X5004065Y-1690792D02*
Y-1671107D01*
G54D17*
X5069026Y-1741973D02*
X5037530D01*
G54D18*
X5220601Y-1557013D02*
X5204853D01*
X5126113Y-1474335D02*
X5110365D01*
G54D19*
X5220601D02*
X5204853D01*
G54D18*
X5126113Y-1557013D02*
X5110365D01*
G54D20*
X5224538Y-1515674D02*
X5200916D01*
G54D21*
X5130050D02*
X5106428D01*
G54D22*
X5069695Y-1972918D03*
G54D22*
X5021782Y-1894178D03*
G54D23*
X5149735Y-1934532D02*
Y-1922721D01*
G54D24*
X5142579Y-1939719D02*
Y-1917534D01*
X5156890Y-1939719D02*
Y-1917534D01*
G54D16*
X5114302Y-1934532D02*
Y-1922721D01*
G54D24*
X5105146Y-1941719D02*
Y-1915534D01*
X5123457Y-1941719D02*
Y-1915534D01*
G54D23*
X5314105Y-1650083D02*
Y-1638272D01*
G54D24*
X5306949Y-1655270D02*
Y-1633085D01*
X5321260Y-1655270D02*
Y-1633085D01*
G54D16*
X5278672Y-1650083D02*
Y-1638272D01*
G54D24*
X5269516Y-1657270D02*
Y-1631085D01*
X5287827Y-1657270D02*
Y-1631085D01*
G54D20*
X5161546Y-1886304D02*
X5149735D01*
G54D25*
X5170670Y-1899365D02*
X5140611D01*
X5170670Y-1873243D02*
X5140611D01*
G54D21*
X5094617Y-1886304D02*
X5082806D01*
G54D25*
X5105741Y-1901365D02*
X5071682D01*
X5105741Y-1871243D02*
X5071682D01*
G54D26*
X5153435Y-1827249D02*
X5142097D01*
G54D27*
X5166016Y-1844515D02*
X5129516D01*
X5166016Y-1809983D02*
X5129516D01*
G54D28*
X5153436Y-1764257D02*
X5142097D01*
G54D27*
X5164016Y-1779522D02*
X5131516D01*
X5164016Y-1748991D02*
X5131516D01*
G54D23*
X5186152Y-1721934D02*
X5174341D01*
G54D24*
X5191339Y-1729089D02*
X5169154D01*
X5191339Y-1714778D02*
X5169154D01*
G54D16*
X5186152Y-1686501D02*
X5174341D01*
G54D24*
X5193339Y-1695656D02*
X5167154D01*
X5193339Y-1677345D02*
X5167154D01*
G54D29*
X5061428Y-1740201D03*
G54D29*
X5042530Y-1720950D03*
G54D30*
X5108396Y-2142209D03*
G54D30*
X5041467Y-2141225D03*
G54D29*
X5016861D03*
G54D31*
X5300325Y-1514257D03*
G54D31*
Y-1479808D03*
G54D31*
X5264735D03*
G54D31*
Y-1514296D03*
G54D31*
X5265876Y-1444375D03*
G54D31*
X5300758D03*
G54D31*
X5338664Y-1415564D03*
G54D31*
X4990223Y-1492603D03*
G54D31*
X4992223Y-1414894D03*
G54D32*
X5314105Y-2140194D03*
G54D32*
X5288514D03*
G54D33*
X5339648Y-1694375D03*
G54D33*
X5339806Y-1596028D03*
G54D33*
Y-1511264D03*
G54D33*
X5259420Y-1558548D03*
G54D33*
X5147766Y-1413595D03*
G54D33*
X5052963Y-1413201D03*
G54D33*
X5051310Y-1473902D03*
G54D33*
X5045719Y-1547170D03*
G54D33*
X5059184Y-1586973D03*
G54D33*
X5013908Y-1718981D03*
G54D33*
X4990294D03*
G54D33*
X5133002Y-1680595D03*
G54D33*
X4990333Y-2048705D03*
G54D33*
Y-2140753D03*
G54D32*
X5132766Y-2142209D03*
G54D32*
X5197412Y-2141934D03*
G54D32*
X5223357D03*
G54D16*
X5004065Y-1812839D02*
Y-1793154D01*
X5102491Y-1812839D02*
Y-1793154D01*
G54D18*
X5083493Y-1802997D02*
X5023063D01*
G54D16*
X5004065Y-1690792D02*
Y-1671107D01*
X5102491Y-1690792D02*
Y-1671107D01*
G54D18*
X5083493Y-1680950D02*
X5023063D01*
G54D10*
X5029656Y-1151973D02*
Y-1064414D01*
G54D11*
X5009666Y-1165703D02*
Y-1050684D01*
X5049646Y-1165703D02*
Y-1050684D01*
G54D12*
X5120207Y-1151973D02*
Y-1064414D01*
G54D11*
X5098217Y-1167703D02*
Y-1048684D01*
X5142197Y-1167703D02*
Y-1048684D01*
G54D12*
X5210562Y-1151540D02*
Y-1063981D01*
G54D11*
X5188571Y-1167270D02*
Y-1048251D01*
X5232552Y-1167270D02*
Y-1048251D01*
G54D12*
X5301034Y-1152524D02*
Y-1064965D01*
G54D11*
X5279044Y-1168254D02*
Y-1049235D01*
X5323024Y-1168254D02*
Y-1049235D01*
G54D13*
X5288002Y-712052D02*
X5284065D01*
X5288002Y-775044D02*
X5284065D01*
X5230128Y-712052D02*
X5226191D01*
X5230128Y-775044D02*
X5226191D01*
G54D14*
X5218632Y-825142D02*
Y-819276D01*
G54D15*
Y-928016D02*
Y-922150D01*
G54D14*
X5314538Y-824552D02*
Y-818686D01*
G54D15*
Y-927426D02*
Y-921560D01*
G54D16*
X5004065Y-828587D02*
Y-808902D01*
X5023750Y-828587D02*
Y-808902D01*
X5043436Y-828587D02*
Y-808902D01*
X5063121Y-828587D02*
Y-808902D01*
X5082806Y-828587D02*
Y-808902D01*
X5102491Y-828587D02*
Y-808902D01*
Y-706540D02*
Y-686855D01*
X5082806Y-706540D02*
Y-686855D01*
X5063121Y-706540D02*
Y-686855D01*
X5043436Y-706540D02*
Y-686855D01*
X5023750Y-706540D02*
Y-686855D01*
X5004065Y-706540D02*
Y-686855D01*
G54D17*
X5069026Y-757721D02*
X5037530D01*
G54D18*
X5220601Y-572761D02*
X5204853D01*
X5126113Y-490083D02*
X5110365D01*
G54D19*
X5220601D02*
X5204853D01*
G54D18*
X5126113Y-572761D02*
X5110365D01*
G54D20*
X5224538Y-531422D02*
X5200916D01*
G54D21*
X5130050D02*
X5106428D01*
G54D22*
X5069695Y-988666D03*
G54D22*
X5021782Y-909926D03*
G54D23*
X5149735Y-950280D02*
Y-938469D01*
G54D24*
X5142579Y-955467D02*
Y-933282D01*
X5156890Y-955467D02*
Y-933282D01*
G54D16*
X5114302Y-950280D02*
Y-938469D01*
G54D24*
X5105146Y-957467D02*
Y-931282D01*
X5123457Y-957467D02*
Y-931282D01*
G54D23*
X5314105Y-665831D02*
Y-654020D01*
G54D24*
X5306949Y-671018D02*
Y-648833D01*
X5321260Y-671018D02*
Y-648833D01*
G54D16*
X5278672Y-665831D02*
Y-654020D01*
G54D24*
X5269516Y-673018D02*
Y-646833D01*
X5287827Y-673018D02*
Y-646833D01*
G54D20*
X5161546Y-902052D02*
X5149735D01*
G54D25*
X5170670Y-915113D02*
X5140611D01*
X5170670Y-888991D02*
X5140611D01*
G54D21*
X5094617Y-902052D02*
X5082806D01*
G54D25*
X5105741Y-917113D02*
X5071682D01*
X5105741Y-886991D02*
X5071682D01*
G54D26*
X5153435Y-842997D02*
X5142097D01*
G54D27*
X5166016Y-860263D02*
X5129516D01*
X5166016Y-825731D02*
X5129516D01*
G54D28*
X5153436Y-780005D02*
X5142097D01*
G54D27*
X5164016Y-795270D02*
X5131516D01*
X5164016Y-764739D02*
X5131516D01*
G54D23*
X5186152Y-737682D02*
X5174341D01*
G54D24*
X5191339Y-744837D02*
X5169154D01*
X5191339Y-730526D02*
X5169154D01*
G54D16*
X5186152Y-702249D02*
X5174341D01*
G54D24*
X5193339Y-711404D02*
X5167154D01*
X5193339Y-693093D02*
X5167154D01*
G54D29*
X5061428Y-755950D03*
G54D29*
X5042530Y-736698D03*
G54D30*
X5108396Y-1157957D03*
G54D30*
X5041467Y-1156973D03*
G54D29*
X5016861D03*
G54D31*
X5300325Y-530005D03*
G54D31*
Y-495556D03*
G54D31*
X5264735D03*
G54D31*
Y-530044D03*
G54D31*
X5265876Y-460123D03*
G54D31*
X5300758D03*
G54D31*
X5338664Y-431312D03*
G54D31*
X4990223Y-508351D03*
G54D31*
X4992223Y-430642D03*
G54D32*
X5314105Y-1155942D03*
G54D32*
X5288514D03*
G54D33*
X5339648Y-710123D03*
G54D33*
X5339806Y-611776D03*
G54D33*
Y-527013D03*
G54D33*
X5259420Y-574296D03*
G54D33*
X5147766Y-429343D03*
G54D33*
X5052963Y-428950D03*
G54D33*
X5051310Y-489650D03*
G54D33*
X5045719Y-562918D03*
G54D33*
X5059184Y-602721D03*
G54D33*
X5013908Y-734729D03*
G54D33*
X4990294D03*
G54D33*
X5133002Y-696343D03*
G54D33*
X4990333Y-1064453D03*
G54D33*
Y-1156501D03*
G54D32*
X5132766Y-1157957D03*
G54D32*
X5197412Y-1157682D03*
G54D32*
X5223357D03*
G54D16*
X5004065Y-828587D02*
Y-808902D01*
X5102491Y-828587D02*
Y-808902D01*
G54D18*
X5083493Y-818745D02*
X5023063D01*
G54D16*
X5004065Y-706540D02*
Y-686855D01*
X5102491Y-706540D02*
Y-686855D01*
G54D18*
X5083493Y-696698D02*
X5023063D01*
G54D10*
X5029656Y-167721D02*
Y-80162D01*
G54D11*
X5009666Y-181451D02*
Y-66432D01*
X5049646Y-181451D02*
Y-66432D01*
G54D12*
X5120207Y-167721D02*
Y-80162D01*
G54D11*
X5098217Y-183451D02*
Y-64432D01*
X5142197Y-183451D02*
Y-64432D01*
G54D12*
X5210562Y-167288D02*
Y-79729D01*
G54D11*
X5188571Y-183018D02*
Y-63999D01*
X5232552Y-183018D02*
Y-63999D01*
G54D12*
X5301034Y-168272D02*
Y-80713D01*
G54D11*
X5279044Y-184002D02*
Y-64983D01*
X5323024Y-184002D02*
Y-64983D01*
G54D13*
X5288002Y272200D02*
X5284065D01*
X5288002Y209208D02*
X5284065D01*
X5230128Y272200D02*
X5226191D01*
X5230128Y209208D02*
X5226191D01*
G54D14*
X5218632Y159110D02*
Y164976D01*
G54D15*
Y56236D02*
Y62102D01*
G54D14*
X5314538Y159700D02*
Y165566D01*
G54D15*
Y56826D02*
Y62692D01*
G54D16*
X5004065Y155665D02*
Y175350D01*
X5023750Y155665D02*
Y175350D01*
X5043436Y155665D02*
Y175350D01*
X5063121Y155665D02*
Y175350D01*
X5082806Y155665D02*
Y175350D01*
X5102491Y155665D02*
Y175350D01*
Y277712D02*
Y297397D01*
X5082806Y277712D02*
Y297397D01*
X5063121Y277712D02*
Y297397D01*
X5043436Y277712D02*
Y297397D01*
X5023750Y277712D02*
Y297397D01*
X5004065Y277712D02*
Y297397D01*
G54D17*
X5069026Y226531D02*
X5037530D01*
G54D18*
X5220601Y411491D02*
X5204853D01*
X5126113Y494169D02*
X5110365D01*
G54D19*
X5220601D02*
X5204853D01*
G54D18*
X5126113Y411491D02*
X5110365D01*
G54D20*
X5224538Y452830D02*
X5200916D01*
G54D21*
X5130050D02*
X5106428D01*
G54D22*
X5069695Y-4414D03*
G54D22*
X5021782Y74326D03*
G54D23*
X5149735Y33972D02*
Y45783D01*
G54D24*
X5142579Y28785D02*
Y50970D01*
X5156890Y28785D02*
Y50970D01*
G54D16*
X5114302Y33972D02*
Y45783D01*
G54D24*
X5105146Y26785D02*
Y52970D01*
X5123457Y26785D02*
Y52970D01*
G54D23*
X5314105Y318421D02*
Y330232D01*
G54D24*
X5306949Y313234D02*
Y335419D01*
X5321260Y313234D02*
Y335419D01*
G54D16*
X5278672Y318421D02*
Y330232D01*
G54D24*
X5269516Y311234D02*
Y337419D01*
X5287827Y311234D02*
Y337419D01*
G54D20*
X5161546Y82200D02*
X5149735D01*
G54D25*
X5170670Y69139D02*
X5140611D01*
X5170670Y95261D02*
X5140611D01*
G54D21*
X5094617Y82200D02*
X5082806D01*
G54D25*
X5105741Y67139D02*
X5071682D01*
X5105741Y97261D02*
X5071682D01*
G54D26*
X5153435Y141255D02*
X5142097D01*
G54D27*
X5166016Y123989D02*
X5129516D01*
X5166016Y158521D02*
X5129516D01*
G54D28*
X5153436Y204247D02*
X5142097D01*
G54D27*
X5164016Y188982D02*
X5131516D01*
X5164016Y219513D02*
X5131516D01*
G54D23*
X5186152Y246570D02*
X5174341D01*
G54D24*
X5191339Y239415D02*
X5169154D01*
X5191339Y253726D02*
X5169154D01*
G54D16*
X5186152Y282003D02*
X5174341D01*
G54D24*
X5193339Y272848D02*
X5167154D01*
X5193339Y291159D02*
X5167154D01*
G54D29*
X5061428Y228302D03*
G54D29*
X5042530Y247554D03*
G54D30*
X5108396Y-173705D03*
G54D30*
X5041467Y-172721D03*
G54D29*
X5016861D03*
G54D31*
X5300325Y454247D03*
G54D31*
Y488696D03*
G54D31*
X5264735D03*
G54D31*
Y454208D03*
G54D31*
X5265876Y524129D03*
G54D31*
X5300758D03*
G54D31*
X5338664Y552940D03*
G54D31*
X4990223Y475901D03*
G54D31*
X4992223Y553610D03*
G54D32*
X5314105Y-171690D03*
G54D32*
X5288514D03*
G54D33*
X5339648Y274129D03*
G54D33*
X5339806Y372476D03*
G54D33*
Y457239D03*
G54D33*
X5259420Y409956D03*
G54D33*
X5147766Y554909D03*
G54D33*
X5052963Y555302D03*
G54D33*
X5051310Y494602D03*
G54D33*
X5045719Y421334D03*
G54D33*
X5059184Y381531D03*
G54D33*
X5013908Y249523D03*
G54D33*
X4990294D03*
G54D33*
X5133002Y287909D03*
G54D33*
X4990333Y-80201D03*
G54D33*
Y-172249D03*
G54D32*
X5132766Y-173705D03*
G54D32*
X5197412Y-173430D03*
G54D32*
X5223357D03*
G54D16*
X5004065Y155665D02*
Y175350D01*
X5102491Y155665D02*
Y175350D01*
G54D18*
X5083493Y165507D02*
X5023063D01*
G54D16*
X5004065Y277712D02*
Y297397D01*
X5102491Y277712D02*
Y297397D01*
G54D18*
X5083493Y287554D02*
X5023063D01*
G54D10*
X5029656Y816531D02*
Y904090D01*
G54D11*
X5009666Y802800D02*
Y917820D01*
X5049646Y802800D02*
Y917820D01*
G54D12*
X5120207Y816531D02*
Y904090D01*
G54D11*
X5098217Y800801D02*
Y919820D01*
X5142197Y800801D02*
Y919820D01*
G54D12*
X5210562Y816964D02*
Y904523D01*
G54D11*
X5188571Y801234D02*
Y920253D01*
X5232552Y801234D02*
Y920253D01*
G54D12*
X5301034Y815980D02*
Y903538D01*
G54D11*
X5279044Y800250D02*
Y919269D01*
X5323024Y800250D02*
Y919269D01*
G54D13*
X5288002Y1256452D02*
X5284065D01*
X5288002Y1193460D02*
X5284065D01*
X5230128Y1256452D02*
X5226191D01*
X5230128Y1193460D02*
X5226191D01*
G54D14*
X5218632Y1143362D02*
Y1149228D01*
G54D15*
Y1040488D02*
Y1046354D01*
G54D14*
X5314538Y1143952D02*
Y1149818D01*
G54D15*
Y1041078D02*
Y1046944D01*
G54D16*
X5004065Y1139917D02*
Y1159602D01*
X5023750Y1139917D02*
Y1159602D01*
X5043436Y1139917D02*
Y1159602D01*
X5063121Y1139917D02*
Y1159602D01*
X5082806Y1139917D02*
Y1159602D01*
X5102491Y1139917D02*
Y1159602D01*
Y1261964D02*
Y1281649D01*
X5082806Y1261964D02*
Y1281649D01*
X5063121Y1261964D02*
Y1281649D01*
X5043436Y1261964D02*
Y1281649D01*
X5023750Y1261964D02*
Y1281649D01*
X5004065Y1261964D02*
Y1281649D01*
G54D17*
X5069026Y1210783D02*
X5037530D01*
G54D18*
X5220601Y1395743D02*
X5204853D01*
X5126113Y1478421D02*
X5110365D01*
G54D19*
X5220601D02*
X5204853D01*
G54D18*
X5126113Y1395743D02*
X5110365D01*
G54D20*
X5224538Y1437082D02*
X5200916D01*
G54D21*
X5130050D02*
X5106428D01*
G54D22*
X5069695Y979838D03*
G54D22*
X5021782Y1058578D03*
G54D23*
X5149735Y1018224D02*
Y1030035D01*
G54D24*
X5142579Y1013037D02*
Y1035222D01*
X5156890Y1013037D02*
Y1035222D01*
G54D16*
X5114302Y1018224D02*
Y1030035D01*
G54D24*
X5105146Y1011037D02*
Y1037222D01*
X5123457Y1011037D02*
Y1037222D01*
G54D23*
X5314105Y1302673D02*
Y1314484D01*
G54D24*
X5306949Y1297486D02*
Y1319671D01*
X5321260Y1297486D02*
Y1319671D01*
G54D16*
X5278672Y1302673D02*
Y1314484D01*
G54D24*
X5269516Y1295486D02*
Y1321671D01*
X5287827Y1295486D02*
Y1321671D01*
G54D20*
X5161546Y1066452D02*
X5149735D01*
G54D25*
X5170670Y1053391D02*
X5140611D01*
X5170670Y1079513D02*
X5140611D01*
G54D21*
X5094617Y1066452D02*
X5082806D01*
G54D25*
X5105741Y1051391D02*
X5071682D01*
X5105741Y1081513D02*
X5071682D01*
G54D26*
X5153435Y1125507D02*
X5142097D01*
G54D27*
X5166016Y1108241D02*
X5129516D01*
X5166016Y1142773D02*
X5129516D01*
G54D28*
X5153436Y1188499D02*
X5142097D01*
G54D27*
X5164016Y1173234D02*
X5131516D01*
X5164016Y1203765D02*
X5131516D01*
G54D23*
X5186152Y1230822D02*
X5174341D01*
G54D24*
X5191339Y1223667D02*
X5169154D01*
X5191339Y1237978D02*
X5169154D01*
G54D16*
X5186152Y1266255D02*
X5174341D01*
G54D24*
X5193339Y1257100D02*
X5167154D01*
X5193339Y1275411D02*
X5167154D01*
G54D29*
X5061428Y1212554D03*
G54D29*
X5042530Y1231806D03*
G54D30*
X5108396Y810547D03*
G54D30*
X5041467Y811531D03*
G54D29*
X5016861D03*
G54D31*
X5300325Y1438499D03*
G54D31*
Y1472948D03*
G54D31*
X5264735D03*
G54D31*
Y1438460D03*
G54D31*
X5265876Y1508381D03*
G54D31*
X5300758D03*
G54D31*
X5338664Y1537192D03*
G54D31*
X4990223Y1460153D03*
G54D31*
X4992223Y1537862D03*
G54D32*
X5314105Y812562D03*
G54D32*
X5288514D03*
G54D33*
X5339648Y1258381D03*
G54D33*
X5339806Y1356728D03*
G54D33*
Y1441491D03*
G54D33*
X5259420Y1394208D03*
G54D33*
X5147766Y1539161D03*
G54D33*
X5052963Y1539554D03*
G54D33*
X5051310Y1478854D03*
G54D33*
X5045719Y1405586D03*
G54D33*
X5059184Y1365783D03*
G54D33*
X5013908Y1233775D03*
G54D33*
X4990294D03*
G54D33*
X5133002Y1272161D03*
G54D33*
X4990333Y904050D03*
G54D33*
Y812003D03*
G54D32*
X5132766Y810547D03*
G54D32*
X5197412Y810822D03*
G54D32*
X5223357D03*
G54D16*
X5004065Y1139917D02*
Y1159602D01*
X5102491Y1139917D02*
Y1159602D01*
G54D18*
X5083493Y1149759D02*
X5023063D01*
G54D16*
X5004065Y1261964D02*
Y1281649D01*
X5102491Y1261964D02*
Y1281649D01*
G54D18*
X5083493Y1271806D02*
X5023063D01*
G54D10*
X5029656Y1800783D02*
Y1888342D01*
G54D11*
X5009666Y1787052D02*
Y1902072D01*
X5049646Y1787052D02*
Y1902072D01*
G54D12*
X5120207Y1800783D02*
Y1888342D01*
G54D11*
X5098217Y1785053D02*
Y1904072D01*
X5142197Y1785053D02*
Y1904072D01*
G54D12*
X5210562Y1801216D02*
Y1888775D01*
G54D11*
X5188571Y1785486D02*
Y1904505D01*
X5232552Y1785486D02*
Y1904505D01*
G54D12*
X5301034Y1800232D02*
Y1887790D01*
G54D11*
X5279044Y1784501D02*
Y1903521D01*
X5323024Y1784501D02*
Y1903521D01*
G54D13*
X5288002Y2240704D02*
X5284065D01*
X5288002Y2177712D02*
X5284065D01*
X5230128Y2240704D02*
X5226191D01*
X5230128Y2177712D02*
X5226191D01*
G54D14*
X5218632Y2127613D02*
Y2133480D01*
G54D15*
Y2024740D02*
Y2030606D01*
G54D14*
X5314538Y2128204D02*
Y2134070D01*
G54D15*
Y2025330D02*
Y2031196D01*
G54D16*
X5004065Y2124169D02*
Y2143854D01*
X5023750Y2124169D02*
Y2143854D01*
X5043436Y2124169D02*
Y2143854D01*
X5063121Y2124169D02*
Y2143854D01*
X5082806Y2124169D02*
Y2143854D01*
X5102491Y2124169D02*
Y2143854D01*
Y2246216D02*
Y2265901D01*
X5082806Y2246216D02*
Y2265901D01*
X5063121Y2246216D02*
Y2265901D01*
X5043436Y2246216D02*
Y2265901D01*
X5023750Y2246216D02*
Y2265901D01*
X5004065Y2246216D02*
Y2265901D01*
G54D17*
X5069026Y2195035D02*
X5037530D01*
G54D18*
X5220601Y2379995D02*
X5204853D01*
X5126113Y2462673D02*
X5110365D01*
G54D19*
X5220601D02*
X5204853D01*
G54D18*
X5126113Y2379995D02*
X5110365D01*
G54D20*
X5224538Y2421334D02*
X5200916D01*
G54D21*
X5130050D02*
X5106428D01*
G54D22*
X5069695Y1964090D03*
G54D22*
X5021782Y2042830D03*
G54D23*
X5149735Y2002476D02*
Y2014287D01*
G54D24*
X5142579Y1997289D02*
Y2019474D01*
X5156890Y1997289D02*
Y2019474D01*
G54D16*
X5114302Y2002476D02*
Y2014287D01*
G54D24*
X5105146Y1995289D02*
Y2021474D01*
X5123457Y1995289D02*
Y2021474D01*
G54D23*
X5314105Y2286925D02*
Y2298736D01*
G54D24*
X5306949Y2281738D02*
Y2303923D01*
X5321260Y2281738D02*
Y2303923D01*
G54D16*
X5278672Y2286925D02*
Y2298736D01*
G54D24*
X5269516Y2279738D02*
Y2305923D01*
X5287827Y2279738D02*
Y2305923D01*
G54D20*
X5161546Y2050704D02*
X5149735D01*
G54D25*
X5170670Y2037643D02*
X5140611D01*
X5170670Y2063765D02*
X5140611D01*
G54D21*
X5094617Y2050704D02*
X5082806D01*
G54D25*
X5105741Y2035643D02*
X5071682D01*
X5105741Y2065765D02*
X5071682D01*
G54D26*
X5153435Y2109759D02*
X5142097D01*
G54D27*
X5166016Y2092493D02*
X5129516D01*
X5166016Y2127025D02*
X5129516D01*
G54D28*
X5153436Y2172751D02*
X5142097D01*
G54D27*
X5164016Y2157486D02*
X5131516D01*
X5164016Y2188017D02*
X5131516D01*
G54D23*
X5186152Y2215074D02*
X5174341D01*
G54D24*
X5191339Y2207919D02*
X5169154D01*
X5191339Y2222230D02*
X5169154D01*
G54D16*
X5186152Y2250507D02*
X5174341D01*
G54D24*
X5193339Y2241352D02*
X5167154D01*
X5193339Y2259663D02*
X5167154D01*
G54D29*
X5061428Y2196806D03*
G54D29*
X5042530Y2216058D03*
G54D30*
X5108396Y1794799D03*
G54D30*
X5041467Y1795783D03*
G54D29*
X5016861D03*
G54D31*
X5300325Y2422751D03*
G54D31*
Y2457200D03*
G54D31*
X5264735D03*
G54D31*
Y2422712D03*
G54D31*
X5265876Y2492633D03*
G54D31*
X5300758D03*
G54D31*
X5338664Y2521444D03*
G54D31*
X4990223Y2444405D03*
G54D31*
X4992223Y2522113D03*
G54D32*
X5314105Y1796814D03*
G54D32*
X5288514D03*
G54D33*
X5339648Y2242633D03*
G54D33*
X5339806Y2340980D03*
G54D33*
Y2425743D03*
G54D33*
X5259420Y2378460D03*
G54D33*
X5147766Y2523413D03*
G54D33*
X5052963Y2523806D03*
G54D33*
X5051310Y2463106D03*
G54D33*
X5045719Y2389838D03*
G54D33*
X5059184Y2350035D03*
G54D33*
X5013908Y2218027D03*
G54D33*
X4990294D03*
G54D33*
X5133002Y2256413D03*
G54D33*
X4990333Y1888302D03*
G54D33*
Y1796255D03*
G54D32*
X5132766Y1794799D03*
G54D32*
X5197412Y1795074D03*
G54D32*
X5223357D03*
G54D16*
X5004065Y2124169D02*
Y2143854D01*
X5102491Y2124169D02*
Y2143854D01*
G54D18*
X5083493Y2134011D02*
X5023063D01*
G54D16*
X5004065Y2246216D02*
Y2265901D01*
X5102491Y2246216D02*
Y2265901D01*
G54D18*
X5083493Y2256058D02*
X5023063D01*
G54D10*
X5517845Y-2136225D02*
Y-2048666D01*
G54D11*
X5497855Y-2149955D02*
Y-2034936D01*
X5537835Y-2149955D02*
Y-2034936D01*
G54D12*
X5608396Y-2136225D02*
Y-2048666D01*
G54D11*
X5586406Y-2151955D02*
Y-2032936D01*
X5630386Y-2151955D02*
Y-2032936D01*
G54D12*
X5698750Y-2135792D02*
Y-2048233D01*
G54D11*
X5676760Y-2151522D02*
Y-2032503D01*
X5720741Y-2151522D02*
Y-2032503D01*
G54D12*
X5789223Y-2136776D02*
Y-2049217D01*
G54D11*
X5767233Y-2152506D02*
Y-2033487D01*
X5811213Y-2152506D02*
Y-2033487D01*
G54D13*
X5776191Y-1696304D02*
X5772254D01*
X5776191Y-1759296D02*
X5772254D01*
X5718317Y-1696304D02*
X5714380D01*
X5718317Y-1759296D02*
X5714380D01*
G54D14*
X5706821Y-1809394D02*
Y-1803528D01*
G54D15*
Y-1912268D02*
Y-1906402D01*
G54D14*
X5802727Y-1808804D02*
Y-1802938D01*
G54D15*
Y-1911678D02*
Y-1905812D01*
G54D16*
X5492254Y-1812839D02*
Y-1793154D01*
X5511939Y-1812839D02*
Y-1793154D01*
X5531625Y-1812839D02*
Y-1793154D01*
X5551310Y-1812839D02*
Y-1793154D01*
X5570995Y-1812839D02*
Y-1793154D01*
X5590680Y-1812839D02*
Y-1793154D01*
Y-1690792D02*
Y-1671107D01*
X5570995Y-1690792D02*
Y-1671107D01*
X5551310Y-1690792D02*
Y-1671107D01*
X5531625Y-1690792D02*
Y-1671107D01*
X5511939Y-1690792D02*
Y-1671107D01*
X5492254Y-1690792D02*
Y-1671107D01*
G54D17*
X5557215Y-1741973D02*
X5525719D01*
G54D18*
X5708790Y-1557013D02*
X5693042D01*
X5614302Y-1474335D02*
X5598554D01*
G54D19*
X5708790D02*
X5693042D01*
G54D18*
X5614302Y-1557013D02*
X5598554D01*
G54D20*
X5712727Y-1515674D02*
X5689105D01*
G54D21*
X5618239D02*
X5594617D01*
G54D22*
X5557884Y-1972918D03*
G54D22*
X5509971Y-1894178D03*
G54D23*
X5637924Y-1934532D02*
Y-1922721D01*
G54D24*
X5630768Y-1939719D02*
Y-1917534D01*
X5645079Y-1939719D02*
Y-1917534D01*
G54D16*
X5602491Y-1934532D02*
Y-1922721D01*
G54D24*
X5593335Y-1941719D02*
Y-1915534D01*
X5611646Y-1941719D02*
Y-1915534D01*
G54D23*
X5802294Y-1650083D02*
Y-1638272D01*
G54D24*
X5795138Y-1655270D02*
Y-1633085D01*
X5809449Y-1655270D02*
Y-1633085D01*
G54D16*
X5766861Y-1650083D02*
Y-1638272D01*
G54D24*
X5757705Y-1657270D02*
Y-1631085D01*
X5776016Y-1657270D02*
Y-1631085D01*
G54D20*
X5649735Y-1886304D02*
X5637924D01*
G54D25*
X5658859Y-1899365D02*
X5628800D01*
X5658859Y-1873243D02*
X5628800D01*
G54D21*
X5582806Y-1886304D02*
X5570995D01*
G54D25*
X5593930Y-1901365D02*
X5559871D01*
X5593930Y-1871243D02*
X5559871D01*
G54D26*
X5641624Y-1827249D02*
X5630286D01*
G54D27*
X5654205Y-1844515D02*
X5617705D01*
X5654205Y-1809983D02*
X5617705D01*
G54D28*
X5641625Y-1764257D02*
X5630286D01*
G54D27*
X5652205Y-1779522D02*
X5619705D01*
X5652205Y-1748991D02*
X5619705D01*
G54D23*
X5674341Y-1721934D02*
X5662530D01*
G54D24*
X5679528Y-1729089D02*
X5657343D01*
X5679528Y-1714778D02*
X5657343D01*
G54D16*
X5674341Y-1686501D02*
X5662530D01*
G54D24*
X5681528Y-1695656D02*
X5655343D01*
X5681528Y-1677345D02*
X5655343D01*
G54D29*
X5549617Y-1740201D03*
G54D29*
X5530719Y-1720950D03*
G54D30*
X5596585Y-2142209D03*
G54D30*
X5529656Y-2141225D03*
G54D29*
X5505050D03*
G54D31*
X5788514Y-1514257D03*
G54D31*
Y-1479808D03*
G54D31*
X5752924D03*
G54D31*
Y-1514296D03*
G54D31*
X5754065Y-1444375D03*
G54D31*
X5788947D03*
G54D31*
X5826853Y-1415564D03*
G54D31*
X5478412Y-1492603D03*
G54D31*
X5480412Y-1414894D03*
G54D32*
X5802294Y-2140194D03*
G54D32*
X5776703D03*
G54D33*
X5827837Y-1694375D03*
G54D33*
X5827995Y-1596028D03*
G54D33*
Y-1511264D03*
G54D33*
X5747609Y-1558548D03*
G54D33*
X5635955Y-1413595D03*
G54D33*
X5541152Y-1413201D03*
G54D33*
X5539499Y-1473902D03*
G54D33*
X5533908Y-1547170D03*
G54D33*
X5547373Y-1586973D03*
G54D33*
X5502097Y-1718981D03*
G54D33*
X5478483D03*
G54D33*
X5621191Y-1680595D03*
G54D33*
X5478522Y-2048705D03*
G54D33*
Y-2140753D03*
G54D32*
X5620955Y-2142209D03*
G54D32*
X5685601Y-2141934D03*
G54D32*
X5711546D03*
G54D16*
X5492254Y-1812839D02*
Y-1793154D01*
X5590680Y-1812839D02*
Y-1793154D01*
G54D18*
X5571682Y-1802997D02*
X5511252D01*
G54D16*
X5492254Y-1690792D02*
Y-1671107D01*
X5590680Y-1690792D02*
Y-1671107D01*
G54D18*
X5571682Y-1680950D02*
X5511252D01*
G54D10*
X5517845Y-1151973D02*
Y-1064414D01*
G54D11*
X5497855Y-1165703D02*
Y-1050684D01*
X5537835Y-1165703D02*
Y-1050684D01*
G54D12*
X5608396Y-1151973D02*
Y-1064414D01*
G54D11*
X5586406Y-1167703D02*
Y-1048684D01*
X5630386Y-1167703D02*
Y-1048684D01*
G54D12*
X5698750Y-1151540D02*
Y-1063981D01*
G54D11*
X5676760Y-1167270D02*
Y-1048251D01*
X5720741Y-1167270D02*
Y-1048251D01*
G54D12*
X5789223Y-1152524D02*
Y-1064965D01*
G54D11*
X5767233Y-1168254D02*
Y-1049235D01*
X5811213Y-1168254D02*
Y-1049235D01*
G54D13*
X5776191Y-712052D02*
X5772254D01*
X5776191Y-775044D02*
X5772254D01*
X5718317Y-712052D02*
X5714380D01*
X5718317Y-775044D02*
X5714380D01*
G54D14*
X5706821Y-825142D02*
Y-819276D01*
G54D15*
Y-928016D02*
Y-922150D01*
G54D14*
X5802727Y-824552D02*
Y-818686D01*
G54D15*
Y-927426D02*
Y-921560D01*
G54D16*
X5492254Y-828587D02*
Y-808902D01*
X5511939Y-828587D02*
Y-808902D01*
X5531625Y-828587D02*
Y-808902D01*
X5551310Y-828587D02*
Y-808902D01*
X5570995Y-828587D02*
Y-808902D01*
X5590680Y-828587D02*
Y-808902D01*
Y-706540D02*
Y-686855D01*
X5570995Y-706540D02*
Y-686855D01*
X5551310Y-706540D02*
Y-686855D01*
X5531625Y-706540D02*
Y-686855D01*
X5511939Y-706540D02*
Y-686855D01*
X5492254Y-706540D02*
Y-686855D01*
G54D17*
X5557215Y-757721D02*
X5525719D01*
G54D18*
X5708790Y-572761D02*
X5693042D01*
X5614302Y-490083D02*
X5598554D01*
G54D19*
X5708790D02*
X5693042D01*
G54D18*
X5614302Y-572761D02*
X5598554D01*
G54D20*
X5712727Y-531422D02*
X5689105D01*
G54D21*
X5618239D02*
X5594617D01*
G54D22*
X5557884Y-988666D03*
G54D22*
X5509971Y-909926D03*
G54D23*
X5637924Y-950280D02*
Y-938469D01*
G54D24*
X5630768Y-955467D02*
Y-933282D01*
X5645079Y-955467D02*
Y-933282D01*
G54D16*
X5602491Y-950280D02*
Y-938469D01*
G54D24*
X5593335Y-957467D02*
Y-931282D01*
X5611646Y-957467D02*
Y-931282D01*
G54D23*
X5802294Y-665831D02*
Y-654020D01*
G54D24*
X5795138Y-671018D02*
Y-648833D01*
X5809449Y-671018D02*
Y-648833D01*
G54D16*
X5766861Y-665831D02*
Y-654020D01*
G54D24*
X5757705Y-673018D02*
Y-646833D01*
X5776016Y-673018D02*
Y-646833D01*
G54D20*
X5649735Y-902052D02*
X5637924D01*
G54D25*
X5658859Y-915113D02*
X5628800D01*
X5658859Y-888991D02*
X5628800D01*
G54D21*
X5582806Y-902052D02*
X5570995D01*
G54D25*
X5593930Y-917113D02*
X5559871D01*
X5593930Y-886991D02*
X5559871D01*
G54D26*
X5641624Y-842997D02*
X5630286D01*
G54D27*
X5654205Y-860263D02*
X5617705D01*
X5654205Y-825731D02*
X5617705D01*
G54D28*
X5641625Y-780005D02*
X5630286D01*
G54D27*
X5652205Y-795270D02*
X5619705D01*
X5652205Y-764739D02*
X5619705D01*
G54D23*
X5674341Y-737682D02*
X5662530D01*
G54D24*
X5679528Y-744837D02*
X5657343D01*
X5679528Y-730526D02*
X5657343D01*
G54D16*
X5674341Y-702249D02*
X5662530D01*
G54D24*
X5681528Y-711404D02*
X5655343D01*
X5681528Y-693093D02*
X5655343D01*
G54D29*
X5549617Y-755950D03*
G54D29*
X5530719Y-736698D03*
G54D30*
X5596585Y-1157957D03*
G54D30*
X5529656Y-1156973D03*
G54D29*
X5505050D03*
G54D31*
X5788514Y-530005D03*
G54D31*
Y-495556D03*
G54D31*
X5752924D03*
G54D31*
Y-530044D03*
G54D31*
X5754065Y-460123D03*
G54D31*
X5788947D03*
G54D31*
X5826853Y-431312D03*
G54D31*
X5478412Y-508351D03*
G54D31*
X5480412Y-430642D03*
G54D32*
X5802294Y-1155942D03*
G54D32*
X5776703D03*
G54D33*
X5827837Y-710123D03*
G54D33*
X5827995Y-611776D03*
G54D33*
Y-527013D03*
G54D33*
X5747609Y-574296D03*
G54D33*
X5635955Y-429343D03*
G54D33*
X5541152Y-428950D03*
G54D33*
X5539499Y-489650D03*
G54D33*
X5533908Y-562918D03*
G54D33*
X5547373Y-602721D03*
G54D33*
X5502097Y-734729D03*
G54D33*
X5478483D03*
G54D33*
X5621191Y-696343D03*
G54D33*
X5478522Y-1064453D03*
G54D33*
Y-1156501D03*
G54D32*
X5620955Y-1157957D03*
G54D32*
X5685601Y-1157682D03*
G54D32*
X5711546D03*
G54D16*
X5492254Y-828587D02*
Y-808902D01*
X5590680Y-828587D02*
Y-808902D01*
G54D18*
X5571682Y-818745D02*
X5511252D01*
G54D16*
X5492254Y-706540D02*
Y-686855D01*
X5590680Y-706540D02*
Y-686855D01*
G54D18*
X5571682Y-696698D02*
X5511252D01*
G54D10*
X5517845Y-167721D02*
Y-80162D01*
G54D11*
X5497855Y-181451D02*
Y-66432D01*
X5537835Y-181451D02*
Y-66432D01*
G54D12*
X5608396Y-167721D02*
Y-80162D01*
G54D11*
X5586406Y-183451D02*
Y-64432D01*
X5630386Y-183451D02*
Y-64432D01*
G54D12*
X5698750Y-167288D02*
Y-79729D01*
G54D11*
X5676760Y-183018D02*
Y-63999D01*
X5720741Y-183018D02*
Y-63999D01*
G54D12*
X5789223Y-168272D02*
Y-80713D01*
G54D11*
X5767233Y-184002D02*
Y-64983D01*
X5811213Y-184002D02*
Y-64983D01*
G54D13*
X5776191Y272200D02*
X5772254D01*
X5776191Y209208D02*
X5772254D01*
X5718317Y272200D02*
X5714380D01*
X5718317Y209208D02*
X5714380D01*
G54D14*
X5706821Y159110D02*
Y164976D01*
G54D15*
Y56236D02*
Y62102D01*
G54D14*
X5802727Y159700D02*
Y165566D01*
G54D15*
Y56826D02*
Y62692D01*
G54D16*
X5492254Y155665D02*
Y175350D01*
X5511939Y155665D02*
Y175350D01*
X5531625Y155665D02*
Y175350D01*
X5551310Y155665D02*
Y175350D01*
X5570995Y155665D02*
Y175350D01*
X5590680Y155665D02*
Y175350D01*
Y277712D02*
Y297397D01*
X5570995Y277712D02*
Y297397D01*
X5551310Y277712D02*
Y297397D01*
X5531625Y277712D02*
Y297397D01*
X5511939Y277712D02*
Y297397D01*
X5492254Y277712D02*
Y297397D01*
G54D17*
X5557215Y226531D02*
X5525719D01*
G54D18*
X5708790Y411491D02*
X5693042D01*
X5614302Y494169D02*
X5598554D01*
G54D19*
X5708790D02*
X5693042D01*
G54D18*
X5614302Y411491D02*
X5598554D01*
G54D20*
X5712727Y452830D02*
X5689105D01*
G54D21*
X5618239D02*
X5594617D01*
G54D22*
X5557884Y-4414D03*
G54D22*
X5509971Y74326D03*
G54D23*
X5637924Y33972D02*
Y45783D01*
G54D24*
X5630768Y28785D02*
Y50970D01*
X5645079Y28785D02*
Y50970D01*
G54D16*
X5602491Y33972D02*
Y45783D01*
G54D24*
X5593335Y26785D02*
Y52970D01*
X5611646Y26785D02*
Y52970D01*
G54D23*
X5802294Y318421D02*
Y330232D01*
G54D24*
X5795138Y313234D02*
Y335419D01*
X5809449Y313234D02*
Y335419D01*
G54D16*
X5766861Y318421D02*
Y330232D01*
G54D24*
X5757705Y311234D02*
Y337419D01*
X5776016Y311234D02*
Y337419D01*
G54D20*
X5649735Y82200D02*
X5637924D01*
G54D25*
X5658859Y69139D02*
X5628800D01*
X5658859Y95261D02*
X5628800D01*
G54D21*
X5582806Y82200D02*
X5570995D01*
G54D25*
X5593930Y67139D02*
X5559871D01*
X5593930Y97261D02*
X5559871D01*
G54D26*
X5641624Y141255D02*
X5630286D01*
G54D27*
X5654205Y123989D02*
X5617705D01*
X5654205Y158521D02*
X5617705D01*
G54D28*
X5641625Y204247D02*
X5630286D01*
G54D27*
X5652205Y188982D02*
X5619705D01*
X5652205Y219513D02*
X5619705D01*
G54D23*
X5674341Y246570D02*
X5662530D01*
G54D24*
X5679528Y239415D02*
X5657343D01*
X5679528Y253726D02*
X5657343D01*
G54D16*
X5674341Y282003D02*
X5662530D01*
G54D24*
X5681528Y272848D02*
X5655343D01*
X5681528Y291159D02*
X5655343D01*
G54D29*
X5549617Y228302D03*
G54D29*
X5530719Y247554D03*
G54D30*
X5596585Y-173705D03*
G54D30*
X5529656Y-172721D03*
G54D29*
X5505050D03*
G54D31*
X5788514Y454247D03*
G54D31*
Y488696D03*
G54D31*
X5752924D03*
G54D31*
Y454208D03*
G54D31*
X5754065Y524129D03*
G54D31*
X5788947D03*
G54D31*
X5826853Y552940D03*
G54D31*
X5478412Y475901D03*
G54D31*
X5480412Y553610D03*
G54D32*
X5802294Y-171690D03*
G54D32*
X5776703D03*
G54D33*
X5827837Y274129D03*
G54D33*
X5827995Y372476D03*
G54D33*
Y457239D03*
G54D33*
X5747609Y409956D03*
G54D33*
X5635955Y554909D03*
G54D33*
X5541152Y555302D03*
G54D33*
X5539499Y494602D03*
G54D33*
X5533908Y421334D03*
G54D33*
X5547373Y381531D03*
G54D33*
X5502097Y249523D03*
G54D33*
X5478483D03*
G54D33*
X5621191Y287909D03*
G54D33*
X5478522Y-80201D03*
G54D33*
Y-172249D03*
G54D32*
X5620955Y-173705D03*
G54D32*
X5685601Y-173430D03*
G54D32*
X5711546D03*
G54D16*
X5492254Y155665D02*
Y175350D01*
X5590680Y155665D02*
Y175350D01*
G54D18*
X5571682Y165507D02*
X5511252D01*
G54D16*
X5492254Y277712D02*
Y297397D01*
X5590680Y277712D02*
Y297397D01*
G54D18*
X5571682Y287554D02*
X5511252D01*
G54D10*
X5517845Y816531D02*
Y904090D01*
G54D11*
X5497855Y802800D02*
Y917820D01*
X5537835Y802800D02*
Y917820D01*
G54D12*
X5608396Y816531D02*
Y904090D01*
G54D11*
X5586406Y800801D02*
Y919820D01*
X5630386Y800801D02*
Y919820D01*
G54D12*
X5698750Y816964D02*
Y904523D01*
G54D11*
X5676760Y801234D02*
Y920253D01*
X5720741Y801234D02*
Y920253D01*
G54D12*
X5789223Y815980D02*
Y903538D01*
G54D11*
X5767233Y800250D02*
Y919269D01*
X5811213Y800250D02*
Y919269D01*
G54D13*
X5776191Y1256452D02*
X5772254D01*
X5776191Y1193460D02*
X5772254D01*
X5718317Y1256452D02*
X5714380D01*
X5718317Y1193460D02*
X5714380D01*
G54D14*
X5706821Y1143362D02*
Y1149228D01*
G54D15*
Y1040488D02*
Y1046354D01*
G54D14*
X5802727Y1143952D02*
Y1149818D01*
G54D15*
Y1041078D02*
Y1046944D01*
G54D16*
X5492254Y1139917D02*
Y1159602D01*
X5511939Y1139917D02*
Y1159602D01*
X5531625Y1139917D02*
Y1159602D01*
X5551310Y1139917D02*
Y1159602D01*
X5570995Y1139917D02*
Y1159602D01*
X5590680Y1139917D02*
Y1159602D01*
Y1261964D02*
Y1281649D01*
X5570995Y1261964D02*
Y1281649D01*
X5551310Y1261964D02*
Y1281649D01*
X5531625Y1261964D02*
Y1281649D01*
X5511939Y1261964D02*
Y1281649D01*
X5492254Y1261964D02*
Y1281649D01*
G54D17*
X5557215Y1210783D02*
X5525719D01*
G54D18*
X5708790Y1395743D02*
X5693042D01*
X5614302Y1478421D02*
X5598554D01*
G54D19*
X5708790D02*
X5693042D01*
G54D18*
X5614302Y1395743D02*
X5598554D01*
G54D20*
X5712727Y1437082D02*
X5689105D01*
G54D21*
X5618239D02*
X5594617D01*
G54D22*
X5557884Y979838D03*
G54D22*
X5509971Y1058578D03*
G54D23*
X5637924Y1018224D02*
Y1030035D01*
G54D24*
X5630768Y1013037D02*
Y1035222D01*
X5645079Y1013037D02*
Y1035222D01*
G54D16*
X5602491Y1018224D02*
Y1030035D01*
G54D24*
X5593335Y1011037D02*
Y1037222D01*
X5611646Y1011037D02*
Y1037222D01*
G54D23*
X5802294Y1302673D02*
Y1314484D01*
G54D24*
X5795138Y1297486D02*
Y1319671D01*
X5809449Y1297486D02*
Y1319671D01*
G54D16*
X5766861Y1302673D02*
Y1314484D01*
G54D24*
X5757705Y1295486D02*
Y1321671D01*
X5776016Y1295486D02*
Y1321671D01*
G54D20*
X5649735Y1066452D02*
X5637924D01*
G54D25*
X5658859Y1053391D02*
X5628800D01*
X5658859Y1079513D02*
X5628800D01*
G54D21*
X5582806Y1066452D02*
X5570995D01*
G54D25*
X5593930Y1051391D02*
X5559871D01*
X5593930Y1081513D02*
X5559871D01*
G54D26*
X5641624Y1125507D02*
X5630286D01*
G54D27*
X5654205Y1108241D02*
X5617705D01*
X5654205Y1142773D02*
X5617705D01*
G54D28*
X5641625Y1188499D02*
X5630286D01*
G54D27*
X5652205Y1173234D02*
X5619705D01*
X5652205Y1203765D02*
X5619705D01*
G54D23*
X5674341Y1230822D02*
X5662530D01*
G54D24*
X5679528Y1223667D02*
X5657343D01*
X5679528Y1237978D02*
X5657343D01*
G54D16*
X5674341Y1266255D02*
X5662530D01*
G54D24*
X5681528Y1257100D02*
X5655343D01*
X5681528Y1275411D02*
X5655343D01*
G54D29*
X5549617Y1212554D03*
G54D29*
X5530719Y1231806D03*
G54D30*
X5596585Y810547D03*
G54D30*
X5529656Y811531D03*
G54D29*
X5505050D03*
G54D31*
X5788514Y1438499D03*
G54D31*
Y1472948D03*
G54D31*
X5752924D03*
G54D31*
Y1438460D03*
G54D31*
X5754065Y1508381D03*
G54D31*
X5788947D03*
G54D31*
X5826853Y1537192D03*
G54D31*
X5478412Y1460153D03*
G54D31*
X5480412Y1537862D03*
G54D32*
X5802294Y812562D03*
G54D32*
X5776703D03*
G54D33*
X5827837Y1258381D03*
G54D33*
X5827995Y1356728D03*
G54D33*
Y1441491D03*
G54D33*
X5747609Y1394208D03*
G54D33*
X5635955Y1539161D03*
G54D33*
X5541152Y1539554D03*
G54D33*
X5539499Y1478854D03*
G54D33*
X5533908Y1405586D03*
G54D33*
X5547373Y1365783D03*
G54D33*
X5502097Y1233775D03*
G54D33*
X5478483D03*
G54D33*
X5621191Y1272161D03*
G54D33*
X5478522Y904050D03*
G54D33*
Y812003D03*
G54D32*
X5620955Y810547D03*
G54D32*
X5685601Y810822D03*
G54D32*
X5711546D03*
G54D16*
X5492254Y1139917D02*
Y1159602D01*
X5590680Y1139917D02*
Y1159602D01*
G54D18*
X5571682Y1149759D02*
X5511252D01*
G54D16*
X5492254Y1261964D02*
Y1281649D01*
X5590680Y1261964D02*
Y1281649D01*
G54D18*
X5571682Y1271806D02*
X5511252D01*
G54D10*
X5517845Y1800783D02*
Y1888342D01*
G54D11*
X5497855Y1787052D02*
Y1902072D01*
X5537835Y1787052D02*
Y1902072D01*
G54D12*
X5608396Y1800783D02*
Y1888342D01*
G54D11*
X5586406Y1785053D02*
Y1904072D01*
X5630386Y1785053D02*
Y1904072D01*
G54D12*
X5698750Y1801216D02*
Y1888775D01*
G54D11*
X5676760Y1785486D02*
Y1904505D01*
X5720741Y1785486D02*
Y1904505D01*
G54D12*
X5789223Y1800232D02*
Y1887790D01*
G54D11*
X5767233Y1784501D02*
Y1903521D01*
X5811213Y1784501D02*
Y1903521D01*
G54D13*
X5776191Y2240704D02*
X5772254D01*
X5776191Y2177712D02*
X5772254D01*
X5718317Y2240704D02*
X5714380D01*
X5718317Y2177712D02*
X5714380D01*
G54D14*
X5706821Y2127613D02*
Y2133480D01*
G54D15*
Y2024740D02*
Y2030606D01*
G54D14*
X5802727Y2128204D02*
Y2134070D01*
G54D15*
Y2025330D02*
Y2031196D01*
G54D16*
X5492254Y2124169D02*
Y2143854D01*
X5511939Y2124169D02*
Y2143854D01*
X5531625Y2124169D02*
Y2143854D01*
X5551310Y2124169D02*
Y2143854D01*
X5570995Y2124169D02*
Y2143854D01*
X5590680Y2124169D02*
Y2143854D01*
Y2246216D02*
Y2265901D01*
X5570995Y2246216D02*
Y2265901D01*
X5551310Y2246216D02*
Y2265901D01*
X5531625Y2246216D02*
Y2265901D01*
X5511939Y2246216D02*
Y2265901D01*
X5492254Y2246216D02*
Y2265901D01*
G54D17*
X5557215Y2195035D02*
X5525719D01*
G54D18*
X5708790Y2379995D02*
X5693042D01*
X5614302Y2462673D02*
X5598554D01*
G54D19*
X5708790D02*
X5693042D01*
G54D18*
X5614302Y2379995D02*
X5598554D01*
G54D20*
X5712727Y2421334D02*
X5689105D01*
G54D21*
X5618239D02*
X5594617D01*
G54D22*
X5557884Y1964090D03*
G54D22*
X5509971Y2042830D03*
G54D23*
X5637924Y2002476D02*
Y2014287D01*
G54D24*
X5630768Y1997289D02*
Y2019474D01*
X5645079Y1997289D02*
Y2019474D01*
G54D16*
X5602491Y2002476D02*
Y2014287D01*
G54D24*
X5593335Y1995289D02*
Y2021474D01*
X5611646Y1995289D02*
Y2021474D01*
G54D23*
X5802294Y2286925D02*
Y2298736D01*
G54D24*
X5795138Y2281738D02*
Y2303923D01*
X5809449Y2281738D02*
Y2303923D01*
G54D16*
X5766861Y2286925D02*
Y2298736D01*
G54D24*
X5757705Y2279738D02*
Y2305923D01*
X5776016Y2279738D02*
Y2305923D01*
G54D20*
X5649735Y2050704D02*
X5637924D01*
G54D25*
X5658859Y2037643D02*
X5628800D01*
X5658859Y2063765D02*
X5628800D01*
G54D21*
X5582806Y2050704D02*
X5570995D01*
G54D25*
X5593930Y2035643D02*
X5559871D01*
X5593930Y2065765D02*
X5559871D01*
G54D26*
X5641624Y2109759D02*
X5630286D01*
G54D27*
X5654205Y2092493D02*
X5617705D01*
X5654205Y2127025D02*
X5617705D01*
G54D28*
X5641625Y2172751D02*
X5630286D01*
G54D27*
X5652205Y2157486D02*
X5619705D01*
X5652205Y2188017D02*
X5619705D01*
G54D23*
X5674341Y2215074D02*
X5662530D01*
G54D24*
X5679528Y2207919D02*
X5657343D01*
X5679528Y2222230D02*
X5657343D01*
G54D16*
X5674341Y2250507D02*
X5662530D01*
G54D24*
X5681528Y2241352D02*
X5655343D01*
X5681528Y2259663D02*
X5655343D01*
G54D29*
X5549617Y2196806D03*
G54D29*
X5530719Y2216058D03*
G54D30*
X5596585Y1794799D03*
G54D30*
X5529656Y1795783D03*
G54D29*
X5505050D03*
G54D31*
X5788514Y2422751D03*
G54D31*
Y2457200D03*
G54D31*
X5752924D03*
G54D31*
Y2422712D03*
G54D31*
X5754065Y2492633D03*
G54D31*
X5788947D03*
G54D31*
X5826853Y2521444D03*
G54D31*
X5478412Y2444405D03*
G54D31*
X5480412Y2522113D03*
G54D32*
X5802294Y1796814D03*
G54D32*
X5776703D03*
G54D33*
X5827837Y2242633D03*
G54D33*
X5827995Y2340980D03*
G54D33*
Y2425743D03*
G54D33*
X5747609Y2378460D03*
G54D33*
X5635955Y2523413D03*
G54D33*
X5541152Y2523806D03*
G54D33*
X5539499Y2463106D03*
G54D33*
X5533908Y2389838D03*
G54D33*
X5547373Y2350035D03*
G54D33*
X5502097Y2218027D03*
G54D33*
X5478483D03*
G54D33*
X5621191Y2256413D03*
G54D33*
X5478522Y1888302D03*
G54D33*
Y1796255D03*
G54D32*
X5620955Y1794799D03*
G54D32*
X5685601Y1795074D03*
G54D32*
X5711546D03*
G54D16*
X5492254Y2124169D02*
Y2143854D01*
X5590680Y2124169D02*
Y2143854D01*
G54D18*
X5571682Y2134011D02*
X5511252D01*
G54D16*
X5492254Y2246216D02*
Y2265901D01*
X5590680Y2246216D02*
Y2265901D01*
G54D18*
X5571682Y2256058D02*
X5511252D01*
G54D10*
X6006034Y-2136225D02*
Y-2048666D01*
G54D11*
X5986044Y-2149955D02*
Y-2034936D01*
X6026024Y-2149955D02*
Y-2034936D01*
G54D12*
X6096585Y-2136225D02*
Y-2048666D01*
G54D11*
X6074595Y-2151955D02*
Y-2032936D01*
X6118575Y-2151955D02*
Y-2032936D01*
G54D12*
X6186939Y-2135792D02*
Y-2048233D01*
G54D11*
X6164949Y-2151522D02*
Y-2032503D01*
X6208930Y-2151522D02*
Y-2032503D01*
G54D12*
X6277412Y-2136776D02*
Y-2049217D01*
G54D11*
X6255422Y-2152506D02*
Y-2033487D01*
X6299402Y-2152506D02*
Y-2033487D01*
G54D13*
X6264380Y-1696304D02*
X6260443D01*
X6264380Y-1759296D02*
X6260443D01*
X6206506Y-1696304D02*
X6202569D01*
X6206506Y-1759296D02*
X6202569D01*
G54D14*
X6195010Y-1809394D02*
Y-1803528D01*
G54D15*
Y-1912268D02*
Y-1906402D01*
G54D14*
X6290916Y-1808804D02*
Y-1802938D01*
G54D15*
Y-1911678D02*
Y-1905812D01*
G54D16*
X5980443Y-1812839D02*
Y-1793154D01*
X6000128Y-1812839D02*
Y-1793154D01*
X6019813Y-1812839D02*
Y-1793154D01*
X6039499Y-1812839D02*
Y-1793154D01*
X6059184Y-1812839D02*
Y-1793154D01*
X6078869Y-1812839D02*
Y-1793154D01*
Y-1690792D02*
Y-1671107D01*
X6059184Y-1690792D02*
Y-1671107D01*
X6039499Y-1690792D02*
Y-1671107D01*
X6019813Y-1690792D02*
Y-1671107D01*
X6000128Y-1690792D02*
Y-1671107D01*
X5980443Y-1690792D02*
Y-1671107D01*
G54D17*
X6045404Y-1741973D02*
X6013908D01*
G54D18*
X6196979Y-1557013D02*
X6181231D01*
X6102491Y-1474335D02*
X6086743D01*
G54D19*
X6196979D02*
X6181231D01*
G54D18*
X6102491Y-1557013D02*
X6086743D01*
G54D20*
X6200916Y-1515674D02*
X6177294D01*
G54D21*
X6106428D02*
X6082806D01*
G54D22*
X6046073Y-1972918D03*
G54D22*
X5998160Y-1894178D03*
G54D23*
X6126113Y-1934532D02*
Y-1922721D01*
G54D24*
X6118957Y-1939719D02*
Y-1917534D01*
X6133268Y-1939719D02*
Y-1917534D01*
G54D16*
X6090680Y-1934532D02*
Y-1922721D01*
G54D24*
X6081524Y-1941719D02*
Y-1915534D01*
X6099835Y-1941719D02*
Y-1915534D01*
G54D23*
X6290483Y-1650083D02*
Y-1638272D01*
G54D24*
X6283327Y-1655270D02*
Y-1633085D01*
X6297638Y-1655270D02*
Y-1633085D01*
G54D16*
X6255050Y-1650083D02*
Y-1638272D01*
G54D24*
X6245894Y-1657270D02*
Y-1631085D01*
X6264205Y-1657270D02*
Y-1631085D01*
G54D20*
X6137924Y-1886304D02*
X6126113D01*
G54D25*
X6147048Y-1899365D02*
X6116989D01*
X6147048Y-1873243D02*
X6116989D01*
G54D21*
X6070995Y-1886304D02*
X6059184D01*
G54D25*
X6082119Y-1901365D02*
X6048060D01*
X6082119Y-1871243D02*
X6048060D01*
G54D26*
X6129813Y-1827249D02*
X6118475D01*
G54D27*
X6142394Y-1844515D02*
X6105894D01*
X6142394Y-1809983D02*
X6105894D01*
G54D28*
X6129813Y-1764257D02*
X6118475D01*
G54D27*
X6140394Y-1779522D02*
X6107894D01*
X6140394Y-1748991D02*
X6107894D01*
G54D23*
X6162530Y-1721934D02*
X6150719D01*
G54D24*
X6167717Y-1729089D02*
X6145532D01*
X6167717Y-1714778D02*
X6145532D01*
G54D16*
X6162530Y-1686501D02*
X6150719D01*
G54D24*
X6169717Y-1695656D02*
X6143532D01*
X6169717Y-1677345D02*
X6143532D01*
G54D29*
X6037806Y-1740201D03*
G54D29*
X6018908Y-1720950D03*
G54D30*
X6084774Y-2142209D03*
G54D30*
X6017845Y-2141225D03*
G54D29*
X5993239D03*
G54D31*
X6276703Y-1514257D03*
G54D31*
Y-1479808D03*
G54D31*
X6241113D03*
G54D31*
Y-1514296D03*
G54D31*
X6242254Y-1444375D03*
G54D31*
X6277136D03*
G54D31*
X6315042Y-1415564D03*
G54D31*
X5966601Y-1492603D03*
G54D31*
X5968601Y-1414894D03*
G54D32*
X6290483Y-2140194D03*
G54D32*
X6264892D03*
G54D33*
X6316026Y-1694375D03*
G54D33*
X6316184Y-1596028D03*
G54D33*
Y-1511264D03*
G54D33*
X6235798Y-1558548D03*
G54D33*
X6124144Y-1413595D03*
G54D33*
X6029341Y-1413201D03*
G54D33*
X6027688Y-1473902D03*
G54D33*
X6022097Y-1547170D03*
G54D33*
X6035562Y-1586973D03*
G54D33*
X5990286Y-1718981D03*
G54D33*
X5966672D03*
G54D33*
X6109380Y-1680595D03*
G54D33*
X5966711Y-2048705D03*
G54D33*
Y-2140753D03*
G54D32*
X6109144Y-2142209D03*
G54D32*
X6173790Y-2141934D03*
G54D32*
X6199735D03*
G54D16*
X5980443Y-1812839D02*
Y-1793154D01*
X6078869Y-1812839D02*
Y-1793154D01*
G54D18*
X6059871Y-1802997D02*
X5999441D01*
G54D16*
X5980443Y-1690792D02*
Y-1671107D01*
X6078869Y-1690792D02*
Y-1671107D01*
G54D18*
X6059871Y-1680950D02*
X5999441D01*
G54D10*
X6006034Y-1151973D02*
Y-1064414D01*
G54D11*
X5986044Y-1165703D02*
Y-1050684D01*
X6026024Y-1165703D02*
Y-1050684D01*
G54D12*
X6096585Y-1151973D02*
Y-1064414D01*
G54D11*
X6074595Y-1167703D02*
Y-1048684D01*
X6118575Y-1167703D02*
Y-1048684D01*
G54D12*
X6186939Y-1151540D02*
Y-1063981D01*
G54D11*
X6164949Y-1167270D02*
Y-1048251D01*
X6208930Y-1167270D02*
Y-1048251D01*
G54D12*
X6277412Y-1152524D02*
Y-1064965D01*
G54D11*
X6255422Y-1168254D02*
Y-1049235D01*
X6299402Y-1168254D02*
Y-1049235D01*
G54D13*
X6264380Y-712052D02*
X6260443D01*
X6264380Y-775044D02*
X6260443D01*
X6206506Y-712052D02*
X6202569D01*
X6206506Y-775044D02*
X6202569D01*
G54D14*
X6195010Y-825142D02*
Y-819276D01*
G54D15*
Y-928016D02*
Y-922150D01*
G54D14*
X6290916Y-824552D02*
Y-818686D01*
G54D15*
Y-927426D02*
Y-921560D01*
G54D16*
X5980443Y-828587D02*
Y-808902D01*
X6000128Y-828587D02*
Y-808902D01*
X6019813Y-828587D02*
Y-808902D01*
X6039499Y-828587D02*
Y-808902D01*
X6059184Y-828587D02*
Y-808902D01*
X6078869Y-828587D02*
Y-808902D01*
Y-706540D02*
Y-686855D01*
X6059184Y-706540D02*
Y-686855D01*
X6039499Y-706540D02*
Y-686855D01*
X6019813Y-706540D02*
Y-686855D01*
X6000128Y-706540D02*
Y-686855D01*
X5980443Y-706540D02*
Y-686855D01*
G54D17*
X6045404Y-757721D02*
X6013908D01*
G54D18*
X6196979Y-572761D02*
X6181231D01*
X6102491Y-490083D02*
X6086743D01*
G54D19*
X6196979D02*
X6181231D01*
G54D18*
X6102491Y-572761D02*
X6086743D01*
G54D20*
X6200916Y-531422D02*
X6177294D01*
G54D21*
X6106428D02*
X6082806D01*
G54D22*
X6046073Y-988666D03*
G54D22*
X5998160Y-909926D03*
G54D23*
X6126113Y-950280D02*
Y-938469D01*
G54D24*
X6118957Y-955467D02*
Y-933282D01*
X6133268Y-955467D02*
Y-933282D01*
G54D16*
X6090680Y-950280D02*
Y-938469D01*
G54D24*
X6081524Y-957467D02*
Y-931282D01*
X6099835Y-957467D02*
Y-931282D01*
G54D23*
X6290483Y-665831D02*
Y-654020D01*
G54D24*
X6283327Y-671018D02*
Y-648833D01*
X6297638Y-671018D02*
Y-648833D01*
G54D16*
X6255050Y-665831D02*
Y-654020D01*
G54D24*
X6245894Y-673018D02*
Y-646833D01*
X6264205Y-673018D02*
Y-646833D01*
G54D20*
X6137924Y-902052D02*
X6126113D01*
G54D25*
X6147048Y-915113D02*
X6116989D01*
X6147048Y-888991D02*
X6116989D01*
G54D21*
X6070995Y-902052D02*
X6059184D01*
G54D25*
X6082119Y-917113D02*
X6048060D01*
X6082119Y-886991D02*
X6048060D01*
G54D26*
X6129813Y-842997D02*
X6118475D01*
G54D27*
X6142394Y-860263D02*
X6105894D01*
X6142394Y-825731D02*
X6105894D01*
G54D28*
X6129813Y-780005D02*
X6118475D01*
G54D27*
X6140394Y-795270D02*
X6107894D01*
X6140394Y-764739D02*
X6107894D01*
G54D23*
X6162530Y-737682D02*
X6150719D01*
G54D24*
X6167717Y-744837D02*
X6145532D01*
X6167717Y-730526D02*
X6145532D01*
G54D16*
X6162530Y-702249D02*
X6150719D01*
G54D24*
X6169717Y-711404D02*
X6143532D01*
X6169717Y-693093D02*
X6143532D01*
G54D29*
X6037806Y-755950D03*
G54D29*
X6018908Y-736698D03*
G54D30*
X6084774Y-1157957D03*
G54D30*
X6017845Y-1156973D03*
G54D29*
X5993239D03*
G54D31*
X6276703Y-530005D03*
G54D31*
Y-495556D03*
G54D31*
X6241113D03*
G54D31*
Y-530044D03*
G54D31*
X6242254Y-460123D03*
G54D31*
X6277136D03*
G54D31*
X6315042Y-431312D03*
G54D31*
X5966601Y-508351D03*
G54D31*
X5968601Y-430642D03*
G54D32*
X6290483Y-1155942D03*
G54D32*
X6264892D03*
G54D33*
X6316026Y-710123D03*
G54D33*
X6316184Y-611776D03*
G54D33*
Y-527013D03*
G54D33*
X6235798Y-574296D03*
G54D33*
X6124144Y-429343D03*
G54D33*
X6029341Y-428950D03*
G54D33*
X6027688Y-489650D03*
G54D33*
X6022097Y-562918D03*
G54D33*
X6035562Y-602721D03*
G54D33*
X5990286Y-734729D03*
G54D33*
X5966672D03*
G54D33*
X6109380Y-696343D03*
G54D33*
X5966711Y-1064453D03*
G54D33*
Y-1156501D03*
G54D32*
X6109144Y-1157957D03*
G54D32*
X6173790Y-1157682D03*
G54D32*
X6199735D03*
G54D16*
X5980443Y-828587D02*
Y-808902D01*
X6078869Y-828587D02*
Y-808902D01*
G54D18*
X6059871Y-818745D02*
X5999441D01*
G54D16*
X5980443Y-706540D02*
Y-686855D01*
X6078869Y-706540D02*
Y-686855D01*
G54D18*
X6059871Y-696698D02*
X5999441D01*
G54D10*
X6006034Y-167721D02*
Y-80162D01*
G54D11*
X5986044Y-181451D02*
Y-66432D01*
X6026024Y-181451D02*
Y-66432D01*
G54D12*
X6096585Y-167721D02*
Y-80162D01*
G54D11*
X6074595Y-183451D02*
Y-64432D01*
X6118575Y-183451D02*
Y-64432D01*
G54D12*
X6186939Y-167288D02*
Y-79729D01*
G54D11*
X6164949Y-183018D02*
Y-63999D01*
X6208930Y-183018D02*
Y-63999D01*
G54D12*
X6277412Y-168272D02*
Y-80713D01*
G54D11*
X6255422Y-184002D02*
Y-64983D01*
X6299402Y-184002D02*
Y-64983D01*
G54D13*
X6264380Y272200D02*
X6260443D01*
X6264380Y209208D02*
X6260443D01*
X6206506Y272200D02*
X6202569D01*
X6206506Y209208D02*
X6202569D01*
G54D14*
X6195010Y159110D02*
Y164976D01*
G54D15*
Y56236D02*
Y62102D01*
G54D14*
X6290916Y159700D02*
Y165566D01*
G54D15*
Y56826D02*
Y62692D01*
G54D16*
X5980443Y155665D02*
Y175350D01*
X6000128Y155665D02*
Y175350D01*
X6019813Y155665D02*
Y175350D01*
X6039499Y155665D02*
Y175350D01*
X6059184Y155665D02*
Y175350D01*
X6078869Y155665D02*
Y175350D01*
Y277712D02*
Y297397D01*
X6059184Y277712D02*
Y297397D01*
X6039499Y277712D02*
Y297397D01*
X6019813Y277712D02*
Y297397D01*
X6000128Y277712D02*
Y297397D01*
X5980443Y277712D02*
Y297397D01*
G54D17*
X6045404Y226531D02*
X6013908D01*
G54D18*
X6196979Y411491D02*
X6181231D01*
X6102491Y494169D02*
X6086743D01*
G54D19*
X6196979D02*
X6181231D01*
G54D18*
X6102491Y411491D02*
X6086743D01*
G54D20*
X6200916Y452830D02*
X6177294D01*
G54D21*
X6106428D02*
X6082806D01*
G54D22*
X6046073Y-4414D03*
G54D22*
X5998160Y74326D03*
G54D23*
X6126113Y33972D02*
Y45783D01*
G54D24*
X6118957Y28785D02*
Y50970D01*
X6133268Y28785D02*
Y50970D01*
G54D16*
X6090680Y33972D02*
Y45783D01*
G54D24*
X6081524Y26785D02*
Y52970D01*
X6099835Y26785D02*
Y52970D01*
G54D23*
X6290483Y318421D02*
Y330232D01*
G54D24*
X6283327Y313234D02*
Y335419D01*
X6297638Y313234D02*
Y335419D01*
G54D16*
X6255050Y318421D02*
Y330232D01*
G54D24*
X6245894Y311234D02*
Y337419D01*
X6264205Y311234D02*
Y337419D01*
G54D20*
X6137924Y82200D02*
X6126113D01*
G54D25*
X6147048Y69139D02*
X6116989D01*
X6147048Y95261D02*
X6116989D01*
G54D21*
X6070995Y82200D02*
X6059184D01*
G54D25*
X6082119Y67139D02*
X6048060D01*
X6082119Y97261D02*
X6048060D01*
G54D26*
X6129813Y141255D02*
X6118475D01*
G54D27*
X6142394Y123989D02*
X6105894D01*
X6142394Y158521D02*
X6105894D01*
G54D28*
X6129813Y204247D02*
X6118475D01*
G54D27*
X6140394Y188982D02*
X6107894D01*
X6140394Y219513D02*
X6107894D01*
G54D23*
X6162530Y246570D02*
X6150719D01*
G54D24*
X6167717Y239415D02*
X6145532D01*
X6167717Y253726D02*
X6145532D01*
G54D16*
X6162530Y282003D02*
X6150719D01*
G54D24*
X6169717Y272848D02*
X6143532D01*
X6169717Y291159D02*
X6143532D01*
G54D29*
X6037806Y228302D03*
G54D29*
X6018908Y247554D03*
G54D30*
X6084774Y-173705D03*
G54D30*
X6017845Y-172721D03*
G54D29*
X5993239D03*
G54D31*
X6276703Y454247D03*
G54D31*
Y488696D03*
G54D31*
X6241113D03*
G54D31*
Y454208D03*
G54D31*
X6242254Y524129D03*
G54D31*
X6277136D03*
G54D31*
X6315042Y552940D03*
G54D31*
X5966601Y475901D03*
G54D31*
X5968601Y553610D03*
G54D32*
X6290483Y-171690D03*
G54D32*
X6264892D03*
G54D33*
X6316026Y274129D03*
G54D33*
X6316184Y372476D03*
G54D33*
Y457239D03*
G54D33*
X6235798Y409956D03*
G54D33*
X6124144Y554909D03*
G54D33*
X6029341Y555302D03*
G54D33*
X6027688Y494602D03*
G54D33*
X6022097Y421334D03*
G54D33*
X6035562Y381531D03*
G54D33*
X5990286Y249523D03*
G54D33*
X5966672D03*
G54D33*
X6109380Y287909D03*
G54D33*
X5966711Y-80201D03*
G54D33*
Y-172249D03*
G54D32*
X6109144Y-173705D03*
G54D32*
X6173790Y-173430D03*
G54D32*
X6199735D03*
G54D16*
X5980443Y155665D02*
Y175350D01*
X6078869Y155665D02*
Y175350D01*
G54D18*
X6059871Y165507D02*
X5999441D01*
G54D16*
X5980443Y277712D02*
Y297397D01*
X6078869Y277712D02*
Y297397D01*
G54D18*
X6059871Y287554D02*
X5999441D01*
G54D10*
X6006034Y816531D02*
Y904090D01*
G54D11*
X5986044Y802800D02*
Y917820D01*
X6026024Y802800D02*
Y917820D01*
G54D12*
X6096585Y816531D02*
Y904090D01*
G54D11*
X6074595Y800801D02*
Y919820D01*
X6118575Y800801D02*
Y919820D01*
G54D12*
X6186939Y816964D02*
Y904523D01*
G54D11*
X6164949Y801234D02*
Y920253D01*
X6208930Y801234D02*
Y920253D01*
G54D12*
X6277412Y815980D02*
Y903538D01*
G54D11*
X6255422Y800250D02*
Y919269D01*
X6299402Y800250D02*
Y919269D01*
G54D13*
X6264380Y1256452D02*
X6260443D01*
X6264380Y1193460D02*
X6260443D01*
X6206506Y1256452D02*
X6202569D01*
X6206506Y1193460D02*
X6202569D01*
G54D14*
X6195010Y1143362D02*
Y1149228D01*
G54D15*
Y1040488D02*
Y1046354D01*
G54D14*
X6290916Y1143952D02*
Y1149818D01*
G54D15*
Y1041078D02*
Y1046944D01*
G54D16*
X5980443Y1139917D02*
Y1159602D01*
X6000128Y1139917D02*
Y1159602D01*
X6019813Y1139917D02*
Y1159602D01*
X6039499Y1139917D02*
Y1159602D01*
X6059184Y1139917D02*
Y1159602D01*
X6078869Y1139917D02*
Y1159602D01*
Y1261964D02*
Y1281649D01*
X6059184Y1261964D02*
Y1281649D01*
X6039499Y1261964D02*
Y1281649D01*
X6019813Y1261964D02*
Y1281649D01*
X6000128Y1261964D02*
Y1281649D01*
X5980443Y1261964D02*
Y1281649D01*
G54D17*
X6045404Y1210783D02*
X6013908D01*
G54D18*
X6196979Y1395743D02*
X6181231D01*
X6102491Y1478421D02*
X6086743D01*
G54D19*
X6196979D02*
X6181231D01*
G54D18*
X6102491Y1395743D02*
X6086743D01*
G54D20*
X6200916Y1437082D02*
X6177294D01*
G54D21*
X6106428D02*
X6082806D01*
G54D22*
X6046073Y979838D03*
G54D22*
X5998160Y1058578D03*
G54D23*
X6126113Y1018224D02*
Y1030035D01*
G54D24*
X6118957Y1013037D02*
Y1035222D01*
X6133268Y1013037D02*
Y1035222D01*
G54D16*
X6090680Y1018224D02*
Y1030035D01*
G54D24*
X6081524Y1011037D02*
Y1037222D01*
X6099835Y1011037D02*
Y1037222D01*
G54D23*
X6290483Y1302673D02*
Y1314484D01*
G54D24*
X6283327Y1297486D02*
Y1319671D01*
X6297638Y1297486D02*
Y1319671D01*
G54D16*
X6255050Y1302673D02*
Y1314484D01*
G54D24*
X6245894Y1295486D02*
Y1321671D01*
X6264205Y1295486D02*
Y1321671D01*
G54D20*
X6137924Y1066452D02*
X6126113D01*
G54D25*
X6147048Y1053391D02*
X6116989D01*
X6147048Y1079513D02*
X6116989D01*
G54D21*
X6070995Y1066452D02*
X6059184D01*
G54D25*
X6082119Y1051391D02*
X6048060D01*
X6082119Y1081513D02*
X6048060D01*
G54D26*
X6129813Y1125507D02*
X6118475D01*
G54D27*
X6142394Y1108241D02*
X6105894D01*
X6142394Y1142773D02*
X6105894D01*
G54D28*
X6129813Y1188499D02*
X6118475D01*
G54D27*
X6140394Y1173234D02*
X6107894D01*
X6140394Y1203765D02*
X6107894D01*
G54D23*
X6162530Y1230822D02*
X6150719D01*
G54D24*
X6167717Y1223667D02*
X6145532D01*
X6167717Y1237978D02*
X6145532D01*
G54D16*
X6162530Y1266255D02*
X6150719D01*
G54D24*
X6169717Y1257100D02*
X6143532D01*
X6169717Y1275411D02*
X6143532D01*
G54D29*
X6037806Y1212554D03*
G54D29*
X6018908Y1231806D03*
G54D30*
X6084774Y810547D03*
G54D30*
X6017845Y811531D03*
G54D29*
X5993239D03*
G54D31*
X6276703Y1438499D03*
G54D31*
Y1472948D03*
G54D31*
X6241113D03*
G54D31*
Y1438460D03*
G54D31*
X6242254Y1508381D03*
G54D31*
X6277136D03*
G54D31*
X6315042Y1537192D03*
G54D31*
X5966601Y1460153D03*
G54D31*
X5968601Y1537862D03*
G54D32*
X6290483Y812562D03*
G54D32*
X6264892D03*
G54D33*
X6316026Y1258381D03*
G54D33*
X6316184Y1356728D03*
G54D33*
Y1441491D03*
G54D33*
X6235798Y1394208D03*
G54D33*
X6124144Y1539161D03*
G54D33*
X6029341Y1539554D03*
G54D33*
X6027688Y1478854D03*
G54D33*
X6022097Y1405586D03*
G54D33*
X6035562Y1365783D03*
G54D33*
X5990286Y1233775D03*
G54D33*
X5966672D03*
G54D33*
X6109380Y1272161D03*
G54D33*
X5966711Y904050D03*
G54D33*
Y812003D03*
G54D32*
X6109144Y810547D03*
G54D32*
X6173790Y810822D03*
G54D32*
X6199735D03*
G54D16*
X5980443Y1139917D02*
Y1159602D01*
X6078869Y1139917D02*
Y1159602D01*
G54D18*
X6059871Y1149759D02*
X5999441D01*
G54D16*
X5980443Y1261964D02*
Y1281649D01*
X6078869Y1261964D02*
Y1281649D01*
G54D18*
X6059871Y1271806D02*
X5999441D01*
G54D10*
X6006034Y1800783D02*
Y1888342D01*
G54D11*
X5986044Y1787052D02*
Y1902072D01*
X6026024Y1787052D02*
Y1902072D01*
G54D12*
X6096585Y1800783D02*
Y1888342D01*
G54D11*
X6074595Y1785053D02*
Y1904072D01*
X6118575Y1785053D02*
Y1904072D01*
G54D12*
X6186939Y1801216D02*
Y1888775D01*
G54D11*
X6164949Y1785486D02*
Y1904505D01*
X6208930Y1785486D02*
Y1904505D01*
G54D12*
X6277412Y1800232D02*
Y1887790D01*
G54D11*
X6255422Y1784501D02*
Y1903521D01*
X6299402Y1784501D02*
Y1903521D01*
G54D13*
X6264380Y2240704D02*
X6260443D01*
X6264380Y2177712D02*
X6260443D01*
X6206506Y2240704D02*
X6202569D01*
X6206506Y2177712D02*
X6202569D01*
G54D14*
X6195010Y2127613D02*
Y2133480D01*
G54D15*
Y2024740D02*
Y2030606D01*
G54D14*
X6290916Y2128204D02*
Y2134070D01*
G54D15*
Y2025330D02*
Y2031196D01*
G54D16*
X5980443Y2124169D02*
Y2143854D01*
X6000128Y2124169D02*
Y2143854D01*
X6019813Y2124169D02*
Y2143854D01*
X6039499Y2124169D02*
Y2143854D01*
X6059184Y2124169D02*
Y2143854D01*
X6078869Y2124169D02*
Y2143854D01*
Y2246216D02*
Y2265901D01*
X6059184Y2246216D02*
Y2265901D01*
X6039499Y2246216D02*
Y2265901D01*
X6019813Y2246216D02*
Y2265901D01*
X6000128Y2246216D02*
Y2265901D01*
X5980443Y2246216D02*
Y2265901D01*
G54D17*
X6045404Y2195035D02*
X6013908D01*
G54D18*
X6196979Y2379995D02*
X6181231D01*
X6102491Y2462673D02*
X6086743D01*
G54D19*
X6196979D02*
X6181231D01*
G54D18*
X6102491Y2379995D02*
X6086743D01*
G54D20*
X6200916Y2421334D02*
X6177294D01*
G54D21*
X6106428D02*
X6082806D01*
G54D22*
X6046073Y1964090D03*
G54D22*
X5998160Y2042830D03*
G54D23*
X6126113Y2002476D02*
Y2014287D01*
G54D24*
X6118957Y1997289D02*
Y2019474D01*
X6133268Y1997289D02*
Y2019474D01*
G54D16*
X6090680Y2002476D02*
Y2014287D01*
G54D24*
X6081524Y1995289D02*
Y2021474D01*
X6099835Y1995289D02*
Y2021474D01*
G54D23*
X6290483Y2286925D02*
Y2298736D01*
G54D24*
X6283327Y2281738D02*
Y2303923D01*
X6297638Y2281738D02*
Y2303923D01*
G54D16*
X6255050Y2286925D02*
Y2298736D01*
G54D24*
X6245894Y2279738D02*
Y2305923D01*
X6264205Y2279738D02*
Y2305923D01*
G54D20*
X6137924Y2050704D02*
X6126113D01*
G54D25*
X6147048Y2037643D02*
X6116989D01*
X6147048Y2063765D02*
X6116989D01*
G54D21*
X6070995Y2050704D02*
X6059184D01*
G54D25*
X6082119Y2035643D02*
X6048060D01*
X6082119Y2065765D02*
X6048060D01*
G54D26*
X6129813Y2109759D02*
X6118475D01*
G54D27*
X6142394Y2092493D02*
X6105894D01*
X6142394Y2127025D02*
X6105894D01*
G54D28*
X6129813Y2172751D02*
X6118475D01*
G54D27*
X6140394Y2157486D02*
X6107894D01*
X6140394Y2188017D02*
X6107894D01*
G54D23*
X6162530Y2215074D02*
X6150719D01*
G54D24*
X6167717Y2207919D02*
X6145532D01*
X6167717Y2222230D02*
X6145532D01*
G54D16*
X6162530Y2250507D02*
X6150719D01*
G54D24*
X6169717Y2241352D02*
X6143532D01*
X6169717Y2259663D02*
X6143532D01*
G54D29*
X6037806Y2196806D03*
G54D29*
X6018908Y2216058D03*
G54D30*
X6084774Y1794799D03*
G54D30*
X6017845Y1795783D03*
G54D29*
X5993239D03*
G54D31*
X6276703Y2422751D03*
G54D31*
Y2457200D03*
G54D31*
X6241113D03*
G54D31*
Y2422712D03*
G54D31*
X6242254Y2492633D03*
G54D31*
X6277136D03*
G54D31*
X6315042Y2521444D03*
G54D31*
X5966601Y2444405D03*
G54D31*
X5968601Y2522113D03*
G54D32*
X6290483Y1796814D03*
G54D32*
X6264892D03*
G54D33*
X6316026Y2242633D03*
G54D33*
X6316184Y2340980D03*
G54D33*
Y2425743D03*
G54D33*
X6235798Y2378460D03*
G54D33*
X6124144Y2523413D03*
G54D33*
X6029341Y2523806D03*
G54D33*
X6027688Y2463106D03*
G54D33*
X6022097Y2389838D03*
G54D33*
X6035562Y2350035D03*
G54D33*
X5990286Y2218027D03*
G54D33*
X5966672D03*
G54D33*
X6109380Y2256413D03*
G54D33*
X5966711Y1888302D03*
G54D33*
Y1796255D03*
G54D32*
X6109144Y1794799D03*
G54D32*
X6173790Y1795074D03*
G54D32*
X6199735D03*
G54D16*
X5980443Y2124169D02*
Y2143854D01*
X6078869Y2124169D02*
Y2143854D01*
G54D18*
X6059871Y2134011D02*
X5999441D01*
G54D16*
X5980443Y2246216D02*
Y2265901D01*
X6078869Y2246216D02*
Y2265901D01*
G54D18*
X6059871Y2256058D02*
X5999441D01*
G54D10*
X6494223Y-2136225D02*
Y-2048666D01*
G54D11*
X6474233Y-2149955D02*
Y-2034936D01*
X6514213Y-2149955D02*
Y-2034936D01*
G54D12*
X6584774Y-2136225D02*
Y-2048666D01*
G54D11*
X6562784Y-2151955D02*
Y-2032936D01*
X6606764Y-2151955D02*
Y-2032936D01*
G54D12*
X6675128Y-2135792D02*
Y-2048233D01*
G54D11*
X6653138Y-2151522D02*
Y-2032503D01*
X6697119Y-2151522D02*
Y-2032503D01*
G54D12*
X6765601Y-2136776D02*
Y-2049217D01*
G54D11*
X6743611Y-2152506D02*
Y-2033487D01*
X6787591Y-2152506D02*
Y-2033487D01*
G54D13*
X6752569Y-1696304D02*
X6748632D01*
X6752569Y-1759296D02*
X6748632D01*
X6694695Y-1696304D02*
X6690758D01*
X6694695Y-1759296D02*
X6690758D01*
G54D14*
X6683199Y-1809394D02*
Y-1803528D01*
G54D15*
Y-1912268D02*
Y-1906402D01*
G54D14*
X6779105Y-1808804D02*
Y-1802938D01*
G54D15*
Y-1911678D02*
Y-1905812D01*
G54D16*
X6468632Y-1812839D02*
Y-1793154D01*
X6488317Y-1812839D02*
Y-1793154D01*
X6508002Y-1812839D02*
Y-1793154D01*
X6527688Y-1812839D02*
Y-1793154D01*
X6547373Y-1812839D02*
Y-1793154D01*
X6567058Y-1812839D02*
Y-1793154D01*
Y-1690792D02*
Y-1671107D01*
X6547373Y-1690792D02*
Y-1671107D01*
X6527688Y-1690792D02*
Y-1671107D01*
X6508002Y-1690792D02*
Y-1671107D01*
X6488317Y-1690792D02*
Y-1671107D01*
X6468632Y-1690792D02*
Y-1671107D01*
G54D17*
X6533593Y-1741973D02*
X6502097D01*
G54D18*
X6685168Y-1557013D02*
X6669420D01*
X6590680Y-1474335D02*
X6574932D01*
G54D19*
X6685168D02*
X6669420D01*
G54D18*
X6590680Y-1557013D02*
X6574932D01*
G54D20*
X6689105Y-1515674D02*
X6665483D01*
G54D21*
X6594617D02*
X6570995D01*
G54D22*
X6534262Y-1972918D03*
G54D22*
X6486349Y-1894178D03*
G54D23*
X6614302Y-1934532D02*
Y-1922721D01*
G54D24*
X6607146Y-1939719D02*
Y-1917534D01*
X6621457Y-1939719D02*
Y-1917534D01*
G54D16*
X6578869Y-1934532D02*
Y-1922721D01*
G54D24*
X6569713Y-1941719D02*
Y-1915534D01*
X6588024Y-1941719D02*
Y-1915534D01*
G54D23*
X6778672Y-1650083D02*
Y-1638272D01*
G54D24*
X6771516Y-1655270D02*
Y-1633085D01*
X6785827Y-1655270D02*
Y-1633085D01*
G54D16*
X6743239Y-1650083D02*
Y-1638272D01*
G54D24*
X6734083Y-1657270D02*
Y-1631085D01*
X6752394Y-1657270D02*
Y-1631085D01*
G54D20*
X6626113Y-1886304D02*
X6614302D01*
G54D25*
X6635237Y-1899365D02*
X6605178D01*
X6635237Y-1873243D02*
X6605178D01*
G54D21*
X6559184Y-1886304D02*
X6547373D01*
G54D25*
X6570307Y-1901365D02*
X6536249D01*
X6570307Y-1871243D02*
X6536249D01*
G54D26*
X6618002Y-1827249D02*
X6606664D01*
G54D27*
X6630583Y-1844515D02*
X6594083D01*
X6630583Y-1809983D02*
X6594083D01*
G54D28*
X6618002Y-1764257D02*
X6606664D01*
G54D27*
X6628583Y-1779522D02*
X6596083D01*
X6628583Y-1748991D02*
X6596083D01*
G54D23*
X6650719Y-1721934D02*
X6638908D01*
G54D24*
X6655906Y-1729089D02*
X6633721D01*
X6655906Y-1714778D02*
X6633721D01*
G54D16*
X6650719Y-1686501D02*
X6638908D01*
G54D24*
X6657906Y-1695656D02*
X6631721D01*
X6657906Y-1677345D02*
X6631721D01*
G54D29*
X6525995Y-1740201D03*
G54D29*
X6507097Y-1720950D03*
G54D30*
X6572963Y-2142209D03*
G54D30*
X6506034Y-2141225D03*
G54D29*
X6481428D03*
G54D31*
X6764892Y-1514257D03*
G54D31*
Y-1479808D03*
G54D31*
X6729302D03*
G54D31*
Y-1514296D03*
G54D31*
X6730443Y-1444375D03*
G54D31*
X6765325D03*
G54D31*
X6803231Y-1415564D03*
G54D31*
X6454790Y-1492603D03*
G54D31*
X6456790Y-1414894D03*
G54D32*
X6778672Y-2140194D03*
G54D32*
X6753081D03*
G54D33*
X6804215Y-1694375D03*
G54D33*
X6804373Y-1596028D03*
G54D33*
Y-1511264D03*
G54D33*
X6723987Y-1558548D03*
G54D33*
X6612333Y-1413595D03*
G54D33*
X6517530Y-1413201D03*
G54D33*
X6515876Y-1473902D03*
G54D33*
X6510286Y-1547170D03*
G54D33*
X6523750Y-1586973D03*
G54D33*
X6478475Y-1718981D03*
G54D33*
X6454861D03*
G54D33*
X6597569Y-1680595D03*
G54D33*
X6454900Y-2048705D03*
G54D33*
Y-2140753D03*
G54D32*
X6597333Y-2142209D03*
G54D32*
X6661979Y-2141934D03*
G54D32*
X6687924D03*
G54D16*
X6468632Y-1812839D02*
Y-1793154D01*
X6567058Y-1812839D02*
Y-1793154D01*
G54D18*
X6548060Y-1802997D02*
X6487630D01*
G54D16*
X6468632Y-1690792D02*
Y-1671107D01*
X6567058Y-1690792D02*
Y-1671107D01*
G54D18*
X6548060Y-1680950D02*
X6487630D01*
G54D10*
X6494223Y-1151973D02*
Y-1064414D01*
G54D11*
X6474233Y-1165703D02*
Y-1050684D01*
X6514213Y-1165703D02*
Y-1050684D01*
G54D12*
X6584774Y-1151973D02*
Y-1064414D01*
G54D11*
X6562784Y-1167703D02*
Y-1048684D01*
X6606764Y-1167703D02*
Y-1048684D01*
G54D12*
X6675128Y-1151540D02*
Y-1063981D01*
G54D11*
X6653138Y-1167270D02*
Y-1048251D01*
X6697119Y-1167270D02*
Y-1048251D01*
G54D12*
X6765601Y-1152524D02*
Y-1064965D01*
G54D11*
X6743611Y-1168254D02*
Y-1049235D01*
X6787591Y-1168254D02*
Y-1049235D01*
G54D13*
X6752569Y-712052D02*
X6748632D01*
X6752569Y-775044D02*
X6748632D01*
X6694695Y-712052D02*
X6690758D01*
X6694695Y-775044D02*
X6690758D01*
G54D14*
X6683199Y-825142D02*
Y-819276D01*
G54D15*
Y-928016D02*
Y-922150D01*
G54D14*
X6779105Y-824552D02*
Y-818686D01*
G54D15*
Y-927426D02*
Y-921560D01*
G54D16*
X6468632Y-828587D02*
Y-808902D01*
X6488317Y-828587D02*
Y-808902D01*
X6508002Y-828587D02*
Y-808902D01*
X6527688Y-828587D02*
Y-808902D01*
X6547373Y-828587D02*
Y-808902D01*
X6567058Y-828587D02*
Y-808902D01*
Y-706540D02*
Y-686855D01*
X6547373Y-706540D02*
Y-686855D01*
X6527688Y-706540D02*
Y-686855D01*
X6508002Y-706540D02*
Y-686855D01*
X6488317Y-706540D02*
Y-686855D01*
X6468632Y-706540D02*
Y-686855D01*
G54D17*
X6533593Y-757721D02*
X6502097D01*
G54D18*
X6685168Y-572761D02*
X6669420D01*
X6590680Y-490083D02*
X6574932D01*
G54D19*
X6685168D02*
X6669420D01*
G54D18*
X6590680Y-572761D02*
X6574932D01*
G54D20*
X6689105Y-531422D02*
X6665483D01*
G54D21*
X6594617D02*
X6570995D01*
G54D22*
X6534262Y-988666D03*
G54D22*
X6486349Y-909926D03*
G54D23*
X6614302Y-950280D02*
Y-938469D01*
G54D24*
X6607146Y-955467D02*
Y-933282D01*
X6621457Y-955467D02*
Y-933282D01*
G54D16*
X6578869Y-950280D02*
Y-938469D01*
G54D24*
X6569713Y-957467D02*
Y-931282D01*
X6588024Y-957467D02*
Y-931282D01*
G54D23*
X6778672Y-665831D02*
Y-654020D01*
G54D24*
X6771516Y-671018D02*
Y-648833D01*
X6785827Y-671018D02*
Y-648833D01*
G54D16*
X6743239Y-665831D02*
Y-654020D01*
G54D24*
X6734083Y-673018D02*
Y-646833D01*
X6752394Y-673018D02*
Y-646833D01*
G54D20*
X6626113Y-902052D02*
X6614302D01*
G54D25*
X6635237Y-915113D02*
X6605178D01*
X6635237Y-888991D02*
X6605178D01*
G54D21*
X6559184Y-902052D02*
X6547373D01*
G54D25*
X6570307Y-917113D02*
X6536249D01*
X6570307Y-886991D02*
X6536249D01*
G54D26*
X6618002Y-842997D02*
X6606664D01*
G54D27*
X6630583Y-860263D02*
X6594083D01*
X6630583Y-825731D02*
X6594083D01*
G54D28*
X6618002Y-780005D02*
X6606664D01*
G54D27*
X6628583Y-795270D02*
X6596083D01*
X6628583Y-764739D02*
X6596083D01*
G54D23*
X6650719Y-737682D02*
X6638908D01*
G54D24*
X6655906Y-744837D02*
X6633721D01*
X6655906Y-730526D02*
X6633721D01*
G54D16*
X6650719Y-702249D02*
X6638908D01*
G54D24*
X6657906Y-711404D02*
X6631721D01*
X6657906Y-693093D02*
X6631721D01*
G54D29*
X6525995Y-755950D03*
G54D29*
X6507097Y-736698D03*
G54D30*
X6572963Y-1157957D03*
G54D30*
X6506034Y-1156973D03*
G54D29*
X6481428D03*
G54D31*
X6764892Y-530005D03*
G54D31*
Y-495556D03*
G54D31*
X6729302D03*
G54D31*
Y-530044D03*
G54D31*
X6730443Y-460123D03*
G54D31*
X6765325D03*
G54D31*
X6803231Y-431312D03*
G54D31*
X6454790Y-508351D03*
G54D31*
X6456790Y-430642D03*
G54D32*
X6778672Y-1155942D03*
G54D32*
X6753081D03*
G54D33*
X6804215Y-710123D03*
G54D33*
X6804373Y-611776D03*
G54D33*
Y-527013D03*
G54D33*
X6723987Y-574296D03*
G54D33*
X6612333Y-429343D03*
G54D33*
X6517530Y-428950D03*
G54D33*
X6515876Y-489650D03*
G54D33*
X6510286Y-562918D03*
G54D33*
X6523750Y-602721D03*
G54D33*
X6478475Y-734729D03*
G54D33*
X6454861D03*
G54D33*
X6597569Y-696343D03*
G54D33*
X6454900Y-1064453D03*
G54D33*
Y-1156501D03*
G54D32*
X6597333Y-1157957D03*
G54D32*
X6661979Y-1157682D03*
G54D32*
X6687924D03*
G54D16*
X6468632Y-828587D02*
Y-808902D01*
X6567058Y-828587D02*
Y-808902D01*
G54D18*
X6548060Y-818745D02*
X6487630D01*
G54D16*
X6468632Y-706540D02*
Y-686855D01*
X6567058Y-706540D02*
Y-686855D01*
G54D18*
X6548060Y-696698D02*
X6487630D01*
G54D10*
X6494223Y-167721D02*
Y-80162D01*
G54D11*
X6474233Y-181451D02*
Y-66432D01*
X6514213Y-181451D02*
Y-66432D01*
G54D12*
X6584774Y-167721D02*
Y-80162D01*
G54D11*
X6562784Y-183451D02*
Y-64432D01*
X6606764Y-183451D02*
Y-64432D01*
G54D12*
X6675128Y-167288D02*
Y-79729D01*
G54D11*
X6653138Y-183018D02*
Y-63999D01*
X6697119Y-183018D02*
Y-63999D01*
G54D12*
X6765601Y-168272D02*
Y-80713D01*
G54D11*
X6743611Y-184002D02*
Y-64983D01*
X6787591Y-184002D02*
Y-64983D01*
G54D13*
X6752569Y272200D02*
X6748632D01*
X6752569Y209208D02*
X6748632D01*
X6694695Y272200D02*
X6690758D01*
X6694695Y209208D02*
X6690758D01*
G54D14*
X6683199Y159110D02*
Y164976D01*
G54D15*
Y56236D02*
Y62102D01*
G54D14*
X6779105Y159700D02*
Y165566D01*
G54D15*
Y56826D02*
Y62692D01*
G54D16*
X6468632Y155665D02*
Y175350D01*
X6488317Y155665D02*
Y175350D01*
X6508002Y155665D02*
Y175350D01*
X6527688Y155665D02*
Y175350D01*
X6547373Y155665D02*
Y175350D01*
X6567058Y155665D02*
Y175350D01*
Y277712D02*
Y297397D01*
X6547373Y277712D02*
Y297397D01*
X6527688Y277712D02*
Y297397D01*
X6508002Y277712D02*
Y297397D01*
X6488317Y277712D02*
Y297397D01*
X6468632Y277712D02*
Y297397D01*
G54D17*
X6533593Y226531D02*
X6502097D01*
G54D18*
X6685168Y411491D02*
X6669420D01*
X6590680Y494169D02*
X6574932D01*
G54D19*
X6685168D02*
X6669420D01*
G54D18*
X6590680Y411491D02*
X6574932D01*
G54D20*
X6689105Y452830D02*
X6665483D01*
G54D21*
X6594617D02*
X6570995D01*
G54D22*
X6534262Y-4414D03*
G54D22*
X6486349Y74326D03*
G54D23*
X6614302Y33972D02*
Y45783D01*
G54D24*
X6607146Y28785D02*
Y50970D01*
X6621457Y28785D02*
Y50970D01*
G54D16*
X6578869Y33972D02*
Y45783D01*
G54D24*
X6569713Y26785D02*
Y52970D01*
X6588024Y26785D02*
Y52970D01*
G54D23*
X6778672Y318421D02*
Y330232D01*
G54D24*
X6771516Y313234D02*
Y335419D01*
X6785827Y313234D02*
Y335419D01*
G54D16*
X6743239Y318421D02*
Y330232D01*
G54D24*
X6734083Y311234D02*
Y337419D01*
X6752394Y311234D02*
Y337419D01*
G54D20*
X6626113Y82200D02*
X6614302D01*
G54D25*
X6635237Y69139D02*
X6605178D01*
X6635237Y95261D02*
X6605178D01*
G54D21*
X6559184Y82200D02*
X6547373D01*
G54D25*
X6570307Y67139D02*
X6536249D01*
X6570307Y97261D02*
X6536249D01*
G54D26*
X6618002Y141255D02*
X6606664D01*
G54D27*
X6630583Y123989D02*
X6594083D01*
X6630583Y158521D02*
X6594083D01*
G54D28*
X6618002Y204247D02*
X6606664D01*
G54D27*
X6628583Y188982D02*
X6596083D01*
X6628583Y219513D02*
X6596083D01*
G54D23*
X6650719Y246570D02*
X6638908D01*
G54D24*
X6655906Y239415D02*
X6633721D01*
X6655906Y253726D02*
X6633721D01*
G54D16*
X6650719Y282003D02*
X6638908D01*
G54D24*
X6657906Y272848D02*
X6631721D01*
X6657906Y291159D02*
X6631721D01*
G54D29*
X6525995Y228302D03*
G54D29*
X6507097Y247554D03*
G54D30*
X6572963Y-173705D03*
G54D30*
X6506034Y-172721D03*
G54D29*
X6481428D03*
G54D31*
X6764892Y454247D03*
G54D31*
Y488696D03*
G54D31*
X6729302D03*
G54D31*
Y454208D03*
G54D31*
X6730443Y524129D03*
G54D31*
X6765325D03*
G54D31*
X6803231Y552940D03*
G54D31*
X6454790Y475901D03*
G54D31*
X6456790Y553610D03*
G54D32*
X6778672Y-171690D03*
G54D32*
X6753081D03*
G54D33*
X6804215Y274129D03*
G54D33*
X6804373Y372476D03*
G54D33*
Y457239D03*
G54D33*
X6723987Y409956D03*
G54D33*
X6612333Y554909D03*
G54D33*
X6517530Y555302D03*
G54D33*
X6515876Y494602D03*
G54D33*
X6510286Y421334D03*
G54D33*
X6523750Y381531D03*
G54D33*
X6478475Y249523D03*
G54D33*
X6454861D03*
G54D33*
X6597569Y287909D03*
G54D33*
X6454900Y-80201D03*
G54D33*
Y-172249D03*
G54D32*
X6597333Y-173705D03*
G54D32*
X6661979Y-173430D03*
G54D32*
X6687924D03*
G54D16*
X6468632Y155665D02*
Y175350D01*
X6567058Y155665D02*
Y175350D01*
G54D18*
X6548060Y165507D02*
X6487630D01*
G54D16*
X6468632Y277712D02*
Y297397D01*
X6567058Y277712D02*
Y297397D01*
G54D18*
X6548060Y287554D02*
X6487630D01*
G54D10*
X6494223Y816531D02*
Y904090D01*
G54D11*
X6474233Y802800D02*
Y917820D01*
X6514213Y802800D02*
Y917820D01*
G54D12*
X6584774Y816531D02*
Y904090D01*
G54D11*
X6562784Y800801D02*
Y919820D01*
X6606764Y800801D02*
Y919820D01*
G54D12*
X6675128Y816964D02*
Y904523D01*
G54D11*
X6653138Y801234D02*
Y920253D01*
X6697119Y801234D02*
Y920253D01*
G54D12*
X6765601Y815980D02*
Y903538D01*
G54D11*
X6743611Y800250D02*
Y919269D01*
X6787591Y800250D02*
Y919269D01*
G54D13*
X6752569Y1256452D02*
X6748632D01*
X6752569Y1193460D02*
X6748632D01*
X6694695Y1256452D02*
X6690758D01*
X6694695Y1193460D02*
X6690758D01*
G54D14*
X6683199Y1143362D02*
Y1149228D01*
G54D15*
Y1040488D02*
Y1046354D01*
G54D14*
X6779105Y1143952D02*
Y1149818D01*
G54D15*
Y1041078D02*
Y1046944D01*
G54D16*
X6468632Y1139917D02*
Y1159602D01*
X6488317Y1139917D02*
Y1159602D01*
X6508002Y1139917D02*
Y1159602D01*
X6527688Y1139917D02*
Y1159602D01*
X6547373Y1139917D02*
Y1159602D01*
X6567058Y1139917D02*
Y1159602D01*
Y1261964D02*
Y1281649D01*
X6547373Y1261964D02*
Y1281649D01*
X6527688Y1261964D02*
Y1281649D01*
X6508002Y1261964D02*
Y1281649D01*
X6488317Y1261964D02*
Y1281649D01*
X6468632Y1261964D02*
Y1281649D01*
G54D17*
X6533593Y1210783D02*
X6502097D01*
G54D18*
X6685168Y1395743D02*
X6669420D01*
X6590680Y1478421D02*
X6574932D01*
G54D19*
X6685168D02*
X6669420D01*
G54D18*
X6590680Y1395743D02*
X6574932D01*
G54D20*
X6689105Y1437082D02*
X6665483D01*
G54D21*
X6594617D02*
X6570995D01*
G54D22*
X6534262Y979838D03*
G54D22*
X6486349Y1058578D03*
G54D23*
X6614302Y1018224D02*
Y1030035D01*
G54D24*
X6607146Y1013037D02*
Y1035222D01*
X6621457Y1013037D02*
Y1035222D01*
G54D16*
X6578869Y1018224D02*
Y1030035D01*
G54D24*
X6569713Y1011037D02*
Y1037222D01*
X6588024Y1011037D02*
Y1037222D01*
G54D23*
X6778672Y1302673D02*
Y1314484D01*
G54D24*
X6771516Y1297486D02*
Y1319671D01*
X6785827Y1297486D02*
Y1319671D01*
G54D16*
X6743239Y1302673D02*
Y1314484D01*
G54D24*
X6734083Y1295486D02*
Y1321671D01*
X6752394Y1295486D02*
Y1321671D01*
G54D20*
X6626113Y1066452D02*
X6614302D01*
G54D25*
X6635237Y1053391D02*
X6605178D01*
X6635237Y1079513D02*
X6605178D01*
G54D21*
X6559184Y1066452D02*
X6547373D01*
G54D25*
X6570307Y1051391D02*
X6536249D01*
X6570307Y1081513D02*
X6536249D01*
G54D26*
X6618002Y1125507D02*
X6606664D01*
G54D27*
X6630583Y1108241D02*
X6594083D01*
X6630583Y1142773D02*
X6594083D01*
G54D28*
X6618002Y1188499D02*
X6606664D01*
G54D27*
X6628583Y1173234D02*
X6596083D01*
X6628583Y1203765D02*
X6596083D01*
G54D23*
X6650719Y1230822D02*
X6638908D01*
G54D24*
X6655906Y1223667D02*
X6633721D01*
X6655906Y1237978D02*
X6633721D01*
G54D16*
X6650719Y1266255D02*
X6638908D01*
G54D24*
X6657906Y1257100D02*
X6631721D01*
X6657906Y1275411D02*
X6631721D01*
G54D29*
X6525995Y1212554D03*
G54D29*
X6507097Y1231806D03*
G54D30*
X6572963Y810547D03*
G54D30*
X6506034Y811531D03*
G54D29*
X6481428D03*
G54D31*
X6764892Y1438499D03*
G54D31*
Y1472948D03*
G54D31*
X6729302D03*
G54D31*
Y1438460D03*
G54D31*
X6730443Y1508381D03*
G54D31*
X6765325D03*
G54D31*
X6803231Y1537192D03*
G54D31*
X6454790Y1460153D03*
G54D31*
X6456790Y1537862D03*
G54D32*
X6778672Y812562D03*
G54D32*
X6753081D03*
G54D33*
X6804215Y1258381D03*
G54D33*
X6804373Y1356728D03*
G54D33*
Y1441491D03*
G54D33*
X6723987Y1394208D03*
G54D33*
X6612333Y1539161D03*
G54D33*
X6517530Y1539554D03*
G54D33*
X6515876Y1478854D03*
G54D33*
X6510286Y1405586D03*
G54D33*
X6523750Y1365783D03*
G54D33*
X6478475Y1233775D03*
G54D33*
X6454861D03*
G54D33*
X6597569Y1272161D03*
G54D33*
X6454900Y904050D03*
G54D33*
Y812003D03*
G54D32*
X6597333Y810547D03*
G54D32*
X6661979Y810822D03*
G54D32*
X6687924D03*
G54D16*
X6468632Y1139917D02*
Y1159602D01*
X6567058Y1139917D02*
Y1159602D01*
G54D18*
X6548060Y1149759D02*
X6487630D01*
G54D16*
X6468632Y1261964D02*
Y1281649D01*
X6567058Y1261964D02*
Y1281649D01*
G54D18*
X6548060Y1271806D02*
X6487630D01*
G54D10*
X6494223Y1800783D02*
Y1888342D01*
G54D11*
X6474233Y1787052D02*
Y1902072D01*
X6514213Y1787052D02*
Y1902072D01*
G54D12*
X6584774Y1800783D02*
Y1888342D01*
G54D11*
X6562784Y1785053D02*
Y1904072D01*
X6606764Y1785053D02*
Y1904072D01*
G54D12*
X6675128Y1801216D02*
Y1888775D01*
G54D11*
X6653138Y1785486D02*
Y1904505D01*
X6697119Y1785486D02*
Y1904505D01*
G54D12*
X6765601Y1800232D02*
Y1887790D01*
G54D11*
X6743611Y1784501D02*
Y1903521D01*
X6787591Y1784501D02*
Y1903521D01*
G54D13*
X6752569Y2240704D02*
X6748632D01*
X6752569Y2177712D02*
X6748632D01*
X6694695Y2240704D02*
X6690758D01*
X6694695Y2177712D02*
X6690758D01*
G54D14*
X6683199Y2127613D02*
Y2133480D01*
G54D15*
Y2024740D02*
Y2030606D01*
G54D14*
X6779105Y2128204D02*
Y2134070D01*
G54D15*
Y2025330D02*
Y2031196D01*
G54D16*
X6468632Y2124169D02*
Y2143854D01*
X6488317Y2124169D02*
Y2143854D01*
X6508002Y2124169D02*
Y2143854D01*
X6527688Y2124169D02*
Y2143854D01*
X6547373Y2124169D02*
Y2143854D01*
X6567058Y2124169D02*
Y2143854D01*
Y2246216D02*
Y2265901D01*
X6547373Y2246216D02*
Y2265901D01*
X6527688Y2246216D02*
Y2265901D01*
X6508002Y2246216D02*
Y2265901D01*
X6488317Y2246216D02*
Y2265901D01*
X6468632Y2246216D02*
Y2265901D01*
G54D17*
X6533593Y2195035D02*
X6502097D01*
G54D18*
X6685168Y2379995D02*
X6669420D01*
X6590680Y2462673D02*
X6574932D01*
G54D19*
X6685168D02*
X6669420D01*
G54D18*
X6590680Y2379995D02*
X6574932D01*
G54D20*
X6689105Y2421334D02*
X6665483D01*
G54D21*
X6594617D02*
X6570995D01*
G54D22*
X6534262Y1964090D03*
G54D22*
X6486349Y2042830D03*
G54D23*
X6614302Y2002476D02*
Y2014287D01*
G54D24*
X6607146Y1997289D02*
Y2019474D01*
X6621457Y1997289D02*
Y2019474D01*
G54D16*
X6578869Y2002476D02*
Y2014287D01*
G54D24*
X6569713Y1995289D02*
Y2021474D01*
X6588024Y1995289D02*
Y2021474D01*
G54D23*
X6778672Y2286925D02*
Y2298736D01*
G54D24*
X6771516Y2281738D02*
Y2303923D01*
X6785827Y2281738D02*
Y2303923D01*
G54D16*
X6743239Y2286925D02*
Y2298736D01*
G54D24*
X6734083Y2279738D02*
Y2305923D01*
X6752394Y2279738D02*
Y2305923D01*
G54D20*
X6626113Y2050704D02*
X6614302D01*
G54D25*
X6635237Y2037643D02*
X6605178D01*
X6635237Y2063765D02*
X6605178D01*
G54D21*
X6559184Y2050704D02*
X6547373D01*
G54D25*
X6570307Y2035643D02*
X6536249D01*
X6570307Y2065765D02*
X6536249D01*
G54D26*
X6618002Y2109759D02*
X6606664D01*
G54D27*
X6630583Y2092493D02*
X6594083D01*
X6630583Y2127025D02*
X6594083D01*
G54D28*
X6618002Y2172751D02*
X6606664D01*
G54D27*
X6628583Y2157486D02*
X6596083D01*
X6628583Y2188017D02*
X6596083D01*
G54D23*
X6650719Y2215074D02*
X6638908D01*
G54D24*
X6655906Y2207919D02*
X6633721D01*
X6655906Y2222230D02*
X6633721D01*
G54D16*
X6650719Y2250507D02*
X6638908D01*
G54D24*
X6657906Y2241352D02*
X6631721D01*
X6657906Y2259663D02*
X6631721D01*
G54D29*
X6525995Y2196806D03*
G54D29*
X6507097Y2216058D03*
G54D30*
X6572963Y1794799D03*
G54D30*
X6506034Y1795783D03*
G54D29*
X6481428D03*
G54D31*
X6764892Y2422751D03*
G54D31*
Y2457200D03*
G54D31*
X6729302D03*
G54D31*
Y2422712D03*
G54D31*
X6730443Y2492633D03*
G54D31*
X6765325D03*
G54D31*
X6803231Y2521444D03*
G54D31*
X6454790Y2444405D03*
G54D31*
X6456790Y2522113D03*
G54D32*
X6778672Y1796814D03*
G54D32*
X6753081D03*
G54D33*
X6804215Y2242633D03*
G54D33*
X6804373Y2340980D03*
G54D33*
Y2425743D03*
G54D33*
X6723987Y2378460D03*
G54D33*
X6612333Y2523413D03*
G54D33*
X6517530Y2523806D03*
G54D33*
X6515876Y2463106D03*
G54D33*
X6510286Y2389838D03*
G54D33*
X6523750Y2350035D03*
G54D33*
X6478475Y2218027D03*
G54D33*
X6454861D03*
G54D33*
X6597569Y2256413D03*
G54D33*
X6454900Y1888302D03*
G54D33*
Y1796255D03*
G54D32*
X6597333Y1794799D03*
G54D32*
X6661979Y1795074D03*
G54D32*
X6687924D03*
G54D16*
X6468632Y2124169D02*
Y2143854D01*
X6567058Y2124169D02*
Y2143854D01*
G54D18*
X6548060Y2134011D02*
X6487630D01*
G54D16*
X6468632Y2246216D02*
Y2265901D01*
X6567058Y2246216D02*
Y2265901D01*
G54D18*
X6548060Y2256058D02*
X6487630D01*
G54D10*
X6982412Y-2136225D02*
Y-2048666D01*
G54D11*
X6962422Y-2149955D02*
Y-2034936D01*
X7002402Y-2149955D02*
Y-2034936D01*
G54D12*
X7072963Y-2136225D02*
Y-2048666D01*
G54D11*
X7050973Y-2151955D02*
Y-2032936D01*
X7094953Y-2151955D02*
Y-2032936D01*
G54D12*
X7163317Y-2135792D02*
Y-2048233D01*
G54D11*
X7141327Y-2151522D02*
Y-2032503D01*
X7185308Y-2151522D02*
Y-2032503D01*
G54D12*
X7253790Y-2136776D02*
Y-2049217D01*
G54D11*
X7231800Y-2152506D02*
Y-2033487D01*
X7275780Y-2152506D02*
Y-2033487D01*
G54D13*
X7240758Y-1696304D02*
X7236821D01*
X7240758Y-1759296D02*
X7236821D01*
X7182884Y-1696304D02*
X7178947D01*
X7182884Y-1759296D02*
X7178947D01*
G54D14*
X7171388Y-1809394D02*
Y-1803528D01*
G54D15*
Y-1912268D02*
Y-1906402D01*
G54D14*
X7267294Y-1808804D02*
Y-1802938D01*
G54D15*
Y-1911678D02*
Y-1905812D01*
G54D16*
X6956821Y-1812839D02*
Y-1793154D01*
X6976506Y-1812839D02*
Y-1793154D01*
X6996191Y-1812839D02*
Y-1793154D01*
X7015876Y-1812839D02*
Y-1793154D01*
X7035562Y-1812839D02*
Y-1793154D01*
X7055247Y-1812839D02*
Y-1793154D01*
Y-1690792D02*
Y-1671107D01*
X7035562Y-1690792D02*
Y-1671107D01*
X7015876Y-1690792D02*
Y-1671107D01*
X6996191Y-1690792D02*
Y-1671107D01*
X6976506Y-1690792D02*
Y-1671107D01*
X6956821Y-1690792D02*
Y-1671107D01*
G54D17*
X7021782Y-1741973D02*
X6990286D01*
G54D18*
X7173357Y-1557013D02*
X7157609D01*
X7078869Y-1474335D02*
X7063121D01*
G54D19*
X7173357D02*
X7157609D01*
G54D18*
X7078869Y-1557013D02*
X7063121D01*
G54D20*
X7177294Y-1515674D02*
X7153672D01*
G54D21*
X7082806D02*
X7059184D01*
G54D22*
X7022451Y-1972918D03*
G54D22*
X6974538Y-1894178D03*
G54D23*
X7102491Y-1934532D02*
Y-1922721D01*
G54D24*
X7095335Y-1939719D02*
Y-1917534D01*
X7109646Y-1939719D02*
Y-1917534D01*
G54D16*
X7067058Y-1934532D02*
Y-1922721D01*
G54D24*
X7057902Y-1941719D02*
Y-1915534D01*
X7076213Y-1941719D02*
Y-1915534D01*
G54D23*
X7266861Y-1650083D02*
Y-1638272D01*
G54D24*
X7259705Y-1655270D02*
Y-1633085D01*
X7274016Y-1655270D02*
Y-1633085D01*
G54D16*
X7231428Y-1650083D02*
Y-1638272D01*
G54D24*
X7222272Y-1657270D02*
Y-1631085D01*
X7240583Y-1657270D02*
Y-1631085D01*
G54D20*
X7114302Y-1886304D02*
X7102491D01*
G54D25*
X7123426Y-1899365D02*
X7093367D01*
X7123426Y-1873243D02*
X7093367D01*
G54D21*
X7047373Y-1886304D02*
X7035562D01*
G54D25*
X7058496Y-1901365D02*
X7024438D01*
X7058496Y-1871243D02*
X7024438D01*
G54D26*
X7106191Y-1827249D02*
X7094853D01*
G54D27*
X7118772Y-1844515D02*
X7082272D01*
X7118772Y-1809983D02*
X7082272D01*
G54D28*
X7106191Y-1764257D02*
X7094853D01*
G54D27*
X7116772Y-1779522D02*
X7084272D01*
X7116772Y-1748991D02*
X7084272D01*
G54D23*
X7138908Y-1721934D02*
X7127097D01*
G54D24*
X7144095Y-1729089D02*
X7121910D01*
X7144095Y-1714778D02*
X7121910D01*
G54D16*
X7138908Y-1686501D02*
X7127097D01*
G54D24*
X7146095Y-1695656D02*
X7119910D01*
X7146095Y-1677345D02*
X7119910D01*
G54D29*
X7014184Y-1740201D03*
G54D29*
X6995286Y-1720950D03*
G54D30*
X7061152Y-2142209D03*
G54D30*
X6994223Y-2141225D03*
G54D29*
X6969617D03*
G54D31*
X7253081Y-1514257D03*
G54D31*
Y-1479808D03*
G54D31*
X7217491D03*
G54D31*
Y-1514296D03*
G54D31*
X7218632Y-1444375D03*
G54D31*
X7253514D03*
G54D31*
X7291420Y-1415564D03*
G54D31*
X6942979Y-1492603D03*
G54D31*
X6944979Y-1414894D03*
G54D32*
X7266861Y-2140194D03*
G54D32*
X7241270D03*
G54D33*
X7292404Y-1694375D03*
G54D33*
X7292562Y-1596028D03*
G54D33*
Y-1511264D03*
G54D33*
X7212176Y-1558548D03*
G54D33*
X7100522Y-1413595D03*
G54D33*
X7005719Y-1413201D03*
G54D33*
X7004065Y-1473902D03*
G54D33*
X6998475Y-1547170D03*
G54D33*
X7011939Y-1586973D03*
G54D33*
X6966664Y-1718981D03*
G54D33*
X6943050D03*
G54D33*
X7085758Y-1680595D03*
G54D33*
X6943089Y-2048705D03*
G54D33*
Y-2140753D03*
G54D32*
X7085522Y-2142209D03*
G54D32*
X7150168Y-2141934D03*
G54D32*
X7176113D03*
G54D16*
X6956821Y-1812839D02*
Y-1793154D01*
X7055247Y-1812839D02*
Y-1793154D01*
G54D18*
X7036249Y-1802997D02*
X6975819D01*
G54D16*
X6956821Y-1690792D02*
Y-1671107D01*
X7055247Y-1690792D02*
Y-1671107D01*
G54D18*
X7036249Y-1680950D02*
X6975819D01*
G54D10*
X6982412Y-1151973D02*
Y-1064414D01*
G54D11*
X6962422Y-1165703D02*
Y-1050684D01*
X7002402Y-1165703D02*
Y-1050684D01*
G54D12*
X7072963Y-1151973D02*
Y-1064414D01*
G54D11*
X7050973Y-1167703D02*
Y-1048684D01*
X7094953Y-1167703D02*
Y-1048684D01*
G54D12*
X7163317Y-1151540D02*
Y-1063981D01*
G54D11*
X7141327Y-1167270D02*
Y-1048251D01*
X7185308Y-1167270D02*
Y-1048251D01*
G54D12*
X7253790Y-1152524D02*
Y-1064965D01*
G54D11*
X7231800Y-1168254D02*
Y-1049235D01*
X7275780Y-1168254D02*
Y-1049235D01*
G54D13*
X7240758Y-712052D02*
X7236821D01*
X7240758Y-775044D02*
X7236821D01*
X7182884Y-712052D02*
X7178947D01*
X7182884Y-775044D02*
X7178947D01*
G54D14*
X7171388Y-825142D02*
Y-819276D01*
G54D15*
Y-928016D02*
Y-922150D01*
G54D14*
X7267294Y-824552D02*
Y-818686D01*
G54D15*
Y-927426D02*
Y-921560D01*
G54D16*
X6956821Y-828587D02*
Y-808902D01*
X6976506Y-828587D02*
Y-808902D01*
X6996191Y-828587D02*
Y-808902D01*
X7015876Y-828587D02*
Y-808902D01*
X7035562Y-828587D02*
Y-808902D01*
X7055247Y-828587D02*
Y-808902D01*
Y-706540D02*
Y-686855D01*
X7035562Y-706540D02*
Y-686855D01*
X7015876Y-706540D02*
Y-686855D01*
X6996191Y-706540D02*
Y-686855D01*
X6976506Y-706540D02*
Y-686855D01*
X6956821Y-706540D02*
Y-686855D01*
G54D17*
X7021782Y-757721D02*
X6990286D01*
G54D18*
X7173357Y-572761D02*
X7157609D01*
X7078869Y-490083D02*
X7063121D01*
G54D19*
X7173357D02*
X7157609D01*
G54D18*
X7078869Y-572761D02*
X7063121D01*
G54D20*
X7177294Y-531422D02*
X7153672D01*
G54D21*
X7082806D02*
X7059184D01*
G54D22*
X7022451Y-988666D03*
G54D22*
X6974538Y-909926D03*
G54D23*
X7102491Y-950280D02*
Y-938469D01*
G54D24*
X7095335Y-955467D02*
Y-933282D01*
X7109646Y-955467D02*
Y-933282D01*
G54D16*
X7067058Y-950280D02*
Y-938469D01*
G54D24*
X7057902Y-957467D02*
Y-931282D01*
X7076213Y-957467D02*
Y-931282D01*
G54D23*
X7266861Y-665831D02*
Y-654020D01*
G54D24*
X7259705Y-671018D02*
Y-648833D01*
X7274016Y-671018D02*
Y-648833D01*
G54D16*
X7231428Y-665831D02*
Y-654020D01*
G54D24*
X7222272Y-673018D02*
Y-646833D01*
X7240583Y-673018D02*
Y-646833D01*
G54D20*
X7114302Y-902052D02*
X7102491D01*
G54D25*
X7123426Y-915113D02*
X7093367D01*
X7123426Y-888991D02*
X7093367D01*
G54D21*
X7047373Y-902052D02*
X7035562D01*
G54D25*
X7058496Y-917113D02*
X7024438D01*
X7058496Y-886991D02*
X7024438D01*
G54D26*
X7106191Y-842997D02*
X7094853D01*
G54D27*
X7118772Y-860263D02*
X7082272D01*
X7118772Y-825731D02*
X7082272D01*
G54D28*
X7106191Y-780005D02*
X7094853D01*
G54D27*
X7116772Y-795270D02*
X7084272D01*
X7116772Y-764739D02*
X7084272D01*
G54D23*
X7138908Y-737682D02*
X7127097D01*
G54D24*
X7144095Y-744837D02*
X7121910D01*
X7144095Y-730526D02*
X7121910D01*
G54D16*
X7138908Y-702249D02*
X7127097D01*
G54D24*
X7146095Y-711404D02*
X7119910D01*
X7146095Y-693093D02*
X7119910D01*
G54D29*
X7014184Y-755950D03*
G54D29*
X6995286Y-736698D03*
G54D30*
X7061152Y-1157957D03*
G54D30*
X6994223Y-1156973D03*
G54D29*
X6969617D03*
G54D31*
X7253081Y-530005D03*
G54D31*
Y-495556D03*
G54D31*
X7217491D03*
G54D31*
Y-530044D03*
G54D31*
X7218632Y-460123D03*
G54D31*
X7253514D03*
G54D31*
X7291420Y-431312D03*
G54D31*
X6942979Y-508351D03*
G54D31*
X6944979Y-430642D03*
G54D32*
X7266861Y-1155942D03*
G54D32*
X7241270D03*
G54D33*
X7292404Y-710123D03*
G54D33*
X7292562Y-611776D03*
G54D33*
Y-527013D03*
G54D33*
X7212176Y-574296D03*
G54D33*
X7100522Y-429343D03*
G54D33*
X7005719Y-428950D03*
G54D33*
X7004065Y-489650D03*
G54D33*
X6998475Y-562918D03*
G54D33*
X7011939Y-602721D03*
G54D33*
X6966664Y-734729D03*
G54D33*
X6943050D03*
G54D33*
X7085758Y-696343D03*
G54D33*
X6943089Y-1064453D03*
G54D33*
Y-1156501D03*
G54D32*
X7085522Y-1157957D03*
G54D32*
X7150168Y-1157682D03*
G54D32*
X7176113D03*
G54D16*
X6956821Y-828587D02*
Y-808902D01*
X7055247Y-828587D02*
Y-808902D01*
G54D18*
X7036249Y-818745D02*
X6975819D01*
G54D16*
X6956821Y-706540D02*
Y-686855D01*
X7055247Y-706540D02*
Y-686855D01*
G54D18*
X7036249Y-696698D02*
X6975819D01*
G54D10*
X6982412Y-167721D02*
Y-80162D01*
G54D11*
X6962422Y-181451D02*
Y-66432D01*
X7002402Y-181451D02*
Y-66432D01*
G54D12*
X7072963Y-167721D02*
Y-80162D01*
G54D11*
X7050973Y-183451D02*
Y-64432D01*
X7094953Y-183451D02*
Y-64432D01*
G54D12*
X7163317Y-167288D02*
Y-79729D01*
G54D11*
X7141327Y-183018D02*
Y-63999D01*
X7185308Y-183018D02*
Y-63999D01*
G54D12*
X7253790Y-168272D02*
Y-80713D01*
G54D11*
X7231800Y-184002D02*
Y-64983D01*
X7275780Y-184002D02*
Y-64983D01*
G54D13*
X7240758Y272200D02*
X7236821D01*
X7240758Y209208D02*
X7236821D01*
X7182884Y272200D02*
X7178947D01*
X7182884Y209208D02*
X7178947D01*
G54D14*
X7171388Y159110D02*
Y164976D01*
G54D15*
Y56236D02*
Y62102D01*
G54D14*
X7267294Y159700D02*
Y165566D01*
G54D15*
Y56826D02*
Y62692D01*
G54D16*
X6956821Y155665D02*
Y175350D01*
X6976506Y155665D02*
Y175350D01*
X6996191Y155665D02*
Y175350D01*
X7015876Y155665D02*
Y175350D01*
X7035562Y155665D02*
Y175350D01*
X7055247Y155665D02*
Y175350D01*
Y277712D02*
Y297397D01*
X7035562Y277712D02*
Y297397D01*
X7015876Y277712D02*
Y297397D01*
X6996191Y277712D02*
Y297397D01*
X6976506Y277712D02*
Y297397D01*
X6956821Y277712D02*
Y297397D01*
G54D17*
X7021782Y226531D02*
X6990286D01*
G54D18*
X7173357Y411491D02*
X7157609D01*
X7078869Y494169D02*
X7063121D01*
G54D19*
X7173357D02*
X7157609D01*
G54D18*
X7078869Y411491D02*
X7063121D01*
G54D20*
X7177294Y452830D02*
X7153672D01*
G54D21*
X7082806D02*
X7059184D01*
G54D22*
X7022451Y-4414D03*
G54D22*
X6974538Y74326D03*
G54D23*
X7102491Y33972D02*
Y45783D01*
G54D24*
X7095335Y28785D02*
Y50970D01*
X7109646Y28785D02*
Y50970D01*
G54D16*
X7067058Y33972D02*
Y45783D01*
G54D24*
X7057902Y26785D02*
Y52970D01*
X7076213Y26785D02*
Y52970D01*
G54D23*
X7266861Y318421D02*
Y330232D01*
G54D24*
X7259705Y313234D02*
Y335419D01*
X7274016Y313234D02*
Y335419D01*
G54D16*
X7231428Y318421D02*
Y330232D01*
G54D24*
X7222272Y311234D02*
Y337419D01*
X7240583Y311234D02*
Y337419D01*
G54D20*
X7114302Y82200D02*
X7102491D01*
G54D25*
X7123426Y69139D02*
X7093367D01*
X7123426Y95261D02*
X7093367D01*
G54D21*
X7047373Y82200D02*
X7035562D01*
G54D25*
X7058496Y67139D02*
X7024438D01*
X7058496Y97261D02*
X7024438D01*
G54D26*
X7106191Y141255D02*
X7094853D01*
G54D27*
X7118772Y123989D02*
X7082272D01*
X7118772Y158521D02*
X7082272D01*
G54D28*
X7106191Y204247D02*
X7094853D01*
G54D27*
X7116772Y188982D02*
X7084272D01*
X7116772Y219513D02*
X7084272D01*
G54D23*
X7138908Y246570D02*
X7127097D01*
G54D24*
X7144095Y239415D02*
X7121910D01*
X7144095Y253726D02*
X7121910D01*
G54D16*
X7138908Y282003D02*
X7127097D01*
G54D24*
X7146095Y272848D02*
X7119910D01*
X7146095Y291159D02*
X7119910D01*
G54D29*
X7014184Y228302D03*
G54D29*
X6995286Y247554D03*
G54D30*
X7061152Y-173705D03*
G54D30*
X6994223Y-172721D03*
G54D29*
X6969617D03*
G54D31*
X7253081Y454247D03*
G54D31*
Y488696D03*
G54D31*
X7217491D03*
G54D31*
Y454208D03*
G54D31*
X7218632Y524129D03*
G54D31*
X7253514D03*
G54D31*
X7291420Y552940D03*
G54D31*
X6942979Y475901D03*
G54D31*
X6944979Y553610D03*
G54D32*
X7266861Y-171690D03*
G54D32*
X7241270D03*
G54D33*
X7292404Y274129D03*
G54D33*
X7292562Y372476D03*
G54D33*
Y457239D03*
G54D33*
X7212176Y409956D03*
G54D33*
X7100522Y554909D03*
G54D33*
X7005719Y555302D03*
G54D33*
X7004065Y494602D03*
G54D33*
X6998475Y421334D03*
G54D33*
X7011939Y381531D03*
G54D33*
X6966664Y249523D03*
G54D33*
X6943050D03*
G54D33*
X7085758Y287909D03*
G54D33*
X6943089Y-80201D03*
G54D33*
Y-172249D03*
G54D32*
X7085522Y-173705D03*
G54D32*
X7150168Y-173430D03*
G54D32*
X7176113D03*
G54D16*
X6956821Y155665D02*
Y175350D01*
X7055247Y155665D02*
Y175350D01*
G54D18*
X7036249Y165507D02*
X6975819D01*
G54D16*
X6956821Y277712D02*
Y297397D01*
X7055247Y277712D02*
Y297397D01*
G54D18*
X7036249Y287554D02*
X6975819D01*
G54D10*
X6982412Y816531D02*
Y904090D01*
G54D11*
X6962422Y802800D02*
Y917820D01*
X7002402Y802800D02*
Y917820D01*
G54D12*
X7072963Y816531D02*
Y904090D01*
G54D11*
X7050973Y800801D02*
Y919820D01*
X7094953Y800801D02*
Y919820D01*
G54D12*
X7163317Y816964D02*
Y904523D01*
G54D11*
X7141327Y801234D02*
Y920253D01*
X7185308Y801234D02*
Y920253D01*
G54D12*
X7253790Y815980D02*
Y903538D01*
G54D11*
X7231800Y800250D02*
Y919269D01*
X7275780Y800250D02*
Y919269D01*
G54D13*
X7240758Y1256452D02*
X7236821D01*
X7240758Y1193460D02*
X7236821D01*
X7182884Y1256452D02*
X7178947D01*
X7182884Y1193460D02*
X7178947D01*
G54D14*
X7171388Y1143362D02*
Y1149228D01*
G54D15*
Y1040488D02*
Y1046354D01*
G54D14*
X7267294Y1143952D02*
Y1149818D01*
G54D15*
Y1041078D02*
Y1046944D01*
G54D16*
X6956821Y1139917D02*
Y1159602D01*
X6976506Y1139917D02*
Y1159602D01*
X6996191Y1139917D02*
Y1159602D01*
X7015876Y1139917D02*
Y1159602D01*
X7035562Y1139917D02*
Y1159602D01*
X7055247Y1139917D02*
Y1159602D01*
Y1261964D02*
Y1281649D01*
X7035562Y1261964D02*
Y1281649D01*
X7015876Y1261964D02*
Y1281649D01*
X6996191Y1261964D02*
Y1281649D01*
X6976506Y1261964D02*
Y1281649D01*
X6956821Y1261964D02*
Y1281649D01*
G54D17*
X7021782Y1210783D02*
X6990286D01*
G54D18*
X7173357Y1395743D02*
X7157609D01*
X7078869Y1478421D02*
X7063121D01*
G54D19*
X7173357D02*
X7157609D01*
G54D18*
X7078869Y1395743D02*
X7063121D01*
G54D20*
X7177294Y1437082D02*
X7153672D01*
G54D21*
X7082806D02*
X7059184D01*
G54D22*
X7022451Y979838D03*
G54D22*
X6974538Y1058578D03*
G54D23*
X7102491Y1018224D02*
Y1030035D01*
G54D24*
X7095335Y1013037D02*
Y1035222D01*
X7109646Y1013037D02*
Y1035222D01*
G54D16*
X7067058Y1018224D02*
Y1030035D01*
G54D24*
X7057902Y1011037D02*
Y1037222D01*
X7076213Y1011037D02*
Y1037222D01*
G54D23*
X7266861Y1302673D02*
Y1314484D01*
G54D24*
X7259705Y1297486D02*
Y1319671D01*
X7274016Y1297486D02*
Y1319671D01*
G54D16*
X7231428Y1302673D02*
Y1314484D01*
G54D24*
X7222272Y1295486D02*
Y1321671D01*
X7240583Y1295486D02*
Y1321671D01*
G54D20*
X7114302Y1066452D02*
X7102491D01*
G54D25*
X7123426Y1053391D02*
X7093367D01*
X7123426Y1079513D02*
X7093367D01*
G54D21*
X7047373Y1066452D02*
X7035562D01*
G54D25*
X7058496Y1051391D02*
X7024438D01*
X7058496Y1081513D02*
X7024438D01*
G54D26*
X7106191Y1125507D02*
X7094853D01*
G54D27*
X7118772Y1108241D02*
X7082272D01*
X7118772Y1142773D02*
X7082272D01*
G54D28*
X7106191Y1188499D02*
X7094853D01*
G54D27*
X7116772Y1173234D02*
X7084272D01*
X7116772Y1203765D02*
X7084272D01*
G54D23*
X7138908Y1230822D02*
X7127097D01*
G54D24*
X7144095Y1223667D02*
X7121910D01*
X7144095Y1237978D02*
X7121910D01*
G54D16*
X7138908Y1266255D02*
X7127097D01*
G54D24*
X7146095Y1257100D02*
X7119910D01*
X7146095Y1275411D02*
X7119910D01*
G54D29*
X7014184Y1212554D03*
G54D29*
X6995286Y1231806D03*
G54D30*
X7061152Y810547D03*
G54D30*
X6994223Y811531D03*
G54D29*
X6969617D03*
G54D31*
X7253081Y1438499D03*
G54D31*
Y1472948D03*
G54D31*
X7217491D03*
G54D31*
Y1438460D03*
G54D31*
X7218632Y1508381D03*
G54D31*
X7253514D03*
G54D31*
X7291420Y1537192D03*
G54D31*
X6942979Y1460153D03*
G54D31*
X6944979Y1537862D03*
G54D32*
X7266861Y812562D03*
G54D32*
X7241270D03*
G54D33*
X7292404Y1258381D03*
G54D33*
X7292562Y1356728D03*
G54D33*
Y1441491D03*
G54D33*
X7212176Y1394208D03*
G54D33*
X7100522Y1539161D03*
G54D33*
X7005719Y1539554D03*
G54D33*
X7004065Y1478854D03*
G54D33*
X6998475Y1405586D03*
G54D33*
X7011939Y1365783D03*
G54D33*
X6966664Y1233775D03*
G54D33*
X6943050D03*
G54D33*
X7085758Y1272161D03*
G54D33*
X6943089Y904050D03*
G54D33*
Y812003D03*
G54D32*
X7085522Y810547D03*
G54D32*
X7150168Y810822D03*
G54D32*
X7176113D03*
G54D16*
X6956821Y1139917D02*
Y1159602D01*
X7055247Y1139917D02*
Y1159602D01*
G54D18*
X7036249Y1149759D02*
X6975819D01*
G54D16*
X6956821Y1261964D02*
Y1281649D01*
X7055247Y1261964D02*
Y1281649D01*
G54D18*
X7036249Y1271806D02*
X6975819D01*
G54D10*
X6982412Y1800783D02*
Y1888342D01*
G54D11*
X6962422Y1787052D02*
Y1902072D01*
X7002402Y1787052D02*
Y1902072D01*
G54D12*
X7072963Y1800783D02*
Y1888342D01*
G54D11*
X7050973Y1785053D02*
Y1904072D01*
X7094953Y1785053D02*
Y1904072D01*
G54D12*
X7163317Y1801216D02*
Y1888775D01*
G54D11*
X7141327Y1785486D02*
Y1904505D01*
X7185308Y1785486D02*
Y1904505D01*
G54D12*
X7253790Y1800232D02*
Y1887790D01*
G54D11*
X7231800Y1784501D02*
Y1903521D01*
X7275780Y1784501D02*
Y1903521D01*
G54D13*
X7240758Y2240704D02*
X7236821D01*
X7240758Y2177712D02*
X7236821D01*
X7182884Y2240704D02*
X7178947D01*
X7182884Y2177712D02*
X7178947D01*
G54D14*
X7171388Y2127613D02*
Y2133480D01*
G54D15*
Y2024740D02*
Y2030606D01*
G54D14*
X7267294Y2128204D02*
Y2134070D01*
G54D15*
Y2025330D02*
Y2031196D01*
G54D16*
X6956821Y2124169D02*
Y2143854D01*
X6976506Y2124169D02*
Y2143854D01*
X6996191Y2124169D02*
Y2143854D01*
X7015876Y2124169D02*
Y2143854D01*
X7035562Y2124169D02*
Y2143854D01*
X7055247Y2124169D02*
Y2143854D01*
Y2246216D02*
Y2265901D01*
X7035562Y2246216D02*
Y2265901D01*
X7015876Y2246216D02*
Y2265901D01*
X6996191Y2246216D02*
Y2265901D01*
X6976506Y2246216D02*
Y2265901D01*
X6956821Y2246216D02*
Y2265901D01*
G54D17*
X7021782Y2195035D02*
X6990286D01*
G54D18*
X7173357Y2379995D02*
X7157609D01*
X7078869Y2462673D02*
X7063121D01*
G54D19*
X7173357D02*
X7157609D01*
G54D18*
X7078869Y2379995D02*
X7063121D01*
G54D20*
X7177294Y2421334D02*
X7153672D01*
G54D21*
X7082806D02*
X7059184D01*
G54D22*
X7022451Y1964090D03*
G54D22*
X6974538Y2042830D03*
G54D23*
X7102491Y2002476D02*
Y2014287D01*
G54D24*
X7095335Y1997289D02*
Y2019474D01*
X7109646Y1997289D02*
Y2019474D01*
G54D16*
X7067058Y2002476D02*
Y2014287D01*
G54D24*
X7057902Y1995289D02*
Y2021474D01*
X7076213Y1995289D02*
Y2021474D01*
G54D23*
X7266861Y2286925D02*
Y2298736D01*
G54D24*
X7259705Y2281738D02*
Y2303923D01*
X7274016Y2281738D02*
Y2303923D01*
G54D16*
X7231428Y2286925D02*
Y2298736D01*
G54D24*
X7222272Y2279738D02*
Y2305923D01*
X7240583Y2279738D02*
Y2305923D01*
G54D20*
X7114302Y2050704D02*
X7102491D01*
G54D25*
X7123426Y2037643D02*
X7093367D01*
X7123426Y2063765D02*
X7093367D01*
G54D21*
X7047373Y2050704D02*
X7035562D01*
G54D25*
X7058496Y2035643D02*
X7024438D01*
X7058496Y2065765D02*
X7024438D01*
G54D26*
X7106191Y2109759D02*
X7094853D01*
G54D27*
X7118772Y2092493D02*
X7082272D01*
X7118772Y2127025D02*
X7082272D01*
G54D28*
X7106191Y2172751D02*
X7094853D01*
G54D27*
X7116772Y2157486D02*
X7084272D01*
X7116772Y2188017D02*
X7084272D01*
G54D23*
X7138908Y2215074D02*
X7127097D01*
G54D24*
X7144095Y2207919D02*
X7121910D01*
X7144095Y2222230D02*
X7121910D01*
G54D16*
X7138908Y2250507D02*
X7127097D01*
G54D24*
X7146095Y2241352D02*
X7119910D01*
X7146095Y2259663D02*
X7119910D01*
G54D29*
X7014184Y2196806D03*
G54D29*
X6995286Y2216058D03*
G54D30*
X7061152Y1794799D03*
G54D30*
X6994223Y1795783D03*
G54D29*
X6969617D03*
G54D31*
X7253081Y2422751D03*
G54D31*
Y2457200D03*
G54D31*
X7217491D03*
G54D31*
Y2422712D03*
G54D31*
X7218632Y2492633D03*
G54D31*
X7253514D03*
G54D31*
X7291420Y2521444D03*
G54D31*
X6942979Y2444405D03*
G54D31*
X6944979Y2522113D03*
G54D32*
X7266861Y1796814D03*
G54D32*
X7241270D03*
G54D33*
X7292404Y2242633D03*
G54D33*
X7292562Y2340980D03*
G54D33*
Y2425743D03*
G54D33*
X7212176Y2378460D03*
G54D33*
X7100522Y2523413D03*
G54D33*
X7005719Y2523806D03*
G54D33*
X7004065Y2463106D03*
G54D33*
X6998475Y2389838D03*
G54D33*
X7011939Y2350035D03*
G54D33*
X6966664Y2218027D03*
G54D33*
X6943050D03*
G54D33*
X7085758Y2256413D03*
G54D33*
X6943089Y1888302D03*
G54D33*
Y1796255D03*
G54D32*
X7085522Y1794799D03*
G54D32*
X7150168Y1795074D03*
G54D32*
X7176113D03*
G54D16*
X6956821Y2124169D02*
Y2143854D01*
X7055247Y2124169D02*
Y2143854D01*
G54D18*
X7036249Y2134011D02*
X6975819D01*
G54D16*
X6956821Y2246216D02*
Y2265901D01*
X7055247Y2246216D02*
Y2265901D01*
G54D18*
X7036249Y2256058D02*
X6975819D01*
G54D10*
X7470601Y-2136225D02*
Y-2048666D01*
G54D11*
X7450611Y-2149955D02*
Y-2034936D01*
X7490591Y-2149955D02*
Y-2034936D01*
G54D12*
X7561152Y-2136225D02*
Y-2048666D01*
G54D11*
X7539162Y-2151955D02*
Y-2032936D01*
X7583142Y-2151955D02*
Y-2032936D01*
G54D12*
X7651506Y-2135792D02*
Y-2048233D01*
G54D11*
X7629516Y-2151522D02*
Y-2032503D01*
X7673497Y-2151522D02*
Y-2032503D01*
G54D12*
X7741979Y-2136776D02*
Y-2049217D01*
G54D11*
X7719989Y-2152506D02*
Y-2033487D01*
X7763969Y-2152506D02*
Y-2033487D01*
G54D13*
X7728947Y-1696304D02*
X7725010D01*
X7728947Y-1759296D02*
X7725010D01*
X7671073Y-1696304D02*
X7667136D01*
X7671073Y-1759296D02*
X7667136D01*
G54D14*
X7659577Y-1809394D02*
Y-1803528D01*
G54D15*
Y-1912268D02*
Y-1906402D01*
G54D14*
X7755483Y-1808804D02*
Y-1802938D01*
G54D15*
Y-1911678D02*
Y-1905812D01*
G54D16*
X7445010Y-1812839D02*
Y-1793154D01*
X7464695Y-1812839D02*
Y-1793154D01*
X7484380Y-1812839D02*
Y-1793154D01*
X7504065Y-1812839D02*
Y-1793154D01*
X7523750Y-1812839D02*
Y-1793154D01*
X7543436Y-1812839D02*
Y-1793154D01*
Y-1690792D02*
Y-1671107D01*
X7523750Y-1690792D02*
Y-1671107D01*
X7504065Y-1690792D02*
Y-1671107D01*
X7484380Y-1690792D02*
Y-1671107D01*
X7464695Y-1690792D02*
Y-1671107D01*
X7445010Y-1690792D02*
Y-1671107D01*
G54D17*
X7509971Y-1741973D02*
X7478475D01*
G54D18*
X7661546Y-1557013D02*
X7645798D01*
X7567058Y-1474335D02*
X7551310D01*
G54D19*
X7661546D02*
X7645798D01*
G54D18*
X7567058Y-1557013D02*
X7551310D01*
G54D20*
X7665483Y-1515674D02*
X7641861D01*
G54D21*
X7570994D02*
X7547373D01*
G54D22*
X7510640Y-1972918D03*
G54D22*
X7462727Y-1894178D03*
G54D23*
X7590680Y-1934532D02*
Y-1922721D01*
G54D24*
X7583524Y-1939719D02*
Y-1917534D01*
X7597835Y-1939719D02*
Y-1917534D01*
G54D16*
X7555247Y-1934532D02*
Y-1922721D01*
G54D24*
X7546091Y-1941719D02*
Y-1915534D01*
X7564402Y-1941719D02*
Y-1915534D01*
G54D23*
X7755050Y-1650083D02*
Y-1638272D01*
G54D24*
X7747894Y-1655270D02*
Y-1633085D01*
X7762205Y-1655270D02*
Y-1633085D01*
G54D16*
X7719617Y-1650083D02*
Y-1638272D01*
G54D24*
X7710461Y-1657270D02*
Y-1631085D01*
X7728772Y-1657270D02*
Y-1631085D01*
G54D20*
X7602491Y-1886304D02*
X7590680D01*
G54D25*
X7611615Y-1899365D02*
X7581556D01*
X7611615Y-1873243D02*
X7581556D01*
G54D21*
X7535562Y-1886304D02*
X7523750D01*
G54D25*
X7546685Y-1901365D02*
X7512627D01*
X7546685Y-1871243D02*
X7512627D01*
G54D26*
X7594380Y-1827249D02*
X7583042D01*
G54D27*
X7606961Y-1844515D02*
X7570461D01*
X7606961Y-1809983D02*
X7570461D01*
G54D28*
X7594380Y-1764257D02*
X7583042D01*
G54D27*
X7604961Y-1779522D02*
X7572461D01*
X7604961Y-1748991D02*
X7572461D01*
G54D23*
X7627097Y-1721934D02*
X7615286D01*
G54D24*
X7632284Y-1729089D02*
X7610099D01*
X7632284Y-1714778D02*
X7610099D01*
G54D16*
X7627097Y-1686501D02*
X7615286D01*
G54D24*
X7634284Y-1695656D02*
X7608099D01*
X7634284Y-1677345D02*
X7608099D01*
G54D29*
X7502373Y-1740201D03*
G54D29*
X7483475Y-1720950D03*
G54D30*
X7549341Y-2142209D03*
G54D30*
X7482412Y-2141225D03*
G54D29*
X7457806D03*
G54D31*
X7741270Y-1514257D03*
G54D31*
Y-1479808D03*
G54D31*
X7705680D03*
G54D31*
Y-1514296D03*
G54D31*
X7706821Y-1444375D03*
G54D31*
X7741703D03*
G54D31*
X7779609Y-1415564D03*
G54D31*
X7431168Y-1492603D03*
G54D31*
X7433168Y-1414894D03*
G54D32*
X7755050Y-2140194D03*
G54D32*
X7729459D03*
G54D33*
X7780593Y-1694375D03*
G54D33*
X7780750Y-1596028D03*
G54D33*
Y-1511264D03*
G54D33*
X7700365Y-1558548D03*
G54D33*
X7588711Y-1413595D03*
G54D33*
X7493908Y-1413201D03*
G54D33*
X7492254Y-1473902D03*
G54D33*
X7486664Y-1547170D03*
G54D33*
X7500128Y-1586973D03*
G54D33*
X7454853Y-1718981D03*
G54D33*
X7431239D03*
G54D33*
X7573947Y-1680595D03*
G54D33*
X7431278Y-2048705D03*
G54D33*
Y-2140753D03*
G54D32*
X7573711Y-2142209D03*
G54D32*
X7638357Y-2141934D03*
G54D32*
X7664302D03*
G54D16*
X7445010Y-1812839D02*
Y-1793154D01*
X7543436Y-1812839D02*
Y-1793154D01*
G54D18*
X7524438Y-1802997D02*
X7464008D01*
G54D16*
X7445010Y-1690792D02*
Y-1671107D01*
X7543436Y-1690792D02*
Y-1671107D01*
G54D18*
X7524438Y-1680950D02*
X7464008D01*
G54D10*
X7470601Y-1151973D02*
Y-1064414D01*
G54D11*
X7450611Y-1165703D02*
Y-1050684D01*
X7490591Y-1165703D02*
Y-1050684D01*
G54D12*
X7561152Y-1151973D02*
Y-1064414D01*
G54D11*
X7539162Y-1167703D02*
Y-1048684D01*
X7583142Y-1167703D02*
Y-1048684D01*
G54D12*
X7651506Y-1151540D02*
Y-1063981D01*
G54D11*
X7629516Y-1167270D02*
Y-1048251D01*
X7673497Y-1167270D02*
Y-1048251D01*
G54D12*
X7741979Y-1152524D02*
Y-1064965D01*
G54D11*
X7719989Y-1168254D02*
Y-1049235D01*
X7763969Y-1168254D02*
Y-1049235D01*
G54D13*
X7728947Y-712052D02*
X7725010D01*
X7728947Y-775044D02*
X7725010D01*
X7671073Y-712052D02*
X7667136D01*
X7671073Y-775044D02*
X7667136D01*
G54D14*
X7659577Y-825142D02*
Y-819276D01*
G54D15*
Y-928016D02*
Y-922150D01*
G54D14*
X7755483Y-824552D02*
Y-818686D01*
G54D15*
Y-927426D02*
Y-921560D01*
G54D16*
X7445010Y-828587D02*
Y-808902D01*
X7464695Y-828587D02*
Y-808902D01*
X7484380Y-828587D02*
Y-808902D01*
X7504065Y-828587D02*
Y-808902D01*
X7523750Y-828587D02*
Y-808902D01*
X7543436Y-828587D02*
Y-808902D01*
Y-706540D02*
Y-686855D01*
X7523750Y-706540D02*
Y-686855D01*
X7504065Y-706540D02*
Y-686855D01*
X7484380Y-706540D02*
Y-686855D01*
X7464695Y-706540D02*
Y-686855D01*
X7445010Y-706540D02*
Y-686855D01*
G54D17*
X7509971Y-757721D02*
X7478475D01*
G54D18*
X7661546Y-572761D02*
X7645798D01*
X7567058Y-490083D02*
X7551310D01*
G54D19*
X7661546D02*
X7645798D01*
G54D18*
X7567058Y-572761D02*
X7551310D01*
G54D20*
X7665483Y-531422D02*
X7641861D01*
G54D21*
X7570994D02*
X7547373D01*
G54D22*
X7510640Y-988666D03*
G54D22*
X7462727Y-909926D03*
G54D23*
X7590680Y-950280D02*
Y-938469D01*
G54D24*
X7583524Y-955467D02*
Y-933282D01*
X7597835Y-955467D02*
Y-933282D01*
G54D16*
X7555247Y-950280D02*
Y-938469D01*
G54D24*
X7546091Y-957467D02*
Y-931282D01*
X7564402Y-957467D02*
Y-931282D01*
G54D23*
X7755050Y-665831D02*
Y-654020D01*
G54D24*
X7747894Y-671018D02*
Y-648833D01*
X7762205Y-671018D02*
Y-648833D01*
G54D16*
X7719617Y-665831D02*
Y-654020D01*
G54D24*
X7710461Y-673018D02*
Y-646833D01*
X7728772Y-673018D02*
Y-646833D01*
G54D20*
X7602491Y-902052D02*
X7590680D01*
G54D25*
X7611615Y-915113D02*
X7581556D01*
X7611615Y-888991D02*
X7581556D01*
G54D21*
X7535562Y-902052D02*
X7523750D01*
G54D25*
X7546685Y-917113D02*
X7512627D01*
X7546685Y-886991D02*
X7512627D01*
G54D26*
X7594380Y-842997D02*
X7583042D01*
G54D27*
X7606961Y-860263D02*
X7570461D01*
X7606961Y-825731D02*
X7570461D01*
G54D28*
X7594380Y-780005D02*
X7583042D01*
G54D27*
X7604961Y-795270D02*
X7572461D01*
X7604961Y-764739D02*
X7572461D01*
G54D23*
X7627097Y-737682D02*
X7615286D01*
G54D24*
X7632284Y-744837D02*
X7610099D01*
X7632284Y-730526D02*
X7610099D01*
G54D16*
X7627097Y-702249D02*
X7615286D01*
G54D24*
X7634284Y-711404D02*
X7608099D01*
X7634284Y-693093D02*
X7608099D01*
G54D29*
X7502373Y-755950D03*
G54D29*
X7483475Y-736698D03*
G54D30*
X7549341Y-1157957D03*
G54D30*
X7482412Y-1156973D03*
G54D29*
X7457806D03*
G54D31*
X7741270Y-530005D03*
G54D31*
Y-495556D03*
G54D31*
X7705680D03*
G54D31*
Y-530044D03*
G54D31*
X7706821Y-460123D03*
G54D31*
X7741703D03*
G54D31*
X7779609Y-431312D03*
G54D31*
X7431168Y-508351D03*
G54D31*
X7433168Y-430642D03*
G54D32*
X7755050Y-1155942D03*
G54D32*
X7729459D03*
G54D33*
X7780593Y-710123D03*
G54D33*
X7780750Y-611776D03*
G54D33*
Y-527013D03*
G54D33*
X7700365Y-574296D03*
G54D33*
X7588711Y-429343D03*
G54D33*
X7493908Y-428950D03*
G54D33*
X7492254Y-489650D03*
G54D33*
X7486664Y-562918D03*
G54D33*
X7500128Y-602721D03*
G54D33*
X7454853Y-734729D03*
G54D33*
X7431239D03*
G54D33*
X7573947Y-696343D03*
G54D33*
X7431278Y-1064453D03*
G54D33*
Y-1156501D03*
G54D32*
X7573711Y-1157957D03*
G54D32*
X7638357Y-1157682D03*
G54D32*
X7664302D03*
G54D16*
X7445010Y-828587D02*
Y-808902D01*
X7543436Y-828587D02*
Y-808902D01*
G54D18*
X7524438Y-818745D02*
X7464008D01*
G54D16*
X7445010Y-706540D02*
Y-686855D01*
X7543436Y-706540D02*
Y-686855D01*
G54D18*
X7524438Y-696698D02*
X7464008D01*
G54D10*
X7470601Y-167721D02*
Y-80162D01*
G54D11*
X7450611Y-181451D02*
Y-66432D01*
X7490591Y-181451D02*
Y-66432D01*
G54D12*
X7561152Y-167721D02*
Y-80162D01*
G54D11*
X7539162Y-183451D02*
Y-64432D01*
X7583142Y-183451D02*
Y-64432D01*
G54D12*
X7651506Y-167288D02*
Y-79729D01*
G54D11*
X7629516Y-183018D02*
Y-63999D01*
X7673497Y-183018D02*
Y-63999D01*
G54D12*
X7741979Y-168272D02*
Y-80713D01*
G54D11*
X7719989Y-184002D02*
Y-64983D01*
X7763969Y-184002D02*
Y-64983D01*
G54D13*
X7728947Y272200D02*
X7725010D01*
X7728947Y209208D02*
X7725010D01*
X7671073Y272200D02*
X7667136D01*
X7671073Y209208D02*
X7667136D01*
G54D14*
X7659577Y159110D02*
Y164976D01*
G54D15*
Y56236D02*
Y62102D01*
G54D14*
X7755483Y159700D02*
Y165566D01*
G54D15*
Y56826D02*
Y62692D01*
G54D16*
X7445010Y155665D02*
Y175350D01*
X7464695Y155665D02*
Y175350D01*
X7484380Y155665D02*
Y175350D01*
X7504065Y155665D02*
Y175350D01*
X7523750Y155665D02*
Y175350D01*
X7543436Y155665D02*
Y175350D01*
Y277712D02*
Y297397D01*
X7523750Y277712D02*
Y297397D01*
X7504065Y277712D02*
Y297397D01*
X7484380Y277712D02*
Y297397D01*
X7464695Y277712D02*
Y297397D01*
X7445010Y277712D02*
Y297397D01*
G54D17*
X7509971Y226531D02*
X7478475D01*
G54D18*
X7661546Y411491D02*
X7645798D01*
X7567058Y494169D02*
X7551310D01*
G54D19*
X7661546D02*
X7645798D01*
G54D18*
X7567058Y411491D02*
X7551310D01*
G54D20*
X7665483Y452830D02*
X7641861D01*
G54D21*
X7570994D02*
X7547373D01*
G54D22*
X7510640Y-4414D03*
G54D22*
X7462727Y74326D03*
G54D23*
X7590680Y33972D02*
Y45783D01*
G54D24*
X7583524Y28785D02*
Y50970D01*
X7597835Y28785D02*
Y50970D01*
G54D16*
X7555247Y33972D02*
Y45783D01*
G54D24*
X7546091Y26785D02*
Y52970D01*
X7564402Y26785D02*
Y52970D01*
G54D23*
X7755050Y318421D02*
Y330232D01*
G54D24*
X7747894Y313234D02*
Y335419D01*
X7762205Y313234D02*
Y335419D01*
G54D16*
X7719617Y318421D02*
Y330232D01*
G54D24*
X7710461Y311234D02*
Y337419D01*
X7728772Y311234D02*
Y337419D01*
G54D20*
X7602491Y82200D02*
X7590680D01*
G54D25*
X7611615Y69139D02*
X7581556D01*
X7611615Y95261D02*
X7581556D01*
G54D21*
X7535562Y82200D02*
X7523750D01*
G54D25*
X7546685Y67139D02*
X7512627D01*
X7546685Y97261D02*
X7512627D01*
G54D26*
X7594380Y141255D02*
X7583042D01*
G54D27*
X7606961Y123989D02*
X7570461D01*
X7606961Y158521D02*
X7570461D01*
G54D28*
X7594380Y204247D02*
X7583042D01*
G54D27*
X7604961Y188982D02*
X7572461D01*
X7604961Y219513D02*
X7572461D01*
G54D23*
X7627097Y246570D02*
X7615286D01*
G54D24*
X7632284Y239415D02*
X7610099D01*
X7632284Y253726D02*
X7610099D01*
G54D16*
X7627097Y282003D02*
X7615286D01*
G54D24*
X7634284Y272848D02*
X7608099D01*
X7634284Y291159D02*
X7608099D01*
G54D29*
X7502373Y228302D03*
G54D29*
X7483475Y247554D03*
G54D30*
X7549341Y-173705D03*
G54D30*
X7482412Y-172721D03*
G54D29*
X7457806D03*
G54D31*
X7741270Y454247D03*
G54D31*
Y488696D03*
G54D31*
X7705680D03*
G54D31*
Y454208D03*
G54D31*
X7706821Y524129D03*
G54D31*
X7741703D03*
G54D31*
X7779609Y552940D03*
G54D31*
X7431168Y475901D03*
G54D31*
X7433168Y553610D03*
G54D32*
X7755050Y-171690D03*
G54D32*
X7729459D03*
G54D33*
X7780593Y274129D03*
G54D33*
X7780750Y372476D03*
G54D33*
Y457239D03*
G54D33*
X7700365Y409956D03*
G54D33*
X7588711Y554909D03*
G54D33*
X7493908Y555302D03*
G54D33*
X7492254Y494602D03*
G54D33*
X7486664Y421334D03*
G54D33*
X7500128Y381531D03*
G54D33*
X7454853Y249523D03*
G54D33*
X7431239D03*
G54D33*
X7573947Y287909D03*
G54D33*
X7431278Y-80201D03*
G54D33*
Y-172249D03*
G54D32*
X7573711Y-173705D03*
G54D32*
X7638357Y-173430D03*
G54D32*
X7664302D03*
G54D16*
X7445010Y155665D02*
Y175350D01*
X7543436Y155665D02*
Y175350D01*
G54D18*
X7524438Y165507D02*
X7464008D01*
G54D16*
X7445010Y277712D02*
Y297397D01*
X7543436Y277712D02*
Y297397D01*
G54D18*
X7524438Y287554D02*
X7464008D01*
G54D10*
X7470601Y816531D02*
Y904090D01*
G54D11*
X7450611Y802800D02*
Y917820D01*
X7490591Y802800D02*
Y917820D01*
G54D12*
X7561152Y816531D02*
Y904090D01*
G54D11*
X7539162Y800801D02*
Y919820D01*
X7583142Y800801D02*
Y919820D01*
G54D12*
X7651506Y816964D02*
Y904523D01*
G54D11*
X7629516Y801234D02*
Y920253D01*
X7673497Y801234D02*
Y920253D01*
G54D12*
X7741979Y815980D02*
Y903538D01*
G54D11*
X7719989Y800250D02*
Y919269D01*
X7763969Y800250D02*
Y919269D01*
G54D13*
X7728947Y1256452D02*
X7725010D01*
X7728947Y1193460D02*
X7725010D01*
X7671073Y1256452D02*
X7667136D01*
X7671073Y1193460D02*
X7667136D01*
G54D14*
X7659577Y1143362D02*
Y1149228D01*
G54D15*
Y1040488D02*
Y1046354D01*
G54D14*
X7755483Y1143952D02*
Y1149818D01*
G54D15*
Y1041078D02*
Y1046944D01*
G54D16*
X7445010Y1139917D02*
Y1159602D01*
X7464695Y1139917D02*
Y1159602D01*
X7484380Y1139917D02*
Y1159602D01*
X7504065Y1139917D02*
Y1159602D01*
X7523750Y1139917D02*
Y1159602D01*
X7543436Y1139917D02*
Y1159602D01*
Y1261964D02*
Y1281649D01*
X7523750Y1261964D02*
Y1281649D01*
X7504065Y1261964D02*
Y1281649D01*
X7484380Y1261964D02*
Y1281649D01*
X7464695Y1261964D02*
Y1281649D01*
X7445010Y1261964D02*
Y1281649D01*
G54D17*
X7509971Y1210783D02*
X7478475D01*
G54D18*
X7661546Y1395743D02*
X7645798D01*
X7567058Y1478421D02*
X7551310D01*
G54D19*
X7661546D02*
X7645798D01*
G54D18*
X7567058Y1395743D02*
X7551310D01*
G54D20*
X7665483Y1437082D02*
X7641861D01*
G54D21*
X7570994D02*
X7547373D01*
G54D22*
X7510640Y979838D03*
G54D22*
X7462727Y1058578D03*
G54D23*
X7590680Y1018224D02*
Y1030035D01*
G54D24*
X7583524Y1013037D02*
Y1035222D01*
X7597835Y1013037D02*
Y1035222D01*
G54D16*
X7555247Y1018224D02*
Y1030035D01*
G54D24*
X7546091Y1011037D02*
Y1037222D01*
X7564402Y1011037D02*
Y1037222D01*
G54D23*
X7755050Y1302673D02*
Y1314484D01*
G54D24*
X7747894Y1297486D02*
Y1319671D01*
X7762205Y1297486D02*
Y1319671D01*
G54D16*
X7719617Y1302673D02*
Y1314484D01*
G54D24*
X7710461Y1295486D02*
Y1321671D01*
X7728772Y1295486D02*
Y1321671D01*
G54D20*
X7602491Y1066452D02*
X7590680D01*
G54D25*
X7611615Y1053391D02*
X7581556D01*
X7611615Y1079513D02*
X7581556D01*
G54D21*
X7535562Y1066452D02*
X7523750D01*
G54D25*
X7546685Y1051391D02*
X7512627D01*
X7546685Y1081513D02*
X7512627D01*
G54D26*
X7594380Y1125507D02*
X7583042D01*
G54D27*
X7606961Y1108241D02*
X7570461D01*
X7606961Y1142773D02*
X7570461D01*
G54D28*
X7594380Y1188499D02*
X7583042D01*
G54D27*
X7604961Y1173234D02*
X7572461D01*
X7604961Y1203765D02*
X7572461D01*
G54D23*
X7627097Y1230822D02*
X7615286D01*
G54D24*
X7632284Y1223667D02*
X7610099D01*
X7632284Y1237978D02*
X7610099D01*
G54D16*
X7627097Y1266255D02*
X7615286D01*
G54D24*
X7634284Y1257100D02*
X7608099D01*
X7634284Y1275411D02*
X7608099D01*
G54D29*
X7502373Y1212554D03*
G54D29*
X7483475Y1231806D03*
G54D30*
X7549341Y810547D03*
G54D30*
X7482412Y811531D03*
G54D29*
X7457806D03*
G54D31*
X7741270Y1438499D03*
G54D31*
Y1472948D03*
G54D31*
X7705680D03*
G54D31*
Y1438460D03*
G54D31*
X7706821Y1508381D03*
G54D31*
X7741703D03*
G54D31*
X7779609Y1537192D03*
G54D31*
X7431168Y1460153D03*
G54D31*
X7433168Y1537862D03*
G54D32*
X7755050Y812562D03*
G54D32*
X7729459D03*
G54D33*
X7780593Y1258381D03*
G54D33*
X7780750Y1356728D03*
G54D33*
Y1441491D03*
G54D33*
X7700365Y1394208D03*
G54D33*
X7588711Y1539161D03*
G54D33*
X7493908Y1539554D03*
G54D33*
X7492254Y1478854D03*
G54D33*
X7486664Y1405586D03*
G54D33*
X7500128Y1365783D03*
G54D33*
X7454853Y1233775D03*
G54D33*
X7431239D03*
G54D33*
X7573947Y1272161D03*
G54D33*
X7431278Y904050D03*
G54D33*
Y812003D03*
G54D32*
X7573711Y810547D03*
G54D32*
X7638357Y810822D03*
G54D32*
X7664302D03*
G54D16*
X7445010Y1139917D02*
Y1159602D01*
X7543436Y1139917D02*
Y1159602D01*
G54D18*
X7524438Y1149759D02*
X7464008D01*
G54D16*
X7445010Y1261964D02*
Y1281649D01*
X7543436Y1261964D02*
Y1281649D01*
G54D18*
X7524438Y1271806D02*
X7464008D01*
G54D10*
X7470601Y1800783D02*
Y1888342D01*
G54D11*
X7450611Y1787052D02*
Y1902072D01*
X7490591Y1787052D02*
Y1902072D01*
G54D12*
X7561152Y1800783D02*
Y1888342D01*
G54D11*
X7539162Y1785053D02*
Y1904072D01*
X7583142Y1785053D02*
Y1904072D01*
G54D12*
X7651506Y1801216D02*
Y1888775D01*
G54D11*
X7629516Y1785486D02*
Y1904505D01*
X7673497Y1785486D02*
Y1904505D01*
G54D12*
X7741979Y1800232D02*
Y1887790D01*
G54D11*
X7719989Y1784501D02*
Y1903521D01*
X7763969Y1784501D02*
Y1903521D01*
G54D13*
X7728947Y2240704D02*
X7725010D01*
X7728947Y2177712D02*
X7725010D01*
X7671073Y2240704D02*
X7667136D01*
X7671073Y2177712D02*
X7667136D01*
G54D14*
X7659577Y2127613D02*
Y2133480D01*
G54D15*
Y2024740D02*
Y2030606D01*
G54D14*
X7755483Y2128204D02*
Y2134070D01*
G54D15*
Y2025330D02*
Y2031196D01*
G54D16*
X7445010Y2124169D02*
Y2143854D01*
X7464695Y2124169D02*
Y2143854D01*
X7484380Y2124169D02*
Y2143854D01*
X7504065Y2124169D02*
Y2143854D01*
X7523750Y2124169D02*
Y2143854D01*
X7543436Y2124169D02*
Y2143854D01*
Y2246216D02*
Y2265901D01*
X7523750Y2246216D02*
Y2265901D01*
X7504065Y2246216D02*
Y2265901D01*
X7484380Y2246216D02*
Y2265901D01*
X7464695Y2246216D02*
Y2265901D01*
X7445010Y2246216D02*
Y2265901D01*
G54D17*
X7509971Y2195035D02*
X7478475D01*
G54D18*
X7661546Y2379995D02*
X7645798D01*
X7567058Y2462673D02*
X7551310D01*
G54D19*
X7661546D02*
X7645798D01*
G54D18*
X7567058Y2379995D02*
X7551310D01*
G54D20*
X7665483Y2421334D02*
X7641861D01*
G54D21*
X7570994D02*
X7547373D01*
G54D22*
X7510640Y1964090D03*
G54D22*
X7462727Y2042830D03*
G54D23*
X7590680Y2002476D02*
Y2014287D01*
G54D24*
X7583524Y1997289D02*
Y2019474D01*
X7597835Y1997289D02*
Y2019474D01*
G54D16*
X7555247Y2002476D02*
Y2014287D01*
G54D24*
X7546091Y1995289D02*
Y2021474D01*
X7564402Y1995289D02*
Y2021474D01*
G54D23*
X7755050Y2286925D02*
Y2298736D01*
G54D24*
X7747894Y2281738D02*
Y2303923D01*
X7762205Y2281738D02*
Y2303923D01*
G54D16*
X7719617Y2286925D02*
Y2298736D01*
G54D24*
X7710461Y2279738D02*
Y2305923D01*
X7728772Y2279738D02*
Y2305923D01*
G54D20*
X7602491Y2050704D02*
X7590680D01*
G54D25*
X7611615Y2037643D02*
X7581556D01*
X7611615Y2063765D02*
X7581556D01*
G54D21*
X7535562Y2050704D02*
X7523750D01*
G54D25*
X7546685Y2035643D02*
X7512627D01*
X7546685Y2065765D02*
X7512627D01*
G54D26*
X7594380Y2109759D02*
X7583042D01*
G54D27*
X7606961Y2092493D02*
X7570461D01*
X7606961Y2127025D02*
X7570461D01*
G54D28*
X7594380Y2172751D02*
X7583042D01*
G54D27*
X7604961Y2157486D02*
X7572461D01*
X7604961Y2188017D02*
X7572461D01*
G54D23*
X7627097Y2215074D02*
X7615286D01*
G54D24*
X7632284Y2207919D02*
X7610099D01*
X7632284Y2222230D02*
X7610099D01*
G54D16*
X7627097Y2250507D02*
X7615286D01*
G54D24*
X7634284Y2241352D02*
X7608099D01*
X7634284Y2259663D02*
X7608099D01*
G54D29*
X7502373Y2196806D03*
G54D29*
X7483475Y2216058D03*
G54D30*
X7549341Y1794799D03*
G54D30*
X7482412Y1795783D03*
G54D29*
X7457806D03*
G54D31*
X7741270Y2422751D03*
G54D31*
Y2457200D03*
G54D31*
X7705680D03*
G54D31*
Y2422712D03*
G54D31*
X7706821Y2492633D03*
G54D31*
X7741703D03*
G54D31*
X7779609Y2521444D03*
G54D31*
X7431168Y2444405D03*
G54D31*
X7433168Y2522113D03*
G54D32*
X7755050Y1796814D03*
G54D32*
X7729459D03*
G54D33*
X7780593Y2242633D03*
G54D33*
X7780750Y2340980D03*
G54D33*
Y2425743D03*
G54D33*
X7700365Y2378460D03*
G54D33*
X7588711Y2523413D03*
G54D33*
X7493908Y2523806D03*
G54D33*
X7492254Y2463106D03*
G54D33*
X7486664Y2389838D03*
G54D33*
X7500128Y2350035D03*
G54D33*
X7454853Y2218027D03*
G54D33*
X7431239D03*
G54D33*
X7573947Y2256413D03*
G54D33*
X7431278Y1888302D03*
G54D33*
Y1796255D03*
G54D32*
X7573711Y1794799D03*
G54D32*
X7638357Y1795074D03*
G54D32*
X7664302D03*
G54D16*
X7445010Y2124169D02*
Y2143854D01*
X7543436Y2124169D02*
Y2143854D01*
G54D18*
X7524438Y2134011D02*
X7464008D01*
G54D16*
X7445010Y2246216D02*
Y2265901D01*
X7543436Y2246216D02*
Y2265901D01*
G54D18*
X7524438Y2256058D02*
X7464008D01*
G54D10*
X7958790Y-2136225D02*
Y-2048666D01*
G54D11*
X7938800Y-2149955D02*
Y-2034936D01*
X7978780Y-2149955D02*
Y-2034936D01*
G54D12*
X8049341Y-2136225D02*
Y-2048666D01*
G54D11*
X8027351Y-2151955D02*
Y-2032936D01*
X8071331Y-2151955D02*
Y-2032936D01*
G54D12*
X8139695Y-2135792D02*
Y-2048233D01*
G54D11*
X8117705Y-2151522D02*
Y-2032503D01*
X8161686Y-2151522D02*
Y-2032503D01*
G54D12*
X8230168Y-2136776D02*
Y-2049217D01*
G54D11*
X8208178Y-2152506D02*
Y-2033487D01*
X8252158Y-2152506D02*
Y-2033487D01*
G54D13*
X8217136Y-1696304D02*
X8213199D01*
X8217136Y-1759296D02*
X8213199D01*
X8159262Y-1696304D02*
X8155325D01*
X8159262Y-1759296D02*
X8155325D01*
G54D14*
X8147766Y-1809394D02*
Y-1803528D01*
G54D15*
Y-1912268D02*
Y-1906402D01*
G54D14*
X8243672Y-1808804D02*
Y-1802938D01*
G54D15*
Y-1911678D02*
Y-1905812D01*
G54D16*
X7933199Y-1812839D02*
Y-1793154D01*
X7952884Y-1812839D02*
Y-1793154D01*
X7972569Y-1812839D02*
Y-1793154D01*
X7992254Y-1812839D02*
Y-1793154D01*
X8011939Y-1812839D02*
Y-1793154D01*
X8031625Y-1812839D02*
Y-1793154D01*
Y-1690792D02*
Y-1671107D01*
X8011939Y-1690792D02*
Y-1671107D01*
X7992254Y-1690792D02*
Y-1671107D01*
X7972569Y-1690792D02*
Y-1671107D01*
X7952884Y-1690792D02*
Y-1671107D01*
X7933199Y-1690792D02*
Y-1671107D01*
G54D17*
X7998160Y-1741973D02*
X7966664D01*
G54D18*
X8149735Y-1557013D02*
X8133987D01*
X8055247Y-1474335D02*
X8039499D01*
G54D19*
X8149735D02*
X8133987D01*
G54D18*
X8055247Y-1557013D02*
X8039499D01*
G54D20*
X8153672Y-1515674D02*
X8130050D01*
G54D21*
X8059183D02*
X8035562D01*
G54D22*
X7998829Y-1972918D03*
G54D22*
X7950916Y-1894178D03*
G54D23*
X8078869Y-1934532D02*
Y-1922721D01*
G54D24*
X8071713Y-1939719D02*
Y-1917534D01*
X8086024Y-1939719D02*
Y-1917534D01*
G54D16*
X8043436Y-1934532D02*
Y-1922721D01*
G54D24*
X8034280Y-1941719D02*
Y-1915534D01*
X8052591Y-1941719D02*
Y-1915534D01*
G54D23*
X8243239Y-1650083D02*
Y-1638272D01*
G54D24*
X8236083Y-1655270D02*
Y-1633085D01*
X8250394Y-1655270D02*
Y-1633085D01*
G54D16*
X8207806Y-1650083D02*
Y-1638272D01*
G54D24*
X8198650Y-1657270D02*
Y-1631085D01*
X8216961Y-1657270D02*
Y-1631085D01*
G54D20*
X8090680Y-1886304D02*
X8078869D01*
G54D25*
X8099804Y-1899365D02*
X8069745D01*
X8099804Y-1873243D02*
X8069745D01*
G54D21*
X8023750Y-1886304D02*
X8011939D01*
G54D25*
X8034874Y-1901365D02*
X8000816D01*
X8034874Y-1871243D02*
X8000816D01*
G54D26*
X8082569Y-1827249D02*
X8071231D01*
G54D27*
X8095150Y-1844515D02*
X8058650D01*
X8095150Y-1809983D02*
X8058650D01*
G54D28*
X8082569Y-1764257D02*
X8071231D01*
G54D27*
X8093150Y-1779522D02*
X8060650D01*
X8093150Y-1748991D02*
X8060650D01*
G54D23*
X8115286Y-1721934D02*
X8103475D01*
G54D24*
X8120473Y-1729089D02*
X8098288D01*
X8120473Y-1714778D02*
X8098288D01*
G54D16*
X8115286Y-1686501D02*
X8103475D01*
G54D24*
X8122473Y-1695656D02*
X8096288D01*
X8122473Y-1677345D02*
X8096288D01*
G54D29*
X7990562Y-1740201D03*
G54D29*
X7971664Y-1720950D03*
G54D30*
X8037530Y-2142209D03*
G54D30*
X7970601Y-2141225D03*
G54D29*
X7945995D03*
G54D31*
X8229459Y-1514257D03*
G54D31*
Y-1479808D03*
G54D31*
X8193869D03*
G54D31*
Y-1514296D03*
G54D31*
X8195010Y-1444375D03*
G54D31*
X8229892D03*
G54D31*
X8267798Y-1415564D03*
G54D31*
X7919357Y-1492603D03*
G54D31*
X7921357Y-1414894D03*
G54D32*
X8243239Y-2140194D03*
G54D32*
X8217648D03*
G54D33*
X8268782Y-1694375D03*
G54D33*
X8268939Y-1596028D03*
G54D33*
Y-1511264D03*
G54D33*
X8188554Y-1558548D03*
G54D33*
X8076900Y-1413595D03*
G54D33*
X7982097Y-1413201D03*
G54D33*
X7980443Y-1473902D03*
G54D33*
X7974853Y-1547170D03*
G54D33*
X7988317Y-1586973D03*
G54D33*
X7943042Y-1718981D03*
G54D33*
X7919428D03*
G54D33*
X8062136Y-1680595D03*
G54D33*
X7919467Y-2048705D03*
G54D33*
Y-2140753D03*
G54D32*
X8061900Y-2142209D03*
G54D32*
X8126546Y-2141934D03*
G54D32*
X8152491D03*
G54D16*
X7933199Y-1812839D02*
Y-1793154D01*
X8031625Y-1812839D02*
Y-1793154D01*
G54D18*
X8012627Y-1802997D02*
X7952197D01*
G54D16*
X7933199Y-1690792D02*
Y-1671107D01*
X8031625Y-1690792D02*
Y-1671107D01*
G54D18*
X8012627Y-1680950D02*
X7952197D01*
G54D10*
X7958790Y-1151973D02*
Y-1064414D01*
G54D11*
X7938800Y-1165703D02*
Y-1050684D01*
X7978780Y-1165703D02*
Y-1050684D01*
G54D12*
X8049341Y-1151973D02*
Y-1064414D01*
G54D11*
X8027351Y-1167703D02*
Y-1048684D01*
X8071331Y-1167703D02*
Y-1048684D01*
G54D12*
X8139695Y-1151540D02*
Y-1063981D01*
G54D11*
X8117705Y-1167270D02*
Y-1048251D01*
X8161686Y-1167270D02*
Y-1048251D01*
G54D12*
X8230168Y-1152524D02*
Y-1064965D01*
G54D11*
X8208178Y-1168254D02*
Y-1049235D01*
X8252158Y-1168254D02*
Y-1049235D01*
G54D13*
X8217136Y-712052D02*
X8213199D01*
X8217136Y-775044D02*
X8213199D01*
X8159262Y-712052D02*
X8155325D01*
X8159262Y-775044D02*
X8155325D01*
G54D14*
X8147766Y-825142D02*
Y-819276D01*
G54D15*
Y-928016D02*
Y-922150D01*
G54D14*
X8243672Y-824552D02*
Y-818686D01*
G54D15*
Y-927426D02*
Y-921560D01*
G54D16*
X7933199Y-828587D02*
Y-808902D01*
X7952884Y-828587D02*
Y-808902D01*
X7972569Y-828587D02*
Y-808902D01*
X7992254Y-828587D02*
Y-808902D01*
X8011939Y-828587D02*
Y-808902D01*
X8031625Y-828587D02*
Y-808902D01*
Y-706540D02*
Y-686855D01*
X8011939Y-706540D02*
Y-686855D01*
X7992254Y-706540D02*
Y-686855D01*
X7972569Y-706540D02*
Y-686855D01*
X7952884Y-706540D02*
Y-686855D01*
X7933199Y-706540D02*
Y-686855D01*
G54D17*
X7998160Y-757721D02*
X7966664D01*
G54D18*
X8149735Y-572761D02*
X8133987D01*
X8055247Y-490083D02*
X8039499D01*
G54D19*
X8149735D02*
X8133987D01*
G54D18*
X8055247Y-572761D02*
X8039499D01*
G54D20*
X8153672Y-531422D02*
X8130050D01*
G54D21*
X8059183D02*
X8035562D01*
G54D22*
X7998829Y-988666D03*
G54D22*
X7950916Y-909926D03*
G54D23*
X8078869Y-950280D02*
Y-938469D01*
G54D24*
X8071713Y-955467D02*
Y-933282D01*
X8086024Y-955467D02*
Y-933282D01*
G54D16*
X8043436Y-950280D02*
Y-938469D01*
G54D24*
X8034280Y-957467D02*
Y-931282D01*
X8052591Y-957467D02*
Y-931282D01*
G54D23*
X8243239Y-665831D02*
Y-654020D01*
G54D24*
X8236083Y-671018D02*
Y-648833D01*
X8250394Y-671018D02*
Y-648833D01*
G54D16*
X8207806Y-665831D02*
Y-654020D01*
G54D24*
X8198650Y-673018D02*
Y-646833D01*
X8216961Y-673018D02*
Y-646833D01*
G54D20*
X8090680Y-902052D02*
X8078869D01*
G54D25*
X8099804Y-915113D02*
X8069745D01*
X8099804Y-888991D02*
X8069745D01*
G54D21*
X8023750Y-902052D02*
X8011939D01*
G54D25*
X8034874Y-917113D02*
X8000816D01*
X8034874Y-886991D02*
X8000816D01*
G54D26*
X8082569Y-842997D02*
X8071231D01*
G54D27*
X8095150Y-860263D02*
X8058650D01*
X8095150Y-825731D02*
X8058650D01*
G54D28*
X8082569Y-780005D02*
X8071231D01*
G54D27*
X8093150Y-795270D02*
X8060650D01*
X8093150Y-764739D02*
X8060650D01*
G54D23*
X8115286Y-737682D02*
X8103475D01*
G54D24*
X8120473Y-744837D02*
X8098288D01*
X8120473Y-730526D02*
X8098288D01*
G54D16*
X8115286Y-702249D02*
X8103475D01*
G54D24*
X8122473Y-711404D02*
X8096288D01*
X8122473Y-693093D02*
X8096288D01*
G54D29*
X7990562Y-755950D03*
G54D29*
X7971664Y-736698D03*
G54D30*
X8037530Y-1157957D03*
G54D30*
X7970601Y-1156973D03*
G54D29*
X7945995D03*
G54D31*
X8229459Y-530005D03*
G54D31*
Y-495556D03*
G54D31*
X8193869D03*
G54D31*
Y-530044D03*
G54D31*
X8195010Y-460123D03*
G54D31*
X8229892D03*
G54D31*
X8267798Y-431312D03*
G54D31*
X7919357Y-508351D03*
G54D31*
X7921357Y-430642D03*
G54D32*
X8243239Y-1155942D03*
G54D32*
X8217648D03*
G54D33*
X8268782Y-710123D03*
G54D33*
X8268939Y-611776D03*
G54D33*
Y-527013D03*
G54D33*
X8188554Y-574296D03*
G54D33*
X8076900Y-429343D03*
G54D33*
X7982097Y-428950D03*
G54D33*
X7980443Y-489650D03*
G54D33*
X7974853Y-562918D03*
G54D33*
X7988317Y-602721D03*
G54D33*
X7943042Y-734729D03*
G54D33*
X7919428D03*
G54D33*
X8062136Y-696343D03*
G54D33*
X7919467Y-1064453D03*
G54D33*
Y-1156501D03*
G54D32*
X8061900Y-1157957D03*
G54D32*
X8126546Y-1157682D03*
G54D32*
X8152491D03*
G54D16*
X7933199Y-828587D02*
Y-808902D01*
X8031625Y-828587D02*
Y-808902D01*
G54D18*
X8012627Y-818745D02*
X7952197D01*
G54D16*
X7933199Y-706540D02*
Y-686855D01*
X8031625Y-706540D02*
Y-686855D01*
G54D18*
X8012627Y-696698D02*
X7952197D01*
G54D10*
X7958790Y-167721D02*
Y-80162D01*
G54D11*
X7938800Y-181451D02*
Y-66432D01*
X7978780Y-181451D02*
Y-66432D01*
G54D12*
X8049341Y-167721D02*
Y-80162D01*
G54D11*
X8027351Y-183451D02*
Y-64432D01*
X8071331Y-183451D02*
Y-64432D01*
G54D12*
X8139695Y-167288D02*
Y-79729D01*
G54D11*
X8117705Y-183018D02*
Y-63999D01*
X8161686Y-183018D02*
Y-63999D01*
G54D12*
X8230168Y-168272D02*
Y-80713D01*
G54D11*
X8208178Y-184002D02*
Y-64983D01*
X8252158Y-184002D02*
Y-64983D01*
G54D13*
X8217136Y272200D02*
X8213199D01*
X8217136Y209208D02*
X8213199D01*
X8159262Y272200D02*
X8155325D01*
X8159262Y209208D02*
X8155325D01*
G54D14*
X8147766Y159110D02*
Y164976D01*
G54D15*
Y56236D02*
Y62102D01*
G54D14*
X8243672Y159700D02*
Y165566D01*
G54D15*
Y56826D02*
Y62692D01*
G54D16*
X7933199Y155665D02*
Y175350D01*
X7952884Y155665D02*
Y175350D01*
X7972569Y155665D02*
Y175350D01*
X7992254Y155665D02*
Y175350D01*
X8011939Y155665D02*
Y175350D01*
X8031625Y155665D02*
Y175350D01*
Y277712D02*
Y297397D01*
X8011939Y277712D02*
Y297397D01*
X7992254Y277712D02*
Y297397D01*
X7972569Y277712D02*
Y297397D01*
X7952884Y277712D02*
Y297397D01*
X7933199Y277712D02*
Y297397D01*
G54D17*
X7998160Y226531D02*
X7966664D01*
G54D18*
X8149735Y411491D02*
X8133987D01*
X8055247Y494169D02*
X8039499D01*
G54D19*
X8149735D02*
X8133987D01*
G54D18*
X8055247Y411491D02*
X8039499D01*
G54D20*
X8153672Y452830D02*
X8130050D01*
G54D21*
X8059183D02*
X8035562D01*
G54D22*
X7998829Y-4414D03*
G54D22*
X7950916Y74326D03*
G54D23*
X8078869Y33972D02*
Y45783D01*
G54D24*
X8071713Y28785D02*
Y50970D01*
X8086024Y28785D02*
Y50970D01*
G54D16*
X8043436Y33972D02*
Y45783D01*
G54D24*
X8034280Y26785D02*
Y52970D01*
X8052591Y26785D02*
Y52970D01*
G54D23*
X8243239Y318421D02*
Y330232D01*
G54D24*
X8236083Y313234D02*
Y335419D01*
X8250394Y313234D02*
Y335419D01*
G54D16*
X8207806Y318421D02*
Y330232D01*
G54D24*
X8198650Y311234D02*
Y337419D01*
X8216961Y311234D02*
Y337419D01*
G54D20*
X8090680Y82200D02*
X8078869D01*
G54D25*
X8099804Y69139D02*
X8069745D01*
X8099804Y95261D02*
X8069745D01*
G54D21*
X8023750Y82200D02*
X8011939D01*
G54D25*
X8034874Y67139D02*
X8000816D01*
X8034874Y97261D02*
X8000816D01*
G54D26*
X8082569Y141255D02*
X8071231D01*
G54D27*
X8095150Y123989D02*
X8058650D01*
X8095150Y158521D02*
X8058650D01*
G54D28*
X8082569Y204247D02*
X8071231D01*
G54D27*
X8093150Y188982D02*
X8060650D01*
X8093150Y219513D02*
X8060650D01*
G54D23*
X8115286Y246570D02*
X8103475D01*
G54D24*
X8120473Y239415D02*
X8098288D01*
X8120473Y253726D02*
X8098288D01*
G54D16*
X8115286Y282003D02*
X8103475D01*
G54D24*
X8122473Y272848D02*
X8096288D01*
X8122473Y291159D02*
X8096288D01*
G54D29*
X7990562Y228302D03*
G54D29*
X7971664Y247554D03*
G54D30*
X8037530Y-173705D03*
G54D30*
X7970601Y-172721D03*
G54D29*
X7945995D03*
G54D31*
X8229459Y454247D03*
G54D31*
Y488696D03*
G54D31*
X8193869D03*
G54D31*
Y454208D03*
G54D31*
X8195010Y524129D03*
G54D31*
X8229892D03*
G54D31*
X8267798Y552940D03*
G54D31*
X7919357Y475901D03*
G54D31*
X7921357Y553610D03*
G54D32*
X8243239Y-171690D03*
G54D32*
X8217648D03*
G54D33*
X8268782Y274129D03*
G54D33*
X8268939Y372476D03*
G54D33*
Y457239D03*
G54D33*
X8188554Y409956D03*
G54D33*
X8076900Y554909D03*
G54D33*
X7982097Y555302D03*
G54D33*
X7980443Y494602D03*
G54D33*
X7974853Y421334D03*
G54D33*
X7988317Y381531D03*
G54D33*
X7943042Y249523D03*
G54D33*
X7919428D03*
G54D33*
X8062136Y287909D03*
G54D33*
X7919467Y-80201D03*
G54D33*
Y-172249D03*
G54D32*
X8061900Y-173705D03*
G54D32*
X8126546Y-173430D03*
G54D32*
X8152491D03*
G54D16*
X7933199Y155665D02*
Y175350D01*
X8031625Y155665D02*
Y175350D01*
G54D18*
X8012627Y165507D02*
X7952197D01*
G54D16*
X7933199Y277712D02*
Y297397D01*
X8031625Y277712D02*
Y297397D01*
G54D18*
X8012627Y287554D02*
X7952197D01*
G54D10*
X7958790Y816531D02*
Y904090D01*
G54D11*
X7938800Y802800D02*
Y917820D01*
X7978780Y802800D02*
Y917820D01*
G54D12*
X8049341Y816531D02*
Y904090D01*
G54D11*
X8027351Y800801D02*
Y919820D01*
X8071331Y800801D02*
Y919820D01*
G54D12*
X8139695Y816964D02*
Y904523D01*
G54D11*
X8117705Y801234D02*
Y920253D01*
X8161686Y801234D02*
Y920253D01*
G54D12*
X8230168Y815980D02*
Y903538D01*
G54D11*
X8208178Y800250D02*
Y919269D01*
X8252158Y800250D02*
Y919269D01*
G54D13*
X8217136Y1256452D02*
X8213199D01*
X8217136Y1193460D02*
X8213199D01*
X8159262Y1256452D02*
X8155325D01*
X8159262Y1193460D02*
X8155325D01*
G54D14*
X8147766Y1143362D02*
Y1149228D01*
G54D15*
Y1040488D02*
Y1046354D01*
G54D14*
X8243672Y1143952D02*
Y1149818D01*
G54D15*
Y1041078D02*
Y1046944D01*
G54D16*
X7933199Y1139917D02*
Y1159602D01*
X7952884Y1139917D02*
Y1159602D01*
X7972569Y1139917D02*
Y1159602D01*
X7992254Y1139917D02*
Y1159602D01*
X8011939Y1139917D02*
Y1159602D01*
X8031625Y1139917D02*
Y1159602D01*
Y1261964D02*
Y1281649D01*
X8011939Y1261964D02*
Y1281649D01*
X7992254Y1261964D02*
Y1281649D01*
X7972569Y1261964D02*
Y1281649D01*
X7952884Y1261964D02*
Y1281649D01*
X7933199Y1261964D02*
Y1281649D01*
G54D17*
X7998160Y1210783D02*
X7966664D01*
G54D18*
X8149735Y1395743D02*
X8133987D01*
X8055247Y1478421D02*
X8039499D01*
G54D19*
X8149735D02*
X8133987D01*
G54D18*
X8055247Y1395743D02*
X8039499D01*
G54D20*
X8153672Y1437082D02*
X8130050D01*
G54D21*
X8059183D02*
X8035562D01*
G54D22*
X7998829Y979838D03*
G54D22*
X7950916Y1058578D03*
G54D23*
X8078869Y1018224D02*
Y1030035D01*
G54D24*
X8071713Y1013037D02*
Y1035222D01*
X8086024Y1013037D02*
Y1035222D01*
G54D16*
X8043436Y1018224D02*
Y1030035D01*
G54D24*
X8034280Y1011037D02*
Y1037222D01*
X8052591Y1011037D02*
Y1037222D01*
G54D23*
X8243239Y1302673D02*
Y1314484D01*
G54D24*
X8236083Y1297486D02*
Y1319671D01*
X8250394Y1297486D02*
Y1319671D01*
G54D16*
X8207806Y1302673D02*
Y1314484D01*
G54D24*
X8198650Y1295486D02*
Y1321671D01*
X8216961Y1295486D02*
Y1321671D01*
G54D20*
X8090680Y1066452D02*
X8078869D01*
G54D25*
X8099804Y1053391D02*
X8069745D01*
X8099804Y1079513D02*
X8069745D01*
G54D21*
X8023750Y1066452D02*
X8011939D01*
G54D25*
X8034874Y1051391D02*
X8000816D01*
X8034874Y1081513D02*
X8000816D01*
G54D26*
X8082569Y1125507D02*
X8071231D01*
G54D27*
X8095150Y1108241D02*
X8058650D01*
X8095150Y1142773D02*
X8058650D01*
G54D28*
X8082569Y1188499D02*
X8071231D01*
G54D27*
X8093150Y1173234D02*
X8060650D01*
X8093150Y1203765D02*
X8060650D01*
G54D23*
X8115286Y1230822D02*
X8103475D01*
G54D24*
X8120473Y1223667D02*
X8098288D01*
X8120473Y1237978D02*
X8098288D01*
G54D16*
X8115286Y1266255D02*
X8103475D01*
G54D24*
X8122473Y1257100D02*
X8096288D01*
X8122473Y1275411D02*
X8096288D01*
G54D29*
X7990562Y1212554D03*
G54D29*
X7971664Y1231806D03*
G54D30*
X8037530Y810547D03*
G54D30*
X7970601Y811531D03*
G54D29*
X7945995D03*
G54D31*
X8229459Y1438499D03*
G54D31*
Y1472948D03*
G54D31*
X8193869D03*
G54D31*
Y1438460D03*
G54D31*
X8195010Y1508381D03*
G54D31*
X8229892D03*
G54D31*
X8267798Y1537192D03*
G54D31*
X7919357Y1460153D03*
G54D31*
X7921357Y1537862D03*
G54D32*
X8243239Y812562D03*
G54D32*
X8217648D03*
G54D33*
X8268782Y1258381D03*
G54D33*
X8268939Y1356728D03*
G54D33*
Y1441491D03*
G54D33*
X8188554Y1394208D03*
G54D33*
X8076900Y1539161D03*
G54D33*
X7982097Y1539554D03*
G54D33*
X7980443Y1478854D03*
G54D33*
X7974853Y1405586D03*
G54D33*
X7988317Y1365783D03*
G54D33*
X7943042Y1233775D03*
G54D33*
X7919428D03*
G54D33*
X8062136Y1272161D03*
G54D33*
X7919467Y904050D03*
G54D33*
Y812003D03*
G54D32*
X8061900Y810547D03*
G54D32*
X8126546Y810822D03*
G54D32*
X8152491D03*
G54D16*
X7933199Y1139917D02*
Y1159602D01*
X8031625Y1139917D02*
Y1159602D01*
G54D18*
X8012627Y1149759D02*
X7952197D01*
G54D16*
X7933199Y1261964D02*
Y1281649D01*
X8031625Y1261964D02*
Y1281649D01*
G54D18*
X8012627Y1271806D02*
X7952197D01*
G54D10*
X7958790Y1800783D02*
Y1888342D01*
G54D11*
X7938800Y1787052D02*
Y1902072D01*
X7978780Y1787052D02*
Y1902072D01*
G54D12*
X8049341Y1800783D02*
Y1888342D01*
G54D11*
X8027351Y1785053D02*
Y1904072D01*
X8071331Y1785053D02*
Y1904072D01*
G54D12*
X8139695Y1801216D02*
Y1888775D01*
G54D11*
X8117705Y1785486D02*
Y1904505D01*
X8161686Y1785486D02*
Y1904505D01*
G54D12*
X8230168Y1800232D02*
Y1887790D01*
G54D11*
X8208178Y1784501D02*
Y1903521D01*
X8252158Y1784501D02*
Y1903521D01*
G54D13*
X8217136Y2240704D02*
X8213199D01*
X8217136Y2177712D02*
X8213199D01*
X8159262Y2240704D02*
X8155325D01*
X8159262Y2177712D02*
X8155325D01*
G54D14*
X8147766Y2127613D02*
Y2133480D01*
G54D15*
Y2024740D02*
Y2030606D01*
G54D14*
X8243672Y2128204D02*
Y2134070D01*
G54D15*
Y2025330D02*
Y2031196D01*
G54D16*
X7933199Y2124169D02*
Y2143854D01*
X7952884Y2124169D02*
Y2143854D01*
X7972569Y2124169D02*
Y2143854D01*
X7992254Y2124169D02*
Y2143854D01*
X8011939Y2124169D02*
Y2143854D01*
X8031625Y2124169D02*
Y2143854D01*
Y2246216D02*
Y2265901D01*
X8011939Y2246216D02*
Y2265901D01*
X7992254Y2246216D02*
Y2265901D01*
X7972569Y2246216D02*
Y2265901D01*
X7952884Y2246216D02*
Y2265901D01*
X7933199Y2246216D02*
Y2265901D01*
G54D17*
X7998160Y2195035D02*
X7966664D01*
G54D18*
X8149735Y2379995D02*
X8133987D01*
X8055247Y2462673D02*
X8039499D01*
G54D19*
X8149735D02*
X8133987D01*
G54D18*
X8055247Y2379995D02*
X8039499D01*
G54D20*
X8153672Y2421334D02*
X8130050D01*
G54D21*
X8059183D02*
X8035562D01*
G54D22*
X7998829Y1964090D03*
G54D22*
X7950916Y2042830D03*
G54D23*
X8078869Y2002476D02*
Y2014287D01*
G54D24*
X8071713Y1997289D02*
Y2019474D01*
X8086024Y1997289D02*
Y2019474D01*
G54D16*
X8043436Y2002476D02*
Y2014287D01*
G54D24*
X8034280Y1995289D02*
Y2021474D01*
X8052591Y1995289D02*
Y2021474D01*
G54D23*
X8243239Y2286925D02*
Y2298736D01*
G54D24*
X8236083Y2281738D02*
Y2303923D01*
X8250394Y2281738D02*
Y2303923D01*
G54D16*
X8207806Y2286925D02*
Y2298736D01*
G54D24*
X8198650Y2279738D02*
Y2305923D01*
X8216961Y2279738D02*
Y2305923D01*
G54D20*
X8090680Y2050704D02*
X8078869D01*
G54D25*
X8099804Y2037643D02*
X8069745D01*
X8099804Y2063765D02*
X8069745D01*
G54D21*
X8023750Y2050704D02*
X8011939D01*
G54D25*
X8034874Y2035643D02*
X8000816D01*
X8034874Y2065765D02*
X8000816D01*
G54D26*
X8082569Y2109759D02*
X8071231D01*
G54D27*
X8095150Y2092493D02*
X8058650D01*
X8095150Y2127025D02*
X8058650D01*
G54D28*
X8082569Y2172751D02*
X8071231D01*
G54D27*
X8093150Y2157486D02*
X8060650D01*
X8093150Y2188017D02*
X8060650D01*
G54D23*
X8115286Y2215074D02*
X8103475D01*
G54D24*
X8120473Y2207919D02*
X8098288D01*
X8120473Y2222230D02*
X8098288D01*
G54D16*
X8115286Y2250507D02*
X8103475D01*
G54D24*
X8122473Y2241352D02*
X8096288D01*
X8122473Y2259663D02*
X8096288D01*
G54D29*
X7990562Y2196806D03*
G54D29*
X7971664Y2216058D03*
G54D30*
X8037530Y1794799D03*
G54D30*
X7970601Y1795783D03*
G54D29*
X7945995D03*
G54D31*
X8229459Y2422751D03*
G54D31*
Y2457200D03*
G54D31*
X8193869D03*
G54D31*
Y2422712D03*
G54D31*
X8195010Y2492633D03*
G54D31*
X8229892D03*
G54D31*
X8267798Y2521444D03*
G54D31*
X7919357Y2444405D03*
G54D31*
X7921357Y2522113D03*
G54D32*
X8243239Y1796814D03*
G54D32*
X8217648D03*
G54D33*
X8268782Y2242633D03*
G54D33*
X8268939Y2340980D03*
G54D33*
Y2425743D03*
G54D33*
X8188554Y2378460D03*
G54D33*
X8076900Y2523413D03*
G54D33*
X7982097Y2523806D03*
G54D33*
X7980443Y2463106D03*
G54D33*
X7974853Y2389838D03*
G54D33*
X7988317Y2350035D03*
G54D33*
X7943042Y2218027D03*
G54D33*
X7919428D03*
G54D33*
X8062136Y2256413D03*
G54D33*
X7919467Y1888302D03*
G54D33*
Y1796255D03*
G54D32*
X8061900Y1794799D03*
G54D32*
X8126546Y1795074D03*
G54D32*
X8152491D03*
G54D16*
X7933199Y2124169D02*
Y2143854D01*
X8031625Y2124169D02*
Y2143854D01*
G54D18*
X8012627Y2134011D02*
X7952197D01*
G54D16*
X7933199Y2246216D02*
Y2265901D01*
X8031625Y2246216D02*
Y2265901D01*
G54D18*
X8012627Y2256058D02*
X7952197D01*
G54D34*
X4882018Y-1531294D02*
Y-1383784D01*
Y-1984045D02*
Y-1574503D01*
Y-2171186D02*
X4472569D01*
X4882018D02*
Y-2027263D01*
Y-1531294D02*
G03X4882018Y-1574503I-509J-21604D01*
Y-1984045D02*
G03X4882018Y-2027263I-452J-21609D01*
X4472569Y-2027577D02*
G03X4472569Y-1984401I470J21588D01*
Y-1574821D02*
G03X4472569Y-1531645I470J21588D01*
G01Y-1383784D01*
Y-1984401D02*
Y-1574821D01*
Y-2171186D02*
Y-2027577D01*
X4882018Y-1383784D02*
X4472569D01*
X4882018Y-547042D02*
Y-399532D01*
Y-999793D02*
Y-590251D01*
Y-1186934D02*
X4472569D01*
X4882018D02*
Y-1043011D01*
Y-547042D02*
G03X4882018Y-590251I-509J-21604D01*
Y-999793D02*
G03X4882018Y-1043011I-452J-21609D01*
X4472569Y-1043325D02*
G03X4472569Y-1000149I470J21588D01*
Y-590569D02*
G03X4472569Y-547393I470J21588D01*
G01Y-399532D01*
Y-1000149D02*
Y-590569D01*
Y-1186934D02*
Y-1043325D01*
X4882018Y-399532D02*
X4472569D01*
X4882018Y437210D02*
Y584720D01*
Y-15541D02*
Y394001D01*
Y-202682D02*
X4472569D01*
X4882018D02*
Y-58759D01*
Y437210D02*
G03X4882018Y394001I-509J-21604D01*
Y-15541D02*
G03X4882018Y-58759I-452J-21609D01*
X4472569Y-59073D02*
G03X4472569Y-15897I470J21588D01*
Y393683D02*
G03X4472569Y436859I470J21588D01*
G01Y584720D01*
Y-15897D02*
Y393683D01*
Y-202682D02*
Y-59073D01*
X4882018Y584720D02*
X4472569D01*
X4882018Y1421462D02*
Y1568972D01*
Y968711D02*
Y1378253D01*
Y781570D02*
X4472569D01*
X4882018D02*
Y925493D01*
Y1421462D02*
G03X4882018Y1378253I-509J-21604D01*
Y968711D02*
G03X4882018Y925493I-452J-21609D01*
X4472569Y925179D02*
G03X4472569Y968355I470J21588D01*
Y1377935D02*
G03X4472569Y1421111I470J21588D01*
G01Y1568972D01*
Y968355D02*
Y1377935D01*
Y781570D02*
Y925179D01*
X4882018Y1568972D02*
X4472569D01*
X4882018Y2405713D02*
Y2553224D01*
Y1952963D02*
Y2362505D01*
Y1765822D02*
X4472569D01*
X4882018D02*
Y1909745D01*
Y2405713D02*
G03X4882018Y2362505I-509J-21604D01*
Y1952963D02*
G03X4882018Y1909745I-452J-21609D01*
X4472569Y1909431D02*
G03X4472569Y1952606I470J21588D01*
Y2362187D02*
G03X4472569Y2405363I470J21588D01*
G01Y2553224D01*
Y1952606D02*
Y2362187D01*
Y1765822D02*
Y1909431D01*
X4882018Y2553224D02*
X4472569D01*
X5370207Y-1531294D02*
Y-1383784D01*
Y-1984045D02*
Y-1574503D01*
Y-2171186D02*
X4960758D01*
X5370207D02*
Y-2027263D01*
Y-1531294D02*
G03X5370207Y-1574503I-509J-21604D01*
Y-1984045D02*
G03X5370207Y-2027263I-452J-21609D01*
X4960758Y-2027577D02*
G03X4960758Y-1984401I470J21588D01*
Y-1574821D02*
G03X4960758Y-1531645I470J21588D01*
G01Y-1383784D01*
Y-1984401D02*
Y-1574821D01*
Y-2171186D02*
Y-2027577D01*
X5370207Y-1383784D02*
X4960758D01*
X5370207Y-547042D02*
Y-399532D01*
Y-999793D02*
Y-590251D01*
Y-1186934D02*
X4960758D01*
X5370207D02*
Y-1043011D01*
Y-547042D02*
G03X5370207Y-590251I-509J-21604D01*
Y-999793D02*
G03X5370207Y-1043011I-452J-21609D01*
X4960758Y-1043325D02*
G03X4960758Y-1000149I470J21588D01*
Y-590569D02*
G03X4960758Y-547393I470J21588D01*
G01Y-399532D01*
Y-1000149D02*
Y-590569D01*
Y-1186934D02*
Y-1043325D01*
X5370207Y-399532D02*
X4960758D01*
X5370207Y437210D02*
Y584720D01*
Y-15541D02*
Y394001D01*
Y-202682D02*
X4960758D01*
X5370207D02*
Y-58759D01*
Y437210D02*
G03X5370207Y394001I-509J-21604D01*
Y-15541D02*
G03X5370207Y-58759I-452J-21609D01*
X4960758Y-59073D02*
G03X4960758Y-15897I470J21588D01*
Y393683D02*
G03X4960758Y436859I470J21588D01*
G01Y584720D01*
Y-15897D02*
Y393683D01*
Y-202682D02*
Y-59073D01*
X5370207Y584720D02*
X4960758D01*
X5370207Y1421462D02*
Y1568972D01*
Y968711D02*
Y1378253D01*
Y781570D02*
X4960758D01*
X5370207D02*
Y925493D01*
Y1421462D02*
G03X5370207Y1378253I-509J-21604D01*
Y968711D02*
G03X5370207Y925493I-452J-21609D01*
X4960758Y925179D02*
G03X4960758Y968355I470J21588D01*
Y1377935D02*
G03X4960758Y1421111I470J21588D01*
G01Y1568972D01*
Y968355D02*
Y1377935D01*
Y781570D02*
Y925179D01*
X5370207Y1568972D02*
X4960758D01*
X5370207Y2405713D02*
Y2553224D01*
Y1952963D02*
Y2362505D01*
Y1765822D02*
X4960758D01*
X5370207D02*
Y1909745D01*
Y2405713D02*
G03X5370207Y2362505I-509J-21604D01*
Y1952963D02*
G03X5370207Y1909745I-452J-21609D01*
X4960758Y1909431D02*
G03X4960758Y1952606I470J21588D01*
Y2362187D02*
G03X4960758Y2405363I470J21588D01*
G01Y2553224D01*
Y1952606D02*
Y2362187D01*
Y1765822D02*
Y1909431D01*
X5370207Y2553224D02*
X4960758D01*
X5858396Y-1531294D02*
Y-1383784D01*
Y-1984045D02*
Y-1574503D01*
Y-2171186D02*
X5448947D01*
X5858396D02*
Y-2027263D01*
Y-1531294D02*
G03X5858396Y-1574503I-509J-21604D01*
Y-1984045D02*
G03X5858396Y-2027263I-452J-21609D01*
X5448947Y-2027577D02*
G03X5448947Y-1984401I470J21588D01*
Y-1574821D02*
G03X5448947Y-1531645I470J21588D01*
G01Y-1383784D01*
Y-1984401D02*
Y-1574821D01*
Y-2171186D02*
Y-2027577D01*
X5858396Y-1383784D02*
X5448947D01*
X5858396Y-547042D02*
Y-399532D01*
Y-999793D02*
Y-590251D01*
Y-1186934D02*
X5448947D01*
X5858396D02*
Y-1043011D01*
Y-547042D02*
G03X5858396Y-590251I-509J-21604D01*
Y-999793D02*
G03X5858396Y-1043011I-452J-21609D01*
X5448947Y-1043325D02*
G03X5448947Y-1000149I470J21588D01*
Y-590569D02*
G03X5448947Y-547393I470J21588D01*
G01Y-399532D01*
Y-1000149D02*
Y-590569D01*
Y-1186934D02*
Y-1043325D01*
X5858396Y-399532D02*
X5448947D01*
X5858396Y437210D02*
Y584720D01*
Y-15541D02*
Y394001D01*
Y-202682D02*
X5448947D01*
X5858396D02*
Y-58759D01*
Y437210D02*
G03X5858396Y394001I-509J-21604D01*
Y-15541D02*
G03X5858396Y-58759I-452J-21609D01*
X5448947Y-59073D02*
G03X5448947Y-15897I470J21588D01*
Y393683D02*
G03X5448947Y436859I470J21588D01*
G01Y584720D01*
Y-15897D02*
Y393683D01*
Y-202682D02*
Y-59073D01*
X5858396Y584720D02*
X5448947D01*
X5858396Y1421462D02*
Y1568972D01*
Y968711D02*
Y1378253D01*
Y781570D02*
X5448947D01*
X5858396D02*
Y925493D01*
Y1421462D02*
G03X5858396Y1378253I-509J-21604D01*
Y968711D02*
G03X5858396Y925493I-452J-21609D01*
X5448947Y925179D02*
G03X5448947Y968355I470J21588D01*
Y1377935D02*
G03X5448947Y1421111I470J21588D01*
G01Y1568972D01*
Y968355D02*
Y1377935D01*
Y781570D02*
Y925179D01*
X5858396Y1568972D02*
X5448947D01*
X5858396Y2405713D02*
Y2553224D01*
Y1952963D02*
Y2362505D01*
Y1765822D02*
X5448947D01*
X5858396D02*
Y1909745D01*
Y2405713D02*
G03X5858396Y2362505I-509J-21604D01*
Y1952963D02*
G03X5858396Y1909745I-452J-21609D01*
X5448947Y1909431D02*
G03X5448947Y1952606I470J21588D01*
Y2362187D02*
G03X5448947Y2405363I470J21588D01*
G01Y2553224D01*
Y1952606D02*
Y2362187D01*
Y1765822D02*
Y1909431D01*
X5858396Y2553224D02*
X5448947D01*
X6346585Y-1531294D02*
Y-1383784D01*
Y-1984045D02*
Y-1574503D01*
Y-2171186D02*
X5937136D01*
X6346585D02*
Y-2027263D01*
Y-1531294D02*
G03X6346585Y-1574503I-509J-21604D01*
Y-1984045D02*
G03X6346585Y-2027263I-452J-21609D01*
X5937136Y-2027577D02*
G03X5937136Y-1984401I470J21588D01*
Y-1574821D02*
G03X5937136Y-1531645I470J21588D01*
G01Y-1383784D01*
Y-1984401D02*
Y-1574821D01*
Y-2171186D02*
Y-2027577D01*
X6346585Y-1383784D02*
X5937136D01*
X6346585Y-547042D02*
Y-399532D01*
Y-999793D02*
Y-590251D01*
Y-1186934D02*
X5937136D01*
X6346585D02*
Y-1043011D01*
Y-547042D02*
G03X6346585Y-590251I-509J-21604D01*
Y-999793D02*
G03X6346585Y-1043011I-452J-21609D01*
X5937136Y-1043325D02*
G03X5937136Y-1000149I470J21588D01*
Y-590569D02*
G03X5937136Y-547393I470J21588D01*
G01Y-399532D01*
Y-1000149D02*
Y-590569D01*
Y-1186934D02*
Y-1043325D01*
X6346585Y-399532D02*
X5937136D01*
X6346585Y437210D02*
Y584720D01*
Y-15541D02*
Y394001D01*
Y-202682D02*
X5937136D01*
X6346585D02*
Y-58759D01*
Y437210D02*
G03X6346585Y394001I-509J-21604D01*
Y-15541D02*
G03X6346585Y-58759I-452J-21609D01*
X5937136Y-59073D02*
G03X5937136Y-15897I470J21588D01*
Y393683D02*
G03X5937136Y436859I470J21588D01*
G01Y584720D01*
Y-15897D02*
Y393683D01*
Y-202682D02*
Y-59073D01*
X6346585Y584720D02*
X5937136D01*
X6346585Y1421462D02*
Y1568972D01*
Y968711D02*
Y1378253D01*
Y781570D02*
X5937136D01*
X6346585D02*
Y925493D01*
Y1421462D02*
G03X6346585Y1378253I-509J-21604D01*
Y968711D02*
G03X6346585Y925493I-452J-21609D01*
X5937136Y925179D02*
G03X5937136Y968355I470J21588D01*
Y1377935D02*
G03X5937136Y1421111I470J21588D01*
G01Y1568972D01*
Y968355D02*
Y1377935D01*
Y781570D02*
Y925179D01*
X6346585Y1568972D02*
X5937136D01*
X6346585Y2405713D02*
Y2553224D01*
Y1952963D02*
Y2362505D01*
Y1765822D02*
X5937136D01*
X6346585D02*
Y1909745D01*
Y2405713D02*
G03X6346585Y2362505I-509J-21604D01*
Y1952963D02*
G03X6346585Y1909745I-452J-21609D01*
X5937136Y1909431D02*
G03X5937136Y1952606I470J21588D01*
Y2362187D02*
G03X5937136Y2405363I470J21588D01*
G01Y2553224D01*
Y1952606D02*
Y2362187D01*
Y1765822D02*
Y1909431D01*
X6346585Y2553224D02*
X5937136D01*
X6834774Y-1531294D02*
Y-1383784D01*
Y-1984045D02*
Y-1574503D01*
Y-2171186D02*
X6425325D01*
X6834774D02*
Y-2027263D01*
Y-1531294D02*
G03X6834774Y-1574503I-509J-21604D01*
Y-1984045D02*
G03X6834774Y-2027263I-452J-21609D01*
X6425325Y-2027577D02*
G03X6425325Y-1984401I470J21588D01*
Y-1574821D02*
G03X6425325Y-1531645I470J21588D01*
G01Y-1383784D01*
Y-1984401D02*
Y-1574821D01*
Y-2171186D02*
Y-2027577D01*
X6834774Y-1383784D02*
X6425325D01*
X6834774Y-547042D02*
Y-399532D01*
Y-999793D02*
Y-590251D01*
Y-1186934D02*
X6425325D01*
X6834774D02*
Y-1043011D01*
Y-547042D02*
G03X6834774Y-590251I-509J-21604D01*
Y-999793D02*
G03X6834774Y-1043011I-452J-21609D01*
X6425325Y-1043325D02*
G03X6425325Y-1000149I470J21588D01*
Y-590569D02*
G03X6425325Y-547393I470J21588D01*
G01Y-399532D01*
Y-1000149D02*
Y-590569D01*
Y-1186934D02*
Y-1043325D01*
X6834774Y-399532D02*
X6425325D01*
X6834774Y437210D02*
Y584720D01*
Y-15541D02*
Y394001D01*
Y-202682D02*
X6425325D01*
X6834774D02*
Y-58759D01*
Y437210D02*
G03X6834774Y394001I-509J-21604D01*
Y-15541D02*
G03X6834774Y-58759I-452J-21609D01*
X6425325Y-59073D02*
G03X6425325Y-15897I470J21588D01*
Y393683D02*
G03X6425325Y436859I470J21588D01*
G01Y584720D01*
Y-15897D02*
Y393683D01*
Y-202682D02*
Y-59073D01*
X6834774Y584720D02*
X6425325D01*
X6834774Y1421462D02*
Y1568972D01*
Y968711D02*
Y1378253D01*
Y781570D02*
X6425325D01*
X6834774D02*
Y925493D01*
Y1421462D02*
G03X6834774Y1378253I-509J-21604D01*
Y968711D02*
G03X6834774Y925493I-452J-21609D01*
X6425325Y925179D02*
G03X6425325Y968355I470J21588D01*
Y1377935D02*
G03X6425325Y1421111I470J21588D01*
G01Y1568972D01*
Y968355D02*
Y1377935D01*
Y781570D02*
Y925179D01*
X6834774Y1568972D02*
X6425325D01*
X6834774Y2405713D02*
Y2553224D01*
Y1952963D02*
Y2362505D01*
Y1765822D02*
X6425325D01*
X6834774D02*
Y1909745D01*
Y2405713D02*
G03X6834774Y2362505I-509J-21604D01*
Y1952963D02*
G03X6834774Y1909745I-452J-21609D01*
X6425325Y1909431D02*
G03X6425325Y1952606I470J21588D01*
Y2362187D02*
G03X6425325Y2405363I470J21588D01*
G01Y2553224D01*
Y1952606D02*
Y2362187D01*
Y1765822D02*
Y1909431D01*
X6834774Y2553224D02*
X6425325D01*
X7322963Y-1531294D02*
Y-1383784D01*
Y-1984045D02*
Y-1574503D01*
Y-2171186D02*
X6913514D01*
X7322963D02*
Y-2027263D01*
Y-1531294D02*
G03X7322963Y-1574503I-509J-21604D01*
Y-1984045D02*
G03X7322963Y-2027263I-452J-21609D01*
X6913514Y-2027577D02*
G03X6913514Y-1984401I470J21588D01*
Y-1574821D02*
G03X6913514Y-1531645I470J21588D01*
G01Y-1383784D01*
Y-1984401D02*
Y-1574821D01*
Y-2171186D02*
Y-2027577D01*
X7322963Y-1383784D02*
X6913514D01*
X7322963Y-547042D02*
Y-399532D01*
Y-999793D02*
Y-590251D01*
Y-1186934D02*
X6913514D01*
X7322963D02*
Y-1043011D01*
Y-547042D02*
G03X7322963Y-590251I-509J-21604D01*
Y-999793D02*
G03X7322963Y-1043011I-452J-21609D01*
X6913514Y-1043325D02*
G03X6913514Y-1000149I470J21588D01*
Y-590569D02*
G03X6913514Y-547393I470J21588D01*
G01Y-399532D01*
Y-1000149D02*
Y-590569D01*
Y-1186934D02*
Y-1043325D01*
X7322963Y-399532D02*
X6913514D01*
X7322963Y437210D02*
Y584720D01*
Y-15541D02*
Y394001D01*
Y-202682D02*
X6913514D01*
X7322963D02*
Y-58759D01*
Y437210D02*
G03X7322963Y394001I-509J-21604D01*
Y-15541D02*
G03X7322963Y-58759I-452J-21609D01*
X6913514Y-59073D02*
G03X6913514Y-15897I470J21588D01*
Y393683D02*
G03X6913514Y436859I470J21588D01*
G01Y584720D01*
Y-15897D02*
Y393683D01*
Y-202682D02*
Y-59073D01*
X7322963Y584720D02*
X6913514D01*
X7322963Y1421462D02*
Y1568972D01*
Y968711D02*
Y1378253D01*
Y781570D02*
X6913514D01*
X7322963D02*
Y925493D01*
Y1421462D02*
G03X7322963Y1378253I-509J-21604D01*
Y968711D02*
G03X7322963Y925493I-452J-21609D01*
X6913514Y925179D02*
G03X6913514Y968355I470J21588D01*
Y1377935D02*
G03X6913514Y1421111I470J21588D01*
G01Y1568972D01*
Y968355D02*
Y1377935D01*
Y781570D02*
Y925179D01*
X7322963Y1568972D02*
X6913514D01*
X7322963Y2405713D02*
Y2553224D01*
Y1952963D02*
Y2362505D01*
Y1765822D02*
X6913514D01*
X7322963D02*
Y1909745D01*
Y2405713D02*
G03X7322963Y2362505I-509J-21604D01*
Y1952963D02*
G03X7322963Y1909745I-452J-21609D01*
X6913514Y1909431D02*
G03X6913514Y1952606I470J21588D01*
Y2362187D02*
G03X6913514Y2405363I470J21588D01*
G01Y2553224D01*
Y1952606D02*
Y2362187D01*
Y1765822D02*
Y1909431D01*
X7322963Y2553224D02*
X6913514D01*
X7811152Y-1531294D02*
Y-1383784D01*
Y-1984045D02*
Y-1574503D01*
Y-2171186D02*
X7401703D01*
X7811152D02*
Y-2027263D01*
Y-1531294D02*
G03X7811152Y-1574503I-509J-21604D01*
Y-1984045D02*
G03X7811152Y-2027263I-452J-21609D01*
X7401703Y-2027577D02*
G03X7401703Y-1984401I470J21588D01*
Y-1574821D02*
G03X7401703Y-1531645I470J21588D01*
G01Y-1383784D01*
Y-1984401D02*
Y-1574821D01*
Y-2171186D02*
Y-2027577D01*
X7811152Y-1383784D02*
X7401703D01*
X7811152Y-547042D02*
Y-399532D01*
Y-999793D02*
Y-590251D01*
Y-1186934D02*
X7401703D01*
X7811152D02*
Y-1043011D01*
Y-547042D02*
G03X7811152Y-590251I-509J-21604D01*
Y-999793D02*
G03X7811152Y-1043011I-452J-21609D01*
X7401703Y-1043325D02*
G03X7401703Y-1000149I470J21588D01*
Y-590569D02*
G03X7401703Y-547393I470J21588D01*
G01Y-399532D01*
Y-1000149D02*
Y-590569D01*
Y-1186934D02*
Y-1043325D01*
X7811152Y-399532D02*
X7401703D01*
X7811152Y437210D02*
Y584720D01*
Y-15541D02*
Y394001D01*
Y-202682D02*
X7401703D01*
X7811152D02*
Y-58759D01*
Y437210D02*
G03X7811152Y394001I-509J-21604D01*
Y-15541D02*
G03X7811152Y-58759I-452J-21609D01*
X7401703Y-59073D02*
G03X7401703Y-15897I470J21588D01*
Y393683D02*
G03X7401703Y436859I470J21588D01*
G01Y584720D01*
Y-15897D02*
Y393683D01*
Y-202682D02*
Y-59073D01*
X7811152Y584720D02*
X7401703D01*
X7811152Y1421462D02*
Y1568972D01*
Y968711D02*
Y1378253D01*
Y781570D02*
X7401703D01*
X7811152D02*
Y925493D01*
Y1421462D02*
G03X7811152Y1378253I-509J-21604D01*
Y968711D02*
G03X7811152Y925493I-452J-21609D01*
X7401703Y925179D02*
G03X7401703Y968355I470J21588D01*
Y1377935D02*
G03X7401703Y1421111I470J21588D01*
G01Y1568972D01*
Y968355D02*
Y1377935D01*
Y781570D02*
Y925179D01*
X7811152Y1568972D02*
X7401703D01*
X7811152Y2405713D02*
Y2553224D01*
Y1952963D02*
Y2362505D01*
Y1765822D02*
X7401703D01*
X7811152D02*
Y1909745D01*
Y2405713D02*
G03X7811152Y2362505I-509J-21604D01*
Y1952963D02*
G03X7811152Y1909745I-452J-21609D01*
X7401703Y1909431D02*
G03X7401703Y1952606I470J21588D01*
Y2362187D02*
G03X7401703Y2405363I470J21588D01*
G01Y2553224D01*
Y1952606D02*
Y2362187D01*
Y1765822D02*
Y1909431D01*
X7811152Y2553224D02*
X7401703D01*
X8299341Y-1531294D02*
Y-1383784D01*
Y-1984045D02*
Y-1574503D01*
Y-2171186D02*
X7889892D01*
X8299341D02*
Y-2027263D01*
Y-1531294D02*
G03X8299341Y-1574503I-509J-21604D01*
Y-1984045D02*
G03X8299341Y-2027263I-452J-21609D01*
X7889892Y-2027577D02*
G03X7889892Y-1984401I470J21588D01*
Y-1574821D02*
G03X7889892Y-1531645I470J21588D01*
G01Y-1383784D01*
Y-1984401D02*
Y-1574821D01*
Y-2171186D02*
Y-2027577D01*
X8299341Y-1383784D02*
X7889892D01*
X8299341Y-547042D02*
Y-399532D01*
Y-999793D02*
Y-590251D01*
Y-1186934D02*
X7889892D01*
X8299341D02*
Y-1043011D01*
Y-547042D02*
G03X8299341Y-590251I-509J-21604D01*
Y-999793D02*
G03X8299341Y-1043011I-452J-21609D01*
X7889892Y-1043325D02*
G03X7889892Y-1000149I470J21588D01*
Y-590569D02*
G03X7889892Y-547393I470J21588D01*
G01Y-399532D01*
Y-1000149D02*
Y-590569D01*
Y-1186934D02*
Y-1043325D01*
X8299341Y-399532D02*
X7889892D01*
X8299341Y437210D02*
Y584720D01*
Y-15541D02*
Y394001D01*
Y-202682D02*
X7889892D01*
X8299341D02*
Y-58759D01*
Y437210D02*
G03X8299341Y394001I-509J-21604D01*
Y-15541D02*
G03X8299341Y-58759I-452J-21609D01*
X7889892Y-59073D02*
G03X7889892Y-15897I470J21588D01*
Y393683D02*
G03X7889892Y436859I470J21588D01*
G01Y584720D01*
Y-15897D02*
Y393683D01*
Y-202682D02*
Y-59073D01*
X8299341Y584720D02*
X7889892D01*
X8299341Y1421462D02*
Y1568972D01*
Y968711D02*
Y1378253D01*
Y781570D02*
X7889892D01*
X8299341D02*
Y925493D01*
Y1421462D02*
G03X8299341Y1378253I-509J-21604D01*
Y968711D02*
G03X8299341Y925493I-452J-21609D01*
X7889892Y925179D02*
G03X7889892Y968355I470J21588D01*
Y1377935D02*
G03X7889892Y1421111I470J21588D01*
G01Y1568972D01*
Y968355D02*
Y1377935D01*
Y781570D02*
Y925179D01*
X8299341Y1568972D02*
X7889892D01*
X8299341Y2405713D02*
Y2553224D01*
Y1952963D02*
Y2362505D01*
Y1765822D02*
X7889892D01*
X8299341D02*
Y1909745D01*
Y2405713D02*
G03X8299341Y2362505I-509J-21604D01*
Y1952963D02*
G03X8299341Y1909745I-452J-21609D01*
X7889892Y1909431D02*
G03X7889892Y1952606I470J21588D01*
Y2362187D02*
G03X7889892Y2405363I470J21588D01*
G01Y2553224D01*
Y1952606D02*
Y2362187D01*
Y1765822D02*
Y1909431D01*
X8299341Y2553224D02*
X7889892D01*
X4074929Y2789444D02*
X4074929Y-2407406D01*
X4153670Y-2486146D02*
X8618237D01*
X4153670Y2868184D02*
X8618237D01*
X8696977Y-2407406D02*
Y2789444D01*
X4153670Y-2486146D02*
G02X4074929Y-2407406I-0J78740D01*
X4074929Y2789444D02*
G02X4153670Y2868184I78740J0D01*
X8618237D02*
G02X8696977Y2789444I0J-78740D01*
X8618237Y-2486146D02*
G03X8696977Y-2407406I0J78740D01*
X4393788Y-2249926D02*
G01Y2631964D01*
Y-2249926D02*
X8378119D01*
Y2631964D01*
Y2631964D02*
X4393788D01*
X4393791Y2086914D02*
X4472569D01*
X4393791Y2323134D02*
X4472569D01*
X4881980Y2086914D02*
X4960758D01*
X4881980Y2323134D02*
X4960758D01*
X4645285Y1568972D02*
Y1763577D01*
X4802765D02*
Y1568972D01*
X4645285Y2553224D02*
Y2631964D01*
X4802765D02*
Y2553224D01*
X5370169Y2086914D02*
X5448947D01*
X5370169Y2323134D02*
X5448947D01*
X5133474Y1568972D02*
Y1763577D01*
X5290954D02*
Y1568972D01*
X5133474Y2553224D02*
Y2631964D01*
X5290954D02*
Y2553224D01*
X5858358Y2086914D02*
X5937136D01*
X5858358Y2323134D02*
X5937136D01*
X5621663Y1568972D02*
Y1763577D01*
X5779143D02*
Y1568972D01*
X5621663Y2553224D02*
Y2631964D01*
X5779143D02*
Y2553224D01*
X6346547Y2086914D02*
X6425325D01*
X6346547Y2323134D02*
X6425325D01*
X6109852Y1568972D02*
Y1763577D01*
X6267332D02*
Y1568972D01*
X6109852Y2553224D02*
Y2631964D01*
X6267332D02*
Y2553224D01*
X6834736Y2086914D02*
X6913514D01*
X6834736Y2323134D02*
X6913514D01*
X6598041Y1568972D02*
Y1763577D01*
X6755521D02*
Y1568972D01*
X6598041Y2553224D02*
Y2631964D01*
X6755521D02*
Y2553224D01*
X7322925Y2086914D02*
X7401703D01*
X7322925Y2323134D02*
X7401703D01*
X7086230Y1568972D02*
Y1763577D01*
X7243710D02*
Y1568972D01*
X7086230Y2553224D02*
Y2631964D01*
X7243710D02*
Y2553224D01*
X7811114Y2086914D02*
X7889892D01*
X7811114Y2323134D02*
X7889892D01*
X7574419Y1568972D02*
Y1763577D01*
X7731899D02*
Y1568972D01*
X7574419Y2553224D02*
Y2631964D01*
X7731899D02*
Y2553224D01*
X8299303Y2086914D02*
X8378081D01*
X8299303Y2323134D02*
X8378081D01*
X8062608Y1568972D02*
Y1763577D01*
X8220088D02*
Y1568972D01*
X8062608Y2553224D02*
Y2631964D01*
X8220088D02*
Y2553224D01*
X4393791Y1102662D02*
X4472569D01*
X4393791Y1338882D02*
X4472569D01*
X4881980Y1102662D02*
X4960758D01*
X4881980Y1338882D02*
X4960758D01*
X4645285Y584720D02*
Y779325D01*
X4802765D02*
Y584720D01*
X5370169Y1102662D02*
X5448947D01*
X5370169Y1338882D02*
X5448947D01*
X5133474Y584720D02*
Y779325D01*
X5290954D02*
Y584720D01*
X5858358Y1102662D02*
X5937136D01*
X5858358Y1338882D02*
X5937136D01*
X5621663Y584720D02*
Y779325D01*
X5779143D02*
Y584720D01*
X6346547Y1102662D02*
X6425325D01*
X6346547Y1338882D02*
X6425325D01*
X6109852Y584720D02*
Y779325D01*
X6267332D02*
Y584720D01*
X6834736Y1102662D02*
X6913514D01*
X6834736Y1338882D02*
X6913514D01*
X6598041Y584720D02*
Y779325D01*
X6755521D02*
Y584720D01*
X7322925Y1102662D02*
X7401703D01*
X7322925Y1338882D02*
X7401703D01*
X7086230Y584720D02*
Y779325D01*
X7243710D02*
Y584720D01*
X7811114Y1102662D02*
X7889892D01*
X7811114Y1338882D02*
X7889892D01*
X7574419Y584720D02*
Y779325D01*
X7731899D02*
Y584720D01*
X8299303Y1102662D02*
X8378081D01*
X8299303Y1338882D02*
X8378081D01*
X8062608Y584720D02*
Y779325D01*
X8220088D02*
Y584720D01*
X4393791Y118410D02*
X4472569D01*
X4393791Y354630D02*
X4472569D01*
X4881980Y118410D02*
X4960758D01*
X4881980Y354630D02*
X4960758D01*
X4645285Y-399532D02*
Y-204927D01*
X4802765D02*
Y-399532D01*
X5370169Y118410D02*
X5448947D01*
X5370169Y354630D02*
X5448947D01*
X5133474Y-399532D02*
Y-204927D01*
X5290954D02*
Y-399532D01*
X5858358Y118410D02*
X5937136D01*
X5858358Y354630D02*
X5937136D01*
X5621663Y-399532D02*
Y-204927D01*
X5779143D02*
Y-399532D01*
X6346547Y118410D02*
X6425325D01*
X6346547Y354630D02*
X6425325D01*
X6109852Y-399532D02*
Y-204927D01*
X6267332D02*
Y-399532D01*
X6834736Y118410D02*
X6913514D01*
X6834736Y354630D02*
X6913514D01*
X6598041Y-399532D02*
Y-204927D01*
X6755521D02*
Y-399532D01*
X7322925Y118410D02*
X7401703D01*
X7322925Y354630D02*
X7401703D01*
X7086230Y-399532D02*
Y-204927D01*
X7243710D02*
Y-399532D01*
X7811114Y118410D02*
X7889892D01*
X7811114Y354630D02*
X7889892D01*
X7574419Y-399532D02*
Y-204927D01*
X7731899D02*
Y-399532D01*
X8299303Y118410D02*
X8378081D01*
X8299303Y354630D02*
X8378081D01*
X8062608Y-399532D02*
Y-204927D01*
X8220088D02*
Y-399532D01*
X4393791Y-865842D02*
X4472569D01*
X4393791Y-629622D02*
X4472569D01*
X4881980Y-865842D02*
X4960758D01*
X4881980Y-629622D02*
X4960758D01*
X4645285Y-1383784D02*
Y-1189179D01*
X4802765D02*
Y-1383784D01*
X5370169Y-865842D02*
X5448947D01*
X5370169Y-629622D02*
X5448947D01*
X5133474Y-1383784D02*
Y-1189179D01*
X5290954D02*
Y-1383784D01*
X5858358Y-865842D02*
X5937136D01*
X5858358Y-629622D02*
X5937136D01*
X5621663Y-1383784D02*
Y-1189179D01*
X5779143D02*
Y-1383784D01*
X6346547Y-865842D02*
X6425325D01*
X6346547Y-629622D02*
X6425325D01*
X6109852Y-1383784D02*
Y-1189179D01*
X6267332D02*
Y-1383784D01*
X6834736Y-865842D02*
X6913514D01*
X6834736Y-629622D02*
X6913514D01*
X6598041Y-1383784D02*
Y-1189179D01*
X6755521D02*
Y-1383784D01*
X7322925Y-865842D02*
X7401703D01*
X7322925Y-629622D02*
X7401703D01*
X7086230Y-1383784D02*
Y-1189179D01*
X7243710D02*
Y-1383784D01*
X7811114Y-865842D02*
X7889892D01*
X7811114Y-629622D02*
X7889892D01*
X7574419Y-1383784D02*
Y-1189179D01*
X7731899D02*
Y-1383784D01*
X8299303Y-865842D02*
X8378081D01*
X8299303Y-629622D02*
X8378081D01*
X8062608Y-1383784D02*
Y-1189179D01*
X8220088D02*
Y-1383784D01*
X4393791Y-1850094D02*
X4472569D01*
X4393791Y-1613874D02*
X4472569D01*
X4881980Y-1850094D02*
X4960758D01*
X4881980Y-1613874D02*
X4960758D01*
X4645285Y-2249926D02*
Y-2173431D01*
X4802765D02*
Y-2249926D01*
X5370169Y-1850094D02*
X5448947D01*
X5370169Y-1613874D02*
X5448947D01*
X5133474Y-2249926D02*
Y-2173431D01*
X5290954D02*
Y-2249926D01*
X5858358Y-1850094D02*
X5937136D01*
X5858358Y-1613874D02*
X5937136D01*
X5621663Y-2249926D02*
Y-2173431D01*
X5779143D02*
Y-2249926D01*
X6346547Y-1850094D02*
X6425325D01*
X6346547Y-1613874D02*
X6425325D01*
X6109852Y-2249926D02*
Y-2173431D01*
X6267332D02*
Y-2249926D01*
X6834736Y-1850094D02*
X6913514D01*
X6834736Y-1613874D02*
X6913514D01*
X6598041Y-2249926D02*
Y-2173431D01*
X6755521D02*
Y-2249926D01*
X7322925Y-1850094D02*
X7401703D01*
X7322925Y-1613874D02*
X7401703D01*
X7086230Y-2249926D02*
Y-2173431D01*
X7243710D02*
Y-2249926D01*
X7811114Y-1850094D02*
X7889892D01*
X7811114Y-1613874D02*
X7889892D01*
X7574419Y-2249926D02*
Y-2173431D01*
X7731899D02*
Y-2249926D01*
X8299303Y-1850094D02*
X8378081D01*
X8299303Y-1613874D02*
X8378081D01*
X8062608Y-2249926D02*
Y-2173431D01*
X8220088D02*
Y-2249926D01*
G54D35*
X4433158Y1378252D03*
X4842135Y1726452D03*
X4433158Y2592594D03*
X4842135D03*
X8259458Y2592594D03*
X8338749Y2047544D03*
Y-1889464D03*
X5094104Y-2210556D03*
X4605915D03*
X5330324Y1726452D03*
Y2592594D03*
X5818513Y1726452D03*
Y2592594D03*
X6306702Y1726452D03*
Y2592594D03*
X6794891Y1726452D03*
Y2592594D03*
X7283080Y1726452D03*
Y2592594D03*
X7771269Y1726452D03*
Y2592594D03*
X4433158Y394000D03*
X4842135Y742200D03*
X8338749Y1063292D03*
X5330324Y742200D03*
X5818513D03*
X6306702D03*
X6794891D03*
X7283080D03*
X7771269D03*
X4433158Y-590252D03*
X4842135Y-242052D03*
X8338749Y79040D03*
X5330324Y-242052D03*
X5818513D03*
X6306702D03*
X6794891D03*
X7283080D03*
X7771269D03*
X4433158Y-1574504D03*
X4842135Y-1226304D03*
X8338749Y-905212D03*
X5330324Y-1226304D03*
X5818513D03*
X6306702D03*
X6794891D03*
X7283080D03*
X7771269D03*
X5582293Y-2210556D03*
X6070482D03*
X6558671D03*
X7046860D03*
X7535049D03*
X8023238D03*
G54D36*
X8578867Y-1895595D03*
G54D37*
X8577641Y-2351105D02*
Y-2270396D01*
G54D36*
X8578867Y2277632D03*
X4193021Y2277175D03*
X4193040Y-1501894D03*
G54D38*
X8539497Y-1698744D03*
Y2080782D03*
X4232410Y-1305043D03*
G54D39*
X5875644Y2751723D03*
X5998367D03*
%LPC*%
G75*
X5998367Y2751723D02*
G54D40*
X4511192Y-1702509D02*
X4534936D01*
G54D34*
X4753513Y-1566041D02*
Y-1550373D01*
G54D40*
X4511169Y-1703204D02*
X4501734Y-1700611D01*
X4759302Y-1497052D02*
X4793790D01*
X4794912Y-1497032D02*
X4829361D01*
X4795128Y-1426934D02*
Y-1461816D01*
X4753599Y-1578574D02*
Y-1535876D01*
X4511192Y-718257D02*
X4534936D01*
G54D34*
X4753513Y-581789D02*
Y-566121D01*
G54D40*
X4511169Y-718952D02*
X4501734Y-716359D01*
X4759302Y-512800D02*
X4793790D01*
X4794912Y-512780D02*
X4829361D01*
X4795128Y-442682D02*
Y-477564D01*
X4753599Y-594322D02*
Y-551624D01*
X4511192Y265995D02*
X4534936D01*
G54D34*
X4753513Y402463D02*
Y418131D01*
G54D40*
X4511169Y265300D02*
X4501734Y267893D01*
X4759302Y471452D02*
X4793790D01*
X4794912Y471472D02*
X4829361D01*
X4795128Y541570D02*
Y506688D01*
X4753599Y389930D02*
Y432628D01*
X4511192Y1250247D02*
X4534936D01*
G54D34*
X4753513Y1386715D02*
Y1402382D01*
G54D40*
X4511169Y1249552D02*
X4501734Y1252145D01*
X4759302Y1455704D02*
X4793790D01*
X4794912Y1455724D02*
X4829361D01*
X4795128Y1525822D02*
Y1490940D01*
X4753599Y1374182D02*
Y1416880D01*
X4511192Y2234499D02*
X4534936D01*
G54D34*
X4753513Y2370967D02*
Y2386634D01*
G54D40*
X4511169Y2233804D02*
X4501734Y2236397D01*
X4759302Y2439956D02*
X4793790D01*
X4794912Y2439976D02*
X4829361D01*
X4795128Y2510074D02*
Y2475192D01*
X4753599Y2358434D02*
Y2401132D01*
X4999381Y-1702509D02*
X5023125D01*
G54D34*
X5241701Y-1566041D02*
Y-1550373D01*
G54D40*
X4999358Y-1703204D02*
X4989923Y-1700611D01*
X5247491Y-1497052D02*
X5281979D01*
X5283101Y-1497032D02*
X5317550D01*
X5283317Y-1426934D02*
Y-1461816D01*
X5241788Y-1578574D02*
Y-1535876D01*
X4999381Y-718257D02*
X5023125D01*
G54D34*
X5241701Y-581789D02*
Y-566121D01*
G54D40*
X4999358Y-718952D02*
X4989923Y-716359D01*
X5247491Y-512800D02*
X5281979D01*
X5283101Y-512780D02*
X5317550D01*
X5283317Y-442682D02*
Y-477564D01*
X5241788Y-594322D02*
Y-551624D01*
X4999381Y265995D02*
X5023125D01*
G54D34*
X5241701Y402463D02*
Y418131D01*
G54D40*
X4999358Y265300D02*
X4989923Y267893D01*
X5247491Y471452D02*
X5281979D01*
X5283101Y471472D02*
X5317550D01*
X5283317Y541570D02*
Y506688D01*
X5241788Y389930D02*
Y432628D01*
X4999381Y1250247D02*
X5023125D01*
G54D34*
X5241701Y1386715D02*
Y1402382D01*
G54D40*
X4999358Y1249552D02*
X4989923Y1252145D01*
X5247491Y1455704D02*
X5281979D01*
X5283101Y1455724D02*
X5317550D01*
X5283317Y1525822D02*
Y1490940D01*
X5241788Y1374182D02*
Y1416880D01*
X4999381Y2234499D02*
X5023125D01*
G54D34*
X5241701Y2370967D02*
Y2386634D01*
G54D40*
X4999358Y2233804D02*
X4989923Y2236397D01*
X5247491Y2439956D02*
X5281979D01*
X5283101Y2439976D02*
X5317550D01*
X5283317Y2510074D02*
Y2475192D01*
X5241788Y2358434D02*
Y2401132D01*
X5487570Y-1702509D02*
X5511314D01*
G54D34*
X5729890Y-1566041D02*
Y-1550373D01*
G54D40*
X5487547Y-1703204D02*
X5478112Y-1700611D01*
X5735680Y-1497052D02*
X5770168D01*
X5771290Y-1497032D02*
X5805739D01*
X5771506Y-1426934D02*
Y-1461816D01*
X5729977Y-1578574D02*
Y-1535876D01*
X5487570Y-718257D02*
X5511314D01*
G54D34*
X5729890Y-581789D02*
Y-566121D01*
G54D40*
X5487547Y-718952D02*
X5478112Y-716359D01*
X5735680Y-512800D02*
X5770168D01*
X5771290Y-512780D02*
X5805739D01*
X5771506Y-442682D02*
Y-477564D01*
X5729977Y-594322D02*
Y-551624D01*
X5487570Y265995D02*
X5511314D01*
G54D34*
X5729890Y402463D02*
Y418131D01*
G54D40*
X5487547Y265300D02*
X5478112Y267893D01*
X5735680Y471452D02*
X5770168D01*
X5771290Y471472D02*
X5805739D01*
X5771506Y541570D02*
Y506688D01*
X5729977Y389930D02*
Y432628D01*
X5487570Y1250247D02*
X5511314D01*
G54D34*
X5729890Y1386715D02*
Y1402382D01*
G54D40*
X5487547Y1249552D02*
X5478112Y1252145D01*
X5735680Y1455704D02*
X5770168D01*
X5771290Y1455724D02*
X5805739D01*
X5771506Y1525822D02*
Y1490940D01*
X5729977Y1374182D02*
Y1416880D01*
X5487570Y2234499D02*
X5511314D01*
G54D34*
X5729890Y2370967D02*
Y2386634D01*
G54D40*
X5487547Y2233804D02*
X5478112Y2236397D01*
X5735680Y2439956D02*
X5770168D01*
X5771290Y2439976D02*
X5805739D01*
X5771506Y2510074D02*
Y2475192D01*
X5729977Y2358434D02*
Y2401132D01*
X5975759Y-1702509D02*
X5999503D01*
G54D34*
X6218079Y-1566041D02*
Y-1550373D01*
G54D40*
X5975736Y-1703204D02*
X5966301Y-1700611D01*
X6223869Y-1497052D02*
X6258357D01*
X6259479Y-1497032D02*
X6293928D01*
X6259695Y-1426934D02*
Y-1461816D01*
X6218166Y-1578574D02*
Y-1535876D01*
X5975759Y-718257D02*
X5999503D01*
G54D34*
X6218079Y-581789D02*
Y-566121D01*
G54D40*
X5975736Y-718952D02*
X5966301Y-716359D01*
X6223869Y-512800D02*
X6258357D01*
X6259479Y-512780D02*
X6293928D01*
X6259695Y-442682D02*
Y-477564D01*
X6218166Y-594322D02*
Y-551624D01*
X5975759Y265995D02*
X5999503D01*
G54D34*
X6218079Y402463D02*
Y418131D01*
G54D40*
X5975736Y265300D02*
X5966301Y267893D01*
X6223869Y471452D02*
X6258357D01*
X6259479Y471472D02*
X6293928D01*
X6259695Y541570D02*
Y506688D01*
X6218166Y389930D02*
Y432628D01*
X5975759Y1250247D02*
X5999503D01*
G54D34*
X6218079Y1386715D02*
Y1402382D01*
G54D40*
X5975736Y1249552D02*
X5966301Y1252145D01*
X6223869Y1455704D02*
X6258357D01*
X6259479Y1455724D02*
X6293928D01*
X6259695Y1525822D02*
Y1490940D01*
X6218166Y1374182D02*
Y1416880D01*
X5975759Y2234499D02*
X5999503D01*
G54D34*
X6218079Y2370967D02*
Y2386634D01*
G54D40*
X5975736Y2233804D02*
X5966301Y2236397D01*
X6223869Y2439956D02*
X6258357D01*
X6259479Y2439976D02*
X6293928D01*
X6259695Y2510074D02*
Y2475192D01*
X6218166Y2358434D02*
Y2401132D01*
X6463948Y-1702509D02*
X6487692D01*
G54D34*
X6706268Y-1566041D02*
Y-1550373D01*
G54D40*
X6463925Y-1703204D02*
X6454490Y-1700611D01*
X6712058Y-1497052D02*
X6746546D01*
X6747668Y-1497032D02*
X6782117D01*
X6747884Y-1426934D02*
Y-1461816D01*
X6706355Y-1578574D02*
Y-1535876D01*
X6463948Y-718257D02*
X6487692D01*
G54D34*
X6706268Y-581789D02*
Y-566121D01*
G54D40*
X6463925Y-718952D02*
X6454490Y-716359D01*
X6712058Y-512800D02*
X6746546D01*
X6747668Y-512780D02*
X6782117D01*
X6747884Y-442682D02*
Y-477564D01*
X6706355Y-594322D02*
Y-551624D01*
X6463948Y265995D02*
X6487692D01*
G54D34*
X6706268Y402463D02*
Y418131D01*
G54D40*
X6463925Y265300D02*
X6454490Y267893D01*
X6712058Y471452D02*
X6746546D01*
X6747668Y471472D02*
X6782117D01*
X6747884Y541570D02*
Y506688D01*
X6706355Y389930D02*
Y432628D01*
X6463948Y1250247D02*
X6487692D01*
G54D34*
X6706268Y1386715D02*
Y1402382D01*
G54D40*
X6463925Y1249552D02*
X6454490Y1252145D01*
X6712058Y1455704D02*
X6746546D01*
X6747668Y1455724D02*
X6782117D01*
X6747884Y1525822D02*
Y1490940D01*
X6706355Y1374182D02*
Y1416880D01*
X6463948Y2234499D02*
X6487692D01*
G54D34*
X6706268Y2370967D02*
Y2386634D01*
G54D40*
X6463925Y2233804D02*
X6454490Y2236397D01*
X6712058Y2439956D02*
X6746546D01*
X6747668Y2439976D02*
X6782117D01*
X6747884Y2510074D02*
Y2475192D01*
X6706355Y2358434D02*
Y2401132D01*
X6952137Y-1702509D02*
X6975881D01*
G54D34*
X7194457Y-1566041D02*
Y-1550373D01*
G54D40*
X6952113Y-1703204D02*
X6942679Y-1700611D01*
X7200247Y-1497052D02*
X7234735D01*
X7235857Y-1497032D02*
X7270306D01*
X7236073Y-1426934D02*
Y-1461816D01*
X7194544Y-1578574D02*
Y-1535876D01*
X6952137Y-718257D02*
X6975881D01*
G54D34*
X7194457Y-581789D02*
Y-566121D01*
G54D40*
X6952113Y-718952D02*
X6942679Y-716359D01*
X7200247Y-512800D02*
X7234735D01*
X7235857Y-512780D02*
X7270306D01*
X7236073Y-442682D02*
Y-477564D01*
X7194544Y-594322D02*
Y-551624D01*
X6952137Y265995D02*
X6975881D01*
G54D34*
X7194457Y402463D02*
Y418131D01*
G54D40*
X6952113Y265300D02*
X6942679Y267893D01*
X7200247Y471452D02*
X7234735D01*
X7235857Y471472D02*
X7270306D01*
X7236073Y541570D02*
Y506688D01*
X7194544Y389930D02*
Y432628D01*
X6952137Y1250247D02*
X6975881D01*
G54D34*
X7194457Y1386715D02*
Y1402382D01*
G54D40*
X6952113Y1249552D02*
X6942679Y1252145D01*
X7200247Y1455704D02*
X7234735D01*
X7235857Y1455724D02*
X7270306D01*
X7236073Y1525822D02*
Y1490940D01*
X7194544Y1374182D02*
Y1416880D01*
X6952137Y2234499D02*
X6975881D01*
G54D34*
X7194457Y2370967D02*
Y2386634D01*
G54D40*
X6952113Y2233804D02*
X6942679Y2236397D01*
X7200247Y2439956D02*
X7234735D01*
X7235857Y2439976D02*
X7270306D01*
X7236073Y2510074D02*
Y2475192D01*
X7194544Y2358434D02*
Y2401132D01*
X7440325Y-1702509D02*
X7464070D01*
G54D34*
X7682646Y-1566041D02*
Y-1550373D01*
G54D40*
X7440302Y-1703204D02*
X7430868Y-1700611D01*
X7688436Y-1497052D02*
X7722924D01*
X7724046Y-1497032D02*
X7758495D01*
X7724262Y-1426934D02*
Y-1461816D01*
X7682733Y-1578574D02*
Y-1535876D01*
X7440325Y-718257D02*
X7464070D01*
G54D34*
X7682646Y-581789D02*
Y-566121D01*
G54D40*
X7440302Y-718952D02*
X7430868Y-716359D01*
X7688436Y-512800D02*
X7722924D01*
X7724046Y-512780D02*
X7758495D01*
X7724262Y-442682D02*
Y-477564D01*
X7682733Y-594322D02*
Y-551624D01*
X7440325Y265995D02*
X7464070D01*
G54D34*
X7682646Y402463D02*
Y418131D01*
G54D40*
X7440302Y265300D02*
X7430868Y267893D01*
X7688436Y471452D02*
X7722924D01*
X7724046Y471472D02*
X7758495D01*
X7724262Y541570D02*
Y506688D01*
X7682733Y389930D02*
Y432628D01*
X7440325Y1250247D02*
X7464070D01*
G54D34*
X7682646Y1386715D02*
Y1402382D01*
G54D40*
X7440302Y1249552D02*
X7430868Y1252145D01*
X7688436Y1455704D02*
X7722924D01*
X7724046Y1455724D02*
X7758495D01*
X7724262Y1525822D02*
Y1490940D01*
X7682733Y1374182D02*
Y1416880D01*
X7440325Y2234499D02*
X7464070D01*
G54D34*
X7682646Y2370967D02*
Y2386634D01*
G54D40*
X7440302Y2233804D02*
X7430868Y2236397D01*
X7688436Y2439956D02*
X7722924D01*
X7724046Y2439976D02*
X7758495D01*
X7724262Y2510074D02*
Y2475192D01*
X7682733Y2358434D02*
Y2401132D01*
X7928514Y-1702509D02*
X7952259D01*
G54D34*
X8170835Y-1566041D02*
Y-1550373D01*
G54D40*
X7928491Y-1703204D02*
X7919057Y-1700611D01*
X8176625Y-1497052D02*
X8211113D01*
X8212235Y-1497032D02*
X8246684D01*
X8212451Y-1426934D02*
Y-1461816D01*
X8170922Y-1578574D02*
Y-1535876D01*
X7928514Y-718257D02*
X7952259D01*
G54D34*
X8170835Y-581789D02*
Y-566121D01*
G54D40*
X7928491Y-718952D02*
X7919057Y-716359D01*
X8176625Y-512800D02*
X8211113D01*
X8212235Y-512780D02*
X8246684D01*
X8212451Y-442682D02*
Y-477564D01*
X8170922Y-594322D02*
Y-551624D01*
X7928514Y265995D02*
X7952259D01*
G54D34*
X8170835Y402463D02*
Y418131D01*
G54D40*
X7928491Y265300D02*
X7919057Y267893D01*
X8176625Y471452D02*
X8211113D01*
X8212235Y471472D02*
X8246684D01*
X8212451Y541570D02*
Y506688D01*
X8170922Y389930D02*
Y432628D01*
X7928514Y1250247D02*
X7952259D01*
G54D34*
X8170835Y1386715D02*
Y1402382D01*
G54D40*
X7928491Y1249552D02*
X7919057Y1252145D01*
X8176625Y1455704D02*
X8211113D01*
X8212235Y1455724D02*
X8246684D01*
X8212451Y1525822D02*
Y1490940D01*
X8170922Y1374182D02*
Y1416880D01*
X7928514Y2234499D02*
X7952259D01*
G54D34*
X8170835Y2370967D02*
Y2386634D01*
G54D40*
X7928491Y2233804D02*
X7919057Y2236397D01*
X8176625Y2439956D02*
X8211113D01*
X8212235Y2439976D02*
X8246684D01*
X8212451Y2510074D02*
Y2475192D01*
X8170922Y2358434D02*
Y2401132D01*
M02*
