*
%FSLAX26Y26*%
%MOIN*%
%ADD10C,0.015748*%
%ADD11C,0.062992*%
%ADD12C,0.078740*%
%ADD13C,0.078819*%
%IPPOS*%
%LNset63.drill.out*%
%LPD*%
G75*
G54D10*
X4825916Y-2140194D03*
G54D10*
X4800325D03*
G54D10*
X4851459Y-1694375D03*
G54D10*
X4851617Y-1596028D03*
G54D10*
Y-1511264D03*
G54D10*
X4812136Y-1514257D03*
G54D10*
Y-1479808D03*
G54D10*
X4776546D03*
G54D10*
Y-1514296D03*
G54D10*
X4771231Y-1558548D03*
G54D10*
X4777688Y-1444375D03*
G54D10*
X4812569D03*
G54D10*
X4850475Y-1415564D03*
G54D10*
X4659577Y-1413595D03*
G54D10*
X4564774Y-1413201D03*
G54D10*
X4563121Y-1473902D03*
G54D10*
X4557530Y-1547170D03*
G54D10*
X4570995Y-1586973D03*
G54D10*
X4554341Y-1720950D03*
G54D10*
X4525719Y-1718981D03*
G54D10*
X4502105D03*
G54D10*
X4573239Y-1740201D03*
G54D10*
X4644813Y-1680595D03*
G54D10*
X4502034Y-1492603D03*
G54D10*
X4504034Y-1414894D03*
G54D10*
X4502144Y-2048705D03*
G54D10*
Y-2140753D03*
G54D10*
X4528672Y-2141225D03*
G54D10*
X4553278D03*
G54D10*
X4620207Y-2142209D03*
G54D10*
X4644577D03*
G54D10*
X4709223Y-2141934D03*
G54D10*
X4735168D03*
G54D10*
X4825916Y-1155942D03*
G54D10*
X4800325D03*
G54D10*
X4851459Y-710123D03*
G54D10*
X4851617Y-611776D03*
G54D10*
Y-527013D03*
G54D10*
X4812136Y-530005D03*
G54D10*
Y-495556D03*
G54D10*
X4776546D03*
G54D10*
Y-530044D03*
G54D10*
X4771231Y-574296D03*
G54D10*
X4777688Y-460123D03*
G54D10*
X4812569D03*
G54D10*
X4850475Y-431312D03*
G54D10*
X4659577Y-429343D03*
G54D10*
X4564774Y-428950D03*
G54D10*
X4563121Y-489650D03*
G54D10*
X4557530Y-562918D03*
G54D10*
X4570995Y-602721D03*
G54D10*
X4554341Y-736698D03*
G54D10*
X4525719Y-734729D03*
G54D10*
X4502105D03*
G54D10*
X4573239Y-755950D03*
G54D10*
X4644813Y-696343D03*
G54D10*
X4502034Y-508351D03*
G54D10*
X4504034Y-430642D03*
G54D10*
X4502144Y-1064453D03*
G54D10*
Y-1156501D03*
G54D10*
X4528672Y-1156973D03*
G54D10*
X4553278D03*
G54D10*
X4620207Y-1157957D03*
G54D10*
X4644577D03*
G54D10*
X4709223Y-1157682D03*
G54D10*
X4735168D03*
G54D10*
X4825916Y-171690D03*
G54D10*
X4800325D03*
G54D10*
X4851459Y274129D03*
G54D10*
X4851617Y372476D03*
G54D10*
Y457239D03*
G54D10*
X4812136Y454247D03*
G54D10*
Y488696D03*
G54D10*
X4776546D03*
G54D10*
Y454208D03*
G54D10*
X4771231Y409956D03*
G54D10*
X4777688Y524129D03*
G54D10*
X4812569D03*
G54D10*
X4850475Y552940D03*
G54D10*
X4659577Y554909D03*
G54D10*
X4564774Y555302D03*
G54D10*
X4563121Y494602D03*
G54D10*
X4557530Y421334D03*
G54D10*
X4570995Y381531D03*
G54D10*
X4554341Y247554D03*
G54D10*
X4525719Y249523D03*
G54D10*
X4502105D03*
G54D10*
X4573239Y228302D03*
G54D10*
X4644813Y287909D03*
G54D10*
X4502034Y475901D03*
G54D10*
X4504034Y553610D03*
G54D10*
X4502144Y-80201D03*
G54D10*
Y-172249D03*
G54D10*
X4528672Y-172721D03*
G54D10*
X4553278D03*
G54D10*
X4620207Y-173705D03*
G54D10*
X4644577D03*
G54D10*
X4709223Y-173430D03*
G54D10*
X4735168D03*
G54D10*
X4825916Y812562D03*
G54D10*
X4800325D03*
G54D10*
X4851459Y1258381D03*
G54D10*
X4851617Y1356728D03*
G54D10*
Y1441491D03*
G54D10*
X4812136Y1438499D03*
G54D10*
Y1472948D03*
G54D10*
X4776546D03*
G54D10*
Y1438460D03*
G54D10*
X4771231Y1394208D03*
G54D10*
X4777688Y1508381D03*
G54D10*
X4812569D03*
G54D10*
X4850475Y1537192D03*
G54D10*
X4659577Y1539161D03*
G54D10*
X4564774Y1539554D03*
G54D10*
X4563121Y1478854D03*
G54D10*
X4557530Y1405586D03*
G54D10*
X4570995Y1365783D03*
G54D10*
X4554341Y1231806D03*
G54D10*
X4525719Y1233775D03*
G54D10*
X4502105D03*
G54D10*
X4573239Y1212554D03*
G54D10*
X4644813Y1272161D03*
G54D10*
X4502034Y1460153D03*
G54D10*
X4504034Y1537862D03*
G54D10*
X4502144Y904050D03*
G54D10*
Y812003D03*
G54D10*
X4528672Y811531D03*
G54D10*
X4553278D03*
G54D10*
X4620207Y810547D03*
G54D10*
X4644577D03*
G54D10*
X4709223Y810822D03*
G54D10*
X4735168D03*
G54D10*
X4825916Y1796814D03*
G54D10*
X4800325D03*
G54D10*
X4851459Y2242633D03*
G54D10*
X4851617Y2340980D03*
G54D10*
Y2425743D03*
G54D10*
X4812136Y2422751D03*
G54D10*
Y2457200D03*
G54D10*
X4776546D03*
G54D10*
Y2422712D03*
G54D10*
X4771231Y2378460D03*
G54D10*
X4777688Y2492633D03*
G54D10*
X4812569D03*
G54D10*
X4850475Y2521444D03*
G54D10*
X4659577Y2523413D03*
G54D10*
X4564774Y2523806D03*
G54D10*
X4563121Y2463106D03*
G54D10*
X4557530Y2389838D03*
G54D10*
X4570995Y2350035D03*
G54D10*
X4554341Y2216058D03*
G54D10*
X4525719Y2218027D03*
G54D10*
X4502105D03*
G54D10*
X4573239Y2196806D03*
G54D10*
X4644813Y2256413D03*
G54D10*
X4502034Y2444405D03*
G54D10*
X4504034Y2522113D03*
G54D10*
X4502144Y1888302D03*
G54D10*
Y1796255D03*
G54D10*
X4528672Y1795783D03*
G54D10*
X4553278D03*
G54D10*
X4620207Y1794799D03*
G54D10*
X4644577D03*
G54D10*
X4709223Y1795074D03*
G54D10*
X4735168D03*
G54D10*
X5314105Y-2140194D03*
G54D10*
X5288514D03*
G54D10*
X5339648Y-1694375D03*
G54D10*
X5339806Y-1596028D03*
G54D10*
Y-1511264D03*
G54D10*
X5300325Y-1514257D03*
G54D10*
Y-1479808D03*
G54D10*
X5264735D03*
G54D10*
Y-1514296D03*
G54D10*
X5259420Y-1558548D03*
G54D10*
X5265876Y-1444375D03*
G54D10*
X5300758D03*
G54D10*
X5338664Y-1415564D03*
G54D10*
X5147766Y-1413595D03*
G54D10*
X5052963Y-1413201D03*
G54D10*
X5051310Y-1473902D03*
G54D10*
X5045719Y-1547170D03*
G54D10*
X5059184Y-1586973D03*
G54D10*
X5042530Y-1720950D03*
G54D10*
X5013908Y-1718981D03*
G54D10*
X4990294D03*
G54D10*
X5061428Y-1740201D03*
G54D10*
X5133002Y-1680595D03*
G54D10*
X4990223Y-1492603D03*
G54D10*
X4992223Y-1414894D03*
G54D10*
X4990333Y-2048705D03*
G54D10*
Y-2140753D03*
G54D10*
X5016861Y-2141225D03*
G54D10*
X5041467D03*
G54D10*
X5108396Y-2142209D03*
G54D10*
X5132766D03*
G54D10*
X5197412Y-2141934D03*
G54D10*
X5223357D03*
G54D10*
X5314105Y-1155942D03*
G54D10*
X5288514D03*
G54D10*
X5339648Y-710123D03*
G54D10*
X5339806Y-611776D03*
G54D10*
Y-527013D03*
G54D10*
X5300325Y-530005D03*
G54D10*
Y-495556D03*
G54D10*
X5264735D03*
G54D10*
Y-530044D03*
G54D10*
X5259420Y-574296D03*
G54D10*
X5265876Y-460123D03*
G54D10*
X5300758D03*
G54D10*
X5338664Y-431312D03*
G54D10*
X5147766Y-429343D03*
G54D10*
X5052963Y-428950D03*
G54D10*
X5051310Y-489650D03*
G54D10*
X5045719Y-562918D03*
G54D10*
X5059184Y-602721D03*
G54D10*
X5042530Y-736698D03*
G54D10*
X5013908Y-734729D03*
G54D10*
X4990294D03*
G54D10*
X5061428Y-755950D03*
G54D10*
X5133002Y-696343D03*
G54D10*
X4990223Y-508351D03*
G54D10*
X4992223Y-430642D03*
G54D10*
X4990333Y-1064453D03*
G54D10*
Y-1156501D03*
G54D10*
X5016861Y-1156973D03*
G54D10*
X5041467D03*
G54D10*
X5108396Y-1157957D03*
G54D10*
X5132766D03*
G54D10*
X5197412Y-1157682D03*
G54D10*
X5223357D03*
G54D10*
X5314105Y-171690D03*
G54D10*
X5288514D03*
G54D10*
X5339648Y274129D03*
G54D10*
X5339806Y372476D03*
G54D10*
Y457239D03*
G54D10*
X5300325Y454247D03*
G54D10*
Y488696D03*
G54D10*
X5264735D03*
G54D10*
Y454208D03*
G54D10*
X5259420Y409956D03*
G54D10*
X5265876Y524129D03*
G54D10*
X5300758D03*
G54D10*
X5338664Y552940D03*
G54D10*
X5147766Y554909D03*
G54D10*
X5052963Y555302D03*
G54D10*
X5051310Y494602D03*
G54D10*
X5045719Y421334D03*
G54D10*
X5059184Y381531D03*
G54D10*
X5042530Y247554D03*
G54D10*
X5013908Y249523D03*
G54D10*
X4990294D03*
G54D10*
X5061428Y228302D03*
G54D10*
X5133002Y287909D03*
G54D10*
X4990223Y475901D03*
G54D10*
X4992223Y553610D03*
G54D10*
X4990333Y-80201D03*
G54D10*
Y-172249D03*
G54D10*
X5016861Y-172721D03*
G54D10*
X5041467D03*
G54D10*
X5108396Y-173705D03*
G54D10*
X5132766D03*
G54D10*
X5197412Y-173430D03*
G54D10*
X5223357D03*
G54D10*
X5314105Y812562D03*
G54D10*
X5288514D03*
G54D10*
X5339648Y1258381D03*
G54D10*
X5339806Y1356728D03*
G54D10*
Y1441491D03*
G54D10*
X5300325Y1438499D03*
G54D10*
Y1472948D03*
G54D10*
X5264735D03*
G54D10*
Y1438460D03*
G54D10*
X5259420Y1394208D03*
G54D10*
X5265876Y1508381D03*
G54D10*
X5300758D03*
G54D10*
X5338664Y1537192D03*
G54D10*
X5147766Y1539161D03*
G54D10*
X5052963Y1539554D03*
G54D10*
X5051310Y1478854D03*
G54D10*
X5045719Y1405586D03*
G54D10*
X5059184Y1365783D03*
G54D10*
X5042530Y1231806D03*
G54D10*
X5013908Y1233775D03*
G54D10*
X4990294D03*
G54D10*
X5061428Y1212554D03*
G54D10*
X5133002Y1272161D03*
G54D10*
X4990223Y1460153D03*
G54D10*
X4992223Y1537862D03*
G54D10*
X4990333Y904050D03*
G54D10*
Y812003D03*
G54D10*
X5016861Y811531D03*
G54D10*
X5041467D03*
G54D10*
X5108396Y810547D03*
G54D10*
X5132766D03*
G54D10*
X5197412Y810822D03*
G54D10*
X5223357D03*
G54D10*
X5314105Y1796814D03*
G54D10*
X5288514D03*
G54D10*
X5339648Y2242633D03*
G54D10*
X5339806Y2340980D03*
G54D10*
Y2425743D03*
G54D10*
X5300325Y2422751D03*
G54D10*
Y2457200D03*
G54D10*
X5264735D03*
G54D10*
Y2422712D03*
G54D10*
X5259420Y2378460D03*
G54D10*
X5265876Y2492633D03*
G54D10*
X5300758D03*
G54D10*
X5338664Y2521444D03*
G54D10*
X5147766Y2523413D03*
G54D10*
X5052963Y2523806D03*
G54D10*
X5051310Y2463106D03*
G54D10*
X5045719Y2389838D03*
G54D10*
X5059184Y2350035D03*
G54D10*
X5042530Y2216058D03*
G54D10*
X5013908Y2218027D03*
G54D10*
X4990294D03*
G54D10*
X5061428Y2196806D03*
G54D10*
X5133002Y2256413D03*
G54D10*
X4990223Y2444405D03*
G54D10*
X4992223Y2522113D03*
G54D10*
X4990333Y1888302D03*
G54D10*
Y1796255D03*
G54D10*
X5016861Y1795783D03*
G54D10*
X5041467D03*
G54D10*
X5108396Y1794799D03*
G54D10*
X5132766D03*
G54D10*
X5197412Y1795074D03*
G54D10*
X5223357D03*
G54D10*
X5802294Y-2140194D03*
G54D10*
X5776703D03*
G54D10*
X5827837Y-1694375D03*
G54D10*
X5827995Y-1596028D03*
G54D10*
Y-1511264D03*
G54D10*
X5788514Y-1514257D03*
G54D10*
Y-1479808D03*
G54D10*
X5752924D03*
G54D10*
Y-1514296D03*
G54D10*
X5747609Y-1558548D03*
G54D10*
X5754065Y-1444375D03*
G54D10*
X5788947D03*
G54D10*
X5826853Y-1415564D03*
G54D10*
X5635955Y-1413595D03*
G54D10*
X5541152Y-1413201D03*
G54D10*
X5539499Y-1473902D03*
G54D10*
X5533908Y-1547170D03*
G54D10*
X5547373Y-1586973D03*
G54D10*
X5530719Y-1720950D03*
G54D10*
X5502097Y-1718981D03*
G54D10*
X5478483D03*
G54D10*
X5549617Y-1740201D03*
G54D10*
X5621191Y-1680595D03*
G54D10*
X5478412Y-1492603D03*
G54D10*
X5480412Y-1414894D03*
G54D10*
X5478522Y-2048705D03*
G54D10*
Y-2140753D03*
G54D10*
X5505050Y-2141225D03*
G54D10*
X5529656D03*
G54D10*
X5596585Y-2142209D03*
G54D10*
X5620955D03*
G54D10*
X5685601Y-2141934D03*
G54D10*
X5711546D03*
G54D10*
X5802294Y-1155942D03*
G54D10*
X5776703D03*
G54D10*
X5827837Y-710123D03*
G54D10*
X5827995Y-611776D03*
G54D10*
Y-527013D03*
G54D10*
X5788514Y-530005D03*
G54D10*
Y-495556D03*
G54D10*
X5752924D03*
G54D10*
Y-530044D03*
G54D10*
X5747609Y-574296D03*
G54D10*
X5754065Y-460123D03*
G54D10*
X5788947D03*
G54D10*
X5826853Y-431312D03*
G54D10*
X5635955Y-429343D03*
G54D10*
X5541152Y-428950D03*
G54D10*
X5539499Y-489650D03*
G54D10*
X5533908Y-562918D03*
G54D10*
X5547373Y-602721D03*
G54D10*
X5530719Y-736698D03*
G54D10*
X5502097Y-734729D03*
G54D10*
X5478483D03*
G54D10*
X5549617Y-755950D03*
G54D10*
X5621191Y-696343D03*
G54D10*
X5478412Y-508351D03*
G54D10*
X5480412Y-430642D03*
G54D10*
X5478522Y-1064453D03*
G54D10*
Y-1156501D03*
G54D10*
X5505050Y-1156973D03*
G54D10*
X5529656D03*
G54D10*
X5596585Y-1157957D03*
G54D10*
X5620955D03*
G54D10*
X5685601Y-1157682D03*
G54D10*
X5711546D03*
G54D10*
X5802294Y-171690D03*
G54D10*
X5776703D03*
G54D10*
X5827837Y274129D03*
G54D10*
X5827995Y372476D03*
G54D10*
Y457239D03*
G54D10*
X5788514Y454247D03*
G54D10*
Y488696D03*
G54D10*
X5752924D03*
G54D10*
Y454208D03*
G54D10*
X5747609Y409956D03*
G54D10*
X5754065Y524129D03*
G54D10*
X5788947D03*
G54D10*
X5826853Y552940D03*
G54D10*
X5635955Y554909D03*
G54D10*
X5541152Y555302D03*
G54D10*
X5539499Y494602D03*
G54D10*
X5533908Y421334D03*
G54D10*
X5547373Y381531D03*
G54D10*
X5530719Y247554D03*
G54D10*
X5502097Y249523D03*
G54D10*
X5478483D03*
G54D10*
X5549617Y228302D03*
G54D10*
X5621191Y287909D03*
G54D10*
X5478412Y475901D03*
G54D10*
X5480412Y553610D03*
G54D10*
X5478522Y-80201D03*
G54D10*
Y-172249D03*
G54D10*
X5505050Y-172721D03*
G54D10*
X5529656D03*
G54D10*
X5596585Y-173705D03*
G54D10*
X5620955D03*
G54D10*
X5685601Y-173430D03*
G54D10*
X5711546D03*
G54D10*
X5802294Y812562D03*
G54D10*
X5776703D03*
G54D10*
X5827837Y1258381D03*
G54D10*
X5827995Y1356728D03*
G54D10*
Y1441491D03*
G54D10*
X5788514Y1438499D03*
G54D10*
Y1472948D03*
G54D10*
X5752924D03*
G54D10*
Y1438460D03*
G54D10*
X5747609Y1394208D03*
G54D10*
X5754065Y1508381D03*
G54D10*
X5788947D03*
G54D10*
X5826853Y1537192D03*
G54D10*
X5635955Y1539161D03*
G54D10*
X5541152Y1539554D03*
G54D10*
X5539499Y1478854D03*
G54D10*
X5533908Y1405586D03*
G54D10*
X5547373Y1365783D03*
G54D10*
X5530719Y1231806D03*
G54D10*
X5502097Y1233775D03*
G54D10*
X5478483D03*
G54D10*
X5549617Y1212554D03*
G54D10*
X5621191Y1272161D03*
G54D10*
X5478412Y1460153D03*
G54D10*
X5480412Y1537862D03*
G54D10*
X5478522Y904050D03*
G54D10*
Y812003D03*
G54D10*
X5505050Y811531D03*
G54D10*
X5529656D03*
G54D10*
X5596585Y810547D03*
G54D10*
X5620955D03*
G54D10*
X5685601Y810822D03*
G54D10*
X5711546D03*
G54D10*
X5802294Y1796814D03*
G54D10*
X5776703D03*
G54D10*
X5827837Y2242633D03*
G54D10*
X5827995Y2340980D03*
G54D10*
Y2425743D03*
G54D10*
X5788514Y2422751D03*
G54D10*
Y2457200D03*
G54D10*
X5752924D03*
G54D10*
Y2422712D03*
G54D10*
X5747609Y2378460D03*
G54D10*
X5754065Y2492633D03*
G54D10*
X5788947D03*
G54D10*
X5826853Y2521444D03*
G54D10*
X5635955Y2523413D03*
G54D10*
X5541152Y2523806D03*
G54D10*
X5539499Y2463106D03*
G54D10*
X5533908Y2389838D03*
G54D10*
X5547373Y2350035D03*
G54D10*
X5530719Y2216058D03*
G54D10*
X5502097Y2218027D03*
G54D10*
X5478483D03*
G54D10*
X5549617Y2196806D03*
G54D10*
X5621191Y2256413D03*
G54D10*
X5478412Y2444405D03*
G54D10*
X5480412Y2522113D03*
G54D10*
X5478522Y1888302D03*
G54D10*
Y1796255D03*
G54D10*
X5505050Y1795783D03*
G54D10*
X5529656D03*
G54D10*
X5596585Y1794799D03*
G54D10*
X5620955D03*
G54D10*
X5685601Y1795074D03*
G54D10*
X5711546D03*
G54D10*
X6290483Y-2140194D03*
G54D10*
X6264892D03*
G54D10*
X6316026Y-1694375D03*
G54D10*
X6316184Y-1596028D03*
G54D10*
Y-1511264D03*
G54D10*
X6276703Y-1514257D03*
G54D10*
Y-1479808D03*
G54D10*
X6241113D03*
G54D10*
Y-1514296D03*
G54D10*
X6235798Y-1558548D03*
G54D10*
X6242254Y-1444375D03*
G54D10*
X6277136D03*
G54D10*
X6315042Y-1415564D03*
G54D10*
X6124144Y-1413595D03*
G54D10*
X6029341Y-1413201D03*
G54D10*
X6027688Y-1473902D03*
G54D10*
X6022097Y-1547170D03*
G54D10*
X6035562Y-1586973D03*
G54D10*
X6018908Y-1720950D03*
G54D10*
X5990286Y-1718981D03*
G54D10*
X5966672D03*
G54D10*
X6037806Y-1740201D03*
G54D10*
X6109380Y-1680595D03*
G54D10*
X5966601Y-1492603D03*
G54D10*
X5968601Y-1414894D03*
G54D10*
X5966711Y-2048705D03*
G54D10*
Y-2140753D03*
G54D10*
X5993239Y-2141225D03*
G54D10*
X6017845D03*
G54D10*
X6084774Y-2142209D03*
G54D10*
X6109144D03*
G54D10*
X6173790Y-2141934D03*
G54D10*
X6199735D03*
G54D10*
X6290483Y-1155942D03*
G54D10*
X6264892D03*
G54D10*
X6316026Y-710123D03*
G54D10*
X6316184Y-611776D03*
G54D10*
Y-527013D03*
G54D10*
X6276703Y-530005D03*
G54D10*
Y-495556D03*
G54D10*
X6241113D03*
G54D10*
Y-530044D03*
G54D10*
X6235798Y-574296D03*
G54D10*
X6242254Y-460123D03*
G54D10*
X6277136D03*
G54D10*
X6315042Y-431312D03*
G54D10*
X6124144Y-429343D03*
G54D10*
X6029341Y-428950D03*
G54D10*
X6027688Y-489650D03*
G54D10*
X6022097Y-562918D03*
G54D10*
X6035562Y-602721D03*
G54D10*
X6018908Y-736698D03*
G54D10*
X5990286Y-734729D03*
G54D10*
X5966672D03*
G54D10*
X6037806Y-755950D03*
G54D10*
X6109380Y-696343D03*
G54D10*
X5966601Y-508351D03*
G54D10*
X5968601Y-430642D03*
G54D10*
X5966711Y-1064453D03*
G54D10*
Y-1156501D03*
G54D10*
X5993239Y-1156973D03*
G54D10*
X6017845D03*
G54D10*
X6084774Y-1157957D03*
G54D10*
X6109144D03*
G54D10*
X6173790Y-1157682D03*
G54D10*
X6199735D03*
G54D10*
X6290483Y-171690D03*
G54D10*
X6264892D03*
G54D10*
X6316026Y274129D03*
G54D10*
X6316184Y372476D03*
G54D10*
Y457239D03*
G54D10*
X6276703Y454247D03*
G54D10*
Y488696D03*
G54D10*
X6241113D03*
G54D10*
Y454208D03*
G54D10*
X6235798Y409956D03*
G54D10*
X6242254Y524129D03*
G54D10*
X6277136D03*
G54D10*
X6315042Y552940D03*
G54D10*
X6124144Y554909D03*
G54D10*
X6029341Y555302D03*
G54D10*
X6027688Y494602D03*
G54D10*
X6022097Y421334D03*
G54D10*
X6035562Y381531D03*
G54D10*
X6018908Y247554D03*
G54D10*
X5990286Y249523D03*
G54D10*
X5966672D03*
G54D10*
X6037806Y228302D03*
G54D10*
X6109380Y287909D03*
G54D10*
X5966601Y475901D03*
G54D10*
X5968601Y553610D03*
G54D10*
X5966711Y-80201D03*
G54D10*
Y-172249D03*
G54D10*
X5993239Y-172721D03*
G54D10*
X6017845D03*
G54D10*
X6084774Y-173705D03*
G54D10*
X6109144D03*
G54D10*
X6173790Y-173430D03*
G54D10*
X6199735D03*
G54D10*
X6290483Y812562D03*
G54D10*
X6264892D03*
G54D10*
X6316026Y1258381D03*
G54D10*
X6316184Y1356728D03*
G54D10*
Y1441491D03*
G54D10*
X6276703Y1438499D03*
G54D10*
Y1472948D03*
G54D10*
X6241113D03*
G54D10*
Y1438460D03*
G54D10*
X6235798Y1394208D03*
G54D10*
X6242254Y1508381D03*
G54D10*
X6277136D03*
G54D10*
X6315042Y1537192D03*
G54D10*
X6124144Y1539161D03*
G54D10*
X6029341Y1539554D03*
G54D10*
X6027688Y1478854D03*
G54D10*
X6022097Y1405586D03*
G54D10*
X6035562Y1365783D03*
G54D10*
X6018908Y1231806D03*
G54D10*
X5990286Y1233775D03*
G54D10*
X5966672D03*
G54D10*
X6037806Y1212554D03*
G54D10*
X6109380Y1272161D03*
G54D10*
X5966601Y1460153D03*
G54D10*
X5968601Y1537862D03*
G54D10*
X5966711Y904050D03*
G54D10*
Y812003D03*
G54D10*
X5993239Y811531D03*
G54D10*
X6017845D03*
G54D10*
X6084774Y810547D03*
G54D10*
X6109144D03*
G54D10*
X6173790Y810822D03*
G54D10*
X6199735D03*
G54D10*
X6290483Y1796814D03*
G54D10*
X6264892D03*
G54D10*
X6316026Y2242633D03*
G54D10*
X6316184Y2340980D03*
G54D10*
Y2425743D03*
G54D10*
X6276703Y2422751D03*
G54D10*
Y2457200D03*
G54D10*
X6241113D03*
G54D10*
Y2422712D03*
G54D10*
X6235798Y2378460D03*
G54D10*
X6242254Y2492633D03*
G54D10*
X6277136D03*
G54D10*
X6315042Y2521444D03*
G54D10*
X6124144Y2523413D03*
G54D10*
X6029341Y2523806D03*
G54D10*
X6027688Y2463106D03*
G54D10*
X6022097Y2389838D03*
G54D10*
X6035562Y2350035D03*
G54D10*
X6018908Y2216058D03*
G54D10*
X5990286Y2218027D03*
G54D10*
X5966672D03*
G54D10*
X6037806Y2196806D03*
G54D10*
X6109380Y2256413D03*
G54D10*
X5966601Y2444405D03*
G54D10*
X5968601Y2522113D03*
G54D10*
X5966711Y1888302D03*
G54D10*
Y1796255D03*
G54D10*
X5993239Y1795783D03*
G54D10*
X6017845D03*
G54D10*
X6084774Y1794799D03*
G54D10*
X6109144D03*
G54D10*
X6173790Y1795074D03*
G54D10*
X6199735D03*
G54D10*
X6778672Y-2140194D03*
G54D10*
X6753081D03*
G54D10*
X6804215Y-1694375D03*
G54D10*
X6804373Y-1596028D03*
G54D10*
Y-1511264D03*
G54D10*
X6764892Y-1514257D03*
G54D10*
Y-1479808D03*
G54D10*
X6729302D03*
G54D10*
Y-1514296D03*
G54D10*
X6723987Y-1558548D03*
G54D10*
X6730443Y-1444375D03*
G54D10*
X6765325D03*
G54D10*
X6803231Y-1415564D03*
G54D10*
X6612333Y-1413595D03*
G54D10*
X6517530Y-1413201D03*
G54D10*
X6515876Y-1473902D03*
G54D10*
X6510286Y-1547170D03*
G54D10*
X6523750Y-1586973D03*
G54D10*
X6507097Y-1720950D03*
G54D10*
X6478475Y-1718981D03*
G54D10*
X6454861D03*
G54D10*
X6525995Y-1740201D03*
G54D10*
X6597569Y-1680595D03*
G54D10*
X6454790Y-1492603D03*
G54D10*
X6456790Y-1414894D03*
G54D10*
X6454900Y-2048705D03*
G54D10*
Y-2140753D03*
G54D10*
X6481428Y-2141225D03*
G54D10*
X6506034D03*
G54D10*
X6572963Y-2142209D03*
G54D10*
X6597333D03*
G54D10*
X6661979Y-2141934D03*
G54D10*
X6687924D03*
G54D10*
X6778672Y-1155942D03*
G54D10*
X6753081D03*
G54D10*
X6804215Y-710123D03*
G54D10*
X6804373Y-611776D03*
G54D10*
Y-527013D03*
G54D10*
X6764892Y-530005D03*
G54D10*
Y-495556D03*
G54D10*
X6729302D03*
G54D10*
Y-530044D03*
G54D10*
X6723987Y-574296D03*
G54D10*
X6730443Y-460123D03*
G54D10*
X6765325D03*
G54D10*
X6803231Y-431312D03*
G54D10*
X6612333Y-429343D03*
G54D10*
X6517530Y-428950D03*
G54D10*
X6515876Y-489650D03*
G54D10*
X6510286Y-562918D03*
G54D10*
X6523750Y-602721D03*
G54D10*
X6507097Y-736698D03*
G54D10*
X6478475Y-734729D03*
G54D10*
X6454861D03*
G54D10*
X6525995Y-755950D03*
G54D10*
X6597569Y-696343D03*
G54D10*
X6454790Y-508351D03*
G54D10*
X6456790Y-430642D03*
G54D10*
X6454900Y-1064453D03*
G54D10*
Y-1156501D03*
G54D10*
X6481428Y-1156973D03*
G54D10*
X6506034D03*
G54D10*
X6572963Y-1157957D03*
G54D10*
X6597333D03*
G54D10*
X6661979Y-1157682D03*
G54D10*
X6687924D03*
G54D10*
X6778672Y-171690D03*
G54D10*
X6753081D03*
G54D10*
X6804215Y274129D03*
G54D10*
X6804373Y372476D03*
G54D10*
Y457239D03*
G54D10*
X6764892Y454247D03*
G54D10*
Y488696D03*
G54D10*
X6729302D03*
G54D10*
Y454208D03*
G54D10*
X6723987Y409956D03*
G54D10*
X6730443Y524129D03*
G54D10*
X6765325D03*
G54D10*
X6803231Y552940D03*
G54D10*
X6612333Y554909D03*
G54D10*
X6517530Y555302D03*
G54D10*
X6515876Y494602D03*
G54D10*
X6510286Y421334D03*
G54D10*
X6523750Y381531D03*
G54D10*
X6507097Y247554D03*
G54D10*
X6478475Y249523D03*
G54D10*
X6454861D03*
G54D10*
X6525995Y228302D03*
G54D10*
X6597569Y287909D03*
G54D10*
X6454790Y475901D03*
G54D10*
X6456790Y553610D03*
G54D10*
X6454900Y-80201D03*
G54D10*
Y-172249D03*
G54D10*
X6481428Y-172721D03*
G54D10*
X6506034D03*
G54D10*
X6572963Y-173705D03*
G54D10*
X6597333D03*
G54D10*
X6661979Y-173430D03*
G54D10*
X6687924D03*
G54D10*
X6778672Y812562D03*
G54D10*
X6753081D03*
G54D10*
X6804215Y1258381D03*
G54D10*
X6804373Y1356728D03*
G54D10*
Y1441491D03*
G54D10*
X6764892Y1438499D03*
G54D10*
Y1472948D03*
G54D10*
X6729302D03*
G54D10*
Y1438460D03*
G54D10*
X6723987Y1394208D03*
G54D10*
X6730443Y1508381D03*
G54D10*
X6765325D03*
G54D10*
X6803231Y1537192D03*
G54D10*
X6612333Y1539161D03*
G54D10*
X6517530Y1539554D03*
G54D10*
X6515876Y1478854D03*
G54D10*
X6510286Y1405586D03*
G54D10*
X6523750Y1365783D03*
G54D10*
X6507097Y1231806D03*
G54D10*
X6478475Y1233775D03*
G54D10*
X6454861D03*
G54D10*
X6525995Y1212554D03*
G54D10*
X6597569Y1272161D03*
G54D10*
X6454790Y1460153D03*
G54D10*
X6456790Y1537862D03*
G54D10*
X6454900Y904050D03*
G54D10*
Y812003D03*
G54D10*
X6481428Y811531D03*
G54D10*
X6506034D03*
G54D10*
X6572963Y810547D03*
G54D10*
X6597333D03*
G54D10*
X6661979Y810822D03*
G54D10*
X6687924D03*
G54D10*
X6778672Y1796814D03*
G54D10*
X6753081D03*
G54D10*
X6804215Y2242633D03*
G54D10*
X6804373Y2340980D03*
G54D10*
Y2425743D03*
G54D10*
X6764892Y2422751D03*
G54D10*
Y2457200D03*
G54D10*
X6729302D03*
G54D10*
Y2422712D03*
G54D10*
X6723987Y2378460D03*
G54D10*
X6730443Y2492633D03*
G54D10*
X6765325D03*
G54D10*
X6803231Y2521444D03*
G54D10*
X6612333Y2523413D03*
G54D10*
X6517530Y2523806D03*
G54D10*
X6515876Y2463106D03*
G54D10*
X6510286Y2389838D03*
G54D10*
X6523750Y2350035D03*
G54D10*
X6507097Y2216058D03*
G54D10*
X6478475Y2218027D03*
G54D10*
X6454861D03*
G54D10*
X6525995Y2196806D03*
G54D10*
X6597569Y2256413D03*
G54D10*
X6454790Y2444405D03*
G54D10*
X6456790Y2522113D03*
G54D10*
X6454900Y1888302D03*
G54D10*
Y1796255D03*
G54D10*
X6481428Y1795783D03*
G54D10*
X6506034D03*
G54D10*
X6572963Y1794799D03*
G54D10*
X6597333D03*
G54D10*
X6661979Y1795074D03*
G54D10*
X6687924D03*
G54D10*
X7266861Y-2140194D03*
G54D10*
X7241270D03*
G54D10*
X7292404Y-1694375D03*
G54D10*
X7292562Y-1596028D03*
G54D10*
Y-1511264D03*
G54D10*
X7253081Y-1514257D03*
G54D10*
Y-1479808D03*
G54D10*
X7217491D03*
G54D10*
Y-1514296D03*
G54D10*
X7212176Y-1558548D03*
G54D10*
X7218632Y-1444375D03*
G54D10*
X7253514D03*
G54D10*
X7291420Y-1415564D03*
G54D10*
X7100522Y-1413595D03*
G54D10*
X7005719Y-1413201D03*
G54D10*
X7004065Y-1473902D03*
G54D10*
X6998475Y-1547170D03*
G54D10*
X7011939Y-1586973D03*
G54D10*
X6995286Y-1720950D03*
G54D10*
X6966664Y-1718981D03*
G54D10*
X6943050D03*
G54D10*
X7014184Y-1740201D03*
G54D10*
X7085758Y-1680595D03*
G54D10*
X6942979Y-1492603D03*
G54D10*
X6944979Y-1414894D03*
G54D10*
X6943089Y-2048705D03*
G54D10*
Y-2140753D03*
G54D10*
X6969617Y-2141225D03*
G54D10*
X6994223D03*
G54D10*
X7061152Y-2142209D03*
G54D10*
X7085522D03*
G54D10*
X7150168Y-2141934D03*
G54D10*
X7176113D03*
G54D10*
X7266861Y-1155942D03*
G54D10*
X7241270D03*
G54D10*
X7292404Y-710123D03*
G54D10*
X7292562Y-611776D03*
G54D10*
Y-527013D03*
G54D10*
X7253081Y-530005D03*
G54D10*
Y-495556D03*
G54D10*
X7217491D03*
G54D10*
Y-530044D03*
G54D10*
X7212176Y-574296D03*
G54D10*
X7218632Y-460123D03*
G54D10*
X7253514D03*
G54D10*
X7291420Y-431312D03*
G54D10*
X7100522Y-429343D03*
G54D10*
X7005719Y-428950D03*
G54D10*
X7004065Y-489650D03*
G54D10*
X6998475Y-562918D03*
G54D10*
X7011939Y-602721D03*
G54D10*
X6995286Y-736698D03*
G54D10*
X6966664Y-734729D03*
G54D10*
X6943050D03*
G54D10*
X7014184Y-755950D03*
G54D10*
X7085758Y-696343D03*
G54D10*
X6942979Y-508351D03*
G54D10*
X6944979Y-430642D03*
G54D10*
X6943089Y-1064453D03*
G54D10*
Y-1156501D03*
G54D10*
X6969617Y-1156973D03*
G54D10*
X6994223D03*
G54D10*
X7061152Y-1157957D03*
G54D10*
X7085522D03*
G54D10*
X7150168Y-1157682D03*
G54D10*
X7176113D03*
G54D10*
X7266861Y-171690D03*
G54D10*
X7241270D03*
G54D10*
X7292404Y274129D03*
G54D10*
X7292562Y372476D03*
G54D10*
Y457239D03*
G54D10*
X7253081Y454247D03*
G54D10*
Y488696D03*
G54D10*
X7217491D03*
G54D10*
Y454208D03*
G54D10*
X7212176Y409956D03*
G54D10*
X7218632Y524129D03*
G54D10*
X7253514D03*
G54D10*
X7291420Y552940D03*
G54D10*
X7100522Y554909D03*
G54D10*
X7005719Y555302D03*
G54D10*
X7004065Y494602D03*
G54D10*
X6998475Y421334D03*
G54D10*
X7011939Y381531D03*
G54D10*
X6995286Y247554D03*
G54D10*
X6966664Y249523D03*
G54D10*
X6943050D03*
G54D10*
X7014184Y228302D03*
G54D10*
X7085758Y287909D03*
G54D10*
X6942979Y475901D03*
G54D10*
X6944979Y553610D03*
G54D10*
X6943089Y-80201D03*
G54D10*
Y-172249D03*
G54D10*
X6969617Y-172721D03*
G54D10*
X6994223D03*
G54D10*
X7061152Y-173705D03*
G54D10*
X7085522D03*
G54D10*
X7150168Y-173430D03*
G54D10*
X7176113D03*
G54D10*
X7266861Y812562D03*
G54D10*
X7241270D03*
G54D10*
X7292404Y1258381D03*
G54D10*
X7292562Y1356728D03*
G54D10*
Y1441491D03*
G54D10*
X7253081Y1438499D03*
G54D10*
Y1472948D03*
G54D10*
X7217491D03*
G54D10*
Y1438460D03*
G54D10*
X7212176Y1394208D03*
G54D10*
X7218632Y1508381D03*
G54D10*
X7253514D03*
G54D10*
X7291420Y1537192D03*
G54D10*
X7100522Y1539161D03*
G54D10*
X7005719Y1539554D03*
G54D10*
X7004065Y1478854D03*
G54D10*
X6998475Y1405586D03*
G54D10*
X7011939Y1365783D03*
G54D10*
X6995286Y1231806D03*
G54D10*
X6966664Y1233775D03*
G54D10*
X6943050D03*
G54D10*
X7014184Y1212554D03*
G54D10*
X7085758Y1272161D03*
G54D10*
X6942979Y1460153D03*
G54D10*
X6944979Y1537862D03*
G54D10*
X6943089Y904050D03*
G54D10*
Y812003D03*
G54D10*
X6969617Y811531D03*
G54D10*
X6994223D03*
G54D10*
X7061152Y810547D03*
G54D10*
X7085522D03*
G54D10*
X7150168Y810822D03*
G54D10*
X7176113D03*
G54D10*
X7266861Y1796814D03*
G54D10*
X7241270D03*
G54D10*
X7292404Y2242633D03*
G54D10*
X7292562Y2340980D03*
G54D10*
Y2425743D03*
G54D10*
X7253081Y2422751D03*
G54D10*
Y2457200D03*
G54D10*
X7217491D03*
G54D10*
Y2422712D03*
G54D10*
X7212176Y2378460D03*
G54D10*
X7218632Y2492633D03*
G54D10*
X7253514D03*
G54D10*
X7291420Y2521444D03*
G54D10*
X7100522Y2523413D03*
G54D10*
X7005719Y2523806D03*
G54D10*
X7004065Y2463106D03*
G54D10*
X6998475Y2389838D03*
G54D10*
X7011939Y2350035D03*
G54D10*
X6995286Y2216058D03*
G54D10*
X6966664Y2218027D03*
G54D10*
X6943050D03*
G54D10*
X7014184Y2196806D03*
G54D10*
X7085758Y2256413D03*
G54D10*
X6942979Y2444405D03*
G54D10*
X6944979Y2522113D03*
G54D10*
X6943089Y1888302D03*
G54D10*
Y1796255D03*
G54D10*
X6969617Y1795783D03*
G54D10*
X6994223D03*
G54D10*
X7061152Y1794799D03*
G54D10*
X7085522D03*
G54D10*
X7150168Y1795074D03*
G54D10*
X7176113D03*
G54D10*
X7755050Y-2140194D03*
G54D10*
X7729459D03*
G54D10*
X7780593Y-1694375D03*
G54D10*
X7780750Y-1596028D03*
G54D10*
Y-1511264D03*
G54D10*
X7741270Y-1514257D03*
G54D10*
Y-1479808D03*
G54D10*
X7705680D03*
G54D10*
Y-1514296D03*
G54D10*
X7700365Y-1558548D03*
G54D10*
X7706821Y-1444375D03*
G54D10*
X7741703D03*
G54D10*
X7779609Y-1415564D03*
G54D10*
X7588711Y-1413595D03*
G54D10*
X7493908Y-1413201D03*
G54D10*
X7492254Y-1473902D03*
G54D10*
X7486664Y-1547170D03*
G54D10*
X7500128Y-1586973D03*
G54D10*
X7483475Y-1720950D03*
G54D10*
X7454853Y-1718981D03*
G54D10*
X7431239D03*
G54D10*
X7502373Y-1740201D03*
G54D10*
X7573947Y-1680595D03*
G54D10*
X7431168Y-1492603D03*
G54D10*
X7433168Y-1414894D03*
G54D10*
X7431278Y-2048705D03*
G54D10*
Y-2140753D03*
G54D10*
X7457806Y-2141225D03*
G54D10*
X7482412D03*
G54D10*
X7549341Y-2142209D03*
G54D10*
X7573711D03*
G54D10*
X7638357Y-2141934D03*
G54D10*
X7664302D03*
G54D10*
X7755050Y-1155942D03*
G54D10*
X7729459D03*
G54D10*
X7780593Y-710123D03*
G54D10*
X7780750Y-611776D03*
G54D10*
Y-527013D03*
G54D10*
X7741270Y-530005D03*
G54D10*
Y-495556D03*
G54D10*
X7705680D03*
G54D10*
Y-530044D03*
G54D10*
X7700365Y-574296D03*
G54D10*
X7706821Y-460123D03*
G54D10*
X7741703D03*
G54D10*
X7779609Y-431312D03*
G54D10*
X7588711Y-429343D03*
G54D10*
X7493908Y-428950D03*
G54D10*
X7492254Y-489650D03*
G54D10*
X7486664Y-562918D03*
G54D10*
X7500128Y-602721D03*
G54D10*
X7483475Y-736698D03*
G54D10*
X7454853Y-734729D03*
G54D10*
X7431239D03*
G54D10*
X7502373Y-755950D03*
G54D10*
X7573947Y-696343D03*
G54D10*
X7431168Y-508351D03*
G54D10*
X7433168Y-430642D03*
G54D10*
X7431278Y-1064453D03*
G54D10*
Y-1156501D03*
G54D10*
X7457806Y-1156973D03*
G54D10*
X7482412D03*
G54D10*
X7549341Y-1157957D03*
G54D10*
X7573711D03*
G54D10*
X7638357Y-1157682D03*
G54D10*
X7664302D03*
G54D10*
X7755050Y-171690D03*
G54D10*
X7729459D03*
G54D10*
X7780593Y274129D03*
G54D10*
X7780750Y372476D03*
G54D10*
Y457239D03*
G54D10*
X7741270Y454247D03*
G54D10*
Y488696D03*
G54D10*
X7705680D03*
G54D10*
Y454208D03*
G54D10*
X7700365Y409956D03*
G54D10*
X7706821Y524129D03*
G54D10*
X7741703D03*
G54D10*
X7779609Y552940D03*
G54D10*
X7588711Y554909D03*
G54D10*
X7493908Y555302D03*
G54D10*
X7492254Y494602D03*
G54D10*
X7486664Y421334D03*
G54D10*
X7500128Y381531D03*
G54D10*
X7483475Y247554D03*
G54D10*
X7454853Y249523D03*
G54D10*
X7431239D03*
G54D10*
X7502373Y228302D03*
G54D10*
X7573947Y287909D03*
G54D10*
X7431168Y475901D03*
G54D10*
X7433168Y553610D03*
G54D10*
X7431278Y-80201D03*
G54D10*
Y-172249D03*
G54D10*
X7457806Y-172721D03*
G54D10*
X7482412D03*
G54D10*
X7549341Y-173705D03*
G54D10*
X7573711D03*
G54D10*
X7638357Y-173430D03*
G54D10*
X7664302D03*
G54D10*
X7755050Y812562D03*
G54D10*
X7729459D03*
G54D10*
X7780593Y1258381D03*
G54D10*
X7780750Y1356728D03*
G54D10*
Y1441491D03*
G54D10*
X7741270Y1438499D03*
G54D10*
Y1472948D03*
G54D10*
X7705680D03*
G54D10*
Y1438460D03*
G54D10*
X7700365Y1394208D03*
G54D10*
X7706821Y1508381D03*
G54D10*
X7741703D03*
G54D10*
X7779609Y1537192D03*
G54D10*
X7588711Y1539161D03*
G54D10*
X7493908Y1539554D03*
G54D10*
X7492254Y1478854D03*
G54D10*
X7486664Y1405586D03*
G54D10*
X7500128Y1365783D03*
G54D10*
X7483475Y1231806D03*
G54D10*
X7454853Y1233775D03*
G54D10*
X7431239D03*
G54D10*
X7502373Y1212554D03*
G54D10*
X7573947Y1272161D03*
G54D10*
X7431168Y1460153D03*
G54D10*
X7433168Y1537862D03*
G54D10*
X7431278Y904050D03*
G54D10*
Y812003D03*
G54D10*
X7457806Y811531D03*
G54D10*
X7482412D03*
G54D10*
X7549341Y810547D03*
G54D10*
X7573711D03*
G54D10*
X7638357Y810822D03*
G54D10*
X7664302D03*
G54D10*
X7755050Y1796814D03*
G54D10*
X7729459D03*
G54D10*
X7780593Y2242633D03*
G54D10*
X7780750Y2340980D03*
G54D10*
Y2425743D03*
G54D10*
X7741270Y2422751D03*
G54D10*
Y2457200D03*
G54D10*
X7705680D03*
G54D10*
Y2422712D03*
G54D10*
X7700365Y2378460D03*
G54D10*
X7706821Y2492633D03*
G54D10*
X7741703D03*
G54D10*
X7779609Y2521444D03*
G54D10*
X7588711Y2523413D03*
G54D10*
X7493908Y2523806D03*
G54D10*
X7492254Y2463106D03*
G54D10*
X7486664Y2389838D03*
G54D10*
X7500128Y2350035D03*
G54D10*
X7483475Y2216058D03*
G54D10*
X7454853Y2218027D03*
G54D10*
X7431239D03*
G54D10*
X7502373Y2196806D03*
G54D10*
X7573947Y2256413D03*
G54D10*
X7431168Y2444405D03*
G54D10*
X7433168Y2522113D03*
G54D10*
X7431278Y1888302D03*
G54D10*
Y1796255D03*
G54D10*
X7457806Y1795783D03*
G54D10*
X7482412D03*
G54D10*
X7549341Y1794799D03*
G54D10*
X7573711D03*
G54D10*
X7638357Y1795074D03*
G54D10*
X7664302D03*
G54D10*
X8243239Y-2140194D03*
G54D10*
X8217648D03*
G54D10*
X8268782Y-1694375D03*
G54D10*
X8268939Y-1596028D03*
G54D10*
Y-1511264D03*
G54D10*
X8229459Y-1514257D03*
G54D10*
Y-1479808D03*
G54D10*
X8193869D03*
G54D10*
Y-1514296D03*
G54D10*
X8188554Y-1558548D03*
G54D10*
X8195010Y-1444375D03*
G54D10*
X8229892D03*
G54D10*
X8267798Y-1415564D03*
G54D10*
X8076900Y-1413595D03*
G54D10*
X7982097Y-1413201D03*
G54D10*
X7980443Y-1473902D03*
G54D10*
X7974853Y-1547170D03*
G54D10*
X7988317Y-1586973D03*
G54D10*
X7971664Y-1720950D03*
G54D10*
X7943042Y-1718981D03*
G54D10*
X7919428D03*
G54D10*
X7990562Y-1740201D03*
G54D10*
X8062136Y-1680595D03*
G54D10*
X7919357Y-1492603D03*
G54D10*
X7921357Y-1414894D03*
G54D10*
X7919467Y-2048705D03*
G54D10*
Y-2140753D03*
G54D10*
X7945995Y-2141225D03*
G54D10*
X7970601D03*
G54D10*
X8037530Y-2142209D03*
G54D10*
X8061900D03*
G54D10*
X8126546Y-2141934D03*
G54D10*
X8152491D03*
G54D10*
X8243239Y-1155942D03*
G54D10*
X8217648D03*
G54D10*
X8268782Y-710123D03*
G54D10*
X8268939Y-611776D03*
G54D10*
Y-527013D03*
G54D10*
X8229459Y-530005D03*
G54D10*
Y-495556D03*
G54D10*
X8193869D03*
G54D10*
Y-530044D03*
G54D10*
X8188554Y-574296D03*
G54D10*
X8195010Y-460123D03*
G54D10*
X8229892D03*
G54D10*
X8267798Y-431312D03*
G54D10*
X8076900Y-429343D03*
G54D10*
X7982097Y-428950D03*
G54D10*
X7980443Y-489650D03*
G54D10*
X7974853Y-562918D03*
G54D10*
X7988317Y-602721D03*
G54D10*
X7971664Y-736698D03*
G54D10*
X7943042Y-734729D03*
G54D10*
X7919428D03*
G54D10*
X7990562Y-755950D03*
G54D10*
X8062136Y-696343D03*
G54D10*
X7919357Y-508351D03*
G54D10*
X7921357Y-430642D03*
G54D10*
X7919467Y-1064453D03*
G54D10*
Y-1156501D03*
G54D10*
X7945995Y-1156973D03*
G54D10*
X7970601D03*
G54D10*
X8037530Y-1157957D03*
G54D10*
X8061900D03*
G54D10*
X8126546Y-1157682D03*
G54D10*
X8152491D03*
G54D10*
X8243239Y-171690D03*
G54D10*
X8217648D03*
G54D10*
X8268782Y274129D03*
G54D10*
X8268939Y372476D03*
G54D10*
Y457239D03*
G54D10*
X8229459Y454247D03*
G54D10*
Y488696D03*
G54D10*
X8193869D03*
G54D10*
Y454208D03*
G54D10*
X8188554Y409956D03*
G54D10*
X8195010Y524129D03*
G54D10*
X8229892D03*
G54D10*
X8267798Y552940D03*
G54D10*
X8076900Y554909D03*
G54D10*
X7982097Y555302D03*
G54D10*
X7980443Y494602D03*
G54D10*
X7974853Y421334D03*
G54D10*
X7988317Y381531D03*
G54D10*
X7971664Y247554D03*
G54D10*
X7943042Y249523D03*
G54D10*
X7919428D03*
G54D10*
X7990562Y228302D03*
G54D10*
X8062136Y287909D03*
G54D10*
X7919357Y475901D03*
G54D10*
X7921357Y553610D03*
G54D10*
X7919467Y-80201D03*
G54D10*
Y-172249D03*
G54D10*
X7945995Y-172721D03*
G54D10*
X7970601D03*
G54D10*
X8037530Y-173705D03*
G54D10*
X8061900D03*
G54D10*
X8126546Y-173430D03*
G54D10*
X8152491D03*
G54D10*
X8243239Y812562D03*
G54D10*
X8217648D03*
G54D10*
X8268782Y1258381D03*
G54D10*
X8268939Y1356728D03*
G54D10*
Y1441491D03*
G54D10*
X8229459Y1438499D03*
G54D10*
Y1472948D03*
G54D10*
X8193869D03*
G54D10*
Y1438460D03*
G54D10*
X8188554Y1394208D03*
G54D10*
X8195010Y1508381D03*
G54D10*
X8229892D03*
G54D10*
X8267798Y1537192D03*
G54D10*
X8076900Y1539161D03*
G54D10*
X7982097Y1539554D03*
G54D10*
X7980443Y1478854D03*
G54D10*
X7974853Y1405586D03*
G54D10*
X7988317Y1365783D03*
G54D10*
X7971664Y1231806D03*
G54D10*
X7943042Y1233775D03*
G54D10*
X7919428D03*
G54D10*
X7990562Y1212554D03*
G54D10*
X8062136Y1272161D03*
G54D10*
X7919357Y1460153D03*
G54D10*
X7921357Y1537862D03*
G54D10*
X7919467Y904050D03*
G54D10*
Y812003D03*
G54D10*
X7945995Y811531D03*
G54D10*
X7970601D03*
G54D10*
X8037530Y810547D03*
G54D10*
X8061900D03*
G54D10*
X8126546Y810822D03*
G54D10*
X8152491D03*
G54D10*
X8243239Y1796814D03*
G54D10*
X8217648D03*
G54D10*
X8268782Y2242633D03*
G54D10*
X8268939Y2340980D03*
G54D10*
Y2425743D03*
G54D10*
X8229459Y2422751D03*
G54D10*
Y2457200D03*
G54D10*
X8193869D03*
G54D10*
Y2422712D03*
G54D10*
X8188554Y2378460D03*
G54D10*
X8195010Y2492633D03*
G54D10*
X8229892D03*
G54D10*
X8267798Y2521444D03*
G54D10*
X8076900Y2523413D03*
G54D10*
X7982097Y2523806D03*
G54D10*
X7980443Y2463106D03*
G54D10*
X7974853Y2389838D03*
G54D10*
X7988317Y2350035D03*
G54D10*
X7971664Y2216058D03*
G54D10*
X7943042Y2218027D03*
G54D10*
X7919428D03*
G54D10*
X7990562Y2196806D03*
G54D10*
X8062136Y2256413D03*
G54D10*
X7919357Y2444405D03*
G54D10*
X7921357Y2522113D03*
G54D10*
X7919467Y1888302D03*
G54D10*
Y1796255D03*
G54D10*
X7945995Y1795783D03*
G54D10*
X7970601D03*
G54D10*
X8037530Y1794799D03*
G54D10*
X8061900D03*
G54D10*
X8126546Y1795074D03*
G54D10*
X8152491D03*
G54D11*
X4433158Y1378252D03*
X4842135Y1726452D03*
X4433158Y2592594D03*
X4842135D03*
X8259458Y2592594D03*
X8338749Y2047544D03*
Y-1889464D03*
X5094104Y-2210556D03*
X4605915D03*
X5330324Y1726452D03*
Y2592594D03*
X5818513Y1726452D03*
Y2592594D03*
X6306702Y1726452D03*
Y2592594D03*
X6794891Y1726452D03*
Y2592594D03*
X7283080Y1726452D03*
Y2592594D03*
X7771269Y1726452D03*
Y2592594D03*
X4433158Y394000D03*
X4842135Y742200D03*
X8338749Y1063292D03*
X5330324Y742200D03*
X5818513D03*
X6306702D03*
X6794891D03*
X7283080D03*
X7771269D03*
X4433158Y-590252D03*
X4842135Y-242052D03*
X8338749Y79040D03*
X5330324Y-242052D03*
X5818513D03*
X6306702D03*
X6794891D03*
X7283080D03*
X7771269D03*
X4433158Y-1574504D03*
X4842135Y-1226304D03*
X8338749Y-905212D03*
X5330324Y-1226304D03*
X5818513D03*
X6306702D03*
X6794891D03*
X7283080D03*
X7771269D03*
X5582293Y-2210556D03*
X6070482D03*
X6558671D03*
X7046860D03*
X7535049D03*
X8023238D03*
G54D12*
X8578867Y-1895595D03*
G54D13*
X8577641Y-2351105D02*
Y-2270396D01*
G54D12*
X8578867Y2277632D03*
X4193021Y2277175D03*
X4193040Y-1501894D03*
M02*
