*
%FSLAX26Y26*%
%MOIN*%
%ADD10R,0.038327X0.038327*%
%ADD11C,0.053681*%
%ADD12C,0.057681*%
%ADD13R,0.034532X0.034532*%
%ADD14C,0.009370*%
%ADD15R,0.030531X0.030531*%
%ADD16R,0.046831X0.046831*%
%ADD17C,0.014764*%
%ADD18R,0.050830X0.050830*%
%ADD19R,0.053744X0.053744*%
%ADD20R,0.049744X0.049744*%
%ADD21C,0.015748*%
%ADD22C,0.030181*%
%ADD23C,0.031756*%
%ADD24C,0.004000*%
%ADD25C,0.078992*%
%ADD26C,0.094740*%
%ADD27C,0.094819*%
%ADD28C,0.098425*%
%ADD29C,0.045370*%
%ADD30C,0.005000*%
%IPPOS*%
%LNset63.gbs*%
%LPD*%
G75*
G54D10*
X4618239Y-1740044D02*
X4614302D01*
X4618239Y-1803036D02*
X4614302D01*
G54D11*
X4713357Y-1463075D03*
G54D12*
X4615168Y-1453233D03*
G54D12*
X4715128Y-1557564D03*
G54D12*
X4614302Y-1547170D03*
G54D11*
X4820010Y-2086107D03*
G54D11*
X4537333Y-2084138D03*
G54D12*
X4725522Y-2086107D03*
G54D12*
X4631034D03*
G54D13*
X4619971Y-1979965D02*
X4608633D01*
G54D14*
X4632552Y-1997231D02*
X4596052D01*
X4632552Y-1962699D02*
X4596052D01*
G54D15*
X4619971Y-1916973D02*
X4608632D01*
G54D14*
X4630552Y-1932239D02*
X4598052D01*
X4630552Y-1901707D02*
X4598052D01*
G54D16*
X4802294Y-1801166D02*
Y-1754906D01*
G54D17*
X4778878Y-1817200D02*
Y-1738873D01*
X4825709Y-1817200D02*
Y-1738873D01*
G54D18*
X4802294Y-1929119D02*
Y-1882858D01*
G54D17*
X4776879Y-1947152D02*
Y-1864825D01*
X4827709Y-1947152D02*
Y-1864825D01*
G54D19*
X4684617Y-1779217D03*
G54D19*
Y-1917013D03*
G54D20*
X4541467Y-1950831D02*
Y-1931146D01*
G54D21*
X4516595Y-1967829D02*
Y-1914148D01*
X4566339Y-1967829D02*
Y-1914148D01*
G54D19*
X4541467Y-1805162D02*
Y-1785477D01*
G54D21*
X4514595Y-1824160D02*
Y-1766479D01*
X4568339Y-1824160D02*
Y-1766479D01*
G54D15*
X4694853Y-1686619D02*
Y-1675280D01*
G54D14*
X4679587Y-1697200D02*
Y-1664700D01*
X4710119Y-1697200D02*
Y-1664700D01*
G54D15*
X4757845Y-1686619D02*
Y-1675280D01*
G54D14*
X4742579Y-1697200D02*
Y-1664700D01*
X4773111Y-1697200D02*
Y-1664700D01*
G54D13*
X4738317Y-1986461D02*
Y-1975123D01*
G54D14*
X4721051Y-1999042D02*
Y-1962542D01*
X4755583Y-1999042D02*
Y-1962542D01*
G54D13*
X4675325Y-1986461D02*
Y-1975123D01*
G54D14*
X4658059Y-1999042D02*
Y-1962542D01*
X4692591Y-1999042D02*
Y-1962542D01*
G54D22*
X4812136Y-1514257D03*
G54D22*
Y-1479808D03*
G54D22*
X4776546D03*
G54D22*
Y-1514296D03*
G54D22*
X4777688Y-1444375D03*
G54D22*
X4812569D03*
G54D22*
X4850475Y-1415564D03*
G54D22*
X4554341Y-1720950D03*
G54D22*
X4525719Y-1718981D03*
G54D22*
X4644813Y-1680595D03*
G54D22*
X4502034Y-1492603D03*
G54D22*
X4504034Y-1414894D03*
G54D22*
X4528672Y-2141225D03*
G54D22*
X4553278D03*
G54D23*
X4825916Y-2140194D03*
G54D23*
X4800325D03*
G54D23*
X4851459Y-1694375D03*
G54D23*
X4851617Y-1596028D03*
G54D23*
Y-1511264D03*
G54D23*
X4771231Y-1558548D03*
G54D23*
X4659577Y-1413595D03*
G54D23*
X4564774Y-1413201D03*
G54D23*
X4563121Y-1473902D03*
G54D23*
X4557530Y-1547170D03*
G54D23*
X4570995Y-1586973D03*
G54D23*
X4502105Y-1718981D03*
G54D23*
X4573239Y-1740201D03*
G54D23*
X4502144Y-2048705D03*
G54D23*
Y-2140753D03*
G54D23*
X4620207Y-2142209D03*
G54D23*
X4644577D03*
G54D23*
X4709223Y-2141934D03*
G54D23*
X4735168D03*
G54D10*
X4618239Y-755792D02*
X4614302D01*
X4618239Y-818784D02*
X4614302D01*
G54D11*
X4713357Y-478824D03*
G54D12*
X4615168Y-468981D03*
G54D12*
X4715128Y-573312D03*
G54D12*
X4614302Y-562918D03*
G54D11*
X4820010Y-1101855D03*
G54D11*
X4537333Y-1099887D03*
G54D12*
X4725522Y-1101855D03*
G54D12*
X4631034D03*
G54D13*
X4619971Y-995713D02*
X4608633D01*
G54D14*
X4632552Y-1012979D02*
X4596052D01*
X4632552Y-978447D02*
X4596052D01*
G54D15*
X4619971Y-932721D02*
X4608632D01*
G54D14*
X4630552Y-947987D02*
X4598052D01*
X4630552Y-917455D02*
X4598052D01*
G54D16*
X4802294Y-816914D02*
Y-770654D01*
G54D17*
X4778878Y-832948D02*
Y-754621D01*
X4825709Y-832948D02*
Y-754621D01*
G54D18*
X4802294Y-944867D02*
Y-898606D01*
G54D17*
X4776879Y-962900D02*
Y-880573D01*
X4827709Y-962900D02*
Y-880573D01*
G54D19*
X4684617Y-794965D03*
G54D19*
Y-932761D03*
G54D20*
X4541467Y-966579D02*
Y-946894D01*
G54D21*
X4516595Y-983577D02*
Y-929896D01*
X4566339Y-983577D02*
Y-929896D01*
G54D19*
X4541467Y-820910D02*
Y-801225D01*
G54D21*
X4514595Y-839908D02*
Y-782227D01*
X4568339Y-839908D02*
Y-782227D01*
G54D15*
X4694853Y-702367D02*
Y-691028D01*
G54D14*
X4679587Y-712948D02*
Y-680448D01*
X4710119Y-712948D02*
Y-680448D01*
G54D15*
X4757845Y-702367D02*
Y-691028D01*
G54D14*
X4742579Y-712948D02*
Y-680448D01*
X4773111Y-712948D02*
Y-680448D01*
G54D13*
X4738317Y-1002209D02*
Y-990871D01*
G54D14*
X4721051Y-1014790D02*
Y-978290D01*
X4755583Y-1014790D02*
Y-978290D01*
G54D13*
X4675325Y-1002209D02*
Y-990871D01*
G54D14*
X4658059Y-1014790D02*
Y-978290D01*
X4692591Y-1014790D02*
Y-978290D01*
G54D22*
X4812136Y-530005D03*
G54D22*
Y-495556D03*
G54D22*
X4776546D03*
G54D22*
Y-530044D03*
G54D22*
X4777688Y-460123D03*
G54D22*
X4812569D03*
G54D22*
X4850475Y-431312D03*
G54D22*
X4554341Y-736698D03*
G54D22*
X4525719Y-734729D03*
G54D22*
X4644813Y-696343D03*
G54D22*
X4502034Y-508351D03*
G54D22*
X4504034Y-430642D03*
G54D22*
X4528672Y-1156973D03*
G54D22*
X4553278D03*
G54D23*
X4825916Y-1155942D03*
G54D23*
X4800325D03*
G54D23*
X4851459Y-710123D03*
G54D23*
X4851617Y-611776D03*
G54D23*
Y-527013D03*
G54D23*
X4771231Y-574296D03*
G54D23*
X4659577Y-429343D03*
G54D23*
X4564774Y-428950D03*
G54D23*
X4563121Y-489650D03*
G54D23*
X4557530Y-562918D03*
G54D23*
X4570995Y-602721D03*
G54D23*
X4502105Y-734729D03*
G54D23*
X4573239Y-755950D03*
G54D23*
X4502144Y-1064453D03*
G54D23*
Y-1156501D03*
G54D23*
X4620207Y-1157957D03*
G54D23*
X4644577D03*
G54D23*
X4709223Y-1157682D03*
G54D23*
X4735168D03*
G54D10*
X4618239Y228460D02*
X4614302D01*
X4618239Y165468D02*
X4614302D01*
G54D11*
X4713357Y505428D03*
G54D12*
X4615168Y515271D03*
G54D12*
X4715128Y410940D03*
G54D12*
X4614302Y421334D03*
G54D11*
X4820010Y-117603D03*
G54D11*
X4537333Y-115635D03*
G54D12*
X4725522Y-117603D03*
G54D12*
X4631034D03*
G54D13*
X4619971Y-11461D02*
X4608633D01*
G54D14*
X4632552Y-28727D02*
X4596052D01*
X4632552Y5805D02*
X4596052D01*
G54D15*
X4619971Y51531D02*
X4608632D01*
G54D14*
X4630552Y36265D02*
X4598052D01*
X4630552Y66797D02*
X4598052D01*
G54D16*
X4802294Y167338D02*
Y213598D01*
G54D17*
X4778878Y151304D02*
Y229631D01*
X4825709Y151304D02*
Y229631D01*
G54D18*
X4802294Y39385D02*
Y85645D01*
G54D17*
X4776879Y21351D02*
Y103679D01*
X4827709Y21351D02*
Y103679D01*
G54D19*
X4684617Y189287D03*
G54D19*
Y51491D03*
G54D20*
X4541467Y17673D02*
Y37358D01*
G54D21*
X4516595Y675D02*
Y54356D01*
X4566339Y675D02*
Y54356D01*
G54D19*
X4541467Y163342D02*
Y183027D01*
G54D21*
X4514595Y144344D02*
Y202025D01*
X4568339Y144344D02*
Y202025D01*
G54D15*
X4694853Y281885D02*
Y293224D01*
G54D14*
X4679587Y271304D02*
Y303804D01*
X4710119Y271304D02*
Y303804D01*
G54D15*
X4757845Y281885D02*
Y293224D01*
G54D14*
X4742579Y271304D02*
Y303804D01*
X4773111Y271304D02*
Y303804D01*
G54D13*
X4738317Y-17957D02*
Y-6619D01*
G54D14*
X4721051Y-30538D02*
Y5962D01*
X4755583Y-30538D02*
Y5962D01*
G54D13*
X4675325Y-17957D02*
Y-6619D01*
G54D14*
X4658059Y-30538D02*
Y5962D01*
X4692591Y-30538D02*
Y5962D01*
G54D22*
X4812136Y454247D03*
G54D22*
Y488696D03*
G54D22*
X4776546D03*
G54D22*
Y454208D03*
G54D22*
X4777688Y524129D03*
G54D22*
X4812569D03*
G54D22*
X4850475Y552940D03*
G54D22*
X4554341Y247554D03*
G54D22*
X4525719Y249523D03*
G54D22*
X4644813Y287909D03*
G54D22*
X4502034Y475901D03*
G54D22*
X4504034Y553610D03*
G54D22*
X4528672Y-172721D03*
G54D22*
X4553278D03*
G54D23*
X4825916Y-171690D03*
G54D23*
X4800325D03*
G54D23*
X4851459Y274129D03*
G54D23*
X4851617Y372476D03*
G54D23*
Y457239D03*
G54D23*
X4771231Y409956D03*
G54D23*
X4659577Y554909D03*
G54D23*
X4564774Y555302D03*
G54D23*
X4563121Y494602D03*
G54D23*
X4557530Y421334D03*
G54D23*
X4570995Y381531D03*
G54D23*
X4502105Y249523D03*
G54D23*
X4573239Y228302D03*
G54D23*
X4502144Y-80201D03*
G54D23*
Y-172249D03*
G54D23*
X4620207Y-173705D03*
G54D23*
X4644577D03*
G54D23*
X4709223Y-173430D03*
G54D23*
X4735168D03*
G54D10*
X4618239Y1212712D02*
X4614302D01*
X4618239Y1149720D02*
X4614302D01*
G54D11*
X4713357Y1489680D03*
G54D12*
X4615168Y1499523D03*
G54D12*
X4715128Y1395192D03*
G54D12*
X4614302Y1405586D03*
G54D11*
X4820010Y866649D03*
G54D11*
X4537333Y868617D03*
G54D12*
X4725522Y866649D03*
G54D12*
X4631034D03*
G54D13*
X4619971Y972791D02*
X4608633D01*
G54D14*
X4632552Y955525D02*
X4596052D01*
X4632552Y990057D02*
X4596052D01*
G54D15*
X4619971Y1035783D02*
X4608632D01*
G54D14*
X4630552Y1020517D02*
X4598052D01*
X4630552Y1051049D02*
X4598052D01*
G54D16*
X4802294Y1151590D02*
Y1197850D01*
G54D17*
X4778878Y1135556D02*
Y1213883D01*
X4825709Y1135556D02*
Y1213883D01*
G54D18*
X4802294Y1023637D02*
Y1069897D01*
G54D17*
X4776879Y1005603D02*
Y1087931D01*
X4827709Y1005603D02*
Y1087931D01*
G54D19*
X4684617Y1173539D03*
G54D19*
Y1035743D03*
G54D20*
X4541467Y1001925D02*
Y1021610D01*
G54D21*
X4516595Y984926D02*
Y1038608D01*
X4566339Y984926D02*
Y1038608D01*
G54D19*
X4541467Y1147594D02*
Y1167279D01*
G54D21*
X4514595Y1128596D02*
Y1186277D01*
X4568339Y1128596D02*
Y1186277D01*
G54D15*
X4694853Y1266137D02*
Y1277476D01*
G54D14*
X4679587Y1255556D02*
Y1288056D01*
X4710119Y1255556D02*
Y1288056D01*
G54D15*
X4757845Y1266137D02*
Y1277476D01*
G54D14*
X4742579Y1255556D02*
Y1288056D01*
X4773111Y1255556D02*
Y1288056D01*
G54D13*
X4738317Y966295D02*
Y977633D01*
G54D14*
X4721051Y953714D02*
Y990214D01*
X4755583Y953714D02*
Y990214D01*
G54D13*
X4675325Y966295D02*
Y977633D01*
G54D14*
X4658059Y953714D02*
Y990214D01*
X4692591Y953714D02*
Y990214D01*
G54D22*
X4812136Y1438499D03*
G54D22*
Y1472948D03*
G54D22*
X4776546D03*
G54D22*
Y1438460D03*
G54D22*
X4777688Y1508381D03*
G54D22*
X4812569D03*
G54D22*
X4850475Y1537192D03*
G54D22*
X4554341Y1231806D03*
G54D22*
X4525719Y1233775D03*
G54D22*
X4644813Y1272161D03*
G54D22*
X4502034Y1460153D03*
G54D22*
X4504034Y1537862D03*
G54D22*
X4528672Y811531D03*
G54D22*
X4553278D03*
G54D23*
X4825916Y812562D03*
G54D23*
X4800325D03*
G54D23*
X4851459Y1258381D03*
G54D23*
X4851617Y1356728D03*
G54D23*
Y1441491D03*
G54D23*
X4771231Y1394208D03*
G54D23*
X4659577Y1539161D03*
G54D23*
X4564774Y1539554D03*
G54D23*
X4563121Y1478854D03*
G54D23*
X4557530Y1405586D03*
G54D23*
X4570995Y1365783D03*
G54D23*
X4502105Y1233775D03*
G54D23*
X4573239Y1212554D03*
G54D23*
X4502144Y904050D03*
G54D23*
Y812003D03*
G54D23*
X4620207Y810547D03*
G54D23*
X4644577D03*
G54D23*
X4709223Y810822D03*
G54D23*
X4735168D03*
G54D10*
X4618239Y2196964D02*
X4614302D01*
X4618239Y2133972D02*
X4614302D01*
G54D11*
X4713357Y2473932D03*
G54D12*
X4615168Y2483775D03*
G54D12*
X4715128Y2379444D03*
G54D12*
X4614302Y2389838D03*
G54D11*
X4820010Y1850901D03*
G54D11*
X4537333Y1852869D03*
G54D12*
X4725522Y1850901D03*
G54D12*
X4631034D03*
G54D13*
X4619971Y1957043D02*
X4608633D01*
G54D14*
X4632552Y1939777D02*
X4596052D01*
X4632552Y1974309D02*
X4596052D01*
G54D15*
X4619971Y2020035D02*
X4608632D01*
G54D14*
X4630552Y2004769D02*
X4598052D01*
X4630552Y2035300D02*
X4598052D01*
G54D16*
X4802294Y2135842D02*
Y2182102D01*
G54D17*
X4778878Y2119808D02*
Y2198135D01*
X4825709Y2119808D02*
Y2198135D01*
G54D18*
X4802294Y2007889D02*
Y2054149D01*
G54D17*
X4776879Y1989855D02*
Y2072183D01*
X4827709Y1989855D02*
Y2072183D01*
G54D19*
X4684617Y2157791D03*
G54D19*
Y2019995D03*
G54D20*
X4541467Y1986176D02*
Y2005862D01*
G54D21*
X4516595Y1969178D02*
Y2022860D01*
X4566339Y1969178D02*
Y2022860D01*
G54D19*
X4541467Y2131846D02*
Y2151531D01*
G54D21*
X4514595Y2112848D02*
Y2170529D01*
X4568339Y2112848D02*
Y2170529D01*
G54D15*
X4694853Y2250389D02*
Y2261728D01*
G54D14*
X4679587Y2239808D02*
Y2272308D01*
X4710119Y2239808D02*
Y2272308D01*
G54D15*
X4757845Y2250389D02*
Y2261728D01*
G54D14*
X4742579Y2239808D02*
Y2272308D01*
X4773111Y2239808D02*
Y2272308D01*
G54D13*
X4738317Y1950547D02*
Y1961885D01*
G54D14*
X4721051Y1937966D02*
Y1974466D01*
X4755583Y1937966D02*
Y1974466D01*
G54D13*
X4675325Y1950547D02*
Y1961885D01*
G54D14*
X4658059Y1937966D02*
Y1974466D01*
X4692591Y1937966D02*
Y1974466D01*
G54D22*
X4812136Y2422751D03*
G54D22*
Y2457200D03*
G54D22*
X4776546D03*
G54D22*
Y2422712D03*
G54D22*
X4777688Y2492633D03*
G54D22*
X4812569D03*
G54D22*
X4850475Y2521444D03*
G54D22*
X4554341Y2216058D03*
G54D22*
X4525719Y2218027D03*
G54D22*
X4644813Y2256413D03*
G54D22*
X4502034Y2444405D03*
G54D22*
X4504034Y2522113D03*
G54D22*
X4528672Y1795783D03*
G54D22*
X4553278D03*
G54D23*
X4825916Y1796814D03*
G54D23*
X4800325D03*
G54D23*
X4851459Y2242633D03*
G54D23*
X4851617Y2340980D03*
G54D23*
Y2425743D03*
G54D23*
X4771231Y2378460D03*
G54D23*
X4659577Y2523413D03*
G54D23*
X4564774Y2523806D03*
G54D23*
X4563121Y2463106D03*
G54D23*
X4557530Y2389838D03*
G54D23*
X4570995Y2350035D03*
G54D23*
X4502105Y2218027D03*
G54D23*
X4573239Y2196806D03*
G54D23*
X4502144Y1888302D03*
G54D23*
Y1796255D03*
G54D23*
X4620207Y1794799D03*
G54D23*
X4644577D03*
G54D23*
X4709223Y1795074D03*
G54D23*
X4735168D03*
G54D10*
X5106428Y-1740044D02*
X5102491D01*
X5106428Y-1803036D02*
X5102491D01*
G54D11*
X5201546Y-1463075D03*
G54D12*
X5103357Y-1453233D03*
G54D12*
X5203317Y-1557564D03*
G54D12*
X5102491Y-1547170D03*
G54D11*
X5308199Y-2086107D03*
G54D11*
X5025522Y-2084138D03*
G54D12*
X5213711Y-2086107D03*
G54D12*
X5119223D03*
G54D13*
X5108160Y-1979965D02*
X5096822D01*
G54D14*
X5120741Y-1997231D02*
X5084241D01*
X5120741Y-1962699D02*
X5084241D01*
G54D15*
X5108160Y-1916973D02*
X5096821D01*
G54D14*
X5118741Y-1932239D02*
X5086241D01*
X5118741Y-1901707D02*
X5086241D01*
G54D16*
X5290483Y-1801166D02*
Y-1754906D01*
G54D17*
X5267067Y-1817200D02*
Y-1738873D01*
X5313898Y-1817200D02*
Y-1738873D01*
G54D18*
X5290483Y-1929119D02*
Y-1882858D01*
G54D17*
X5265068Y-1947152D02*
Y-1864825D01*
X5315898Y-1947152D02*
Y-1864825D01*
G54D19*
X5172806Y-1779217D03*
G54D19*
Y-1917013D03*
G54D20*
X5029656Y-1950831D02*
Y-1931146D01*
G54D21*
X5004784Y-1967829D02*
Y-1914148D01*
X5054528Y-1967829D02*
Y-1914148D01*
G54D19*
X5029656Y-1805162D02*
Y-1785477D01*
G54D21*
X5002784Y-1824160D02*
Y-1766479D01*
X5056528Y-1824160D02*
Y-1766479D01*
G54D15*
X5183042Y-1686619D02*
Y-1675280D01*
G54D14*
X5167776Y-1697200D02*
Y-1664700D01*
X5198308Y-1697200D02*
Y-1664700D01*
G54D15*
X5246034Y-1686619D02*
Y-1675280D01*
G54D14*
X5230768Y-1697200D02*
Y-1664700D01*
X5261300Y-1697200D02*
Y-1664700D01*
G54D13*
X5226506Y-1986461D02*
Y-1975123D01*
G54D14*
X5209240Y-1999042D02*
Y-1962542D01*
X5243772Y-1999042D02*
Y-1962542D01*
G54D13*
X5163514Y-1986461D02*
Y-1975123D01*
G54D14*
X5146248Y-1999042D02*
Y-1962542D01*
X5180780Y-1999042D02*
Y-1962542D01*
G54D22*
X5300325Y-1514257D03*
G54D22*
Y-1479808D03*
G54D22*
X5264735D03*
G54D22*
Y-1514296D03*
G54D22*
X5265876Y-1444375D03*
G54D22*
X5300758D03*
G54D22*
X5338664Y-1415564D03*
G54D22*
X5042530Y-1720950D03*
G54D22*
X5013908Y-1718981D03*
G54D22*
X5133002Y-1680595D03*
G54D22*
X4990223Y-1492603D03*
G54D22*
X4992223Y-1414894D03*
G54D22*
X5016861Y-2141225D03*
G54D22*
X5041467D03*
G54D23*
X5314105Y-2140194D03*
G54D23*
X5288514D03*
G54D23*
X5339648Y-1694375D03*
G54D23*
X5339806Y-1596028D03*
G54D23*
Y-1511264D03*
G54D23*
X5259420Y-1558548D03*
G54D23*
X5147766Y-1413595D03*
G54D23*
X5052963Y-1413201D03*
G54D23*
X5051310Y-1473902D03*
G54D23*
X5045719Y-1547170D03*
G54D23*
X5059184Y-1586973D03*
G54D23*
X4990294Y-1718981D03*
G54D23*
X5061428Y-1740201D03*
G54D23*
X4990333Y-2048705D03*
G54D23*
Y-2140753D03*
G54D23*
X5108396Y-2142209D03*
G54D23*
X5132766D03*
G54D23*
X5197412Y-2141934D03*
G54D23*
X5223357D03*
G54D10*
X5106428Y-755792D02*
X5102491D01*
X5106428Y-818784D02*
X5102491D01*
G54D11*
X5201546Y-478824D03*
G54D12*
X5103357Y-468981D03*
G54D12*
X5203317Y-573312D03*
G54D12*
X5102491Y-562918D03*
G54D11*
X5308199Y-1101855D03*
G54D11*
X5025522Y-1099887D03*
G54D12*
X5213711Y-1101855D03*
G54D12*
X5119223D03*
G54D13*
X5108160Y-995713D02*
X5096822D01*
G54D14*
X5120741Y-1012979D02*
X5084241D01*
X5120741Y-978447D02*
X5084241D01*
G54D15*
X5108160Y-932721D02*
X5096821D01*
G54D14*
X5118741Y-947987D02*
X5086241D01*
X5118741Y-917455D02*
X5086241D01*
G54D16*
X5290483Y-816914D02*
Y-770654D01*
G54D17*
X5267067Y-832948D02*
Y-754621D01*
X5313898Y-832948D02*
Y-754621D01*
G54D18*
X5290483Y-944867D02*
Y-898606D01*
G54D17*
X5265068Y-962900D02*
Y-880573D01*
X5315898Y-962900D02*
Y-880573D01*
G54D19*
X5172806Y-794965D03*
G54D19*
Y-932761D03*
G54D20*
X5029656Y-966579D02*
Y-946894D01*
G54D21*
X5004784Y-983577D02*
Y-929896D01*
X5054528Y-983577D02*
Y-929896D01*
G54D19*
X5029656Y-820910D02*
Y-801225D01*
G54D21*
X5002784Y-839908D02*
Y-782227D01*
X5056528Y-839908D02*
Y-782227D01*
G54D15*
X5183042Y-702367D02*
Y-691028D01*
G54D14*
X5167776Y-712948D02*
Y-680448D01*
X5198308Y-712948D02*
Y-680448D01*
G54D15*
X5246034Y-702367D02*
Y-691028D01*
G54D14*
X5230768Y-712948D02*
Y-680448D01*
X5261300Y-712948D02*
Y-680448D01*
G54D13*
X5226506Y-1002209D02*
Y-990871D01*
G54D14*
X5209240Y-1014790D02*
Y-978290D01*
X5243772Y-1014790D02*
Y-978290D01*
G54D13*
X5163514Y-1002209D02*
Y-990871D01*
G54D14*
X5146248Y-1014790D02*
Y-978290D01*
X5180780Y-1014790D02*
Y-978290D01*
G54D22*
X5300325Y-530005D03*
G54D22*
Y-495556D03*
G54D22*
X5264735D03*
G54D22*
Y-530044D03*
G54D22*
X5265876Y-460123D03*
G54D22*
X5300758D03*
G54D22*
X5338664Y-431312D03*
G54D22*
X5042530Y-736698D03*
G54D22*
X5013908Y-734729D03*
G54D22*
X5133002Y-696343D03*
G54D22*
X4990223Y-508351D03*
G54D22*
X4992223Y-430642D03*
G54D22*
X5016861Y-1156973D03*
G54D22*
X5041467D03*
G54D23*
X5314105Y-1155942D03*
G54D23*
X5288514D03*
G54D23*
X5339648Y-710123D03*
G54D23*
X5339806Y-611776D03*
G54D23*
Y-527013D03*
G54D23*
X5259420Y-574296D03*
G54D23*
X5147766Y-429343D03*
G54D23*
X5052963Y-428950D03*
G54D23*
X5051310Y-489650D03*
G54D23*
X5045719Y-562918D03*
G54D23*
X5059184Y-602721D03*
G54D23*
X4990294Y-734729D03*
G54D23*
X5061428Y-755950D03*
G54D23*
X4990333Y-1064453D03*
G54D23*
Y-1156501D03*
G54D23*
X5108396Y-1157957D03*
G54D23*
X5132766D03*
G54D23*
X5197412Y-1157682D03*
G54D23*
X5223357D03*
G54D10*
X5106428Y228460D02*
X5102491D01*
X5106428Y165468D02*
X5102491D01*
G54D11*
X5201546Y505428D03*
G54D12*
X5103357Y515271D03*
G54D12*
X5203317Y410940D03*
G54D12*
X5102491Y421334D03*
G54D11*
X5308199Y-117603D03*
G54D11*
X5025522Y-115635D03*
G54D12*
X5213711Y-117603D03*
G54D12*
X5119223D03*
G54D13*
X5108160Y-11461D02*
X5096822D01*
G54D14*
X5120741Y-28727D02*
X5084241D01*
X5120741Y5805D02*
X5084241D01*
G54D15*
X5108160Y51531D02*
X5096821D01*
G54D14*
X5118741Y36265D02*
X5086241D01*
X5118741Y66797D02*
X5086241D01*
G54D16*
X5290483Y167338D02*
Y213598D01*
G54D17*
X5267067Y151304D02*
Y229631D01*
X5313898Y151304D02*
Y229631D01*
G54D18*
X5290483Y39385D02*
Y85645D01*
G54D17*
X5265068Y21351D02*
Y103679D01*
X5315898Y21351D02*
Y103679D01*
G54D19*
X5172806Y189287D03*
G54D19*
Y51491D03*
G54D20*
X5029656Y17673D02*
Y37358D01*
G54D21*
X5004784Y675D02*
Y54356D01*
X5054528Y675D02*
Y54356D01*
G54D19*
X5029656Y163342D02*
Y183027D01*
G54D21*
X5002784Y144344D02*
Y202025D01*
X5056528Y144344D02*
Y202025D01*
G54D15*
X5183042Y281885D02*
Y293224D01*
G54D14*
X5167776Y271304D02*
Y303804D01*
X5198308Y271304D02*
Y303804D01*
G54D15*
X5246034Y281885D02*
Y293224D01*
G54D14*
X5230768Y271304D02*
Y303804D01*
X5261300Y271304D02*
Y303804D01*
G54D13*
X5226506Y-17957D02*
Y-6619D01*
G54D14*
X5209240Y-30538D02*
Y5962D01*
X5243772Y-30538D02*
Y5962D01*
G54D13*
X5163514Y-17957D02*
Y-6619D01*
G54D14*
X5146248Y-30538D02*
Y5962D01*
X5180780Y-30538D02*
Y5962D01*
G54D22*
X5300325Y454247D03*
G54D22*
Y488696D03*
G54D22*
X5264735D03*
G54D22*
Y454208D03*
G54D22*
X5265876Y524129D03*
G54D22*
X5300758D03*
G54D22*
X5338664Y552940D03*
G54D22*
X5042530Y247554D03*
G54D22*
X5013908Y249523D03*
G54D22*
X5133002Y287909D03*
G54D22*
X4990223Y475901D03*
G54D22*
X4992223Y553610D03*
G54D22*
X5016861Y-172721D03*
G54D22*
X5041467D03*
G54D23*
X5314105Y-171690D03*
G54D23*
X5288514D03*
G54D23*
X5339648Y274129D03*
G54D23*
X5339806Y372476D03*
G54D23*
Y457239D03*
G54D23*
X5259420Y409956D03*
G54D23*
X5147766Y554909D03*
G54D23*
X5052963Y555302D03*
G54D23*
X5051310Y494602D03*
G54D23*
X5045719Y421334D03*
G54D23*
X5059184Y381531D03*
G54D23*
X4990294Y249523D03*
G54D23*
X5061428Y228302D03*
G54D23*
X4990333Y-80201D03*
G54D23*
Y-172249D03*
G54D23*
X5108396Y-173705D03*
G54D23*
X5132766D03*
G54D23*
X5197412Y-173430D03*
G54D23*
X5223357D03*
G54D10*
X5106428Y1212712D02*
X5102491D01*
X5106428Y1149720D02*
X5102491D01*
G54D11*
X5201546Y1489680D03*
G54D12*
X5103357Y1499523D03*
G54D12*
X5203317Y1395192D03*
G54D12*
X5102491Y1405586D03*
G54D11*
X5308199Y866649D03*
G54D11*
X5025522Y868617D03*
G54D12*
X5213711Y866649D03*
G54D12*
X5119223D03*
G54D13*
X5108160Y972791D02*
X5096822D01*
G54D14*
X5120741Y955525D02*
X5084241D01*
X5120741Y990057D02*
X5084241D01*
G54D15*
X5108160Y1035783D02*
X5096821D01*
G54D14*
X5118741Y1020517D02*
X5086241D01*
X5118741Y1051049D02*
X5086241D01*
G54D16*
X5290483Y1151590D02*
Y1197850D01*
G54D17*
X5267067Y1135556D02*
Y1213883D01*
X5313898Y1135556D02*
Y1213883D01*
G54D18*
X5290483Y1023637D02*
Y1069897D01*
G54D17*
X5265068Y1005603D02*
Y1087931D01*
X5315898Y1005603D02*
Y1087931D01*
G54D19*
X5172806Y1173539D03*
G54D19*
Y1035743D03*
G54D20*
X5029656Y1001925D02*
Y1021610D01*
G54D21*
X5004784Y984926D02*
Y1038608D01*
X5054528Y984926D02*
Y1038608D01*
G54D19*
X5029656Y1147594D02*
Y1167279D01*
G54D21*
X5002784Y1128596D02*
Y1186277D01*
X5056528Y1128596D02*
Y1186277D01*
G54D15*
X5183042Y1266137D02*
Y1277476D01*
G54D14*
X5167776Y1255556D02*
Y1288056D01*
X5198308Y1255556D02*
Y1288056D01*
G54D15*
X5246034Y1266137D02*
Y1277476D01*
G54D14*
X5230768Y1255556D02*
Y1288056D01*
X5261300Y1255556D02*
Y1288056D01*
G54D13*
X5226506Y966295D02*
Y977633D01*
G54D14*
X5209240Y953714D02*
Y990214D01*
X5243772Y953714D02*
Y990214D01*
G54D13*
X5163514Y966295D02*
Y977633D01*
G54D14*
X5146248Y953714D02*
Y990214D01*
X5180780Y953714D02*
Y990214D01*
G54D22*
X5300325Y1438499D03*
G54D22*
Y1472948D03*
G54D22*
X5264735D03*
G54D22*
Y1438460D03*
G54D22*
X5265876Y1508381D03*
G54D22*
X5300758D03*
G54D22*
X5338664Y1537192D03*
G54D22*
X5042530Y1231806D03*
G54D22*
X5013908Y1233775D03*
G54D22*
X5133002Y1272161D03*
G54D22*
X4990223Y1460153D03*
G54D22*
X4992223Y1537862D03*
G54D22*
X5016861Y811531D03*
G54D22*
X5041467D03*
G54D23*
X5314105Y812562D03*
G54D23*
X5288514D03*
G54D23*
X5339648Y1258381D03*
G54D23*
X5339806Y1356728D03*
G54D23*
Y1441491D03*
G54D23*
X5259420Y1394208D03*
G54D23*
X5147766Y1539161D03*
G54D23*
X5052963Y1539554D03*
G54D23*
X5051310Y1478854D03*
G54D23*
X5045719Y1405586D03*
G54D23*
X5059184Y1365783D03*
G54D23*
X4990294Y1233775D03*
G54D23*
X5061428Y1212554D03*
G54D23*
X4990333Y904050D03*
G54D23*
Y812003D03*
G54D23*
X5108396Y810547D03*
G54D23*
X5132766D03*
G54D23*
X5197412Y810822D03*
G54D23*
X5223357D03*
G54D10*
X5106428Y2196964D02*
X5102491D01*
X5106428Y2133972D02*
X5102491D01*
G54D11*
X5201546Y2473932D03*
G54D12*
X5103357Y2483775D03*
G54D12*
X5203317Y2379444D03*
G54D12*
X5102491Y2389838D03*
G54D11*
X5308199Y1850901D03*
G54D11*
X5025522Y1852869D03*
G54D12*
X5213711Y1850901D03*
G54D12*
X5119223D03*
G54D13*
X5108160Y1957043D02*
X5096822D01*
G54D14*
X5120741Y1939777D02*
X5084241D01*
X5120741Y1974309D02*
X5084241D01*
G54D15*
X5108160Y2020035D02*
X5096821D01*
G54D14*
X5118741Y2004769D02*
X5086241D01*
X5118741Y2035300D02*
X5086241D01*
G54D16*
X5290483Y2135842D02*
Y2182102D01*
G54D17*
X5267067Y2119808D02*
Y2198135D01*
X5313898Y2119808D02*
Y2198135D01*
G54D18*
X5290483Y2007889D02*
Y2054149D01*
G54D17*
X5265068Y1989855D02*
Y2072183D01*
X5315898Y1989855D02*
Y2072183D01*
G54D19*
X5172806Y2157791D03*
G54D19*
Y2019995D03*
G54D20*
X5029656Y1986176D02*
Y2005862D01*
G54D21*
X5004784Y1969178D02*
Y2022860D01*
X5054528Y1969178D02*
Y2022860D01*
G54D19*
X5029656Y2131846D02*
Y2151531D01*
G54D21*
X5002784Y2112848D02*
Y2170529D01*
X5056528Y2112848D02*
Y2170529D01*
G54D15*
X5183042Y2250389D02*
Y2261728D01*
G54D14*
X5167776Y2239808D02*
Y2272308D01*
X5198308Y2239808D02*
Y2272308D01*
G54D15*
X5246034Y2250389D02*
Y2261728D01*
G54D14*
X5230768Y2239808D02*
Y2272308D01*
X5261300Y2239808D02*
Y2272308D01*
G54D13*
X5226506Y1950547D02*
Y1961885D01*
G54D14*
X5209240Y1937966D02*
Y1974466D01*
X5243772Y1937966D02*
Y1974466D01*
G54D13*
X5163514Y1950547D02*
Y1961885D01*
G54D14*
X5146248Y1937966D02*
Y1974466D01*
X5180780Y1937966D02*
Y1974466D01*
G54D22*
X5300325Y2422751D03*
G54D22*
Y2457200D03*
G54D22*
X5264735D03*
G54D22*
Y2422712D03*
G54D22*
X5265876Y2492633D03*
G54D22*
X5300758D03*
G54D22*
X5338664Y2521444D03*
G54D22*
X5042530Y2216058D03*
G54D22*
X5013908Y2218027D03*
G54D22*
X5133002Y2256413D03*
G54D22*
X4990223Y2444405D03*
G54D22*
X4992223Y2522113D03*
G54D22*
X5016861Y1795783D03*
G54D22*
X5041467D03*
G54D23*
X5314105Y1796814D03*
G54D23*
X5288514D03*
G54D23*
X5339648Y2242633D03*
G54D23*
X5339806Y2340980D03*
G54D23*
Y2425743D03*
G54D23*
X5259420Y2378460D03*
G54D23*
X5147766Y2523413D03*
G54D23*
X5052963Y2523806D03*
G54D23*
X5051310Y2463106D03*
G54D23*
X5045719Y2389838D03*
G54D23*
X5059184Y2350035D03*
G54D23*
X4990294Y2218027D03*
G54D23*
X5061428Y2196806D03*
G54D23*
X4990333Y1888302D03*
G54D23*
Y1796255D03*
G54D23*
X5108396Y1794799D03*
G54D23*
X5132766D03*
G54D23*
X5197412Y1795074D03*
G54D23*
X5223357D03*
G54D10*
X5594617Y-1740044D02*
X5590680D01*
X5594617Y-1803036D02*
X5590680D01*
G54D11*
X5689735Y-1463075D03*
G54D12*
X5591546Y-1453233D03*
G54D12*
X5691506Y-1557564D03*
G54D12*
X5590680Y-1547170D03*
G54D11*
X5796388Y-2086107D03*
G54D11*
X5513711Y-2084138D03*
G54D12*
X5701900Y-2086107D03*
G54D12*
X5607412D03*
G54D13*
X5596349Y-1979965D02*
X5585011D01*
G54D14*
X5608930Y-1997231D02*
X5572430D01*
X5608930Y-1962699D02*
X5572430D01*
G54D15*
X5596349Y-1916973D02*
X5585010D01*
G54D14*
X5606930Y-1932239D02*
X5574430D01*
X5606930Y-1901707D02*
X5574430D01*
G54D16*
X5778672Y-1801166D02*
Y-1754906D01*
G54D17*
X5755256Y-1817200D02*
Y-1738873D01*
X5802087Y-1817200D02*
Y-1738873D01*
G54D18*
X5778672Y-1929119D02*
Y-1882858D01*
G54D17*
X5753257Y-1947152D02*
Y-1864825D01*
X5804087Y-1947152D02*
Y-1864825D01*
G54D19*
X5660995Y-1779217D03*
G54D19*
Y-1917013D03*
G54D20*
X5517845Y-1950831D02*
Y-1931146D01*
G54D21*
X5492973Y-1967829D02*
Y-1914148D01*
X5542717Y-1967829D02*
Y-1914148D01*
G54D19*
X5517845Y-1805162D02*
Y-1785477D01*
G54D21*
X5490973Y-1824160D02*
Y-1766479D01*
X5544717Y-1824160D02*
Y-1766479D01*
G54D15*
X5671231Y-1686619D02*
Y-1675280D01*
G54D14*
X5655965Y-1697200D02*
Y-1664700D01*
X5686497Y-1697200D02*
Y-1664700D01*
G54D15*
X5734223Y-1686619D02*
Y-1675280D01*
G54D14*
X5718957Y-1697200D02*
Y-1664700D01*
X5749489Y-1697200D02*
Y-1664700D01*
G54D13*
X5714695Y-1986461D02*
Y-1975123D01*
G54D14*
X5697429Y-1999042D02*
Y-1962542D01*
X5731961Y-1999042D02*
Y-1962542D01*
G54D13*
X5651703Y-1986461D02*
Y-1975123D01*
G54D14*
X5634437Y-1999042D02*
Y-1962542D01*
X5668969Y-1999042D02*
Y-1962542D01*
G54D22*
X5788514Y-1514257D03*
G54D22*
Y-1479808D03*
G54D22*
X5752924D03*
G54D22*
Y-1514296D03*
G54D22*
X5754065Y-1444375D03*
G54D22*
X5788947D03*
G54D22*
X5826853Y-1415564D03*
G54D22*
X5530719Y-1720950D03*
G54D22*
X5502097Y-1718981D03*
G54D22*
X5621191Y-1680595D03*
G54D22*
X5478412Y-1492603D03*
G54D22*
X5480412Y-1414894D03*
G54D22*
X5505050Y-2141225D03*
G54D22*
X5529656D03*
G54D23*
X5802294Y-2140194D03*
G54D23*
X5776703D03*
G54D23*
X5827837Y-1694375D03*
G54D23*
X5827995Y-1596028D03*
G54D23*
Y-1511264D03*
G54D23*
X5747609Y-1558548D03*
G54D23*
X5635955Y-1413595D03*
G54D23*
X5541152Y-1413201D03*
G54D23*
X5539499Y-1473902D03*
G54D23*
X5533908Y-1547170D03*
G54D23*
X5547373Y-1586973D03*
G54D23*
X5478483Y-1718981D03*
G54D23*
X5549617Y-1740201D03*
G54D23*
X5478522Y-2048705D03*
G54D23*
Y-2140753D03*
G54D23*
X5596585Y-2142209D03*
G54D23*
X5620955D03*
G54D23*
X5685601Y-2141934D03*
G54D23*
X5711546D03*
G54D10*
X5594617Y-755792D02*
X5590680D01*
X5594617Y-818784D02*
X5590680D01*
G54D11*
X5689735Y-478824D03*
G54D12*
X5591546Y-468981D03*
G54D12*
X5691506Y-573312D03*
G54D12*
X5590680Y-562918D03*
G54D11*
X5796388Y-1101855D03*
G54D11*
X5513711Y-1099887D03*
G54D12*
X5701900Y-1101855D03*
G54D12*
X5607412D03*
G54D13*
X5596349Y-995713D02*
X5585011D01*
G54D14*
X5608930Y-1012979D02*
X5572430D01*
X5608930Y-978447D02*
X5572430D01*
G54D15*
X5596349Y-932721D02*
X5585010D01*
G54D14*
X5606930Y-947987D02*
X5574430D01*
X5606930Y-917455D02*
X5574430D01*
G54D16*
X5778672Y-816914D02*
Y-770654D01*
G54D17*
X5755256Y-832948D02*
Y-754621D01*
X5802087Y-832948D02*
Y-754621D01*
G54D18*
X5778672Y-944867D02*
Y-898606D01*
G54D17*
X5753257Y-962900D02*
Y-880573D01*
X5804087Y-962900D02*
Y-880573D01*
G54D19*
X5660995Y-794965D03*
G54D19*
Y-932761D03*
G54D20*
X5517845Y-966579D02*
Y-946894D01*
G54D21*
X5492973Y-983577D02*
Y-929896D01*
X5542717Y-983577D02*
Y-929896D01*
G54D19*
X5517845Y-820910D02*
Y-801225D01*
G54D21*
X5490973Y-839908D02*
Y-782227D01*
X5544717Y-839908D02*
Y-782227D01*
G54D15*
X5671231Y-702367D02*
Y-691028D01*
G54D14*
X5655965Y-712948D02*
Y-680448D01*
X5686497Y-712948D02*
Y-680448D01*
G54D15*
X5734223Y-702367D02*
Y-691028D01*
G54D14*
X5718957Y-712948D02*
Y-680448D01*
X5749489Y-712948D02*
Y-680448D01*
G54D13*
X5714695Y-1002209D02*
Y-990871D01*
G54D14*
X5697429Y-1014790D02*
Y-978290D01*
X5731961Y-1014790D02*
Y-978290D01*
G54D13*
X5651703Y-1002209D02*
Y-990871D01*
G54D14*
X5634437Y-1014790D02*
Y-978290D01*
X5668969Y-1014790D02*
Y-978290D01*
G54D22*
X5788514Y-530005D03*
G54D22*
Y-495556D03*
G54D22*
X5752924D03*
G54D22*
Y-530044D03*
G54D22*
X5754065Y-460123D03*
G54D22*
X5788947D03*
G54D22*
X5826853Y-431312D03*
G54D22*
X5530719Y-736698D03*
G54D22*
X5502097Y-734729D03*
G54D22*
X5621191Y-696343D03*
G54D22*
X5478412Y-508351D03*
G54D22*
X5480412Y-430642D03*
G54D22*
X5505050Y-1156973D03*
G54D22*
X5529656D03*
G54D23*
X5802294Y-1155942D03*
G54D23*
X5776703D03*
G54D23*
X5827837Y-710123D03*
G54D23*
X5827995Y-611776D03*
G54D23*
Y-527013D03*
G54D23*
X5747609Y-574296D03*
G54D23*
X5635955Y-429343D03*
G54D23*
X5541152Y-428950D03*
G54D23*
X5539499Y-489650D03*
G54D23*
X5533908Y-562918D03*
G54D23*
X5547373Y-602721D03*
G54D23*
X5478483Y-734729D03*
G54D23*
X5549617Y-755950D03*
G54D23*
X5478522Y-1064453D03*
G54D23*
Y-1156501D03*
G54D23*
X5596585Y-1157957D03*
G54D23*
X5620955D03*
G54D23*
X5685601Y-1157682D03*
G54D23*
X5711546D03*
G54D10*
X5594617Y228460D02*
X5590680D01*
X5594617Y165468D02*
X5590680D01*
G54D11*
X5689735Y505428D03*
G54D12*
X5591546Y515271D03*
G54D12*
X5691506Y410940D03*
G54D12*
X5590680Y421334D03*
G54D11*
X5796388Y-117603D03*
G54D11*
X5513711Y-115635D03*
G54D12*
X5701900Y-117603D03*
G54D12*
X5607412D03*
G54D13*
X5596349Y-11461D02*
X5585011D01*
G54D14*
X5608930Y-28727D02*
X5572430D01*
X5608930Y5805D02*
X5572430D01*
G54D15*
X5596349Y51531D02*
X5585010D01*
G54D14*
X5606930Y36265D02*
X5574430D01*
X5606930Y66797D02*
X5574430D01*
G54D16*
X5778672Y167338D02*
Y213598D01*
G54D17*
X5755256Y151304D02*
Y229631D01*
X5802087Y151304D02*
Y229631D01*
G54D18*
X5778672Y39385D02*
Y85645D01*
G54D17*
X5753257Y21351D02*
Y103679D01*
X5804087Y21351D02*
Y103679D01*
G54D19*
X5660995Y189287D03*
G54D19*
Y51491D03*
G54D20*
X5517845Y17673D02*
Y37358D01*
G54D21*
X5492973Y675D02*
Y54356D01*
X5542717Y675D02*
Y54356D01*
G54D19*
X5517845Y163342D02*
Y183027D01*
G54D21*
X5490973Y144344D02*
Y202025D01*
X5544717Y144344D02*
Y202025D01*
G54D15*
X5671231Y281885D02*
Y293224D01*
G54D14*
X5655965Y271304D02*
Y303804D01*
X5686497Y271304D02*
Y303804D01*
G54D15*
X5734223Y281885D02*
Y293224D01*
G54D14*
X5718957Y271304D02*
Y303804D01*
X5749489Y271304D02*
Y303804D01*
G54D13*
X5714695Y-17957D02*
Y-6619D01*
G54D14*
X5697429Y-30538D02*
Y5962D01*
X5731961Y-30538D02*
Y5962D01*
G54D13*
X5651703Y-17957D02*
Y-6619D01*
G54D14*
X5634437Y-30538D02*
Y5962D01*
X5668969Y-30538D02*
Y5962D01*
G54D22*
X5788514Y454247D03*
G54D22*
Y488696D03*
G54D22*
X5752924D03*
G54D22*
Y454208D03*
G54D22*
X5754065Y524129D03*
G54D22*
X5788947D03*
G54D22*
X5826853Y552940D03*
G54D22*
X5530719Y247554D03*
G54D22*
X5502097Y249523D03*
G54D22*
X5621191Y287909D03*
G54D22*
X5478412Y475901D03*
G54D22*
X5480412Y553610D03*
G54D22*
X5505050Y-172721D03*
G54D22*
X5529656D03*
G54D23*
X5802294Y-171690D03*
G54D23*
X5776703D03*
G54D23*
X5827837Y274129D03*
G54D23*
X5827995Y372476D03*
G54D23*
Y457239D03*
G54D23*
X5747609Y409956D03*
G54D23*
X5635955Y554909D03*
G54D23*
X5541152Y555302D03*
G54D23*
X5539499Y494602D03*
G54D23*
X5533908Y421334D03*
G54D23*
X5547373Y381531D03*
G54D23*
X5478483Y249523D03*
G54D23*
X5549617Y228302D03*
G54D23*
X5478522Y-80201D03*
G54D23*
Y-172249D03*
G54D23*
X5596585Y-173705D03*
G54D23*
X5620955D03*
G54D23*
X5685601Y-173430D03*
G54D23*
X5711546D03*
G54D10*
X5594617Y1212712D02*
X5590680D01*
X5594617Y1149720D02*
X5590680D01*
G54D11*
X5689735Y1489680D03*
G54D12*
X5591546Y1499523D03*
G54D12*
X5691506Y1395192D03*
G54D12*
X5590680Y1405586D03*
G54D11*
X5796388Y866649D03*
G54D11*
X5513711Y868617D03*
G54D12*
X5701900Y866649D03*
G54D12*
X5607412D03*
G54D13*
X5596349Y972791D02*
X5585011D01*
G54D14*
X5608930Y955525D02*
X5572430D01*
X5608930Y990057D02*
X5572430D01*
G54D15*
X5596349Y1035783D02*
X5585010D01*
G54D14*
X5606930Y1020517D02*
X5574430D01*
X5606930Y1051049D02*
X5574430D01*
G54D16*
X5778672Y1151590D02*
Y1197850D01*
G54D17*
X5755256Y1135556D02*
Y1213883D01*
X5802087Y1135556D02*
Y1213883D01*
G54D18*
X5778672Y1023637D02*
Y1069897D01*
G54D17*
X5753257Y1005603D02*
Y1087931D01*
X5804087Y1005603D02*
Y1087931D01*
G54D19*
X5660995Y1173539D03*
G54D19*
Y1035743D03*
G54D20*
X5517845Y1001925D02*
Y1021610D01*
G54D21*
X5492973Y984926D02*
Y1038608D01*
X5542717Y984926D02*
Y1038608D01*
G54D19*
X5517845Y1147594D02*
Y1167279D01*
G54D21*
X5490973Y1128596D02*
Y1186277D01*
X5544717Y1128596D02*
Y1186277D01*
G54D15*
X5671231Y1266137D02*
Y1277476D01*
G54D14*
X5655965Y1255556D02*
Y1288056D01*
X5686497Y1255556D02*
Y1288056D01*
G54D15*
X5734223Y1266137D02*
Y1277476D01*
G54D14*
X5718957Y1255556D02*
Y1288056D01*
X5749489Y1255556D02*
Y1288056D01*
G54D13*
X5714695Y966295D02*
Y977633D01*
G54D14*
X5697429Y953714D02*
Y990214D01*
X5731961Y953714D02*
Y990214D01*
G54D13*
X5651703Y966295D02*
Y977633D01*
G54D14*
X5634437Y953714D02*
Y990214D01*
X5668969Y953714D02*
Y990214D01*
G54D22*
X5788514Y1438499D03*
G54D22*
Y1472948D03*
G54D22*
X5752924D03*
G54D22*
Y1438460D03*
G54D22*
X5754065Y1508381D03*
G54D22*
X5788947D03*
G54D22*
X5826853Y1537192D03*
G54D22*
X5530719Y1231806D03*
G54D22*
X5502097Y1233775D03*
G54D22*
X5621191Y1272161D03*
G54D22*
X5478412Y1460153D03*
G54D22*
X5480412Y1537862D03*
G54D22*
X5505050Y811531D03*
G54D22*
X5529656D03*
G54D23*
X5802294Y812562D03*
G54D23*
X5776703D03*
G54D23*
X5827837Y1258381D03*
G54D23*
X5827995Y1356728D03*
G54D23*
Y1441491D03*
G54D23*
X5747609Y1394208D03*
G54D23*
X5635955Y1539161D03*
G54D23*
X5541152Y1539554D03*
G54D23*
X5539499Y1478854D03*
G54D23*
X5533908Y1405586D03*
G54D23*
X5547373Y1365783D03*
G54D23*
X5478483Y1233775D03*
G54D23*
X5549617Y1212554D03*
G54D23*
X5478522Y904050D03*
G54D23*
Y812003D03*
G54D23*
X5596585Y810547D03*
G54D23*
X5620955D03*
G54D23*
X5685601Y810822D03*
G54D23*
X5711546D03*
G54D10*
X5594617Y2196964D02*
X5590680D01*
X5594617Y2133972D02*
X5590680D01*
G54D11*
X5689735Y2473932D03*
G54D12*
X5591546Y2483775D03*
G54D12*
X5691506Y2379444D03*
G54D12*
X5590680Y2389838D03*
G54D11*
X5796388Y1850901D03*
G54D11*
X5513711Y1852869D03*
G54D12*
X5701900Y1850901D03*
G54D12*
X5607412D03*
G54D13*
X5596349Y1957043D02*
X5585011D01*
G54D14*
X5608930Y1939777D02*
X5572430D01*
X5608930Y1974309D02*
X5572430D01*
G54D15*
X5596349Y2020035D02*
X5585010D01*
G54D14*
X5606930Y2004769D02*
X5574430D01*
X5606930Y2035300D02*
X5574430D01*
G54D16*
X5778672Y2135842D02*
Y2182102D01*
G54D17*
X5755256Y2119808D02*
Y2198135D01*
X5802087Y2119808D02*
Y2198135D01*
G54D18*
X5778672Y2007889D02*
Y2054149D01*
G54D17*
X5753257Y1989855D02*
Y2072183D01*
X5804087Y1989855D02*
Y2072183D01*
G54D19*
X5660995Y2157791D03*
G54D19*
Y2019995D03*
G54D20*
X5517845Y1986176D02*
Y2005862D01*
G54D21*
X5492973Y1969178D02*
Y2022860D01*
X5542717Y1969178D02*
Y2022860D01*
G54D19*
X5517845Y2131846D02*
Y2151531D01*
G54D21*
X5490973Y2112848D02*
Y2170529D01*
X5544717Y2112848D02*
Y2170529D01*
G54D15*
X5671231Y2250389D02*
Y2261728D01*
G54D14*
X5655965Y2239808D02*
Y2272308D01*
X5686497Y2239808D02*
Y2272308D01*
G54D15*
X5734223Y2250389D02*
Y2261728D01*
G54D14*
X5718957Y2239808D02*
Y2272308D01*
X5749489Y2239808D02*
Y2272308D01*
G54D13*
X5714695Y1950547D02*
Y1961885D01*
G54D14*
X5697429Y1937966D02*
Y1974466D01*
X5731961Y1937966D02*
Y1974466D01*
G54D13*
X5651703Y1950547D02*
Y1961885D01*
G54D14*
X5634437Y1937966D02*
Y1974466D01*
X5668969Y1937966D02*
Y1974466D01*
G54D22*
X5788514Y2422751D03*
G54D22*
Y2457200D03*
G54D22*
X5752924D03*
G54D22*
Y2422712D03*
G54D22*
X5754065Y2492633D03*
G54D22*
X5788947D03*
G54D22*
X5826853Y2521444D03*
G54D22*
X5530719Y2216058D03*
G54D22*
X5502097Y2218027D03*
G54D22*
X5621191Y2256413D03*
G54D22*
X5478412Y2444405D03*
G54D22*
X5480412Y2522113D03*
G54D22*
X5505050Y1795783D03*
G54D22*
X5529656D03*
G54D23*
X5802294Y1796814D03*
G54D23*
X5776703D03*
G54D23*
X5827837Y2242633D03*
G54D23*
X5827995Y2340980D03*
G54D23*
Y2425743D03*
G54D23*
X5747609Y2378460D03*
G54D23*
X5635955Y2523413D03*
G54D23*
X5541152Y2523806D03*
G54D23*
X5539499Y2463106D03*
G54D23*
X5533908Y2389838D03*
G54D23*
X5547373Y2350035D03*
G54D23*
X5478483Y2218027D03*
G54D23*
X5549617Y2196806D03*
G54D23*
X5478522Y1888302D03*
G54D23*
Y1796255D03*
G54D23*
X5596585Y1794799D03*
G54D23*
X5620955D03*
G54D23*
X5685601Y1795074D03*
G54D23*
X5711546D03*
G54D10*
X6082806Y-1740044D02*
X6078869D01*
X6082806Y-1803036D02*
X6078869D01*
G54D11*
X6177924Y-1463075D03*
G54D12*
X6079735Y-1453233D03*
G54D12*
X6179695Y-1557564D03*
G54D12*
X6078869Y-1547170D03*
G54D11*
X6284577Y-2086107D03*
G54D11*
X6001900Y-2084138D03*
G54D12*
X6190089Y-2086107D03*
G54D12*
X6095601D03*
G54D13*
X6084538Y-1979965D02*
X6073200D01*
G54D14*
X6097119Y-1997231D02*
X6060619D01*
X6097119Y-1962699D02*
X6060619D01*
G54D15*
X6084538Y-1916973D02*
X6073199D01*
G54D14*
X6095119Y-1932239D02*
X6062619D01*
X6095119Y-1901707D02*
X6062619D01*
G54D16*
X6266861Y-1801166D02*
Y-1754906D01*
G54D17*
X6243445Y-1817200D02*
Y-1738873D01*
X6290276Y-1817200D02*
Y-1738873D01*
G54D18*
X6266861Y-1929119D02*
Y-1882858D01*
G54D17*
X6241446Y-1947152D02*
Y-1864825D01*
X6292276Y-1947152D02*
Y-1864825D01*
G54D19*
X6149184Y-1779217D03*
G54D19*
Y-1917013D03*
G54D20*
X6006034Y-1950831D02*
Y-1931146D01*
G54D21*
X5981162Y-1967829D02*
Y-1914148D01*
X6030906Y-1967829D02*
Y-1914148D01*
G54D19*
X6006034Y-1805162D02*
Y-1785477D01*
G54D21*
X5979162Y-1824160D02*
Y-1766479D01*
X6032906Y-1824160D02*
Y-1766479D01*
G54D15*
X6159420Y-1686619D02*
Y-1675280D01*
G54D14*
X6144154Y-1697200D02*
Y-1664700D01*
X6174686Y-1697200D02*
Y-1664700D01*
G54D15*
X6222412Y-1686619D02*
Y-1675280D01*
G54D14*
X6207146Y-1697200D02*
Y-1664700D01*
X6237678Y-1697200D02*
Y-1664700D01*
G54D13*
X6202884Y-1986461D02*
Y-1975123D01*
G54D14*
X6185618Y-1999042D02*
Y-1962542D01*
X6220150Y-1999042D02*
Y-1962542D01*
G54D13*
X6139892Y-1986461D02*
Y-1975123D01*
G54D14*
X6122626Y-1999042D02*
Y-1962542D01*
X6157158Y-1999042D02*
Y-1962542D01*
G54D22*
X6276703Y-1514257D03*
G54D22*
Y-1479808D03*
G54D22*
X6241113D03*
G54D22*
Y-1514296D03*
G54D22*
X6242254Y-1444375D03*
G54D22*
X6277136D03*
G54D22*
X6315042Y-1415564D03*
G54D22*
X6018908Y-1720950D03*
G54D22*
X5990286Y-1718981D03*
G54D22*
X6109380Y-1680595D03*
G54D22*
X5966601Y-1492603D03*
G54D22*
X5968601Y-1414894D03*
G54D22*
X5993239Y-2141225D03*
G54D22*
X6017845D03*
G54D23*
X6290483Y-2140194D03*
G54D23*
X6264892D03*
G54D23*
X6316026Y-1694375D03*
G54D23*
X6316184Y-1596028D03*
G54D23*
Y-1511264D03*
G54D23*
X6235798Y-1558548D03*
G54D23*
X6124144Y-1413595D03*
G54D23*
X6029341Y-1413201D03*
G54D23*
X6027688Y-1473902D03*
G54D23*
X6022097Y-1547170D03*
G54D23*
X6035562Y-1586973D03*
G54D23*
X5966672Y-1718981D03*
G54D23*
X6037806Y-1740201D03*
G54D23*
X5966711Y-2048705D03*
G54D23*
Y-2140753D03*
G54D23*
X6084774Y-2142209D03*
G54D23*
X6109144D03*
G54D23*
X6173790Y-2141934D03*
G54D23*
X6199735D03*
G54D10*
X6082806Y-755792D02*
X6078869D01*
X6082806Y-818784D02*
X6078869D01*
G54D11*
X6177924Y-478824D03*
G54D12*
X6079735Y-468981D03*
G54D12*
X6179695Y-573312D03*
G54D12*
X6078869Y-562918D03*
G54D11*
X6284577Y-1101855D03*
G54D11*
X6001900Y-1099887D03*
G54D12*
X6190089Y-1101855D03*
G54D12*
X6095601D03*
G54D13*
X6084538Y-995713D02*
X6073200D01*
G54D14*
X6097119Y-1012979D02*
X6060619D01*
X6097119Y-978447D02*
X6060619D01*
G54D15*
X6084538Y-932721D02*
X6073199D01*
G54D14*
X6095119Y-947987D02*
X6062619D01*
X6095119Y-917455D02*
X6062619D01*
G54D16*
X6266861Y-816914D02*
Y-770654D01*
G54D17*
X6243445Y-832948D02*
Y-754621D01*
X6290276Y-832948D02*
Y-754621D01*
G54D18*
X6266861Y-944867D02*
Y-898606D01*
G54D17*
X6241446Y-962900D02*
Y-880573D01*
X6292276Y-962900D02*
Y-880573D01*
G54D19*
X6149184Y-794965D03*
G54D19*
Y-932761D03*
G54D20*
X6006034Y-966579D02*
Y-946894D01*
G54D21*
X5981162Y-983577D02*
Y-929896D01*
X6030906Y-983577D02*
Y-929896D01*
G54D19*
X6006034Y-820910D02*
Y-801225D01*
G54D21*
X5979162Y-839908D02*
Y-782227D01*
X6032906Y-839908D02*
Y-782227D01*
G54D15*
X6159420Y-702367D02*
Y-691028D01*
G54D14*
X6144154Y-712948D02*
Y-680448D01*
X6174686Y-712948D02*
Y-680448D01*
G54D15*
X6222412Y-702367D02*
Y-691028D01*
G54D14*
X6207146Y-712948D02*
Y-680448D01*
X6237678Y-712948D02*
Y-680448D01*
G54D13*
X6202884Y-1002209D02*
Y-990871D01*
G54D14*
X6185618Y-1014790D02*
Y-978290D01*
X6220150Y-1014790D02*
Y-978290D01*
G54D13*
X6139892Y-1002209D02*
Y-990871D01*
G54D14*
X6122626Y-1014790D02*
Y-978290D01*
X6157158Y-1014790D02*
Y-978290D01*
G54D22*
X6276703Y-530005D03*
G54D22*
Y-495556D03*
G54D22*
X6241113D03*
G54D22*
Y-530044D03*
G54D22*
X6242254Y-460123D03*
G54D22*
X6277136D03*
G54D22*
X6315042Y-431312D03*
G54D22*
X6018908Y-736698D03*
G54D22*
X5990286Y-734729D03*
G54D22*
X6109380Y-696343D03*
G54D22*
X5966601Y-508351D03*
G54D22*
X5968601Y-430642D03*
G54D22*
X5993239Y-1156973D03*
G54D22*
X6017845D03*
G54D23*
X6290483Y-1155942D03*
G54D23*
X6264892D03*
G54D23*
X6316026Y-710123D03*
G54D23*
X6316184Y-611776D03*
G54D23*
Y-527013D03*
G54D23*
X6235798Y-574296D03*
G54D23*
X6124144Y-429343D03*
G54D23*
X6029341Y-428950D03*
G54D23*
X6027688Y-489650D03*
G54D23*
X6022097Y-562918D03*
G54D23*
X6035562Y-602721D03*
G54D23*
X5966672Y-734729D03*
G54D23*
X6037806Y-755950D03*
G54D23*
X5966711Y-1064453D03*
G54D23*
Y-1156501D03*
G54D23*
X6084774Y-1157957D03*
G54D23*
X6109144D03*
G54D23*
X6173790Y-1157682D03*
G54D23*
X6199735D03*
G54D10*
X6082806Y228460D02*
X6078869D01*
X6082806Y165468D02*
X6078869D01*
G54D11*
X6177924Y505428D03*
G54D12*
X6079735Y515271D03*
G54D12*
X6179695Y410940D03*
G54D12*
X6078869Y421334D03*
G54D11*
X6284577Y-117603D03*
G54D11*
X6001900Y-115635D03*
G54D12*
X6190089Y-117603D03*
G54D12*
X6095601D03*
G54D13*
X6084538Y-11461D02*
X6073200D01*
G54D14*
X6097119Y-28727D02*
X6060619D01*
X6097119Y5805D02*
X6060619D01*
G54D15*
X6084538Y51531D02*
X6073199D01*
G54D14*
X6095119Y36265D02*
X6062619D01*
X6095119Y66797D02*
X6062619D01*
G54D16*
X6266861Y167338D02*
Y213598D01*
G54D17*
X6243445Y151304D02*
Y229631D01*
X6290276Y151304D02*
Y229631D01*
G54D18*
X6266861Y39385D02*
Y85645D01*
G54D17*
X6241446Y21351D02*
Y103679D01*
X6292276Y21351D02*
Y103679D01*
G54D19*
X6149184Y189287D03*
G54D19*
Y51491D03*
G54D20*
X6006034Y17673D02*
Y37358D01*
G54D21*
X5981162Y675D02*
Y54356D01*
X6030906Y675D02*
Y54356D01*
G54D19*
X6006034Y163342D02*
Y183027D01*
G54D21*
X5979162Y144344D02*
Y202025D01*
X6032906Y144344D02*
Y202025D01*
G54D15*
X6159420Y281885D02*
Y293224D01*
G54D14*
X6144154Y271304D02*
Y303804D01*
X6174686Y271304D02*
Y303804D01*
G54D15*
X6222412Y281885D02*
Y293224D01*
G54D14*
X6207146Y271304D02*
Y303804D01*
X6237678Y271304D02*
Y303804D01*
G54D13*
X6202884Y-17957D02*
Y-6619D01*
G54D14*
X6185618Y-30538D02*
Y5962D01*
X6220150Y-30538D02*
Y5962D01*
G54D13*
X6139892Y-17957D02*
Y-6619D01*
G54D14*
X6122626Y-30538D02*
Y5962D01*
X6157158Y-30538D02*
Y5962D01*
G54D22*
X6276703Y454247D03*
G54D22*
Y488696D03*
G54D22*
X6241113D03*
G54D22*
Y454208D03*
G54D22*
X6242254Y524129D03*
G54D22*
X6277136D03*
G54D22*
X6315042Y552940D03*
G54D22*
X6018908Y247554D03*
G54D22*
X5990286Y249523D03*
G54D22*
X6109380Y287909D03*
G54D22*
X5966601Y475901D03*
G54D22*
X5968601Y553610D03*
G54D22*
X5993239Y-172721D03*
G54D22*
X6017845D03*
G54D23*
X6290483Y-171690D03*
G54D23*
X6264892D03*
G54D23*
X6316026Y274129D03*
G54D23*
X6316184Y372476D03*
G54D23*
Y457239D03*
G54D23*
X6235798Y409956D03*
G54D23*
X6124144Y554909D03*
G54D23*
X6029341Y555302D03*
G54D23*
X6027688Y494602D03*
G54D23*
X6022097Y421334D03*
G54D23*
X6035562Y381531D03*
G54D23*
X5966672Y249523D03*
G54D23*
X6037806Y228302D03*
G54D23*
X5966711Y-80201D03*
G54D23*
Y-172249D03*
G54D23*
X6084774Y-173705D03*
G54D23*
X6109144D03*
G54D23*
X6173790Y-173430D03*
G54D23*
X6199735D03*
G54D10*
X6082806Y1212712D02*
X6078869D01*
X6082806Y1149720D02*
X6078869D01*
G54D11*
X6177924Y1489680D03*
G54D12*
X6079735Y1499523D03*
G54D12*
X6179695Y1395192D03*
G54D12*
X6078869Y1405586D03*
G54D11*
X6284577Y866649D03*
G54D11*
X6001900Y868617D03*
G54D12*
X6190089Y866649D03*
G54D12*
X6095601D03*
G54D13*
X6084538Y972791D02*
X6073200D01*
G54D14*
X6097119Y955525D02*
X6060619D01*
X6097119Y990057D02*
X6060619D01*
G54D15*
X6084538Y1035783D02*
X6073199D01*
G54D14*
X6095119Y1020517D02*
X6062619D01*
X6095119Y1051049D02*
X6062619D01*
G54D16*
X6266861Y1151590D02*
Y1197850D01*
G54D17*
X6243445Y1135556D02*
Y1213883D01*
X6290276Y1135556D02*
Y1213883D01*
G54D18*
X6266861Y1023637D02*
Y1069897D01*
G54D17*
X6241446Y1005603D02*
Y1087931D01*
X6292276Y1005603D02*
Y1087931D01*
G54D19*
X6149184Y1173539D03*
G54D19*
Y1035743D03*
G54D20*
X6006034Y1001925D02*
Y1021610D01*
G54D21*
X5981162Y984926D02*
Y1038608D01*
X6030906Y984926D02*
Y1038608D01*
G54D19*
X6006034Y1147594D02*
Y1167279D01*
G54D21*
X5979162Y1128596D02*
Y1186277D01*
X6032906Y1128596D02*
Y1186277D01*
G54D15*
X6159420Y1266137D02*
Y1277476D01*
G54D14*
X6144154Y1255556D02*
Y1288056D01*
X6174686Y1255556D02*
Y1288056D01*
G54D15*
X6222412Y1266137D02*
Y1277476D01*
G54D14*
X6207146Y1255556D02*
Y1288056D01*
X6237678Y1255556D02*
Y1288056D01*
G54D13*
X6202884Y966295D02*
Y977633D01*
G54D14*
X6185618Y953714D02*
Y990214D01*
X6220150Y953714D02*
Y990214D01*
G54D13*
X6139892Y966295D02*
Y977633D01*
G54D14*
X6122626Y953714D02*
Y990214D01*
X6157158Y953714D02*
Y990214D01*
G54D22*
X6276703Y1438499D03*
G54D22*
Y1472948D03*
G54D22*
X6241113D03*
G54D22*
Y1438460D03*
G54D22*
X6242254Y1508381D03*
G54D22*
X6277136D03*
G54D22*
X6315042Y1537192D03*
G54D22*
X6018908Y1231806D03*
G54D22*
X5990286Y1233775D03*
G54D22*
X6109380Y1272161D03*
G54D22*
X5966601Y1460153D03*
G54D22*
X5968601Y1537862D03*
G54D22*
X5993239Y811531D03*
G54D22*
X6017845D03*
G54D23*
X6290483Y812562D03*
G54D23*
X6264892D03*
G54D23*
X6316026Y1258381D03*
G54D23*
X6316184Y1356728D03*
G54D23*
Y1441491D03*
G54D23*
X6235798Y1394208D03*
G54D23*
X6124144Y1539161D03*
G54D23*
X6029341Y1539554D03*
G54D23*
X6027688Y1478854D03*
G54D23*
X6022097Y1405586D03*
G54D23*
X6035562Y1365783D03*
G54D23*
X5966672Y1233775D03*
G54D23*
X6037806Y1212554D03*
G54D23*
X5966711Y904050D03*
G54D23*
Y812003D03*
G54D23*
X6084774Y810547D03*
G54D23*
X6109144D03*
G54D23*
X6173790Y810822D03*
G54D23*
X6199735D03*
G54D10*
X6082806Y2196964D02*
X6078869D01*
X6082806Y2133972D02*
X6078869D01*
G54D11*
X6177924Y2473932D03*
G54D12*
X6079735Y2483775D03*
G54D12*
X6179695Y2379444D03*
G54D12*
X6078869Y2389838D03*
G54D11*
X6284577Y1850901D03*
G54D11*
X6001900Y1852869D03*
G54D12*
X6190089Y1850901D03*
G54D12*
X6095601D03*
G54D13*
X6084538Y1957043D02*
X6073200D01*
G54D14*
X6097119Y1939777D02*
X6060619D01*
X6097119Y1974309D02*
X6060619D01*
G54D15*
X6084538Y2020035D02*
X6073199D01*
G54D14*
X6095119Y2004769D02*
X6062619D01*
X6095119Y2035300D02*
X6062619D01*
G54D16*
X6266861Y2135842D02*
Y2182102D01*
G54D17*
X6243445Y2119808D02*
Y2198135D01*
X6290276Y2119808D02*
Y2198135D01*
G54D18*
X6266861Y2007889D02*
Y2054149D01*
G54D17*
X6241446Y1989855D02*
Y2072183D01*
X6292276Y1989855D02*
Y2072183D01*
G54D19*
X6149184Y2157791D03*
G54D19*
Y2019995D03*
G54D20*
X6006034Y1986176D02*
Y2005862D01*
G54D21*
X5981162Y1969178D02*
Y2022860D01*
X6030906Y1969178D02*
Y2022860D01*
G54D19*
X6006034Y2131846D02*
Y2151531D01*
G54D21*
X5979162Y2112848D02*
Y2170529D01*
X6032906Y2112848D02*
Y2170529D01*
G54D15*
X6159420Y2250389D02*
Y2261728D01*
G54D14*
X6144154Y2239808D02*
Y2272308D01*
X6174686Y2239808D02*
Y2272308D01*
G54D15*
X6222412Y2250389D02*
Y2261728D01*
G54D14*
X6207146Y2239808D02*
Y2272308D01*
X6237678Y2239808D02*
Y2272308D01*
G54D13*
X6202884Y1950547D02*
Y1961885D01*
G54D14*
X6185618Y1937966D02*
Y1974466D01*
X6220150Y1937966D02*
Y1974466D01*
G54D13*
X6139892Y1950547D02*
Y1961885D01*
G54D14*
X6122626Y1937966D02*
Y1974466D01*
X6157158Y1937966D02*
Y1974466D01*
G54D22*
X6276703Y2422751D03*
G54D22*
Y2457200D03*
G54D22*
X6241113D03*
G54D22*
Y2422712D03*
G54D22*
X6242254Y2492633D03*
G54D22*
X6277136D03*
G54D22*
X6315042Y2521444D03*
G54D22*
X6018908Y2216058D03*
G54D22*
X5990286Y2218027D03*
G54D22*
X6109380Y2256413D03*
G54D22*
X5966601Y2444405D03*
G54D22*
X5968601Y2522113D03*
G54D22*
X5993239Y1795783D03*
G54D22*
X6017845D03*
G54D23*
X6290483Y1796814D03*
G54D23*
X6264892D03*
G54D23*
X6316026Y2242633D03*
G54D23*
X6316184Y2340980D03*
G54D23*
Y2425743D03*
G54D23*
X6235798Y2378460D03*
G54D23*
X6124144Y2523413D03*
G54D23*
X6029341Y2523806D03*
G54D23*
X6027688Y2463106D03*
G54D23*
X6022097Y2389838D03*
G54D23*
X6035562Y2350035D03*
G54D23*
X5966672Y2218027D03*
G54D23*
X6037806Y2196806D03*
G54D23*
X5966711Y1888302D03*
G54D23*
Y1796255D03*
G54D23*
X6084774Y1794799D03*
G54D23*
X6109144D03*
G54D23*
X6173790Y1795074D03*
G54D23*
X6199735D03*
G54D10*
X6570995Y-1740044D02*
X6567058D01*
X6570995Y-1803036D02*
X6567058D01*
G54D11*
X6666113Y-1463075D03*
G54D12*
X6567924Y-1453233D03*
G54D12*
X6667884Y-1557564D03*
G54D12*
X6567058Y-1547170D03*
G54D11*
X6772766Y-2086107D03*
G54D11*
X6490089Y-2084138D03*
G54D12*
X6678278Y-2086107D03*
G54D12*
X6583790D03*
G54D13*
X6572727Y-1979965D02*
X6561389D01*
G54D14*
X6585307Y-1997231D02*
X6548808D01*
X6585307Y-1962699D02*
X6548808D01*
G54D15*
X6572727Y-1916973D02*
X6561388D01*
G54D14*
X6583308Y-1932239D02*
X6550808D01*
X6583308Y-1901707D02*
X6550808D01*
G54D16*
X6755050Y-1801166D02*
Y-1754906D01*
G54D17*
X6731634Y-1817200D02*
Y-1738873D01*
X6778465Y-1817200D02*
Y-1738873D01*
G54D18*
X6755050Y-1929119D02*
Y-1882858D01*
G54D17*
X6729635Y-1947152D02*
Y-1864825D01*
X6780465Y-1947152D02*
Y-1864825D01*
G54D19*
X6637373Y-1779217D03*
G54D19*
Y-1917013D03*
G54D20*
X6494223Y-1950831D02*
Y-1931146D01*
G54D21*
X6469351Y-1967829D02*
Y-1914148D01*
X6519095Y-1967829D02*
Y-1914148D01*
G54D19*
X6494223Y-1805162D02*
Y-1785477D01*
G54D21*
X6467351Y-1824160D02*
Y-1766479D01*
X6521095Y-1824160D02*
Y-1766479D01*
G54D15*
X6647609Y-1686619D02*
Y-1675280D01*
G54D14*
X6632343Y-1697200D02*
Y-1664700D01*
X6662875Y-1697200D02*
Y-1664700D01*
G54D15*
X6710601Y-1686619D02*
Y-1675280D01*
G54D14*
X6695335Y-1697200D02*
Y-1664700D01*
X6725867Y-1697200D02*
Y-1664700D01*
G54D13*
X6691073Y-1986461D02*
Y-1975123D01*
G54D14*
X6673807Y-1999042D02*
Y-1962542D01*
X6708339Y-1999042D02*
Y-1962542D01*
G54D13*
X6628081Y-1986461D02*
Y-1975123D01*
G54D14*
X6610815Y-1999042D02*
Y-1962542D01*
X6645347Y-1999042D02*
Y-1962542D01*
G54D22*
X6764892Y-1514257D03*
G54D22*
Y-1479808D03*
G54D22*
X6729302D03*
G54D22*
Y-1514296D03*
G54D22*
X6730443Y-1444375D03*
G54D22*
X6765325D03*
G54D22*
X6803231Y-1415564D03*
G54D22*
X6507097Y-1720950D03*
G54D22*
X6478475Y-1718981D03*
G54D22*
X6597569Y-1680595D03*
G54D22*
X6454790Y-1492603D03*
G54D22*
X6456790Y-1414894D03*
G54D22*
X6481428Y-2141225D03*
G54D22*
X6506034D03*
G54D23*
X6778672Y-2140194D03*
G54D23*
X6753081D03*
G54D23*
X6804215Y-1694375D03*
G54D23*
X6804373Y-1596028D03*
G54D23*
Y-1511264D03*
G54D23*
X6723987Y-1558548D03*
G54D23*
X6612333Y-1413595D03*
G54D23*
X6517530Y-1413201D03*
G54D23*
X6515876Y-1473902D03*
G54D23*
X6510286Y-1547170D03*
G54D23*
X6523750Y-1586973D03*
G54D23*
X6454861Y-1718981D03*
G54D23*
X6525995Y-1740201D03*
G54D23*
X6454900Y-2048705D03*
G54D23*
Y-2140753D03*
G54D23*
X6572963Y-2142209D03*
G54D23*
X6597333D03*
G54D23*
X6661979Y-2141934D03*
G54D23*
X6687924D03*
G54D10*
X6570995Y-755792D02*
X6567058D01*
X6570995Y-818784D02*
X6567058D01*
G54D11*
X6666113Y-478824D03*
G54D12*
X6567924Y-468981D03*
G54D12*
X6667884Y-573312D03*
G54D12*
X6567058Y-562918D03*
G54D11*
X6772766Y-1101855D03*
G54D11*
X6490089Y-1099887D03*
G54D12*
X6678278Y-1101855D03*
G54D12*
X6583790D03*
G54D13*
X6572727Y-995713D02*
X6561389D01*
G54D14*
X6585307Y-1012979D02*
X6548808D01*
X6585307Y-978447D02*
X6548808D01*
G54D15*
X6572727Y-932721D02*
X6561388D01*
G54D14*
X6583308Y-947987D02*
X6550808D01*
X6583308Y-917455D02*
X6550808D01*
G54D16*
X6755050Y-816914D02*
Y-770654D01*
G54D17*
X6731634Y-832948D02*
Y-754621D01*
X6778465Y-832948D02*
Y-754621D01*
G54D18*
X6755050Y-944867D02*
Y-898606D01*
G54D17*
X6729635Y-962900D02*
Y-880573D01*
X6780465Y-962900D02*
Y-880573D01*
G54D19*
X6637373Y-794965D03*
G54D19*
Y-932761D03*
G54D20*
X6494223Y-966579D02*
Y-946894D01*
G54D21*
X6469351Y-983577D02*
Y-929896D01*
X6519095Y-983577D02*
Y-929896D01*
G54D19*
X6494223Y-820910D02*
Y-801225D01*
G54D21*
X6467351Y-839908D02*
Y-782227D01*
X6521095Y-839908D02*
Y-782227D01*
G54D15*
X6647609Y-702367D02*
Y-691028D01*
G54D14*
X6632343Y-712948D02*
Y-680448D01*
X6662875Y-712948D02*
Y-680448D01*
G54D15*
X6710601Y-702367D02*
Y-691028D01*
G54D14*
X6695335Y-712948D02*
Y-680448D01*
X6725867Y-712948D02*
Y-680448D01*
G54D13*
X6691073Y-1002209D02*
Y-990871D01*
G54D14*
X6673807Y-1014790D02*
Y-978290D01*
X6708339Y-1014790D02*
Y-978290D01*
G54D13*
X6628081Y-1002209D02*
Y-990871D01*
G54D14*
X6610815Y-1014790D02*
Y-978290D01*
X6645347Y-1014790D02*
Y-978290D01*
G54D22*
X6764892Y-530005D03*
G54D22*
Y-495556D03*
G54D22*
X6729302D03*
G54D22*
Y-530044D03*
G54D22*
X6730443Y-460123D03*
G54D22*
X6765325D03*
G54D22*
X6803231Y-431312D03*
G54D22*
X6507097Y-736698D03*
G54D22*
X6478475Y-734729D03*
G54D22*
X6597569Y-696343D03*
G54D22*
X6454790Y-508351D03*
G54D22*
X6456790Y-430642D03*
G54D22*
X6481428Y-1156973D03*
G54D22*
X6506034D03*
G54D23*
X6778672Y-1155942D03*
G54D23*
X6753081D03*
G54D23*
X6804215Y-710123D03*
G54D23*
X6804373Y-611776D03*
G54D23*
Y-527013D03*
G54D23*
X6723987Y-574296D03*
G54D23*
X6612333Y-429343D03*
G54D23*
X6517530Y-428950D03*
G54D23*
X6515876Y-489650D03*
G54D23*
X6510286Y-562918D03*
G54D23*
X6523750Y-602721D03*
G54D23*
X6454861Y-734729D03*
G54D23*
X6525995Y-755950D03*
G54D23*
X6454900Y-1064453D03*
G54D23*
Y-1156501D03*
G54D23*
X6572963Y-1157957D03*
G54D23*
X6597333D03*
G54D23*
X6661979Y-1157682D03*
G54D23*
X6687924D03*
G54D10*
X6570995Y228460D02*
X6567058D01*
X6570995Y165468D02*
X6567058D01*
G54D11*
X6666113Y505428D03*
G54D12*
X6567924Y515271D03*
G54D12*
X6667884Y410940D03*
G54D12*
X6567058Y421334D03*
G54D11*
X6772766Y-117603D03*
G54D11*
X6490089Y-115635D03*
G54D12*
X6678278Y-117603D03*
G54D12*
X6583790D03*
G54D13*
X6572727Y-11461D02*
X6561389D01*
G54D14*
X6585307Y-28727D02*
X6548808D01*
X6585307Y5805D02*
X6548808D01*
G54D15*
X6572727Y51531D02*
X6561388D01*
G54D14*
X6583308Y36265D02*
X6550808D01*
X6583308Y66797D02*
X6550808D01*
G54D16*
X6755050Y167338D02*
Y213598D01*
G54D17*
X6731634Y151304D02*
Y229631D01*
X6778465Y151304D02*
Y229631D01*
G54D18*
X6755050Y39385D02*
Y85645D01*
G54D17*
X6729635Y21351D02*
Y103679D01*
X6780465Y21351D02*
Y103679D01*
G54D19*
X6637373Y189287D03*
G54D19*
Y51491D03*
G54D20*
X6494223Y17673D02*
Y37358D01*
G54D21*
X6469351Y675D02*
Y54356D01*
X6519095Y675D02*
Y54356D01*
G54D19*
X6494223Y163342D02*
Y183027D01*
G54D21*
X6467351Y144344D02*
Y202025D01*
X6521095Y144344D02*
Y202025D01*
G54D15*
X6647609Y281885D02*
Y293224D01*
G54D14*
X6632343Y271304D02*
Y303804D01*
X6662875Y271304D02*
Y303804D01*
G54D15*
X6710601Y281885D02*
Y293224D01*
G54D14*
X6695335Y271304D02*
Y303804D01*
X6725867Y271304D02*
Y303804D01*
G54D13*
X6691073Y-17957D02*
Y-6619D01*
G54D14*
X6673807Y-30538D02*
Y5962D01*
X6708339Y-30538D02*
Y5962D01*
G54D13*
X6628081Y-17957D02*
Y-6619D01*
G54D14*
X6610815Y-30538D02*
Y5962D01*
X6645347Y-30538D02*
Y5962D01*
G54D22*
X6764892Y454247D03*
G54D22*
Y488696D03*
G54D22*
X6729302D03*
G54D22*
Y454208D03*
G54D22*
X6730443Y524129D03*
G54D22*
X6765325D03*
G54D22*
X6803231Y552940D03*
G54D22*
X6507097Y247554D03*
G54D22*
X6478475Y249523D03*
G54D22*
X6597569Y287909D03*
G54D22*
X6454790Y475901D03*
G54D22*
X6456790Y553610D03*
G54D22*
X6481428Y-172721D03*
G54D22*
X6506034D03*
G54D23*
X6778672Y-171690D03*
G54D23*
X6753081D03*
G54D23*
X6804215Y274129D03*
G54D23*
X6804373Y372476D03*
G54D23*
Y457239D03*
G54D23*
X6723987Y409956D03*
G54D23*
X6612333Y554909D03*
G54D23*
X6517530Y555302D03*
G54D23*
X6515876Y494602D03*
G54D23*
X6510286Y421334D03*
G54D23*
X6523750Y381531D03*
G54D23*
X6454861Y249523D03*
G54D23*
X6525995Y228302D03*
G54D23*
X6454900Y-80201D03*
G54D23*
Y-172249D03*
G54D23*
X6572963Y-173705D03*
G54D23*
X6597333D03*
G54D23*
X6661979Y-173430D03*
G54D23*
X6687924D03*
G54D10*
X6570995Y1212712D02*
X6567058D01*
X6570995Y1149720D02*
X6567058D01*
G54D11*
X6666113Y1489680D03*
G54D12*
X6567924Y1499523D03*
G54D12*
X6667884Y1395192D03*
G54D12*
X6567058Y1405586D03*
G54D11*
X6772766Y866649D03*
G54D11*
X6490089Y868617D03*
G54D12*
X6678278Y866649D03*
G54D12*
X6583790D03*
G54D13*
X6572727Y972791D02*
X6561389D01*
G54D14*
X6585307Y955525D02*
X6548808D01*
X6585307Y990057D02*
X6548808D01*
G54D15*
X6572727Y1035783D02*
X6561388D01*
G54D14*
X6583308Y1020517D02*
X6550808D01*
X6583308Y1051049D02*
X6550808D01*
G54D16*
X6755050Y1151590D02*
Y1197850D01*
G54D17*
X6731634Y1135556D02*
Y1213883D01*
X6778465Y1135556D02*
Y1213883D01*
G54D18*
X6755050Y1023637D02*
Y1069897D01*
G54D17*
X6729635Y1005603D02*
Y1087931D01*
X6780465Y1005603D02*
Y1087931D01*
G54D19*
X6637373Y1173539D03*
G54D19*
Y1035743D03*
G54D20*
X6494223Y1001925D02*
Y1021610D01*
G54D21*
X6469351Y984926D02*
Y1038608D01*
X6519095Y984926D02*
Y1038608D01*
G54D19*
X6494223Y1147594D02*
Y1167279D01*
G54D21*
X6467351Y1128596D02*
Y1186277D01*
X6521095Y1128596D02*
Y1186277D01*
G54D15*
X6647609Y1266137D02*
Y1277476D01*
G54D14*
X6632343Y1255556D02*
Y1288056D01*
X6662875Y1255556D02*
Y1288056D01*
G54D15*
X6710601Y1266137D02*
Y1277476D01*
G54D14*
X6695335Y1255556D02*
Y1288056D01*
X6725867Y1255556D02*
Y1288056D01*
G54D13*
X6691073Y966295D02*
Y977633D01*
G54D14*
X6673807Y953714D02*
Y990214D01*
X6708339Y953714D02*
Y990214D01*
G54D13*
X6628081Y966295D02*
Y977633D01*
G54D14*
X6610815Y953714D02*
Y990214D01*
X6645347Y953714D02*
Y990214D01*
G54D22*
X6764892Y1438499D03*
G54D22*
Y1472948D03*
G54D22*
X6729302D03*
G54D22*
Y1438460D03*
G54D22*
X6730443Y1508381D03*
G54D22*
X6765325D03*
G54D22*
X6803231Y1537192D03*
G54D22*
X6507097Y1231806D03*
G54D22*
X6478475Y1233775D03*
G54D22*
X6597569Y1272161D03*
G54D22*
X6454790Y1460153D03*
G54D22*
X6456790Y1537862D03*
G54D22*
X6481428Y811531D03*
G54D22*
X6506034D03*
G54D23*
X6778672Y812562D03*
G54D23*
X6753081D03*
G54D23*
X6804215Y1258381D03*
G54D23*
X6804373Y1356728D03*
G54D23*
Y1441491D03*
G54D23*
X6723987Y1394208D03*
G54D23*
X6612333Y1539161D03*
G54D23*
X6517530Y1539554D03*
G54D23*
X6515876Y1478854D03*
G54D23*
X6510286Y1405586D03*
G54D23*
X6523750Y1365783D03*
G54D23*
X6454861Y1233775D03*
G54D23*
X6525995Y1212554D03*
G54D23*
X6454900Y904050D03*
G54D23*
Y812003D03*
G54D23*
X6572963Y810547D03*
G54D23*
X6597333D03*
G54D23*
X6661979Y810822D03*
G54D23*
X6687924D03*
G54D10*
X6570995Y2196964D02*
X6567058D01*
X6570995Y2133972D02*
X6567058D01*
G54D11*
X6666113Y2473932D03*
G54D12*
X6567924Y2483775D03*
G54D12*
X6667884Y2379444D03*
G54D12*
X6567058Y2389838D03*
G54D11*
X6772766Y1850901D03*
G54D11*
X6490089Y1852869D03*
G54D12*
X6678278Y1850901D03*
G54D12*
X6583790D03*
G54D13*
X6572727Y1957043D02*
X6561389D01*
G54D14*
X6585307Y1939777D02*
X6548808D01*
X6585307Y1974309D02*
X6548808D01*
G54D15*
X6572727Y2020035D02*
X6561388D01*
G54D14*
X6583308Y2004769D02*
X6550808D01*
X6583308Y2035300D02*
X6550808D01*
G54D16*
X6755050Y2135842D02*
Y2182102D01*
G54D17*
X6731634Y2119808D02*
Y2198135D01*
X6778465Y2119808D02*
Y2198135D01*
G54D18*
X6755050Y2007889D02*
Y2054149D01*
G54D17*
X6729635Y1989855D02*
Y2072183D01*
X6780465Y1989855D02*
Y2072183D01*
G54D19*
X6637373Y2157791D03*
G54D19*
Y2019995D03*
G54D20*
X6494223Y1986176D02*
Y2005862D01*
G54D21*
X6469351Y1969178D02*
Y2022860D01*
X6519095Y1969178D02*
Y2022860D01*
G54D19*
X6494223Y2131846D02*
Y2151531D01*
G54D21*
X6467351Y2112848D02*
Y2170529D01*
X6521095Y2112848D02*
Y2170529D01*
G54D15*
X6647609Y2250389D02*
Y2261728D01*
G54D14*
X6632343Y2239808D02*
Y2272308D01*
X6662875Y2239808D02*
Y2272308D01*
G54D15*
X6710601Y2250389D02*
Y2261728D01*
G54D14*
X6695335Y2239808D02*
Y2272308D01*
X6725867Y2239808D02*
Y2272308D01*
G54D13*
X6691073Y1950547D02*
Y1961885D01*
G54D14*
X6673807Y1937966D02*
Y1974466D01*
X6708339Y1937966D02*
Y1974466D01*
G54D13*
X6628081Y1950547D02*
Y1961885D01*
G54D14*
X6610815Y1937966D02*
Y1974466D01*
X6645347Y1937966D02*
Y1974466D01*
G54D22*
X6764892Y2422751D03*
G54D22*
Y2457200D03*
G54D22*
X6729302D03*
G54D22*
Y2422712D03*
G54D22*
X6730443Y2492633D03*
G54D22*
X6765325D03*
G54D22*
X6803231Y2521444D03*
G54D22*
X6507097Y2216058D03*
G54D22*
X6478475Y2218027D03*
G54D22*
X6597569Y2256413D03*
G54D22*
X6454790Y2444405D03*
G54D22*
X6456790Y2522113D03*
G54D22*
X6481428Y1795783D03*
G54D22*
X6506034D03*
G54D23*
X6778672Y1796814D03*
G54D23*
X6753081D03*
G54D23*
X6804215Y2242633D03*
G54D23*
X6804373Y2340980D03*
G54D23*
Y2425743D03*
G54D23*
X6723987Y2378460D03*
G54D23*
X6612333Y2523413D03*
G54D23*
X6517530Y2523806D03*
G54D23*
X6515876Y2463106D03*
G54D23*
X6510286Y2389838D03*
G54D23*
X6523750Y2350035D03*
G54D23*
X6454861Y2218027D03*
G54D23*
X6525995Y2196806D03*
G54D23*
X6454900Y1888302D03*
G54D23*
Y1796255D03*
G54D23*
X6572963Y1794799D03*
G54D23*
X6597333D03*
G54D23*
X6661979Y1795074D03*
G54D23*
X6687924D03*
G54D10*
X7059184Y-1740044D02*
X7055247D01*
X7059184Y-1803036D02*
X7055247D01*
G54D11*
X7154302Y-1463075D03*
G54D12*
X7056113Y-1453233D03*
G54D12*
X7156073Y-1557564D03*
G54D12*
X7055247Y-1547170D03*
G54D11*
X7260955Y-2086107D03*
G54D11*
X6978278Y-2084138D03*
G54D12*
X7166467Y-2086107D03*
G54D12*
X7071979D03*
G54D13*
X7060916Y-1979965D02*
X7049578D01*
G54D14*
X7073496Y-1997231D02*
X7036997D01*
X7073496Y-1962699D02*
X7036997D01*
G54D15*
X7060916Y-1916973D02*
X7049577D01*
G54D14*
X7071497Y-1932239D02*
X7038997D01*
X7071497Y-1901707D02*
X7038997D01*
G54D16*
X7243239Y-1801166D02*
Y-1754906D01*
G54D17*
X7219823Y-1817200D02*
Y-1738873D01*
X7266654Y-1817200D02*
Y-1738873D01*
G54D18*
X7243239Y-1929119D02*
Y-1882858D01*
G54D17*
X7217824Y-1947152D02*
Y-1864825D01*
X7268654Y-1947152D02*
Y-1864825D01*
G54D19*
X7125562Y-1779217D03*
G54D19*
Y-1917013D03*
G54D20*
X6982412Y-1950831D02*
Y-1931146D01*
G54D21*
X6957540Y-1967829D02*
Y-1914148D01*
X7007284Y-1967829D02*
Y-1914148D01*
G54D19*
X6982412Y-1805162D02*
Y-1785477D01*
G54D21*
X6955540Y-1824160D02*
Y-1766479D01*
X7009284Y-1824160D02*
Y-1766479D01*
G54D15*
X7135798Y-1686619D02*
Y-1675280D01*
G54D14*
X7120532Y-1697200D02*
Y-1664700D01*
X7151063Y-1697200D02*
Y-1664700D01*
G54D15*
X7198790Y-1686619D02*
Y-1675280D01*
G54D14*
X7183524Y-1697200D02*
Y-1664700D01*
X7214056Y-1697200D02*
Y-1664700D01*
G54D13*
X7179262Y-1986461D02*
Y-1975123D01*
G54D14*
X7161996Y-1999042D02*
Y-1962542D01*
X7196528Y-1999042D02*
Y-1962542D01*
G54D13*
X7116270Y-1986461D02*
Y-1975123D01*
G54D14*
X7099004Y-1999042D02*
Y-1962542D01*
X7133536Y-1999042D02*
Y-1962542D01*
G54D22*
X7253081Y-1514257D03*
G54D22*
Y-1479808D03*
G54D22*
X7217491D03*
G54D22*
Y-1514296D03*
G54D22*
X7218632Y-1444375D03*
G54D22*
X7253514D03*
G54D22*
X7291420Y-1415564D03*
G54D22*
X6995286Y-1720950D03*
G54D22*
X6966664Y-1718981D03*
G54D22*
X7085758Y-1680595D03*
G54D22*
X6942979Y-1492603D03*
G54D22*
X6944979Y-1414894D03*
G54D22*
X6969617Y-2141225D03*
G54D22*
X6994223D03*
G54D23*
X7266861Y-2140194D03*
G54D23*
X7241270D03*
G54D23*
X7292404Y-1694375D03*
G54D23*
X7292562Y-1596028D03*
G54D23*
Y-1511264D03*
G54D23*
X7212176Y-1558548D03*
G54D23*
X7100522Y-1413595D03*
G54D23*
X7005719Y-1413201D03*
G54D23*
X7004065Y-1473902D03*
G54D23*
X6998475Y-1547170D03*
G54D23*
X7011939Y-1586973D03*
G54D23*
X6943050Y-1718981D03*
G54D23*
X7014184Y-1740201D03*
G54D23*
X6943089Y-2048705D03*
G54D23*
Y-2140753D03*
G54D23*
X7061152Y-2142209D03*
G54D23*
X7085522D03*
G54D23*
X7150168Y-2141934D03*
G54D23*
X7176113D03*
G54D10*
X7059184Y-755792D02*
X7055247D01*
X7059184Y-818784D02*
X7055247D01*
G54D11*
X7154302Y-478824D03*
G54D12*
X7056113Y-468981D03*
G54D12*
X7156073Y-573312D03*
G54D12*
X7055247Y-562918D03*
G54D11*
X7260955Y-1101855D03*
G54D11*
X6978278Y-1099887D03*
G54D12*
X7166467Y-1101855D03*
G54D12*
X7071979D03*
G54D13*
X7060916Y-995713D02*
X7049578D01*
G54D14*
X7073496Y-1012979D02*
X7036997D01*
X7073496Y-978447D02*
X7036997D01*
G54D15*
X7060916Y-932721D02*
X7049577D01*
G54D14*
X7071497Y-947987D02*
X7038997D01*
X7071497Y-917455D02*
X7038997D01*
G54D16*
X7243239Y-816914D02*
Y-770654D01*
G54D17*
X7219823Y-832948D02*
Y-754621D01*
X7266654Y-832948D02*
Y-754621D01*
G54D18*
X7243239Y-944867D02*
Y-898606D01*
G54D17*
X7217824Y-962900D02*
Y-880573D01*
X7268654Y-962900D02*
Y-880573D01*
G54D19*
X7125562Y-794965D03*
G54D19*
Y-932761D03*
G54D20*
X6982412Y-966579D02*
Y-946894D01*
G54D21*
X6957540Y-983577D02*
Y-929896D01*
X7007284Y-983577D02*
Y-929896D01*
G54D19*
X6982412Y-820910D02*
Y-801225D01*
G54D21*
X6955540Y-839908D02*
Y-782227D01*
X7009284Y-839908D02*
Y-782227D01*
G54D15*
X7135798Y-702367D02*
Y-691028D01*
G54D14*
X7120532Y-712948D02*
Y-680448D01*
X7151063Y-712948D02*
Y-680448D01*
G54D15*
X7198790Y-702367D02*
Y-691028D01*
G54D14*
X7183524Y-712948D02*
Y-680448D01*
X7214056Y-712948D02*
Y-680448D01*
G54D13*
X7179262Y-1002209D02*
Y-990871D01*
G54D14*
X7161996Y-1014790D02*
Y-978290D01*
X7196528Y-1014790D02*
Y-978290D01*
G54D13*
X7116270Y-1002209D02*
Y-990871D01*
G54D14*
X7099004Y-1014790D02*
Y-978290D01*
X7133536Y-1014790D02*
Y-978290D01*
G54D22*
X7253081Y-530005D03*
G54D22*
Y-495556D03*
G54D22*
X7217491D03*
G54D22*
Y-530044D03*
G54D22*
X7218632Y-460123D03*
G54D22*
X7253514D03*
G54D22*
X7291420Y-431312D03*
G54D22*
X6995286Y-736698D03*
G54D22*
X6966664Y-734729D03*
G54D22*
X7085758Y-696343D03*
G54D22*
X6942979Y-508351D03*
G54D22*
X6944979Y-430642D03*
G54D22*
X6969617Y-1156973D03*
G54D22*
X6994223D03*
G54D23*
X7266861Y-1155942D03*
G54D23*
X7241270D03*
G54D23*
X7292404Y-710123D03*
G54D23*
X7292562Y-611776D03*
G54D23*
Y-527013D03*
G54D23*
X7212176Y-574296D03*
G54D23*
X7100522Y-429343D03*
G54D23*
X7005719Y-428950D03*
G54D23*
X7004065Y-489650D03*
G54D23*
X6998475Y-562918D03*
G54D23*
X7011939Y-602721D03*
G54D23*
X6943050Y-734729D03*
G54D23*
X7014184Y-755950D03*
G54D23*
X6943089Y-1064453D03*
G54D23*
Y-1156501D03*
G54D23*
X7061152Y-1157957D03*
G54D23*
X7085522D03*
G54D23*
X7150168Y-1157682D03*
G54D23*
X7176113D03*
G54D10*
X7059184Y228460D02*
X7055247D01*
X7059184Y165468D02*
X7055247D01*
G54D11*
X7154302Y505428D03*
G54D12*
X7056113Y515271D03*
G54D12*
X7156073Y410940D03*
G54D12*
X7055247Y421334D03*
G54D11*
X7260955Y-117603D03*
G54D11*
X6978278Y-115635D03*
G54D12*
X7166467Y-117603D03*
G54D12*
X7071979D03*
G54D13*
X7060916Y-11461D02*
X7049578D01*
G54D14*
X7073496Y-28727D02*
X7036997D01*
X7073496Y5805D02*
X7036997D01*
G54D15*
X7060916Y51531D02*
X7049577D01*
G54D14*
X7071497Y36265D02*
X7038997D01*
X7071497Y66797D02*
X7038997D01*
G54D16*
X7243239Y167338D02*
Y213598D01*
G54D17*
X7219823Y151304D02*
Y229631D01*
X7266654Y151304D02*
Y229631D01*
G54D18*
X7243239Y39385D02*
Y85645D01*
G54D17*
X7217824Y21351D02*
Y103679D01*
X7268654Y21351D02*
Y103679D01*
G54D19*
X7125562Y189287D03*
G54D19*
Y51491D03*
G54D20*
X6982412Y17673D02*
Y37358D01*
G54D21*
X6957540Y675D02*
Y54356D01*
X7007284Y675D02*
Y54356D01*
G54D19*
X6982412Y163342D02*
Y183027D01*
G54D21*
X6955540Y144344D02*
Y202025D01*
X7009284Y144344D02*
Y202025D01*
G54D15*
X7135798Y281885D02*
Y293224D01*
G54D14*
X7120532Y271304D02*
Y303804D01*
X7151063Y271304D02*
Y303804D01*
G54D15*
X7198790Y281885D02*
Y293224D01*
G54D14*
X7183524Y271304D02*
Y303804D01*
X7214056Y271304D02*
Y303804D01*
G54D13*
X7179262Y-17957D02*
Y-6619D01*
G54D14*
X7161996Y-30538D02*
Y5962D01*
X7196528Y-30538D02*
Y5962D01*
G54D13*
X7116270Y-17957D02*
Y-6619D01*
G54D14*
X7099004Y-30538D02*
Y5962D01*
X7133536Y-30538D02*
Y5962D01*
G54D22*
X7253081Y454247D03*
G54D22*
Y488696D03*
G54D22*
X7217491D03*
G54D22*
Y454208D03*
G54D22*
X7218632Y524129D03*
G54D22*
X7253514D03*
G54D22*
X7291420Y552940D03*
G54D22*
X6995286Y247554D03*
G54D22*
X6966664Y249523D03*
G54D22*
X7085758Y287909D03*
G54D22*
X6942979Y475901D03*
G54D22*
X6944979Y553610D03*
G54D22*
X6969617Y-172721D03*
G54D22*
X6994223D03*
G54D23*
X7266861Y-171690D03*
G54D23*
X7241270D03*
G54D23*
X7292404Y274129D03*
G54D23*
X7292562Y372476D03*
G54D23*
Y457239D03*
G54D23*
X7212176Y409956D03*
G54D23*
X7100522Y554909D03*
G54D23*
X7005719Y555302D03*
G54D23*
X7004065Y494602D03*
G54D23*
X6998475Y421334D03*
G54D23*
X7011939Y381531D03*
G54D23*
X6943050Y249523D03*
G54D23*
X7014184Y228302D03*
G54D23*
X6943089Y-80201D03*
G54D23*
Y-172249D03*
G54D23*
X7061152Y-173705D03*
G54D23*
X7085522D03*
G54D23*
X7150168Y-173430D03*
G54D23*
X7176113D03*
G54D10*
X7059184Y1212712D02*
X7055247D01*
X7059184Y1149720D02*
X7055247D01*
G54D11*
X7154302Y1489680D03*
G54D12*
X7056113Y1499523D03*
G54D12*
X7156073Y1395192D03*
G54D12*
X7055247Y1405586D03*
G54D11*
X7260955Y866649D03*
G54D11*
X6978278Y868617D03*
G54D12*
X7166467Y866649D03*
G54D12*
X7071979D03*
G54D13*
X7060916Y972791D02*
X7049578D01*
G54D14*
X7073496Y955525D02*
X7036997D01*
X7073496Y990057D02*
X7036997D01*
G54D15*
X7060916Y1035783D02*
X7049577D01*
G54D14*
X7071497Y1020517D02*
X7038997D01*
X7071497Y1051049D02*
X7038997D01*
G54D16*
X7243239Y1151590D02*
Y1197850D01*
G54D17*
X7219823Y1135556D02*
Y1213883D01*
X7266654Y1135556D02*
Y1213883D01*
G54D18*
X7243239Y1023637D02*
Y1069897D01*
G54D17*
X7217824Y1005603D02*
Y1087931D01*
X7268654Y1005603D02*
Y1087931D01*
G54D19*
X7125562Y1173539D03*
G54D19*
Y1035743D03*
G54D20*
X6982412Y1001925D02*
Y1021610D01*
G54D21*
X6957540Y984926D02*
Y1038608D01*
X7007284Y984926D02*
Y1038608D01*
G54D19*
X6982412Y1147594D02*
Y1167279D01*
G54D21*
X6955540Y1128596D02*
Y1186277D01*
X7009284Y1128596D02*
Y1186277D01*
G54D15*
X7135798Y1266137D02*
Y1277476D01*
G54D14*
X7120532Y1255556D02*
Y1288056D01*
X7151063Y1255556D02*
Y1288056D01*
G54D15*
X7198790Y1266137D02*
Y1277476D01*
G54D14*
X7183524Y1255556D02*
Y1288056D01*
X7214056Y1255556D02*
Y1288056D01*
G54D13*
X7179262Y966295D02*
Y977633D01*
G54D14*
X7161996Y953714D02*
Y990214D01*
X7196528Y953714D02*
Y990214D01*
G54D13*
X7116270Y966295D02*
Y977633D01*
G54D14*
X7099004Y953714D02*
Y990214D01*
X7133536Y953714D02*
Y990214D01*
G54D22*
X7253081Y1438499D03*
G54D22*
Y1472948D03*
G54D22*
X7217491D03*
G54D22*
Y1438460D03*
G54D22*
X7218632Y1508381D03*
G54D22*
X7253514D03*
G54D22*
X7291420Y1537192D03*
G54D22*
X6995286Y1231806D03*
G54D22*
X6966664Y1233775D03*
G54D22*
X7085758Y1272161D03*
G54D22*
X6942979Y1460153D03*
G54D22*
X6944979Y1537862D03*
G54D22*
X6969617Y811531D03*
G54D22*
X6994223D03*
G54D23*
X7266861Y812562D03*
G54D23*
X7241270D03*
G54D23*
X7292404Y1258381D03*
G54D23*
X7292562Y1356728D03*
G54D23*
Y1441491D03*
G54D23*
X7212176Y1394208D03*
G54D23*
X7100522Y1539161D03*
G54D23*
X7005719Y1539554D03*
G54D23*
X7004065Y1478854D03*
G54D23*
X6998475Y1405586D03*
G54D23*
X7011939Y1365783D03*
G54D23*
X6943050Y1233775D03*
G54D23*
X7014184Y1212554D03*
G54D23*
X6943089Y904050D03*
G54D23*
Y812003D03*
G54D23*
X7061152Y810547D03*
G54D23*
X7085522D03*
G54D23*
X7150168Y810822D03*
G54D23*
X7176113D03*
G54D10*
X7059184Y2196964D02*
X7055247D01*
X7059184Y2133972D02*
X7055247D01*
G54D11*
X7154302Y2473932D03*
G54D12*
X7056113Y2483775D03*
G54D12*
X7156073Y2379444D03*
G54D12*
X7055247Y2389838D03*
G54D11*
X7260955Y1850901D03*
G54D11*
X6978278Y1852869D03*
G54D12*
X7166467Y1850901D03*
G54D12*
X7071979D03*
G54D13*
X7060916Y1957043D02*
X7049578D01*
G54D14*
X7073496Y1939777D02*
X7036997D01*
X7073496Y1974309D02*
X7036997D01*
G54D15*
X7060916Y2020035D02*
X7049577D01*
G54D14*
X7071497Y2004769D02*
X7038997D01*
X7071497Y2035300D02*
X7038997D01*
G54D16*
X7243239Y2135842D02*
Y2182102D01*
G54D17*
X7219823Y2119808D02*
Y2198135D01*
X7266654Y2119808D02*
Y2198135D01*
G54D18*
X7243239Y2007889D02*
Y2054149D01*
G54D17*
X7217824Y1989855D02*
Y2072183D01*
X7268654Y1989855D02*
Y2072183D01*
G54D19*
X7125562Y2157791D03*
G54D19*
Y2019995D03*
G54D20*
X6982412Y1986176D02*
Y2005862D01*
G54D21*
X6957540Y1969178D02*
Y2022860D01*
X7007284Y1969178D02*
Y2022860D01*
G54D19*
X6982412Y2131846D02*
Y2151531D01*
G54D21*
X6955540Y2112848D02*
Y2170529D01*
X7009284Y2112848D02*
Y2170529D01*
G54D15*
X7135798Y2250389D02*
Y2261728D01*
G54D14*
X7120532Y2239808D02*
Y2272308D01*
X7151063Y2239808D02*
Y2272308D01*
G54D15*
X7198790Y2250389D02*
Y2261728D01*
G54D14*
X7183524Y2239808D02*
Y2272308D01*
X7214056Y2239808D02*
Y2272308D01*
G54D13*
X7179262Y1950547D02*
Y1961885D01*
G54D14*
X7161996Y1937966D02*
Y1974466D01*
X7196528Y1937966D02*
Y1974466D01*
G54D13*
X7116270Y1950547D02*
Y1961885D01*
G54D14*
X7099004Y1937966D02*
Y1974466D01*
X7133536Y1937966D02*
Y1974466D01*
G54D22*
X7253081Y2422751D03*
G54D22*
Y2457200D03*
G54D22*
X7217491D03*
G54D22*
Y2422712D03*
G54D22*
X7218632Y2492633D03*
G54D22*
X7253514D03*
G54D22*
X7291420Y2521444D03*
G54D22*
X6995286Y2216058D03*
G54D22*
X6966664Y2218027D03*
G54D22*
X7085758Y2256413D03*
G54D22*
X6942979Y2444405D03*
G54D22*
X6944979Y2522113D03*
G54D22*
X6969617Y1795783D03*
G54D22*
X6994223D03*
G54D23*
X7266861Y1796814D03*
G54D23*
X7241270D03*
G54D23*
X7292404Y2242633D03*
G54D23*
X7292562Y2340980D03*
G54D23*
Y2425743D03*
G54D23*
X7212176Y2378460D03*
G54D23*
X7100522Y2523413D03*
G54D23*
X7005719Y2523806D03*
G54D23*
X7004065Y2463106D03*
G54D23*
X6998475Y2389838D03*
G54D23*
X7011939Y2350035D03*
G54D23*
X6943050Y2218027D03*
G54D23*
X7014184Y2196806D03*
G54D23*
X6943089Y1888302D03*
G54D23*
Y1796255D03*
G54D23*
X7061152Y1794799D03*
G54D23*
X7085522D03*
G54D23*
X7150168Y1795074D03*
G54D23*
X7176113D03*
G54D10*
X7547373Y-1740044D02*
X7543436D01*
X7547373Y-1803036D02*
X7543436D01*
G54D11*
X7642491Y-1463075D03*
G54D12*
X7544302Y-1453233D03*
G54D12*
X7644262Y-1557564D03*
G54D12*
X7543436Y-1547170D03*
G54D11*
X7749144Y-2086107D03*
G54D11*
X7466467Y-2084138D03*
G54D12*
X7654656Y-2086107D03*
G54D12*
X7560168D03*
G54D13*
X7549105Y-1979965D02*
X7537767D01*
G54D14*
X7561685Y-1997231D02*
X7525186D01*
X7561685Y-1962699D02*
X7525186D01*
G54D15*
X7549105Y-1916973D02*
X7537766D01*
G54D14*
X7559686Y-1932239D02*
X7527186D01*
X7559686Y-1901707D02*
X7527186D01*
G54D16*
X7731428Y-1801166D02*
Y-1754906D01*
G54D17*
X7708012Y-1817200D02*
Y-1738873D01*
X7754843Y-1817200D02*
Y-1738873D01*
G54D18*
X7731428Y-1929119D02*
Y-1882858D01*
G54D17*
X7706013Y-1947152D02*
Y-1864825D01*
X7756843Y-1947152D02*
Y-1864825D01*
G54D19*
X7613750Y-1779217D03*
G54D19*
Y-1917013D03*
G54D20*
X7470601Y-1950831D02*
Y-1931146D01*
G54D21*
X7445729Y-1967829D02*
Y-1914148D01*
X7495473Y-1967829D02*
Y-1914148D01*
G54D19*
X7470601Y-1805162D02*
Y-1785477D01*
G54D21*
X7443729Y-1824160D02*
Y-1766479D01*
X7497473Y-1824160D02*
Y-1766479D01*
G54D15*
X7623987Y-1686619D02*
Y-1675280D01*
G54D14*
X7608721Y-1697200D02*
Y-1664700D01*
X7639252Y-1697200D02*
Y-1664700D01*
G54D15*
X7686979Y-1686619D02*
Y-1675280D01*
G54D14*
X7671713Y-1697200D02*
Y-1664700D01*
X7702245Y-1697200D02*
Y-1664700D01*
G54D13*
X7667451Y-1986461D02*
Y-1975123D01*
G54D14*
X7650185Y-1999042D02*
Y-1962542D01*
X7684717Y-1999042D02*
Y-1962542D01*
G54D13*
X7604459Y-1986461D02*
Y-1975123D01*
G54D14*
X7587193Y-1999042D02*
Y-1962542D01*
X7621725Y-1999042D02*
Y-1962542D01*
G54D22*
X7741270Y-1514257D03*
G54D22*
Y-1479808D03*
G54D22*
X7705680D03*
G54D22*
Y-1514296D03*
G54D22*
X7706821Y-1444375D03*
G54D22*
X7741703D03*
G54D22*
X7779609Y-1415564D03*
G54D22*
X7483475Y-1720950D03*
G54D22*
X7454853Y-1718981D03*
G54D22*
X7573947Y-1680595D03*
G54D22*
X7431168Y-1492603D03*
G54D22*
X7433168Y-1414894D03*
G54D22*
X7457806Y-2141225D03*
G54D22*
X7482412D03*
G54D23*
X7755050Y-2140194D03*
G54D23*
X7729459D03*
G54D23*
X7780593Y-1694375D03*
G54D23*
X7780750Y-1596028D03*
G54D23*
Y-1511264D03*
G54D23*
X7700365Y-1558548D03*
G54D23*
X7588711Y-1413595D03*
G54D23*
X7493908Y-1413201D03*
G54D23*
X7492254Y-1473902D03*
G54D23*
X7486664Y-1547170D03*
G54D23*
X7500128Y-1586973D03*
G54D23*
X7431239Y-1718981D03*
G54D23*
X7502373Y-1740201D03*
G54D23*
X7431278Y-2048705D03*
G54D23*
Y-2140753D03*
G54D23*
X7549341Y-2142209D03*
G54D23*
X7573711D03*
G54D23*
X7638357Y-2141934D03*
G54D23*
X7664302D03*
G54D10*
X7547373Y-755792D02*
X7543436D01*
X7547373Y-818784D02*
X7543436D01*
G54D11*
X7642491Y-478824D03*
G54D12*
X7544302Y-468981D03*
G54D12*
X7644262Y-573312D03*
G54D12*
X7543436Y-562918D03*
G54D11*
X7749144Y-1101855D03*
G54D11*
X7466467Y-1099887D03*
G54D12*
X7654656Y-1101855D03*
G54D12*
X7560168D03*
G54D13*
X7549105Y-995713D02*
X7537767D01*
G54D14*
X7561685Y-1012979D02*
X7525186D01*
X7561685Y-978447D02*
X7525186D01*
G54D15*
X7549105Y-932721D02*
X7537766D01*
G54D14*
X7559686Y-947987D02*
X7527186D01*
X7559686Y-917455D02*
X7527186D01*
G54D16*
X7731428Y-816914D02*
Y-770654D01*
G54D17*
X7708012Y-832948D02*
Y-754621D01*
X7754843Y-832948D02*
Y-754621D01*
G54D18*
X7731428Y-944867D02*
Y-898606D01*
G54D17*
X7706013Y-962900D02*
Y-880573D01*
X7756843Y-962900D02*
Y-880573D01*
G54D19*
X7613750Y-794965D03*
G54D19*
Y-932761D03*
G54D20*
X7470601Y-966579D02*
Y-946894D01*
G54D21*
X7445729Y-983577D02*
Y-929896D01*
X7495473Y-983577D02*
Y-929896D01*
G54D19*
X7470601Y-820910D02*
Y-801225D01*
G54D21*
X7443729Y-839908D02*
Y-782227D01*
X7497473Y-839908D02*
Y-782227D01*
G54D15*
X7623987Y-702367D02*
Y-691028D01*
G54D14*
X7608721Y-712948D02*
Y-680448D01*
X7639252Y-712948D02*
Y-680448D01*
G54D15*
X7686979Y-702367D02*
Y-691028D01*
G54D14*
X7671713Y-712948D02*
Y-680448D01*
X7702245Y-712948D02*
Y-680448D01*
G54D13*
X7667451Y-1002209D02*
Y-990871D01*
G54D14*
X7650185Y-1014790D02*
Y-978290D01*
X7684717Y-1014790D02*
Y-978290D01*
G54D13*
X7604459Y-1002209D02*
Y-990871D01*
G54D14*
X7587193Y-1014790D02*
Y-978290D01*
X7621725Y-1014790D02*
Y-978290D01*
G54D22*
X7741270Y-530005D03*
G54D22*
Y-495556D03*
G54D22*
X7705680D03*
G54D22*
Y-530044D03*
G54D22*
X7706821Y-460123D03*
G54D22*
X7741703D03*
G54D22*
X7779609Y-431312D03*
G54D22*
X7483475Y-736698D03*
G54D22*
X7454853Y-734729D03*
G54D22*
X7573947Y-696343D03*
G54D22*
X7431168Y-508351D03*
G54D22*
X7433168Y-430642D03*
G54D22*
X7457806Y-1156973D03*
G54D22*
X7482412D03*
G54D23*
X7755050Y-1155942D03*
G54D23*
X7729459D03*
G54D23*
X7780593Y-710123D03*
G54D23*
X7780750Y-611776D03*
G54D23*
Y-527013D03*
G54D23*
X7700365Y-574296D03*
G54D23*
X7588711Y-429343D03*
G54D23*
X7493908Y-428950D03*
G54D23*
X7492254Y-489650D03*
G54D23*
X7486664Y-562918D03*
G54D23*
X7500128Y-602721D03*
G54D23*
X7431239Y-734729D03*
G54D23*
X7502373Y-755950D03*
G54D23*
X7431278Y-1064453D03*
G54D23*
Y-1156501D03*
G54D23*
X7549341Y-1157957D03*
G54D23*
X7573711D03*
G54D23*
X7638357Y-1157682D03*
G54D23*
X7664302D03*
G54D10*
X7547373Y228460D02*
X7543436D01*
X7547373Y165468D02*
X7543436D01*
G54D11*
X7642491Y505428D03*
G54D12*
X7544302Y515271D03*
G54D12*
X7644262Y410940D03*
G54D12*
X7543436Y421334D03*
G54D11*
X7749144Y-117603D03*
G54D11*
X7466467Y-115635D03*
G54D12*
X7654656Y-117603D03*
G54D12*
X7560168D03*
G54D13*
X7549105Y-11461D02*
X7537767D01*
G54D14*
X7561685Y-28727D02*
X7525186D01*
X7561685Y5805D02*
X7525186D01*
G54D15*
X7549105Y51531D02*
X7537766D01*
G54D14*
X7559686Y36265D02*
X7527186D01*
X7559686Y66797D02*
X7527186D01*
G54D16*
X7731428Y167338D02*
Y213598D01*
G54D17*
X7708012Y151304D02*
Y229631D01*
X7754843Y151304D02*
Y229631D01*
G54D18*
X7731428Y39385D02*
Y85645D01*
G54D17*
X7706013Y21351D02*
Y103679D01*
X7756843Y21351D02*
Y103679D01*
G54D19*
X7613750Y189287D03*
G54D19*
Y51491D03*
G54D20*
X7470601Y17673D02*
Y37358D01*
G54D21*
X7445729Y675D02*
Y54356D01*
X7495473Y675D02*
Y54356D01*
G54D19*
X7470601Y163342D02*
Y183027D01*
G54D21*
X7443729Y144344D02*
Y202025D01*
X7497473Y144344D02*
Y202025D01*
G54D15*
X7623987Y281885D02*
Y293224D01*
G54D14*
X7608721Y271304D02*
Y303804D01*
X7639252Y271304D02*
Y303804D01*
G54D15*
X7686979Y281885D02*
Y293224D01*
G54D14*
X7671713Y271304D02*
Y303804D01*
X7702245Y271304D02*
Y303804D01*
G54D13*
X7667451Y-17957D02*
Y-6619D01*
G54D14*
X7650185Y-30538D02*
Y5962D01*
X7684717Y-30538D02*
Y5962D01*
G54D13*
X7604459Y-17957D02*
Y-6619D01*
G54D14*
X7587193Y-30538D02*
Y5962D01*
X7621725Y-30538D02*
Y5962D01*
G54D22*
X7741270Y454247D03*
G54D22*
Y488696D03*
G54D22*
X7705680D03*
G54D22*
Y454208D03*
G54D22*
X7706821Y524129D03*
G54D22*
X7741703D03*
G54D22*
X7779609Y552940D03*
G54D22*
X7483475Y247554D03*
G54D22*
X7454853Y249523D03*
G54D22*
X7573947Y287909D03*
G54D22*
X7431168Y475901D03*
G54D22*
X7433168Y553610D03*
G54D22*
X7457806Y-172721D03*
G54D22*
X7482412D03*
G54D23*
X7755050Y-171690D03*
G54D23*
X7729459D03*
G54D23*
X7780593Y274129D03*
G54D23*
X7780750Y372476D03*
G54D23*
Y457239D03*
G54D23*
X7700365Y409956D03*
G54D23*
X7588711Y554909D03*
G54D23*
X7493908Y555302D03*
G54D23*
X7492254Y494602D03*
G54D23*
X7486664Y421334D03*
G54D23*
X7500128Y381531D03*
G54D23*
X7431239Y249523D03*
G54D23*
X7502373Y228302D03*
G54D23*
X7431278Y-80201D03*
G54D23*
Y-172249D03*
G54D23*
X7549341Y-173705D03*
G54D23*
X7573711D03*
G54D23*
X7638357Y-173430D03*
G54D23*
X7664302D03*
G54D10*
X7547373Y1212712D02*
X7543436D01*
X7547373Y1149720D02*
X7543436D01*
G54D11*
X7642491Y1489680D03*
G54D12*
X7544302Y1499523D03*
G54D12*
X7644262Y1395192D03*
G54D12*
X7543436Y1405586D03*
G54D11*
X7749144Y866649D03*
G54D11*
X7466467Y868617D03*
G54D12*
X7654656Y866649D03*
G54D12*
X7560168D03*
G54D13*
X7549105Y972791D02*
X7537767D01*
G54D14*
X7561685Y955525D02*
X7525186D01*
X7561685Y990057D02*
X7525186D01*
G54D15*
X7549105Y1035783D02*
X7537766D01*
G54D14*
X7559686Y1020517D02*
X7527186D01*
X7559686Y1051049D02*
X7527186D01*
G54D16*
X7731428Y1151590D02*
Y1197850D01*
G54D17*
X7708012Y1135556D02*
Y1213883D01*
X7754843Y1135556D02*
Y1213883D01*
G54D18*
X7731428Y1023637D02*
Y1069897D01*
G54D17*
X7706013Y1005603D02*
Y1087931D01*
X7756843Y1005603D02*
Y1087931D01*
G54D19*
X7613750Y1173539D03*
G54D19*
Y1035743D03*
G54D20*
X7470601Y1001925D02*
Y1021610D01*
G54D21*
X7445729Y984926D02*
Y1038608D01*
X7495473Y984926D02*
Y1038608D01*
G54D19*
X7470601Y1147594D02*
Y1167279D01*
G54D21*
X7443729Y1128596D02*
Y1186277D01*
X7497473Y1128596D02*
Y1186277D01*
G54D15*
X7623987Y1266137D02*
Y1277476D01*
G54D14*
X7608721Y1255556D02*
Y1288056D01*
X7639252Y1255556D02*
Y1288056D01*
G54D15*
X7686979Y1266137D02*
Y1277476D01*
G54D14*
X7671713Y1255556D02*
Y1288056D01*
X7702245Y1255556D02*
Y1288056D01*
G54D13*
X7667451Y966295D02*
Y977633D01*
G54D14*
X7650185Y953714D02*
Y990214D01*
X7684717Y953714D02*
Y990214D01*
G54D13*
X7604459Y966295D02*
Y977633D01*
G54D14*
X7587193Y953714D02*
Y990214D01*
X7621725Y953714D02*
Y990214D01*
G54D22*
X7741270Y1438499D03*
G54D22*
Y1472948D03*
G54D22*
X7705680D03*
G54D22*
Y1438460D03*
G54D22*
X7706821Y1508381D03*
G54D22*
X7741703D03*
G54D22*
X7779609Y1537192D03*
G54D22*
X7483475Y1231806D03*
G54D22*
X7454853Y1233775D03*
G54D22*
X7573947Y1272161D03*
G54D22*
X7431168Y1460153D03*
G54D22*
X7433168Y1537862D03*
G54D22*
X7457806Y811531D03*
G54D22*
X7482412D03*
G54D23*
X7755050Y812562D03*
G54D23*
X7729459D03*
G54D23*
X7780593Y1258381D03*
G54D23*
X7780750Y1356728D03*
G54D23*
Y1441491D03*
G54D23*
X7700365Y1394208D03*
G54D23*
X7588711Y1539161D03*
G54D23*
X7493908Y1539554D03*
G54D23*
X7492254Y1478854D03*
G54D23*
X7486664Y1405586D03*
G54D23*
X7500128Y1365783D03*
G54D23*
X7431239Y1233775D03*
G54D23*
X7502373Y1212554D03*
G54D23*
X7431278Y904050D03*
G54D23*
Y812003D03*
G54D23*
X7549341Y810547D03*
G54D23*
X7573711D03*
G54D23*
X7638357Y810822D03*
G54D23*
X7664302D03*
G54D10*
X7547373Y2196964D02*
X7543436D01*
X7547373Y2133972D02*
X7543436D01*
G54D11*
X7642491Y2473932D03*
G54D12*
X7544302Y2483775D03*
G54D12*
X7644262Y2379444D03*
G54D12*
X7543436Y2389838D03*
G54D11*
X7749144Y1850901D03*
G54D11*
X7466467Y1852869D03*
G54D12*
X7654656Y1850901D03*
G54D12*
X7560168D03*
G54D13*
X7549105Y1957043D02*
X7537767D01*
G54D14*
X7561685Y1939777D02*
X7525186D01*
X7561685Y1974309D02*
X7525186D01*
G54D15*
X7549105Y2020035D02*
X7537766D01*
G54D14*
X7559686Y2004769D02*
X7527186D01*
X7559686Y2035300D02*
X7527186D01*
G54D16*
X7731428Y2135842D02*
Y2182102D01*
G54D17*
X7708012Y2119808D02*
Y2198135D01*
X7754843Y2119808D02*
Y2198135D01*
G54D18*
X7731428Y2007889D02*
Y2054149D01*
G54D17*
X7706013Y1989855D02*
Y2072183D01*
X7756843Y1989855D02*
Y2072183D01*
G54D19*
X7613750Y2157791D03*
G54D19*
Y2019995D03*
G54D20*
X7470601Y1986176D02*
Y2005862D01*
G54D21*
X7445729Y1969178D02*
Y2022860D01*
X7495473Y1969178D02*
Y2022860D01*
G54D19*
X7470601Y2131846D02*
Y2151531D01*
G54D21*
X7443729Y2112848D02*
Y2170529D01*
X7497473Y2112848D02*
Y2170529D01*
G54D15*
X7623987Y2250389D02*
Y2261728D01*
G54D14*
X7608721Y2239808D02*
Y2272308D01*
X7639252Y2239808D02*
Y2272308D01*
G54D15*
X7686979Y2250389D02*
Y2261728D01*
G54D14*
X7671713Y2239808D02*
Y2272308D01*
X7702245Y2239808D02*
Y2272308D01*
G54D13*
X7667451Y1950547D02*
Y1961885D01*
G54D14*
X7650185Y1937966D02*
Y1974466D01*
X7684717Y1937966D02*
Y1974466D01*
G54D13*
X7604459Y1950547D02*
Y1961885D01*
G54D14*
X7587193Y1937966D02*
Y1974466D01*
X7621725Y1937966D02*
Y1974466D01*
G54D22*
X7741270Y2422751D03*
G54D22*
Y2457200D03*
G54D22*
X7705680D03*
G54D22*
Y2422712D03*
G54D22*
X7706821Y2492633D03*
G54D22*
X7741703D03*
G54D22*
X7779609Y2521444D03*
G54D22*
X7483475Y2216058D03*
G54D22*
X7454853Y2218027D03*
G54D22*
X7573947Y2256413D03*
G54D22*
X7431168Y2444405D03*
G54D22*
X7433168Y2522113D03*
G54D22*
X7457806Y1795783D03*
G54D22*
X7482412D03*
G54D23*
X7755050Y1796814D03*
G54D23*
X7729459D03*
G54D23*
X7780593Y2242633D03*
G54D23*
X7780750Y2340980D03*
G54D23*
Y2425743D03*
G54D23*
X7700365Y2378460D03*
G54D23*
X7588711Y2523413D03*
G54D23*
X7493908Y2523806D03*
G54D23*
X7492254Y2463106D03*
G54D23*
X7486664Y2389838D03*
G54D23*
X7500128Y2350035D03*
G54D23*
X7431239Y2218027D03*
G54D23*
X7502373Y2196806D03*
G54D23*
X7431278Y1888302D03*
G54D23*
Y1796255D03*
G54D23*
X7549341Y1794799D03*
G54D23*
X7573711D03*
G54D23*
X7638357Y1795074D03*
G54D23*
X7664302D03*
G54D10*
X8035562Y-1740044D02*
X8031625D01*
X8035562Y-1803036D02*
X8031625D01*
G54D11*
X8130680Y-1463075D03*
G54D12*
X8032491Y-1453233D03*
G54D12*
X8132451Y-1557564D03*
G54D12*
X8031625Y-1547170D03*
G54D11*
X8237333Y-2086107D03*
G54D11*
X7954656Y-2084138D03*
G54D12*
X8142845Y-2086107D03*
G54D12*
X8048357D03*
G54D13*
X8037294Y-1979965D02*
X8025956D01*
G54D14*
X8049874Y-1997231D02*
X8013375D01*
X8049874Y-1962699D02*
X8013375D01*
G54D15*
X8037294Y-1916973D02*
X8025955D01*
G54D14*
X8047875Y-1932239D02*
X8015375D01*
X8047875Y-1901707D02*
X8015375D01*
G54D16*
X8219617Y-1801166D02*
Y-1754906D01*
G54D17*
X8196201Y-1817200D02*
Y-1738873D01*
X8243032Y-1817200D02*
Y-1738873D01*
G54D18*
X8219617Y-1929119D02*
Y-1882858D01*
G54D17*
X8194202Y-1947152D02*
Y-1864825D01*
X8245032Y-1947152D02*
Y-1864825D01*
G54D19*
X8101939Y-1779217D03*
G54D19*
Y-1917013D03*
G54D20*
X7958790Y-1950831D02*
Y-1931146D01*
G54D21*
X7933918Y-1967829D02*
Y-1914148D01*
X7983662Y-1967829D02*
Y-1914148D01*
G54D19*
X7958790Y-1805162D02*
Y-1785477D01*
G54D21*
X7931918Y-1824160D02*
Y-1766479D01*
X7985662Y-1824160D02*
Y-1766479D01*
G54D15*
X8112176Y-1686619D02*
Y-1675280D01*
G54D14*
X8096910Y-1697200D02*
Y-1664700D01*
X8127441Y-1697200D02*
Y-1664700D01*
G54D15*
X8175168Y-1686619D02*
Y-1675280D01*
G54D14*
X8159902Y-1697200D02*
Y-1664700D01*
X8190434Y-1697200D02*
Y-1664700D01*
G54D13*
X8155640Y-1986461D02*
Y-1975123D01*
G54D14*
X8138374Y-1999042D02*
Y-1962542D01*
X8172906Y-1999042D02*
Y-1962542D01*
G54D13*
X8092648Y-1986461D02*
Y-1975123D01*
G54D14*
X8075382Y-1999042D02*
Y-1962542D01*
X8109914Y-1999042D02*
Y-1962542D01*
G54D22*
X8229459Y-1514257D03*
G54D22*
Y-1479808D03*
G54D22*
X8193869D03*
G54D22*
Y-1514296D03*
G54D22*
X8195010Y-1444375D03*
G54D22*
X8229892D03*
G54D22*
X8267798Y-1415564D03*
G54D22*
X7971664Y-1720950D03*
G54D22*
X7943042Y-1718981D03*
G54D22*
X8062136Y-1680595D03*
G54D22*
X7919357Y-1492603D03*
G54D22*
X7921357Y-1414894D03*
G54D22*
X7945995Y-2141225D03*
G54D22*
X7970601D03*
G54D23*
X8243239Y-2140194D03*
G54D23*
X8217648D03*
G54D23*
X8268782Y-1694375D03*
G54D23*
X8268939Y-1596028D03*
G54D23*
Y-1511264D03*
G54D23*
X8188554Y-1558548D03*
G54D23*
X8076900Y-1413595D03*
G54D23*
X7982097Y-1413201D03*
G54D23*
X7980443Y-1473902D03*
G54D23*
X7974853Y-1547170D03*
G54D23*
X7988317Y-1586973D03*
G54D23*
X7919428Y-1718981D03*
G54D23*
X7990562Y-1740201D03*
G54D23*
X7919467Y-2048705D03*
G54D23*
Y-2140753D03*
G54D23*
X8037530Y-2142209D03*
G54D23*
X8061900D03*
G54D23*
X8126546Y-2141934D03*
G54D23*
X8152491D03*
G54D10*
X8035562Y-755792D02*
X8031625D01*
X8035562Y-818784D02*
X8031625D01*
G54D11*
X8130680Y-478824D03*
G54D12*
X8032491Y-468981D03*
G54D12*
X8132451Y-573312D03*
G54D12*
X8031625Y-562918D03*
G54D11*
X8237333Y-1101855D03*
G54D11*
X7954656Y-1099887D03*
G54D12*
X8142845Y-1101855D03*
G54D12*
X8048357D03*
G54D13*
X8037294Y-995713D02*
X8025956D01*
G54D14*
X8049874Y-1012979D02*
X8013375D01*
X8049874Y-978447D02*
X8013375D01*
G54D15*
X8037294Y-932721D02*
X8025955D01*
G54D14*
X8047875Y-947987D02*
X8015375D01*
X8047875Y-917455D02*
X8015375D01*
G54D16*
X8219617Y-816914D02*
Y-770654D01*
G54D17*
X8196201Y-832948D02*
Y-754621D01*
X8243032Y-832948D02*
Y-754621D01*
G54D18*
X8219617Y-944867D02*
Y-898606D01*
G54D17*
X8194202Y-962900D02*
Y-880573D01*
X8245032Y-962900D02*
Y-880573D01*
G54D19*
X8101939Y-794965D03*
G54D19*
Y-932761D03*
G54D20*
X7958790Y-966579D02*
Y-946894D01*
G54D21*
X7933918Y-983577D02*
Y-929896D01*
X7983662Y-983577D02*
Y-929896D01*
G54D19*
X7958790Y-820910D02*
Y-801225D01*
G54D21*
X7931918Y-839908D02*
Y-782227D01*
X7985662Y-839908D02*
Y-782227D01*
G54D15*
X8112176Y-702367D02*
Y-691028D01*
G54D14*
X8096910Y-712948D02*
Y-680448D01*
X8127441Y-712948D02*
Y-680448D01*
G54D15*
X8175168Y-702367D02*
Y-691028D01*
G54D14*
X8159902Y-712948D02*
Y-680448D01*
X8190434Y-712948D02*
Y-680448D01*
G54D13*
X8155640Y-1002209D02*
Y-990871D01*
G54D14*
X8138374Y-1014790D02*
Y-978290D01*
X8172906Y-1014790D02*
Y-978290D01*
G54D13*
X8092648Y-1002209D02*
Y-990871D01*
G54D14*
X8075382Y-1014790D02*
Y-978290D01*
X8109914Y-1014790D02*
Y-978290D01*
G54D22*
X8229459Y-530005D03*
G54D22*
Y-495556D03*
G54D22*
X8193869D03*
G54D22*
Y-530044D03*
G54D22*
X8195010Y-460123D03*
G54D22*
X8229892D03*
G54D22*
X8267798Y-431312D03*
G54D22*
X7971664Y-736698D03*
G54D22*
X7943042Y-734729D03*
G54D22*
X8062136Y-696343D03*
G54D22*
X7919357Y-508351D03*
G54D22*
X7921357Y-430642D03*
G54D22*
X7945995Y-1156973D03*
G54D22*
X7970601D03*
G54D23*
X8243239Y-1155942D03*
G54D23*
X8217648D03*
G54D23*
X8268782Y-710123D03*
G54D23*
X8268939Y-611776D03*
G54D23*
Y-527013D03*
G54D23*
X8188554Y-574296D03*
G54D23*
X8076900Y-429343D03*
G54D23*
X7982097Y-428950D03*
G54D23*
X7980443Y-489650D03*
G54D23*
X7974853Y-562918D03*
G54D23*
X7988317Y-602721D03*
G54D23*
X7919428Y-734729D03*
G54D23*
X7990562Y-755950D03*
G54D23*
X7919467Y-1064453D03*
G54D23*
Y-1156501D03*
G54D23*
X8037530Y-1157957D03*
G54D23*
X8061900D03*
G54D23*
X8126546Y-1157682D03*
G54D23*
X8152491D03*
G54D10*
X8035562Y228460D02*
X8031625D01*
X8035562Y165468D02*
X8031625D01*
G54D11*
X8130680Y505428D03*
G54D12*
X8032491Y515271D03*
G54D12*
X8132451Y410940D03*
G54D12*
X8031625Y421334D03*
G54D11*
X8237333Y-117603D03*
G54D11*
X7954656Y-115635D03*
G54D12*
X8142845Y-117603D03*
G54D12*
X8048357D03*
G54D13*
X8037294Y-11461D02*
X8025956D01*
G54D14*
X8049874Y-28727D02*
X8013375D01*
X8049874Y5805D02*
X8013375D01*
G54D15*
X8037294Y51531D02*
X8025955D01*
G54D14*
X8047875Y36265D02*
X8015375D01*
X8047875Y66797D02*
X8015375D01*
G54D16*
X8219617Y167338D02*
Y213598D01*
G54D17*
X8196201Y151304D02*
Y229631D01*
X8243032Y151304D02*
Y229631D01*
G54D18*
X8219617Y39385D02*
Y85645D01*
G54D17*
X8194202Y21351D02*
Y103679D01*
X8245032Y21351D02*
Y103679D01*
G54D19*
X8101939Y189287D03*
G54D19*
Y51491D03*
G54D20*
X7958790Y17673D02*
Y37358D01*
G54D21*
X7933918Y675D02*
Y54356D01*
X7983662Y675D02*
Y54356D01*
G54D19*
X7958790Y163342D02*
Y183027D01*
G54D21*
X7931918Y144344D02*
Y202025D01*
X7985662Y144344D02*
Y202025D01*
G54D15*
X8112176Y281885D02*
Y293224D01*
G54D14*
X8096910Y271304D02*
Y303804D01*
X8127441Y271304D02*
Y303804D01*
G54D15*
X8175168Y281885D02*
Y293224D01*
G54D14*
X8159902Y271304D02*
Y303804D01*
X8190434Y271304D02*
Y303804D01*
G54D13*
X8155640Y-17957D02*
Y-6619D01*
G54D14*
X8138374Y-30538D02*
Y5962D01*
X8172906Y-30538D02*
Y5962D01*
G54D13*
X8092648Y-17957D02*
Y-6619D01*
G54D14*
X8075382Y-30538D02*
Y5962D01*
X8109914Y-30538D02*
Y5962D01*
G54D22*
X8229459Y454247D03*
G54D22*
Y488696D03*
G54D22*
X8193869D03*
G54D22*
Y454208D03*
G54D22*
X8195010Y524129D03*
G54D22*
X8229892D03*
G54D22*
X8267798Y552940D03*
G54D22*
X7971664Y247554D03*
G54D22*
X7943042Y249523D03*
G54D22*
X8062136Y287909D03*
G54D22*
X7919357Y475901D03*
G54D22*
X7921357Y553610D03*
G54D22*
X7945995Y-172721D03*
G54D22*
X7970601D03*
G54D23*
X8243239Y-171690D03*
G54D23*
X8217648D03*
G54D23*
X8268782Y274129D03*
G54D23*
X8268939Y372476D03*
G54D23*
Y457239D03*
G54D23*
X8188554Y409956D03*
G54D23*
X8076900Y554909D03*
G54D23*
X7982097Y555302D03*
G54D23*
X7980443Y494602D03*
G54D23*
X7974853Y421334D03*
G54D23*
X7988317Y381531D03*
G54D23*
X7919428Y249523D03*
G54D23*
X7990562Y228302D03*
G54D23*
X7919467Y-80201D03*
G54D23*
Y-172249D03*
G54D23*
X8037530Y-173705D03*
G54D23*
X8061900D03*
G54D23*
X8126546Y-173430D03*
G54D23*
X8152491D03*
G54D10*
X8035562Y1212712D02*
X8031625D01*
X8035562Y1149720D02*
X8031625D01*
G54D11*
X8130680Y1489680D03*
G54D12*
X8032491Y1499523D03*
G54D12*
X8132451Y1395192D03*
G54D12*
X8031625Y1405586D03*
G54D11*
X8237333Y866649D03*
G54D11*
X7954656Y868617D03*
G54D12*
X8142845Y866649D03*
G54D12*
X8048357D03*
G54D13*
X8037294Y972791D02*
X8025956D01*
G54D14*
X8049874Y955525D02*
X8013375D01*
X8049874Y990057D02*
X8013375D01*
G54D15*
X8037294Y1035783D02*
X8025955D01*
G54D14*
X8047875Y1020517D02*
X8015375D01*
X8047875Y1051049D02*
X8015375D01*
G54D16*
X8219617Y1151590D02*
Y1197850D01*
G54D17*
X8196201Y1135556D02*
Y1213883D01*
X8243032Y1135556D02*
Y1213883D01*
G54D18*
X8219617Y1023637D02*
Y1069897D01*
G54D17*
X8194202Y1005603D02*
Y1087931D01*
X8245032Y1005603D02*
Y1087931D01*
G54D19*
X8101939Y1173539D03*
G54D19*
Y1035743D03*
G54D20*
X7958790Y1001925D02*
Y1021610D01*
G54D21*
X7933918Y984926D02*
Y1038608D01*
X7983662Y984926D02*
Y1038608D01*
G54D19*
X7958790Y1147594D02*
Y1167279D01*
G54D21*
X7931918Y1128596D02*
Y1186277D01*
X7985662Y1128596D02*
Y1186277D01*
G54D15*
X8112176Y1266137D02*
Y1277476D01*
G54D14*
X8096910Y1255556D02*
Y1288056D01*
X8127441Y1255556D02*
Y1288056D01*
G54D15*
X8175168Y1266137D02*
Y1277476D01*
G54D14*
X8159902Y1255556D02*
Y1288056D01*
X8190434Y1255556D02*
Y1288056D01*
G54D13*
X8155640Y966295D02*
Y977633D01*
G54D14*
X8138374Y953714D02*
Y990214D01*
X8172906Y953714D02*
Y990214D01*
G54D13*
X8092648Y966295D02*
Y977633D01*
G54D14*
X8075382Y953714D02*
Y990214D01*
X8109914Y953714D02*
Y990214D01*
G54D22*
X8229459Y1438499D03*
G54D22*
Y1472948D03*
G54D22*
X8193869D03*
G54D22*
Y1438460D03*
G54D22*
X8195010Y1508381D03*
G54D22*
X8229892D03*
G54D22*
X8267798Y1537192D03*
G54D22*
X7971664Y1231806D03*
G54D22*
X7943042Y1233775D03*
G54D22*
X8062136Y1272161D03*
G54D22*
X7919357Y1460153D03*
G54D22*
X7921357Y1537862D03*
G54D22*
X7945995Y811531D03*
G54D22*
X7970601D03*
G54D23*
X8243239Y812562D03*
G54D23*
X8217648D03*
G54D23*
X8268782Y1258381D03*
G54D23*
X8268939Y1356728D03*
G54D23*
Y1441491D03*
G54D23*
X8188554Y1394208D03*
G54D23*
X8076900Y1539161D03*
G54D23*
X7982097Y1539554D03*
G54D23*
X7980443Y1478854D03*
G54D23*
X7974853Y1405586D03*
G54D23*
X7988317Y1365783D03*
G54D23*
X7919428Y1233775D03*
G54D23*
X7990562Y1212554D03*
G54D23*
X7919467Y904050D03*
G54D23*
Y812003D03*
G54D23*
X8037530Y810547D03*
G54D23*
X8061900D03*
G54D23*
X8126546Y810822D03*
G54D23*
X8152491D03*
G54D10*
X8035562Y2196964D02*
X8031625D01*
X8035562Y2133972D02*
X8031625D01*
G54D11*
X8130680Y2473932D03*
G54D12*
X8032491Y2483775D03*
G54D12*
X8132451Y2379444D03*
G54D12*
X8031625Y2389838D03*
G54D11*
X8237333Y1850901D03*
G54D11*
X7954656Y1852869D03*
G54D12*
X8142845Y1850901D03*
G54D12*
X8048357D03*
G54D13*
X8037294Y1957043D02*
X8025956D01*
G54D14*
X8049874Y1939777D02*
X8013375D01*
X8049874Y1974309D02*
X8013375D01*
G54D15*
X8037294Y2020035D02*
X8025955D01*
G54D14*
X8047875Y2004769D02*
X8015375D01*
X8047875Y2035300D02*
X8015375D01*
G54D16*
X8219617Y2135842D02*
Y2182102D01*
G54D17*
X8196201Y2119808D02*
Y2198135D01*
X8243032Y2119808D02*
Y2198135D01*
G54D18*
X8219617Y2007889D02*
Y2054149D01*
G54D17*
X8194202Y1989855D02*
Y2072183D01*
X8245032Y1989855D02*
Y2072183D01*
G54D19*
X8101939Y2157791D03*
G54D19*
Y2019995D03*
G54D20*
X7958790Y1986176D02*
Y2005862D01*
G54D21*
X7933918Y1969178D02*
Y2022860D01*
X7983662Y1969178D02*
Y2022860D01*
G54D19*
X7958790Y2131846D02*
Y2151531D01*
G54D21*
X7931918Y2112848D02*
Y2170529D01*
X7985662Y2112848D02*
Y2170529D01*
G54D15*
X8112176Y2250389D02*
Y2261728D01*
G54D14*
X8096910Y2239808D02*
Y2272308D01*
X8127441Y2239808D02*
Y2272308D01*
G54D15*
X8175168Y2250389D02*
Y2261728D01*
G54D14*
X8159902Y2239808D02*
Y2272308D01*
X8190434Y2239808D02*
Y2272308D01*
G54D13*
X8155640Y1950547D02*
Y1961885D01*
G54D14*
X8138374Y1937966D02*
Y1974466D01*
X8172906Y1937966D02*
Y1974466D01*
G54D13*
X8092648Y1950547D02*
Y1961885D01*
G54D14*
X8075382Y1937966D02*
Y1974466D01*
X8109914Y1937966D02*
Y1974466D01*
G54D22*
X8229459Y2422751D03*
G54D22*
Y2457200D03*
G54D22*
X8193869D03*
G54D22*
Y2422712D03*
G54D22*
X8195010Y2492633D03*
G54D22*
X8229892D03*
G54D22*
X8267798Y2521444D03*
G54D22*
X7971664Y2216058D03*
G54D22*
X7943042Y2218027D03*
G54D22*
X8062136Y2256413D03*
G54D22*
X7919357Y2444405D03*
G54D22*
X7921357Y2522113D03*
G54D22*
X7945995Y1795783D03*
G54D22*
X7970601D03*
G54D23*
X8243239Y1796814D03*
G54D23*
X8217648D03*
G54D23*
X8268782Y2242633D03*
G54D23*
X8268939Y2340980D03*
G54D23*
Y2425743D03*
G54D23*
X8188554Y2378460D03*
G54D23*
X8076900Y2523413D03*
G54D23*
X7982097Y2523806D03*
G54D23*
X7980443Y2463106D03*
G54D23*
X7974853Y2389838D03*
G54D23*
X7988317Y2350035D03*
G54D23*
X7919428Y2218027D03*
G54D23*
X7990562Y2196806D03*
G54D23*
X7919467Y1888302D03*
G54D23*
Y1796255D03*
G54D23*
X8037530Y1794799D03*
G54D23*
X8061900D03*
G54D23*
X8126546Y1795074D03*
G54D23*
X8152491D03*
G54D24*
X4882018Y-1531294D02*
Y-1383784D01*
Y-1984045D02*
Y-1574503D01*
Y-2171186D02*
X4472569D01*
X4882018D02*
Y-2027263D01*
Y-1531294D02*
G03X4882018Y-1574503I-509J-21604D01*
Y-1984045D02*
G03X4882018Y-2027263I-452J-21609D01*
X4472569Y-2027577D02*
G03X4472569Y-1984401I470J21588D01*
Y-1574821D02*
G03X4472569Y-1531645I470J21588D01*
G01Y-1383784D01*
Y-1984401D02*
Y-1574821D01*
Y-2171186D02*
Y-2027577D01*
X4882018Y-1383784D02*
X4472569D01*
X4882018Y-547042D02*
Y-399532D01*
Y-999793D02*
Y-590251D01*
Y-1186934D02*
X4472569D01*
X4882018D02*
Y-1043011D01*
Y-547042D02*
G03X4882018Y-590251I-509J-21604D01*
Y-999793D02*
G03X4882018Y-1043011I-452J-21609D01*
X4472569Y-1043325D02*
G03X4472569Y-1000149I470J21588D01*
Y-590569D02*
G03X4472569Y-547393I470J21588D01*
G01Y-399532D01*
Y-1000149D02*
Y-590569D01*
Y-1186934D02*
Y-1043325D01*
X4882018Y-399532D02*
X4472569D01*
X4882018Y437210D02*
Y584720D01*
Y-15541D02*
Y394001D01*
Y-202682D02*
X4472569D01*
X4882018D02*
Y-58759D01*
Y437210D02*
G03X4882018Y394001I-509J-21604D01*
Y-15541D02*
G03X4882018Y-58759I-452J-21609D01*
X4472569Y-59073D02*
G03X4472569Y-15897I470J21588D01*
Y393683D02*
G03X4472569Y436859I470J21588D01*
G01Y584720D01*
Y-15897D02*
Y393683D01*
Y-202682D02*
Y-59073D01*
X4882018Y584720D02*
X4472569D01*
X4882018Y1421462D02*
Y1568972D01*
Y968711D02*
Y1378253D01*
Y781570D02*
X4472569D01*
X4882018D02*
Y925493D01*
Y1421462D02*
G03X4882018Y1378253I-509J-21604D01*
Y968711D02*
G03X4882018Y925493I-452J-21609D01*
X4472569Y925179D02*
G03X4472569Y968355I470J21588D01*
Y1377935D02*
G03X4472569Y1421111I470J21588D01*
G01Y1568972D01*
Y968355D02*
Y1377935D01*
Y781570D02*
Y925179D01*
X4882018Y1568972D02*
X4472569D01*
X4882018Y2405713D02*
Y2553224D01*
Y1952963D02*
Y2362505D01*
Y1765822D02*
X4472569D01*
X4882018D02*
Y1909745D01*
Y2405713D02*
G03X4882018Y2362505I-509J-21604D01*
Y1952963D02*
G03X4882018Y1909745I-452J-21609D01*
X4472569Y1909431D02*
G03X4472569Y1952606I470J21588D01*
Y2362187D02*
G03X4472569Y2405363I470J21588D01*
G01Y2553224D01*
Y1952606D02*
Y2362187D01*
Y1765822D02*
Y1909431D01*
X4882018Y2553224D02*
X4472569D01*
X5370207Y-1531294D02*
Y-1383784D01*
Y-1984045D02*
Y-1574503D01*
Y-2171186D02*
X4960758D01*
X5370207D02*
Y-2027263D01*
Y-1531294D02*
G03X5370207Y-1574503I-509J-21604D01*
Y-1984045D02*
G03X5370207Y-2027263I-452J-21609D01*
X4960758Y-2027577D02*
G03X4960758Y-1984401I470J21588D01*
Y-1574821D02*
G03X4960758Y-1531645I470J21588D01*
G01Y-1383784D01*
Y-1984401D02*
Y-1574821D01*
Y-2171186D02*
Y-2027577D01*
X5370207Y-1383784D02*
X4960758D01*
X5370207Y-547042D02*
Y-399532D01*
Y-999793D02*
Y-590251D01*
Y-1186934D02*
X4960758D01*
X5370207D02*
Y-1043011D01*
Y-547042D02*
G03X5370207Y-590251I-509J-21604D01*
Y-999793D02*
G03X5370207Y-1043011I-452J-21609D01*
X4960758Y-1043325D02*
G03X4960758Y-1000149I470J21588D01*
Y-590569D02*
G03X4960758Y-547393I470J21588D01*
G01Y-399532D01*
Y-1000149D02*
Y-590569D01*
Y-1186934D02*
Y-1043325D01*
X5370207Y-399532D02*
X4960758D01*
X5370207Y437210D02*
Y584720D01*
Y-15541D02*
Y394001D01*
Y-202682D02*
X4960758D01*
X5370207D02*
Y-58759D01*
Y437210D02*
G03X5370207Y394001I-509J-21604D01*
Y-15541D02*
G03X5370207Y-58759I-452J-21609D01*
X4960758Y-59073D02*
G03X4960758Y-15897I470J21588D01*
Y393683D02*
G03X4960758Y436859I470J21588D01*
G01Y584720D01*
Y-15897D02*
Y393683D01*
Y-202682D02*
Y-59073D01*
X5370207Y584720D02*
X4960758D01*
X5370207Y1421462D02*
Y1568972D01*
Y968711D02*
Y1378253D01*
Y781570D02*
X4960758D01*
X5370207D02*
Y925493D01*
Y1421462D02*
G03X5370207Y1378253I-509J-21604D01*
Y968711D02*
G03X5370207Y925493I-452J-21609D01*
X4960758Y925179D02*
G03X4960758Y968355I470J21588D01*
Y1377935D02*
G03X4960758Y1421111I470J21588D01*
G01Y1568972D01*
Y968355D02*
Y1377935D01*
Y781570D02*
Y925179D01*
X5370207Y1568972D02*
X4960758D01*
X5370207Y2405713D02*
Y2553224D01*
Y1952963D02*
Y2362505D01*
Y1765822D02*
X4960758D01*
X5370207D02*
Y1909745D01*
Y2405713D02*
G03X5370207Y2362505I-509J-21604D01*
Y1952963D02*
G03X5370207Y1909745I-452J-21609D01*
X4960758Y1909431D02*
G03X4960758Y1952606I470J21588D01*
Y2362187D02*
G03X4960758Y2405363I470J21588D01*
G01Y2553224D01*
Y1952606D02*
Y2362187D01*
Y1765822D02*
Y1909431D01*
X5370207Y2553224D02*
X4960758D01*
X5858396Y-1531294D02*
Y-1383784D01*
Y-1984045D02*
Y-1574503D01*
Y-2171186D02*
X5448947D01*
X5858396D02*
Y-2027263D01*
Y-1531294D02*
G03X5858396Y-1574503I-509J-21604D01*
Y-1984045D02*
G03X5858396Y-2027263I-452J-21609D01*
X5448947Y-2027577D02*
G03X5448947Y-1984401I470J21588D01*
Y-1574821D02*
G03X5448947Y-1531645I470J21588D01*
G01Y-1383784D01*
Y-1984401D02*
Y-1574821D01*
Y-2171186D02*
Y-2027577D01*
X5858396Y-1383784D02*
X5448947D01*
X5858396Y-547042D02*
Y-399532D01*
Y-999793D02*
Y-590251D01*
Y-1186934D02*
X5448947D01*
X5858396D02*
Y-1043011D01*
Y-547042D02*
G03X5858396Y-590251I-509J-21604D01*
Y-999793D02*
G03X5858396Y-1043011I-452J-21609D01*
X5448947Y-1043325D02*
G03X5448947Y-1000149I470J21588D01*
Y-590569D02*
G03X5448947Y-547393I470J21588D01*
G01Y-399532D01*
Y-1000149D02*
Y-590569D01*
Y-1186934D02*
Y-1043325D01*
X5858396Y-399532D02*
X5448947D01*
X5858396Y437210D02*
Y584720D01*
Y-15541D02*
Y394001D01*
Y-202682D02*
X5448947D01*
X5858396D02*
Y-58759D01*
Y437210D02*
G03X5858396Y394001I-509J-21604D01*
Y-15541D02*
G03X5858396Y-58759I-452J-21609D01*
X5448947Y-59073D02*
G03X5448947Y-15897I470J21588D01*
Y393683D02*
G03X5448947Y436859I470J21588D01*
G01Y584720D01*
Y-15897D02*
Y393683D01*
Y-202682D02*
Y-59073D01*
X5858396Y584720D02*
X5448947D01*
X5858396Y1421462D02*
Y1568972D01*
Y968711D02*
Y1378253D01*
Y781570D02*
X5448947D01*
X5858396D02*
Y925493D01*
Y1421462D02*
G03X5858396Y1378253I-509J-21604D01*
Y968711D02*
G03X5858396Y925493I-452J-21609D01*
X5448947Y925179D02*
G03X5448947Y968355I470J21588D01*
Y1377935D02*
G03X5448947Y1421111I470J21588D01*
G01Y1568972D01*
Y968355D02*
Y1377935D01*
Y781570D02*
Y925179D01*
X5858396Y1568972D02*
X5448947D01*
X5858396Y2405713D02*
Y2553224D01*
Y1952963D02*
Y2362505D01*
Y1765822D02*
X5448947D01*
X5858396D02*
Y1909745D01*
Y2405713D02*
G03X5858396Y2362505I-509J-21604D01*
Y1952963D02*
G03X5858396Y1909745I-452J-21609D01*
X5448947Y1909431D02*
G03X5448947Y1952606I470J21588D01*
Y2362187D02*
G03X5448947Y2405363I470J21588D01*
G01Y2553224D01*
Y1952606D02*
Y2362187D01*
Y1765822D02*
Y1909431D01*
X5858396Y2553224D02*
X5448947D01*
X6346585Y-1531294D02*
Y-1383784D01*
Y-1984045D02*
Y-1574503D01*
Y-2171186D02*
X5937136D01*
X6346585D02*
Y-2027263D01*
Y-1531294D02*
G03X6346585Y-1574503I-509J-21604D01*
Y-1984045D02*
G03X6346585Y-2027263I-452J-21609D01*
X5937136Y-2027577D02*
G03X5937136Y-1984401I470J21588D01*
Y-1574821D02*
G03X5937136Y-1531645I470J21588D01*
G01Y-1383784D01*
Y-1984401D02*
Y-1574821D01*
Y-2171186D02*
Y-2027577D01*
X6346585Y-1383784D02*
X5937136D01*
X6346585Y-547042D02*
Y-399532D01*
Y-999793D02*
Y-590251D01*
Y-1186934D02*
X5937136D01*
X6346585D02*
Y-1043011D01*
Y-547042D02*
G03X6346585Y-590251I-509J-21604D01*
Y-999793D02*
G03X6346585Y-1043011I-452J-21609D01*
X5937136Y-1043325D02*
G03X5937136Y-1000149I470J21588D01*
Y-590569D02*
G03X5937136Y-547393I470J21588D01*
G01Y-399532D01*
Y-1000149D02*
Y-590569D01*
Y-1186934D02*
Y-1043325D01*
X6346585Y-399532D02*
X5937136D01*
X6346585Y437210D02*
Y584720D01*
Y-15541D02*
Y394001D01*
Y-202682D02*
X5937136D01*
X6346585D02*
Y-58759D01*
Y437210D02*
G03X6346585Y394001I-509J-21604D01*
Y-15541D02*
G03X6346585Y-58759I-452J-21609D01*
X5937136Y-59073D02*
G03X5937136Y-15897I470J21588D01*
Y393683D02*
G03X5937136Y436859I470J21588D01*
G01Y584720D01*
Y-15897D02*
Y393683D01*
Y-202682D02*
Y-59073D01*
X6346585Y584720D02*
X5937136D01*
X6346585Y1421462D02*
Y1568972D01*
Y968711D02*
Y1378253D01*
Y781570D02*
X5937136D01*
X6346585D02*
Y925493D01*
Y1421462D02*
G03X6346585Y1378253I-509J-21604D01*
Y968711D02*
G03X6346585Y925493I-452J-21609D01*
X5937136Y925179D02*
G03X5937136Y968355I470J21588D01*
Y1377935D02*
G03X5937136Y1421111I470J21588D01*
G01Y1568972D01*
Y968355D02*
Y1377935D01*
Y781570D02*
Y925179D01*
X6346585Y1568972D02*
X5937136D01*
X6346585Y2405713D02*
Y2553224D01*
Y1952963D02*
Y2362505D01*
Y1765822D02*
X5937136D01*
X6346585D02*
Y1909745D01*
Y2405713D02*
G03X6346585Y2362505I-509J-21604D01*
Y1952963D02*
G03X6346585Y1909745I-452J-21609D01*
X5937136Y1909431D02*
G03X5937136Y1952606I470J21588D01*
Y2362187D02*
G03X5937136Y2405363I470J21588D01*
G01Y2553224D01*
Y1952606D02*
Y2362187D01*
Y1765822D02*
Y1909431D01*
X6346585Y2553224D02*
X5937136D01*
X6834774Y-1531294D02*
Y-1383784D01*
Y-1984045D02*
Y-1574503D01*
Y-2171186D02*
X6425325D01*
X6834774D02*
Y-2027263D01*
Y-1531294D02*
G03X6834774Y-1574503I-509J-21604D01*
Y-1984045D02*
G03X6834774Y-2027263I-452J-21609D01*
X6425325Y-2027577D02*
G03X6425325Y-1984401I470J21588D01*
Y-1574821D02*
G03X6425325Y-1531645I470J21588D01*
G01Y-1383784D01*
Y-1984401D02*
Y-1574821D01*
Y-2171186D02*
Y-2027577D01*
X6834774Y-1383784D02*
X6425325D01*
X6834774Y-547042D02*
Y-399532D01*
Y-999793D02*
Y-590251D01*
Y-1186934D02*
X6425325D01*
X6834774D02*
Y-1043011D01*
Y-547042D02*
G03X6834774Y-590251I-509J-21604D01*
Y-999793D02*
G03X6834774Y-1043011I-452J-21609D01*
X6425325Y-1043325D02*
G03X6425325Y-1000149I470J21588D01*
Y-590569D02*
G03X6425325Y-547393I470J21588D01*
G01Y-399532D01*
Y-1000149D02*
Y-590569D01*
Y-1186934D02*
Y-1043325D01*
X6834774Y-399532D02*
X6425325D01*
X6834774Y437210D02*
Y584720D01*
Y-15541D02*
Y394001D01*
Y-202682D02*
X6425325D01*
X6834774D02*
Y-58759D01*
Y437210D02*
G03X6834774Y394001I-509J-21604D01*
Y-15541D02*
G03X6834774Y-58759I-452J-21609D01*
X6425325Y-59073D02*
G03X6425325Y-15897I470J21588D01*
Y393683D02*
G03X6425325Y436859I470J21588D01*
G01Y584720D01*
Y-15897D02*
Y393683D01*
Y-202682D02*
Y-59073D01*
X6834774Y584720D02*
X6425325D01*
X6834774Y1421462D02*
Y1568972D01*
Y968711D02*
Y1378253D01*
Y781570D02*
X6425325D01*
X6834774D02*
Y925493D01*
Y1421462D02*
G03X6834774Y1378253I-509J-21604D01*
Y968711D02*
G03X6834774Y925493I-452J-21609D01*
X6425325Y925179D02*
G03X6425325Y968355I470J21588D01*
Y1377935D02*
G03X6425325Y1421111I470J21588D01*
G01Y1568972D01*
Y968355D02*
Y1377935D01*
Y781570D02*
Y925179D01*
X6834774Y1568972D02*
X6425325D01*
X6834774Y2405713D02*
Y2553224D01*
Y1952963D02*
Y2362505D01*
Y1765822D02*
X6425325D01*
X6834774D02*
Y1909745D01*
Y2405713D02*
G03X6834774Y2362505I-509J-21604D01*
Y1952963D02*
G03X6834774Y1909745I-452J-21609D01*
X6425325Y1909431D02*
G03X6425325Y1952606I470J21588D01*
Y2362187D02*
G03X6425325Y2405363I470J21588D01*
G01Y2553224D01*
Y1952606D02*
Y2362187D01*
Y1765822D02*
Y1909431D01*
X6834774Y2553224D02*
X6425325D01*
X7322963Y-1531294D02*
Y-1383784D01*
Y-1984045D02*
Y-1574503D01*
Y-2171186D02*
X6913514D01*
X7322963D02*
Y-2027263D01*
Y-1531294D02*
G03X7322963Y-1574503I-509J-21604D01*
Y-1984045D02*
G03X7322963Y-2027263I-452J-21609D01*
X6913514Y-2027577D02*
G03X6913514Y-1984401I470J21588D01*
Y-1574821D02*
G03X6913514Y-1531645I470J21588D01*
G01Y-1383784D01*
Y-1984401D02*
Y-1574821D01*
Y-2171186D02*
Y-2027577D01*
X7322963Y-1383784D02*
X6913514D01*
X7322963Y-547042D02*
Y-399532D01*
Y-999793D02*
Y-590251D01*
Y-1186934D02*
X6913514D01*
X7322963D02*
Y-1043011D01*
Y-547042D02*
G03X7322963Y-590251I-509J-21604D01*
Y-999793D02*
G03X7322963Y-1043011I-452J-21609D01*
X6913514Y-1043325D02*
G03X6913514Y-1000149I470J21588D01*
Y-590569D02*
G03X6913514Y-547393I470J21588D01*
G01Y-399532D01*
Y-1000149D02*
Y-590569D01*
Y-1186934D02*
Y-1043325D01*
X7322963Y-399532D02*
X6913514D01*
X7322963Y437210D02*
Y584720D01*
Y-15541D02*
Y394001D01*
Y-202682D02*
X6913514D01*
X7322963D02*
Y-58759D01*
Y437210D02*
G03X7322963Y394001I-509J-21604D01*
Y-15541D02*
G03X7322963Y-58759I-452J-21609D01*
X6913514Y-59073D02*
G03X6913514Y-15897I470J21588D01*
Y393683D02*
G03X6913514Y436859I470J21588D01*
G01Y584720D01*
Y-15897D02*
Y393683D01*
Y-202682D02*
Y-59073D01*
X7322963Y584720D02*
X6913514D01*
X7322963Y1421462D02*
Y1568972D01*
Y968711D02*
Y1378253D01*
Y781570D02*
X6913514D01*
X7322963D02*
Y925493D01*
Y1421462D02*
G03X7322963Y1378253I-509J-21604D01*
Y968711D02*
G03X7322963Y925493I-452J-21609D01*
X6913514Y925179D02*
G03X6913514Y968355I470J21588D01*
Y1377935D02*
G03X6913514Y1421111I470J21588D01*
G01Y1568972D01*
Y968355D02*
Y1377935D01*
Y781570D02*
Y925179D01*
X7322963Y1568972D02*
X6913514D01*
X7322963Y2405713D02*
Y2553224D01*
Y1952963D02*
Y2362505D01*
Y1765822D02*
X6913514D01*
X7322963D02*
Y1909745D01*
Y2405713D02*
G03X7322963Y2362505I-509J-21604D01*
Y1952963D02*
G03X7322963Y1909745I-452J-21609D01*
X6913514Y1909431D02*
G03X6913514Y1952606I470J21588D01*
Y2362187D02*
G03X6913514Y2405363I470J21588D01*
G01Y2553224D01*
Y1952606D02*
Y2362187D01*
Y1765822D02*
Y1909431D01*
X7322963Y2553224D02*
X6913514D01*
X7811152Y-1531294D02*
Y-1383784D01*
Y-1984045D02*
Y-1574503D01*
Y-2171186D02*
X7401703D01*
X7811152D02*
Y-2027263D01*
Y-1531294D02*
G03X7811152Y-1574503I-509J-21604D01*
Y-1984045D02*
G03X7811152Y-2027263I-452J-21609D01*
X7401703Y-2027577D02*
G03X7401703Y-1984401I470J21588D01*
Y-1574821D02*
G03X7401703Y-1531645I470J21588D01*
G01Y-1383784D01*
Y-1984401D02*
Y-1574821D01*
Y-2171186D02*
Y-2027577D01*
X7811152Y-1383784D02*
X7401703D01*
X7811152Y-547042D02*
Y-399532D01*
Y-999793D02*
Y-590251D01*
Y-1186934D02*
X7401703D01*
X7811152D02*
Y-1043011D01*
Y-547042D02*
G03X7811152Y-590251I-509J-21604D01*
Y-999793D02*
G03X7811152Y-1043011I-452J-21609D01*
X7401703Y-1043325D02*
G03X7401703Y-1000149I470J21588D01*
Y-590569D02*
G03X7401703Y-547393I470J21588D01*
G01Y-399532D01*
Y-1000149D02*
Y-590569D01*
Y-1186934D02*
Y-1043325D01*
X7811152Y-399532D02*
X7401703D01*
X7811152Y437210D02*
Y584720D01*
Y-15541D02*
Y394001D01*
Y-202682D02*
X7401703D01*
X7811152D02*
Y-58759D01*
Y437210D02*
G03X7811152Y394001I-509J-21604D01*
Y-15541D02*
G03X7811152Y-58759I-452J-21609D01*
X7401703Y-59073D02*
G03X7401703Y-15897I470J21588D01*
Y393683D02*
G03X7401703Y436859I470J21588D01*
G01Y584720D01*
Y-15897D02*
Y393683D01*
Y-202682D02*
Y-59073D01*
X7811152Y584720D02*
X7401703D01*
X7811152Y1421462D02*
Y1568972D01*
Y968711D02*
Y1378253D01*
Y781570D02*
X7401703D01*
X7811152D02*
Y925493D01*
Y1421462D02*
G03X7811152Y1378253I-509J-21604D01*
Y968711D02*
G03X7811152Y925493I-452J-21609D01*
X7401703Y925179D02*
G03X7401703Y968355I470J21588D01*
Y1377935D02*
G03X7401703Y1421111I470J21588D01*
G01Y1568972D01*
Y968355D02*
Y1377935D01*
Y781570D02*
Y925179D01*
X7811152Y1568972D02*
X7401703D01*
X7811152Y2405713D02*
Y2553224D01*
Y1952963D02*
Y2362505D01*
Y1765822D02*
X7401703D01*
X7811152D02*
Y1909745D01*
Y2405713D02*
G03X7811152Y2362505I-509J-21604D01*
Y1952963D02*
G03X7811152Y1909745I-452J-21609D01*
X7401703Y1909431D02*
G03X7401703Y1952606I470J21588D01*
Y2362187D02*
G03X7401703Y2405363I470J21588D01*
G01Y2553224D01*
Y1952606D02*
Y2362187D01*
Y1765822D02*
Y1909431D01*
X7811152Y2553224D02*
X7401703D01*
X8299341Y-1531294D02*
Y-1383784D01*
Y-1984045D02*
Y-1574503D01*
Y-2171186D02*
X7889892D01*
X8299341D02*
Y-2027263D01*
Y-1531294D02*
G03X8299341Y-1574503I-509J-21604D01*
Y-1984045D02*
G03X8299341Y-2027263I-452J-21609D01*
X7889892Y-2027577D02*
G03X7889892Y-1984401I470J21588D01*
Y-1574821D02*
G03X7889892Y-1531645I470J21588D01*
G01Y-1383784D01*
Y-1984401D02*
Y-1574821D01*
Y-2171186D02*
Y-2027577D01*
X8299341Y-1383784D02*
X7889892D01*
X8299341Y-547042D02*
Y-399532D01*
Y-999793D02*
Y-590251D01*
Y-1186934D02*
X7889892D01*
X8299341D02*
Y-1043011D01*
Y-547042D02*
G03X8299341Y-590251I-509J-21604D01*
Y-999793D02*
G03X8299341Y-1043011I-452J-21609D01*
X7889892Y-1043325D02*
G03X7889892Y-1000149I470J21588D01*
Y-590569D02*
G03X7889892Y-547393I470J21588D01*
G01Y-399532D01*
Y-1000149D02*
Y-590569D01*
Y-1186934D02*
Y-1043325D01*
X8299341Y-399532D02*
X7889892D01*
X8299341Y437210D02*
Y584720D01*
Y-15541D02*
Y394001D01*
Y-202682D02*
X7889892D01*
X8299341D02*
Y-58759D01*
Y437210D02*
G03X8299341Y394001I-509J-21604D01*
Y-15541D02*
G03X8299341Y-58759I-452J-21609D01*
X7889892Y-59073D02*
G03X7889892Y-15897I470J21588D01*
Y393683D02*
G03X7889892Y436859I470J21588D01*
G01Y584720D01*
Y-15897D02*
Y393683D01*
Y-202682D02*
Y-59073D01*
X8299341Y584720D02*
X7889892D01*
X8299341Y1421462D02*
Y1568972D01*
Y968711D02*
Y1378253D01*
Y781570D02*
X7889892D01*
X8299341D02*
Y925493D01*
Y1421462D02*
G03X8299341Y1378253I-509J-21604D01*
Y968711D02*
G03X8299341Y925493I-452J-21609D01*
X7889892Y925179D02*
G03X7889892Y968355I470J21588D01*
Y1377935D02*
G03X7889892Y1421111I470J21588D01*
G01Y1568972D01*
Y968355D02*
Y1377935D01*
Y781570D02*
Y925179D01*
X8299341Y1568972D02*
X7889892D01*
X8299341Y2405713D02*
Y2553224D01*
Y1952963D02*
Y2362505D01*
Y1765822D02*
X7889892D01*
X8299341D02*
Y1909745D01*
Y2405713D02*
G03X8299341Y2362505I-509J-21604D01*
Y1952963D02*
G03X8299341Y1909745I-452J-21609D01*
X7889892Y1909431D02*
G03X7889892Y1952606I470J21588D01*
Y2362187D02*
G03X7889892Y2405363I470J21588D01*
G01Y2553224D01*
Y1952606D02*
Y2362187D01*
Y1765822D02*
Y1909431D01*
X8299341Y2553224D02*
X7889892D01*
X4074929Y2789444D02*
X4074929Y-2407406D01*
X4153670Y-2486146D02*
X8618237D01*
X4153670Y2868184D02*
X8618237D01*
X8696977Y-2407406D02*
Y2789444D01*
X4153670Y-2486146D02*
G02X4074929Y-2407406I-0J78740D01*
X4074929Y2789444D02*
G02X4153670Y2868184I78740J0D01*
X8618237D02*
G02X8696977Y2789444I0J-78740D01*
X8618237Y-2486146D02*
G03X8696977Y-2407406I0J78740D01*
X4393788Y-2249926D02*
G01Y2631964D01*
Y-2249926D02*
X8378119D01*
Y2631964D01*
Y2631964D02*
X4393788D01*
X4393791Y2086914D02*
X4472569D01*
X4393791Y2323134D02*
X4472569D01*
X4881980Y2086914D02*
X4960758D01*
X4881980Y2323134D02*
X4960758D01*
X4645285Y1568972D02*
Y1763577D01*
X4802765D02*
Y1568972D01*
X4645285Y2553224D02*
Y2631964D01*
X4802765D02*
Y2553224D01*
X5370169Y2086914D02*
X5448947D01*
X5370169Y2323134D02*
X5448947D01*
X5133474Y1568972D02*
Y1763577D01*
X5290954D02*
Y1568972D01*
X5133474Y2553224D02*
Y2631964D01*
X5290954D02*
Y2553224D01*
X5858358Y2086914D02*
X5937136D01*
X5858358Y2323134D02*
X5937136D01*
X5621663Y1568972D02*
Y1763577D01*
X5779143D02*
Y1568972D01*
X5621663Y2553224D02*
Y2631964D01*
X5779143D02*
Y2553224D01*
X6346547Y2086914D02*
X6425325D01*
X6346547Y2323134D02*
X6425325D01*
X6109852Y1568972D02*
Y1763577D01*
X6267332D02*
Y1568972D01*
X6109852Y2553224D02*
Y2631964D01*
X6267332D02*
Y2553224D01*
X6834736Y2086914D02*
X6913514D01*
X6834736Y2323134D02*
X6913514D01*
X6598041Y1568972D02*
Y1763577D01*
X6755521D02*
Y1568972D01*
X6598041Y2553224D02*
Y2631964D01*
X6755521D02*
Y2553224D01*
X7322925Y2086914D02*
X7401703D01*
X7322925Y2323134D02*
X7401703D01*
X7086230Y1568972D02*
Y1763577D01*
X7243710D02*
Y1568972D01*
X7086230Y2553224D02*
Y2631964D01*
X7243710D02*
Y2553224D01*
X7811114Y2086914D02*
X7889892D01*
X7811114Y2323134D02*
X7889892D01*
X7574419Y1568972D02*
Y1763577D01*
X7731899D02*
Y1568972D01*
X7574419Y2553224D02*
Y2631964D01*
X7731899D02*
Y2553224D01*
X8299303Y2086914D02*
X8378081D01*
X8299303Y2323134D02*
X8378081D01*
X8062608Y1568972D02*
Y1763577D01*
X8220088D02*
Y1568972D01*
X8062608Y2553224D02*
Y2631964D01*
X8220088D02*
Y2553224D01*
X4393791Y1102662D02*
X4472569D01*
X4393791Y1338882D02*
X4472569D01*
X4881980Y1102662D02*
X4960758D01*
X4881980Y1338882D02*
X4960758D01*
X4645285Y584720D02*
Y779325D01*
X4802765D02*
Y584720D01*
X5370169Y1102662D02*
X5448947D01*
X5370169Y1338882D02*
X5448947D01*
X5133474Y584720D02*
Y779325D01*
X5290954D02*
Y584720D01*
X5858358Y1102662D02*
X5937136D01*
X5858358Y1338882D02*
X5937136D01*
X5621663Y584720D02*
Y779325D01*
X5779143D02*
Y584720D01*
X6346547Y1102662D02*
X6425325D01*
X6346547Y1338882D02*
X6425325D01*
X6109852Y584720D02*
Y779325D01*
X6267332D02*
Y584720D01*
X6834736Y1102662D02*
X6913514D01*
X6834736Y1338882D02*
X6913514D01*
X6598041Y584720D02*
Y779325D01*
X6755521D02*
Y584720D01*
X7322925Y1102662D02*
X7401703D01*
X7322925Y1338882D02*
X7401703D01*
X7086230Y584720D02*
Y779325D01*
X7243710D02*
Y584720D01*
X7811114Y1102662D02*
X7889892D01*
X7811114Y1338882D02*
X7889892D01*
X7574419Y584720D02*
Y779325D01*
X7731899D02*
Y584720D01*
X8299303Y1102662D02*
X8378081D01*
X8299303Y1338882D02*
X8378081D01*
X8062608Y584720D02*
Y779325D01*
X8220088D02*
Y584720D01*
X4393791Y118410D02*
X4472569D01*
X4393791Y354630D02*
X4472569D01*
X4881980Y118410D02*
X4960758D01*
X4881980Y354630D02*
X4960758D01*
X4645285Y-399532D02*
Y-204927D01*
X4802765D02*
Y-399532D01*
X5370169Y118410D02*
X5448947D01*
X5370169Y354630D02*
X5448947D01*
X5133474Y-399532D02*
Y-204927D01*
X5290954D02*
Y-399532D01*
X5858358Y118410D02*
X5937136D01*
X5858358Y354630D02*
X5937136D01*
X5621663Y-399532D02*
Y-204927D01*
X5779143D02*
Y-399532D01*
X6346547Y118410D02*
X6425325D01*
X6346547Y354630D02*
X6425325D01*
X6109852Y-399532D02*
Y-204927D01*
X6267332D02*
Y-399532D01*
X6834736Y118410D02*
X6913514D01*
X6834736Y354630D02*
X6913514D01*
X6598041Y-399532D02*
Y-204927D01*
X6755521D02*
Y-399532D01*
X7322925Y118410D02*
X7401703D01*
X7322925Y354630D02*
X7401703D01*
X7086230Y-399532D02*
Y-204927D01*
X7243710D02*
Y-399532D01*
X7811114Y118410D02*
X7889892D01*
X7811114Y354630D02*
X7889892D01*
X7574419Y-399532D02*
Y-204927D01*
X7731899D02*
Y-399532D01*
X8299303Y118410D02*
X8378081D01*
X8299303Y354630D02*
X8378081D01*
X8062608Y-399532D02*
Y-204927D01*
X8220088D02*
Y-399532D01*
X4393791Y-865842D02*
X4472569D01*
X4393791Y-629622D02*
X4472569D01*
X4881980Y-865842D02*
X4960758D01*
X4881980Y-629622D02*
X4960758D01*
X4645285Y-1383784D02*
Y-1189179D01*
X4802765D02*
Y-1383784D01*
X5370169Y-865842D02*
X5448947D01*
X5370169Y-629622D02*
X5448947D01*
X5133474Y-1383784D02*
Y-1189179D01*
X5290954D02*
Y-1383784D01*
X5858358Y-865842D02*
X5937136D01*
X5858358Y-629622D02*
X5937136D01*
X5621663Y-1383784D02*
Y-1189179D01*
X5779143D02*
Y-1383784D01*
X6346547Y-865842D02*
X6425325D01*
X6346547Y-629622D02*
X6425325D01*
X6109852Y-1383784D02*
Y-1189179D01*
X6267332D02*
Y-1383784D01*
X6834736Y-865842D02*
X6913514D01*
X6834736Y-629622D02*
X6913514D01*
X6598041Y-1383784D02*
Y-1189179D01*
X6755521D02*
Y-1383784D01*
X7322925Y-865842D02*
X7401703D01*
X7322925Y-629622D02*
X7401703D01*
X7086230Y-1383784D02*
Y-1189179D01*
X7243710D02*
Y-1383784D01*
X7811114Y-865842D02*
X7889892D01*
X7811114Y-629622D02*
X7889892D01*
X7574419Y-1383784D02*
Y-1189179D01*
X7731899D02*
Y-1383784D01*
X8299303Y-865842D02*
X8378081D01*
X8299303Y-629622D02*
X8378081D01*
X8062608Y-1383784D02*
Y-1189179D01*
X8220088D02*
Y-1383784D01*
X4393791Y-1850094D02*
X4472569D01*
X4393791Y-1613874D02*
X4472569D01*
X4881980Y-1850094D02*
X4960758D01*
X4881980Y-1613874D02*
X4960758D01*
X4645285Y-2249926D02*
Y-2173431D01*
X4802765D02*
Y-2249926D01*
X5370169Y-1850094D02*
X5448947D01*
X5370169Y-1613874D02*
X5448947D01*
X5133474Y-2249926D02*
Y-2173431D01*
X5290954D02*
Y-2249926D01*
X5858358Y-1850094D02*
X5937136D01*
X5858358Y-1613874D02*
X5937136D01*
X5621663Y-2249926D02*
Y-2173431D01*
X5779143D02*
Y-2249926D01*
X6346547Y-1850094D02*
X6425325D01*
X6346547Y-1613874D02*
X6425325D01*
X6109852Y-2249926D02*
Y-2173431D01*
X6267332D02*
Y-2249926D01*
X6834736Y-1850094D02*
X6913514D01*
X6834736Y-1613874D02*
X6913514D01*
X6598041Y-2249926D02*
Y-2173431D01*
X6755521D02*
Y-2249926D01*
X7322925Y-1850094D02*
X7401703D01*
X7322925Y-1613874D02*
X7401703D01*
X7086230Y-2249926D02*
Y-2173431D01*
X7243710D02*
Y-2249926D01*
X7811114Y-1850094D02*
X7889892D01*
X7811114Y-1613874D02*
X7889892D01*
X7574419Y-2249926D02*
Y-2173431D01*
X7731899D02*
Y-2249926D01*
X8299303Y-1850094D02*
X8378081D01*
X8299303Y-1613874D02*
X8378081D01*
X8062608Y-2249926D02*
Y-2173431D01*
X8220088D02*
Y-2249926D01*
G54D25*
X4433158Y1378252D03*
X4842135Y1726452D03*
X4433158Y2592594D03*
X4842135D03*
X8259458Y2592594D03*
X8338749Y2047544D03*
Y-1889464D03*
X5094104Y-2210556D03*
X4605915D03*
X5330324Y1726452D03*
Y2592594D03*
X5818513Y1726452D03*
Y2592594D03*
X6306702Y1726452D03*
Y2592594D03*
X6794891Y1726452D03*
Y2592594D03*
X7283080Y1726452D03*
Y2592594D03*
X7771269Y1726452D03*
Y2592594D03*
X4433158Y394000D03*
X4842135Y742200D03*
X8338749Y1063292D03*
X5330324Y742200D03*
X5818513D03*
X6306702D03*
X6794891D03*
X7283080D03*
X7771269D03*
X4433158Y-590252D03*
X4842135Y-242052D03*
X8338749Y79040D03*
X5330324Y-242052D03*
X5818513D03*
X6306702D03*
X6794891D03*
X7283080D03*
X7771269D03*
X4433158Y-1574504D03*
X4842135Y-1226304D03*
X8338749Y-905212D03*
X5330324Y-1226304D03*
X5818513D03*
X6306702D03*
X6794891D03*
X7283080D03*
X7771269D03*
X5582293Y-2210556D03*
X6070482D03*
X6558671D03*
X7046860D03*
X7535049D03*
X8023238D03*
G54D26*
X8578867Y-1895595D03*
G54D27*
X8577641Y-2351105D02*
Y-2270396D01*
G54D26*
X8578867Y2277632D03*
X4193021Y2277175D03*
X4193040Y-1501894D03*
G54D28*
X8539497Y-1698744D03*
Y2080782D03*
X4232410Y-1305043D03*
G54D29*
X5875644Y2751723D03*
X5998367D03*
%LPC*%
G75*
X5998367Y2751723D02*
G54D30*
X4557951Y-1754614D02*
X4584279Y-1760766D01*
X4759302Y-1497052D02*
X4793790D01*
X4794912Y-1497032D02*
X4829361D01*
X4795128Y-1426934D02*
Y-1461816D01*
X4557951Y-770362D02*
X4584279Y-776514D01*
X4759302Y-512800D02*
X4793790D01*
X4794912Y-512780D02*
X4829361D01*
X4795128Y-442682D02*
Y-477564D01*
X4557951Y213890D02*
X4584279Y207738D01*
X4759302Y471452D02*
X4793790D01*
X4794912Y471472D02*
X4829361D01*
X4795128Y541570D02*
Y506688D01*
X4557951Y1198142D02*
X4584279Y1191989D01*
X4759302Y1455704D02*
X4793790D01*
X4794912Y1455724D02*
X4829361D01*
X4795128Y1525822D02*
Y1490940D01*
X4557951Y2182394D02*
X4584279Y2176241D01*
X4759302Y2439956D02*
X4793790D01*
X4794912Y2439976D02*
X4829361D01*
X4795128Y2510074D02*
Y2475192D01*
X5046140Y-1754614D02*
X5072468Y-1760766D01*
X5247491Y-1497052D02*
X5281979D01*
X5283101Y-1497032D02*
X5317550D01*
X5283317Y-1426934D02*
Y-1461816D01*
X5046140Y-770362D02*
X5072468Y-776514D01*
X5247491Y-512800D02*
X5281979D01*
X5283101Y-512780D02*
X5317550D01*
X5283317Y-442682D02*
Y-477564D01*
X5046140Y213890D02*
X5072468Y207738D01*
X5247491Y471452D02*
X5281979D01*
X5283101Y471472D02*
X5317550D01*
X5283317Y541570D02*
Y506688D01*
X5046140Y1198142D02*
X5072468Y1191989D01*
X5247491Y1455704D02*
X5281979D01*
X5283101Y1455724D02*
X5317550D01*
X5283317Y1525822D02*
Y1490940D01*
X5046140Y2182394D02*
X5072468Y2176241D01*
X5247491Y2439956D02*
X5281979D01*
X5283101Y2439976D02*
X5317550D01*
X5283317Y2510074D02*
Y2475192D01*
X5534329Y-1754614D02*
X5560657Y-1760766D01*
X5735680Y-1497052D02*
X5770168D01*
X5771290Y-1497032D02*
X5805739D01*
X5771506Y-1426934D02*
Y-1461816D01*
X5534329Y-770362D02*
X5560657Y-776514D01*
X5735680Y-512800D02*
X5770168D01*
X5771290Y-512780D02*
X5805739D01*
X5771506Y-442682D02*
Y-477564D01*
X5534329Y213890D02*
X5560657Y207738D01*
X5735680Y471452D02*
X5770168D01*
X5771290Y471472D02*
X5805739D01*
X5771506Y541570D02*
Y506688D01*
X5534329Y1198142D02*
X5560657Y1191989D01*
X5735680Y1455704D02*
X5770168D01*
X5771290Y1455724D02*
X5805739D01*
X5771506Y1525822D02*
Y1490940D01*
X5534329Y2182394D02*
X5560657Y2176241D01*
X5735680Y2439956D02*
X5770168D01*
X5771290Y2439976D02*
X5805739D01*
X5771506Y2510074D02*
Y2475192D01*
X6022518Y-1754614D02*
X6048846Y-1760766D01*
X6223869Y-1497052D02*
X6258357D01*
X6259479Y-1497032D02*
X6293928D01*
X6259695Y-1426934D02*
Y-1461816D01*
X6022518Y-770362D02*
X6048846Y-776514D01*
X6223869Y-512800D02*
X6258357D01*
X6259479Y-512780D02*
X6293928D01*
X6259695Y-442682D02*
Y-477564D01*
X6022518Y213890D02*
X6048846Y207738D01*
X6223869Y471452D02*
X6258357D01*
X6259479Y471472D02*
X6293928D01*
X6259695Y541570D02*
Y506688D01*
X6022518Y1198142D02*
X6048846Y1191989D01*
X6223869Y1455704D02*
X6258357D01*
X6259479Y1455724D02*
X6293928D01*
X6259695Y1525822D02*
Y1490940D01*
X6022518Y2182394D02*
X6048846Y2176241D01*
X6223869Y2439956D02*
X6258357D01*
X6259479Y2439976D02*
X6293928D01*
X6259695Y2510074D02*
Y2475192D01*
X6510707Y-1754614D02*
X6537035Y-1760766D01*
X6712058Y-1497052D02*
X6746546D01*
X6747668Y-1497032D02*
X6782117D01*
X6747884Y-1426934D02*
Y-1461816D01*
X6510707Y-770362D02*
X6537035Y-776514D01*
X6712058Y-512800D02*
X6746546D01*
X6747668Y-512780D02*
X6782117D01*
X6747884Y-442682D02*
Y-477564D01*
X6510707Y213890D02*
X6537035Y207738D01*
X6712058Y471452D02*
X6746546D01*
X6747668Y471472D02*
X6782117D01*
X6747884Y541570D02*
Y506688D01*
X6510707Y1198142D02*
X6537035Y1191989D01*
X6712058Y1455704D02*
X6746546D01*
X6747668Y1455724D02*
X6782117D01*
X6747884Y1525822D02*
Y1490940D01*
X6510707Y2182394D02*
X6537035Y2176241D01*
X6712058Y2439956D02*
X6746546D01*
X6747668Y2439976D02*
X6782117D01*
X6747884Y2510074D02*
Y2475192D01*
X6998896Y-1754614D02*
X7025224Y-1760766D01*
X7200247Y-1497052D02*
X7234735D01*
X7235857Y-1497032D02*
X7270306D01*
X7236073Y-1426934D02*
Y-1461816D01*
X6998896Y-770362D02*
X7025224Y-776514D01*
X7200247Y-512800D02*
X7234735D01*
X7235857Y-512780D02*
X7270306D01*
X7236073Y-442682D02*
Y-477564D01*
X6998896Y213890D02*
X7025224Y207738D01*
X7200247Y471452D02*
X7234735D01*
X7235857Y471472D02*
X7270306D01*
X7236073Y541570D02*
Y506688D01*
X6998896Y1198142D02*
X7025224Y1191989D01*
X7200247Y1455704D02*
X7234735D01*
X7235857Y1455724D02*
X7270306D01*
X7236073Y1525822D02*
Y1490940D01*
X6998896Y2182394D02*
X7025224Y2176241D01*
X7200247Y2439956D02*
X7234735D01*
X7235857Y2439976D02*
X7270306D01*
X7236073Y2510074D02*
Y2475192D01*
X7487085Y-1754614D02*
X7513413Y-1760766D01*
X7688436Y-1497052D02*
X7722924D01*
X7724046Y-1497032D02*
X7758495D01*
X7724262Y-1426934D02*
Y-1461816D01*
X7487085Y-770362D02*
X7513413Y-776514D01*
X7688436Y-512800D02*
X7722924D01*
X7724046Y-512780D02*
X7758495D01*
X7724262Y-442682D02*
Y-477564D01*
X7487085Y213890D02*
X7513413Y207738D01*
X7688436Y471452D02*
X7722924D01*
X7724046Y471472D02*
X7758495D01*
X7724262Y541570D02*
Y506688D01*
X7487085Y1198142D02*
X7513413Y1191989D01*
X7688436Y1455704D02*
X7722924D01*
X7724046Y1455724D02*
X7758495D01*
X7724262Y1525822D02*
Y1490940D01*
X7487085Y2182394D02*
X7513413Y2176241D01*
X7688436Y2439956D02*
X7722924D01*
X7724046Y2439976D02*
X7758495D01*
X7724262Y2510074D02*
Y2475192D01*
X7975274Y-1754614D02*
X8001601Y-1760766D01*
X8176625Y-1497052D02*
X8211113D01*
X8212235Y-1497032D02*
X8246684D01*
X8212451Y-1426934D02*
Y-1461816D01*
X7975274Y-770362D02*
X8001601Y-776514D01*
X8176625Y-512800D02*
X8211113D01*
X8212235Y-512780D02*
X8246684D01*
X8212451Y-442682D02*
Y-477564D01*
X7975274Y213890D02*
X8001601Y207738D01*
X8176625Y471452D02*
X8211113D01*
X8212235Y471472D02*
X8246684D01*
X8212451Y541570D02*
Y506688D01*
X7975274Y1198142D02*
X8001601Y1191989D01*
X8176625Y1455704D02*
X8211113D01*
X8212235Y1455724D02*
X8246684D01*
X8212451Y1525822D02*
Y1490940D01*
X7975274Y2182394D02*
X8001601Y2176241D01*
X8176625Y2439956D02*
X8211113D01*
X8212235Y2439976D02*
X8246684D01*
X8212451Y2510074D02*
Y2475192D01*
M02*
